ISO-10303-21;
HEADER;
FILE_DESCRIPTION (( 'STEP AP214' ),
    '1' );
FILE_NAME ('DC11_A01_IDLER_SCREW.STEP',
    '2026-08-29T22:11:45',
    ( '' ),
    ( '' ),
    'SwSTEP 2.0',
    'SolidWorks 2023',
    '' );
FILE_SCHEMA (( 'AUTOMOTIVE_DESIGN' ));
ENDSEC;

DATA;
#1 = CARTESIAN_POINT ( 'NONE',  ( 0.000000000000000000, 1.500000000000000000, 0.000000000000000000 ) ) ;
#2 = VECTOR ( 'NONE', #703, 1000.000000000000000 ) ;
#3 = CONICAL_SURFACE ( 'NONE', #445, 1.499999999907686288, 0.7853981635111351167 ) ;
#4 = DIRECTION ( 'NONE',  ( -0.000000000000000000, 1.000000000000000000, -0.000000000000000000 ) ) ;
#5 = VECTOR ( 'NONE', #687, 1000.000000000000000 ) ;
#6 = LINE ( 'NONE', #343, #5 ) ;
#7 = ORIENTED_EDGE ( 'NONE', *, *, #407, .F. ) ;
#8 = DIRECTION ( 'NONE',  ( 0.000000000000000000, 0.000000000000000000, -1.000000000000000000 ) ) ;
#9 = CARTESIAN_POINT ( 'NONE',  ( 1.836970198722700347E-16, -3.250000000000000444, -1.500000000001364020 ) ) ;
#10 = DIRECTION ( 'NONE',  ( 0.000000000000000000, 0.000000000000000000, -1.000000000000000000 ) ) ;
#11 = ORIENTED_EDGE ( 'NONE', *, *, #135, .F. ) ;
#12 = CYLINDRICAL_SURFACE ( 'NONE', #351, 1.750000000000000000 ) ;
#13 = EDGE_CURVE ( 'NONE', #706, #458, #1007, .T. ) ;
#14 = CARTESIAN_POINT ( 'NONE',  ( -1.060660171779999938, 0.7500000000000000000, -1.060660171779999938 ) ) ;
#15 = CARTESIAN_POINT ( 'NONE',  ( 0.3106601717797999873, 0.7500000000000000000, -1.722205056800999889 ) ) ;
#16 = ORIENTED_EDGE ( 'NONE', *, *, #580, .T. ) ;
#17 = DIRECTION ( 'NONE',  ( 0.000000000000000000, 1.000000000000000000, 0.000000000000000000 ) ) ;
#18 = DIRECTION ( 'NONE',  ( 0.000000000000000000, 0.000000000000000000, -1.000000000000000000 ) ) ;
#19 = ADVANCED_FACE ( 'NONE', ( #1090, #92 ), #425, .T. ) ;
#20 = CIRCLE ( 'NONE', #534, 1.750000000000000000 ) ;
#21 = CARTESIAN_POINT ( 'NONE',  ( -0.3952661566440527352, -0.000000000000000000, -1.448482465358608362 ) ) ;
#22 = AXIS2_PLACEMENT_3D ( 'NONE', #752, #64, #1088 ) ;
#23 = VECTOR ( 'NONE', #527, 1000.000000000000000 ) ;
#24 = VERTEX_POINT ( 'NONE', #844 ) ;
#25 = LINE ( 'NONE', #776, #976 ) ;
#26 = CARTESIAN_POINT ( 'NONE',  ( 0.000000000000000000, 1.250000000000000000, 0.000000000000000000 ) ) ;
#27 = LINE ( 'NONE', #441, #805 ) ;
#28 = EDGE_CURVE ( 'NONE', #145, #245, #6, .T. ) ;
#29 = ORIENTED_EDGE ( 'NONE', *, *, #558, .F. ) ;
#30 = DIRECTION ( 'NONE',  ( 1.000000000000000000, 0.000000000000000000, -0.000000000000000000 ) ) ;
#31 = CARTESIAN_POINT ( 'NONE',  ( -0.7444064871679998419, -0.000000000000000000, -1.318643257891437992 ) ) ;
#32 = SHELL_BASED_SURFACE_MODEL ( 'NONE', ( #915, #464 ) );
#33 = AXIS2_PLACEMENT_3D ( 'NONE', #852, #423, #62 ) ;
#34 = ORIENTED_EDGE ( 'NONE', *, *, #226, .F. ) ;
#35 = ADVANCED_FACE ( 'NONE', ( #1012 ), #1028, .T. ) ;
#36 = CARTESIAN_POINT ( 'NONE',  ( -1.320168919692214615, -0.000000000000000000, -0.7157900588269314746 ) ) ;
#37 = CIRCLE ( 'NONE', #461, 0.7500000000000000000 ) ;
#38 = ORIENTED_EDGE ( 'NONE', *, *, #69, .F. ) ;
#39 = CARTESIAN_POINT ( 'NONE',  ( -0.3106601717797999873, 0.7500000000000000000, -1.060660171779999938 ) ) ;
#40 = DIRECTION ( 'NONE',  ( 0.000000000000000000, 0.000000000000000000, -1.000000000000000000 ) ) ;
#41 =( LENGTH_UNIT ( ) NAMED_UNIT ( * ) SI_UNIT ( .MILLI., .METRE. ) );
#42 = ORIENTED_EDGE ( 'NONE', *, *, #28, .T. ) ;
#43 = CARTESIAN_POINT ( 'NONE',  ( 1.060660171779999938, 1.500000000000000000, 0.3106601717797999318 ) ) ;
#44 = UNCERTAINTY_MEASURE_WITH_UNIT (LENGTH_MEASURE( 1.000000000000000082E-05 ), #41, 'distance_accuracy_value', 'NONE');
#45 =( LENGTH_UNIT ( ) NAMED_UNIT ( * ) SI_UNIT ( .MILLI., .METRE. ) );
#46 = EDGE_CURVE ( 'NONE', #432, #388, #506, .T. ) ;
#47 = PLANE ( 'NONE',  #845 ) ;
#48 = CARTESIAN_POINT ( 'NONE',  ( 0.000000000000000000, -3.500000000000000000, 0.000000000000000000 ) ) ;
#49 = ORIENTED_EDGE ( 'NONE', *, *, #232, .T. ) ;
#50 = DIRECTION ( 'NONE',  ( 0.000000000000000000, 0.000000000000000000, -1.000000000000000000 ) ) ;
#51 = CIRCLE ( 'NONE', #439, 1.250000000000000000 ) ;
#52 = DIRECTION ( 'NONE',  ( -0.000000000000000000, 1.000000000000000000, -0.000000000000000000 ) ) ;
#53 = EDGE_CURVE ( 'NONE', #857, #706, #66, .T. ) ;
#54 = DIRECTION ( 'NONE',  ( -0.000000000000000000, 1.000000000000000000, -0.000000000000000000 ) ) ;
#55 = ORIENTED_EDGE ( 'NONE', *, *, #614, .F. ) ;
#56 = CARTESIAN_POINT ( 'NONE',  ( 3.061616997832184286E-16, 1.250000000000000000, -2.499999999970441866 ) ) ;
#57 = AXIS2_PLACEMENT_3D ( 'NONE', #203, #213, #542 ) ;
#58 = AXIS2_PLACEMENT_3D ( 'NONE', #375, #731, #221 ) ;
#59 = DIRECTION ( 'NONE',  ( 0.000000000000000000, 1.000000000000000000, 0.000000000000000000 ) ) ;
#60 = CARTESIAN_POINT ( 'NONE',  ( -1.060660171779999938, 0.7500000000000000000, -0.3106601717797999318 ) ) ;
#61 = ORIENTED_EDGE ( 'NONE', *, *, #1068, .F. ) ;
#62 = DIRECTION ( 'NONE',  ( 0.000000000000000000, 0.000000000000000000, 1.000000000000000000 ) ) ;
#63 = EDGE_CURVE ( 'NONE', #366, #939, #360, .T. ) ;
#64 = DIRECTION ( 'NONE',  ( -0.000000000000000000, 1.000000000000000000, -0.000000000000000000 ) ) ;
#65 = CARTESIAN_POINT ( 'NONE',  ( 0.7444064871679998419, -0.000000000000000000, 1.318643257891437992 ) ) ;
#66 = LINE ( 'NONE', #404, #627 ) ;
#67 = FACE_OUTER_BOUND ( 'NONE', #550, .T. ) ;
#68 = ORIENTED_EDGE ( 'NONE', *, *, #705, .T. ) ;
#69 = EDGE_CURVE ( 'NONE', #766, #103, #431, .T. ) ;
#70 = AXIS2_PLACEMENT_3D ( 'NONE', #160, #418, #499 ) ;
#71 = FACE_OUTER_BOUND ( 'NONE', #738, .T. ) ;
#72 = CARTESIAN_POINT ( 'NONE',  ( 0.3952661566440527352, -0.000000000000000000, 1.448482465358608362 ) ) ;
#73 = ORIENTED_EDGE ( 'NONE', *, *, #331, .T. ) ;
#74 = ORIENTED_EDGE ( 'NONE', *, *, #104, .T. ) ;
#75 = AXIS2_PLACEMENT_3D ( 'NONE', #171, #853, #1078 ) ;
#76 = ADVANCED_FACE ( 'NONE', ( #607 ), #516, .F. ) ;
#77 = CARTESIAN_POINT ( 'NONE',  ( 1.060660171779999938, 1.500000000000000000, 1.060660171779999938 ) ) ;
#78 = MECHANICAL_DESIGN_GEOMETRIC_PRESENTATION_REPRESENTATION (  '', ( #148 ), #736 ) ;
#79 = EDGE_CURVE ( 'NONE', #1060, #575, #149, .T. ) ;
#80 = VECTOR ( 'NONE', #825, 1000.000000000000000 ) ;
#81 = DIRECTION ( 'NONE',  ( 0.000000000000000000, -1.000000000000000000, 0.000000000000000000 ) ) ;
#82 = ORIENTED_EDGE ( 'NONE', *, *, #930, .T. ) ;
#83 = ORIENTED_EDGE ( 'NONE', *, *, #677, .T. ) ;
#84 = DIRECTION ( 'NONE',  ( 0.000000000000000000, -1.000000000000000000, 0.000000000000000000 ) ) ;
#85 = CARTESIAN_POINT ( 'NONE',  ( 0.000000000000000000, 1.750000000000000000, 0.000000000000000000 ) ) ;
#86 = EDGE_CURVE ( 'NONE', #989, #432, #555, .T. ) ;
#87 = DIRECTION ( 'NONE',  ( -1.000000000000000000, -0.000000000000000000, -0.000000000000000000 ) ) ;
#88 = ORIENTED_EDGE ( 'NONE', *, *, #401, .T. ) ;
#89 = LINE ( 'NONE', #282, #334 ) ;
#90 = AXIS2_PLACEMENT_3D ( 'NONE', #594, #1077, #142 ) ;
#91 = CARTESIAN_POINT ( 'NONE',  ( -0.9875873162724128074, -0.000000000000000000, 1.133785510258697116 ) ) ;
#92 = FACE_OUTER_BOUND ( 'NONE', #592, .T. ) ;
#93 = EDGE_LOOP ( 'NONE', ( #258, #1029, #597, #415 ) ) ;
#94 = DIRECTION ( 'NONE',  ( 0.000000000000000000, 0.000000000000000000, -1.000000000000000000 ) ) ;
#95 = DIRECTION ( 'NONE',  ( -3.552713678800500929E-15, 0.000000000000000000, -1.000000000000000000 ) ) ;
#96 = CIRCLE ( 'NONE', #718, 1.250000000000000000 ) ;
#97 = CARTESIAN_POINT ( 'NONE',  ( 0.5742673643406204231, 0.000000000000000000, -1.385914435630145825 ) ) ;
#98 = ORIENTED_EDGE ( 'NONE', *, *, #524, .T. ) ;
#99 = EDGE_CURVE ( 'NONE', #575, #1060, #255, .T. ) ;
#100 = CARTESIAN_POINT ( 'NONE',  ( 0.000000000000000000, 1.249999999913598003, 0.000000000000000000 ) ) ;
#101 = CARTESIAN_POINT ( 'NONE',  ( -1.060660171779999938, 0.7500000000000000000, -1.060660171779999938 ) ) ;
#102 = CARTESIAN_POINT ( 'NONE',  ( 0.9875873162724128074, -0.000000000000000000, -1.133785510258697116 ) ) ;
#103 = VERTEX_POINT ( 'NONE', #284 ) ;
#104 = EDGE_CURVE ( 'NONE', #1060, #935, #27, .T. ) ;
#105 = DIRECTION ( 'NONE',  ( 0.000000000000000000, 0.000000000000000000, -1.000000000000000000 ) ) ;
#106 = DIRECTION ( 'NONE',  ( -0.000000000000000000, -1.000000000000000000, -0.000000000000000000 ) ) ;
#107 = CIRCLE ( 'NONE', #567, 1.250000000000000000 ) ;
#108 = CARTESIAN_POINT ( 'NONE',  ( 1.486835306449205474, -0.000000000000000000, -0.2357621813901029928 ) ) ;
#109 = VERTEX_POINT ( 'NONE', #275 ) ;
#110 = DIRECTION ( 'NONE',  ( -0.000000000000000000, 1.000000000000000000, -0.000000000000000000 ) ) ;
#111 = DIRECTION ( 'NONE',  ( -0.000000000000000000, 1.000000000000000000, -0.000000000000000000 ) ) ;
#112 = ADVANCED_FACE ( 'NONE', ( #691 ), #714, .T. ) ;
#113 = VECTOR ( 'NONE', #446, 1000.000000000000000 ) ;
#114 = CARTESIAN_POINT ( 'NONE',  ( 1.448438283592722087, -0.000000000000000000, -0.3953778698449393336 ) ) ;
#115 = VERTEX_POINT ( 'NONE', #190 ) ;
#116 = CARTESIAN_POINT ( 'NONE',  ( -0.3106601717797999318, 0.7500000000000000000, 1.060660171779999938 ) ) ;
#117 = EDGE_CURVE ( 'NONE', #109, #989, #704, .T. ) ;
#118 = CARTESIAN_POINT ( 'NONE',  ( -0.4627962262102742752, -0.000000000000000000, -1.427074059136465678 ) ) ;
#119 = ORIENTED_EDGE ( 'NONE', *, *, #923, .F. ) ;
#120 = FACE_OUTER_BOUND ( 'NONE', #523, .T. ) ;
#121 = CARTESIAN_POINT ( 'NONE',  ( 0.3106601717797999873, 0.7500000000000000000, -1.722205056800999889 ) ) ;
#122 = AXIS2_PLACEMENT_3D ( 'NONE', #956, #1046, #170 ) ;
#123 = ORIENTED_EDGE ( 'NONE', *, *, #543, .T. ) ;
#124 = CARTESIAN_POINT ( 'NONE',  ( -0.3106601717798999074, 0.7500000000000000000, -1.060660171779999938 ) ) ;
#125 = AXIS2_PLACEMENT_3D ( 'NONE', #1031, #612, #95 ) ;
#126 = ORIENTED_EDGE ( 'NONE', *, *, #459, .T. ) ;
#127 = VECTOR ( 'NONE', #651, 1000.000000000000000 ) ;
#128 = DIRECTION ( 'NONE',  ( -1.000000000000000000, 0.000000000000000000, -0.000000000000000000 ) ) ;
#129 = AXIS2_PLACEMENT_3D ( 'NONE', #618, #872, #201 ) ;
#130 = EDGE_CURVE ( 'NONE', #857, #588, #882, .T. ) ;
#131 = SURFACE_STYLE_USAGE ( .BOTH. , #801 ) ;
#132 = FACE_OUTER_BOUND ( 'NONE', #660, .T. ) ;
#133 = EDGE_LOOP ( 'NONE', ( #276, #648, #495, #596 ) ) ;
#134 = DIRECTION ( 'NONE',  ( -0.000000000000000000, 1.000000000000000000, -0.000000000000000000 ) ) ;
#135 = EDGE_CURVE ( 'NONE', #115, #768, #858, .T. ) ;
#136 = LINE ( 'NONE', #220, #127 ) ;
#137 = CARTESIAN_POINT ( 'NONE',  ( 1.683889348809511325E-16, -3.499999999974079401, -1.249999999970441422 ) ) ;
#138 = ORIENTED_EDGE ( 'NONE', *, *, #365, .T. ) ;
#139 = FACE_OUTER_BOUND ( 'NONE', #322, .T. ) ;
#140 = AXIS2_PLACEMENT_3D ( 'NONE', #820, #467, #128 ) ;
#141 = ORIENTED_EDGE ( 'NONE', *, *, #46, .F. ) ;
#142 = DIRECTION ( 'NONE',  ( 0.000000000000000000, -0.000000000000000000, 1.000000000000000000 ) ) ;
#143 = CYLINDRICAL_SURFACE ( 'NONE', #986, 0.7500000000000000000 ) ;
#144 = EDGE_CURVE ( 'NONE', #945, #377, #773, .T. ) ;
#145 = VERTEX_POINT ( 'NONE', #802 ) ;
#146 = CARTESIAN_POINT ( 'NONE',  ( -1.722205056800659717, 0.7500000000000000000, -0.3106601717797700113 ) ) ;
#147 = AXIS2_PLACEMENT_3D ( 'NONE', #26, #1042, #617 ) ;
#148 = STYLED_ITEM ( 'NONE', ( #469 ), #32 ) ;
#149 = CIRCLE ( 'NONE', #358, 2.500000000000000000 ) ;
#150 = CARTESIAN_POINT ( 'NONE',  ( 0.3106601717799998830, 0.7500000000000000000, 1.060660171780000161 ) ) ;
#151 = FACE_OUTER_BOUND ( 'NONE', #489, .T. ) ;
#152 = ADVANCED_FACE ( 'NONE', ( #132 ), #470, .F. ) ;
#153 = ORIENTED_EDGE ( 'NONE', *, *, #197, .T. ) ;
#154 = CARTESIAN_POINT ( 'NONE',  ( 1.060660171779999938, 0.7500000000000000000, -0.3106601717797999873 ) ) ;
#155 = DIRECTION ( 'NONE',  ( 0.000000000000000000, 0.000000000000000000, -1.000000000000000000 ) ) ;
#156 = CARTESIAN_POINT ( 'NONE',  ( 1.320168919692214615, -0.000000000000000000, 0.7157900588269314746 ) ) ;
#157 = VERTEX_POINT ( 'NONE', #137 ) ;
#158 = ORIENTED_EDGE ( 'NONE', *, *, #996, .F. ) ;
#159 = CONICAL_SURFACE ( 'NONE', #194, 1.499999999907686288, 0.7853981635111351167 ) ;
#160 = CARTESIAN_POINT ( 'NONE',  ( 0.000000000000000000, 1.250000000000000000, 0.000000000000000000 ) ) ;
#161 = CARTESIAN_POINT ( 'NONE',  ( -1.404187350806425316, 0.000000000000000000, 0.5281090114896622723 ) ) ;
#162 = ORIENTED_EDGE ( 'NONE', *, *, #208, .F. ) ;
#163 = ORIENTED_EDGE ( 'NONE', *, *, #413, .F. ) ;
#164 = AXIS2_PLACEMENT_3D ( 'NONE', #39, #379, #628 ) ;
#165 = ADVANCED_FACE ( 'NONE', ( #457 ), #1072, .F. ) ;
#166 = DIRECTION ( 'NONE',  ( -0.000000000000000000, 1.000000000000000000, -0.000000000000000000 ) ) ;
#167 = LINE ( 'NONE', #505, #503 ) ;
#168 = VERTEX_POINT ( 'NONE', #720 ) ;
#169 = ORIENTED_EDGE ( 'NONE', *, *, #345, .T. ) ;
#170 = DIRECTION ( 'NONE',  ( 0.000000000000000000, 0.000000000000000000, -1.000000000000000000 ) ) ;
#171 = CARTESIAN_POINT ( 'NONE',  ( 0.000000000000000000, 0.000000000000000000, 0.000000000000000000 ) ) ;
#172 = ORIENTED_EDGE ( 'NONE', *, *, #826, .F. ) ;
#173 = VERTEX_POINT ( 'NONE', #638 ) ;
#174 = CARTESIAN_POINT ( 'NONE',  ( 0.000000000000000000, -0.5000000000000000000, 1.250000000000000000 ) ) ;
#175 = VECTOR ( 'NONE', #443, 1000.000000000000000 ) ;
#176 = LINE ( 'NONE', #600, #199 ) ;
#177 = EDGE_CURVE ( 'NONE', #473, #924, #323, .T. ) ;
#178 = DIRECTION ( 'NONE',  ( 0.000000000000000000, 0.000000000000000000, -1.000000000000000000 ) ) ;
#179 = EDGE_LOOP ( 'NONE', ( #934, #1035, #698, #301 ) ) ;
#180 = LINE ( 'NONE', #701, #368 ) ;
#181 = AXIS2_PLACEMENT_3D ( 'NONE', #876, #265, #271 ) ;
#182 = VECTOR ( 'NONE', #247, 1000.000000000000000 ) ;
#183 = CARTESIAN_POINT ( 'NONE',  ( 1.722205056800659717, 0.7500000000000000000, 0.3106601717797699003 ) ) ;
#184 = VECTOR ( 'NONE', #87, 1000.000000000000000 ) ;
#185 = CARTESIAN_POINT ( 'NONE',  ( 0.8692179112122293549, -0.000000000000000000, -1.230382299094581411 ) ) ;
#186 = EDGE_CURVE ( 'NONE', #333, #654, #96, .T. ) ;
#187 = ORIENTED_EDGE ( 'NONE', *, *, #413, .T. ) ;
#188 = CARTESIAN_POINT ( 'NONE',  ( 0.3106601717797999873, 1.500000000000000000, 1.722205056800827139 ) ) ;
#189 = DIRECTION ( 'NONE',  ( 0.000000000000000000, 0.000000000000000000, -1.000000000000000000 ) ) ;
#190 = CARTESIAN_POINT ( 'NONE',  ( 1.500000000000000000, 0.000000000000000000, 0.000000000000000000 ) ) ;
#191 = ORIENTED_EDGE ( 'NONE', *, *, #730, .F. ) ;
#192 = CARTESIAN_POINT ( 'NONE',  ( 0.000000000000000000, 1.500000000000000000, -1.750000000000000000 ) ) ;
#193 = CARTESIAN_POINT ( 'NONE',  ( 1.836970198607978278E-16, -3.250000000093677954, -1.499999999907686288 ) ) ;
#194 = AXIS2_PLACEMENT_3D ( 'NONE', #810, #982, #893 ) ;
#195 = CARTESIAN_POINT ( 'NONE',  ( 0.000000000000000000, 1.500000000000000000, -0.3106601717797999873 ) ) ;
#196 = ORIENTED_EDGE ( 'NONE', *, *, #548, .T. ) ;
#197 = EDGE_CURVE ( 'NONE', #212, #706, #864, .T. ) ;
#198 = DIRECTION ( 'NONE',  ( -0.000000000000000000, 1.000000000000000000, -0.000000000000000000 ) ) ;
#199 = VECTOR ( 'NONE', #4, 1000.000000000000000 ) ;
#200 = AXIS2_PLACEMENT_3D ( 'NONE', #402, #925, #412 ) ;
#201 = DIRECTION ( 'NONE',  ( 0.000000000000000000, 0.000000000000000000, -1.000000000000000000 ) ) ;
#202 = VERTEX_POINT ( 'NONE', #547 ) ;
#203 = CARTESIAN_POINT ( 'NONE',  ( 0.000000000000000000, 0.000000000000000000, 0.000000000000000000 ) ) ;
#204 = ADVANCED_FACE ( 'NONE', ( #725 ), #633, .T. ) ;
#205 = CARTESIAN_POINT ( 'NONE',  ( -1.353739692867418798, -0.000000000000000000, -0.6467502192729026600 ) ) ;
#206 = EDGE_LOOP ( 'NONE', ( #755, #1064, #735, #570 ) ) ;
#207 = LINE ( 'NONE', #890, #219 ) ;
#208 = EDGE_CURVE ( 'NONE', #950, #821, #294, .T. ) ;
#209 = CARTESIAN_POINT ( 'NONE',  ( 0.000000000000000000, 0.000000000000000000, 0.000000000000000000 ) ) ;
#210 = ORIENTED_EDGE ( 'NONE', *, *, #799, .F. ) ;
#211 = LINE ( 'NONE', #395, #1016 ) ;
#212 = VERTEX_POINT ( 'NONE', #392 ) ;
#213 = DIRECTION ( 'NONE',  ( 0.000000000000000000, 1.000000000000000000, 0.000000000000000000 ) ) ;
#214 = FACE_OUTER_BOUND ( 'NONE', #1101, .T. ) ;
#215 = CIRCLE ( 'NONE', #372, 1.750000000000000000 ) ;
#216 = ORIENTED_EDGE ( 'NONE', *, *, #331, .F. ) ;
#217 = DIRECTION ( 'NONE',  ( 0.000000000000000000, 0.000000000000000000, 1.000000000000000000 ) ) ;
#218 = ADVANCED_FACE ( 'NONE', ( #566 ), #143, .T. ) ;
#219 = VECTOR ( 'NONE', #398, 1000.000000000000000 ) ;
#220 = CARTESIAN_POINT ( 'NONE',  ( 0.3106601717797396467, 0.7500000000000000000, -1.722205056800665490 ) ) ;
#221 = DIRECTION ( 'NONE',  ( 0.000000000000000000, 0.000000000000000000, 1.000000000000000000 ) ) ;
#222 = DIRECTION ( 'NONE',  ( 0.000000000000000000, 0.000000000000000000, 1.000000000000000000 ) ) ;
#223 = ORIENTED_EDGE ( 'NONE', *, *, #942, .T. ) ;
#224 = CYLINDRICAL_SURFACE ( 'NONE', #906, 2.500000000000000000 ) ;
#225 = EDGE_LOOP ( 'NONE', ( #619, #1014, #672, #743 ) ) ;
#226 = EDGE_CURVE ( 'NONE', #1061, #939, #483, .T. ) ;
#227 = CYLINDRICAL_SURFACE ( 'NONE', #374, 1.750000000000000000 ) ;
#228 = DIRECTION ( 'NONE',  ( 0.000000000000000000, -1.000000000000000000, 0.000000000000000000 ) ) ;
#229 = VERTEX_POINT ( 'NONE', #60 ) ;
#230 = DIRECTION ( 'NONE',  ( 0.000000000000000000, 0.000000000000000000, -1.000000000000000000 ) ) ;
#231 = CARTESIAN_POINT ( 'NONE',  ( 0.000000000000000000, -0.5999999999999999778, 0.000000000000000000 ) ) ;
#232 = EDGE_CURVE ( 'NONE', #981, #715, #207, .T. ) ;
#233 = DIRECTION ( 'NONE',  ( 0.000000000000000000, 0.000000000000000000, 1.000000000000000000 ) ) ;
#234 = EDGE_LOOP ( 'NONE', ( #615, #954, #785, #61 ) ) ;
#235 = CARTESIAN_POINT ( 'NONE',  ( -1.060660171779999938, 0.7500000000000000000, 0.3106601717797999873 ) ) ;
#236 = AXIS2_PLACEMENT_3D ( 'NONE', #1098, #336, #595 ) ;
#237 = FACE_OUTER_BOUND ( 'NONE', #285, .T. ) ;
#238 = CARTESIAN_POINT ( 'NONE',  ( -1.411686847430088543, -0.000000000000000000, 0.5076578116959498121 ) ) ;
#239 = EDGE_LOOP ( 'NONE', ( #502, #153, #268, #507, #883, #16, #327, #172, #349, #1050, #126, #42, #938, #669, #1045, #692, #630 ) ) ;
#240 = ORIENTED_EDGE ( 'NONE', *, *, #144, .F. ) ;
#241 = DIRECTION ( 'NONE',  ( -0.000000000000000000, 0.000000000000000000, -1.000000000000000000 ) ) ;
#242 = CARTESIAN_POINT ( 'NONE',  ( 1.353739692867418798, -0.000000000000000000, 0.6467502192729026600 ) ) ;
#243 = ORIENTED_EDGE ( 'NONE', *, *, #650, .F. ) ;
#244 = ADVANCED_FACE ( 'NONE', ( #742, #214 ), #47, .F. ) ;
#245 = VERTEX_POINT ( 'NONE', #124 ) ;
#246 = CIRCLE ( 'NONE', #873, 0.7500000000000000000 ) ;
#247 = DIRECTION ( 'NONE',  ( -0.000000000000000000, -1.000000000000000000, -0.000000000000000000 ) ) ;
#248 = CARTESIAN_POINT ( 'NONE',  ( 1.464894150531215189, -0.000000000000000000, 0.3749691544374613716 ) ) ;
#249 = ORIENTED_EDGE ( 'NONE', *, *, #548, .F. ) ;
#250 = ORIENTED_EDGE ( 'NONE', *, *, #854, .T. ) ;
#251 = EDGE_CURVE ( 'NONE', #950, #924, #979, .T. ) ;
#252 = AXIS2_PLACEMENT_3D ( 'NONE', #85, #419, #764 ) ;
#253 = PLANE ( 'NONE',  #90 ) ;
#254 = CIRCLE ( 'NONE', #22, 1.500000000000000000 ) ;
#255 = CIRCLE ( 'NONE', #949, 2.500000000000000000 ) ;
#256 = CARTESIAN_POINT ( 'NONE',  ( 0.5076179141242045390, -0.000000000000000000, 1.411702626632190594 ) ) ;
#257 = ORIENTED_EDGE ( 'NONE', *, *, #580, .F. ) ;
#258 = ORIENTED_EDGE ( 'NONE', *, *, #319, .T. ) ;
#259 = DIRECTION ( 'NONE',  ( 0.000000000000000000, -1.000000000000000000, 0.000000000000000000 ) ) ;
#260 = ADVANCED_FACE ( 'NONE', ( #151 ), #831, .F. ) ;
#261 = DIRECTION ( 'NONE',  ( 0.000000000000000000, 0.000000000000000000, -1.000000000000000000 ) ) ;
#262 = CARTESIAN_POINT ( 'NONE',  ( 0.000000000000000000, -0.5999999999999999778, 0.000000000000000000 ) ) ;
#263 = EDGE_LOOP ( 'NONE', ( #141, #568, #1070, #295, #501, #163, #851, #541, #722, #581, #243, #887, #905, #191, #240, #480, #1000 ) ) ;
#264 = CARTESIAN_POINT ( 'NONE',  ( -1.722205056800665268, 0.7500000000000000000, -0.3106601717797399798 ) ) ;
#265 = DIRECTION ( 'NONE',  ( -0.000000000000000000, 1.000000000000000000, -0.000000000000000000 ) ) ;
#266 = EDGE_CURVE ( 'NONE', #768, #115, #373, .T. ) ;
#267 = CARTESIAN_POINT ( 'NONE',  ( 1.500000000000000000, 0.000000000000000000, 0.000000000000000000 ) ) ;
#268 = ORIENTED_EDGE ( 'NONE', *, *, #13, .T. ) ;
#269 = DIRECTION ( 'NONE',  ( 0.000000000000000000, -1.000000000000000000, 0.000000000000000000 ) ) ;
#270 = VECTOR ( 'NONE', #106, 1000.000000000000000 ) ;
#271 = DIRECTION ( 'NONE',  ( 0.000000000000000000, 0.000000000000000000, -1.000000000000000000 ) ) ;
#272 = AXIS2_PLACEMENT_3D ( 'NONE', #795, #953, #178 ) ;
#273 = ADVANCED_FACE ( 'NONE', ( #759 ), #849, .F. ) ;
#274 = PRODUCT_DEFINITION_SHAPE ( 'NONE', 'NONE',  #433 ) ;
#275 = CARTESIAN_POINT ( 'NONE',  ( -0.3106601717797999873, 1.500000000000000000, -1.722205056800827139 ) ) ;
#276 = ORIENTED_EDGE ( 'NONE', *, *, #854, .F. ) ;
#277 = CARTESIAN_POINT ( 'NONE',  ( 3.061616997868383141E-16, 1.750000000000000000, 2.500000000000000000 ) ) ;
#278 = DIRECTION ( 'NONE',  ( -0.000000000000000000, -1.000000000000000000, -0.000000000000000000 ) ) ;
#279 = DIRECTION ( 'NONE',  ( -0.000000000000000000, 0.000000000000000000, 1.000000000000000000 ) ) ;
#280 = ORIENTED_EDGE ( 'NONE', *, *, #834, .T. ) ;
#281 = EDGE_CURVE ( 'NONE', #229, #994, #167, .T. ) ;
#282 = CARTESIAN_POINT ( 'NONE',  ( -0.3106601717797999873, 0.7500000000000000000, -1.722205056800999889 ) ) ;
#283 = CARTESIAN_POINT ( 'NONE',  ( 0.000000000000000000, 0.7500000000000000000, 0.000000000000000000 ) ) ;
#284 = CARTESIAN_POINT ( 'NONE',  ( 0.3106601717797697892, 0.7500000000000000000, -1.722205056800659717 ) ) ;
#285 = EDGE_LOOP ( 'NONE', ( #1040, #874, #762, #55 ) ) ;
#286 = ADVANCED_FACE ( 'NONE', ( #424 ), #493, .T. ) ;
#287 = LINE ( 'NONE', #451, #1004 ) ;
#288 = CIRCLE ( 'NONE', #912, 1.750000000000000000 ) ;
#289 = CARTESIAN_POINT ( 'NONE',  ( 0.000000000000000000, 1.500000000000000000, 0.000000000000000000 ) ) ;
#290 = LINE ( 'NONE', #549, #1049 ) ;
#291 = ORIENTED_EDGE ( 'NONE', *, *, #614, .T. ) ;
#292 = DIRECTION ( 'NONE',  ( 0.000000000000000000, 1.000000000000000000, 0.000000000000000000 ) ) ;
#293 = EDGE_CURVE ( 'NONE', #994, #950, #966, .T. ) ;
#294 = LINE ( 'NONE', #652, #895 ) ;
#295 = ORIENTED_EDGE ( 'NONE', *, *, #359, .F. ) ;
#296 = ORIENTED_EDGE ( 'NONE', *, *, #960, .F. ) ;
#297 = FACE_OUTER_BOUND ( 'NONE', #789, .T. ) ;
#298 = EDGE_CURVE ( 'NONE', #173, #964, #356, .T. ) ;
#299 = DIRECTION ( 'NONE',  ( 0.000000000000000000, 0.000000000000000000, -1.000000000000000000 ) ) ;
#300 = CIRCLE ( 'NONE', #386, 1.250000000000000000 ) ;
#301 = ORIENTED_EDGE ( 'NONE', *, *, #942, .F. ) ;
#302 = LINE ( 'NONE', #315, #496 ) ;
#303 = FILL_AREA_STYLE ('',( #553 ) ) ;
#304 = CARTESIAN_POINT ( 'NONE',  ( -1.500000000000000000, 0.000000000000000000, 0.000000000000000000 ) ) ;
#305 = CIRCLE ( 'NONE', #147, 2.500000000000000000 ) ;
#306 = ORIENTED_EDGE ( 'NONE', *, *, #765, .T. ) ;
#307 = CARTESIAN_POINT ( 'NONE',  ( 1.530808498916091897E-16, 0.000000000000000000, -1.249999999970441422 ) ) ;
#308 = DIRECTION ( 'NONE',  ( 0.000000000000000000, -1.000000000000000000, 0.000000000000000000 ) ) ;
#309 = ORIENTED_EDGE ( 'NONE', *, *, #1068, .T. ) ;
#310 = PLANE ( 'NONE',  #944 ) ;
#311 = EDGE_CURVE ( 'NONE', #1018, #485, #699, .T. ) ;
#312 = DIRECTION ( 'NONE',  ( 7.993605777301127091E-15, 0.000000000000000000, -1.000000000000000000 ) ) ;
#313 = CARTESIAN_POINT ( 'NONE',  ( 0.000000000000000000, -3.500000000000000000, 0.000000000000000000 ) ) ;
#314 = ORIENTED_EDGE ( 'NONE', *, *, #28, .F. ) ;
#315 = CARTESIAN_POINT ( 'NONE',  ( 0.000000000000000000, -0.5999999999999999778, 1.250000000000000000 ) ) ;
#316 = AXIS2_PLACEMENT_3D ( 'NONE', #649, #1001, #635 ) ;
#317 = EDGE_LOOP ( 'NONE', ( #733, #210 ) ) ;
#318 = DIRECTION ( 'NONE',  ( 0.000000000000000000, 0.000000000000000000, 1.000000000000000000 ) ) ;
#319 = EDGE_CURVE ( 'NONE', #939, #608, #37, .T. ) ;
#320 = CARTESIAN_POINT ( 'NONE',  ( 1.230382299094605836, -0.000000000000000000, 0.8692179112121690698 ) ) ;
#321 = EDGE_LOOP ( 'NONE', ( #984, #306, #903, #249 ) ) ;
#322 = EDGE_LOOP ( 'NONE', ( #855, #29 ) ) ;
#323 = CIRCLE ( 'NONE', #576, 0.7500000000000000000 ) ;
#324 = LINE ( 'NONE', #670, #535 ) ;
#325 = DIRECTION ( 'NONE',  ( 1.000000000000000000, 0.000000000000000000, -0.000000000000000000 ) ) ;
#326 = EDGE_CURVE ( 'NONE', #1023, #857, #215, .T. ) ;
#327 = ORIENTED_EDGE ( 'NONE', *, *, #1057, .T. ) ;
#328 = ORIENTED_EDGE ( 'NONE', *, *, #197, .F. ) ;
#329 = DIRECTION ( 'NONE',  ( -3.552713678800500929E-15, 0.000000000000000000, -1.000000000000000000 ) ) ;
#330 = CARTESIAN_POINT ( 'NONE',  ( -0.1903948256145562290, -0.000000000000000000, 1.499932675404364257 ) ) ;
#331 = EDGE_CURVE ( 'NONE', #381, #922, #879, .T. ) ;
#332 = VERTEX_POINT ( 'NONE', #770 ) ;
#333 = VERTEX_POINT ( 'NONE', #430 ) ;
#334 = VECTOR ( 'NONE', #350, 1000.000000000000000 ) ;
#335 = LINE ( 'NONE', #747, #1033 ) ;
#336 = DIRECTION ( 'NONE',  ( -0.000000000000000000, 1.000000000000000000, -0.000000000000000000 ) ) ;
#337 = VERTEX_POINT ( 'NONE', #521 ) ;
#338 = ORIENTED_EDGE ( 'NONE', *, *, #543, .F. ) ;
#339 = VECTOR ( 'NONE', #719, 1000.000000000000000 ) ;
#340 = EDGE_CURVE ( 'NONE', #497, #366, #753, .T. ) ;
#341 = CARTESIAN_POINT ( 'NONE',  ( 0.000000000000000000, 1.750000000000000000, 0.000000000000000000 ) ) ;
#342 = DIRECTION ( 'NONE',  ( 0.000000000000000000, -0.000000000000000000, -1.000000000000000000 ) ) ;
#343 = CARTESIAN_POINT ( 'NONE',  ( -0.3106601717797999873, 0.7500000000000000000, -1.060660171779999938 ) ) ;
#344 = EDGE_LOOP ( 'NONE', ( #411, #517 ) ) ;
#345 = EDGE_CURVE ( 'NONE', #245, #989, #176, .T. ) ;
#346 = DIRECTION ( 'NONE',  ( 0.000000000000000000, 0.000000000000000000, 1.000000000000000000 ) ) ;
#347 = CARTESIAN_POINT ( 'NONE',  ( 0.000000000000000000, 1.500000000000000000, 0.3106601717797999873 ) ) ;
#348 = CARTESIAN_POINT ( 'NONE',  ( 0.5999936494203125248, -0.000000000000000000, -1.375029273410678599 ) ) ;
#349 = ORIENTED_EDGE ( 'NONE', *, *, #69, .T. ) ;
#350 = DIRECTION ( 'NONE',  ( -0.000000000000000000, -1.000000000000000000, 0.000000000000000000 ) ) ;
#351 = AXIS2_PLACEMENT_3D ( 'NONE', #355, #269, #105 ) ;
#352 = DIRECTION ( 'NONE',  ( 0.000000000000000000, 0.000000000000000000, 1.000000000000000000 ) ) ;
#353 = DIRECTION ( 'NONE',  ( 0.000000000000000000, -1.000000000000000000, 0.000000000000000000 ) ) ;
#354 = ORIENTED_EDGE ( 'NONE', *, *, #606, .F. ) ;
#355 = CARTESIAN_POINT ( 'NONE',  ( 0.000000000000000000, 0.7500000000000000000, 0.000000000000000000 ) ) ;
#356 = CIRCLE ( 'NONE', #75, 1.249999999970441422 ) ;
#357 = LINE ( 'NONE', #193, #2 ) ;
#358 = AXIS2_PLACEMENT_3D ( 'NONE', #1043, #958, #449 ) ;
#359 = EDGE_CURVE ( 'NONE', #839, #109, #841, .T. ) ;
#360 = LINE ( 'NONE', #195, #396 ) ;
#361 = ORIENTED_EDGE ( 'NONE', *, *, #359, .T. ) ;
#362 = DIRECTION ( 'NONE',  ( 0.000000000000000000, -1.000000000000000000, 0.000000000000000000 ) ) ;
#363 = DIRECTION ( 'NONE',  ( -0.000000000000000000, 1.000000000000000000, -0.000000000000000000 ) ) ;
#364 = CARTESIAN_POINT ( 'NONE',  ( 0.000000000000000000, 1.500000000000000000, 0.000000000000000000 ) ) ;
#365 = EDGE_CURVE ( 'NONE', #332, #157, #391, .T. ) ;
#366 = VERTEX_POINT ( 'NONE', #952 ) ;
#367 = CARTESIAN_POINT ( 'NONE',  ( 3.061616997868383141E-16, 1.500000000000000000, 2.500000000000000000 ) ) ;
#368 = VECTOR ( 'NONE', #362, 1000.000000000000000 ) ;
#369 = CARTESIAN_POINT ( 'NONE',  ( -0.9144094948220424790, -0.000000000000000000, -1.206805882794708351 ) ) ;
#370 = ORIENTED_EDGE ( 'NONE', *, *, #86, .T. ) ;
#371 =( NAMED_UNIT ( * ) SI_UNIT ( $, .STERADIAN. ) SOLID_ANGLE_UNIT ( ) );
#372 = AXIS2_PLACEMENT_3D ( 'NONE', #1037, #363, #514 ) ;
#373 = B_SPLINE_CURVE_WITH_KNOTS ( 'NONE', 3,
 ( #927, #754, #509, #573, #414, #238, #161, #403, #1084, #91, #1022, #837, #488, #500, #917, #1093, #330, #671, #680, #72, #1089, #256, #1010, #65, #842, #748, #320, #156, #242, #590, #921, #248, #1017, #665 ),
 .UNSPECIFIED., .F., .F.,
 ( 4, 1, 1, 2, 2, 2, 1, 1, 2, 2, 2, 1, 1, 2, 2, 2, 1, 1, 2, 2, 4 ),
 ( 0.000000000000000000, 0.06250000000000013878, 0.09375000000000019429, 0.1093750000000002220, 0.1250000000000002498, 0.2500000000000003331, 0.3125000000000003331, 0.3437500000000004441, 0.3593750000000003886, 0.3750000000000003886, 0.5000000000000000000, 0.5624999999999997780, 0.5937499999999996669, 0.6093749999999995559, 0.6249999999999994449, 0.7499999999999995559, 0.8124999999999996669, 0.8437499999999997780, 0.8593749999999997780, 0.8749999999999997780, 1.000000000000000000 ),
 .UNSPECIFIED. ) ;
#374 = AXIS2_PLACEMENT_3D ( 'NONE', #1052, #565, #907 ) ;
#375 = CARTESIAN_POINT ( 'NONE',  ( -0.3106601717797999873, 0.7500000000000000000, 1.722205056800999889 ) ) ;
#376 = AXIS2_PLACEMENT_3D ( 'NONE', #1067, #54, #554 ) ;
#377 = VERTEX_POINT ( 'NONE', #435 ) ;
#378 = ADVANCED_FACE ( 'NONE', ( #867 ), #708, .T. ) ;
#379 = DIRECTION ( 'NONE',  ( -1.000000000000000000, 0.000000000000000000, 0.000000000000000000 ) ) ;
#380 = DIRECTION ( 'NONE',  ( 0.000000000000000000, 0.000000000000000000, -1.000000000000000000 ) ) ;
#381 = VERTEX_POINT ( 'NONE', #9 ) ;
#382 = CARTESIAN_POINT ( 'NONE',  ( -0.3106601717797999873, 0.7500000000000000000, 1.722205056800999889 ) ) ;
#383 = FACE_OUTER_BOUND ( 'NONE', #582, .T. ) ;
#384 = CARTESIAN_POINT ( 'NONE',  ( -1.375029273410684594, -0.000000000000000000, -0.5999936494202963155 ) ) ;
#385 = EDGE_CURVE ( 'NONE', #981, #497, #440, .T. ) ;
#386 = AXIS2_PLACEMENT_3D ( 'NONE', #792, #428, #438 ) ;
#387 =( NAMED_UNIT ( * ) PLANE_ANGLE_UNIT ( ) SI_UNIT ( $, .RADIAN. ) );
#388 = VERTEX_POINT ( 'NONE', #526 ) ;
#389 = CARTESIAN_POINT ( 'NONE',  ( -1.060660171779999938, 1.500000000000000000, 0.3106601717798999074 ) ) ;
#390 = PLANE ( 'NONE',  #164 ) ;
#391 = CIRCLE ( 'NONE', #1002, 1.249999999970441422 ) ;
#392 = CARTESIAN_POINT ( 'NONE',  ( -0.3106601717797696782, 0.7500000000000000000, 1.722205056800659717 ) ) ;
#393 = EDGE_LOOP ( 'NONE', ( #640, #478, #309, #73 ) ) ;
#394 = CIRCLE ( 'NONE', #462, 1.750000000000000000 ) ;
#395 = CARTESIAN_POINT ( 'NONE',  ( -0.3106601717797999873, 0.7500000000000000000, 1.060660171779999938 ) ) ;
#396 = VECTOR ( 'NONE', #697, 1000.000000000000000 ) ;
#397 = PLANE ( 'NONE',  #200 ) ;
#398 = DIRECTION ( 'NONE',  ( 0.000000000000000000, -1.000000000000000000, -0.000000000000000000 ) ) ;
#399 = ORIENTED_EDGE ( 'NONE', *, *, #863, .T. ) ;
#400 = CARTESIAN_POINT ( 'NONE',  ( -0.3106601717798999074, 1.500000000000000000, -1.060660171779999938 ) ) ;
#401 = EDGE_CURVE ( 'NONE', #432, #229, #947, .T. ) ;
#402 = CARTESIAN_POINT ( 'NONE',  ( 1.722205056800999889, 0.7500000000000000000, 0.3106601717797999873 ) ) ;
#403 = CARTESIAN_POINT ( 'NONE',  ( -1.318643257891411569, -0.000000000000000000, 0.7444064871679851869 ) ) ;
#404 = CARTESIAN_POINT ( 'NONE',  ( 0.3106601717797999873, 0.7500000000000000000, 1.722205056800999889 ) ) ;
#405 = AXIS2_PLACEMENT_3D ( 'NONE', #1, #110, #94 ) ;
#406 = LINE ( 'NONE', #1071, #1082 ) ;
#407 = EDGE_CURVE ( 'NONE', #366, #667, #871, .T. ) ;
#408 = CARTESIAN_POINT ( 'NONE',  ( 1.722205056800827139, 0.7500000000000000000, -0.3106601717797999873 ) ) ;
#409 = ORIENTED_EDGE ( 'NONE', *, *, #177, .T. ) ;
#410 = CONICAL_SURFACE ( 'NONE', #700, 2.499999999884039426, 0.7853981633974482790 ) ;
#411 = ORIENTED_EDGE ( 'NONE', *, *, #724, .F. ) ;
#412 = DIRECTION ( 'NONE',  ( 1.000000000000000000, 0.000000000000000000, -0.000000000000000000 ) ) ;
#413 = EDGE_CURVE ( 'NONE', #608, #168, #794, .T. ) ;
#414 = CARTESIAN_POINT ( 'NONE',  ( -1.427045656572681231, -0.000000000000000000, 0.4628680418394154894 ) ) ;
#415 = ORIENTED_EDGE ( 'NONE', *, *, #226, .T. ) ;
#416 = CARTESIAN_POINT ( 'NONE',  ( 1.060660171779999938, 0.7500000000000000000, -0.3106601717797999873 ) ) ;
#417 = ORIENTED_EDGE ( 'NONE', *, *, #863, .F. ) ;
#418 = DIRECTION ( 'NONE',  ( -0.000000000000000000, 1.000000000000000000, -0.000000000000000000 ) ) ;
#419 = DIRECTION ( 'NONE',  ( 0.000000000000000000, -1.000000000000000000, 0.000000000000000000 ) ) ;
#420 = EDGE_LOOP ( 'NONE', ( #158, #296, #774, #642 ) ) ;
#421 = VERTEX_POINT ( 'NONE', #183 ) ;
#422 = CONICAL_SURFACE ( 'NONE', #926, 2.499999999884039426, 0.7853981633974482790 ) ;
#423 = DIRECTION ( 'NONE',  ( 0.000000000000000000, 1.000000000000000000, 0.000000000000000000 ) ) ;
#424 = FACE_OUTER_BOUND ( 'NONE', #892, .T. ) ;
#425 = PLANE ( 'NONE',  #668 ) ;
#426 = EDGE_CURVE ( 'NONE', #229, #245, #664, .T. ) ;
#427 = ORIENTED_EDGE ( 'NONE', *, *, #656, .F. ) ;
#428 = DIRECTION ( 'NONE',  ( 0.000000000000000000, 1.000000000000000000, 0.000000000000000000 ) ) ;
#429 = AXIS2_PLACEMENT_3D ( 'NONE', #121, #645, #988 ) ;
#430 = CARTESIAN_POINT ( 'NONE',  ( 0.000000000000000000, 0.000000000000000000, 1.250000000000000000 ) ) ;
#431 = LINE ( 'NONE', #15, #448 ) ;
#432 = VERTEX_POINT ( 'NONE', #961 ) ;
#433 = PRODUCT_DEFINITION ( 'æ™', '', #977, #693 ) ;
#434 = CARTESIAN_POINT ( 'NONE',  ( 0.000000000000000000, 0.7500000000000000000, -1.750000000000000000 ) ) ;
#435 = CARTESIAN_POINT ( 'NONE',  ( -0.3106601717797999318, 1.500000000000000000, 1.060660171779999938 ) ) ;
#436 = CARTESIAN_POINT ( 'NONE',  ( 1.427045656572681231, -0.000000000000000000, -0.4628680418394154894 ) ) ;
#437 = ORIENTED_EDGE ( 'NONE', *, *, #799, .T. ) ;
#438 = DIRECTION ( 'NONE',  ( 0.000000000000000000, 0.000000000000000000, 1.000000000000000000 ) ) ;
#439 = AXIS2_PLACEMENT_3D ( 'NONE', #598, #940, #1036 ) ;
#440 = LINE ( 'NONE', #347, #113 ) ;
#441 = CARTESIAN_POINT ( 'NONE',  ( 0.000000000000000000, 1.750000000000000000, -2.500000000000000000 ) ) ;
#442 = ORIENTED_EDGE ( 'NONE', *, *, #916, .F. ) ;
#443 = DIRECTION ( 'NONE',  ( 0.000000000000000000, -1.000000000000000000, 0.000000000000000000 ) ) ;
#444 = AXIS2_PLACEMENT_3D ( 'NONE', #101, #777, #189 ) ;
#445 = AXIS2_PLACEMENT_3D ( 'NONE', #455, #971, #1062 ) ;
#446 = DIRECTION ( 'NONE',  ( 1.000000000000000000, 0.000000000000000000, 0.000000000000000000 ) ) ;
#447 = EDGE_CURVE ( 'NONE', #157, #381, #357, .T. ) ;
#448 = VECTOR ( 'NONE', #778, 1000.000000000000000 ) ;
#449 = DIRECTION ( 'NONE',  ( 0.000000000000000000, 0.000000000000000000, -1.000000000000000000 ) ) ;
#450 = ORIENTED_EDGE ( 'NONE', *, *, #251, .F. ) ;
#451 = CARTESIAN_POINT ( 'NONE',  ( 1.722205056800999889, 0.7500000000000000000, 0.3106601717797999873 ) ) ;
#452 = CARTESIAN_POINT ( 'NONE',  ( -0.5076179141242045390, -0.000000000000000000, -1.411702626632190594 ) ) ;
#453 = EDGE_CURVE ( 'NONE', #935, #337, #305, .T. ) ;
#454 = EDGE_LOOP ( 'NONE', ( #138, #827, #552, #119 ) ) ;
#455 = CARTESIAN_POINT ( 'NONE',  ( 0.000000000000000000, -3.250000000093677954, 0.000000000000000000 ) ) ;
#456 = VECTOR ( 'NONE', #911, 1000.000000000000000 ) ;
#457 = FACE_OUTER_BOUND ( 'NONE', #420, .T. ) ;
#458 = VERTEX_POINT ( 'NONE', #1047 ) ;
#459 = EDGE_CURVE ( 'NONE', #819, #145, #20, .T. ) ;
#460 = FACE_OUTER_BOUND ( 'NONE', #970, .T. ) ;
#461 = AXIS2_PLACEMENT_3D ( 'NONE', #941, #957, #860 ) ;
#462 = AXIS2_PLACEMENT_3D ( 'NONE', #829, #166, #312 ) ;
#463 = CARTESIAN_POINT ( 'NONE',  ( -1.060660171779999938, 1.500000000000000000, 1.060660171779999938 ) ) ;
#464 = OPEN_SHELL ( 'NONE', ( #482, #1076, #717 ) ) ;
#465 = PRODUCT_CONTEXT ( 'NONE', #965, 'mechanical' ) ;
#466 = EDGE_LOOP ( 'NONE', ( #602, #11 ) ) ;
#467 = DIRECTION ( 'NONE',  ( 0.000000000000000000, 0.000000000000000000, -1.000000000000000000 ) ) ;
#468 = UNCERTAINTY_MEASURE_WITH_UNIT (LENGTH_MEASURE( 1.000000000000000082E-05 ), #45, 'distance_accuracy_value', 'NONE');
#469 = PRESENTATION_STYLE_ASSIGNMENT (( #131 ) ) ;
#470 = PLANE ( 'NONE',  #429 ) ;
#471 = ORIENTED_EDGE ( 'NONE', *, *, #498, .F. ) ;
#472 = LINE ( 'NONE', #816, #659 ) ;
#473 = VERTEX_POINT ( 'NONE', #116 ) ;
#474 = CARTESIAN_POINT ( 'NONE',  ( 0.000000000000000000, 0.7500000000000000000, 0.000000000000000000 ) ) ;
#475 = EDGE_CURVE ( 'NONE', #24, #929, #644, .T. ) ;
#476 = CARTESIAN_POINT ( 'NONE',  ( -1.060660171779999938, 0.7500000000000000000, 1.060660171779999938 ) ) ;
#477 = DIRECTION ( 'NONE',  ( 0.000000000000000000, -1.000000000000000000, 0.000000000000000000 ) ) ;
#478 = ORIENTED_EDGE ( 'NONE', *, *, #475, .F. ) ;
#479 = CARTESIAN_POINT ( 'NONE',  ( -0.3106601717797696782, 1.500000000000000000, 1.722205056800659717 ) ) ;
#480 = ORIENTED_EDGE ( 'NONE', *, *, #515, .F. ) ;
#481 = LINE ( 'NONE', #150, #804 ) ;
#482 = ADVANCED_FACE ( 'NONE', ( #297 ), #967, .T. ) ;
#483 = LINE ( 'NONE', #972, #80 ) ;
#484 = DIRECTION ( 'NONE',  ( 0.000000000000000000, -1.000000000000000000, 0.000000000000000000 ) ) ;
#485 = VERTEX_POINT ( 'NONE', #559 ) ;
#486 = FACE_OUTER_BOUND ( 'NONE', #1087, .T. ) ;
#487 = DIRECTION ( 'NONE',  ( -0.000000000000000000, 1.000000000000000000, -0.000000000000000000 ) ) ;
#488 = CARTESIAN_POINT ( 'NONE',  ( -0.6467502192729317478, -0.000000000000000000, 1.353739692867407252 ) ) ;
#489 = EDGE_LOOP ( 'NONE', ( #974, #361, #878, #745 ) ) ;
#490 = DIRECTION ( 'NONE',  ( -1.000000000000000000, 0.000000000000000000, -0.000000000000000000 ) ) ;
#491 = ADVANCED_FACE ( 'NONE', ( #460 ), #390, .F. ) ;
#492 = DIRECTION ( 'NONE',  ( 0.000000000000000000, -1.000000000000000000, 0.000000000000000000 ) ) ;
#493 = CYLINDRICAL_SURFACE ( 'NONE', #252, 2.500000000000000000 ) ;
#494 = APPLICATION_CONTEXT ( 'automotive_design' ) ;
#495 = ORIENTED_EDGE ( 'NONE', *, *, #916, .T. ) ;
#496 = VECTOR ( 'NONE', #1080, 1000.000000000000000 ) ;
#497 = VERTEX_POINT ( 'NONE', #637 ) ;
#498 = EDGE_CURVE ( 'NONE', #964, #173, #932, .T. ) ;
#499 = DIRECTION ( 'NONE',  ( 0.000000000000000000, 0.000000000000000000, -1.000000000000000000 ) ) ;
#500 = CARTESIAN_POINT ( 'NONE',  ( -0.5999936494203125248, -0.000000000000000000, 1.375029273410678599 ) ) ;
#501 = ORIENTED_EDGE ( 'NONE', *, *, #632, .F. ) ;
#502 = ORIENTED_EDGE ( 'NONE', *, *, #996, .T. ) ;
#503 = VECTOR ( 'NONE', #579, 1000.000000000000000 ) ;
#504 = DIRECTION ( 'NONE',  ( -0.000000000000000000, 1.000000000000000000, -0.000000000000000000 ) ) ;
#505 = CARTESIAN_POINT ( 'NONE',  ( -1.722205056800999889, 0.7500000000000000000, -0.3106601717797999873 ) ) ;
#506 = LINE ( 'NONE', #850, #184 ) ;
#507 = ORIENTED_EDGE ( 'NONE', *, *, #930, .F. ) ;
#508 = CARTESIAN_POINT ( 'NONE',  ( 0.000000000000000000, -3.500000000000000000, 0.000000000000000000 ) ) ;
#509 = CARTESIAN_POINT ( 'NONE',  ( -1.486835306449205474, -0.000000000000000000, 0.2357621813901029928 ) ) ;
#510 = ORIENTED_EDGE ( 'NONE', *, *, #711, .F. ) ;
#511 = ORIENTED_EDGE ( 'NONE', *, *, #340, .T. ) ;
#512 = VECTOR ( 'NONE', #951, 1000.000000000000114 ) ;
#513 = FACE_OUTER_BOUND ( 'NONE', #563, .T. ) ;
#514 = DIRECTION ( 'NONE',  ( 3.552713678800500929E-15, 0.000000000000000000, -1.000000000000000000 ) ) ;
#515 = EDGE_CURVE ( 'NONE', #821, #945, #812, .T. ) ;
#516 = CYLINDRICAL_SURFACE ( 'NONE', #272, 1.750000000000000000 ) ;
#517 = ORIENTED_EDGE ( 'NONE', *, *, #908, .F. ) ;
#518 = VECTOR ( 'NONE', #278, 1000.000000000000000 ) ;
#519 = CIRCLE ( 'NONE', #1055, 1.750000000000000000 ) ;
#520 = DIRECTION ( 'NONE',  ( 0.000000000000000000, -1.000000000000000000, 0.000000000000000000 ) ) ;
#521 = CARTESIAN_POINT ( 'NONE',  ( 0.000000000000000000, 1.250000000000000000, 2.499999999970441866 ) ) ;
#522 = CARTESIAN_POINT ( 'NONE',  ( 0.3751396643603206460, -0.000000000000000000, -1.464826579301639731 ) ) ;
#523 = EDGE_LOOP ( 'NONE', ( #678, #751, #809, #216 ) ) ;
#524 = EDGE_CURVE ( 'NONE', #1018, #333, #901, .T. ) ;
#525 = DIRECTION ( 'NONE',  ( 8.673617379884035472E-16, 0.000000000000000000, -1.000000000000000000 ) ) ;
#526 = CARTESIAN_POINT ( 'NONE',  ( -1.722205056800659717, 1.500000000000000000, -0.3106601717797700113 ) ) ;
#527 = DIRECTION ( 'NONE',  ( 0.000000000000000000, -0.000000000000000000, -1.000000000000000000 ) ) ;
#528 = ORIENTED_EDGE ( 'NONE', *, *, #811, .F. ) ;
#529 = EDGE_CURVE ( 'NONE', #103, #819, #288, .T. ) ;
#530 = CARTESIAN_POINT ( 'NONE',  ( 0.000000000000000000, 0.7500000000000000000, 0.000000000000000000 ) ) ;
#531 = DIRECTION ( 'NONE',  ( 0.000000000000000000, 0.000000000000000000, -1.000000000000000000 ) ) ;
#532 = CARTESIAN_POINT ( 'NONE',  ( 1.404187350806425316, 0.000000000000000000, -0.5281090114896622723 ) ) ;
#533 = ORIENTED_EDGE ( 'NONE', *, *, #524, .F. ) ;
#534 = AXIS2_PLACEMENT_3D ( 'NONE', #283, #198, #537 ) ;
#535 = VECTOR ( 'NONE', #1009, 1000.000000000000000 ) ;
#536 = CIRCLE ( 'NONE', #609, 0.7500000000000000000 ) ;
#537 = DIRECTION ( 'NONE',  ( 0.000000000000000000, 0.000000000000000000, -1.000000000000000000 ) ) ;
#538 = ADVANCED_FACE ( 'NONE', ( #120 ), #3, .T. ) ;
#539 = VECTOR ( 'NONE', #325, 1000.000000000000000 ) ;
#540 = CARTESIAN_POINT ( 'NONE',  ( 1.060660171779999938, 0.7500000000000000000, -1.060660171779999938 ) ) ;
#541 = ORIENTED_EDGE ( 'NONE', *, *, #63, .F. ) ;
#542 = DIRECTION ( 'NONE',  ( 1.000000000000000000, 0.000000000000000000, 0.000000000000000000 ) ) ;
#543 = EDGE_CURVE ( 'NONE', #924, #945, #643, .T. ) ;
#544 = CARTESIAN_POINT ( 'NONE',  ( 0.000000000000000000, 0.000000000000000000, 0.000000000000000000 ) ) ;
#545 = EDGE_LOOP ( 'NONE', ( #585, #280, #98, #846 ) ) ;
#546 = CARTESIAN_POINT ( 'NONE',  ( -1.060660171779999938, 0.7500000000000000000, 0.3106601717799998830 ) ) ;
#547 = CARTESIAN_POINT ( 'NONE',  ( 1.530808498934191571E-16, -0.5000000000000000000, -1.250000000000000000 ) ) ;
#548 = EDGE_CURVE ( 'NONE', #168, #103, #136, .T. ) ;
#549 = CARTESIAN_POINT ( 'NONE',  ( 0.000000000000000000, 1.750000000000000000, -1.500000000000000000 ) ) ;
#550 = EDGE_LOOP ( 'NONE', ( #7, #710, #34, #634 ) ) ;
#551 = DIRECTION ( 'NONE',  ( -0.000000000000000000, -1.000000000000000000, 0.000000000000000000 ) ) ;
#552 = ORIENTED_EDGE ( 'NONE', *, *, #894, .F. ) ;
#553 = FILL_AREA_STYLE_COLOUR ( '', #625 ) ;
#554 = DIRECTION ( 'NONE',  ( 3.552713678800500929E-15, 0.000000000000000000, -1.000000000000000000 ) ) ;
#555 = CIRCLE ( 'NONE', #129, 0.7500000000000000000 ) ;
#556 = EDGE_LOOP ( 'NONE', ( #123, #869, #1074, #409 ) ) ;
#557 = CARTESIAN_POINT ( 'NONE',  ( 0.000000000000000000, -3.500000000000000000, 1.250000000000000000 ) ) ;
#558 = EDGE_CURVE ( 'NONE', #157, #332, #914, .T. ) ;
#559 = CARTESIAN_POINT ( 'NONE',  ( 1.530808498934191571E-16, -3.500000000000000000, -1.250000000000000000 ) ) ;
#560 = DIRECTION ( 'NONE',  ( 0.000000000000000000, 0.000000000000000000, 1.000000000000000000 ) ) ;
#561 = ORIENTED_EDGE ( 'NONE', *, *, #407, .T. ) ;
#562 = CARTESIAN_POINT ( 'NONE',  ( 1.836970198721029934E-16, -0.5000000000000002220, 1.500000000000000000 ) ) ;
#563 = EDGE_LOOP ( 'NONE', ( #257, #427, #511, #561 ) ) ;
#564 = ADVANCED_FACE ( 'NONE', ( #383 ), #227, .F. ) ;
#565 = DIRECTION ( 'NONE',  ( 0.000000000000000000, -1.000000000000000000, 0.000000000000000000 ) ) ;
#566 = FACE_OUTER_BOUND ( 'NONE', #556, .T. ) ;
#567 = AXIS2_PLACEMENT_3D ( 'NONE', #508, #604, #1041 ) ;
#568 = ORIENTED_EDGE ( 'NONE', *, *, #86, .F. ) ;
#569 = DIRECTION ( 'NONE',  ( 0.000000000000000000, 0.7071067811865474617, 0.7071067811865474617 ) ) ;
#570 = ORIENTED_EDGE ( 'NONE', *, *, #656, .T. ) ;
#571 = DIRECTION ( 'NONE',  ( 0.000000000000000000, 1.000000000000000000, 0.000000000000000000 ) ) ;
#572 = AXIS2_PLACEMENT_3D ( 'NONE', #621, #111, #531 ) ;
#573 = CARTESIAN_POINT ( 'NONE',  ( -1.448438283592722087, -0.000000000000000000, 0.3953778698449393336 ) ) ;
#574 = EDGE_CURVE ( 'NONE', #715, #421, #287, .T. ) ;
#575 = VERTEX_POINT ( 'NONE', #367 ) ;
#576 = AXIS2_PLACEMENT_3D ( 'NONE', #476, #1059, #40 ) ;
#577 = DIRECTION ( 'NONE',  ( 0.000000000000000000, 0.000000000000000000, 1.000000000000000000 ) ) ;
#578 = CYLINDRICAL_SURFACE ( 'NONE', #791, 1.250000000000000000 ) ;
#579 = DIRECTION ( 'NONE',  ( -1.000000000000000000, 0.000000000000000000, -0.000000000000000000 ) ) ;
#580 = EDGE_CURVE ( 'NONE', #421, #667, #519, .T. ) ;
#581 = ORIENTED_EDGE ( 'NONE', *, *, #385, .F. ) ;
#582 = EDGE_LOOP ( 'NONE', ( #328, #815, #1094, #688 ) ) ;
#583 = FACE_OUTER_BOUND ( 'NONE', #206, .T. ) ;
#584 = DIRECTION ( 'NONE',  ( 0.000000000000000000, 0.000000000000000000, -1.000000000000000000 ) ) ;
#585 = ORIENTED_EDGE ( 'NONE', *, *, #626, .F. ) ;
#586 = AXIS2_PLACEMENT_3D ( 'NONE', #530, #520, #1026 ) ;
#587 = CARTESIAN_POINT ( 'NONE',  ( 0.000000000000000000, 1.500000000000000000, -2.500000000000000000 ) ) ;
#588 = VERTEX_POINT ( 'NONE', #835 ) ;
#589 = PLANE ( 'NONE',  #666 ) ;
#590 = CARTESIAN_POINT ( 'NONE',  ( 1.375029273410684594, -0.000000000000000000, 0.5999936494202963155 ) ) ;
#591 = DIRECTION ( 'NONE',  ( 0.000000000000000000, -0.000000000000000000, 1.000000000000000000 ) ) ;
#592 = EDGE_LOOP ( 'NONE', ( #662, #83 ) ) ;
#593 = ADVANCED_FACE ( 'NONE', ( #237 ), #589, .F. ) ;
#594 = CARTESIAN_POINT ( 'NONE',  ( 0.000000000000000000, 0.000000000000000000, 0.000000000000000000 ) ) ;
#595 = DIRECTION ( 'NONE',  ( 0.000000000000000000, 0.000000000000000000, -1.000000000000000000 ) ) ;
#596 = ORIENTED_EDGE ( 'NONE', *, *, #453, .F. ) ;
#597 = ORIENTED_EDGE ( 'NONE', *, *, #826, .T. ) ;
#598 = CARTESIAN_POINT ( 'NONE',  ( 0.000000000000000000, 0.000000000000000000, 0.000000000000000000 ) ) ;
#599 = ADVANCED_FACE ( 'NONE', ( #71 ), #410, .T. ) ;
#600 = CARTESIAN_POINT ( 'NONE',  ( -0.3106601717799998830, 0.7500000000000000000, -1.060660171779999938 ) ) ;
#601 = CARTESIAN_POINT ( 'NONE',  ( -1.133785510258710660, -0.000000000000000000, -0.9875873162723777243 ) ) ;
#602 = ORIENTED_EDGE ( 'NONE', *, *, #266, .F. ) ;
#603 = VECTOR ( 'NONE', #1013, 1000.000000000000000 ) ;
#604 = DIRECTION ( 'NONE',  ( 0.000000000000000000, 1.000000000000000000, 0.000000000000000000 ) ) ;
#605 = CARTESIAN_POINT ( 'NONE',  ( 1.722205056800999889, 0.7500000000000000000, -0.3106601717797999873 ) ) ;
#606 = EDGE_CURVE ( 'NONE', #608, #766, #998, .T. ) ;
#607 = FACE_OUTER_BOUND ( 'NONE', #321, .T. ) ;
#608 = VERTEX_POINT ( 'NONE', #1092 ) ;
#609 = AXIS2_PLACEMENT_3D ( 'NONE', #77, #84, #155 ) ;
#610 = CARTESIAN_POINT ( 'NONE',  ( 3.061616997726371908E-16, 1.249999999913598003, -2.499999999884039426 ) ) ;
#611 = PRODUCT ( 'DC11_A01_IDLER_SCREW', 'DC11_A01_IDLER_SCREW', '', ( #465 ) ) ;
#612 = DIRECTION ( 'NONE',  ( -0.000000000000000000, 1.000000000000000000, -0.000000000000000000 ) ) ;
#613 = DIRECTION ( 'NONE',  ( -0.000000000000000000, -1.000000000000000000, -0.000000000000000000 ) ) ;
#614 = EDGE_CURVE ( 'NONE', #458, #588, #481, .T. ) ;
#615 = ORIENTED_EDGE ( 'NONE', *, *, #677, .F. ) ;
#616 = FACE_OUTER_BOUND ( 'NONE', #1099, .T. ) ;
#617 = DIRECTION ( 'NONE',  ( 0.000000000000000000, 0.000000000000000000, -1.000000000000000000 ) ) ;
#618 = CARTESIAN_POINT ( 'NONE',  ( -1.060660171779999938, 1.500000000000000000, -1.060660171779999938 ) ) ;
#619 = ORIENTED_EDGE ( 'NONE', *, *, #401, .F. ) ;
#620 = CIRCLE ( 'NONE', #405, 1.750000000000000000 ) ;
#621 = CARTESIAN_POINT ( 'NONE',  ( 0.000000000000000000, -3.250000000000000444, 0.000000000000000000 ) ) ;
#622 = CARTESIAN_POINT ( 'NONE',  ( 0.7157900588269769937, -0.000000000000000000, -1.320168919692197074 ) ) ;
#623 = ORIENTED_EDGE ( 'NONE', *, *, #453, .T. ) ;
#624 = AXIS2_PLACEMENT_3D ( 'NONE', #313, #658, #233 ) ;
#625 = COLOUR_RGB ( '',0.7921568627450980005, 0.8196078431372548767, 0.9333333333333333481 ) ;
#626 = EDGE_CURVE ( 'NONE', #485, #654, #823, .T. ) ;
#627 = VECTOR ( 'NONE', #613, 1000.000000000000000 ) ;
#628 = DIRECTION ( 'NONE',  ( 0.000000000000000000, 0.000000000000000000, 1.000000000000000000 ) ) ;
#629 = DIRECTION ( 'NONE',  ( 0.000000000000000000, -1.000000000000000000, 0.000000000000000000 ) ) ;
#630 = ORIENTED_EDGE ( 'NONE', *, *, #177, .F. ) ;
#631 = CARTESIAN_POINT ( 'NONE',  ( 0.000000000000000000, -3.500000000000000000, 1.250000000000000000 ) ) ;
#632 = EDGE_CURVE ( 'NONE', #168, #839, #394, .T. ) ;
#633 = CYLINDRICAL_SURFACE ( 'NONE', #684, 1.500000000000000000 ) ;
#634 = ORIENTED_EDGE ( 'NONE', *, *, #1057, .F. ) ;
#635 = DIRECTION ( 'NONE',  ( 0.000000000000000000, -0.000000000000000000, -1.000000000000000000 ) ) ;
#636 = AXIS2_PLACEMENT_3D ( 'NONE', #808, #484, #647 ) ;
#637 = CARTESIAN_POINT ( 'NONE',  ( 1.722205056800659717, 1.500000000000000000, 0.3106601717797699003 ) ) ;
#638 = CARTESIAN_POINT ( 'NONE',  ( 0.000000000000000000, 0.000000000000000000, 1.249999999970441422 ) ) ;
#639 = ADVANCED_FACE ( 'NONE', ( #847 ), #578, .T. ) ;
#640 = ORIENTED_EDGE ( 'NONE', *, *, #1011, .F. ) ;
#641 = PLANE ( 'NONE',  #316 ) ;
#642 = ORIENTED_EDGE ( 'NONE', *, *, #683, .T. ) ;
#643 = LINE ( 'NONE', #546, #985 ) ;
#644 = CIRCLE ( 'NONE', #790, 1.500000000000000000 ) ;
#645 = DIRECTION ( 'NONE',  ( 1.000000000000000000, 0.000000000000000000, -0.000000000000000000 ) ) ;
#646 = AXIS2_PLACEMENT_3D ( 'NONE', #999, #81, #584 ) ;
#647 = DIRECTION ( 'NONE',  ( 0.000000000000000000, 0.000000000000000000, -1.000000000000000000 ) ) ;
#648 = ORIENTED_EDGE ( 'NONE', *, *, #498, .T. ) ;
#649 = CARTESIAN_POINT ( 'NONE',  ( 0.000000000000000000, -3.500000000000000000, 0.000000000000000000 ) ) ;
#650 = EDGE_CURVE ( 'NONE', #588, #981, #536, .T. ) ;
#651 = DIRECTION ( 'NONE',  ( 0.000000000000000000, -1.000000000000000000, 0.000000000000000000 ) ) ;
#652 = CARTESIAN_POINT ( 'NONE',  ( -1.722205056800665268, 0.7500000000000000000, 0.3106601717797406459 ) ) ;
#653 = CYLINDRICAL_SURFACE ( 'NONE', #712, 1.250000000000000000 ) ;
#654 = VERTEX_POINT ( 'NONE', #1096 ) ;
#655 = DIRECTION ( 'NONE',  ( 1.000000000000000000, 0.000000000000000000, -0.000000000000000000 ) ) ;
#656 = EDGE_CURVE ( 'NONE', #497, #421, #741, .T. ) ;
#657 = CARTESIAN_POINT ( 'NONE',  ( 0.000000000000000000, 1.249999999913598003, 0.000000000000000000 ) ) ;
#658 = DIRECTION ( 'NONE',  ( 0.000000000000000000, 1.000000000000000000, 0.000000000000000000 ) ) ;
#659 = VECTOR ( 'NONE', #569, 1000.000000000000114 ) ;
#660 = EDGE_LOOP ( 'NONE', ( #354, #187, #196, #38 ) ) ;
#661 = PLANE ( 'NONE',  #140 ) ;
#662 = ORIENTED_EDGE ( 'NONE', *, *, #475, .T. ) ;
#663 = CARTESIAN_POINT ( 'NONE',  ( 0.000000000000000000, 0.7500000000000000000, 0.000000000000000000 ) ) ;
#664 = CIRCLE ( 'NONE', #983, 0.7500000000000000000 ) ;
#665 = CARTESIAN_POINT ( 'NONE',  ( 1.500000000000000000, 0.000000000000000000, 0.000000000000000000 ) ) ;
#666 = AXIS2_PLACEMENT_3D ( 'NONE', #920, #1083, #241 ) ;
#667 = VERTEX_POINT ( 'NONE', #408 ) ;
#668 = AXIS2_PLACEMENT_3D ( 'NONE', #771, #928, #591 ) ;
#669 = ORIENTED_EDGE ( 'NONE', *, *, #281, .T. ) ;
#670 = CARTESIAN_POINT ( 'NONE',  ( -0.3106601717797393691, 0.7500000000000000000, 1.722205056800665490 ) ) ;
#671 = CARTESIAN_POINT ( 'NONE',  ( 0.09519741280727822552, -0.000000000000000000, 1.500033662297818315 ) ) ;
#672 = ORIENTED_EDGE ( 'NONE', *, *, #811, .T. ) ;
#673 = ORIENTED_EDGE ( 'NONE', *, *, #705, .F. ) ;
#674 = DIRECTION ( 'NONE',  ( 0.000000000000000000, 0.000000000000000000, 1.000000000000000000 ) ) ;
#675 = CARTESIAN_POINT ( 'NONE',  ( 0.000000000000000000, 0.7500000000000000000, 0.000000000000000000 ) ) ;
#676 = ORIENTED_EDGE ( 'NONE', *, *, #908, .T. ) ;
#677 = EDGE_CURVE ( 'NONE', #929, #24, #254, .T. ) ;
#678 = ORIENTED_EDGE ( 'NONE', *, *, #447, .F. ) ;
#679 = DIRECTION ( 'NONE',  ( 0.000000000000000000, 1.000000000000000000, 0.000000000000000000 ) ) ;
#680 = CARTESIAN_POINT ( 'NONE',  ( 0.2356132304555878521, -0.000000000000000000, 1.486894215470387026 ) ) ;
#681 = ORIENTED_EDGE ( 'NONE', *, *, #79, .F. ) ;
#682 = ORIENTED_EDGE ( 'NONE', *, *, #740, .F. ) ;
#683 = EDGE_CURVE ( 'NONE', #1023, #212, #324, .T. ) ;
#684 = AXIS2_PLACEMENT_3D ( 'NONE', #885, #308, #299 ) ;
#685 = CYLINDRICAL_SURFACE ( 'NONE', #586, 1.750000000000000000 ) ;
#686 = CARTESIAN_POINT ( 'NONE',  ( 0.000000000000000000, -0.5000000000000002220, 0.000000000000000000 ) ) ;
#687 = DIRECTION ( 'NONE',  ( 0.000000000000000000, 0.000000000000000000, 1.000000000000000000 ) ) ;
#688 = ORIENTED_EDGE ( 'NONE', *, *, #53, .T. ) ;
#689 = CARTESIAN_POINT ( 'NONE',  ( -1.500000000000000000, 0.000000000000000000, 0.000000000000000000 ) ) ;
#690 = CARTESIAN_POINT ( 'NONE',  ( -1.060660171779999938, 0.7500000000000000000, -0.3106601717797999873 ) ) ;
#691 = FACE_OUTER_BOUND ( 'NONE', #93, .T. ) ;
#692 = ORIENTED_EDGE ( 'NONE', *, *, #251, .T. ) ;
#693 = PRODUCT_DEFINITION_CONTEXT ( 'detailed design', #494, 'design' ) ;
#694 = CYLINDRICAL_SURFACE ( 'NONE', #767, 1.500000000000000000 ) ;
#695 = DIRECTION ( 'NONE',  ( -0.000000000000000000, 1.000000000000000000, -0.000000000000000000 ) ) ;
#696 = ADVANCED_FACE ( 'NONE', ( #583 ), #397, .F. ) ;
#697 = DIRECTION ( 'NONE',  ( -1.000000000000000000, -0.000000000000000000, -0.000000000000000000 ) ) ;
#698 = ORIENTED_EDGE ( 'NONE', *, *, #298, .F. ) ;
#699 = CIRCLE ( 'NONE', #624, 1.250000000000000000 ) ;
#700 = AXIS2_PLACEMENT_3D ( 'NONE', #657, #571, #318 ) ;
#701 = CARTESIAN_POINT ( 'NONE',  ( 0.000000000000000000, 0.7500000000000000000, -1.750000000000000000 ) ) ;
#702 = VECTOR ( 'NONE', #838, 1000.000000000000000 ) ;
#703 = DIRECTION ( 'NONE',  ( 8.659560563339411546E-17, 0.7071067811061588770, -0.7071067812669361574 ) ) ;
#704 = LINE ( 'NONE', #1034, #880 ) ;
#705 = EDGE_CURVE ( 'NONE', #337, #935, #824, .T. ) ;
#706 = VERTEX_POINT ( 'NONE', #763 ) ;
#707 = CARTESIAN_POINT ( 'NONE',  ( 1.060660171779999938, 0.7500000000000000000, -1.060660171779999938 ) ) ;
#708 = CYLINDRICAL_SURFACE ( 'NONE', #444, 0.7500000000000000000 ) ;
#709 = DIRECTION ( 'NONE',  ( 0.000000000000000000, -1.000000000000000000, 0.000000000000000000 ) ) ;
#710 = ORIENTED_EDGE ( 'NONE', *, *, #63, .T. ) ;
#711 = EDGE_CURVE ( 'NONE', #202, #964, #335, .T. ) ;
#712 = AXIS2_PLACEMENT_3D ( 'NONE', #48, #726, #886 ) ;
#713 = DIRECTION ( 'NONE',  ( 0.000000000000000000, 1.000000000000000000, 1.445602896736305170E-16 ) ) ;
#714 = CYLINDRICAL_SURFACE ( 'NONE', #1056, 0.7500000000000000000 ) ;
#715 = VERTEX_POINT ( 'NONE', #1020 ) ;
#716 = AXIS2_PLACEMENT_3D ( 'NONE', #1058, #713, #992 ) ;
#717 = ADVANCED_FACE ( 'NONE', ( #840, #758 ), #253, .F. ) ;
#718 = AXIS2_PLACEMENT_3D ( 'NONE', #544, #818, #560 ) ;
#719 = DIRECTION ( 'NONE',  ( 1.000000000000000000, 0.000000000000000000, 0.000000000000000000 ) ) ;
#720 = CARTESIAN_POINT ( 'NONE',  ( 0.3106601717797697892, 1.500000000000000000, -1.722205056800659717 ) ) ;
#721 = FACE_OUTER_BOUND ( 'NONE', #865, .T. ) ;
#722 = ORIENTED_EDGE ( 'NONE', *, *, #340, .F. ) ;
#723 = CARTESIAN_POINT ( 'NONE',  ( 0.000000000000000000, 1.500000000000000000, 0.3106601717797999873 ) ) ;
#724 = EDGE_CURVE ( 'NONE', #803, #202, #300, .T. ) ;
#725 = FACE_OUTER_BOUND ( 'NONE', #234, .T. ) ;
#726 = DIRECTION ( 'NONE',  ( 0.000000000000000000, 1.000000000000000000, 0.000000000000000000 ) ) ;
#727 = ORIENTED_EDGE ( 'NONE', *, *, #208, .T. ) ;
#728 = CARTESIAN_POINT ( 'NONE',  ( 0.000000000000000000, 1.750000000000000000, 0.000000000000000000 ) ) ;
#729 = CIRCLE ( 'NONE', #33, 1.250000000000000000 ) ;
#730 = EDGE_CURVE ( 'NONE', #377, #1023, #25, .T. ) ;
#731 = DIRECTION ( 'NONE',  ( -1.000000000000000000, 0.000000000000000000, 0.000000000000000000 ) ) ;
#732 = CARTESIAN_POINT ( 'NONE',  ( 1.060660171779999938, 0.7500000000000000000, -0.3106601717798999074 ) ) ;
#733 = ORIENTED_EDGE ( 'NONE', *, *, #186, .F. ) ;
#734 = CARTESIAN_POINT ( 'NONE',  ( -1.722205056800659717, 0.7500000000000000000, 0.3106601717797703444 ) ) ;
#735 = ORIENTED_EDGE ( 'NONE', *, *, #385, .T. ) ;
#736 =( GEOMETRIC_REPRESENTATION_CONTEXT ( 3 ) GLOBAL_UNCERTAINTY_ASSIGNED_CONTEXT ( ( #468 ) ) GLOBAL_UNIT_ASSIGNED_CONTEXT ( ( #45, #987, #371 ) ) REPRESENTATION_CONTEXT ( 'NONE', 'WORKASPACE' ) );
#737 = CARTESIAN_POINT ( 'NONE',  ( -1.464894150531215189, -0.000000000000000000, -0.3749691544374613716 ) ) ;
#738 = EDGE_LOOP ( 'NONE', ( #1025, #250, #673, #442 ) ) ;
#739 = CARTESIAN_POINT ( 'NONE',  ( 1.060660171779999938, 0.7500000000000000000, 1.060660171779999938 ) ) ;
#740 = EDGE_CURVE ( 'NONE', #109, #145, #89, .T. ) ;
#741 = LINE ( 'NONE', #913, #1039 ) ;
#742 = FACE_BOUND ( 'NONE', #263, .T. ) ;
#743 = ORIENTED_EDGE ( 'NONE', *, *, #281, .F. ) ;
#744 = CARTESIAN_POINT ( 'NONE',  ( 0.000000000000000000, -3.250000000000000444, 1.500000000001364020 ) ) ;
#745 = ORIENTED_EDGE ( 'NONE', *, *, #459, .F. ) ;
#746 = ADVANCED_FACE ( 'NONE', ( #866 ), #694, .T. ) ;
#747 = CARTESIAN_POINT ( 'NONE',  ( 1.530808498934191571E-16, -0.5999999999999999778, -1.250000000000000000 ) ) ;
#748 = CARTESIAN_POINT ( 'NONE',  ( 1.133785510258710660, -0.000000000000000000, 0.9875873162723777243 ) ) ;
#749 = CARTESIAN_POINT ( 'NONE',  ( 0.3106601717797999873, 0.7500000000000000000, 1.060660171779999938 ) ) ;
#750 = FACE_OUTER_BOUND ( 'NONE', #225, .T. ) ;
#751 = ORIENTED_EDGE ( 'NONE', *, *, #558, .T. ) ;
#752 = CARTESIAN_POINT ( 'NONE',  ( 0.000000000000000000, -0.5000000000000002220, 0.000000000000000000 ) ) ;
#753 = CIRCLE ( 'NONE', #125, 1.750000000000000000 ) ;
#754 = CARTESIAN_POINT ( 'NONE',  ( -1.500000000000000444, 0.000000000000000000, 0.09528252762700109568 ) ) ;
#755 = ORIENTED_EDGE ( 'NONE', *, *, #574, .F. ) ;
#756 = AXIS2_PLACEMENT_3D ( 'NONE', #262, #761, #832 ) ;
#757 = ORIENTED_EDGE ( 'NONE', *, *, #650, .T. ) ;
#758 = FACE_OUTER_BOUND ( 'NONE', #466, .T. ) ;
#759 = FACE_OUTER_BOUND ( 'NONE', #239, .T. ) ;
#760 = EDGE_CURVE ( 'NONE', #388, #821, #620, .T. ) ;
#761 = DIRECTION ( 'NONE',  ( 0.000000000000000000, 1.000000000000000000, 0.000000000000000000 ) ) ;
#762 = ORIENTED_EDGE ( 'NONE', *, *, #130, .T. ) ;
#763 = CARTESIAN_POINT ( 'NONE',  ( 0.3106601717797999873, 0.7500000000000000000, 1.722205056800827139 ) ) ;
#764 = DIRECTION ( 'NONE',  ( 0.000000000000000000, 0.000000000000000000, -1.000000000000000000 ) ) ;
#765 = EDGE_CURVE ( 'NONE', #839, #819, #180, .T. ) ;
#766 = VERTEX_POINT ( 'NONE', #769 ) ;
#767 = AXIS2_PLACEMENT_3D ( 'NONE', #341, #259, #8 ) ;
#768 = VERTEX_POINT ( 'NONE', #689 ) ;
#769 = CARTESIAN_POINT ( 'NONE',  ( 0.3106601717797999318, 0.7500000000000000000, -1.060660171779999938 ) ) ;
#770 = CARTESIAN_POINT ( 'NONE',  ( 0.000000000000000000, -3.499999999974079401, 1.249999999970441422 ) ) ;
#771 = CARTESIAN_POINT ( 'NONE',  ( 0.000000000000000000, -0.5000000000000000000, 0.000000000000000000 ) ) ;
#772 = PRESENTATION_LAYER_ASSIGNMENT (  '', '', ( #148 ) ) ;
#773 = CIRCLE ( 'NONE', #1024, 0.7500000000000000000 ) ;
#774 = ORIENTED_EDGE ( 'NONE', *, *, #730, .T. ) ;
#775 = ADVANCED_FACE ( 'NONE', ( #616 ), #685, .F. ) ;
#776 = CARTESIAN_POINT ( 'NONE',  ( -0.3106601717797999873, 1.500000000000000000, 0.000000000000000000 ) ) ;
#777 = DIRECTION ( 'NONE',  ( 0.000000000000000000, -1.000000000000000000, 0.000000000000000000 ) ) ;
#778 = DIRECTION ( 'NONE',  ( -0.000000000000000000, 0.000000000000000000, -1.000000000000000000 ) ) ;
#779 = ORIENTED_EDGE ( 'NONE', *, *, #117, .T. ) ;
#780 = ADVANCED_FACE ( 'NONE', ( #936 ), #422, .T. ) ;
#781 = CARTESIAN_POINT ( 'NONE',  ( -1.722205056800659717, 1.500000000000000000, 0.3106601717797703444 ) ) ;
#782 = CARTESIAN_POINT ( 'NONE',  ( 0.000000000000000000, -3.499999999974079401, -3.614007240111842981E-17 ) ) ;
#783 = CARTESIAN_POINT ( 'NONE',  ( 1.500000000000000444, 0.000000000000000000, -0.09528252762700109568 ) ) ;
#784 = AXIS2_PLACEMENT_3D ( 'NONE', #209, #222, #1073 ) ;
#785 = ORIENTED_EDGE ( 'NONE', *, *, #894, .T. ) ;
#786 = LINE ( 'NONE', #277, #175 ) ;
#787 = CARTESIAN_POINT ( 'NONE',  ( 0.3106601717797999873, 1.500000000000000000, 0.000000000000000000 ) ) ;
#788 = CARTESIAN_POINT ( 'NONE',  ( -0.2356132304555878521, -0.000000000000000000, -1.486894215470387026 ) ) ;
#789 = EDGE_LOOP ( 'NONE', ( #918, #800, #437, #533 ) ) ;
#790 = AXIS2_PLACEMENT_3D ( 'NONE', #686, #1027, #261 ) ;
#791 = AXIS2_PLACEMENT_3D ( 'NONE', #231, #59, #674 ) ;
#792 = CARTESIAN_POINT ( 'NONE',  ( 0.000000000000000000, -0.5000000000000000000, 0.000000000000000000 ) ) ;
#793 = AXIS2_PLACEMENT_3D ( 'NONE', #675, #933, #1005 ) ;
#794 = LINE ( 'NONE', #787, #1021 ) ;
#795 = CARTESIAN_POINT ( 'NONE',  ( 0.000000000000000000, 0.7500000000000000000, 0.000000000000000000 ) ) ;
#796 = ORIENTED_EDGE ( 'NONE', *, *, #99, .F. ) ;
#797 = DIRECTION ( 'NONE',  ( 0.000000000000000000, 1.000000000000000000, 0.000000000000000000 ) ) ;
#798 = CARTESIAN_POINT ( 'NONE',  ( -0.5281090114896602739, 0.000000000000000000, -1.404187350806421541 ) ) ;
#799 = EDGE_CURVE ( 'NONE', #654, #333, #51, .T. ) ;
#800 = ORIENTED_EDGE ( 'NONE', *, *, #626, .T. ) ;
#801 = SURFACE_SIDE_STYLE ('',( #896 ) ) ;
#802 = CARTESIAN_POINT ( 'NONE',  ( -0.3106601717797999873, 0.7500000000000000000, -1.722205056800827139 ) ) ;
#803 = VERTEX_POINT ( 'NONE', #174 ) ;
#804 = VECTOR ( 'NONE', #487, 1000.000000000000000 ) ;
#805 = VECTOR ( 'NONE', #353, 1000.000000000000000 ) ;
#806 = DIRECTION ( 'NONE',  ( 0.000000000000000000, 0.000000000000000000, 1.000000000000000000 ) ) ;
#807 = DIRECTION ( 'NONE',  ( -0.000000000000000000, 1.000000000000000000, -0.000000000000000000 ) ) ;
#808 = CARTESIAN_POINT ( 'NONE',  ( 1.060660171779999938, 0.7500000000000000000, 1.060660171779999938 ) ) ;
#809 = ORIENTED_EDGE ( 'NONE', *, *, #923, .T. ) ;
#810 = CARTESIAN_POINT ( 'NONE',  ( 0.000000000000000000, -3.250000000093677954, 0.000000000000000000 ) ) ;
#811 = EDGE_CURVE ( 'NONE', #388, #994, #1030, .T. ) ;
#812 = LINE ( 'NONE', #723, #339 ) ;
#813 = CARTESIAN_POINT ( 'NONE',  ( -1.500000000000000444, -0.000000000000000000, -0.1909217996565236442 ) ) ;
#814 = FACE_OUTER_BOUND ( 'NONE', #545, .T. ) ;
#815 = ORIENTED_EDGE ( 'NONE', *, *, #683, .F. ) ;
#816 = CARTESIAN_POINT ( 'NONE',  ( 0.000000000000000000, 1.249999999913598003, 2.499999999884039426 ) ) ;
#817 = VECTOR ( 'NONE', #217, 1000.000000000000000 ) ;
#818 = DIRECTION ( 'NONE',  ( -0.000000000000000000, -1.000000000000000000, -0.000000000000000000 ) ) ;
#819 = VERTEX_POINT ( 'NONE', #434 ) ;
#820 = CARTESIAN_POINT ( 'NONE',  ( -1.722205056800999889, 0.7500000000000000000, -0.3106601717797999873 ) ) ;
#821 = VERTEX_POINT ( 'NONE', #781 ) ;
#822 = AXIS2_PLACEMENT_3D ( 'NONE', #889, #797, #806 ) ;
#823 = LINE ( 'NONE', #1003, #843 ) ;
#824 = CIRCLE ( 'NONE', #70, 2.500000000000000000 ) ;
#825 = DIRECTION ( 'NONE',  ( -0.000000000000000000, 1.000000000000000000, -0.000000000000000000 ) ) ;
#826 = EDGE_CURVE ( 'NONE', #766, #1061, #1066, .T. ) ;
#827 = ORIENTED_EDGE ( 'NONE', *, *, #447, .T. ) ;
#828 = LINE ( 'NONE', #833, #456 ) ;
#829 = CARTESIAN_POINT ( 'NONE',  ( 0.000000000000000000, 1.500000000000000000, 0.000000000000000000 ) ) ;
#830 = MANIFOLD_SURFACE_SHAPE_REPRESENTATION ( 'DC11_A01_IDLER_SCREW', ( #32, #784 ), #888 ) ;
#831 = CYLINDRICAL_SURFACE ( 'NONE', #646, 1.750000000000000000 ) ;
#832 = DIRECTION ( 'NONE',  ( 0.000000000000000000, 0.000000000000000000, 1.000000000000000000 ) ) ;
#833 = CARTESIAN_POINT ( 'NONE',  ( 1.836970198721029934E-16, 1.750000000000000000, 1.500000000000000000 ) ) ;
#834 = EDGE_CURVE ( 'NONE', #485, #1018, #107, .T. ) ;
#835 = CARTESIAN_POINT ( 'NONE',  ( 0.3106601717798999074, 1.500000000000000000, 1.060660171780000161 ) ) ;
#836 = AXIS2_PLACEMENT_3D ( 'NONE', #707, #875, #525 ) ;
#837 = CARTESIAN_POINT ( 'NONE',  ( -0.7157900588269769937, -0.000000000000000000, 1.320168919692197074 ) ) ;
#838 = DIRECTION ( 'NONE',  ( -0.000000000000000000, 0.000000000000000000, -1.000000000000000000 ) ) ;
#839 = VERTEX_POINT ( 'NONE', #192 ) ;
#840 = FACE_BOUND ( 'NONE', #317, .T. ) ;
#841 = CIRCLE ( 'NONE', #181, 1.750000000000000000 ) ;
#842 = CARTESIAN_POINT ( 'NONE',  ( 0.9144094948220424790, -0.000000000000000000, 1.206805882794708351 ) ) ;
#843 = VECTOR ( 'NONE', #931, 1000.000000000000000 ) ;
#844 = CARTESIAN_POINT ( 'NONE',  ( 0.000000000000000000, -0.5000000000000002220, -1.500000000000000000 ) ) ;
#845 = AXIS2_PLACEMENT_3D ( 'NONE', #289, #629, #969 ) ;
#846 = ORIENTED_EDGE ( 'NONE', *, *, #186, .T. ) ;
#847 = FACE_OUTER_BOUND ( 'NONE', #1095, .T. ) ;
#848 = ADVANCED_FACE ( 'NONE', ( #513 ), #12, .F. ) ;
#849 = PLANE ( 'NONE',  #793 ) ;
#850 = CARTESIAN_POINT ( 'NONE',  ( 0.000000000000000000, 1.500000000000000000, -0.3106601717797999873 ) ) ;
#851 = ORIENTED_EDGE ( 'NONE', *, *, #319, .F. ) ;
#852 = CARTESIAN_POINT ( 'NONE',  ( 0.000000000000000000, -0.5000000000000000000, 0.000000000000000000 ) ) ;
#853 = DIRECTION ( 'NONE',  ( 0.000000000000000000, 1.000000000000000000, 0.000000000000000000 ) ) ;
#854 = EDGE_CURVE ( 'NONE', #964, #935, #859, .T. ) ;
#855 = ORIENTED_EDGE ( 'NONE', *, *, #365, .F. ) ;
#856 = VECTOR ( 'NONE', #870, 1000.000000000000000 ) ;
#857 = VERTEX_POINT ( 'NONE', #188 ) ;
#858 = B_SPLINE_CURVE_WITH_KNOTS ( 'NONE', 3,
 ( #267, #783, #108, #114, #436, #877, #532, #948, #1053, #102, #185, #622, #1048, #348, #97, #522, #861, #962, #788, #21, #118, #452, #798, #31, #369, #601, #902, #36, #205, #384, #897, #737, #813, #304 ),
 .UNSPECIFIED., .F., .F.,
 ( 4, 1, 1, 2, 2, 2, 1, 1, 2, 2, 2, 1, 1, 2, 2, 2, 1, 1, 2, 2, 4 ),
 ( 0.000000000000000000, 0.06250000000000013878, 0.09375000000000019429, 0.1093750000000002220, 0.1250000000000002498, 0.2500000000000003331, 0.3125000000000003331, 0.3437500000000004441, 0.3593750000000003886, 0.3750000000000003886, 0.5000000000000000000, 0.5624999999999997780, 0.5937499999999996669, 0.6093749999999995559, 0.6249999999999994449, 0.7499999999999995559, 0.8124999999999996669, 0.8437499999999997780, 0.8593749999999997780, 0.8749999999999997780, 1.000000000000000000 ),
 .UNSPECIFIED. ) ;
#859 = LINE ( 'NONE', #610, #512 ) ;
#860 = DIRECTION ( 'NONE',  ( 0.000000000000000000, 0.000000000000000000, -1.000000000000000000 ) ) ;
#861 = CARTESIAN_POINT ( 'NONE',  ( 0.1903948256145562290, -0.000000000000000000, -1.499932675404364257 ) ) ;
#862 = LINE ( 'NONE', #416, #603 ) ;
#863 = EDGE_CURVE ( 'NONE', #575, #337, #786, .T. ) ;
#864 = CIRCLE ( 'NONE', #376, 1.750000000000000000 ) ;
#865 = EDGE_LOOP ( 'NONE', ( #291, #757, #49, #82 ) ) ;
#866 = FACE_OUTER_BOUND ( 'NONE', #393, .T. ) ;
#867 = FACE_OUTER_BOUND ( 'NONE', #910, .T. ) ;
#868 = CARTESIAN_POINT ( 'NONE',  ( 0.3106601717797999873, 1.500000000000000000, 0.000000000000000000 ) ) ;
#869 = ORIENTED_EDGE ( 'NONE', *, *, #144, .T. ) ;
#870 = DIRECTION ( 'NONE',  ( 0.000000000000000000, -1.000000000000000000, 0.000000000000000000 ) ) ;
#871 = LINE ( 'NONE', #605, #270 ) ;
#872 = DIRECTION ( 'NONE',  ( 0.000000000000000000, -1.000000000000000000, 0.000000000000000000 ) ) ;
#873 = AXIS2_PLACEMENT_3D ( 'NONE', #739, #134, #50 ) ;
#874 = ORIENTED_EDGE ( 'NONE', *, *, #53, .F. ) ;
#875 = DIRECTION ( 'NONE',  ( -0.000000000000000000, 1.000000000000000000, -0.000000000000000000 ) ) ;
#876 = CARTESIAN_POINT ( 'NONE',  ( 0.000000000000000000, 1.500000000000000000, 0.000000000000000000 ) ) ;
#877 = CARTESIAN_POINT ( 'NONE',  ( 1.411686847430088543, -0.000000000000000000, -0.5076578116959498121 ) ) ;
#878 = ORIENTED_EDGE ( 'NONE', *, *, #740, .T. ) ;
#879 = CIRCLE ( 'NONE', #572, 1.500000000000000000 ) ;
#880 = VECTOR ( 'NONE', #279, 1000.000000000000000 ) ;
#881 = DIRECTION ( 'NONE',  ( 0.000000000000000000, 1.000000000000000000, 1.445602896736305170E-16 ) ) ;
#882 = LINE ( 'NONE', #868, #23 ) ;
#883 = ORIENTED_EDGE ( 'NONE', *, *, #574, .T. ) ;
#884 = DIRECTION ( 'NONE',  ( 7.993605777301127091E-15, 0.000000000000000000, -1.000000000000000000 ) ) ;
#885 = CARTESIAN_POINT ( 'NONE',  ( 0.000000000000000000, 1.750000000000000000, 0.000000000000000000 ) ) ;
#886 = DIRECTION ( 'NONE',  ( 0.000000000000000000, 0.000000000000000000, 1.000000000000000000 ) ) ;
#887 = ORIENTED_EDGE ( 'NONE', *, *, #130, .F. ) ;
#888 =( GEOMETRIC_REPRESENTATION_CONTEXT ( 3 ) GLOBAL_UNCERTAINTY_ASSIGNED_CONTEXT ( ( #44 ) ) GLOBAL_UNIT_ASSIGNED_CONTEXT ( ( #41, #387, #898 ) ) REPRESENTATION_CONTEXT ( 'NONE', 'WORKASPACE' ) );
#889 = CARTESIAN_POINT ( 'NONE',  ( 0.000000000000000000, -3.500000000000000000, 0.000000000000000000 ) ) ;
#890 = CARTESIAN_POINT ( 'NONE',  ( 1.060660171779999938, 0.7500000000000000000, 0.3106601717797999873 ) ) ;
#891 = SHAPE_DEFINITION_REPRESENTATION ( #274, #830 ) ;
#892 = EDGE_LOOP ( 'NONE', ( #1054, #399, #68, #1008 ) ) ;
#893 = DIRECTION ( 'NONE',  ( 0.000000000000000000, 0.000000000000000000, 1.000000000000000000 ) ) ;
#894 = EDGE_CURVE ( 'NONE', #922, #381, #997, .T. ) ;
#895 = VECTOR ( 'NONE', #807, 1000.000000000000000 ) ;
#896 = SURFACE_STYLE_FILL_AREA ( #303 ) ;
#897 = CARTESIAN_POINT ( 'NONE',  ( -1.385905989226448920, 0.000000000000000000, -0.5742886780809780545 ) ) ;
#898 =( NAMED_UNIT ( * ) SI_UNIT ( $, .STERADIAN. ) SOLID_ANGLE_UNIT ( ) );
#899 = ORIENTED_EDGE ( 'NONE', *, *, #99, .T. ) ;
#900 = DIRECTION ( 'NONE',  ( 0.000000000000000000, 0.7071067811061586550, 0.7071067812669363795 ) ) ;
#901 = LINE ( 'NONE', #631, #963 ) ;
#902 = CARTESIAN_POINT ( 'NONE',  ( -1.230382299094605836, -0.000000000000000000, -0.8692179112121690698 ) ) ;
#903 = ORIENTED_EDGE ( 'NONE', *, *, #529, .F. ) ;
#904 = CARTESIAN_POINT ( 'NONE',  ( 1.060660171779999938, 1.500000000000000000, -0.3106601717798999074 ) ) ;
#905 = ORIENTED_EDGE ( 'NONE', *, *, #326, .F. ) ;
#906 = AXIS2_PLACEMENT_3D ( 'NONE', #728, #1086, #1065 ) ;
#907 = DIRECTION ( 'NONE',  ( 0.000000000000000000, 0.000000000000000000, -1.000000000000000000 ) ) ;
#908 = EDGE_CURVE ( 'NONE', #202, #803, #729, .T. ) ;
#909 = DIRECTION ( 'NONE',  ( 0.000000000000000000, 0.000000000000000000, -1.000000000000000000 ) ) ;
#910 = EDGE_LOOP ( 'NONE', ( #370, #88, #1079, #169 ) ) ;
#911 = DIRECTION ( 'NONE',  ( 0.000000000000000000, -1.000000000000000000, 0.000000000000000000 ) ) ;
#912 = AXIS2_PLACEMENT_3D ( 'NONE', #474, #52, #884 ) ;
#913 = CARTESIAN_POINT ( 'NONE',  ( 1.722205056800665268, 0.7500000000000000000, 0.3106601717797398132 ) ) ;
#914 = CIRCLE ( 'NONE', #716, 1.249999999970441422 ) ;
#915 = CLOSED_SHELL ( 'NONE', ( #76, #286, #599, #35, #204, #991, #244, #775, #955, #378, #491, #260, #152, #112, #1051, #848, #696, #1100, #593, #564, #165, #218, #1044, #1006, #273, #780, #639, #19, #746, #538, #968 ) ) ;
#916 = EDGE_CURVE ( 'NONE', #173, #337, #472, .T. ) ;
#917 = CARTESIAN_POINT ( 'NONE',  ( -0.5742673643406204231, 0.000000000000000000, 1.385914435630145825 ) ) ;
#918 = ORIENTED_EDGE ( 'NONE', *, *, #311, .T. ) ;
#919 = FACE_OUTER_BOUND ( 'NONE', #454, .T. ) ;
#920 = CARTESIAN_POINT ( 'NONE',  ( 0.3106601717797999873, 0.7500000000000000000, 1.060660171779999938 ) ) ;
#921 = CARTESIAN_POINT ( 'NONE',  ( 1.385905989226448920, 0.000000000000000000, 0.5742886780809780545 ) ) ;
#922 = VERTEX_POINT ( 'NONE', #744 ) ;
#923 = EDGE_CURVE ( 'NONE', #332, #922, #406, .T. ) ;
#924 = VERTEX_POINT ( 'NONE', #975 ) ;
#925 = DIRECTION ( 'NONE',  ( 0.000000000000000000, 0.000000000000000000, 1.000000000000000000 ) ) ;
#926 = AXIS2_PLACEMENT_3D ( 'NONE', #100, #17, #346 ) ;
#927 = CARTESIAN_POINT ( 'NONE',  ( -1.500000000000000000, 0.000000000000000000, 0.000000000000000000 ) ) ;
#928 = DIRECTION ( 'NONE',  ( -0.000000000000000000, 1.000000000000000000, 0.000000000000000000 ) ) ;
#929 = VERTEX_POINT ( 'NONE', #562 ) ;
#930 = EDGE_CURVE ( 'NONE', #715, #458, #246, .T. ) ;
#931 = DIRECTION ( 'NONE',  ( 0.000000000000000000, 1.000000000000000000, 0.000000000000000000 ) ) ;
#932 = CIRCLE ( 'NONE', #57, 1.249999999970441422 ) ;
#933 = DIRECTION ( 'NONE',  ( 0.000000000000000000, -1.000000000000000000, 0.000000000000000000 ) ) ;
#934 = ORIENTED_EDGE ( 'NONE', *, *, #724, .T. ) ;
#935 = VERTEX_POINT ( 'NONE', #56 ) ;
#936 = FACE_OUTER_BOUND ( 'NONE', #133, .T. ) ;
#937 = CARTESIAN_POINT ( 'NONE',  ( -1.060660171779999938, 0.7500000000000000000, 0.3106601717797999873 ) ) ;
#938 = ORIENTED_EDGE ( 'NONE', *, *, #426, .F. ) ;
#939 = VERTEX_POINT ( 'NONE', #904 ) ;
#940 = DIRECTION ( 'NONE',  ( -0.000000000000000000, -1.000000000000000000, -0.000000000000000000 ) ) ;
#941 = CARTESIAN_POINT ( 'NONE',  ( 1.060660171779999938, 1.500000000000000000, -1.060660171779999938 ) ) ;
#942 = EDGE_CURVE ( 'NONE', #803, #173, #302, .T. ) ;
#943 = DIRECTION ( 'NONE',  ( 0.000000000000000000, 0.000000000000000000, -1.000000000000000000 ) ) ;
#944 = AXIS2_PLACEMENT_3D ( 'NONE', #235, #577, #655 ) ;
#945 = VERTEX_POINT ( 'NONE', #389 ) ;
#946 = DIRECTION ( 'NONE',  ( -0.000000000000000000, 0.000000000000000000, 1.000000000000000000 ) ) ;
#947 = LINE ( 'NONE', #690, #518 ) ;
#948 = CARTESIAN_POINT ( 'NONE',  ( 1.318643257891411569, -0.000000000000000000, -0.7444064871679851869 ) ) ;
#949 = AXIS2_PLACEMENT_3D ( 'NONE', #364, #709, #943 ) ;
#950 = VERTEX_POINT ( 'NONE', #734 ) ;
#951 = DIRECTION ( 'NONE',  ( 8.659560562354932858E-17, 0.7071067811865474617, -0.7071067811865474617 ) ) ;
#952 = CARTESIAN_POINT ( 'NONE',  ( 1.722205056800827139, 1.500000000000000000, -0.3106601717797999873 ) ) ;
#953 = DIRECTION ( 'NONE',  ( 0.000000000000000000, -1.000000000000000000, 0.000000000000000000 ) ) ;
#954 = ORIENTED_EDGE ( 'NONE', *, *, #1011, .T. ) ;
#955 = ADVANCED_FACE ( 'NONE', ( #750 ), #661, .F. ) ;
#956 = CARTESIAN_POINT ( 'NONE',  ( 0.000000000000000000, -3.250000000000000444, 0.000000000000000000 ) ) ;
#957 = DIRECTION ( 'NONE',  ( 0.000000000000000000, -1.000000000000000000, 0.000000000000000000 ) ) ;
#958 = DIRECTION ( 'NONE',  ( 0.000000000000000000, -1.000000000000000000, 0.000000000000000000 ) ) ;
#959 = ORIENTED_EDGE ( 'NONE', *, *, #515, .T. ) ;
#960 = EDGE_CURVE ( 'NONE', #377, #473, #211, .T. ) ;
#961 = CARTESIAN_POINT ( 'NONE',  ( -1.060660171779999938, 1.500000000000000000, -0.3106601717797999318 ) ) ;
#962 = CARTESIAN_POINT ( 'NONE',  ( -0.09519741280727822552, -0.000000000000000000, -1.500033662297818315 ) ) ;
#963 = VECTOR ( 'NONE', #292, 1000.000000000000000 ) ;
#964 = VERTEX_POINT ( 'NONE', #307 ) ;
#965 = APPLICATION_CONTEXT ( 'automotive_design' ) ;
#966 = CIRCLE ( 'NONE', #236, 1.750000000000000000 ) ;
#967 = CYLINDRICAL_SURFACE ( 'NONE', #822, 1.250000000000000000 ) ;
#968 = ADVANCED_FACE ( 'NONE', ( #139 ), #641, .T. ) ;
#969 = DIRECTION ( 'NONE',  ( 0.000000000000000000, -0.000000000000000000, -1.000000000000000000 ) ) ;
#970 = EDGE_LOOP ( 'NONE', ( #682, #779, #1019, #314 ) ) ;
#971 = DIRECTION ( 'NONE',  ( 0.000000000000000000, 1.000000000000000000, 1.445602896736305170E-16 ) ) ;
#972 = CARTESIAN_POINT ( 'NONE',  ( 1.060660171779999938, 0.7500000000000000000, -0.3106601717799998830 ) ) ;
#973 = CYLINDRICAL_SURFACE ( 'NONE', #636, 0.7500000000000000000 ) ;
#974 = ORIENTED_EDGE ( 'NONE', *, *, #765, .F. ) ;
#975 = CARTESIAN_POINT ( 'NONE',  ( -1.060660171779999938, 0.7500000000000000000, 0.3106601717798999074 ) ) ;
#976 = VECTOR ( 'NONE', #946, 1000.000000000000000 ) ;
#977 = PRODUCT_DEFINITION_FORMATION_WITH_SPECIFIED_SOURCE ( 'å¯', '', #611, .NOT_KNOWN. ) ;
#978 = DIRECTION ( 'NONE',  ( -0.000000000000000000, 1.000000000000000000, -0.000000000000000000 ) ) ;
#979 = LINE ( 'NONE', #937, #539 ) ;
#980 = APPLICATION_PROTOCOL_DEFINITION ( 'draft international standard', 'automotive_design', 1998, #965 ) ;
#981 = VERTEX_POINT ( 'NONE', #43 ) ;
#982 = DIRECTION ( 'NONE',  ( 0.000000000000000000, 1.000000000000000000, 1.445602896736305170E-16 ) ) ;
#983 = AXIS2_PLACEMENT_3D ( 'NONE', #14, #695, #18 ) ;
#984 = ORIENTED_EDGE ( 'NONE', *, *, #632, .T. ) ;
#985 = VECTOR ( 'NONE', #978, 1000.000000000000000 ) ;
#986 = AXIS2_PLACEMENT_3D ( 'NONE', #993, #228, #909 ) ;
#987 =( NAMED_UNIT ( * ) PLANE_ANGLE_UNIT ( ) SI_UNIT ( $, .RADIAN. ) );
#988 = DIRECTION ( 'NONE',  ( -0.000000000000000000, 0.000000000000000000, -1.000000000000000000 ) ) ;
#989 = VERTEX_POINT ( 'NONE', #400 ) ;
#990 = LINE ( 'NONE', #382, #817 ) ;
#991 = ADVANCED_FACE ( 'NONE', ( #919 ), #159, .T. ) ;
#992 = DIRECTION ( 'NONE',  ( 0.000000000000000000, 0.000000000000000000, 1.000000000000000000 ) ) ;
#993 = CARTESIAN_POINT ( 'NONE',  ( -1.060660171779999938, 0.7500000000000000000, 1.060660171779999938 ) ) ;
#994 = VERTEX_POINT ( 'NONE', #146 ) ;
#995 = PLANE ( 'NONE',  #1097 ) ;
#996 = EDGE_CURVE ( 'NONE', #473, #212, #990, .T. ) ;
#997 = CIRCLE ( 'NONE', #122, 1.500000000000000000 ) ;
#998 = LINE ( 'NONE', #1015, #182 ) ;
#999 = CARTESIAN_POINT ( 'NONE',  ( 0.000000000000000000, 0.7500000000000000000, 0.000000000000000000 ) ) ;
#1000 = ORIENTED_EDGE ( 'NONE', *, *, #760, .F. ) ;
#1001 = DIRECTION ( 'NONE',  ( 0.000000000000000000, -1.000000000000000000, 0.000000000000000000 ) ) ;
#1002 = AXIS2_PLACEMENT_3D ( 'NONE', #782, #881, #352 ) ;
#1003 = CARTESIAN_POINT ( 'NONE',  ( 1.530808498934191571E-16, -3.500000000000000000, -1.250000000000000000 ) ) ;
#1004 = VECTOR ( 'NONE', #30, 1000.000000000000000 ) ;
#1005 = DIRECTION ( 'NONE',  ( 0.000000000000000000, -0.000000000000000000, -1.000000000000000000 ) ) ;
#1006 = ADVANCED_FACE ( 'NONE', ( #486 ), #224, .T. ) ;
#1007 = LINE ( 'NONE', #749, #702 ) ;
#1008 = ORIENTED_EDGE ( 'NONE', *, *, #104, .F. ) ;
#1009 = DIRECTION ( 'NONE',  ( 0.000000000000000000, -1.000000000000000000, 0.000000000000000000 ) ) ;
#1010 = CARTESIAN_POINT ( 'NONE',  ( 0.5281090114896602739, 0.000000000000000000, 1.404187350806421541 ) ) ;
#1011 = EDGE_CURVE ( 'NONE', #929, #922, #828, .T. ) ;
#1012 = FACE_OUTER_BOUND ( 'NONE', #179, .T. ) ;
#1013 = DIRECTION ( 'NONE',  ( -1.000000000000000000, 0.000000000000000000, -0.000000000000000000 ) ) ;
#1014 = ORIENTED_EDGE ( 'NONE', *, *, #46, .T. ) ;
#1015 = CARTESIAN_POINT ( 'NONE',  ( 0.3106601717797999873, 0.7500000000000000000, -1.060660171779999938 ) ) ;
#1016 = VECTOR ( 'NONE', #551, 1000.000000000000000 ) ;
#1017 = CARTESIAN_POINT ( 'NONE',  ( 1.500000000000000444, -0.000000000000000000, 0.1909217996565236442 ) ) ;
#1018 = VERTEX_POINT ( 'NONE', #557 ) ;
#1019 = ORIENTED_EDGE ( 'NONE', *, *, #345, .F. ) ;
#1020 = CARTESIAN_POINT ( 'NONE',  ( 1.060660171779999938, 0.7500000000000000000, 0.3106601717797999318 ) ) ;
#1021 = VECTOR ( 'NONE', #342, 1000.000000000000000 ) ;
#1022 = CARTESIAN_POINT ( 'NONE',  ( -0.8692179112122293549, -0.000000000000000000, 1.230382299094581411 ) ) ;
#1023 = VERTEX_POINT ( 'NONE', #479 ) ;
#1024 = AXIS2_PLACEMENT_3D ( 'NONE', #463, #1063, #380 ) ;
#1025 = ORIENTED_EDGE ( 'NONE', *, *, #298, .T. ) ;
#1026 = DIRECTION ( 'NONE',  ( 0.000000000000000000, 0.000000000000000000, -1.000000000000000000 ) ) ;
#1027 = DIRECTION ( 'NONE',  ( -0.000000000000000000, 1.000000000000000000, -0.000000000000000000 ) ) ;
#1028 = CYLINDRICAL_SURFACE ( 'NONE', #756, 1.250000000000000000 ) ;
#1029 = ORIENTED_EDGE ( 'NONE', *, *, #606, .T. ) ;
#1030 = LINE ( 'NONE', #264, #856 ) ;
#1031 = CARTESIAN_POINT ( 'NONE',  ( 0.000000000000000000, 1.500000000000000000, 0.000000000000000000 ) ) ;
#1032 = PRODUCT_RELATED_PRODUCT_CATEGORY ( 'part', '', ( #611 ) ) ;
#1033 = VECTOR ( 'NONE', #679, 1000.000000000000000 ) ;
#1034 = CARTESIAN_POINT ( 'NONE',  ( -0.3106601717797999873, 1.500000000000000000, 0.000000000000000000 ) ) ;
#1035 = ORIENTED_EDGE ( 'NONE', *, *, #711, .T. ) ;
#1036 = DIRECTION ( 'NONE',  ( 0.000000000000000000, 0.000000000000000000, 1.000000000000000000 ) ) ;
#1037 = CARTESIAN_POINT ( 'NONE',  ( 0.000000000000000000, 1.500000000000000000, 0.000000000000000000 ) ) ;
#1038 = DIRECTION ( 'NONE',  ( 0.000000000000000000, -1.000000000000000000, 0.000000000000000000 ) ) ;
#1039 = VECTOR ( 'NONE', #492, 1000.000000000000000 ) ;
#1040 = ORIENTED_EDGE ( 'NONE', *, *, #13, .F. ) ;
#1041 = DIRECTION ( 'NONE',  ( 0.000000000000000000, 0.000000000000000000, 1.000000000000000000 ) ) ;
#1042 = DIRECTION ( 'NONE',  ( -0.000000000000000000, 1.000000000000000000, -0.000000000000000000 ) ) ;
#1043 = CARTESIAN_POINT ( 'NONE',  ( 0.000000000000000000, 1.500000000000000000, 0.000000000000000000 ) ) ;
#1044 = ADVANCED_FACE ( 'NONE', ( #1075 ), #310, .F. ) ;
#1045 = ORIENTED_EDGE ( 'NONE', *, *, #293, .T. ) ;
#1046 = DIRECTION ( 'NONE',  ( -0.000000000000000000, 1.000000000000000000, -0.000000000000000000 ) ) ;
#1047 = CARTESIAN_POINT ( 'NONE',  ( 0.3106601717798999074, 0.7500000000000000000, 1.060660171780000161 ) ) ;
#1048 = CARTESIAN_POINT ( 'NONE',  ( 0.6467502192729317478, -0.000000000000000000, -1.353739692867407252 ) ) ;
#1049 = VECTOR ( 'NONE', #477, 1000.000000000000000 ) ;
#1050 = ORIENTED_EDGE ( 'NONE', *, *, #529, .T. ) ;
#1051 = ADVANCED_FACE ( 'NONE', ( #67 ), #995, .F. ) ;
#1052 = CARTESIAN_POINT ( 'NONE',  ( 0.000000000000000000, 0.7500000000000000000, 0.000000000000000000 ) ) ;
#1053 = CARTESIAN_POINT ( 'NONE',  ( 1.206805882794639295, -0.000000000000000000, -0.9144094948220697905 ) ) ;
#1054 = ORIENTED_EDGE ( 'NONE', *, *, #79, .T. ) ;
#1055 = AXIS2_PLACEMENT_3D ( 'NONE', #663, #504, #329 ) ;
#1056 = AXIS2_PLACEMENT_3D ( 'NONE', #540, #1038, #10 ) ;
#1057 = EDGE_CURVE ( 'NONE', #667, #1061, #862, .T. ) ;
#1058 = CARTESIAN_POINT ( 'NONE',  ( 0.000000000000000000, -3.499999999974079401, -3.614007240111842981E-17 ) ) ;
#1059 = DIRECTION ( 'NONE',  ( -0.000000000000000000, 1.000000000000000000, -0.000000000000000000 ) ) ;
#1060 = VERTEX_POINT ( 'NONE', #587 ) ;
#1061 = VERTEX_POINT ( 'NONE', #732 ) ;
#1062 = DIRECTION ( 'NONE',  ( 0.000000000000000000, 0.000000000000000000, 1.000000000000000000 ) ) ;
#1063 = DIRECTION ( 'NONE',  ( 0.000000000000000000, -1.000000000000000000, 0.000000000000000000 ) ) ;
#1064 = ORIENTED_EDGE ( 'NONE', *, *, #232, .F. ) ;
#1065 = DIRECTION ( 'NONE',  ( 0.000000000000000000, 0.000000000000000000, -1.000000000000000000 ) ) ;
#1066 = CIRCLE ( 'NONE', #836, 0.7500000000000000000 ) ;
#1067 = CARTESIAN_POINT ( 'NONE',  ( 0.000000000000000000, 0.7500000000000000000, 0.000000000000000000 ) ) ;
#1068 = EDGE_CURVE ( 'NONE', #24, #381, #290, .T. ) ;
#1069 = APPLICATION_PROTOCOL_DEFINITION ( 'draft international standard', 'automotive_design', 1998, #494 ) ;
#1070 = ORIENTED_EDGE ( 'NONE', *, *, #117, .F. ) ;
#1071 = CARTESIAN_POINT ( 'NONE',  ( 0.000000000000000000, -3.250000000093677954, 1.499999999907686288 ) ) ;
#1072 = PLANE ( 'NONE',  #58 ) ;
#1073 = DIRECTION ( 'NONE',  ( 1.000000000000000000, 0.000000000000000000, 0.000000000000000000 ) ) ;
#1074 = ORIENTED_EDGE ( 'NONE', *, *, #960, .T. ) ;
#1075 = FACE_OUTER_BOUND ( 'NONE', #1081, .T. ) ;
#1076 = ADVANCED_FACE ( 'NONE', ( #814 ), #653, .T. ) ;
#1077 = DIRECTION ( 'NONE',  ( 0.000000000000000000, 1.000000000000000000, 0.000000000000000000 ) ) ;
#1078 = DIRECTION ( 'NONE',  ( 1.000000000000000000, 0.000000000000000000, 0.000000000000000000 ) ) ;
#1079 = ORIENTED_EDGE ( 'NONE', *, *, #426, .T. ) ;
#1080 = DIRECTION ( 'NONE',  ( 0.000000000000000000, 1.000000000000000000, 0.000000000000000000 ) ) ;
#1081 = EDGE_LOOP ( 'NONE', ( #450, #727, #959, #338 ) ) ;
#1082 = VECTOR ( 'NONE', #900, 1000.000000000000000 ) ;
#1083 = DIRECTION ( 'NONE',  ( 1.000000000000000000, 0.000000000000000000, -0.000000000000000000 ) ) ;
#1084 = CARTESIAN_POINT ( 'NONE',  ( -1.206805882794639295, -0.000000000000000000, 0.9144094948220697905 ) ) ;
#1085 = ORIENTED_EDGE ( 'NONE', *, *, #293, .F. ) ;
#1086 = DIRECTION ( 'NONE',  ( 0.000000000000000000, -1.000000000000000000, 0.000000000000000000 ) ) ;
#1087 = EDGE_LOOP ( 'NONE', ( #417, #899, #74, #623 ) ) ;
#1088 = DIRECTION ( 'NONE',  ( 0.000000000000000000, 0.000000000000000000, -1.000000000000000000 ) ) ;
#1089 = CARTESIAN_POINT ( 'NONE',  ( 0.4627962262102742752, -0.000000000000000000, 1.427074059136465678 ) ) ;
#1090 = FACE_BOUND ( 'NONE', #344, .T. ) ;
#1091 = ORIENTED_EDGE ( 'NONE', *, *, #760, .T. ) ;
#1092 = CARTESIAN_POINT ( 'NONE',  ( 0.3106601717797999318, 1.500000000000000000, -1.060660171779999938 ) ) ;
#1093 = CARTESIAN_POINT ( 'NONE',  ( -0.3751396643603206460, -0.000000000000000000, 1.464826579301639731 ) ) ;
#1094 = ORIENTED_EDGE ( 'NONE', *, *, #326, .T. ) ;
#1095 = EDGE_LOOP ( 'NONE', ( #510, #676, #223, #471 ) ) ;
#1096 = CARTESIAN_POINT ( 'NONE',  ( 1.530808498934191571E-16, 0.000000000000000000, -1.250000000000000000 ) ) ;
#1097 = AXIS2_PLACEMENT_3D ( 'NONE', #154, #230, #490 ) ;
#1098 = CARTESIAN_POINT ( 'NONE',  ( 0.000000000000000000, 0.7500000000000000000, 0.000000000000000000 ) ) ;
#1099 = EDGE_LOOP ( 'NONE', ( #1085, #528, #1091, #162 ) ) ;
#1100 = ADVANCED_FACE ( 'NONE', ( #721 ), #973, .T. ) ;
#1101 = EDGE_LOOP ( 'NONE', ( #681, #796 ) ) ;
ENDSEC;
END-ISO-10303-21;
