ISO-10303-21;
HEADER;
FILE_DESCRIPTION (( 'STEP AP214' ),
    '1' );
FILE_NAME ('FHS_M2_5X06_NYLOK.STEP',
    '2026-08-29T22:11:46',
    ( '' ),
    ( '' ),
    'SwSTEP 2.0',
    'SolidWorks 2023',
    '' );
FILE_SCHEMA (( 'AUTOMOTIVE_DESIGN' ));
ENDSEC;

DATA;
#1 = CARTESIAN_POINT ( 'NONE',  ( 1.249999999999999778, 0.000000000000000000, -0.07938721587846825356 ) ) ;
#2 = CIRCLE ( 'NONE', #352, 0.6250000000000000000 ) ;
#3 = VECTOR ( 'NONE', #9, 1000.000000000000000 ) ;
#4 = VECTOR ( 'NONE', #882, 1000.000000000000000 ) ;
#5 = ORIENTED_EDGE ( 'NONE', *, *, #629, .T. ) ;
#6 = CARTESIAN_POINT ( 'NONE',  ( 0.6202885519841512263, -0.000000000000000000, 1.098901979465352508 ) ) ;
#7 = CARTESIAN_POINT ( 'NONE',  ( 0.2588834764831999813, 1.449999999999999956, 1.477490895269200077 ) ) ;
#8 = PRODUCT_DEFINITION ( 'æ™', '', #330, #45 ) ;
#9 = DIRECTION ( 'NONE',  ( -1.000000000000000000, -0.000000000000000000, -0.000000000000000000 ) ) ;
#10 = ORIENTED_EDGE ( 'NONE', *, *, #66, .F. ) ;
#11 = CARTESIAN_POINT ( 'NONE',  ( 0.3856389984866322451, -0.000000000000000000, 1.189233106800172468 ) ) ;
#12 = CARTESIAN_POINT ( 'NONE',  ( 3.061616997868383141E-16, 1.449999999999999956, 2.500000000000000000 ) ) ;
#13 = ADVANCED_FACE ( 'NONE', ( #347 ), #49, .F. ) ;
#14 = DIRECTION ( 'NONE',  ( 0.000000000000000000, 0.000000000000000000, -1.000000000000000000 ) ) ;
#15 = CIRCLE ( 'NONE', #950, 1.500000000000000000 ) ;
#16 = ORIENTED_EDGE ( 'NONE', *, *, #667, .F. ) ;
#17 = DIRECTION ( 'NONE',  ( 0.000000000000000000, -1.000000000000000000, 0.000000000000000000 ) ) ;
#18 = CARTESIAN_POINT ( 'NONE',  ( -0.2588834764832338431, 0.7249999999999999778, 1.477490895269393922 ) ) ;
#19 = EDGE_CURVE ( 'NONE', #833, #148, #119, .T. ) ;
#20 = VECTOR ( 'NONE', #595, 1000.000000000000000 ) ;
#21 = AXIS2_PLACEMENT_3D ( 'NONE', #207, #42, #360 ) ;
#22 = ORIENTED_EDGE ( 'NONE', *, *, #990, .F. ) ;
#23 = CARTESIAN_POINT ( 'NONE',  ( 0.07930211262204962808, -0.000000000000000000, 1.250033650950642228 ) ) ;
#24 = AXIS2_PLACEMENT_3D ( 'NONE', #831, #1000, #58 ) ;
#25 = CARTESIAN_POINT ( 'NONE',  ( 0.000000000000000000, -4.325000000000000178, 0.000000000000000000 ) ) ;
#26 = DIRECTION ( 'NONE',  ( 0.000000000000000000, 0.000000000000000000, 1.000000000000000000 ) ) ;
#27 = VERTEX_POINT ( 'NONE', #811 ) ;
#28 = CARTESIAN_POINT ( 'NONE',  ( -1.477490895269388149, 0.7249999999999999778, -0.2588834764832670388 ) ) ;
#29 = CARTESIAN_POINT ( 'NONE',  ( 1.477490895269393922, 0.7249999999999999778, 0.2588834764832338986 ) ) ;
#30 = CARTESIAN_POINT ( 'NONE',  ( 0.000000000000000000, 1.249999999970441422, 0.000000000000000000 ) ) ;
#31 = CONICAL_SURFACE ( 'NONE', #674, 1.250000000027284841, 0.7853981632711295457 ) ;
#32 = EDGE_CURVE ( 'NONE', #943, #833, #109, .T. ) ;
#33 = VERTEX_POINT ( 'NONE', #507 ) ;
#34 = CARTESIAN_POINT ( 'NONE',  ( 0.8838834764831999813, 0.7249999999999999778, -0.2588834764831999813 ) ) ;
#35 = DIRECTION ( 'NONE',  ( 0.000000000000000000, -0.000000000000000000, -1.000000000000000000 ) ) ;
#36 = CIRCLE ( 'NONE', #857, 1.250000000000000000 ) ;
#37 = ORIENTED_EDGE ( 'NONE', *, *, #861, .F. ) ;
#38 = DIRECTION ( 'NONE',  ( 0.000000000000000000, -1.000000000000000000, 0.000000000000000000 ) ) ;
#39 = ORIENTED_EDGE ( 'NONE', *, *, #216, .F. ) ;
#40 = CARTESIAN_POINT ( 'NONE',  ( 0.000000000000000000, 1.750000000000000000, -1.250000000000000000 ) ) ;
#41 = DIRECTION ( 'NONE',  ( 0.000000000000000000, 1.000000000000000000, 0.000000000000000000 ) ) ;
#42 = DIRECTION ( 'NONE',  ( 1.000000000000000000, 0.000000000000000000, -0.000000000000000000 ) ) ;
#43 = CARTESIAN_POINT ( 'NONE',  ( 0.000000000000000000, 0.7249999999999999778, 0.000000000000000000 ) ) ;
#44 = ORIENTED_EDGE ( 'NONE', *, *, #342, .F. ) ;
#45 = PRODUCT_DEFINITION_CONTEXT ( 'detailed design', #353, 'design' ) ;
#46 = CARTESIAN_POINT ( 'NONE',  ( 0.2588834764831999813, 0.7249999999999999778, 1.477490895269200077 ) ) ;
#47 = CARTESIAN_POINT ( 'NONE',  ( -0.2588834764831999813, 0.7249999999999999778, -0.8838834764831999813 ) ) ;
#48 = EDGE_CURVE ( 'NONE', #114, #182, #913, .T. ) ;
#49 = CYLINDRICAL_SURFACE ( 'NONE', #417, 1.500000000000000000 ) ;
#50 =( LENGTH_UNIT ( ) NAMED_UNIT ( * ) SI_UNIT ( .MILLI., .METRE. ) );
#51 = ORIENTED_EDGE ( 'NONE', *, *, #975, .T. ) ;
#52 = AXIS2_PLACEMENT_3D ( 'NONE', #71, #938, #536 ) ;
#53 = CARTESIAN_POINT ( 'NONE',  ( 0.000000000000000000, 1.249999999913598003, 0.000000000000000000 ) ) ;
#54 = CARTESIAN_POINT ( 'NONE',  ( -1.477490895269000237, 0.7249999999999999778, -0.2588834764831999813 ) ) ;
#55 = ADVANCED_FACE ( 'NONE', ( #821 ), #746, .F. ) ;
#56 = ORIENTED_EDGE ( 'NONE', *, *, #169, .T. ) ;
#57 = CARTESIAN_POINT ( 'NONE',  ( -0.8838834764831999813, 0.7249999999999999778, 0.2588834764831999813 ) ) ;
#58 = DIRECTION ( 'NONE',  ( 0.000000000000000000, 0.000000000000000000, -1.000000000000000000 ) ) ;
#59 = CIRCLE ( 'NONE', #809, 1.025000000026921043 ) ;
#60 = ADVANCED_FACE ( 'NONE', ( #517 ), #84, .T. ) ;
#61 = ORIENTED_EDGE ( 'NONE', *, *, #325, .T. ) ;
#62 = CARTESIAN_POINT ( 'NONE',  ( 0.8838834764832000923, 0.7249999999999999778, -0.2588834764831999813 ) ) ;
#63 = CARTESIAN_POINT ( 'NONE',  ( 0.000000000000000000, 1.449999999999999956, 0.000000000000000000 ) ) ;
#64 = ORIENTED_EDGE ( 'NONE', *, *, #136, .F. ) ;
#65 = CARTESIAN_POINT ( 'NONE',  ( 0.2588834764831999813, 1.449999999999999956, 0.8838834764832000923 ) ) ;
#66 = EDGE_CURVE ( 'NONE', #540, #76, #538, .T. ) ;
#67 = VECTOR ( 'NONE', #845, 1000.000000000000000 ) ;
#68 = CARTESIAN_POINT ( 'NONE',  ( 1.098901979465482182, -0.000000000000000000, -0.6202885519839868023 ) ) ;
#69 = DIRECTION ( 'NONE',  ( -0.000000000000000000, 1.000000000000000000, -0.000000000000000000 ) ) ;
#70 = EDGE_LOOP ( 'NONE', ( #391, #901, #473, #736 ) ) ;
#71 = CARTESIAN_POINT ( 'NONE',  ( 0.000000000000000000, 0.7249999999999999778, 0.000000000000000000 ) ) ;
#72 = VECTOR ( 'NONE', #634, 1000.000000000000000 ) ;
#73 = EDGE_CURVE ( 'NONE', #943, #653, #528, .T. ) ;
#74 = DIRECTION ( 'NONE',  ( 1.243449787580175325E-14, 0.000000000000000000, -1.000000000000000000 ) ) ;
#75 = AXIS2_PLACEMENT_3D ( 'NONE', #351, #796, #800 ) ;
#76 = VERTEX_POINT ( 'NONE', #1017 ) ;
#77 = DIRECTION ( 'NONE',  ( -0.000000000000000000, 1.000000000000000000, -0.000000000000000000 ) ) ;
#78 = DIRECTION ( 'NONE',  ( 0.000000000000000000, 0.000000000000000000, -1.000000000000000000 ) ) ;
#79 = SURFACE_STYLE_USAGE ( .BOTH. , #160 ) ;
#80 = EDGE_CURVE ( 'NONE', #686, #132, #181, .T. ) ;
#81 = ORIENTED_EDGE ( 'NONE', *, *, #337, .T. ) ;
#82 = DIRECTION ( 'NONE',  ( 0.000000000000000000, 1.000000000000000000, 0.000000000000000000 ) ) ;
#83 = CARTESIAN_POINT ( 'NONE',  ( 0.000000000000000000, -4.325000000000000178, 1.249999999964802599 ) ) ;
#84 = CYLINDRICAL_SURFACE ( 'NONE', #726, 1.250000000000000000 ) ;
#85 = CONICAL_SURFACE ( 'NONE', #818, 2.499999999884039426, 0.7853981633974482790 ) ;
#86 = ORIENTED_EDGE ( 'NONE', *, *, #143, .T. ) ;
#87 = CARTESIAN_POINT ( 'NONE',  ( -0.4785488709733510815, 0.000000000000000000, 1.154930107423069563 ) ) ;
#88 = CARTESIAN_POINT ( 'NONE',  ( -0.7620405893242545581, -0.000000000000000000, -1.005621433373400153 ) ) ;
#89 = FILL_AREA_STYLE ('',( #832 ) ) ;
#90 = AXIS2_PLACEMENT_3D ( 'NONE', #709, #1003, #389 ) ;
#91 = ORIENTED_EDGE ( 'NONE', *, *, #295, .F. ) ;
#92 = CARTESIAN_POINT ( 'NONE',  ( -0.3126745147842615591, -0.000000000000000000, 1.220677527567786358 ) ) ;
#93 = ADVANCED_FACE ( 'NONE', ( #632 ), #476, .T. ) ;
#94 = CARTESIAN_POINT ( 'NONE',  ( 0.2588834764831999813, 0.7249999999999999778, 0.8838834764832000923 ) ) ;
#95 = CARTESIAN_POINT ( 'NONE',  ( 0.000000000000000000, -4.549999999994724931, 1.025000000026921043 ) ) ;
#96 = EDGE_LOOP ( 'NONE', ( #322, #983, #763, #604, #558, #51, #258, #237, #906, #741, #712, #190, #313, #127, #707, #283, #777 ) ) ;
#97 = CARTESIAN_POINT ( 'NONE',  ( 0.000000000000000000, 1.249999999913598003, 0.000000000000000000 ) ) ;
#98 = LINE ( 'NONE', #410, #153 ) ;
#99 = ADVANCED_FACE ( 'NONE', ( #705 ), #326, .F. ) ;
#100 = DIRECTION ( 'NONE',  ( -0.000000000000000000, 1.000000000000000000, -0.000000000000000000 ) ) ;
#101 = CIRCLE ( 'NONE', #346, 2.500000000000000000 ) ;
#102 = ORIENTED_EDGE ( 'NONE', *, *, #546, .T. ) ;
#103 = CARTESIAN_POINT ( 'NONE',  ( 0.000000000000000000, 0.000000000000000000, 1.024999999999999911 ) ) ;
#104 = DIRECTION ( 'NONE',  ( 0.000000000000000000, -1.000000000000000000, 0.000000000000000000 ) ) ;
#105 = CIRCLE ( 'NONE', #217, 1.250000000000000000 ) ;
#106 = EDGE_LOOP ( 'NONE', ( #837, #438, #293, #37 ) ) ;
#107 = CARTESIAN_POINT ( 'NONE',  ( 0.8838834764831999813, 1.449999999999999956, -0.8838834764831999813 ) ) ;
#108 = EDGE_CURVE ( 'NONE', #553, #157, #660, .T. ) ;
#109 = LINE ( 'NONE', #735, #388 ) ;
#110 = ORIENTED_EDGE ( 'NONE', *, *, #642, .F. ) ;
#111 = DIRECTION ( 'NONE',  ( 0.000000000000000000, 0.000000000000000000, 1.000000000000000000 ) ) ;
#112 = DIRECTION ( 'NONE',  ( -0.000000000000000000, -1.000000000000000000, -0.000000000000000000 ) ) ;
#113 = CONICAL_SURFACE ( 'NONE', #691, 1.250000000027284841, 0.7853981632711295457 ) ;
#114 = VERTEX_POINT ( 'NONE', #715 ) ;
#115 = CARTESIAN_POINT ( 'NONE',  ( -1.477490895269000237, 0.7249999999999999778, -0.2588834764831999813 ) ) ;
#116 = CARTESIAN_POINT ( 'NONE',  ( 1.250000000000000000, 0.000000000000000000, 0.000000000000000000 ) ) ;
#117 = CIRCLE ( 'NONE', #889, 1.024999999999999911 ) ;
#118 = ORIENTED_EDGE ( 'NONE', *, *, #73, .F. ) ;
#119 = CIRCLE ( 'NONE', #791, 2.499999999940882844 ) ;
#120 = ORIENTED_EDGE ( 'NONE', *, *, #713, .F. ) ;
#121 = VECTOR ( 'NONE', #104, 1000.000000000000000 ) ;
#122 = DIRECTION ( 'NONE',  ( 0.000000000000000000, 0.000000000000000000, -1.000000000000000000 ) ) ;
#123 = EDGE_CURVE ( 'NONE', #608, #212, #385, .T. ) ;
#124 = DIRECTION ( 'NONE',  ( 0.000000000000000000, -1.000000000000000000, 0.000000000000000000 ) ) ;
#125 = ORIENTED_EDGE ( 'NONE', *, *, #969, .T. ) ;
#126 = DIRECTION ( 'NONE',  ( 0.000000000000000000, 0.000000000000000000, -1.000000000000000000 ) ) ;
#127 = ORIENTED_EDGE ( 'NONE', *, *, #319, .T. ) ;
#128 = LINE ( 'NONE', #40, #415 ) ;
#129 = EDGE_CURVE ( 'NONE', #368, #584, #955, .T. ) ;
#130 = LINE ( 'NONE', #451, #875 ) ;
#131 =( NAMED_UNIT ( * ) PLANE_ANGLE_UNIT ( ) SI_UNIT ( $, .RADIAN. ) );
#132 = VERTEX_POINT ( 'NONE', #241 ) ;
#133 = AXIS2_PLACEMENT_3D ( 'NONE', #223, #238, #466 ) ;
#134 = DIRECTION ( 'NONE',  ( 0.000000000000000000, -1.000000000000000000, 0.000000000000000000 ) ) ;
#135 = DIRECTION ( 'NONE',  ( 0.000000000000000000, 0.000000000000000000, -1.000000000000000000 ) ) ;
#136 = EDGE_CURVE ( 'NONE', #254, #962, #701, .T. ) ;
#137 = CONICAL_SURFACE ( 'NONE', #402, 2.499999999884039426, 0.7853981633974482790 ) ;
#138 = ORIENTED_EDGE ( 'NONE', *, *, #424, .T. ) ;
#139 = CARTESIAN_POINT ( 'NONE',  ( 0.2588834764831999258, 1.449999999999999956, -0.8838834764831999813 ) ) ;
#140 = STYLED_ITEM ( 'NONE', ( #405 ), #672 ) ;
#141 = VECTOR ( 'NONE', #810, 1000.000000000000000 ) ;
#142 = CARTESIAN_POINT ( 'NONE',  ( -0.8838834764831999813, 1.449999999999999956, 0.8838834764831999813 ) ) ;
#143 = EDGE_CURVE ( 'NONE', #540, #970, #394, .T. ) ;
#144 = APPLICATION_CONTEXT ( 'automotive_design' ) ;
#145 = ORIENTED_EDGE ( 'NONE', *, *, #688, .F. ) ;
#146 = CARTESIAN_POINT ( 'NONE',  ( 1.530808498891087225E-16, -4.325000000000000178, -1.249999999964802599 ) ) ;
#147 = CARTESIAN_POINT ( 'NONE',  ( 1.239029422041004747, -0.000000000000000000, -0.1964424261563620933 ) ) ;
#148 = VERTEX_POINT ( 'NONE', #723 ) ;
#149 = PLANE ( 'NONE',  #133 ) ;
#150 = CARTESIAN_POINT ( 'NONE',  ( -1.250000000000000000, 0.000000000000000000, 0.000000000000000000 ) ) ;
#151 = ORIENTED_EDGE ( 'NONE', *, *, #488, .T. ) ;
#152 = DIRECTION ( 'NONE',  ( 1.000000000000000000, 0.000000000000000000, 0.000000000000000000 ) ) ;
#153 = VECTOR ( 'NONE', #256, 1000.000000000000000 ) ;
#154 = DIRECTION ( 'NONE',  ( 0.000000000000000000, 0.000000000000000000, -1.000000000000000000 ) ) ;
#155 = ADVANCED_FACE ( 'NONE', ( #641 ), #167, .T. ) ;
#156 = CARTESIAN_POINT ( 'NONE',  ( 0.000000000000000000, 1.750000000000000000, 0.000000000000000000 ) ) ;
#157 = VERTEX_POINT ( 'NONE', #894 ) ;
#158 = CARTESIAN_POINT ( 'NONE',  ( -1.250000000000000000, 0.000000000000000000, 0.000000000000000000 ) ) ;
#159 = DIRECTION ( 'NONE',  ( -0.000000000000000000, 1.000000000000000000, -0.000000000000000000 ) ) ;
#160 = SURFACE_SIDE_STYLE ('',( #862 ) ) ;
#161 = ORIENTED_EDGE ( 'NONE', *, *, #275, .F. ) ;
#162 = CARTESIAN_POINT ( 'NONE',  ( 0.5965246171912229611, -0.000000000000000000, -1.100119322146912548 ) ) ;
#163 = EDGE_LOOP ( 'NONE', ( #698, #788, #5, #891 ) ) ;
#164 = CARTESIAN_POINT ( 'NONE',  ( 1.100119322146941192, -0.000000000000000000, 0.5965246171911716688 ) ) ;
#165 = CARTESIAN_POINT ( 'NONE',  ( -0.8838834764831999813, 1.449999999999999956, -0.8838834764831999813 ) ) ;
#166 = AXIS2_PLACEMENT_3D ( 'NONE', #115, #278, #605 ) ;
#167 = PLANE ( 'NONE',  #75 ) ;
#168 = AXIS2_PLACEMENT_3D ( 'NONE', #550, #227, #542 ) ;
#169 = EDGE_CURVE ( 'NONE', #27, #827, #562, .T. ) ;
#170 = VERTEX_POINT ( 'NONE', #95 ) ;
#171 = CARTESIAN_POINT ( 'NONE',  ( 1.477490895269393922, 1.449999999999999956, 0.2588834764832338986 ) ) ;
#172 = CARTESIAN_POINT ( 'NONE',  ( 0.2588834764831999813, 0.7249999999999999778, -0.8838834764831999813 ) ) ;
#173 = ORIENTED_EDGE ( 'NONE', *, *, #418, .T. ) ;
#174 = DIRECTION ( 'NONE',  ( 0.000000000000000000, -1.000000000000000000, 0.000000000000000000 ) ) ;
#175 = CARTESIAN_POINT ( 'NONE',  ( 1.255262969126036846E-16, -4.549999999999999822, -1.024999999999999911 ) ) ;
#176 = AXIS2_PLACEMENT_3D ( 'NONE', #382, #618, #933 ) ;
#177 = ORIENTED_EDGE ( 'NONE', *, *, #108, .F. ) ;
#178 = DIRECTION ( 'NONE',  ( -0.000000000000000000, -1.000000000000000000, -0.000000000000000000 ) ) ;
#179 = LINE ( 'NONE', #494, #141 ) ;
#180 = VECTOR ( 'NONE', #808, 1000.000000000000000 ) ;
#181 = CIRCLE ( 'NONE', #994, 1.500000000000000000 ) ;
#182 = VERTEX_POINT ( 'NONE', #18 ) ;
#183 = CARTESIAN_POINT ( 'NONE',  ( 0.000000000000000000, 1.449999999999999956, 0.000000000000000000 ) ) ;
#184 = CIRCLE ( 'NONE', #628, 1.500000000000000000 ) ;
#185 = ORIENTED_EDGE ( 'NONE', *, *, #488, .F. ) ;
#186 = CYLINDRICAL_SURFACE ( 'NONE', #268, 1.500000000000000000 ) ;
#187 = PLANE ( 'NONE',  #560 ) ;
#188 = ADVANCED_FACE ( 'NONE', ( #648 ), #187, .F. ) ;
#189 = ORIENTED_EDGE ( 'NONE', *, *, #472, .F. ) ;
#190 = ORIENTED_EDGE ( 'NONE', *, *, #231, .T. ) ;
#191 = DIRECTION ( 'NONE',  ( 0.000000000000000000, 0.000000000000000000, -1.000000000000000000 ) ) ;
#192 = DIRECTION ( 'NONE',  ( -0.000000000000000000, 1.000000000000000000, -0.000000000000000000 ) ) ;
#193 = ORIENTED_EDGE ( 'NONE', *, *, #786, .F. ) ;
#194 = ADVANCED_FACE ( 'NONE', ( #720 ), #738, .F. ) ;
#195 = DIRECTION ( 'NONE',  ( 0.000000000000000000, 1.000000000000000000, 0.000000000000000000 ) ) ;
#196 = ORIENTED_EDGE ( 'NONE', *, *, #143, .F. ) ;
#197 = LINE ( 'NONE', #659, #839 ) ;
#198 = LINE ( 'NONE', #755, #826 ) ;
#199 = AXIS2_PLACEMENT_3D ( 'NONE', #899, #357, #191 ) ;
#200 = ORIENTED_EDGE ( 'NONE', *, *, #312, .T. ) ;
#201 = DIRECTION ( 'NONE',  ( 0.000000000000000000, 0.000000000000000000, -1.000000000000000000 ) ) ;
#202 = EDGE_CURVE ( 'NONE', #896, #683, #572, .T. ) ;
#203 = ORIENTED_EDGE ( 'NONE', *, *, #688, .T. ) ;
#204 = AXIS2_PLACEMENT_3D ( 'NONE', #63, #380, #900 ) ;
#205 = CARTESIAN_POINT ( 'NONE',  ( -1.477490895269393922, 0.7249999999999999778, -0.2588834764832335100 ) ) ;
#206 = DIRECTION ( 'NONE',  ( -1.000000000000000000, 0.000000000000000000, -0.000000000000000000 ) ) ;
#207 = CARTESIAN_POINT ( 'NONE',  ( 0.2588834764831999813, 0.7249999999999999778, 0.8838834764831999813 ) ) ;
#208 = EDGE_LOOP ( 'NONE', ( #308, #22 ) ) ;
#209 = DIRECTION ( 'NONE',  ( 0.000000000000000000, 0.000000000000000000, -1.000000000000000000 ) ) ;
#210 = CARTESIAN_POINT ( 'NONE',  ( -0.2588834764831999813, 1.449999999999999956, -1.477490895269200077 ) ) ;
#211 = EDGE_CURVE ( 'NONE', #593, #157, #729, .T. ) ;
#212 = VERTEX_POINT ( 'NONE', #29 ) ;
#213 = VECTOR ( 'NONE', #152, 1000.000000000000000 ) ;
#214 = FACE_OUTER_BOUND ( 'NONE', #225, .T. ) ;
#215 = LINE ( 'NONE', #988, #253 ) ;
#216 = EDGE_CURVE ( 'NONE', #863, #33, #556, .T. ) ;
#217 = AXIS2_PLACEMENT_3D ( 'NONE', #25, #722, #324 ) ;
#218 = ORIENTED_EDGE ( 'NONE', *, *, #847, .T. ) ;
#219 = DIRECTION ( 'NONE',  ( 1.000000000000000000, 0.000000000000000000, -0.000000000000000000 ) ) ;
#220 = VECTOR ( 'NONE', #976, 1000.000000000000000 ) ;
#221 = CARTESIAN_POINT ( 'NONE',  ( -0.2588834764832338431, 1.449999999999999956, 1.477490895269393922 ) ) ;
#222 = ORIENTED_EDGE ( 'NONE', *, *, #843, .T. ) ;
#223 = CARTESIAN_POINT ( 'NONE',  ( 0.000000000000000000, 1.449999999999999956, 0.000000000000000000 ) ) ;
#224 = CARTESIAN_POINT ( 'NONE',  ( 0.1586042252440992284, -0.000000000000000000, -1.249932698098715544 ) ) ;
#225 = EDGE_LOOP ( 'NONE', ( #797, #262, #138, #373 ) ) ;
#226 = DIRECTION ( 'NONE',  ( 0.000000000000000000, 0.000000000000000000, 1.000000000000000000 ) ) ;
#227 = DIRECTION ( 'NONE',  ( -0.000000000000000000, 1.000000000000000000, -0.000000000000000000 ) ) ;
#228 = DIRECTION ( 'NONE',  ( 0.000000000000000000, 0.000000000000000000, -1.000000000000000000 ) ) ;
#229 = ORIENTED_EDGE ( 'NONE', *, *, #295, .T. ) ;
#230 = PLANE ( 'NONE',  #571 ) ;
#231 = EDGE_CURVE ( 'NONE', #426, #490, #954, .T. ) ;
#232 = AXIS2_PLACEMENT_3D ( 'NONE', #814, #260, #111 ) ;
#233 = CARTESIAN_POINT ( 'NONE',  ( -0.2588834764831999258, 1.449999999999999956, 0.8838834764831999813 ) ) ;
#234 = AXIS2_PLACEMENT_3D ( 'NONE', #552, #625, #695 ) ;
#235 = CARTESIAN_POINT ( 'NONE',  ( -0.8838834764831999813, 0.7249999999999999778, -0.2588834764831999813 ) ) ;
#236 = VECTOR ( 'NONE', #345, 1000.000000000000000 ) ;
#237 = ORIENTED_EDGE ( 'NONE', *, *, #430, .F. ) ;
#238 = DIRECTION ( 'NONE',  ( 0.000000000000000000, -1.000000000000000000, 0.000000000000000000 ) ) ;
#239 = CARTESIAN_POINT ( 'NONE',  ( -0.07930211262204962808, -0.000000000000000000, -1.250033650950642228 ) ) ;
#240 = EDGE_CURVE ( 'NONE', #896, #649, #252, .T. ) ;
#241 = CARTESIAN_POINT ( 'NONE',  ( -1.477490895269393922, 0.7249999999999999778, 0.2588834764832337321 ) ) ;
#242 = VERTEX_POINT ( 'NONE', #485 ) ;
#243 = CARTESIAN_POINT ( 'NONE',  ( 0.9448049200626491562, -0.000000000000000000, 0.8230144980380765807 ) ) ;
#244 = CARTESIAN_POINT ( 'NONE',  ( -0.2588834764831999813, 0.7249999999999999778, -0.8838834764831999813 ) ) ;
#245 = DIRECTION ( 'NONE',  ( 0.000000000000000000, 0.000000000000000000, -1.000000000000000000 ) ) ;
#246 = AXIS2_PLACEMENT_3D ( 'NONE', #372, #437, #201 ) ;
#247 = EDGE_CURVE ( 'NONE', #1020, #873, #412, .T. ) ;
#248 = ORIENTED_EDGE ( 'NONE', *, *, #969, .F. ) ;
#249 = CARTESIAN_POINT ( 'NONE',  ( -1.098901979465482182, -0.000000000000000000, 0.6202885519839868023 ) ) ;
#250 = DIRECTION ( 'NONE',  ( 0.000000000000000000, 0.000000000000000000, 1.000000000000000000 ) ) ;
#251 = VECTOR ( 'NONE', #974, 1000.000000000000000 ) ;
#252 = LINE ( 'NONE', #877, #236 ) ;
#253 = VECTOR ( 'NONE', #442, 1000.000000000000000 ) ;
#254 = VERTEX_POINT ( 'NONE', #175 ) ;
#255 = CARTESIAN_POINT ( 'NONE',  ( -0.5000064583867158685, -0.000000000000000000, 1.145850069176785002 ) ) ;
#256 = DIRECTION ( 'NONE',  ( -0.000000000000000000, -1.000000000000000000, 0.000000000000000000 ) ) ;
#257 = CARTESIAN_POINT ( 'NONE',  ( 0.8838834764832000923, 0.7249999999999999778, -0.2588834764832000368 ) ) ;
#258 = ORIENTED_EDGE ( 'NONE', *, *, #667, .T. ) ;
#259 = EDGE_CURVE ( 'NONE', #594, #148, #416, .T. ) ;
#260 = DIRECTION ( 'NONE',  ( -0.000000000000000000, -1.000000000000000000, -0.000000000000000000 ) ) ;
#261 = CARTESIAN_POINT ( 'NONE',  ( 1.530808498967605993E-16, -4.324999999937517714, -1.250000000027284841 ) ) ;
#262 = ORIENTED_EDGE ( 'NONE', *, *, #123, .F. ) ;
#263 = CARTESIAN_POINT ( 'NONE',  ( -0.7243921280129588247, -0.000000000000000000, 1.025289990227816084 ) ) ;
#264 = EDGE_LOOP ( 'NONE', ( #229, #771, #793, #317 ) ) ;
#265 = DIRECTION ( 'NONE',  ( 0.000000000000000000, -1.000000000000000000, 0.000000000000000000 ) ) ;
#266 = EDGE_CURVE ( 'NONE', #443, #182, #341, .T. ) ;
#267 = DIRECTION ( 'NONE',  ( -0.000000000000000000, -1.000000000000000000, -0.000000000000000000 ) ) ;
#268 = AXIS2_PLACEMENT_3D ( 'NONE', #500, #480, #876 ) ;
#269 = MECHANICAL_DESIGN_GEOMETRIC_PRESENTATION_REPRESENTATION (  '', ( #140 ), #775 ) ;
#270 = CARTESIAN_POINT ( 'NONE',  ( -0.2588834764831999813, 0.7249999999999999778, 1.477490895269000237 ) ) ;
#271 = DIRECTION ( 'NONE',  ( 0.000000000000000000, 0.000000000000000000, -1.000000000000000000 ) ) ;
#272 = VERTEX_POINT ( 'NONE', #888 ) ;
#273 = CYLINDRICAL_SURFACE ( 'NONE', #199, 0.6250000000000000000 ) ;
#274 = DIRECTION ( 'NONE',  ( 0.000000000000000000, 1.000000000000000000, 0.000000000000000000 ) ) ;
#275 = EDGE_CURVE ( 'NONE', #327, #426, #179, .T. ) ;
#276 = ORIENTED_EDGE ( 'NONE', *, *, #424, .F. ) ;
#277 = ORIENTED_EDGE ( 'NONE', *, *, #266, .F. ) ;
#278 = DIRECTION ( 'NONE',  ( 0.000000000000000000, 0.000000000000000000, -1.000000000000000000 ) ) ;
#279 = CARTESIAN_POINT ( 'NONE',  ( 0.000000000000000000, -4.549999999999999822, 0.000000000000000000 ) ) ;
#280 = ADVANCED_FACE ( 'NONE', ( #995 ), #447, .T. ) ;
#281 = EDGE_LOOP ( 'NONE', ( #663, #614, #914, #752 ) ) ;
#282 = APPLICATION_PROTOCOL_DEFINITION ( 'draft international standard', 'automotive_design', 1998, #144 ) ;
#283 = ORIENTED_EDGE ( 'NONE', *, *, #816, .T. ) ;
#284 = DIRECTION ( 'NONE',  ( 0.000000000000000000, 1.000000000000000000, 0.000000000000000000 ) ) ;
#285 = CARTESIAN_POINT ( 'NONE',  ( 0.000000000000000000, -4.549999999999999822, 0.000000000000000000 ) ) ;
#286 = CIRCLE ( 'NONE', #611, 2.500000000000000000 ) ;
#287 = DIRECTION ( 'NONE',  ( 8.659560562354932858E-17, 0.7071067811865474617, -0.7071067811865474617 ) ) ;
#288 = DIRECTION ( 'NONE',  ( 1.243449787580175325E-14, 0.000000000000000000, -1.000000000000000000 ) ) ;
#289 = VERTEX_POINT ( 'NONE', #116 ) ;
#290 = CIRCLE ( 'NONE', #204, 1.500000000000000000 ) ;
#291 = CYLINDRICAL_SURFACE ( 'NONE', #656, 1.500000000000000000 ) ;
#292 = CYLINDRICAL_SURFACE ( 'NONE', #842, 2.500000000000000000 ) ;
#293 = ORIENTED_EDGE ( 'NONE', *, *, #587, .T. ) ;
#294 = FACE_OUTER_BOUND ( 'NONE', #702, .T. ) ;
#295 = EDGE_CURVE ( 'NONE', #584, #898, #198, .T. ) ;
#296 = CARTESIAN_POINT ( 'NONE',  ( 1.477490895269200077, 0.7249999999999999778, -0.2588834764831999813 ) ) ;
#297 = EDGE_LOOP ( 'NONE', ( #10, #829, #766, #189, #481, #449, #508, #932, #276, #599, #951, #185, #564, #937, #333, #848, #928 ) ) ;
#298 = CIRCLE ( 'NONE', #176, 2.499999999940882844 ) ;
#299 = CARTESIAN_POINT ( 'NONE',  ( 0.000000000000000000, 1.449999999999999956, 0.2588834764831999813 ) ) ;
#300 = CARTESIAN_POINT ( 'NONE',  ( 1.176405706191740119, -0.000000000000000000, -0.4230411965020263176 ) ) ;
#301 = EDGE_CURVE ( 'NONE', #27, #170, #59, .T. ) ;
#302 = ORIENTED_EDGE ( 'NONE', *, *, #587, .F. ) ;
#303 = CARTESIAN_POINT ( 'NONE',  ( -0.8838834764831999813, 1.449999999999999956, 0.2588834764831999813 ) ) ;
#304 = AXIS2_PLACEMENT_3D ( 'NONE', #917, #370, #673 ) ;
#305 = CARTESIAN_POINT ( 'NONE',  ( -0.2588834764831999813, 0.7249999999999999778, -1.477490895269200077 ) ) ;
#306 = DIRECTION ( 'NONE',  ( 0.000000000000000000, -1.000000000000000000, 0.000000000000000000 ) ) ;
#307 = ADVANCED_FACE ( 'NONE', ( #905 ), #292, .T. ) ;
#308 = ORIENTED_EDGE ( 'NONE', *, *, #635, .F. ) ;
#309 = CARTESIAN_POINT ( 'NONE',  ( 0.2588834764831999813, 0.7249999999999999778, 0.8838834764831999813 ) ) ;
#310 = CARTESIAN_POINT ( 'NONE',  ( -1.154921657688708025, 0.000000000000000000, -0.4785701888325819553 ) ) ;
#311 = CARTESIAN_POINT ( 'NONE',  ( 0.000000000000000000, 0.000000000000000000, 0.000000000000000000 ) ) ;
#312 = EDGE_CURVE ( 'NONE', #272, #519, #130, .T. ) ;
#313 = ORIENTED_EDGE ( 'NONE', *, *, #961, .F. ) ;
#314 = DIRECTION ( 'NONE',  ( 4.440892098500626162E-15, 0.000000000000000000, -1.000000000000000000 ) ) ;
#315 = DIRECTION ( 'NONE',  ( -0.000000000000000000, 1.000000000000000000, -0.000000000000000000 ) ) ;
#316 = DIRECTION ( 'NONE',  ( 0.000000000000000000, 0.000000000000000000, -1.000000000000000000 ) ) ;
#317 = ORIENTED_EDGE ( 'NONE', *, *, #129, .T. ) ;
#318 = CARTESIAN_POINT ( 'NONE',  ( -1.189204713810568359, -0.000000000000000000, 0.3857108043592355484 ) ) ;
#319 = EDGE_CURVE ( 'NONE', #970, #686, #506, .T. ) ;
#320 = DIRECTION ( 'NONE',  ( -0.000000000000000000, 1.000000000000000000, -0.000000000000000000 ) ) ;
#321 = DIRECTION ( 'NONE',  ( 0.000000000000000000, 0.000000000000000000, -1.000000000000000000 ) ) ;
#322 = ORIENTED_EDGE ( 'NONE', *, *, #48, .T. ) ;
#323 = CARTESIAN_POINT ( 'NONE',  ( 0.7620405893242545581, -0.000000000000000000, 1.005621433373400153 ) ) ;
#324 = DIRECTION ( 'NONE',  ( 0.000000000000000000, 0.000000000000000000, -1.000000000000000000 ) ) ;
#325 = EDGE_CURVE ( 'NONE', #272, #254, #512, .T. ) ;
#326 = PLANE ( 'NONE',  #493 ) ;
#327 = VERTEX_POINT ( 'NONE', #210 ) ;
#328 = CARTESIAN_POINT ( 'NONE',  ( 1.220745125442679102, -0.000000000000000000, 0.3125039719104140135 ) ) ;
#329 = FACE_OUTER_BOUND ( 'NONE', #985, .T. ) ;
#330 = PRODUCT_DEFINITION_FORMATION_WITH_SPECIFIED_SOURCE ( 'å¯', '', #947, .NOT_KNOWN. ) ;
#331 = ADVANCED_FACE ( 'NONE', ( #510 ), #666, .F. ) ;
#332 = DIRECTION ( 'NONE',  ( -0.000000000000000000, -1.000000000000000000, -0.000000000000000000 ) ) ;
#333 = ORIENTED_EDGE ( 'NONE', *, *, #399, .F. ) ;
#334 = DIRECTION ( 'NONE',  ( 0.000000000000000000, 0.000000000000000000, -1.000000000000000000 ) ) ;
#335 = VECTOR ( 'NONE', #570, 1000.000000000000000 ) ;
#336 = AXIS2_PLACEMENT_3D ( 'NONE', #468, #320, #74 ) ;
#337 = EDGE_CURVE ( 'NONE', #653, #431, #376, .T. ) ;
#338 = ORIENTED_EDGE ( 'NONE', *, *, #654, .F. ) ;
#339 = CARTESIAN_POINT ( 'NONE',  ( 0.3293503164285235818, -0.000000000000000000, 1.207076069866652945 ) ) ;
#340 = DIRECTION ( 'NONE',  ( 0.000000000000000000, 0.000000000000000000, 1.000000000000000000 ) ) ;
#341 = LINE ( 'NONE', #652, #581 ) ;
#342 = EDGE_CURVE ( 'NONE', #461, #833, #215, .T. ) ;
#343 = ORIENTED_EDGE ( 'NONE', *, *, #73, .T. ) ;
#344 = LINE ( 'NONE', #871, #759 ) ;
#345 = DIRECTION ( 'NONE',  ( 0.000000000000000000, -0.000000000000000000, -1.000000000000000000 ) ) ;
#346 = AXIS2_PLACEMENT_3D ( 'NONE', #183, #38, #367 ) ;
#347 = FACE_OUTER_BOUND ( 'NONE', #281, .T. ) ;
#348 =( NAMED_UNIT ( * ) PLANE_ANGLE_UNIT ( ) SI_UNIT ( $, .RADIAN. ) );
#349 = ORIENTED_EDGE ( 'NONE', *, *, #635, .T. ) ;
#350 = CARTESIAN_POINT ( 'NONE',  ( 1.477490895269000237, 0.7249999999999999778, 0.2588834764831999813 ) ) ;
#351 = CARTESIAN_POINT ( 'NONE',  ( 0.000000000000000000, -4.549999999999999822, 0.000000000000000000 ) ) ;
#352 = AXIS2_PLACEMENT_3D ( 'NONE', #165, #265, #334 ) ;
#353 = APPLICATION_CONTEXT ( 'automotive_design' ) ;
#354 = ORIENTED_EDGE ( 'NONE', *, *, #502, .F. ) ;
#355 = FACE_OUTER_BOUND ( 'NONE', #626, .T. ) ;
#356 = EDGE_LOOP ( 'NONE', ( #589, #406, #670, #248 ) ) ;
#357 = DIRECTION ( 'NONE',  ( 0.000000000000000000, -1.000000000000000000, 0.000000000000000000 ) ) ;
#358 = ADVANCED_FACE ( 'NONE', ( #526 ), #685, .F. ) ;
#359 = CARTESIAN_POINT ( 'NONE',  ( 1.530808498934191571E-16, 1.750000000000000000, 1.250000000000000000 ) ) ;
#360 = DIRECTION ( 'NONE',  ( -0.000000000000000000, 0.000000000000000000, -1.000000000000000000 ) ) ;
#361 = DIRECTION ( 'NONE',  ( 1.000000000000000000, 0.000000000000000000, 0.000000000000000000 ) ) ;
#362 = ORIENTED_EDGE ( 'NONE', *, *, #642, .T. ) ;
#363 = DIRECTION ( 'NONE',  ( -1.000000000000000000, 0.000000000000000000, 0.000000000000000000 ) ) ;
#364 = DIRECTION ( 'NONE',  ( 0.000000000000000000, -1.000000000000000000, 0.000000000000000000 ) ) ;
#365 = VECTOR ( 'NONE', #583, 1000.000000000000000 ) ;
#366 = DIRECTION ( 'NONE',  ( 0.000000000000000000, 0.000000000000000000, -1.000000000000000000 ) ) ;
#367 = DIRECTION ( 'NONE',  ( 0.000000000000000000, 0.000000000000000000, -1.000000000000000000 ) ) ;
#368 = VERTEX_POINT ( 'NONE', #820 ) ;
#369 = CARTESIAN_POINT ( 'NONE',  ( -0.2588834764832000368, 0.7249999999999999778, -0.8838834764831999813 ) ) ;
#370 = DIRECTION ( 'NONE',  ( 1.000000000000000000, 0.000000000000000000, -0.000000000000000000 ) ) ;
#371 = VECTOR ( 'NONE', #742, 1000.000000000000000 ) ;
#372 = CARTESIAN_POINT ( 'NONE',  ( 0.000000000000000000, 1.750000000000000000, 0.000000000000000000 ) ) ;
#373 = ORIENTED_EDGE ( 'NONE', *, *, #502, .T. ) ;
#374 = CIRCLE ( 'NONE', #598, 0.6250000000000000000 ) ;
#375 = DIRECTION ( 'NONE',  ( 0.000000000000000000, 0.000000000000000000, 1.000000000000000000 ) ) ;
#376 = LINE ( 'NONE', #359, #497 ) ;
#377 = ADVANCED_FACE ( 'NONE', ( #911 ), #835, .T. ) ;
#378 = EDGE_LOOP ( 'NONE', ( #977, #817, #543, #923 ) ) ;
#379 = DIRECTION ( 'NONE',  ( -0.000000000000000000, 0.000000000000000000, -1.000000000000000000 ) ) ;
#380 = DIRECTION ( 'NONE',  ( -0.000000000000000000, 1.000000000000000000, -0.000000000000000000 ) ) ;
#381 = ORIENTED_EDGE ( 'NONE', *, *, #874, .T. ) ;
#382 = CARTESIAN_POINT ( 'NONE',  ( 0.000000000000000000, 1.249999999970441422, 0.000000000000000000 ) ) ;
#383 = CARTESIAN_POINT ( 'NONE',  ( -1.100119322146941192, -0.000000000000000000, -0.5965246171911716688 ) ) ;
#384 = ADVANCED_FACE ( 'NONE', ( #516 ), #586, .T. ) ;
#385 = LINE ( 'NONE', #946, #761 ) ;
#386 = VERTEX_POINT ( 'NONE', #296 ) ;
#387 = DIRECTION ( 'NONE',  ( 4.440892098500626162E-15, 0.000000000000000000, -1.000000000000000000 ) ) ;
#388 = VECTOR ( 'NONE', #287, 1000.000000000000114 ) ;
#389 = DIRECTION ( 'NONE',  ( 0.000000000000000000, 0.000000000000000000, 1.000000000000000000 ) ) ;
#390 = EDGE_CURVE ( 'NONE', #170, #27, #728, .T. ) ;
#391 = ORIENTED_EDGE ( 'NONE', *, *, #48, .F. ) ;
#392 = FACE_OUTER_BOUND ( 'NONE', #503, .T. ) ;
#393 = CARTESIAN_POINT ( 'NONE',  ( 0.4785488709733510815, 0.000000000000000000, -1.154930107423069563 ) ) ;
#394 = LINE ( 'NONE', #235, #743 ) ;
#395 = ORIENTED_EDGE ( 'NONE', *, *, #682, .F. ) ;
#396 = CARTESIAN_POINT ( 'NONE',  ( -1.239029422041004747, -0.000000000000000000, 0.1964424261563620933 ) ) ;
#397 = DIRECTION ( 'NONE',  ( 0.000000000000000000, 0.000000000000000000, -1.000000000000000000 ) ) ;
#398 = CARTESIAN_POINT ( 'NONE',  ( 1.255262969126036846E-16, -4.549999999999999822, -1.024999999999999911 ) ) ;
#399 = EDGE_CURVE ( 'NONE', #873, #486, #374, .T. ) ;
#400 = EDGE_LOOP ( 'NONE', ( #869, #145, #151, #91 ) ) ;
#401 = CARTESIAN_POINT ( 'NONE',  ( 0.4230013043505798653, -0.000000000000000000, 1.176421480074853809 ) ) ;
#402 = AXIS2_PLACEMENT_3D ( 'NONE', #53, #284, #515 ) ;
#403 = CARTESIAN_POINT ( 'NONE',  ( -1.025289990227854275, -0.000000000000000000, -0.7243921280128897688 ) ) ;
#404 = AXIS2_PLACEMENT_3D ( 'NONE', #285, #41, #760 ) ;
#405 = PRESENTATION_STYLE_ASSIGNMENT (( #79 ) ) ;
#406 = ORIENTED_EDGE ( 'NONE', *, *, #521, .F. ) ;
#407 = LINE ( 'NONE', #732, #180 ) ;
#408 = ORIENTED_EDGE ( 'NONE', *, *, #301, .T. ) ;
#409 = CARTESIAN_POINT ( 'NONE',  ( -0.8838834764831999813, 0.7249999999999999778, -0.8838834764831999813 ) ) ;
#410 = CARTESIAN_POINT ( 'NONE',  ( -0.2588834764831999813, 0.7249999999999999778, 0.8838834764831999813 ) ) ;
#411 =( GEOMETRIC_REPRESENTATION_CONTEXT ( 3 ) GLOBAL_UNCERTAINTY_ASSIGNED_CONTEXT ( ( #566 ) ) GLOBAL_UNIT_ASSIGNED_CONTEXT ( ( #50, #348, #669 ) ) REPRESENTATION_CONTEXT ( 'NONE', 'WORKASPACE' ) );
#412 = LINE ( 'NONE', #568, #4 ) ;
#413 = ORIENTED_EDGE ( 'NONE', *, *, #337, .F. ) ;
#414 = FACE_BOUND ( 'NONE', #753, .T. ) ;
#415 = VECTOR ( 'NONE', #134, 1000.000000000000000 ) ;
#416 = LINE ( 'NONE', #804, #121 ) ;
#417 = AXIS2_PLACEMENT_3D ( 'NONE', #423, #890, #366 ) ;
#418 = EDGE_CURVE ( 'NONE', #649, #593, #290, .T. ) ;
#419 = AXIS2_PLACEMENT_3D ( 'NONE', #464, #159, #397 ) ;
#420 = ORIENTED_EDGE ( 'NONE', *, *, #920, .F. ) ;
#421 = CARTESIAN_POINT ( 'NONE',  ( -0.1586042252440992284, -0.000000000000000000, 1.249932698098715544 ) ) ;
#422 = CARTESIAN_POINT ( 'NONE',  ( 0.8838834764831999813, 1.449999999999999956, 0.2588834764831999258 ) ) ;
#423 = CARTESIAN_POINT ( 'NONE',  ( 0.000000000000000000, 0.7249999999999999778, 0.000000000000000000 ) ) ;
#424 = EDGE_CURVE ( 'NONE', #608, #582, #776, .T. ) ;
#425 = CARTESIAN_POINT ( 'NONE',  ( -0.8838834764831999813, 0.7249999999999999778, -0.2588834764831999258 ) ) ;
#426 = VERTEX_POINT ( 'NONE', #305 ) ;
#427 = DIRECTION ( 'NONE',  ( -1.000000000000000000, -0.000000000000000000, -0.000000000000000000 ) ) ;
#428 = EDGE_LOOP ( 'NONE', ( #530, #86, #456, #465 ) ) ;
#429 = CYLINDRICAL_SURFACE ( 'NONE', #460, 0.6250000000000000000 ) ;
#430 = EDGE_CURVE ( 'NONE', #683, #863, #912, .T. ) ;
#431 = VERTEX_POINT ( 'NONE', #83 ) ;
#432 = LINE ( 'NONE', #665, #371 ) ;
#433 = CARTESIAN_POINT ( 'NONE',  ( 0.000000000000000000, -4.549999999994724931, 0.000000000000000000 ) ) ;
#434 = CIRCLE ( 'NONE', #527, 0.6250000000000000000 ) ;
#435 = AXIS2_PLACEMENT_3D ( 'NONE', #311, #459, #1013 ) ;
#436 = ORIENTED_EDGE ( 'NONE', *, *, #123, .T. ) ;
#437 = DIRECTION ( 'NONE',  ( 0.000000000000000000, -1.000000000000000000, 0.000000000000000000 ) ) ;
#438 = ORIENTED_EDGE ( 'NONE', *, *, #240, .T. ) ;
#439 = UNCERTAINTY_MEASURE_WITH_UNIT (LENGTH_MEASURE( 1.000000000000000082E-05 ), #785, 'distance_accuracy_value', 'NONE');
#440 = DIRECTION ( 'NONE',  ( 0.000000000000000000, -1.000000000000000000, -0.000000000000000000 ) ) ;
#441 = EDGE_CURVE ( 'NONE', #76, #908, #467, .T. ) ;
#442 = DIRECTION ( 'NONE',  ( 0.000000000000000000, -1.000000000000000000, 0.000000000000000000 ) ) ;
#443 = VERTEX_POINT ( 'NONE', #221 ) ;
#444 = DIRECTION ( 'NONE',  ( 0.000000000000000000, -1.000000000000000000, 0.000000000000000000 ) ) ;
#445 = ORIENTED_EDGE ( 'NONE', *, *, #259, .F. ) ;
#446 = LINE ( 'NONE', #350, #577 ) ;
#447 = CYLINDRICAL_SURFACE ( 'NONE', #613, 1.024999999999999911 ) ;
#448 = ADVANCED_FACE ( 'NONE', ( #532 ), #773, .T. ) ;
#449 = ORIENTED_EDGE ( 'NONE', *, *, #240, .F. ) ;
#450 = CARTESIAN_POINT ( 'NONE',  ( -0.2588834764831999813, 0.7249999999999999778, 1.477490895269000237 ) ) ;
#451 = CARTESIAN_POINT ( 'NONE',  ( 0.000000000000000000, -4.549999999999999822, 1.024999999999999911 ) ) ;
#452 = EDGE_CURVE ( 'NONE', #289, #242, #867, .T. ) ;
#453 = EDGE_LOOP ( 'NONE', ( #354, #664, #39, #16 ) ) ;
#454 = LINE ( 'NONE', #309, #523 ) ;
#455 = DIRECTION ( 'NONE',  ( 0.000000000000000000, -1.000000000000000000, 0.000000000000000000 ) ) ;
#456 = ORIENTED_EDGE ( 'NONE', *, *, #961, .T. ) ;
#457 = CARTESIAN_POINT ( 'NONE',  ( 0.000000000000000000, 1.249999999970441422, -2.499999999940882844 ) ) ;
#458 = CARTESIAN_POINT ( 'NONE',  ( 1.189204713810568359, -0.000000000000000000, -0.3857108043592355484 ) ) ;
#459 = DIRECTION ( 'NONE',  ( 0.000000000000000000, -1.000000000000000000, 0.000000000000000000 ) ) ;
#460 = AXIS2_PLACEMENT_3D ( 'NONE', #978, #444, #271 ) ;
#461 = VERTEX_POINT ( 'NONE', #930 ) ;
#462 = DIRECTION ( 'NONE',  ( -0.000000000000000000, 0.000000000000000000, -1.000000000000000000 ) ) ;
#463 = EDGE_CURVE ( 'NONE', #157, #426, #184, .T. ) ;
#464 = CARTESIAN_POINT ( 'NONE',  ( 0.000000000000000000, 1.449999999999999956, 0.000000000000000000 ) ) ;
#465 = ORIENTED_EDGE ( 'NONE', *, *, #786, .T. ) ;
#466 = DIRECTION ( 'NONE',  ( 0.000000000000000000, -0.000000000000000000, -1.000000000000000000 ) ) ;
#467 = CIRCLE ( 'NONE', #419, 1.500000000000000000 ) ;
#468 = CARTESIAN_POINT ( 'NONE',  ( 0.000000000000000000, 1.449999999999999956, 0.000000000000000000 ) ) ;
#469 = DIRECTION ( 'NONE',  ( 0.000000000000000000, 1.000000000000000000, 0.000000000000000000 ) ) ;
#470 = ORIENTED_EDGE ( 'NONE', *, *, #211, .T. ) ;
#471 = CARTESIAN_POINT ( 'NONE',  ( -1.249999999999999778, -0.000000000000000000, -0.1591311762596327450 ) ) ;
#472 = EDGE_CURVE ( 'NONE', #593, #327, #794, .T. ) ;
#473 = ORIENTED_EDGE ( 'NONE', *, *, #880, .T. ) ;
#474 = AXIS2_PLACEMENT_3D ( 'NONE', #778, #77, #314 ) ;
#475 = CARTESIAN_POINT ( 'NONE',  ( -0.1962934954576293634, -0.000000000000000000, -1.239088311204628701 ) ) ;
#476 = CYLINDRICAL_SURFACE ( 'NONE', #972, 0.6250000000000000000 ) ;
#477 = ORIENTED_EDGE ( 'NONE', *, *, #588, .F. ) ;
#478 = CARTESIAN_POINT ( 'NONE',  ( 1.154921657688708025, 0.000000000000000000, 0.4785701888325819553 ) ) ;
#479 = VECTOR ( 'NONE', #17, 1000.000000000000000 ) ;
#480 = DIRECTION ( 'NONE',  ( 0.000000000000000000, -1.000000000000000000, 0.000000000000000000 ) ) ;
#481 = ORIENTED_EDGE ( 'NONE', *, *, #418, .F. ) ;
#482 = CARTESIAN_POINT ( 'NONE',  ( 1.145850069176794772, -0.000000000000000000, 0.5000064583866976609 ) ) ;
#483 = EDGE_CURVE ( 'NONE', #898, #499, #745, .T. ) ;
#484 = CARTESIAN_POINT ( 'NONE',  ( 0.000000000000000000, -4.325000000000000178, 0.000000000000000000 ) ) ;
#485 = CARTESIAN_POINT ( 'NONE',  ( -1.250000000000000000, 0.000000000000000000, 0.000000000000000000 ) ) ;
#486 = VERTEX_POINT ( 'NONE', #233 ) ;
#487 = DIRECTION ( 'NONE',  ( 0.000000000000000000, 1.000000000000000000, 0.000000000000000000 ) ) ;
#488 = EDGE_CURVE ( 'NONE', #601, #898, #860, .T. ) ;
#489 = CARTESIAN_POINT ( 'NONE',  ( 0.000000000000000000, 0.7249999999999999778, 0.000000000000000000 ) ) ;
#490 = VERTEX_POINT ( 'NONE', #244 ) ;
#491 = DIRECTION ( 'NONE',  ( -0.000000000000000000, 1.000000000000000000, -0.000000000000000000 ) ) ;
#492 = AXIS2_PLACEMENT_3D ( 'NONE', #450, #363, #375 ) ;
#493 = AXIS2_PLACEMENT_3D ( 'NONE', #865, #316, #790 ) ;
#494 = CARTESIAN_POINT ( 'NONE',  ( -0.2588834764831999813, 0.7249999999999999778, -1.477490895269000237 ) ) ;
#495 = OPEN_SHELL ( 'NONE', ( #448, #280, #600 ) ) ;
#496 = EDGE_CURVE ( 'NONE', #33, #896, #434, .T. ) ;
#497 = VECTOR ( 'NONE', #825, 1000.000000000000000 ) ;
#498 = ORIENTED_EDGE ( 'NONE', *, *, #816, .F. ) ;
#499 = VERTEX_POINT ( 'NONE', #422 ) ;
#500 = CARTESIAN_POINT ( 'NONE',  ( 0.000000000000000000, 0.7249999999999999778, 0.000000000000000000 ) ) ;
#501 = DIRECTION ( 'NONE',  ( 0.000000000000000000, -1.000000000000000000, 0.000000000000000000 ) ) ;
#502 = EDGE_CURVE ( 'NONE', #582, #386, #407, .T. ) ;
#503 = EDGE_LOOP ( 'NONE', ( #748, #56, #973, #1014 ) ) ;
#504 = ORIENTED_EDGE ( 'NONE', *, *, #534, .T. ) ;
#505 = FACE_OUTER_BOUND ( 'NONE', #637, .T. ) ;
#506 = LINE ( 'NONE', #54, #697 ) ;
#507 = CARTESIAN_POINT ( 'NONE',  ( 0.8838834764832000923, 1.449999999999999956, -0.2588834764831999813 ) ) ;
#508 = ORIENTED_EDGE ( 'NONE', *, *, #496, .F. ) ;
#509 = DIRECTION ( 'NONE',  ( 1.000000000000000000, 0.000000000000000000, -0.000000000000000000 ) ) ;
#510 = FACE_OUTER_BOUND ( 'NONE', #106, .T. ) ;
#511 = VECTOR ( 'NONE', #469, 1000.000000000000000 ) ;
#512 = CIRCLE ( 'NONE', #404, 1.024999999999999911 ) ;
#513 = EDGE_LOOP ( 'NONE', ( #343, #81, #805, #338 ) ) ;
#514 = ORIENTED_EDGE ( 'NONE', *, *, #557, .T. ) ;
#515 = DIRECTION ( 'NONE',  ( 0.000000000000000000, 0.000000000000000000, 1.000000000000000000 ) ) ;
#516 = FACE_OUTER_BOUND ( 'NONE', #513, .T. ) ;
#517 = FACE_OUTER_BOUND ( 'NONE', #658, .T. ) ;
#518 = APPLICATION_PROTOCOL_DEFINITION ( 'draft international standard', 'automotive_design', 1998, #353 ) ;
#519 = VERTEX_POINT ( 'NONE', #103 ) ;
#520 = LINE ( 'NONE', #57, #1018 ) ;
#521 = EDGE_CURVE ( 'NONE', #76, #686, #968, .T. ) ;
#522 = DIRECTION ( 'NONE',  ( -1.000000000000000000, 0.000000000000000000, 0.000000000000000000 ) ) ;
#523 = VECTOR ( 'NONE', #379, 1000.000000000000000 ) ;
#524 = EDGE_LOOP ( 'NONE', ( #61, #989, #903, #858 ) ) ;
#525 = CARTESIAN_POINT ( 'NONE',  ( 0.000000000000000000, 0.7249999999999999778, 0.000000000000000000 ) ) ;
#526 = FACE_OUTER_BOUND ( 'NONE', #573, .T. ) ;
#527 = AXIS2_PLACEMENT_3D ( 'NONE', #107, #174, #727 ) ;
#528 = CIRCLE ( 'NONE', #435, 1.250000000000000000 ) ;
#529 = AXIS2_PLACEMENT_3D ( 'NONE', #704, #315, #154 ) ;
#530 = ORIENTED_EDGE ( 'NONE', *, *, #551, .T. ) ;
#531 = DIRECTION ( 'NONE',  ( -0.000000000000000000, 1.000000000000000000, -0.000000000000000000 ) ) ;
#532 = FACE_OUTER_BOUND ( 'NONE', #524, .T. ) ;
#533 = B_SPLINE_CURVE_WITH_KNOTS ( 'NONE', 3,
 ( #158, #623, #396, #708, #318, #627, #549, #249, #554, #717, #263, #806, #802, #255, #87, #92, #421, #23, #731, #339, #11, #401, #884, #6, #323, #243, #870, #164, #565, #482, #478, #328, #638, #879 ),
 .UNSPECIFIED., .F., .F.,
 ( 4, 1, 1, 2, 2, 2, 1, 1, 2, 2, 2, 1, 1, 2, 2, 2, 1, 1, 2, 2, 4 ),
 ( 0.000000000000000000, 0.06249999999999968081, 0.09374999999999955591, 0.1093749999999995004, 0.1249999999999994449, 0.2499999999999988343, 0.3124999999999985012, 0.3437499999999983902, 0.3593749999999984457, 0.3749999999999984457, 0.4999999999999987788, 0.5624999999999988898, 0.5937499999999990008, 0.6093749999999990008, 0.6249999999999990008, 0.7499999999999993339, 0.8124999999999996669, 0.8437499999999997780, 0.8593749999999997780, 0.8749999999999998890, 1.000000000000000000 ),
 .UNSPECIFIED. ) ;
#534 = EDGE_CURVE ( 'NONE', #827, #431, #105, .T. ) ;
#535 = ORIENTED_EDGE ( 'NONE', *, *, #342, .T. ) ;
#536 = DIRECTION ( 'NONE',  ( 0.000000000000000000, 0.000000000000000000, -1.000000000000000000 ) ) ;
#537 = CARTESIAN_POINT ( 'NONE',  ( -0.3293503164285235818, -0.000000000000000000, -1.207076069866652945 ) ) ;
#538 = LINE ( 'NONE', #781, #3 ) ;
#539 = AXIS2_PLACEMENT_3D ( 'NONE', #409, #957, #126 ) ;
#540 = VERTEX_POINT ( 'NONE', #892 ) ;
#541 = CARTESIAN_POINT ( 'NONE',  ( 0.000000000000000000, 1.449999999999999956, 0.000000000000000000 ) ) ;
#542 = DIRECTION ( 'NONE',  ( 0.000000000000000000, 0.000000000000000000, -1.000000000000000000 ) ) ;
#543 = ORIENTED_EDGE ( 'NONE', *, *, #430, .T. ) ;
#544 = DIRECTION ( 'NONE',  ( -0.000000000000000000, 0.000000000000000000, 1.000000000000000000 ) ) ;
#545 = CARTESIAN_POINT ( 'NONE',  ( -0.9448049200626491562, -0.000000000000000000, -0.8230144980380765807 ) ) ;
#546 = EDGE_CURVE ( 'NONE', #170, #431, #344, .T. ) ;
#547 = DIRECTION ( 'NONE',  ( 0.000000000000000000, -1.000000000000000000, 0.000000000000000000 ) ) ;
#548 = EDGE_LOOP ( 'NONE', ( #420, #277, #381, #203 ) ) ;
#549 = CARTESIAN_POINT ( 'NONE',  ( -1.170152050935858279, 0.000000000000000000, 0.4400971163233853289 ) ) ;
#550 = CARTESIAN_POINT ( 'NONE',  ( 0.000000000000000000, 1.449999999999999956, 0.000000000000000000 ) ) ;
#551 = EDGE_CURVE ( 'NONE', #853, #540, #2, .T. ) ;
#552 = CARTESIAN_POINT ( 'NONE',  ( 0.000000000000000000, 0.7249999999999999778, 0.000000000000000000 ) ) ;
#553 = VERTEX_POINT ( 'NONE', #555 ) ;
#554 = CARTESIAN_POINT ( 'NONE',  ( -1.005621433373321771, -0.000000000000000000, 0.7620405893242986339 ) ) ;
#555 = CARTESIAN_POINT ( 'NONE',  ( 0.2588834764832339541, 0.7249999999999999778, -1.477490895269393922 ) ) ;
#556 = LINE ( 'NONE', #257, #942 ) ;
#557 = EDGE_CURVE ( 'NONE', #254, #272, #1006, .T. ) ;
#558 = ORIENTED_EDGE ( 'NONE', *, *, #682, .T. ) ;
#559 = DIRECTION ( 'NONE',  ( 0.000000000000000000, 0.000000000000000000, 1.000000000000000000 ) ) ;
#560 = AXIS2_PLACEMENT_3D ( 'NONE', #489, #501, #35 ) ;
#561 = CARTESIAN_POINT ( 'NONE',  ( 0.000000000000000000, 1.449999999999999956, -1.500000000000000000 ) ) ;
#562 = LINE ( 'NONE', #261, #1008 ) ;
#563 = ADVANCED_FACE ( 'NONE', ( #949 ), #186, .F. ) ;
#564 = ORIENTED_EDGE ( 'NONE', *, *, #874, .F. ) ;
#565 = CARTESIAN_POINT ( 'NONE',  ( 1.128102625125053660, -0.000000000000000000, 0.5389796670263632405 ) ) ;
#566 = UNCERTAINTY_MEASURE_WITH_UNIT (LENGTH_MEASURE( 1.000000000000000082E-05 ), #50, 'distance_accuracy_value', 'NONE');
#567 = CARTESIAN_POINT ( 'NONE',  ( 0.000000000000000000, 1.449999999999999956, 0.000000000000000000 ) ) ;
#568 = CARTESIAN_POINT ( 'NONE',  ( -0.8838834764831999813, 0.7249999999999999778, 0.2588834764832000368 ) ) ;
#569 = ORIENTED_EDGE ( 'NONE', *, *, #19, .F. ) ;
#570 = DIRECTION ( 'NONE',  ( 0.000000000000000000, -1.000000000000000000, 0.000000000000000000 ) ) ;
#571 = AXIS2_PLACEMENT_3D ( 'NONE', #924, #226, #219 ) ;
#572 = LINE ( 'NONE', #172, #681 ) ;
#573 = EDGE_LOOP ( 'NONE', ( #161, #222, #193, #678 ) ) ;
#574 = DIRECTION ( 'NONE',  ( -0.000000000000000000, 1.000000000000000000, -0.000000000000000000 ) ) ;
#575 = EDGE_LOOP ( 'NONE', ( #590, #998 ) ) ;
#576 = CARTESIAN_POINT ( 'NONE',  ( 0.000000000000000000, -4.549999999999999822, 0.000000000000000000 ) ) ;
#577 = VECTOR ( 'NONE', #509, 1000.000000000000000 ) ;
#578 = COLOUR_RGB ( '',0.7921568627450980005, 0.8196078431372548767, 0.9333333333333333481 ) ;
#579 = EDGE_CURVE ( 'NONE', #962, #519, #597, .T. ) ;
#580 = CARTESIAN_POINT ( 'NONE',  ( -0.2588834764831999813, 0.7249999999999999778, -0.8838834764831999813 ) ) ;
#581 = VECTOR ( 'NONE', #964, 1000.000000000000000 ) ;
#582 = VERTEX_POINT ( 'NONE', #795 ) ;
#583 = DIRECTION ( 'NONE',  ( -0.000000000000000000, 1.000000000000000000, -0.000000000000000000 ) ) ;
#584 = VERTEX_POINT ( 'NONE', #94 ) ;
#585 = CARTESIAN_POINT ( 'NONE',  ( 0.2588834764831999258, 0.7249999999999999778, -0.8838834764831999813 ) ) ;
#586 = CYLINDRICAL_SURFACE ( 'NONE', #24, 1.250000000000000000 ) ;
#587 = EDGE_CURVE ( 'NONE', #649, #553, #646, .T. ) ;
#588 = EDGE_CURVE ( 'NONE', #653, #148, #886, .T. ) ;
#589 = ORIENTED_EDGE ( 'NONE', *, *, #80, .F. ) ;
#590 = ORIENTED_EDGE ( 'NONE', *, *, #390, .F. ) ;
#591 = DIRECTION ( 'NONE',  ( 1.000000000000000000, 0.000000000000000000, -0.000000000000000000 ) ) ;
#592 = DIRECTION ( 'NONE',  ( 0.000000000000000000, 0.000000000000000000, 1.000000000000000000 ) ) ;
#593 = VERTEX_POINT ( 'NONE', #561 ) ;
#594 = VERTEX_POINT ( 'NONE', #12 ) ;
#595 = DIRECTION ( 'NONE',  ( -1.000000000000000000, 0.000000000000000000, -0.000000000000000000 ) ) ;
#596 = DIRECTION ( 'NONE',  ( 0.000000000000000000, 0.000000000000000000, 1.000000000000000000 ) ) ;
#597 = CIRCLE ( 'NONE', #232, 1.024999999999999911 ) ;
#598 = AXIS2_PLACEMENT_3D ( 'NONE', #142, #455, #765 ) ;
#599 = ORIENTED_EDGE ( 'NONE', *, *, #847, .F. ) ;
#600 = ADVANCED_FACE ( 'NONE', ( #414, #329 ), #959, .F. ) ;
#601 = VERTEX_POINT ( 'NONE', #7 ) ;
#602 = LINE ( 'NONE', #999, #940 ) ;
#603 = CARTESIAN_POINT ( 'NONE',  ( 0.000000000000000000, 1.750000000000000000, 0.000000000000000000 ) ) ;
#604 = ORIENTED_EDGE ( 'NONE', *, *, #129, .F. ) ;
#605 = DIRECTION ( 'NONE',  ( -1.000000000000000000, 0.000000000000000000, -0.000000000000000000 ) ) ;
#606 = CARTESIAN_POINT ( 'NONE',  ( 0.000000000000000000, -4.549999999994724931, 0.000000000000000000 ) ) ;
#607 = EDGE_CURVE ( 'NONE', #519, #962, #117, .T. ) ;
#608 = VERTEX_POINT ( 'NONE', #171 ) ;
#609 = CARTESIAN_POINT ( 'NONE',  ( -0.2588834764831999813, 1.449999999999999956, -0.8838834764831999813 ) ) ;
#610 = CARTESIAN_POINT ( 'NONE',  ( -0.4400971163233645678, 0.000000000000000000, -1.170152050935873822 ) ) ;
#611 = AXIS2_PLACEMENT_3D ( 'NONE', #567, #963, #122 ) ;
#612 = VECTOR ( 'NONE', #657, 1000.000000000000000 ) ;
#613 = AXIS2_PLACEMENT_3D ( 'NONE', #279, #689, #592 ) ;
#614 = ORIENTED_EDGE ( 'NONE', *, *, #472, .T. ) ;
#615 = FACE_BOUND ( 'NONE', #297, .T. ) ;
#616 = CARTESIAN_POINT ( 'NONE',  ( -1.220745125442679102, -0.000000000000000000, -0.3125039719104140135 ) ) ;
#617 = ORIENTED_EDGE ( 'NONE', *, *, #247, .F. ) ;
#618 = DIRECTION ( 'NONE',  ( -0.000000000000000000, -1.000000000000000000, -0.000000000000000000 ) ) ;
#619 = DIRECTION ( 'NONE',  ( -0.000000000000000000, 1.000000000000000000, -0.000000000000000000 ) ) ;
#620 = DIRECTION ( 'NONE',  ( 0.000000000000000000, 0.000000000000000000, -1.000000000000000000 ) ) ;
#621 = EDGE_CURVE ( 'NONE', #431, #827, #36, .T. ) ;
#622 = ORIENTED_EDGE ( 'NONE', *, *, #579, .F. ) ;
#623 = CARTESIAN_POINT ( 'NONE',  ( -1.249999999999999778, 0.000000000000000000, 0.07938721587846825356 ) ) ;
#624 = CARTESIAN_POINT ( 'NONE',  ( 0.5000064583867158685, -0.000000000000000000, -1.145850069176785002 ) ) ;
#625 = DIRECTION ( 'NONE',  ( -0.000000000000000000, 1.000000000000000000, -0.000000000000000000 ) ) ;
#626 = EDGE_LOOP ( 'NONE', ( #979, #408, #102, #813 ) ) ;
#627 = CARTESIAN_POINT ( 'NONE',  ( -1.176405706191740119, -0.000000000000000000, 0.4230411965020263176 ) ) ;
#628 = AXIS2_PLACEMENT_3D ( 'NONE', #939, #619, #934 ) ;
#629 = EDGE_CURVE ( 'NONE', #486, #114, #98, .T. ) ;
#630 = AXIS2_PLACEMENT_3D ( 'NONE', #47, #522, #596 ) ;
#631 = CARTESIAN_POINT ( 'NONE',  ( -0.6202885519841512263, -0.000000000000000000, -1.098901979465352508 ) ) ;
#632 = FACE_OUTER_BOUND ( 'NONE', #264, .T. ) ;
#633 = ORIENTED_EDGE ( 'NONE', *, *, #521, .T. ) ;
#634 = DIRECTION ( 'NONE',  ( 0.000000000000000000, -0.000000000000000000, -1.000000000000000000 ) ) ;
#635 = EDGE_CURVE ( 'NONE', #461, #594, #286, .T. ) ;
#636 = CARTESIAN_POINT ( 'NONE',  ( 0.8838834764831999813, 0.7249999999999999778, 0.8838834764831999813 ) ) ;
#637 = EDGE_LOOP ( 'NONE', ( #395, #120, #218, #436 ) ) ;
#638 = CARTESIAN_POINT ( 'NONE',  ( 1.249999999999999778, -0.000000000000000000, 0.1591311762596327450 ) ) ;
#639 = VECTOR ( 'NONE', #544, 1000.000000000000000 ) ;
#640 = DIRECTION ( 'NONE',  ( 0.000000000000000000, 1.000000000000000000, 0.000000000000000000 ) ) ;
#641 = FACE_OUTER_BOUND ( 'NONE', #575, .T. ) ;
#642 = EDGE_CURVE ( 'NONE', #653, #943, #696, .T. ) ;
#643 = ORIENTED_EDGE ( 'NONE', *, *, #990, .T. ) ;
#644 = DIRECTION ( 'NONE',  ( 0.000000000000000000, 1.000000000000000000, 0.000000000000000000 ) ) ;
#645 = AXIS2_PLACEMENT_3D ( 'NONE', #941, #935, #245 ) ;
#646 = LINE ( 'NONE', #718, #335 ) ;
#647 = AXIS2_PLACEMENT_3D ( 'NONE', #606, #921, #840 ) ;
#648 = FACE_OUTER_BOUND ( 'NONE', #96, .T. ) ;
#649 = VERTEX_POINT ( 'NONE', #838 ) ;
#650 = PRODUCT_RELATED_PRODUCT_CATEGORY ( 'part', '', ( #947 ) ) ;
#651 = CARTESIAN_POINT ( 'NONE',  ( 0.000000000000000000, 0.000000000000000000, 0.000000000000000000 ) ) ;
#652 = CARTESIAN_POINT ( 'NONE',  ( -0.2588834764832677604, 0.7249999999999999778, 1.477490895269387927 ) ) ;
#653 = VERTEX_POINT ( 'NONE', #684 ) ;
#654 = EDGE_CURVE ( 'NONE', #943, #827, #128, .T. ) ;
#655 = DIRECTION ( 'NONE',  ( 0.000000000000000000, 0.7071067812758683457, 0.7071067810972266887 ) ) ;
#656 = AXIS2_PLACEMENT_3D ( 'NONE', #525, #915, #209 ) ;
#657 = DIRECTION ( 'NONE',  ( 0.000000000000000000, 0.000000000000000000, 1.000000000000000000 ) ) ;
#658 = EDGE_LOOP ( 'NONE', ( #413, #362, #1001, #504 ) ) ;
#659 = CARTESIAN_POINT ( 'NONE',  ( 0.000000000000000000, 1.449999999999999956, -0.2588834764831999813 ) ) ;
#660 = CIRCLE ( 'NONE', #234, 1.500000000000000000 ) ;
#661 = DIRECTION ( 'NONE',  ( 0.000000000000000000, -1.000000000000000000, 0.000000000000000000 ) ) ;
#662 = VECTOR ( 'NONE', #26, 1000.000000000000000 ) ;
#663 = ORIENTED_EDGE ( 'NONE', *, *, #211, .F. ) ;
#664 = ORIENTED_EDGE ( 'NONE', *, *, #706, .T. ) ;
#665 = CARTESIAN_POINT ( 'NONE',  ( 0.2588834764831999813, 0.7249999999999999778, 1.477490895269000237 ) ) ;
#666 = PLANE ( 'NONE',  #304 ) ;
#667 = EDGE_CURVE ( 'NONE', #386, #863, #993, .T. ) ;
#668 = EDGE_LOOP ( 'NONE', ( #173, #470, #177, #302 ) ) ;
#669 =( NAMED_UNIT ( * ) SI_UNIT ( $, .STERADIAN. ) SOLID_ANGLE_UNIT ( ) );
#670 = ORIENTED_EDGE ( 'NONE', *, *, #441, .T. ) ;
#671 = FACE_OUTER_BOUND ( 'NONE', #844, .T. ) ;
#672 = SHELL_BASED_SURFACE_MODEL ( 'NONE', ( #841, #495 ) );
#673 = DIRECTION ( 'NONE',  ( -0.000000000000000000, 0.000000000000000000, -1.000000000000000000 ) ) ;
#674 = AXIS2_PLACEMENT_3D ( 'NONE', #677, #195, #984 ) ;
#675 = ADVANCED_FACE ( 'NONE', ( #294 ), #824, .F. ) ;
#676 = ORIENTED_EDGE ( 'NONE', *, *, #259, .T. ) ;
#677 = CARTESIAN_POINT ( 'NONE',  ( 0.000000000000000000, -4.324999999937517714, 0.000000000000000000 ) ) ;
#678 = ORIENTED_EDGE ( 'NONE', *, *, #231, .F. ) ;
#679 = DIRECTION ( 'NONE',  ( -0.000000000000000000, 1.000000000000000000, -0.000000000000000000 ) ) ;
#680 = DIRECTION ( 'NONE',  ( 0.000000000000000000, 0.000000000000000000, 1.000000000000000000 ) ) ;
#681 = VECTOR ( 'NONE', #267, 1000.000000000000000 ) ;
#682 = EDGE_CURVE ( 'NONE', #368, #212, #446, .T. ) ;
#683 = VERTEX_POINT ( 'NONE', #585 ) ;
#684 = CARTESIAN_POINT ( 'NONE',  ( 0.000000000000000000, 0.000000000000000000, 1.250000000000000000 ) ) ;
#685 = PLANE ( 'NONE',  #630 ) ;
#686 = VERTEX_POINT ( 'NONE', #205 ) ;
#687 = CARTESIAN_POINT ( 'NONE',  ( -1.477490895269393922, 1.449999999999999956, 0.2588834764832337321 ) ) ;
#688 = EDGE_CURVE ( 'NONE', #601, #716, #432, .T. ) ;
#689 = DIRECTION ( 'NONE',  ( 0.000000000000000000, 1.000000000000000000, 0.000000000000000000 ) ) ;
#690 = AXIS2_PLACEMENT_3D ( 'NONE', #859, #531, #854 ) ;
#691 = AXIS2_PLACEMENT_3D ( 'NONE', #1005, #82, #1015 ) ;
#692 = ORIENTED_EDGE ( 'NONE', *, *, #588, .T. ) ;
#693 = LINE ( 'NONE', #1021, #922 ) ;
#694 = CARTESIAN_POINT ( 'NONE',  ( 0.8230144980381158826, -0.000000000000000000, -0.9448049200626275068 ) ) ;
#695 = DIRECTION ( 'NONE',  ( -1.243449787580175325E-14, 0.000000000000000000, -1.000000000000000000 ) ) ;
#696 = CIRCLE ( 'NONE', #807, 1.250000000000000000 ) ;
#697 = VECTOR ( 'NONE', #206, 1000.000000000000000 ) ;
#698 = ORIENTED_EDGE ( 'NONE', *, *, #247, .T. ) ;
#699 = CYLINDRICAL_SURFACE ( 'NONE', #52, 1.500000000000000000 ) ;
#700 = CARTESIAN_POINT ( 'NONE',  ( 1.005621433373321771, -0.000000000000000000, -0.7620405893242986339 ) ) ;
#701 = LINE ( 'NONE', #398, #511 ) ;
#702 = EDGE_LOOP ( 'NONE', ( #196, #967, #633, #757 ) ) ;
#703 = DIRECTION ( 'NONE',  ( -0.000000000000000000, 1.000000000000000000, -0.000000000000000000 ) ) ;
#704 = CARTESIAN_POINT ( 'NONE',  ( 0.8838834764831999813, 0.7249999999999999778, -0.8838834764831999813 ) ) ;
#705 = FACE_OUTER_BOUND ( 'NONE', #453, .T. ) ;
#706 = EDGE_CURVE ( 'NONE', #582, #33, #197, .T. ) ;
#707 = ORIENTED_EDGE ( 'NONE', *, *, #80, .T. ) ;
#708 = CARTESIAN_POINT ( 'NONE',  ( -1.207031902993935812, -0.000000000000000000, 0.3294620144525731154 ) ) ;
#709 = CARTESIAN_POINT ( 'NONE',  ( 0.000000000000000000, -4.549999999999999822, 0.000000000000000000 ) ) ;
#710 = VECTOR ( 'NONE', #953, 1000.000000000000114 ) ;
#711 = PRESENTATION_LAYER_ASSIGNMENT (  '', '', ( #140 ) ) ;
#712 = ORIENTED_EDGE ( 'NONE', *, *, #463, .T. ) ;
#713 = EDGE_CURVE ( 'NONE', #499, #368, #602, .T. ) ;
#714 = DIRECTION ( 'NONE',  ( 0.000000000000000000, -0.000000000000000000, 1.000000000000000000 ) ) ;
#715 = CARTESIAN_POINT ( 'NONE',  ( -0.2588834764831999258, 0.7249999999999999778, 0.8838834764831999813 ) ) ;
#716 = VERTEX_POINT ( 'NONE', #46 ) ;
#717 = CARTESIAN_POINT ( 'NONE',  ( -0.8230144980381158826, -0.000000000000000000, 0.9448049200626275068 ) ) ;
#718 = CARTESIAN_POINT ( 'NONE',  ( 0.2588834764832679269, 0.7249999999999999778, -1.477490895269387927 ) ) ;
#719 = EDGE_CURVE ( 'NONE', #908, #873, #754, .T. ) ;
#720 = FACE_OUTER_BOUND ( 'NONE', #356, .T. ) ;
#721 = EDGE_LOOP ( 'NONE', ( #445, #643, #535, #801 ) ) ;
#722 = DIRECTION ( 'NONE',  ( -0.000000000000000000, 1.000000000000000000, -0.000000000000000000 ) ) ;
#723 = CARTESIAN_POINT ( 'NONE',  ( 3.061616997832183793E-16, 1.249999999970441422, 2.499999999940882844 ) ) ;
#724 = ORIENTED_EDGE ( 'NONE', *, *, #855, .T. ) ;
#725 = VECTOR ( 'NONE', #679, 1000.000000000000000 ) ;
#726 = AXIS2_PLACEMENT_3D ( 'NONE', #156, #851, #321 ) ;
#727 = DIRECTION ( 'NONE',  ( 0.000000000000000000, 0.000000000000000000, -1.000000000000000000 ) ) ;
#728 = CIRCLE ( 'NONE', #647, 1.025000000026921043 ) ;
#729 = LINE ( 'NONE', #960, #220 ) ;
#730 = DIRECTION ( 'NONE',  ( 1.000000000000000000, 0.000000000000000000, 0.000000000000000000 ) ) ;
#731 = CARTESIAN_POINT ( 'NONE',  ( 0.1962934954576293634, -0.000000000000000000, 1.239088311204628701 ) ) ;
#732 = CARTESIAN_POINT ( 'NONE',  ( 1.477490895269000237, 0.7249999999999999778, -0.2588834764831999813 ) ) ;
#733 = CARTESIAN_POINT ( 'NONE',  ( 0.000000000000000000, 0.7249999999999999778, 0.000000000000000000 ) ) ;
#734 = ADVANCED_FACE ( 'NONE', ( #749 ), #904, .F. ) ;
#735 = CARTESIAN_POINT ( 'NONE',  ( 3.061616997726371908E-16, 1.249999999913598003, -2.499999999884039426 ) ) ;
#736 = ORIENTED_EDGE ( 'NONE', *, *, #266, .T. ) ;
#737 = PLANE ( 'NONE',  #774 ) ;
#738 = CYLINDRICAL_SURFACE ( 'NONE', #996, 1.500000000000000000 ) ;
#739 = EDGE_LOOP ( 'NONE', ( #64, #514, #200, #965 ) ) ;
#740 = CYLINDRICAL_SURFACE ( 'NONE', #246, 2.500000000000000000 ) ;
#741 = ORIENTED_EDGE ( 'NONE', *, *, #108, .T. ) ;
#742 = DIRECTION ( 'NONE',  ( -0.000000000000000000, -1.000000000000000000, -0.000000000000000000 ) ) ;
#743 = VECTOR ( 'NONE', #332, 1000.000000000000000 ) ;
#744 = DIRECTION ( 'NONE',  ( 0.000000000000000000, 1.000000000000000000, 0.000000000000000000 ) ) ;
#745 = CIRCLE ( 'NONE', #893, 0.6250000000000000000 ) ;
#746 = PLANE ( 'NONE',  #21 ) ;
#747 = CARTESIAN_POINT ( 'NONE',  ( 1.255262969126036846E-16, 0.000000000000000000, -1.024999999999999911 ) ) ;
#748 = ORIENTED_EDGE ( 'NONE', *, *, #390, .T. ) ;
#749 = FACE_OUTER_BOUND ( 'NONE', #70, .T. ) ;
#750 = ADVANCED_FACE ( 'NONE', ( #919 ), #273, .T. ) ;
#751 = DIRECTION ( 'NONE',  ( 0.000000000000000000, 0.000000000000000000, -1.000000000000000000 ) ) ;
#752 = ORIENTED_EDGE ( 'NONE', *, *, #463, .F. ) ;
#753 = EDGE_LOOP ( 'NONE', ( #992, #622 ) ) ;
#754 = LINE ( 'NONE', #819, #251 ) ;
#755 = CARTESIAN_POINT ( 'NONE',  ( 0.2588834764832000368, 0.7249999999999999778, 0.8838834764832000923 ) ) ;
#756 = CARTESIAN_POINT ( 'NONE',  ( -0.8838834764831999813, 0.7249999999999999778, 0.2588834764831999813 ) ) ;
#757 = ORIENTED_EDGE ( 'NONE', *, *, #319, .F. ) ;
#758 = DIRECTION ( 'NONE',  ( 0.000000000000000000, 0.000000000000000000, 1.000000000000000000 ) ) ;
#759 = VECTOR ( 'NONE', #655, 1000.000000000000000 ) ;
#760 = DIRECTION ( 'NONE',  ( 0.000000000000000000, 0.000000000000000000, 1.000000000000000000 ) ) ;
#761 = VECTOR ( 'NONE', #306, 1000.000000000000000 ) ;
#762 = ADVANCED_FACE ( 'NONE', ( #505 ), #737, .F. ) ;
#763 = ORIENTED_EDGE ( 'NONE', *, *, #823, .T. ) ;
#764 = CARTESIAN_POINT ( 'NONE',  ( -0.2588834764831999813, 1.449999999999999956, 0.000000000000000000 ) ) ;
#765 = DIRECTION ( 'NONE',  ( 0.000000000000000000, 0.000000000000000000, -1.000000000000000000 ) ) ;
#766 = ORIENTED_EDGE ( 'NONE', *, *, #843, .F. ) ;
#767 = LINE ( 'NONE', #783, #639 ) ;
#768 = MANIFOLD_SURFACE_SHAPE_REPRESENTATION ( 'FHS_M2_5X06_NYLOK', ( #672, #986 ), #411 ) ;
#769 = CARTESIAN_POINT ( 'NONE',  ( 1.170152050935858279, 0.000000000000000000, -0.4400971163233853289 ) ) ;
#770 =( NAMED_UNIT ( * ) SI_UNIT ( $, .STERADIAN. ) SOLID_ANGLE_UNIT ( ) );
#771 = ORIENTED_EDGE ( 'NONE', *, *, #483, .T. ) ;
#772 = FACE_OUTER_BOUND ( 'NONE', #548, .T. ) ;
#773 = CYLINDRICAL_SURFACE ( 'NONE', #90, 1.024999999999999911 ) ;
#774 = AXIS2_PLACEMENT_3D ( 'NONE', #980, #758, #591 ) ;
#775 =( GEOMETRIC_REPRESENTATION_CONTEXT ( 3 ) GLOBAL_UNCERTAINTY_ASSIGNED_CONTEXT ( ( #439 ) ) GLOBAL_UNIT_ASSIGNED_CONTEXT ( ( #785, #131, #770 ) ) REPRESENTATION_CONTEXT ( 'NONE', 'WORKASPACE' ) );
#776 = CIRCLE ( 'NONE', #336, 1.500000000000000000 ) ;
#777 = ORIENTED_EDGE ( 'NONE', *, *, #887, .F. ) ;
#778 = CARTESIAN_POINT ( 'NONE',  ( 0.000000000000000000, 0.7249999999999999778, 0.000000000000000000 ) ) ;
#779 = CARTESIAN_POINT ( 'NONE',  ( -0.4230013043505798653, -0.000000000000000000, -1.176421480074853809 ) ) ;
#780 = ADVANCED_FACE ( 'NONE', ( #671 ), #137, .T. ) ;
#781 = CARTESIAN_POINT ( 'NONE',  ( 0.000000000000000000, 1.449999999999999956, -0.2588834764831999813 ) ) ;
#782 = ORIENTED_EDGE ( 'NONE', *, *, #719, .T. ) ;
#783 = CARTESIAN_POINT ( 'NONE',  ( -0.2588834764831999813, 1.449999999999999956, 0.000000000000000000 ) ) ;
#784 = CARTESIAN_POINT ( 'NONE',  ( 0.2588834764831999813, 1.449999999999999956, 0.000000000000000000 ) ) ;
#785 =( LENGTH_UNIT ( ) NAMED_UNIT ( * ) SI_UNIT ( .MILLI., .METRE. ) );
#786 = EDGE_CURVE ( 'NONE', #490, #853, #830, .T. ) ;
#787 = CIRCLE ( 'NONE', #690, 0.6250000000000000000 ) ;
#788 = ORIENTED_EDGE ( 'NONE', *, *, #399, .T. ) ;
#789 = CARTESIAN_POINT ( 'NONE',  ( 0.3126745147842615591, -0.000000000000000000, -1.220677527567786358 ) ) ;
#790 = DIRECTION ( 'NONE',  ( -1.000000000000000000, 0.000000000000000000, -0.000000000000000000 ) ) ;
#791 = AXIS2_PLACEMENT_3D ( 'NONE', #30, #112, #730 ) ;
#792 = ADVANCED_FACE ( 'NONE', ( #214 ), #291, .F. ) ;
#793 = ORIENTED_EDGE ( 'NONE', *, *, #713, .T. ) ;
#794 = CIRCLE ( 'NONE', #168, 1.500000000000000000 ) ;
#795 = CARTESIAN_POINT ( 'NONE',  ( 1.477490895269200077, 1.449999999999999956, -0.2588834764831999813 ) ) ;
#796 = DIRECTION ( 'NONE',  ( 0.000000000000000000, -1.000000000000000000, 0.000000000000000000 ) ) ;
#797 = ORIENTED_EDGE ( 'NONE', *, *, #975, .F. ) ;
#798 = CARTESIAN_POINT ( 'NONE',  ( 2.296212748365088131E-16, 0.000000000000000000, -1.250000000000000000 ) ) ;
#799 = DIRECTION ( 'NONE',  ( 0.000000000000000000, 0.000000000000000000, -1.000000000000000000 ) ) ;
#800 = DIRECTION ( 'NONE',  ( 0.000000000000000000, -0.000000000000000000, -1.000000000000000000 ) ) ;
#801 = ORIENTED_EDGE ( 'NONE', *, *, #855, .F. ) ;
#802 = CARTESIAN_POINT ( 'NONE',  ( -0.5389796670263964362, -0.000000000000000000, 1.128102625125034786 ) ) ;
#803 = CARTESIAN_POINT ( 'NONE',  ( 0.000000000000000000, 0.000000000000000000, 0.000000000000000000 ) ) ;
#804 = CARTESIAN_POINT ( 'NONE',  ( 3.061616997868383141E-16, 1.750000000000000000, 2.500000000000000000 ) ) ;
#805 = ORIENTED_EDGE ( 'NONE', *, *, #621, .T. ) ;
#806 = CARTESIAN_POINT ( 'NONE',  ( -0.5965246171912229611, -0.000000000000000000, 1.100119322146912548 ) ) ;
#807 = AXIS2_PLACEMENT_3D ( 'NONE', #987, #834, #909 ) ;
#808 = DIRECTION ( 'NONE',  ( -0.000000000000000000, -1.000000000000000000, -0.000000000000000000 ) ) ;
#809 = AXIS2_PLACEMENT_3D ( 'NONE', #433, #274, #680 ) ;
#810 = DIRECTION ( 'NONE',  ( -0.000000000000000000, -1.000000000000000000, 0.000000000000000000 ) ) ;
#811 = CARTESIAN_POINT ( 'NONE',  ( 1.393035734025046640E-16, -4.549999999994724931, -1.025000000026921043 ) ) ;
#812 = FACE_OUTER_BOUND ( 'NONE', #428, .T. ) ;
#813 = ORIENTED_EDGE ( 'NONE', *, *, #534, .F. ) ;
#814 = CARTESIAN_POINT ( 'NONE',  ( 0.000000000000000000, 0.000000000000000000, 0.000000000000000000 ) ) ;
#815 = ORIENTED_EDGE ( 'NONE', *, *, #452, .F. ) ;
#816 = EDGE_CURVE ( 'NONE', #132, #1020, #520, .T. ) ;
#817 = ORIENTED_EDGE ( 'NONE', *, *, #202, .T. ) ;
#818 = AXIS2_PLACEMENT_3D ( 'NONE', #97, #644, #559 ) ;
#819 = CARTESIAN_POINT ( 'NONE',  ( 0.000000000000000000, 1.449999999999999956, 0.2588834764831999813 ) ) ;
#820 = CARTESIAN_POINT ( 'NONE',  ( 0.8838834764831999813, 0.7249999999999999778, 0.2588834764831999258 ) ) ;
#821 = FACE_OUTER_BOUND ( 'NONE', #400, .T. ) ;
#822 = PRODUCT_CONTEXT ( 'NONE', #144, 'mechanical' ) ;
#823 = EDGE_CURVE ( 'NONE', #716, #584, #454, .T. ) ;
#824 = PLANE ( 'NONE',  #166 ) ;
#825 = DIRECTION ( 'NONE',  ( 0.000000000000000000, -1.000000000000000000, 0.000000000000000000 ) ) ;
#826 = VECTOR ( 'NONE', #192, 1000.000000000000000 ) ;
#827 = VERTEX_POINT ( 'NONE', #146 ) ;
#828 = LINE ( 'NONE', #991, #365 ) ;
#829 = ORIENTED_EDGE ( 'NONE', *, *, #551, .F. ) ;
#830 = LINE ( 'NONE', #369, #725 ) ;
#831 = CARTESIAN_POINT ( 'NONE',  ( 0.000000000000000000, 1.750000000000000000, 0.000000000000000000 ) ) ;
#832 = FILL_AREA_STYLE_COLOUR ( '', #578 ) ;
#833 = VERTEX_POINT ( 'NONE', #457 ) ;
#834 = DIRECTION ( 'NONE',  ( 0.000000000000000000, -1.000000000000000000, 0.000000000000000000 ) ) ;
#835 = CYLINDRICAL_SURFACE ( 'NONE', #958, 0.6250000000000000000 ) ;
#836 = ADVANCED_FACE ( 'NONE', ( #772 ), #699, .F. ) ;
#837 = ORIENTED_EDGE ( 'NONE', *, *, #202, .F. ) ;
#838 = CARTESIAN_POINT ( 'NONE',  ( 0.2588834764832339541, 1.449999999999999956, -1.477490895269393922 ) ) ;
#839 = VECTOR ( 'NONE', #427, 1000.000000000000000 ) ;
#840 = DIRECTION ( 'NONE',  ( 0.000000000000000000, 0.000000000000000000, 1.000000000000000000 ) ) ;
#841 = CLOSED_SHELL ( 'NONE', ( #384, #895, #931, #307, #563, #60, #997, #780, #155, #982, #916, #194, #675, #1019, #358, #13, #331, #377, #99, #792, #762, #93, #55, #836, #734, #750, #866, #188 ) ) ;
#842 = AXIS2_PLACEMENT_3D ( 'NONE', #603, #364, #751 ) ;
#843 = EDGE_CURVE ( 'NONE', #327, #853, #849, .T. ) ;
#844 = EDGE_LOOP ( 'NONE', ( #1004, #110, #692, #724 ) ) ;
#845 = DIRECTION ( 'NONE',  ( -0.000000000000000000, 0.000000000000000000, 1.000000000000000000 ) ) ;
#846 = CARTESIAN_POINT ( 'NONE',  ( 1.250000000000000000, 0.000000000000000000, 0.000000000000000000 ) ) ;
#847 = EDGE_CURVE ( 'NONE', #499, #608, #1011, .T. ) ;
#848 = ORIENTED_EDGE ( 'NONE', *, *, #719, .F. ) ;
#849 = LINE ( 'NONE', #764, #67 ) ;
#850 = CARTESIAN_POINT ( 'NONE',  ( 0.7243921280129588247, -0.000000000000000000, -1.025289990227816084 ) ) ;
#851 = DIRECTION ( 'NONE',  ( 0.000000000000000000, -1.000000000000000000, 0.000000000000000000 ) ) ;
#852 = AXIS2_PLACEMENT_3D ( 'NONE', #43, #574, #288 ) ;
#853 = VERTEX_POINT ( 'NONE', #609 ) ;
#854 = DIRECTION ( 'NONE',  ( 0.000000000000000000, 0.000000000000000000, -1.000000000000000000 ) ) ;
#855 = EDGE_CURVE ( 'NONE', #148, #833, #298, .T. ) ;
#856 = DIRECTION ( 'NONE',  ( 0.000000000000000000, -1.000000000000000000, 0.000000000000000000 ) ) ;
#857 = AXIS2_PLACEMENT_3D ( 'NONE', #484, #491, #799 ) ;
#858 = ORIENTED_EDGE ( 'NONE', *, *, #312, .F. ) ;
#859 = CARTESIAN_POINT ( 'NONE',  ( -0.8838834764831999813, 0.7249999999999999778, 0.8838834764831999813 ) ) ;
#860 = LINE ( 'NONE', #784, #72 ) ;
#861 = EDGE_CURVE ( 'NONE', #683, #553, #693, .T. ) ;
#862 = SURFACE_STYLE_FILL_AREA ( #89 ) ;
#863 = VERTEX_POINT ( 'NONE', #62 ) ;
#864 = CARTESIAN_POINT ( 'NONE',  ( 0.8838834764831999813, 1.449999999999999956, 0.8838834764831999813 ) ) ;
#865 = CARTESIAN_POINT ( 'NONE',  ( 0.8838834764831999813, 0.7249999999999999778, -0.2588834764831999813 ) ) ;
#866 = ADVANCED_FACE ( 'NONE', ( #1002 ), #230, .F. ) ;
#867 = B_SPLINE_CURVE_WITH_KNOTS ( 'NONE', 3,
 ( #846, #1, #147, #1007, #458, #300, #769, #68, #700, #694, #850, #162, #945, #624, #393, #789, #224, #239, #475, #537, #1012, #779, #610, #631, #88, #545, #403, #383, #926, #1016, #310, #616, #471, #150 ),
 .UNSPECIFIED., .F., .F.,
 ( 4, 1, 1, 2, 2, 2, 1, 1, 2, 2, 2, 1, 1, 2, 2, 2, 1, 1, 2, 2, 4 ),
 ( 0.000000000000000000, 0.06249999999999968081, 0.09374999999999955591, 0.1093749999999995004, 0.1249999999999994449, 0.2499999999999988343, 0.3124999999999985012, 0.3437499999999983902, 0.3593749999999984457, 0.3749999999999984457, 0.4999999999999987788, 0.5624999999999988898, 0.5937499999999990008, 0.6093749999999990008, 0.6249999999999990008, 0.7499999999999993339, 0.8124999999999996669, 0.8437499999999997780, 0.8593749999999997780, 0.8749999999999998890, 1.000000000000000000 ),
 .UNSPECIFIED. ) ;
#868 = CIRCLE ( 'NONE', #852, 1.500000000000000000 ) ;
#869 = ORIENTED_EDGE ( 'NONE', *, *, #823, .F. ) ;
#870 = CARTESIAN_POINT ( 'NONE',  ( 1.025289990227854275, -0.000000000000000000, 0.7243921280128897688 ) ) ;
#871 = CARTESIAN_POINT ( 'NONE',  ( 0.000000000000000000, -4.324999999937517714, 1.250000000027284841 ) ) ;
#872 = DIRECTION ( 'NONE',  ( 8.659560561261068745E-17, 0.7071067812758683457, -0.7071067810972266887 ) ) ;
#873 = VERTEX_POINT ( 'NONE', #303 ) ;
#874 = EDGE_CURVE ( 'NONE', #443, #601, #15, .T. ) ;
#875 = VECTOR ( 'NONE', #744, 1000.000000000000000 ) ;
#876 = DIRECTION ( 'NONE',  ( 0.000000000000000000, 0.000000000000000000, -1.000000000000000000 ) ) ;
#877 = CARTESIAN_POINT ( 'NONE',  ( 0.2588834764831999813, 1.449999999999999956, 0.000000000000000000 ) ) ;
#878 = ORIENTED_EDGE ( 'NONE', *, *, #927, .F. ) ;
#879 = CARTESIAN_POINT ( 'NONE',  ( 1.250000000000000000, 0.000000000000000000, 0.000000000000000000 ) ) ;
#880 = EDGE_CURVE ( 'NONE', #486, #443, #767, .T. ) ;
#881 = CARTESIAN_POINT ( 'NONE',  ( 0.000000000000000000, 1.249999999913598003, 2.499999999884039426 ) ) ;
#882 = DIRECTION ( 'NONE',  ( -0.000000000000000000, 1.000000000000000000, -0.000000000000000000 ) ) ;
#883 = ORIENTED_EDGE ( 'NONE', *, *, #19, .T. ) ;
#884 = CARTESIAN_POINT ( 'NONE',  ( 0.4400971163233645678, 0.000000000000000000, 1.170152050935873822 ) ) ;
#885 = CIRCLE ( 'NONE', #539, 0.6250000000000000000 ) ;
#886 = LINE ( 'NONE', #881, #710 ) ;
#887 = EDGE_CURVE ( 'NONE', #114, #1020, #787, .T. ) ;
#888 = CARTESIAN_POINT ( 'NONE',  ( 0.000000000000000000, -4.549999999999999822, 1.024999999999999911 ) ) ;
#889 = AXIS2_PLACEMENT_3D ( 'NONE', #651, #178, #250 ) ;
#890 = DIRECTION ( 'NONE',  ( 0.000000000000000000, -1.000000000000000000, 0.000000000000000000 ) ) ;
#891 = ORIENTED_EDGE ( 'NONE', *, *, #887, .T. ) ;
#892 = CARTESIAN_POINT ( 'NONE',  ( -0.8838834764831999813, 1.449999999999999956, -0.2588834764831999258 ) ) ;
#893 = AXIS2_PLACEMENT_3D ( 'NONE', #864, #856, #78 ) ;
#894 = CARTESIAN_POINT ( 'NONE',  ( 0.000000000000000000, 0.7249999999999999778, -1.500000000000000000 ) ) ;
#895 = ADVANCED_FACE ( 'NONE', ( #392 ), #113, .T. ) ;
#896 = VERTEX_POINT ( 'NONE', #139 ) ;
#897 = DIRECTION ( 'NONE',  ( 0.000000000000000000, 0.000000000000000000, 1.000000000000000000 ) ) ;
#898 = VERTEX_POINT ( 'NONE', #65 ) ;
#899 = CARTESIAN_POINT ( 'NONE',  ( -0.8838834764831999813, 0.7249999999999999778, 0.8838834764831999813 ) ) ;
#900 = DIRECTION ( 'NONE',  ( -1.243449787580175325E-14, 0.000000000000000000, -1.000000000000000000 ) ) ;
#901 = ORIENTED_EDGE ( 'NONE', *, *, #629, .F. ) ;
#902 = FACE_OUTER_BOUND ( 'NONE', #721, .T. ) ;
#903 = ORIENTED_EDGE ( 'NONE', *, *, #579, .T. ) ;
#904 = PLANE ( 'NONE',  #492 ) ;
#905 = FACE_OUTER_BOUND ( 'NONE', #918, .T. ) ;
#906 = ORIENTED_EDGE ( 'NONE', *, *, #861, .T. ) ;
#907 = SHAPE_DEFINITION_REPRESENTATION ( #936, #768 ) ;
#908 = VERTEX_POINT ( 'NONE', #687 ) ;
#909 = DIRECTION ( 'NONE',  ( 0.000000000000000000, 0.000000000000000000, -1.000000000000000000 ) ) ;
#910 = AXIS2_PLACEMENT_3D ( 'NONE', #803, #640, #714 ) ;
#911 = FACE_OUTER_BOUND ( 'NONE', #378, .T. ) ;
#912 = CIRCLE ( 'NONE', #529, 0.6250000000000000000 ) ;
#913 = LINE ( 'NONE', #270, #612 ) ;
#914 = ORIENTED_EDGE ( 'NONE', *, *, #275, .T. ) ;
#915 = DIRECTION ( 'NONE',  ( 0.000000000000000000, -1.000000000000000000, 0.000000000000000000 ) ) ;
#916 = ADVANCED_FACE ( 'NONE', ( #615, #929 ), #149, .F. ) ;
#917 = CARTESIAN_POINT ( 'NONE',  ( 0.2588834764831999813, 0.7249999999999999778, -1.477490895269000237 ) ) ;
#918 = EDGE_LOOP ( 'NONE', ( #349, #676, #569, #44 ) ) ;
#919 = FACE_OUTER_BOUND ( 'NONE', #163, .T. ) ;
#920 = EDGE_CURVE ( 'NONE', #182, #716, #966, .T. ) ;
#921 = DIRECTION ( 'NONE',  ( 0.000000000000000000, 1.000000000000000000, 0.000000000000000000 ) ) ;
#922 = VECTOR ( 'NONE', #462, 1000.000000000000000 ) ;
#923 = ORIENTED_EDGE ( 'NONE', *, *, #216, .T. ) ;
#924 = CARTESIAN_POINT ( 'NONE',  ( -0.8838834764831999813, 0.7249999999999999778, 0.2588834764831999813 ) ) ;
#925 = AXIS2_PLACEMENT_3D ( 'NONE', #576, #487, #340 ) ;
#926 = CARTESIAN_POINT ( 'NONE',  ( -1.128102625125053660, -0.000000000000000000, -0.5389796670263632405 ) ) ;
#927 = EDGE_CURVE ( 'NONE', #242, #289, #533, .T. ) ;
#928 = ORIENTED_EDGE ( 'NONE', *, *, #441, .F. ) ;
#929 = FACE_OUTER_BOUND ( 'NONE', #208, .T. ) ;
#930 = CARTESIAN_POINT ( 'NONE',  ( 0.000000000000000000, 1.449999999999999956, -2.500000000000000000 ) ) ;
#931 = ADVANCED_FACE ( 'NONE', ( #952 ), #85, .T. ) ;
#932 = ORIENTED_EDGE ( 'NONE', *, *, #706, .F. ) ;
#933 = DIRECTION ( 'NONE',  ( 1.000000000000000000, 0.000000000000000000, 0.000000000000000000 ) ) ;
#934 = DIRECTION ( 'NONE',  ( 0.000000000000000000, 0.000000000000000000, -1.000000000000000000 ) ) ;
#935 = DIRECTION ( 'NONE',  ( -0.000000000000000000, 1.000000000000000000, -0.000000000000000000 ) ) ;
#936 = PRODUCT_DEFINITION_SHAPE ( 'NONE', 'NONE',  #8 ) ;
#937 = ORIENTED_EDGE ( 'NONE', *, *, #880, .F. ) ;
#938 = DIRECTION ( 'NONE',  ( 0.000000000000000000, -1.000000000000000000, 0.000000000000000000 ) ) ;
#939 = CARTESIAN_POINT ( 'NONE',  ( 0.000000000000000000, 0.7249999999999999778, 0.000000000000000000 ) ) ;
#940 = VECTOR ( 'NONE', #440, 1000.000000000000000 ) ;
#941 = CARTESIAN_POINT ( 'NONE',  ( 0.8838834764831999813, 0.7249999999999999778, 0.8838834764831999813 ) ) ;
#942 = VECTOR ( 'NONE', #100, 1000.000000000000000 ) ;
#943 = VERTEX_POINT ( 'NONE', #798 ) ;
#944 = DIRECTION ( 'NONE',  ( 1.000000000000000000, 0.000000000000000000, -0.000000000000000000 ) ) ;
#945 = CARTESIAN_POINT ( 'NONE',  ( 0.5389796670263964362, -0.000000000000000000, -1.128102625125034786 ) ) ;
#946 = CARTESIAN_POINT ( 'NONE',  ( 1.477490895269387927, 0.7249999999999999778, 0.2588834764832678159 ) ) ;
#947 = PRODUCT ( 'FHS_M2_5X06_NYLOK', 'FHS_M2_5X06_NYLOK', '', ( #822 ) ) ;
#948 = EDGE_LOOP ( 'NONE', ( #498, #125, #782, #617 ) ) ;
#949 = FACE_OUTER_BOUND ( 'NONE', #668, .T. ) ;
#950 = AXIS2_PLACEMENT_3D ( 'NONE', #541, #703, #387 ) ;
#951 = ORIENTED_EDGE ( 'NONE', *, *, #483, .F. ) ;
#952 = FACE_OUTER_BOUND ( 'NONE', #1010, .T. ) ;
#953 = DIRECTION ( 'NONE',  ( 0.000000000000000000, 0.7071067811865474617, 0.7071067811865474617 ) ) ;
#954 = LINE ( 'NONE', #580, #662 ) ;
#955 = CIRCLE ( 'NONE', #645, 0.6250000000000000000 ) ;
#956 = ORIENTED_EDGE ( 'NONE', *, *, #32, .T. ) ;
#957 = DIRECTION ( 'NONE',  ( -0.000000000000000000, 1.000000000000000000, -0.000000000000000000 ) ) ;
#958 = AXIS2_PLACEMENT_3D ( 'NONE', #981, #124, #135 ) ;
#959 = PLANE ( 'NONE',  #910 ) ;
#960 = CARTESIAN_POINT ( 'NONE',  ( 0.000000000000000000, 0.7249999999999999778, -1.500000000000000000 ) ) ;
#961 = EDGE_CURVE ( 'NONE', #970, #490, #885, .T. ) ;
#962 = VERTEX_POINT ( 'NONE', #747 ) ;
#963 = DIRECTION ( 'NONE',  ( 0.000000000000000000, -1.000000000000000000, 0.000000000000000000 ) ) ;
#964 = DIRECTION ( 'NONE',  ( 0.000000000000000000, -1.000000000000000000, 0.000000000000000000 ) ) ;
#965 = ORIENTED_EDGE ( 'NONE', *, *, #607, .T. ) ;
#966 = CIRCLE ( 'NONE', #474, 1.500000000000000000 ) ;
#967 = ORIENTED_EDGE ( 'NONE', *, *, #66, .T. ) ;
#968 = LINE ( 'NONE', #28, #479 ) ;
#969 = EDGE_CURVE ( 'NONE', #132, #908, #828, .T. ) ;
#970 = VERTEX_POINT ( 'NONE', #425 ) ;
#971 = CARTESIAN_POINT ( 'NONE',  ( 0.000000000000000000, 0.000000000000000000, 0.000000000000000000 ) ) ;
#972 = AXIS2_PLACEMENT_3D ( 'NONE', #636, #547, #620 ) ;
#973 = ORIENTED_EDGE ( 'NONE', *, *, #621, .F. ) ;
#974 = DIRECTION ( 'NONE',  ( 1.000000000000000000, 0.000000000000000000, 0.000000000000000000 ) ) ;
#975 = EDGE_CURVE ( 'NONE', #212, #386, #868, .T. ) ;
#976 = DIRECTION ( 'NONE',  ( 0.000000000000000000, -1.000000000000000000, 0.000000000000000000 ) ) ;
#977 = ORIENTED_EDGE ( 'NONE', *, *, #496, .T. ) ;
#978 = CARTESIAN_POINT ( 'NONE',  ( -0.8838834764831999813, 0.7249999999999999778, -0.8838834764831999813 ) ) ;
#979 = ORIENTED_EDGE ( 'NONE', *, *, #169, .F. ) ;
#980 = CARTESIAN_POINT ( 'NONE',  ( 1.477490895269000237, 0.7249999999999999778, 0.2588834764831999813 ) ) ;
#981 = CARTESIAN_POINT ( 'NONE',  ( 0.8838834764831999813, 0.7249999999999999778, -0.8838834764831999813 ) ) ;
#982 = ADVANCED_FACE ( 'NONE', ( #902 ), #740, .T. ) ;
#983 = ORIENTED_EDGE ( 'NONE', *, *, #920, .T. ) ;
#984 = DIRECTION ( 'NONE',  ( 0.000000000000000000, 0.000000000000000000, 1.000000000000000000 ) ) ;
#985 = EDGE_LOOP ( 'NONE', ( #878, #815 ) ) ;
#986 = AXIS2_PLACEMENT_3D ( 'NONE', #971, #897, #361 ) ;
#987 = CARTESIAN_POINT ( 'NONE',  ( 0.000000000000000000, 0.000000000000000000, 0.000000000000000000 ) ) ;
#988 = CARTESIAN_POINT ( 'NONE',  ( 0.000000000000000000, 1.750000000000000000, -2.500000000000000000 ) ) ;
#989 = ORIENTED_EDGE ( 'NONE', *, *, #136, .T. ) ;
#990 = EDGE_CURVE ( 'NONE', #594, #461, #101, .T. ) ;
#991 = CARTESIAN_POINT ( 'NONE',  ( -1.477490895269387927, 0.7249999999999999778, 0.2588834764832675384 ) ) ;
#992 = ORIENTED_EDGE ( 'NONE', *, *, #607, .F. ) ;
#993 = LINE ( 'NONE', #34, #20 ) ;
#994 = AXIS2_PLACEMENT_3D ( 'NONE', #1009, #69, #228 ) ;
#995 = FACE_OUTER_BOUND ( 'NONE', #739, .T. ) ;
#996 = AXIS2_PLACEMENT_3D ( 'NONE', #733, #661, #14 ) ;
#997 = ADVANCED_FACE ( 'NONE', ( #355 ), #31, .T. ) ;
#998 = ORIENTED_EDGE ( 'NONE', *, *, #301, .F. ) ;
#999 = CARTESIAN_POINT ( 'NONE',  ( 0.8838834764831999813, 0.7249999999999999778, 0.2588834764831999813 ) ) ;
#1000 = DIRECTION ( 'NONE',  ( 0.000000000000000000, -1.000000000000000000, 0.000000000000000000 ) ) ;
#1001 = ORIENTED_EDGE ( 'NONE', *, *, #654, .T. ) ;
#1002 = FACE_OUTER_BOUND ( 'NONE', #948, .T. ) ;
#1003 = DIRECTION ( 'NONE',  ( 0.000000000000000000, 1.000000000000000000, 0.000000000000000000 ) ) ;
#1004 = ORIENTED_EDGE ( 'NONE', *, *, #32, .F. ) ;
#1005 = CARTESIAN_POINT ( 'NONE',  ( 0.000000000000000000, -4.324999999937517714, 0.000000000000000000 ) ) ;
#1006 = CIRCLE ( 'NONE', #925, 1.024999999999999911 ) ;
#1007 = CARTESIAN_POINT ( 'NONE',  ( 1.207031902993935812, -0.000000000000000000, -0.3294620144525731154 ) ) ;
#1008 = VECTOR ( 'NONE', #872, 1000.000000000000000 ) ;
#1009 = CARTESIAN_POINT ( 'NONE',  ( 0.000000000000000000, 0.7249999999999999778, 0.000000000000000000 ) ) ;
#1010 = EDGE_LOOP ( 'NONE', ( #118, #956, #883, #477 ) ) ;
#1011 = LINE ( 'NONE', #299, #213 ) ;
#1012 = CARTESIAN_POINT ( 'NONE',  ( -0.3856389984866322451, -0.000000000000000000, -1.189233106800172468 ) ) ;
#1013 = DIRECTION ( 'NONE',  ( 0.000000000000000000, 0.000000000000000000, -1.000000000000000000 ) ) ;
#1014 = ORIENTED_EDGE ( 'NONE', *, *, #546, .F. ) ;
#1015 = DIRECTION ( 'NONE',  ( 0.000000000000000000, 0.000000000000000000, 1.000000000000000000 ) ) ;
#1016 = CARTESIAN_POINT ( 'NONE',  ( -1.145850069176794772, -0.000000000000000000, -0.5000064583866976609 ) ) ;
#1017 = CARTESIAN_POINT ( 'NONE',  ( -1.477490895269393922, 1.449999999999999956, -0.2588834764832335100 ) ) ;
#1018 = VECTOR ( 'NONE', #944, 1000.000000000000000 ) ;
#1019 = ADVANCED_FACE ( 'NONE', ( #812 ), #429, .T. ) ;
#1020 = VERTEX_POINT ( 'NONE', #756 ) ;
#1021 = CARTESIAN_POINT ( 'NONE',  ( 0.2588834764831999813, 0.7249999999999999778, -1.477490895269000237 ) ) ;
ENDSEC;
END-ISO-10303-21;
