ISO-10303-21;
HEADER;
FILE_DESCRIPTION (( 'STEP AP214' ),
    '1' );
FILE_NAME ('M_DC11_A01_IDLER_ASM.STEP',
    '2026-08-29T22:11:46',
    ( '' ),
    ( '' ),
    'SwSTEP 2.0',
    'SolidWorks 2023',
    '' );
FILE_SCHEMA (( 'AUTOMOTIVE_DESIGN' ));
ENDSEC;

DATA;
#1 = PRODUCT_CONTEXT ( 'NONE', #71, 'mechanical' ) ;
#2 = PRODUCT_DEFINITION_CONTEXT ( 'detailed design', #185, 'design' ) ;
#3 = SHAPE_DEFINITION_REPRESENTATION ( #170, #198 ) ;
#4 = APPLICATION_PROTOCOL_DEFINITION ( 'draft international standard', 'automotive_design', 1998, #81 ) ;
#5 = UNCERTAINTY_MEASURE_WITH_UNIT (LENGTH_MEASURE( 1.000000000000000082E-05 ), #41, 'distance_accuracy_value', 'NONE');
#6 = DIRECTION ( 'NONE',  ( 1.387778780781445676E-17, -6.938893903907228378E-18, 0.9999999999999996669 ) ) ;
#7 = APPLIED_EXTERNAL_IDENTIFICATION_ASSIGNMENT ( 'DC11_A01_HORN_INSERT_1.STEP' , #97, #48,( #109) ) ;
#8 = PRODUCT_DEFINITION_SHAPE ( 'NONE', 'NONE',  #253 ) ;
#9 = PROPERTY_DEFINITION_REPRESENTATION ( #87, #198 ) ;
#10 = DOCUMENT_TYPE ( 'geometry' ) ;
#11 = APPLIED_DOCUMENT_REFERENCE ( #109,'',( #24) ) ;
#12 = PRODUCT_DEFINITION_CONTEXT ( 'detailed design', #21, 'design' ) ;
#13 =( REPRESENTATION_RELATIONSHIP ('NONE','NONE', #162, #198 ) REPRESENTATION_RELATIONSHIP_WITH_TRANSFORMATION ( #187 )SHAPE_REPRESENTATION_RELATIONSHIP( ) );
#14 = PRODUCT_DEFINITION ( 'æ™', '', #108, #12 ) ;
#15 = PROPERTY_DEFINITION_REPRESENTATION ( #69, #202 ) ;
#16 = PROPERTY_DEFINITION_REPRESENTATION ( #66, #198 ) ;
#17 = PRODUCT_DEFINITION_SHAPE ( 'NONE', 'NONE',  #257 ) ;
#18 = DIRECTION ( 'NONE',  ( 0.000000000000000000, 0.000000000000000000, 1.000000000000000000 ) ) ;
#19 = CARTESIAN_POINT ( 'NONE',  ( 0.000000000000000000, 0.000000000000000000, 0.000000000000000000 ) ) ;
#20 = PRODUCT ( 'M_DC11_A01_IDLER', 'M_DC11_A01_IDLER', '', ( #100 ) ) ;
#21 = APPLICATION_CONTEXT ( 'automotive_design' ) ;
#22 = DIRECTION ( 'NONE',  ( -0.9999999999999998890, 0.000000000000000000, -1.387778780781445676E-17 ) ) ;
#23 = SHAPE_DEFINITION_REPRESENTATION ( #183, #202 ) ;
#24 = PRODUCT_DEFINITION ( 'æ™', '', #232, #159 ) ;
#25 =( REPRESENTATION_RELATIONSHIP ('NONE','NONE', #162, #198 ) REPRESENTATION_RELATIONSHIP_WITH_TRANSFORMATION ( #223 )SHAPE_REPRESENTATION_RELATIONSHIP( ) );
#26 = APPLICATION_PROTOCOL_DEFINITION ( 'draft international standard', 'automotive_design', 1998, #225 ) ;
#27 = UNCERTAINTY_MEASURE_WITH_UNIT (LENGTH_MEASURE( 1.000000000000000082E-05 ), #73, 'distance_accuracy_value', 'NONE');
#28 = APPLIED_EXTERNAL_IDENTIFICATION_ASSIGNMENT ( 'DC11_A01_HORN_INSERT_1.STEP' , #163, #149,( #230) ) ;
#29 = APPLICATION_CONTEXT ( 'automotive_design' ) ;
#30 = APPLICATION_PROTOCOL_DEFINITION ( 'draft international standard', 'automotive_design', 1998, #188 ) ;
#31 = CONTEXT_DEPENDENT_SHAPE_REPRESENTATION ( #46, #43 ) ;
#32 = OBJECT_ROLE ('mandatory',$ ) ;
#33 = PRODUCT_DEFINITION_FORMATION_WITH_SPECIFIED_SOURCE ( 'å¯', '', #20, .NOT_KNOWN. ) ;
#34 = ROLE_ASSOCIATION ( #240, #125 ) ;
#35 = UNCERTAINTY_MEASURE_WITH_UNIT (LENGTH_MEASURE( 1.000000000000000082E-05 ), #176, 'distance_accuracy_value', 'NONE');
#36 = PRODUCT_DEFINITION_SHAPE ( 'NONE', 'NONE',  #235 ) ;
#37 = DOCUMENT_TYPE ( 'geometry' ) ;
#38 = IDENTIFICATION_ROLE ( 'external document id and location', $) ;
#39 = PRODUCT ( 'DC11_A01_HORN_INSERT_1', 'DC11_A01_HORN_INSERT_1', '', ( #95 ) ) ;
#40 = DOCUMENT_TYPE ( 'geometry' ) ;
#41 =( LENGTH_UNIT ( ) NAMED_UNIT ( * ) SI_UNIT ( .MILLI., .METRE. ) );
#42 = OBJECT_ROLE ('mandatory',$ ) ;
#43 = PRODUCT_DEFINITION_SHAPE ( 'NONE', 'NONE',  #254 ) ;
#44 = AXIS2_PLACEMENT_3D ( 'NONE', #205, #62, #45 ) ;
#45 = DIRECTION ( 'NONE',  ( 0.9999999999999998890, 0.000000000000000000, 1.387778780781445676E-17 ) ) ;
#46 =( REPRESENTATION_RELATIONSHIP ('NONE','NONE', #162, #202 ) REPRESENTATION_RELATIONSHIP_WITH_TRANSFORMATION ( #186 )SHAPE_REPRESENTATION_RELATIONSHIP( ) );
#47 =( NAMED_UNIT ( * ) SI_UNIT ( $, .STERADIAN. ) SOLID_ANGLE_UNIT ( ) );
#48 = EXTERNAL_SOURCE (IDENTIFIER('') ) ;
#49 = PROPERTY_DEFINITION_REPRESENTATION ( #206, #198 ) ;
#50 = PRODUCT ( 'M_DC11_A01_IDLER_ASM', 'M_DC11_A01_IDLER_ASM', '', ( #1 ) ) ;
#51 = DOCUMENT_FILE ( 'DC11_A01_IDLER_SCREW.STEP' , '', '', #135, '' ,$ ) ;
#52 = APPLIED_DOCUMENT_REFERENCE ( #227,'',( #24) ) ;
#53 = OBJECT_ROLE ('mandatory',$ ) ;
#54 = ROLE_ASSOCIATION ( #53, #52 ) ;
#55 = PROPERTY_DEFINITION ('document property','', #211 ) ;
#56 = APPLIED_EXTERNAL_IDENTIFICATION_ASSIGNMENT ( 'M_DC11_A01_IDLER.STEP' , #214, #182,( #207) ) ;
#57 = DIRECTION ( 'NONE',  ( 1.000000000000000000, 0.000000000000000000, 0.000000000000000000 ) ) ;
#58 = PROPERTY_DEFINITION ('document property','', #207 ) ;
#59 = CARTESIAN_POINT ( 'NONE',  ( 0.000000000000000000, 0.000000000000000000, 0.000000000000000000 ) ) ;
#60 = EXTERNAL_SOURCE (IDENTIFIER('') ) ;
#61 = AXIS2_PLACEMENT_3D ( 'NONE', #79, #161, #218 ) ;
#62 = DIRECTION ( 'NONE',  ( -1.387778780781445676E-17, 6.938893903907228378E-18, -0.9999999999999996669 ) ) ;
#63 = CARTESIAN_POINT ( 'NONE',  ( -7.999999999999992895, 0.000000000000000000, 1.387778780781445676E-14 ) ) ;
#64 = IDENTIFICATION_ROLE ( 'external document id and location', $) ;
#65 = APPLICATION_PROTOCOL_DEFINITION ( 'draft international standard', 'automotive_design', 1998, #29 ) ;
#66 = PROPERTY_DEFINITION ('document property','', #230 ) ;
#67 = PRODUCT_DEFINITION ( 'æ™', '', #196, #98 ) ;
#68 = CONTEXT_DEPENDENT_SHAPE_REPRESENTATION ( #13, #8 ) ;
#69 = PROPERTY_DEFINITION ('external definition','', #51 ) ;
#70 = PROPERTY_DEFINITION_REPRESENTATION ( #213, #198 ) ;
#71 = APPLICATION_CONTEXT ( 'automotive_design' ) ;
#72 = AXIS2_PLACEMENT_3D ( 'NONE', #63, #94, #160 ) ;
#73 =( LENGTH_UNIT ( ) NAMED_UNIT ( * ) SI_UNIT ( .MILLI., .METRE. ) );
#74 = PROPERTY_DEFINITION ('external definition','', #109 ) ;
#75 = APPLICATION_PROTOCOL_DEFINITION ( 'draft international standard', 'automotive_design', 1998, #201 ) ;
#76 =( LENGTH_UNIT ( ) NAMED_UNIT ( * ) SI_UNIT ( .MILLI., .METRE. ) );
#77 = DIRECTION ( 'NONE',  ( 0.9999999999999998890, 0.000000000000000000, 1.387778780781445676E-17 ) ) ;
#78 = PRODUCT_DEFINITION_SHAPE ( 'NONE', 'NONE',  #67 ) ;
#79 = CARTESIAN_POINT ( 'NONE',  ( 1.387778780781445676E-14, 3.469446951953614189E-15, -8.000000000000007105 ) ) ;
#80 = DIRECTION ( 'NONE',  ( 0.9999999999999998890, 0.000000000000000000, 1.387778780781445676E-17 ) ) ;
#81 = APPLICATION_CONTEXT ( 'automotive_design' ) ;
#82 = DOCUMENT_FILE ( 'DC11_A01_HORN_INSERT_1.STEP' , '', '', #219, '' ,$ ) ;
#83 = PROPERTY_DEFINITION_REPRESENTATION ( #107, #118 ) ;
#84 = AXIS2_PLACEMENT_3D ( 'NONE', #19, #126, #57 ) ;
#85 = DOCUMENT_TYPE ( 'geometry' ) ;
#86 = PROPERTY_DEFINITION_REPRESENTATION ( #74, #198 ) ;
#87 = PROPERTY_DEFINITION ('document property','', #227 ) ;
#88 = CONTEXT_DEPENDENT_SHAPE_REPRESENTATION ( #144, #229 ) ;
#89 = AXIS2_PLACEMENT_3D ( 'NONE', #173, #250, #195 ) ;
#90 =( NAMED_UNIT ( * ) PLANE_ANGLE_UNIT ( ) SI_UNIT ( $, .RADIAN. ) );
#91 =( GEOMETRIC_REPRESENTATION_CONTEXT ( 3 ) GLOBAL_UNCERTAINTY_ASSIGNED_CONTEXT ( ( #35 ) ) GLOBAL_UNIT_ASSIGNED_CONTEXT ( ( #176, #175, #151 ) ) REPRESENTATION_CONTEXT ( 'NONE', 'WORKASPACE' ) );
#92 = EXTERNAL_SOURCE (IDENTIFIER('') ) ;
#93 = CARTESIAN_POINT ( 'NONE',  ( 0.000000000000000000, 0.000000000000000000, 0.000000000000000000 ) ) ;
#94 = DIRECTION ( 'NONE',  ( 1.387778780781445676E-17, -6.938893903907228378E-18, 0.9999999999999996669 ) ) ;
#95 = PRODUCT_CONTEXT ( 'NONE', #225, 'mechanical' ) ;
#96 = CARTESIAN_POINT ( 'NONE',  ( 6.938893903907228378E-15, -3.899999999999997247, 1.387778780781445676E-14 ) ) ;
#97 = IDENTIFICATION_ROLE ( 'external document id and location', $) ;
#98 = PRODUCT_DEFINITION_CONTEXT ( 'detailed design', #228, 'design' ) ;
#99 = PRODUCT_DEFINITION_SHAPE ( 'NONE', 'NONE',  #252 ) ;
#100 = PRODUCT_CONTEXT ( 'NONE', #168, 'mechanical' ) ;
#101 = PRODUCT_RELATED_PRODUCT_CATEGORY ( 'part', '', ( #169 ) ) ;
#102 = PROPERTY_DEFINITION_REPRESENTATION ( #239, #198 ) ;
#103 =( GEOMETRIC_REPRESENTATION_CONTEXT ( 3 ) GLOBAL_UNCERTAINTY_ASSIGNED_CONTEXT ( ( #27 ) ) GLOBAL_UNIT_ASSIGNED_CONTEXT ( ( #73, #233, #117 ) ) REPRESENTATION_CONTEXT ( 'NONE', 'WORKASPACE' ) );
#104 = APPLIED_DOCUMENT_REFERENCE ( #207,'',( #235) ) ;
#105 = ROLE_ASSOCIATION ( #177, #191 ) ;
#106 = UNCERTAINTY_MEASURE_WITH_UNIT (LENGTH_MEASURE( 1.000000000000000082E-05 ), #111, 'distance_accuracy_value', 'NONE');
#107 = PROPERTY_DEFINITION ('external definition','', #207 ) ;
#108 = PRODUCT_DEFINITION_FORMATION_WITH_SPECIFIED_SOURCE ( 'å¯', '', #50, .NOT_KNOWN. ) ;
#109 = DOCUMENT_FILE ( 'DC11_A01_HORN_INSERT_1.STEP' , '', '', #153, '' ,$ ) ;
#110 = OBJECT_ROLE ('mandatory',$ ) ;
#111 =( LENGTH_UNIT ( ) NAMED_UNIT ( * ) SI_UNIT ( .MILLI., .METRE. ) );
#112 = PROPERTY_DEFINITION ('document property','', #82 ) ;
#113 = APPLIED_EXTERNAL_IDENTIFICATION_ASSIGNMENT ( 'M_DC11_A01_IDLER_CAP.STEP' , #64, #119,( #211) ) ;
#114 = PRODUCT_DEFINITION_SHAPE ( 'NONE', 'NONE',  #251 ) ;
#115 = IDENTIFICATION_ROLE ( 'external document id and location', $) ;
#116 =( NAMED_UNIT ( * ) SI_UNIT ( $, .STERADIAN. ) SOLID_ANGLE_UNIT ( ) );
#117 =( NAMED_UNIT ( * ) SI_UNIT ( $, .STERADIAN. ) SOLID_ANGLE_UNIT ( ) );
#118 = SHAPE_REPRESENTATION ( 'M_DC11_A01_IDLER', ( #84 ), #103 ) ;
#119 = EXTERNAL_SOURCE (IDENTIFIER('') ) ;
#120 = PRODUCT_CONTEXT ( 'NONE', #201, 'mechanical' ) ;
#121 =( GEOMETRIC_REPRESENTATION_CONTEXT ( 3 ) GLOBAL_UNCERTAINTY_ASSIGNED_CONTEXT ( ( #5 ) ) GLOBAL_UNIT_ASSIGNED_CONTEXT ( ( #41, #90, #116 ) ) REPRESENTATION_CONTEXT ( 'NONE', 'WORKASPACE' ) );
#122 = CONTEXT_DEPENDENT_SHAPE_REPRESENTATION ( #25, #114 ) ;
#123 = IDENTIFICATION_ROLE ( 'external document id and location', $) ;
#124 = PROPERTY_DEFINITION ('external definition','', #82 ) ;
#125 = APPLIED_DOCUMENT_REFERENCE ( #82,'',( #24) ) ;
#126 = DIRECTION ( 'NONE',  ( 0.000000000000000000, 0.000000000000000000, 1.000000000000000000 ) ) ;
#127 = ITEM_DEFINED_TRANSFORMATION ( 'NONE', 'NONE', #44,  #193 ) ;
#128 =( REPRESENTATION_RELATIONSHIP ('NONE','NONE', #162, #145 ) REPRESENTATION_RELATIONSHIP_WITH_TRANSFORMATION ( #127 )SHAPE_REPRESENTATION_RELATIONSHIP( ) );
#129 = PROPERTY_DEFINITION_REPRESENTATION ( #58, #118 ) ;
#130 = PROPERTY_DEFINITION ('external definition','', #211 ) ;
#131 = AXIS2_PLACEMENT_3D ( 'NONE', #133, #216, #134 ) ;
#132 =( REPRESENTATION_RELATIONSHIP ('NONE','NONE', #162, #118 ) REPRESENTATION_RELATIONSHIP_WITH_TRANSFORMATION ( #249 )SHAPE_REPRESENTATION_RELATIONSHIP( ) );
#133 = CARTESIAN_POINT ( 'NONE',  ( 0.000000000000000000, 0.000000000000000000, 0.000000000000000000 ) ) ;
#134 = DIRECTION ( 'NONE',  ( 1.000000000000000000, 0.000000000000000000, 0.000000000000000000 ) ) ;
#135 = DOCUMENT_TYPE ( 'geometry' ) ;
#136 = PRODUCT_CONTEXT ( 'NONE', #188, 'mechanical' ) ;
#137 =( GEOMETRIC_REPRESENTATION_CONTEXT ( 3 ) GLOBAL_UNCERTAINTY_ASSIGNED_CONTEXT ( ( #200 ) ) GLOBAL_UNIT_ASSIGNED_CONTEXT ( ( #76, #141, #47 ) ) REPRESENTATION_CONTEXT ( 'NONE', 'WORKASPACE' ) );
#138 = PRODUCT_DEFINITION ( 'æ™', '', #140, #2 ) ;
#139 = PRODUCT_DEFINITION_CONTEXT ( 'detailed design', #81, 'design' ) ;
#140 = PRODUCT_DEFINITION_FORMATION_WITH_SPECIFIED_SOURCE ( 'å¯', '', #169, .NOT_KNOWN. ) ;
#141 =( NAMED_UNIT ( * ) PLANE_ANGLE_UNIT ( ) SI_UNIT ( $, .RADIAN. ) );
#142 = PROPERTY_DEFINITION_REPRESENTATION ( #124, #198 ) ;
#143 = PROPERTY_DEFINITION_REPRESENTATION ( #234, #202 ) ;
#144 =( REPRESENTATION_RELATIONSHIP ('NONE','NONE', #162, #198 ) REPRESENTATION_RELATIONSHIP_WITH_TRANSFORMATION ( #210 )SHAPE_REPRESENTATION_RELATIONSHIP( ) );
#145 = SHAPE_REPRESENTATION ( 'M_DC11_A01_IDLER_CAP', ( #193 ), #121 ) ;
#146 = ROLE_ASSOCIATION ( #42, #212 ) ;
#147 = PROPERTY_DEFINITION_REPRESENTATION ( #130, #145 ) ;
#148 = PROPERTY_DEFINITION_REPRESENTATION ( #55, #145 ) ;
#149 = EXTERNAL_SOURCE (IDENTIFIER('') ) ;
#150 = AXIS2_PLACEMENT_3D ( 'NONE', #96, #243, #77 ) ;
#151 =( NAMED_UNIT ( * ) SI_UNIT ( $, .STERADIAN. ) SOLID_ANGLE_UNIT ( ) );
#152 = AXIS2_PLACEMENT_3D ( 'NONE', #242, #221, #22 ) ;
#153 = DOCUMENT_TYPE ( 'geometry' ) ;
#154 = PRODUCT_RELATED_PRODUCT_CATEGORY ( 'part', '', ( #39 ) ) ;
#155 = PRODUCT_RELATED_PRODUCT_CATEGORY ( 'part', '', ( #174 ) ) ;
#156 = OBJECT_ROLE ('mandatory',$ ) ;
#157 = APPLIED_EXTERNAL_IDENTIFICATION_ASSIGNMENT ( 'DC11_A01_HORN_INSERT_1.STEP' , #115, #172,( #227) ) ;
#158 = CARTESIAN_POINT ( 'NONE',  ( 0.000000000000000000, 0.000000000000000000, 0.000000000000000000 ) ) ;
#159 = PRODUCT_DEFINITION_CONTEXT ( 'detailed design', #29, 'design' ) ;
#160 = DIRECTION ( 'NONE',  ( -0.9999999999999998890, 0.000000000000000000, -1.387778780781445676E-17 ) ) ;
#161 = DIRECTION ( 'NONE',  ( 1.387778780781445676E-17, -6.938893903907228378E-18, 0.9999999999999996669 ) ) ;
#162 = SHAPE_REPRESENTATION ( 'M_DC11_A01_IDLER_ASM', ( #190, #208, #166, #61, #150, #152, #72, #44 ), #137 ) ;
#163 = IDENTIFICATION_ROLE ( 'external document id and location', $) ;
#164 = ITEM_DEFINED_TRANSFORMATION ( 'NONE', 'NONE', #152,  #89 ) ;
#165 = ROLE_ASSOCIATION ( #156, #189 ) ;
#166 = AXIS2_PLACEMENT_3D ( 'NONE', #93, #184, #80 ) ;
#167 = ROLE_ASSOCIATION ( #32, #11 ) ;
#168 = APPLICATION_CONTEXT ( 'automotive_design' ) ;
#169 = PRODUCT ( 'DC11_A01_IDLER_SCREW', 'DC11_A01_IDLER_SCREW', '', ( #136 ) ) ;
#170 = PRODUCT_DEFINITION_SHAPE ( 'NONE', 'NONE',  #24 ) ;
#171 = APPLIED_EXTERNAL_IDENTIFICATION_ASSIGNMENT ( 'DC11_A01_IDLER_SCREW.STEP' , #123, #60,( #51) ) ;
#172 = EXTERNAL_SOURCE (IDENTIFIER('') ) ;
#173 = CARTESIAN_POINT ( 'NONE',  ( 0.000000000000000000, 0.000000000000000000, 0.000000000000000000 ) ) ;
#174 = PRODUCT ( 'M_DC11_A01_IDLER_CAP', 'M_DC11_A01_IDLER_CAP', '', ( #120 ) ) ;
#175 =( NAMED_UNIT ( * ) PLANE_ANGLE_UNIT ( ) SI_UNIT ( $, .RADIAN. ) );
#176 =( LENGTH_UNIT ( ) NAMED_UNIT ( * ) SI_UNIT ( .MILLI., .METRE. ) );
#177 = OBJECT_ROLE ('mandatory',$ ) ;
#178 = APPLICATION_PROTOCOL_DEFINITION ( 'draft international standard', 'automotive_design', 1998, #71 ) ;
#179 = APPLICATION_PROTOCOL_DEFINITION ( 'draft international standard', 'automotive_design', 1998, #228 ) ;
#180 = DIRECTION ( 'NONE',  ( -0.9999999999999998890, 0.000000000000000000, -1.387778780781445676E-17 ) ) ;
#181 = SHAPE_DEFINITION_REPRESENTATION ( #215, #162 ) ;
#182 = EXTERNAL_SOURCE (IDENTIFIER('') ) ;
#183 = PRODUCT_DEFINITION_SHAPE ( 'NONE', 'NONE',  #138 ) ;
#184 = DIRECTION ( 'NONE',  ( 1.387778780781445676E-17, -6.938893903907228378E-18, 0.9999999999999996669 ) ) ;
#185 = APPLICATION_CONTEXT ( 'automotive_design' ) ;
#186 = ITEM_DEFINED_TRANSFORMATION ( 'NONE', 'NONE', #150,  #131 ) ;
#187 = ITEM_DEFINED_TRANSFORMATION ( 'NONE', 'NONE', #61,  #89 ) ;
#188 = APPLICATION_CONTEXT ( 'automotive_design' ) ;
#189 = APPLIED_DOCUMENT_REFERENCE ( #211,'',( #67) ) ;
#190 = AXIS2_PLACEMENT_3D ( 'NONE', #158, #238, #197 ) ;
#191 = APPLIED_DOCUMENT_REFERENCE ( #230,'',( #24) ) ;
#192 =( NAMED_UNIT ( * ) SI_UNIT ( $, .STERADIAN. ) SOLID_ANGLE_UNIT ( ) );
#193 = AXIS2_PLACEMENT_3D ( 'NONE', #59, #18, #194 ) ;
#194 = DIRECTION ( 'NONE',  ( 1.000000000000000000, 0.000000000000000000, 0.000000000000000000 ) ) ;
#195 = DIRECTION ( 'NONE',  ( 1.000000000000000000, 0.000000000000000000, 0.000000000000000000 ) ) ;
#196 = PRODUCT_DEFINITION_FORMATION_WITH_SPECIFIED_SOURCE ( 'å¯', '', #174, .NOT_KNOWN. ) ;
#197 = DIRECTION ( 'NONE',  ( 1.000000000000000000, 0.000000000000000000, 0.000000000000000000 ) ) ;
#198 = SHAPE_REPRESENTATION ( 'DC11_A01_HORN_INSERT_1', ( #89 ), #91 ) ;
#199 = SHAPE_DEFINITION_REPRESENTATION ( #78, #145 ) ;
#200 = UNCERTAINTY_MEASURE_WITH_UNIT (LENGTH_MEASURE( 1.000000000000000082E-05 ), #76, 'distance_accuracy_value', 'NONE');
#201 = APPLICATION_CONTEXT ( 'automotive_design' ) ;
#202 = SHAPE_REPRESENTATION ( 'DC11_A01_IDLER_SCREW', ( #131 ), #220 ) ;
#203 = APPLICATION_PROTOCOL_DEFINITION ( 'draft international standard', 'automotive_design', 1998, #168 ) ;
#204 = APPLICATION_PROTOCOL_DEFINITION ( 'draft international standard', 'automotive_design', 1998, #185 ) ;
#205 = CARTESIAN_POINT ( 'NONE',  ( 0.000000000000000000, -0.2000000000000022593, 0.000000000000000000 ) ) ;
#206 = PROPERTY_DEFINITION ('document property','', #109 ) ;
#207 = DOCUMENT_FILE ( 'M_DC11_A01_IDLER.STEP' , '', '', #85, '' ,$ ) ;
#208 = AXIS2_PLACEMENT_3D ( 'NONE', #224, #6, #180 ) ;
#209 = PRODUCT_RELATED_PRODUCT_CATEGORY ( 'part', '', ( #20 ) ) ;
#210 = ITEM_DEFINED_TRANSFORMATION ( 'NONE', 'NONE', #72,  #89 ) ;
#211 = DOCUMENT_FILE ( 'M_DC11_A01_IDLER_CAP.STEP' , '', '', #37, '' ,$ ) ;
#212 = APPLIED_DOCUMENT_REFERENCE ( #51,'',( #138) ) ;
#213 = PROPERTY_DEFINITION ('external definition','', #230 ) ;
#214 = IDENTIFICATION_ROLE ( 'external document id and location', $) ;
#215 = PRODUCT_DEFINITION_SHAPE ( 'NONE', 'NONE',  #14 ) ;
#216 = DIRECTION ( 'NONE',  ( 0.000000000000000000, 0.000000000000000000, 1.000000000000000000 ) ) ;
#217 =( NAMED_UNIT ( * ) PLANE_ANGLE_UNIT ( ) SI_UNIT ( $, .RADIAN. ) );
#218 = DIRECTION ( 'NONE',  ( -0.9999999999999998890, 0.000000000000000000, -1.387778780781445676E-17 ) ) ;
#219 = DOCUMENT_TYPE ( 'geometry' ) ;
#220 =( GEOMETRIC_REPRESENTATION_CONTEXT ( 3 ) GLOBAL_UNCERTAINTY_ASSIGNED_CONTEXT ( ( #106 ) ) GLOBAL_UNIT_ASSIGNED_CONTEXT ( ( #111, #217, #192 ) ) REPRESENTATION_CONTEXT ( 'NONE', 'WORKASPACE' ) );
#221 = DIRECTION ( 'NONE',  ( 1.387778780781445676E-17, -6.938893903907228378E-18, 0.9999999999999996669 ) ) ;
#222 = SHAPE_DEFINITION_REPRESENTATION ( #36, #118 ) ;
#223 = ITEM_DEFINED_TRANSFORMATION ( 'NONE', 'NONE', #208,  #89 ) ;
#224 = CARTESIAN_POINT ( 'NONE',  ( 8.000000000000007105, 3.469446951953614189E-15, 1.387778780781445676E-14 ) ) ;
#225 = APPLICATION_CONTEXT ( 'automotive_design' ) ;
#226 = CONTEXT_DEPENDENT_SHAPE_REPRESENTATION ( #132, #99 ) ;
#227 = DOCUMENT_FILE ( 'DC11_A01_HORN_INSERT_1.STEP' , '', '', #40, '' ,$ ) ;
#228 = APPLICATION_CONTEXT ( 'automotive_design' ) ;
#229 = PRODUCT_DEFINITION_SHAPE ( 'NONE', 'NONE',  #256 ) ;
#230 = DOCUMENT_FILE ( 'DC11_A01_HORN_INSERT_1.STEP' , '', '', #10, '' ,$ ) ;
#231 = CONTEXT_DEPENDENT_SHAPE_REPRESENTATION ( #128, #17 ) ;
#232 = PRODUCT_DEFINITION_FORMATION_WITH_SPECIFIED_SOURCE ( 'å¯', '', #39, .NOT_KNOWN. ) ;
#233 =( NAMED_UNIT ( * ) PLANE_ANGLE_UNIT ( ) SI_UNIT ( $, .RADIAN. ) );
#234 = PROPERTY_DEFINITION ('document property','', #51 ) ;
#235 = PRODUCT_DEFINITION ( 'æ™', '', #33, #139 ) ;
#236 = PRODUCT_DEFINITION_SHAPE ( 'NONE', 'NONE',  #255 ) ;
#237 = APPLIED_EXTERNAL_IDENTIFICATION_ASSIGNMENT ( 'DC11_A01_HORN_INSERT_1.STEP' , #38, #92,( #82) ) ;
#238 = DIRECTION ( 'NONE',  ( 0.000000000000000000, 0.000000000000000000, 1.000000000000000000 ) ) ;
#239 = PROPERTY_DEFINITION ('external definition','', #227 ) ;
#240 = OBJECT_ROLE ('mandatory',$ ) ;
#241 = APPLICATION_PROTOCOL_DEFINITION ( 'draft international standard', 'automotive_design', 1998, #21 ) ;
#242 = CARTESIAN_POINT ( 'NONE',  ( 6.938893903907228378E-15, 0.000000000000000000, 8.000000000000007105 ) ) ;
#243 = DIRECTION ( 'NONE',  ( 1.387778780781445676E-17, -6.938893903907228378E-18, 0.9999999999999996669 ) ) ;
#244 = PRODUCT_RELATED_PRODUCT_CATEGORY ( 'part', '', ( #50 ) ) ;
#245 =( REPRESENTATION_RELATIONSHIP ('NONE','NONE', #162, #198 ) REPRESENTATION_RELATIONSHIP_WITH_TRANSFORMATION ( #164 )SHAPE_REPRESENTATION_RELATIONSHIP( ) );
#246 = PROPERTY_DEFINITION_REPRESENTATION ( #112, #198 ) ;
#247 = ROLE_ASSOCIATION ( #110, #104 ) ;
#248 = CONTEXT_DEPENDENT_SHAPE_REPRESENTATION ( #245, #236 ) ;
#249 = ITEM_DEFINED_TRANSFORMATION ( 'NONE', 'NONE', #166,  #84 ) ;
#250 = DIRECTION ( 'NONE',  ( 0.000000000000000000, 0.000000000000000000, 1.000000000000000000 ) ) ;
#251 = NEXT_ASSEMBLY_USAGE_OCCURRENCE ( 'NAUO1', ' ', ' ', #14, #24, $ ) ;
#252 = NEXT_ASSEMBLY_USAGE_OCCURRENCE ( 'NAUO2', ' ', ' ', #14, #235, $ ) ;
#253 = NEXT_ASSEMBLY_USAGE_OCCURRENCE ( 'NAUO3', ' ', ' ', #14, #24, $ ) ;
#254 = NEXT_ASSEMBLY_USAGE_OCCURRENCE ( 'NAUO4', ' ', ' ', #14, #138, $ ) ;
#255 = NEXT_ASSEMBLY_USAGE_OCCURRENCE ( 'NAUO5', ' ', ' ', #14, #24, $ ) ;
#256 = NEXT_ASSEMBLY_USAGE_OCCURRENCE ( 'NAUO6', ' ', ' ', #14, #24, $ ) ;
#257 = NEXT_ASSEMBLY_USAGE_OCCURRENCE ( 'NAUO7', ' ', ' ', #14, #67, $ ) ;
ENDSEC;
END-ISO-10303-21;
