ISO-10303-21;
HEADER;
FILE_DESCRIPTION (( 'STEP AP214' ),
    '1' );
FILE_NAME ('M_DC11_A01_HORN_ASM.STEP',
    '2026-08-29T22:11:46',
    ( '' ),
    ( '' ),
    'SwSTEP 2.0',
    'SolidWorks 2023',
    '' );
FILE_SCHEMA (( 'AUTOMOTIVE_DESIGN' ));
ENDSEC;

DATA;
#1 = APPLIED_DOCUMENT_REFERENCE ( #29,'',( #94) ) ;
#2 = PROPERTY_DEFINITION ('external definition','', #131 ) ;
#3 = ROLE_ASSOCIATION ( #110, #115 ) ;
#4 = PRODUCT_DEFINITION_CONTEXT ( 'detailed design', #180, 'design' ) ;
#5 = PROPERTY_DEFINITION_REPRESENTATION ( #93, #18 ) ;
#6 = DIRECTION ( 'NONE',  ( 1.000000000000000000, 0.000000000000000000, 0.000000000000000000 ) ) ;
#7 = UNCERTAINTY_MEASURE_WITH_UNIT (LENGTH_MEASURE( 1.000000000000000082E-05 ), #77, 'distance_accuracy_value', 'NONE');
#8 = PRODUCT_RELATED_PRODUCT_CATEGORY ( 'part', '', ( #186 ) ) ;
#9 = PRODUCT_DEFINITION_FORMATION_WITH_SPECIFIED_SOURCE ( 'å¯', '', #147, .NOT_KNOWN. ) ;
#10 = PRODUCT_DEFINITION_SHAPE ( 'NONE', 'NONE',  #183 ) ;
#11 = DIRECTION ( 'NONE',  ( -0.9999999999999998890, 0.000000000000000000, -3.469446951953614189E-18 ) ) ;
#12 = APPLICATION_PROTOCOL_DEFINITION ( 'draft international standard', 'automotive_design', 1998, #136 ) ;
#13 = APPLICATION_PROTOCOL_DEFINITION ( 'draft international standard', 'automotive_design', 1998, #204 ) ;
#14 = PRODUCT_DEFINITION_SHAPE ( 'NONE', 'NONE',  #211 ) ;
#15 = APPLIED_DOCUMENT_REFERENCE ( #67,'',( #183) ) ;
#16 = SHAPE_DEFINITION_REPRESENTATION ( #127, #18 ) ;
#17 = ITEM_DEFINED_TRANSFORMATION ( 'NONE', 'NONE', #78,  #196 ) ;
#18 = SHAPE_REPRESENTATION ( 'DC11_A01_HORN_INSERT_1', ( #196 ), #192 ) ;
#19 = APPLICATION_CONTEXT ( 'automotive_design' ) ;
#20 = CARTESIAN_POINT ( 'NONE',  ( 6.938893903907228378E-15, 3.500000000000010214, 8.000000000000007105 ) ) ;
#21 =( NAMED_UNIT ( * ) PLANE_ANGLE_UNIT ( ) SI_UNIT ( $, .RADIAN. ) );
#22 = UNCERTAINTY_MEASURE_WITH_UNIT (LENGTH_MEASURE( 1.000000000000000082E-05 ), #56, 'distance_accuracy_value', 'NONE');
#23 = APPLIED_EXTERNAL_IDENTIFICATION_ASSIGNMENT ( 'DC11_A01_HORN_INSERT_1.STEP' , #82, #45,( #29) ) ;
#24 = PROPERTY_DEFINITION ('document property','', #87 ) ;
#25 = PRODUCT_CONTEXT ( 'NONE', #26, 'mechanical' ) ;
#26 = APPLICATION_CONTEXT ( 'automotive_design' ) ;
#27 = PROPERTY_DEFINITION ('document property','', #131 ) ;
#28 = EXTERNAL_SOURCE (IDENTIFIER('') ) ;
#29 = DOCUMENT_FILE ( 'DC11_A01_HORN_INSERT_1.STEP' , '', '', #92, '' ,$ ) ;
#30 = APPLIED_EXTERNAL_IDENTIFICATION_ASSIGNMENT ( 'M_DC11_A01_HORN.STEP' , #128, #51,( #67) ) ;
#31 = CONTEXT_DEPENDENT_SHAPE_REPRESENTATION ( #86, #108 ) ;
#32 = PROPERTY_DEFINITION_REPRESENTATION ( #44, #164 ) ;
#33 = APPLIED_DOCUMENT_REFERENCE ( #191,'',( #94) ) ;
#34 =( REPRESENTATION_RELATIONSHIP ('NONE','NONE', #38, #164 ) REPRESENTATION_RELATIONSHIP_WITH_TRANSFORMATION ( #157 )SHAPE_REPRESENTATION_RELATIONSHIP( ) );
#35 = APPLIED_EXTERNAL_IDENTIFICATION_ASSIGNMENT ( 'FHS_M2_5X06_NYLOK.STEP' , #122, #28,( #87) ) ;
#36 = IDENTIFICATION_ROLE ( 'external document id and location', $) ;
#37 = DIRECTION ( 'NONE',  ( 1.000000000000000000, 0.000000000000000000, 0.000000000000000000 ) ) ;
#38 = SHAPE_REPRESENTATION ( 'M_DC11_A01_HORN_ASM', ( #73, #65, #42, #54, #208, #105, #78 ), #205 ) ;
#39 = CARTESIAN_POINT ( 'NONE',  ( 0.000000000000000000, 0.000000000000000000, 0.000000000000000000 ) ) ;
#40 = PROPERTY_DEFINITION ('document property','', #191 ) ;
#41 =( LENGTH_UNIT ( ) NAMED_UNIT ( * ) SI_UNIT ( .MILLI., .METRE. ) );
#42 = AXIS2_PLACEMENT_3D ( 'NONE', #144, #90, #140 ) ;
#43 = APPLICATION_PROTOCOL_DEFINITION ( 'draft international standard', 'automotive_design', 1998, #194 ) ;
#44 = PROPERTY_DEFINITION ('external definition','', #87 ) ;
#45 = EXTERNAL_SOURCE (IDENTIFIER('') ) ;
#46 = DIRECTION ( 'NONE',  ( -0.9999999999999998890, 0.000000000000000000, -3.469446951953614189E-18 ) ) ;
#47 = DOCUMENT_TYPE ( 'geometry' ) ;
#48 = CARTESIAN_POINT ( 'NONE',  ( 0.000000000000000000, 0.000000000000000000, 0.000000000000000000 ) ) ;
#49 = APPLICATION_PROTOCOL_DEFINITION ( 'draft international standard', 'automotive_design', 1998, #120 ) ;
#50 = PROPERTY_DEFINITION_REPRESENTATION ( #154, #139 ) ;
#51 = EXTERNAL_SOURCE (IDENTIFIER('') ) ;
#52 = ITEM_DEFINED_TRANSFORMATION ( 'NONE', 'NONE', #208,  #196 ) ;
#53 = ROLE_ASSOCIATION ( #103, #104 ) ;
#54 = AXIS2_PLACEMENT_3D ( 'NONE', #206, #97, #11 ) ;
#55 = IDENTIFICATION_ROLE ( 'external document id and location', $) ;
#56 =( LENGTH_UNIT ( ) NAMED_UNIT ( * ) SI_UNIT ( .MILLI., .METRE. ) );
#57 = PRODUCT_DEFINITION_CONTEXT ( 'detailed design', #194, 'design' ) ;
#58 = OBJECT_ROLE ('mandatory',$ ) ;
#59 = PROPERTY_DEFINITION ('external definition','', #29 ) ;
#60 =( LENGTH_UNIT ( ) NAMED_UNIT ( * ) SI_UNIT ( .MILLI., .METRE. ) );
#61 = APPLIED_EXTERNAL_IDENTIFICATION_ASSIGNMENT ( 'DC11_A01_HORN_INSERT_1.STEP' , #148, #190,( #191) ) ;
#62 = CARTESIAN_POINT ( 'NONE',  ( 0.000000000000000000, 3.950000000000001954, 1.387778780781445676E-14 ) ) ;
#63 = OBJECT_ROLE ('mandatory',$ ) ;
#64 = CARTESIAN_POINT ( 'NONE',  ( -8.000000000000000000, 3.500000000000010214, 1.387778780781445676E-14 ) ) ;
#65 = AXIS2_PLACEMENT_3D ( 'NONE', #75, #70, #129 ) ;
#66 = CONTEXT_DEPENDENT_SHAPE_REPRESENTATION ( #199, #182 ) ;
#67 = DOCUMENT_FILE ( 'M_DC11_A01_HORN.STEP' , '', '', #69, '' ,$ ) ;
#68 = APPLIED_EXTERNAL_IDENTIFICATION_ASSIGNMENT ( 'DC11_A01_HORN_INSERT_1.STEP' , #36, #107,( #113) ) ;
#69 = DOCUMENT_TYPE ( 'geometry' ) ;
#70 = DIRECTION ( 'NONE',  ( 3.469446951953614189E-18, 0.000000000000000000, 0.9999999999999998890 ) ) ;
#71 = EXTERNAL_SOURCE (IDENTIFIER('') ) ;
#72 =( NAMED_UNIT ( * ) PLANE_ANGLE_UNIT ( ) SI_UNIT ( $, .RADIAN. ) );
#73 = AXIS2_PLACEMENT_3D ( 'NONE', #48, #185, #109 ) ;
#74 = PROPERTY_DEFINITION ('document property','', #113 ) ;
#75 = CARTESIAN_POINT ( 'NONE',  ( 0.000000000000000000, 3.499999999999989342, -8.000000000000007105 ) ) ;
#76 = CARTESIAN_POINT ( 'NONE',  ( 0.000000000000000000, 0.000000000000000000, 0.000000000000000000 ) ) ;
#77 =( LENGTH_UNIT ( ) NAMED_UNIT ( * ) SI_UNIT ( .MILLI., .METRE. ) );
#78 = AXIS2_PLACEMENT_3D ( 'NONE', #20, #153, #46 ) ;
#79 = APPLICATION_PROTOCOL_DEFINITION ( 'draft international standard', 'automotive_design', 1998, #106 ) ;
#80 = APPLICATION_PROTOCOL_DEFINITION ( 'draft international standard', 'automotive_design', 1998, #26 ) ;
#81 = PROPERTY_DEFINITION ('document property','', #29 ) ;
#82 = IDENTIFICATION_ROLE ( 'external document id and location', $) ;
#83 =( NAMED_UNIT ( * ) SI_UNIT ( $, .STERADIAN. ) SOLID_ANGLE_UNIT ( ) );
#84 = ITEM_DEFINED_TRANSFORMATION ( 'NONE', 'NONE', #65,  #196 ) ;
#85 = CONTEXT_DEPENDENT_SHAPE_REPRESENTATION ( #162, #95 ) ;
#86 =( REPRESENTATION_RELATIONSHIP ('NONE','NONE', #38, #139 ) REPRESENTATION_RELATIONSHIP_WITH_TRANSFORMATION ( #187 )SHAPE_REPRESENTATION_RELATIONSHIP( ) );
#87 = DOCUMENT_FILE ( 'FHS_M2_5X06_NYLOK.STEP' , '', '', #141, '' ,$ ) ;
#88 = PROPERTY_DEFINITION_REPRESENTATION ( #59, #18 ) ;
#89 = PRODUCT_DEFINITION_CONTEXT ( 'detailed design', #120, 'design' ) ;
#90 = DIRECTION ( 'NONE',  ( 3.469446951953614189E-18, 0.000000000000000000, 0.9999999999999998890 ) ) ;
#91 = UNCERTAINTY_MEASURE_WITH_UNIT (LENGTH_MEASURE( 1.000000000000000082E-05 ), #60, 'distance_accuracy_value', 'NONE');
#92 = DOCUMENT_TYPE ( 'geometry' ) ;
#93 = PROPERTY_DEFINITION ('external definition','', #191 ) ;
#94 = PRODUCT_DEFINITION ( 'æ™', '', #9, #89 ) ;
#95 = PRODUCT_DEFINITION_SHAPE ( 'NONE', 'NONE',  #209 ) ;
#96 = SHAPE_DEFINITION_REPRESENTATION ( #10, #139 ) ;
#97 = DIRECTION ( 'NONE',  ( 3.469446951953614189E-18, 0.000000000000000000, 0.9999999999999998890 ) ) ;
#98 = PRODUCT_RELATED_PRODUCT_CATEGORY ( 'part', '', ( #167 ) ) ;
#99 = CONTEXT_DEPENDENT_SHAPE_REPRESENTATION ( #202, #14 ) ;
#100 = ITEM_DEFINED_TRANSFORMATION ( 'NONE', 'NONE', #54,  #196 ) ;
#101 = PROPERTY_DEFINITION_REPRESENTATION ( #24, #164 ) ;
#102 = PROPERTY_DEFINITION_REPRESENTATION ( #165, #139 ) ;
#103 = OBJECT_ROLE ('mandatory',$ ) ;
#104 = APPLIED_DOCUMENT_REFERENCE ( #87,'',( #137) ) ;
#105 = AXIS2_PLACEMENT_3D ( 'NONE', #62, #126, #149 ) ;
#106 = APPLICATION_CONTEXT ( 'automotive_design' ) ;
#107 = EXTERNAL_SOURCE (IDENTIFIER('') ) ;
#108 = PRODUCT_DEFINITION_SHAPE ( 'NONE', 'NONE',  #210 ) ;
#109 = DIRECTION ( 'NONE',  ( 1.000000000000000000, 0.000000000000000000, 0.000000000000000000 ) ) ;
#110 = OBJECT_ROLE ('mandatory',$ ) ;
#111 = DIRECTION ( 'NONE',  ( -0.9999999999999998890, 0.000000000000000000, -3.469446951953614189E-18 ) ) ;
#112 = PRODUCT_RELATED_PRODUCT_CATEGORY ( 'part', '', ( #147 ) ) ;
#113 = DOCUMENT_FILE ( 'DC11_A01_HORN_INSERT_1.STEP' , '', '', #47, '' ,$ ) ;
#114 = PRODUCT_DEFINITION_FORMATION_WITH_SPECIFIED_SOURCE ( 'å¯', '', #186, .NOT_KNOWN. ) ;
#115 = APPLIED_DOCUMENT_REFERENCE ( #113,'',( #94) ) ;
#116 = CONTEXT_DEPENDENT_SHAPE_REPRESENTATION ( #34, #150 ) ;
#117 = PROPERTY_DEFINITION_REPRESENTATION ( #2, #18 ) ;
#118 = PROPERTY_DEFINITION_REPRESENTATION ( #27, #18 ) ;
#119 =( NAMED_UNIT ( * ) PLANE_ANGLE_UNIT ( ) SI_UNIT ( $, .RADIAN. ) );
#120 = APPLICATION_CONTEXT ( 'automotive_design' ) ;
#121 =( NAMED_UNIT ( * ) SI_UNIT ( $, .STERADIAN. ) SOLID_ANGLE_UNIT ( ) );
#122 = IDENTIFICATION_ROLE ( 'external document id and location', $) ;
#123 = DIRECTION ( 'NONE',  ( 0.000000000000000000, 0.000000000000000000, 1.000000000000000000 ) ) ;
#124 = PRODUCT_DEFINITION_SHAPE ( 'NONE', 'NONE',  #214 ) ;
#125 =( NAMED_UNIT ( * ) PLANE_ANGLE_UNIT ( ) SI_UNIT ( $, .RADIAN. ) );
#126 = DIRECTION ( 'NONE',  ( 3.469446951953614189E-18, 0.000000000000000000, 0.9999999999999998890 ) ) ;
#127 = PRODUCT_DEFINITION_SHAPE ( 'NONE', 'NONE',  #94 ) ;
#128 = IDENTIFICATION_ROLE ( 'external document id and location', $) ;
#129 = DIRECTION ( 'NONE',  ( -0.9999999999999998890, 0.000000000000000000, -3.469446951953614189E-18 ) ) ;
#130 = SHAPE_DEFINITION_REPRESENTATION ( #200, #38 ) ;
#131 = DOCUMENT_FILE ( 'DC11_A01_HORN_INSERT_1.STEP' , '', '', #203, '' ,$ ) ;
#132 =( GEOMETRIC_REPRESENTATION_CONTEXT ( 3 ) GLOBAL_UNCERTAINTY_ASSIGNED_CONTEXT ( ( #91 ) ) GLOBAL_UNIT_ASSIGNED_CONTEXT ( ( #60, #72, #121 ) ) REPRESENTATION_CONTEXT ( 'NONE', 'WORKASPACE' ) );
#133 = PRODUCT_DEFINITION_CONTEXT ( 'detailed design', #106, 'design' ) ;
#134 = CONTEXT_DEPENDENT_SHAPE_REPRESENTATION ( #156, #124 ) ;
#135 = PROPERTY_DEFINITION_REPRESENTATION ( #40, #18 ) ;
#136 = APPLICATION_CONTEXT ( 'automotive_design' ) ;
#137 = PRODUCT_DEFINITION ( 'æ™', '', #181, #4 ) ;
#138 =( GEOMETRIC_REPRESENTATION_CONTEXT ( 3 ) GLOBAL_UNCERTAINTY_ASSIGNED_CONTEXT ( ( #22 ) ) GLOBAL_UNIT_ASSIGNED_CONTEXT ( ( #56, #119, #179 ) ) REPRESENTATION_CONTEXT ( 'NONE', 'WORKASPACE' ) );
#139 = SHAPE_REPRESENTATION ( 'M_DC11_A01_HORN', ( #146 ), #138 ) ;
#140 = DIRECTION ( 'NONE',  ( 0.9999999999999998890, 0.000000000000000000, 3.469446951953614189E-18 ) ) ;
#141 = DOCUMENT_TYPE ( 'geometry' ) ;
#142 = CARTESIAN_POINT ( 'NONE',  ( 0.000000000000000000, 0.000000000000000000, 0.000000000000000000 ) ) ;
#143 = PRODUCT_DEFINITION ( 'æ™', '', #195, #57 ) ;
#144 = CARTESIAN_POINT ( 'NONE',  ( 0.000000000000000000, 0.000000000000000000, 0.000000000000000000 ) ) ;
#145 = DIRECTION ( 'NONE',  ( 0.000000000000000000, 0.000000000000000000, 1.000000000000000000 ) ) ;
#146 = AXIS2_PLACEMENT_3D ( 'NONE', #76, #145, #6 ) ;
#147 = PRODUCT ( 'DC11_A01_HORN_INSERT_1', 'DC11_A01_HORN_INSERT_1', '', ( #201 ) ) ;
#148 = IDENTIFICATION_ROLE ( 'external document id and location', $) ;
#149 = DIRECTION ( 'NONE',  ( 0.9999999999999998890, 0.000000000000000000, 3.469446951953614189E-18 ) ) ;
#150 = PRODUCT_DEFINITION_SHAPE ( 'NONE', 'NONE',  #213 ) ;
#151 = OBJECT_ROLE ('mandatory',$ ) ;
#152 = APPLIED_EXTERNAL_IDENTIFICATION_ASSIGNMENT ( 'DC11_A01_HORN_INSERT_1.STEP' , #55, #71,( #131) ) ;
#153 = DIRECTION ( 'NONE',  ( 3.469446951953614189E-18, 0.000000000000000000, 0.9999999999999998890 ) ) ;
#154 = PROPERTY_DEFINITION ('document property','', #67 ) ;
#155 = PROPERTY_DEFINITION_REPRESENTATION ( #74, #18 ) ;
#156 =( REPRESENTATION_RELATIONSHIP ('NONE','NONE', #38, #18 ) REPRESENTATION_RELATIONSHIP_WITH_TRANSFORMATION ( #17 )SHAPE_REPRESENTATION_RELATIONSHIP( ) );
#157 = ITEM_DEFINED_TRANSFORMATION ( 'NONE', 'NONE', #105,  #176 ) ;
#158 = ROLE_ASSOCIATION ( #58, #15 ) ;
#159 = DIRECTION ( 'NONE',  ( 0.000000000000000000, 0.000000000000000000, 1.000000000000000000 ) ) ;
#160 = APPLICATION_PROTOCOL_DEFINITION ( 'draft international standard', 'automotive_design', 1998, #19 ) ;
#161 = PROPERTY_DEFINITION ('external definition','', #113 ) ;
#162 =( REPRESENTATION_RELATIONSHIP ('NONE','NONE', #38, #18 ) REPRESENTATION_RELATIONSHIP_WITH_TRANSFORMATION ( #84 )SHAPE_REPRESENTATION_RELATIONSHIP( ) );
#163 = PRODUCT_CONTEXT ( 'NONE', #19, 'mechanical' ) ;
#164 = SHAPE_REPRESENTATION ( 'FHS_M2_5X06_NYLOK', ( #176 ), #132 ) ;
#165 = PROPERTY_DEFINITION ('external definition','', #67 ) ;
#166 = SHAPE_DEFINITION_REPRESENTATION ( #172, #164 ) ;
#167 = PRODUCT ( 'FHS_M2_5X06_NYLOK', 'FHS_M2_5X06_NYLOK', '', ( #25 ) ) ;
#168 = OBJECT_ROLE ('mandatory',$ ) ;
#169 = DIRECTION ( 'NONE',  ( 3.469446951953614189E-18, 0.000000000000000000, 0.9999999999999998890 ) ) ;
#170 = PRODUCT_RELATED_PRODUCT_CATEGORY ( 'part', '', ( #198 ) ) ;
#171 = PROPERTY_DEFINITION_REPRESENTATION ( #81, #18 ) ;
#172 = PRODUCT_DEFINITION_SHAPE ( 'NONE', 'NONE',  #137 ) ;
#173 = ROLE_ASSOCIATION ( #151, #189 ) ;
#174 = UNCERTAINTY_MEASURE_WITH_UNIT (LENGTH_MEASURE( 1.000000000000000082E-05 ), #41, 'distance_accuracy_value', 'NONE');
#175 = ROLE_ASSOCIATION ( #63, #1 ) ;
#176 = AXIS2_PLACEMENT_3D ( 'NONE', #39, #159, #193 ) ;
#177 = ROLE_ASSOCIATION ( #168, #33 ) ;
#178 = DOCUMENT_TYPE ( 'geometry' ) ;
#179 =( NAMED_UNIT ( * ) SI_UNIT ( $, .STERADIAN. ) SOLID_ANGLE_UNIT ( ) );
#180 = APPLICATION_CONTEXT ( 'automotive_design' ) ;
#181 = PRODUCT_DEFINITION_FORMATION_WITH_SPECIFIED_SOURCE ( 'å¯', '', #167, .NOT_KNOWN. ) ;
#182 = PRODUCT_DEFINITION_SHAPE ( 'NONE', 'NONE',  #212 ) ;
#183 = PRODUCT_DEFINITION ( 'æ™', '', #114, #133 ) ;
#184 = PRODUCT_CONTEXT ( 'NONE', #136, 'mechanical' ) ;
#185 = DIRECTION ( 'NONE',  ( 0.000000000000000000, 0.000000000000000000, 1.000000000000000000 ) ) ;
#186 = PRODUCT ( 'M_DC11_A01_HORN', 'M_DC11_A01_HORN', '', ( #184 ) ) ;
#187 = ITEM_DEFINED_TRANSFORMATION ( 'NONE', 'NONE', #42,  #146 ) ;
#188 = PROPERTY_DEFINITION_REPRESENTATION ( #161, #18 ) ;
#189 = APPLIED_DOCUMENT_REFERENCE ( #131,'',( #94) ) ;
#190 = EXTERNAL_SOURCE (IDENTIFIER('') ) ;
#191 = DOCUMENT_FILE ( 'DC11_A01_HORN_INSERT_1.STEP' , '', '', #178, '' ,$ ) ;
#192 =( GEOMETRIC_REPRESENTATION_CONTEXT ( 3 ) GLOBAL_UNCERTAINTY_ASSIGNED_CONTEXT ( ( #174 ) ) GLOBAL_UNIT_ASSIGNED_CONTEXT ( ( #41, #21, #207 ) ) REPRESENTATION_CONTEXT ( 'NONE', 'WORKASPACE' ) );
#193 = DIRECTION ( 'NONE',  ( 1.000000000000000000, 0.000000000000000000, 0.000000000000000000 ) ) ;
#194 = APPLICATION_CONTEXT ( 'automotive_design' ) ;
#195 = PRODUCT_DEFINITION_FORMATION_WITH_SPECIFIED_SOURCE ( 'å¯', '', #198, .NOT_KNOWN. ) ;
#196 = AXIS2_PLACEMENT_3D ( 'NONE', #142, #123, #37 ) ;
#197 = APPLICATION_PROTOCOL_DEFINITION ( 'draft international standard', 'automotive_design', 1998, #180 ) ;
#198 = PRODUCT ( 'M_DC11_A01_HORN_ASM', 'M_DC11_A01_HORN_ASM', '', ( #163 ) ) ;
#199 =( REPRESENTATION_RELATIONSHIP ('NONE','NONE', #38, #18 ) REPRESENTATION_RELATIONSHIP_WITH_TRANSFORMATION ( #52 )SHAPE_REPRESENTATION_RELATIONSHIP( ) );
#200 = PRODUCT_DEFINITION_SHAPE ( 'NONE', 'NONE',  #143 ) ;
#201 = PRODUCT_CONTEXT ( 'NONE', #204, 'mechanical' ) ;
#202 =( REPRESENTATION_RELATIONSHIP ('NONE','NONE', #38, #18 ) REPRESENTATION_RELATIONSHIP_WITH_TRANSFORMATION ( #100 )SHAPE_REPRESENTATION_RELATIONSHIP( ) );
#203 = DOCUMENT_TYPE ( 'geometry' ) ;
#204 = APPLICATION_CONTEXT ( 'automotive_design' ) ;
#205 =( GEOMETRIC_REPRESENTATION_CONTEXT ( 3 ) GLOBAL_UNCERTAINTY_ASSIGNED_CONTEXT ( ( #7 ) ) GLOBAL_UNIT_ASSIGNED_CONTEXT ( ( #77, #125, #83 ) ) REPRESENTATION_CONTEXT ( 'NONE', 'WORKASPACE' ) );
#206 = CARTESIAN_POINT ( 'NONE',  ( 7.999999999999996447, 3.500000000000003109, 0.000000000000000000 ) ) ;
#207 =( NAMED_UNIT ( * ) SI_UNIT ( $, .STERADIAN. ) SOLID_ANGLE_UNIT ( ) );
#208 = AXIS2_PLACEMENT_3D ( 'NONE', #64, #169, #111 ) ;
#209 = NEXT_ASSEMBLY_USAGE_OCCURRENCE ( 'NAUO8', ' ', ' ', #143, #94, $ ) ;
#210 = NEXT_ASSEMBLY_USAGE_OCCURRENCE ( 'NAUO9', ' ', ' ', #143, #183, $ ) ;
#211 = NEXT_ASSEMBLY_USAGE_OCCURRENCE ( 'NAUO10', ' ', ' ', #143, #94, $ ) ;
#212 = NEXT_ASSEMBLY_USAGE_OCCURRENCE ( 'NAUO11', ' ', ' ', #143, #94, $ ) ;
#213 = NEXT_ASSEMBLY_USAGE_OCCURRENCE ( 'NAUO12', ' ', ' ', #143, #137, $ ) ;
#214 = NEXT_ASSEMBLY_USAGE_OCCURRENCE ( 'NAUO13', ' ', ' ', #143, #94, $ ) ;
ENDSEC;
END-ISO-10303-21;
