ISO-10303-21;
HEADER;
FILE_DESCRIPTION (( 'STEP AP214' ),
    '1' );
FILE_NAME ('subÖ§³Å¼þ.STEP',
    '2026-08-29T22:11:47',
    ( '' ),
    ( '' ),
    'SwSTEP 2.0',
    'SolidWorks 2023',
    '' );
FILE_SCHEMA (( 'AUTOMOTIVE_DESIGN' ));
ENDSEC;

DATA;
#1 = VECTOR ( 'NONE', #157, 1000.000000000000000 ) ;
#2 = VERTEX_POINT ( 'NONE', #14 ) ;
#3 = CARTESIAN_POINT ( 'NONE',  ( 0.000000000000000000, 35.25000000000000000, 7.500000000000000000 ) ) ;
#4 = EDGE_CURVE ( 'NONE', #80, #86, #529, .T. ) ;
#5 = LINE ( 'NONE', #166, #394 ) ;
#6 = DIRECTION ( 'NONE',  ( 3.469446951953614189E-16, -1.000000000000000000, 0.000000000000000000 ) ) ;
#7 = CARTESIAN_POINT ( 'NONE',  ( 0.000000000000000000, 0.000000000000000000, 0.000000000000000000 ) ) ;
#8 = PRODUCT_DEFINITION_SHAPE ( 'NONE', 'NONE',  #630 ) ;
#9 = ORIENTED_EDGE ( 'NONE', *, *, #281, .F. ) ;
#10 = ADVANCED_FACE ( 'NONE', ( #123, #273 ), #333, .F. ) ;
#11 = CIRCLE ( 'NONE', #274, 1.000000000000000888 ) ;
#12 = VECTOR ( 'NONE', #56, 1000.000000000000000 ) ;
#13 = LINE ( 'NONE', #433, #265 ) ;
#14 = CARTESIAN_POINT ( 'NONE',  ( -11.04894348370429391, 1.000000000002532419, 7.190983005622442192 ) ) ;
#15 = LINE ( 'NONE', #174, #659 ) ;
#16 = CARTESIAN_POINT ( 'NONE',  ( -11.99999999999944933, 1.000000000002533529, 7.499999999997390532 ) ) ;
#17 = ADVANCED_FACE ( 'NONE', ( #382 ), #280, .F. ) ;
#18 = PLANE ( 'NONE',  #550 ) ;
#19 = DIRECTION ( 'NONE',  ( 3.854941057726235139E-16, -1.000000000000000000, 0.000000000000000000 ) ) ;
#20 = AXIS2_PLACEMENT_3D ( 'NONE', #246, #621, #404 ) ;
#21 = CARTESIAN_POINT ( 'NONE',  ( 0.000000000000000000, 42.75000000000000000, 15.00000000000000000 ) ) ;
#22 = CARTESIAN_POINT ( 'NONE',  ( -9.999999999999998224, 27.75000000000000355, 15.00000000000000000 ) ) ;
#23 = DIRECTION ( 'NONE',  ( 0.000000000000000000, 0.000000000000000000, -1.000000000000000000 ) ) ;
#24 = CARTESIAN_POINT ( 'NONE',  ( -9.005012562893380590, 37.85000000000000142, 7.500000000000000000 ) ) ;
#25 = DIRECTION ( 'NONE',  ( 3.854941057726235139E-16, -1.000000000000000000, 0.000000000000000000 ) ) ;
#26 = ORIENTED_EDGE ( 'NONE', *, *, #40, .F. ) ;
#27 = CARTESIAN_POINT ( 'NONE',  ( 0.000000000000000000, 0.000000000000000000, 0.000000000000000000 ) ) ;
#28 = DIRECTION ( 'NONE',  ( -1.000000000000000000, -3.469446951953615175E-16, 0.000000000000000000 ) ) ;
#29 = CARTESIAN_POINT ( 'NONE',  ( 0.000000000000000000, 0.000000000000000000, 0.000000000000000000 ) ) ;
#30 = EDGE_CURVE ( 'NONE', #561, #346, #657, .T. ) ;
#31 = VERTEX_POINT ( 'NONE', #226 ) ;
#32 = PRESENTATION_LAYER_ASSIGNMENT (  '', '', ( #406 ) ) ;
#33 = FACE_OUTER_BOUND ( 'NONE', #672, .T. ) ;
#34 = CYLINDRICAL_SURFACE ( 'NONE', #601, 1.000000000000001332 ) ;
#35 = AXIS2_PLACEMENT_3D ( 'NONE', #339, #600, #23 ) ;
#36 = VERTEX_POINT ( 'NONE', #590 ) ;
#37 = CARTESIAN_POINT ( 'NONE',  ( -10.00000000000000178, 39.75000000000000000, 12.00000000000000000 ) ) ;
#38 = CARTESIAN_POINT ( 'NONE',  ( -8.000000000000000000, 35.25000000000000000, 7.500000000000000000 ) ) ;
#39 = EDGE_LOOP ( 'NONE', ( #675, #190 ) ) ;
#40 = EDGE_CURVE ( 'NONE', #632, #640, #585, .T. ) ;
#41 = DIRECTION ( 'NONE',  ( 0.000000000000000000, 1.000000000000000000, 0.000000000000000000 ) ) ;
#42 = ORIENTED_EDGE ( 'NONE', *, *, #206, .F. ) ;
#43 = CARTESIAN_POINT ( 'NONE',  ( -11.99999999999944933, 1.000000000002533529, 7.499999999997390532 ) ) ;
#44 = ORIENTED_EDGE ( 'NONE', *, *, #175, .T. ) ;
#45 = DIRECTION ( 'NONE',  ( -0.000000000000000000, -0.000000000000000000, -1.000000000000000000 ) ) ;
#46 = CIRCLE ( 'NONE', #428, 3.000000000000002665 ) ;
#47 = ADVANCED_FACE ( 'NONE', ( #645 ), #179, .F. ) ;
#48 = TOROIDAL_SURFACE ( 'NONE', #431, 3.599999999999999201, 1.000000000000000000 ) ;
#49 =( LENGTH_UNIT ( ) NAMED_UNIT ( * ) SI_UNIT ( .MILLI., .METRE. ) );
#50 = ORIENTED_EDGE ( 'NONE', *, *, #334, .F. ) ;
#51 = DIRECTION ( 'NONE',  ( 0.000000000000000000, 0.000000000000000000, 1.000000000000000000 ) ) ;
#52 = ORIENTED_EDGE ( 'NONE', *, *, #309, .T. ) ;
#53 = ORIENTED_EDGE ( 'NONE', *, *, #338, .T. ) ;
#54 = DIRECTION ( 'NONE',  ( 3.854941057726235139E-16, -1.000000000000000000, 0.000000000000000000 ) ) ;
#55 = VERTEX_POINT ( 'NONE', #480 ) ;
#56 = DIRECTION ( 'NONE',  ( 3.469446951953614189E-16, -1.000000000000000000, 0.000000000000000000 ) ) ;
#57 = CIRCLE ( 'NONE', #321, 3.500000000000003109 ) ;
#58 = CARTESIAN_POINT ( 'NONE',  ( -10.00000000000000178, 39.75000000000000000, 2.999999999999999112 ) ) ;
#59 = DIRECTION ( 'NONE',  ( -1.000000000000000000, -3.469446951953615175E-16, -0.000000000000000000 ) ) ;
#60 = FACE_OUTER_BOUND ( 'NONE', #407, .T. ) ;
#61 = EDGE_CURVE ( 'NONE', #555, #105, #478, .T. ) ;
#62 = CARTESIAN_POINT ( 'NONE',  ( -11.99999999999944933, 1.000000000002533529, 7.499999999997390532 ) ) ;
#63 = DIRECTION ( 'NONE',  ( 1.000000000000000000, -0.000000000000000000, -0.000000000000000000 ) ) ;
#64 = ORIENTED_EDGE ( 'NONE', *, *, #245, .F. ) ;
#65 = AXIS2_PLACEMENT_3D ( 'NONE', #90, #225, #436 ) ;
#66 = DIRECTION ( 'NONE',  ( 0.000000000000000000, 1.000000000000000000, -0.000000000000000000 ) ) ;
#67 = EDGE_LOOP ( 'NONE', ( #305, #575, #176, #42 ) ) ;
#68 = EDGE_CURVE ( 'NONE', #263, #2, #320, .T. ) ;
#69 = LINE ( 'NONE', #7, #200 ) ;
#70 = ORIENTED_EDGE ( 'NONE', *, *, #477, .T. ) ;
#71 = ADVANCED_FACE ( 'NONE', ( #666, #138 ), #599, .T. ) ;
#72 = EDGE_CURVE ( 'NONE', #86, #632, #472, .T. ) ;
#73 = CARTESIAN_POINT ( 'NONE',  ( -9.999999999999998224, 27.75000000000000355, 0.000000000000000000 ) ) ;
#74 = DIRECTION ( 'NONE',  ( 3.469446951953615175E-16, -1.000000000000000000, 0.000000000000000000 ) ) ;
#75 = PRODUCT ( 'sub\X2\652f64914ef6\X0\', 'sub\X2\652f64914ef6\X0\', '', ( #570 ) ) ;
#76 = VECTOR ( 'NONE', #402, 1000.000000000000000 ) ;
#77 = CARTESIAN_POINT ( 'NONE',  ( -12.95105651629459587, -5.000000000000000000, 7.809016994372363740 ) ) ;
#78 = VECTOR ( 'NONE', #669, 1000.000000000000000 ) ;
#79 = DIRECTION ( 'NONE',  ( 0.000000000000000000, -1.000000000000000000, 0.000000000000000000 ) ) ;
#80 = VERTEX_POINT ( 'NONE', #490 ) ;
#81 = CARTESIAN_POINT ( 'NONE',  ( 0.000000000000000000, 39.75000000000000000, 15.00000000000000000 ) ) ;
#82 = ORIENTED_EDGE ( 'NONE', *, *, #262, .T. ) ;
#83 = DIRECTION ( 'NONE',  ( -1.000000000000000000, -3.469446951953615175E-16, -0.000000000000000000 ) ) ;
#84 = EDGE_CURVE ( 'NONE', #522, #528, #300, .T. ) ;
#85 = CARTESIAN_POINT ( 'NONE',  ( -8.000000000000000000, 35.25000000000000000, 7.500000000000000000 ) ) ;
#86 = VERTEX_POINT ( 'NONE', #24 ) ;
#87 = CARTESIAN_POINT ( 'NONE',  ( 0.000000000000000000, 35.25000000000000000, 7.500000000000000000 ) ) ;
#88 = ORIENTED_EDGE ( 'NONE', *, *, #361, .F. ) ;
#89 = CIRCLE ( 'NONE', #592, 2.599999999999998312 ) ;
#90 = CARTESIAN_POINT ( 'NONE',  ( 0.000000000000000000, 42.75000000000000000, 15.00000000000000000 ) ) ;
#91 = CIRCLE ( 'NONE', #464, 2.599999999999999201 ) ;
#92 = DIRECTION ( 'NONE',  ( -1.000000000000000000, -3.469446951953615175E-16, -0.000000000000000000 ) ) ;
#93 = ORIENTED_EDGE ( 'NONE', *, *, #84, .T. ) ;
#94 = EDGE_CURVE ( 'NONE', #640, #168, #504, .T. ) ;
#95 = CARTESIAN_POINT ( 'NONE',  ( -10.00000000000000000, 35.25000000000000000, 7.500000000000000000 ) ) ;
#96 = CARTESIAN_POINT ( 'NONE',  ( -9.005012562893378814, 35.25000000000000000, 7.500000000000000000 ) ) ;
#97 = ORIENTED_EDGE ( 'NONE', *, *, #231, .T. ) ;
#98 = ORIENTED_EDGE ( 'NONE', *, *, #72, .F. ) ;
#99 = EDGE_CURVE ( 'NONE', #346, #155, #293, .T. ) ;
#100 = FACE_OUTER_BOUND ( 'NONE', #360, .T. ) ;
#101 = ORIENTED_EDGE ( 'NONE', *, *, #547, .T. ) ;
#102 = DIRECTION ( 'NONE',  ( 3.469446951953614189E-16, -1.000000000000000000, 0.000000000000000000 ) ) ;
#103 = AXIS2_PLACEMENT_3D ( 'NONE', #29, #373, #159 ) ;
#104 =( NAMED_UNIT ( * ) SI_UNIT ( $, .STERADIAN. ) SOLID_ANGLE_UNIT ( ) );
#105 = VERTEX_POINT ( 'NONE', #22 ) ;
#106 = CARTESIAN_POINT ( 'NONE',  ( -12.95105651629459409, 1.000000000002534639, 7.809016994372363740 ) ) ;
#107 = EDGE_LOOP ( 'NONE', ( #161, #136, #302, #266 ) ) ;
#108 = CYLINDRICAL_SURFACE ( 'NONE', #111, 3.500000000000003109 ) ;
#109 = CIRCLE ( 'NONE', #318, 3.000000000000000000 ) ;
#110 = VECTOR ( 'NONE', #457, 1000.000000000000000 ) ;
#111 = AXIS2_PLACEMENT_3D ( 'NONE', #366, #211, #153 ) ;
#112 = ADVANCED_FACE ( 'NONE', ( #336 ), #184, .F. ) ;
#113 = CARTESIAN_POINT ( 'NONE',  ( -10.00000000000000355, 42.75000000000000000, 12.00000000000000000 ) ) ;
#114 = CARTESIAN_POINT ( 'NONE',  ( -9.999999999999987566, -3.469446951953609850E-15, 15.00000000000000000 ) ) ;
#115 = CARTESIAN_POINT ( 'NONE',  ( -20.00000000000000000, 0.000000000000000000, 0.000000000000000000 ) ) ;
#116 = VERTEX_POINT ( 'NONE', #549 ) ;
#117 = DIRECTION ( 'NONE',  ( 4.956352788505158337E-16, -1.000000000000000000, 0.000000000000000000 ) ) ;
#118 = DIRECTION ( 'NONE',  ( -0.9510565162951534202, 1.140636888587407583E-15, 0.3090169943749477288 ) ) ;
#119 = AXIS2_PLACEMENT_3D ( 'NONE', #656, #187, #397 ) ;
#120 = VECTOR ( 'NONE', #536, 1000.000000000000000 ) ;
#121 = AXIS2_PLACEMENT_3D ( 'NONE', #232, #335, #347 ) ;
#122 = FACE_BOUND ( 'NONE', #422, .T. ) ;
#123 = FACE_BOUND ( 'NONE', #308, .T. ) ;
#124 = EDGE_CURVE ( 'NONE', #105, #617, #233, .T. ) ;
#125 = CARTESIAN_POINT ( 'NONE',  ( 6.123254115260540545E-16, -5.000000000000000000, 15.00000000000000000 ) ) ;
#126 = CARTESIAN_POINT ( 'NONE',  ( -20.00000000000000000, 0.000000000000000000, 15.00000000000000000 ) ) ;
#127 = CYLINDRICAL_SURFACE ( 'NONE', #35, 2.599999999999999201 ) ;
#128 = CARTESIAN_POINT ( 'NONE',  ( -8.000000000000001776, 39.75000000000000711, 7.500000000000000888 ) ) ;
#129 = ORIENTED_EDGE ( 'NONE', *, *, #72, .T. ) ;
#130 = CIRCLE ( 'NONE', #462, 4.500000000000003553 ) ;
#131 = EDGE_CURVE ( 'NONE', #209, #152, #607, .T. ) ;
#132 = LINE ( 'NONE', #662, #284 ) ;
#133 = AXIS2_PLACEMENT_3D ( 'NONE', #325, #588, #117 ) ;
#134 = DIRECTION ( 'NONE',  ( 6.672013369141570147E-16, -1.000000000000000000, 0.000000000000000000 ) ) ;
#135 =( LENGTH_UNIT ( ) NAMED_UNIT ( * ) SI_UNIT ( .MILLI., .METRE. ) );
#136 = ORIENTED_EDGE ( 'NONE', *, *, #245, .T. ) ;
#137 = CARTESIAN_POINT ( 'NONE',  ( -20.00000000000000000, -5.000000000000000000, 15.00000000000000000 ) ) ;
#138 = FACE_OUTER_BOUND ( 'NONE', #252, .T. ) ;
#139 = ORIENTED_EDGE ( 'NONE', *, *, #196, .F. ) ;
#140 = LINE ( 'NONE', #652, #238 ) ;
#141 = DIRECTION ( 'NONE',  ( -1.000000000000000000, -3.469446951953615175E-16, -0.000000000000000000 ) ) ;
#142 = EDGE_CURVE ( 'NONE', #31, #80, #237, .T. ) ;
#143 = ORIENTED_EDGE ( 'NONE', *, *, #142, .F. ) ;
#144 = AXIS2_PLACEMENT_3D ( 'NONE', #27, #548, #596 ) ;
#145 = DIRECTION ( 'NONE',  ( 5.097628891843051002E-16, -1.000000000000000000, 5.260067361018133052E-15 ) ) ;
#146 = AXIS2_PLACEMENT_3D ( 'NONE', #151, #258, #314 ) ;
#147 =( NAMED_UNIT ( * ) PLANE_ANGLE_UNIT ( ) SI_UNIT ( $, .RADIAN. ) );
#148 = ORIENTED_EDGE ( 'NONE', *, *, #511, .F. ) ;
#149 = ADVANCED_FACE ( 'NONE', ( #648 ), #345, .F. ) ;
#150 = ORIENTED_EDGE ( 'NONE', *, *, #563, .F. ) ;
#151 = CARTESIAN_POINT ( 'NONE',  ( -11.99999999999943689, -5.000000000000000000, 7.499999999997430500 ) ) ;
#152 = VERTEX_POINT ( 'NONE', #602 ) ;
#153 = DIRECTION ( 'NONE',  ( 4.956352788505158337E-16, -1.000000000000000000, 0.000000000000000000 ) ) ;
#154 = DIRECTION ( 'NONE',  ( 0.9510565162951534202, -1.084202172485503054E-15, -0.3090169943749479509 ) ) ;
#155 = VERTEX_POINT ( 'NONE', #296 ) ;
#156 = EDGE_CURVE ( 'NONE', #514, #55, #557, .T. ) ;
#157 = DIRECTION ( 'NONE',  ( 5.097628891843051002E-16, -1.000000000000000000, 5.260067361018133052E-15 ) ) ;
#158 = AXIS2_PLACEMENT_3D ( 'NONE', #16, #389, #118 ) ;
#159 = DIRECTION ( 'NONE',  ( 1.000000000000000000, 0.000000000000000000, 0.000000000000000000 ) ) ;
#160 = EDGE_LOOP ( 'NONE', ( #148, #608, #370, #315 ) ) ;
#161 = ORIENTED_EDGE ( 'NONE', *, *, #386, .F. ) ;
#162 = DIRECTION ( 'NONE',  ( -1.000000000000000000, -3.469446951953614189E-16, 0.000000000000000000 ) ) ;
#163 = CARTESIAN_POINT ( 'NONE',  ( -9.005012562893378814, 35.25000000000000000, 7.500000000000000000 ) ) ;
#164 = EDGE_CURVE ( 'NONE', #617, #581, #405, .T. ) ;
#165 = CARTESIAN_POINT ( 'NONE',  ( 0.000000000000000000, 35.25000000000000000, 4.900000000000000355 ) ) ;
#166 = CARTESIAN_POINT ( 'NONE',  ( -20.00000000000000000, -5.000000000000000000, 15.00000000000000000 ) ) ;
#167 = CIRCLE ( 'NONE', #210, 1.000000000000001332 ) ;
#168 = VERTEX_POINT ( 'NONE', #290 ) ;
#169 = VECTOR ( 'NONE', #323, 1000.000000000000000 ) ;
#170 = DIRECTION ( 'NONE',  ( -1.000000000000000000, -3.469446951953614189E-16, 0.000000000000000000 ) ) ;
#171 = ORIENTED_EDGE ( 'NONE', *, *, #469, .F. ) ;
#172 = CARTESIAN_POINT ( 'NONE',  ( -9.999999999999987566, -3.469446951953609850E-15, 15.00000000000000000 ) ) ;
#173 = DIRECTION ( 'NONE',  ( 0.000000000000000000, 0.000000000000000000, 1.000000000000000000 ) ) ;
#174 = CARTESIAN_POINT ( 'NONE',  ( 6.123254115260540545E-16, -5.000000000000000000, 15.00000000000000000 ) ) ;
#175 = EDGE_CURVE ( 'NONE', #155, #622, #285, .T. ) ;
#176 = ORIENTED_EDGE ( 'NONE', *, *, #215, .F. ) ;
#177 = VECTOR ( 'NONE', #83, 1000.000000000000000 ) ;
#178 = PLANE ( 'NONE',  #144 ) ;
#179 = CYLINDRICAL_SURFACE ( 'NONE', #331, 4.500000000000003553 ) ;
#180 = CARTESIAN_POINT ( 'NONE',  ( -20.00000000000000355, 0.000000000000000000, 15.00000000000000000 ) ) ;
#181 = CARTESIAN_POINT ( 'NONE',  ( -20.00000000000000000, 0.000000000000000000, 15.00000000000000000 ) ) ;
#182 = ADVANCED_FACE ( 'NONE', ( #502 ), #34, .F. ) ;
#183 = FACE_OUTER_BOUND ( 'NONE', #495, .T. ) ;
#184 = CYLINDRICAL_SURFACE ( 'NONE', #356, 1.000000000000001332 ) ;
#185 = ORIENTED_EDGE ( 'NONE', *, *, #461, .T. ) ;
#186 = EDGE_CURVE ( 'NONE', #561, #622, #192, .T. ) ;
#187 = DIRECTION ( 'NONE',  ( -1.000000000000000000, 0.000000000000000000, 0.000000000000000000 ) ) ;
#188 = VECTOR ( 'NONE', #512, 1000.000000000000000 ) ;
#189 = DIRECTION ( 'NONE',  ( 0.9510565162951534202, -1.734723475976804728E-15, -0.3090169943749479509 ) ) ;
#190 = ORIENTED_EDGE ( 'NONE', *, *, #197, .T. ) ;
#191 = CARTESIAN_POINT ( 'NONE',  ( 0.000000000000000000, 0.000000000000000000, 15.00000000000000000 ) ) ;
#192 = LINE ( 'NONE', #611, #376 ) ;
#193 = ORIENTED_EDGE ( 'NONE', *, *, #164, .F. ) ;
#194 = FACE_OUTER_BOUND ( 'NONE', #613, .T. ) ;
#195 = CARTESIAN_POINT ( 'NONE',  ( 0.000000000000000000, 0.000000000000000000, 15.00000000000000000 ) ) ;
#196 = EDGE_CURVE ( 'NONE', #346, #561, #341, .T. ) ;
#197 = EDGE_CURVE ( 'NONE', #571, #244, #11, .T. ) ;
#198 = EDGE_LOOP ( 'NONE', ( #399, #465 ) ) ;
#199 = ORIENTED_EDGE ( 'NONE', *, *, #530, .T. ) ;
#200 = VECTOR ( 'NONE', #66, 1000.000000000000000 ) ;
#201 = DIRECTION ( 'NONE',  ( 4.956352788505158337E-16, -1.000000000000000000, 0.000000000000000000 ) ) ;
#202 = FACE_OUTER_BOUND ( 'NONE', #454, .T. ) ;
#203 = ORIENTED_EDGE ( 'NONE', *, *, #68, .T. ) ;
#204 = ORIENTED_EDGE ( 'NONE', *, *, #638, .T. ) ;
#205 = CARTESIAN_POINT ( 'NONE',  ( -9.005012562893378814, 35.25000000000000000, 7.500000000000000000 ) ) ;
#206 = EDGE_CURVE ( 'NONE', #2, #244, #413, .T. ) ;
#207 = ORIENTED_EDGE ( 'NONE', *, *, #156, .T. ) ;
#208 = DIRECTION ( 'NONE',  ( -1.000000000000000000, -3.469446951953615175E-16, 0.000000000000000000 ) ) ;
#209 = VERTEX_POINT ( 'NONE', #520 ) ;
#210 = AXIS2_PLACEMENT_3D ( 'NONE', #43, #145, #154 ) ;
#211 = DIRECTION ( 'NONE',  ( -1.000000000000000000, -3.469446951953615175E-16, -0.000000000000000000 ) ) ;
#212 = ORIENTED_EDGE ( 'NONE', *, *, #4, .F. ) ;
#213 = ORIENTED_EDGE ( 'NONE', *, *, #427, .T. ) ;
#214 = DIRECTION ( 'NONE',  ( 0.000000000000000000, 0.000000000000000000, -1.000000000000000000 ) ) ;
#215 = EDGE_CURVE ( 'NONE', #244, #571, #625, .T. ) ;
#216 = LINE ( 'NONE', #115, #439 ) ;
#217 = EDGE_LOOP ( 'NONE', ( #212, #185, #355, #9, #98 ) ) ;
#218 = AXIS2_PLACEMENT_3D ( 'NONE', #85, #234, #618 ) ;
#219 = CIRCLE ( 'NONE', #603, 3.500000000000003109 ) ;
#220 = LINE ( 'NONE', #277, #583 ) ;
#221 = CARTESIAN_POINT ( 'NONE',  ( 0.000000000000000000, 0.000000000000000000, 15.00000000000000000 ) ) ;
#222 = ADVANCED_FACE ( 'NONE', ( #264 ), #108, .T. ) ;
#223 = DIRECTION ( 'NONE',  ( -3.469446951953614189E-16, 1.000000000000000000, 0.000000000000000000 ) ) ;
#224 = ORIENTED_EDGE ( 'NONE', *, *, #646, .T. ) ;
#225 = DIRECTION ( 'NONE',  ( 0.000000000000000000, -1.000000000000000000, 0.000000000000000000 ) ) ;
#226 = CARTESIAN_POINT ( 'NONE',  ( -8.000000000000001776, 38.75000000000000711, 7.500000000000000000 ) ) ;
#227 = ORIENTED_EDGE ( 'NONE', *, *, #638, .F. ) ;
#228 = AXIS2_PLACEMENT_3D ( 'NONE', #484, #278, #324 ) ;
#229 = AXIS2_PLACEMENT_3D ( 'NONE', #526, #368, #249 ) ;
#230 = PLANE ( 'NONE',  #539 ) ;
#231 = EDGE_CURVE ( 'NONE', #403, #80, #531, .T. ) ;
#232 = CARTESIAN_POINT ( 'NONE',  ( 0.000000000000000000, 39.75000000000000000, 12.00000000000000000 ) ) ;
#233 = LINE ( 'NONE', #398, #110 ) ;
#234 = DIRECTION ( 'NONE',  ( -1.000000000000000000, -3.469446951953615175E-16, -0.000000000000000000 ) ) ;
#235 = ORIENTED_EDGE ( 'NONE', *, *, #156, .F. ) ;
#236 = DIRECTION ( 'NONE',  ( -1.000000000000000000, -3.469446951953615175E-16, -0.000000000000000000 ) ) ;
#237 = LINE ( 'NONE', #392, #482 ) ;
#238 = VECTOR ( 'NONE', #388, 1000.000000000000000 ) ;
#239 = ORIENTED_EDGE ( 'NONE', *, *, #309, .F. ) ;
#240 = AXIS2_PLACEMENT_3D ( 'NONE', #487, #322, #19 ) ;
#241 = FACE_OUTER_BOUND ( 'NONE', #624, .T. ) ;
#242 = VECTOR ( 'NONE', #271, 1000.000000000000000 ) ;
#243 = DIRECTION ( 'NONE',  ( 0.9510565162951534202, -1.734723475976804728E-15, -0.3090169943749479509 ) ) ;
#244 = VERTEX_POINT ( 'NONE', #627 ) ;
#245 = EDGE_CURVE ( 'NONE', #410, #116, #261, .T. ) ;
#246 = CARTESIAN_POINT ( 'NONE',  ( 0.000000000000000000, -5.000000000000000000, 15.00000000000000000 ) ) ;
#247 = DIRECTION ( 'NONE',  ( 1.000000000000000000, 0.000000000000000000, 0.000000000000000000 ) ) ;
#248 = VERTEX_POINT ( 'NONE', #316 ) ;
#249 = DIRECTION ( 'NONE',  ( 0.000000000000000000, 0.000000000000000000, -1.000000000000000000 ) ) ;
#250 = CYLINDRICAL_SURFACE ( 'NONE', #218, 3.500000000000003109 ) ;
#251 = ORIENTED_EDGE ( 'NONE', *, *, #131, .F. ) ;
#252 = EDGE_LOOP ( 'NONE', ( #415, #510 ) ) ;
#253 = AXIS2_PLACEMENT_3D ( 'NONE', #493, #28, #447 ) ;
#254 = CARTESIAN_POINT ( 'NONE',  ( -9.999999999999998224, 27.75000000000000355, 15.00000000000000000 ) ) ;
#255 = ADVANCED_FACE ( 'NONE', ( #100 ), #363, .F. ) ;
#256 =( NAMED_UNIT ( * ) PLANE_ANGLE_UNIT ( ) SI_UNIT ( $, .RADIAN. ) );
#257 = EDGE_LOOP ( 'NONE', ( #578, #667, #193, #673 ) ) ;
#258 = DIRECTION ( 'NONE',  ( 0.000000000000000000, 1.000000000000000000, 0.000000000000000000 ) ) ;
#259 = CARTESIAN_POINT ( 'NONE',  ( -9.999999999999998224, 30.75000000000000000, 7.500000000000000000 ) ) ;
#260 = ORIENTED_EDGE ( 'NONE', *, *, #530, .F. ) ;
#261 = LINE ( 'NONE', #371, #188 ) ;
#262 = EDGE_CURVE ( 'NONE', #544, #467, #576, .T. ) ;
#263 = VERTEX_POINT ( 'NONE', #106 ) ;
#264 = FACE_OUTER_BOUND ( 'NONE', #626, .T. ) ;
#265 = VECTOR ( 'NONE', #267, 1000.000000000000000 ) ;
#266 = ORIENTED_EDGE ( 'NONE', *, *, #131, .T. ) ;
#267 = DIRECTION ( 'NONE',  ( -0.000000000000000000, -0.000000000000000000, -1.000000000000000000 ) ) ;
#268 = DIRECTION ( 'NONE',  ( 3.854941057726235139E-16, -1.000000000000000000, 0.000000000000000000 ) ) ;
#269 = CARTESIAN_POINT ( 'NONE',  ( -17.70131456073558240, 6.378852093958768954, 15.00000000000000000 ) ) ;
#270 = ORIENTED_EDGE ( 'NONE', *, *, #338, .F. ) ;
#271 = DIRECTION ( 'NONE',  ( 1.000000000000000000, 0.000000000000000000, 0.000000000000000000 ) ) ;
#272 = AXIS2_PLACEMENT_3D ( 'NONE', #598, #610, #440 ) ;
#273 = FACE_OUTER_BOUND ( 'NONE', #538, .T. ) ;
#274 = AXIS2_PLACEMENT_3D ( 'NONE', #304, #41, #51 ) ;
#275 = EDGE_CURVE ( 'NONE', #514, #544, #569, .T. ) ;
#276 = AXIS2_PLACEMENT_3D ( 'NONE', #269, #639, #332 ) ;
#277 = CARTESIAN_POINT ( 'NONE',  ( -20.00000000000000355, 35.25000000000000000, 10.09999999999999787 ) ) ;
#278 = DIRECTION ( 'NONE',  ( 4.248847104521534583E-32, -1.224646799147353207E-16, 1.000000000000000000 ) ) ;
#279 = CARTESIAN_POINT ( 'NONE',  ( -9.999999999999998224, 31.75000000000000000, 7.500000000000000000 ) ) ;
#280 = PLANE ( 'NONE',  #158 ) ;
#281 = EDGE_CURVE ( 'NONE', #632, #248, #387, .T. ) ;
#282 = CARTESIAN_POINT ( 'NONE',  ( -7.999999999999998224, 31.75000000000000000, 7.500000000000000000 ) ) ;
#283 = DIRECTION ( 'NONE',  ( -1.000000000000000000, 0.000000000000000000, 0.000000000000000000 ) ) ;
#284 = VECTOR ( 'NONE', #344, 1000.000000000000000 ) ;
#285 = CIRCLE ( 'NONE', #253, 4.500000000000003553 ) ;
#286 = TOROIDAL_SURFACE ( 'NONE', #409, 3.599999999999999201, 1.000000000000000000 ) ;
#287 = CARTESIAN_POINT ( 'NONE',  ( -7.999999999999998224, 30.75000000000000000, 7.500000000000000000 ) ) ;
#288 = UNCERTAINTY_MEASURE_WITH_UNIT (LENGTH_MEASURE( 1.000000000000000082E-05 ), #49, 'distance_accuracy_value', 'NONE');
#289 = EDGE_CURVE ( 'NONE', #31, #306, #57, .T. ) ;
#290 = CARTESIAN_POINT ( 'NONE',  ( 0.000000000000000000, 35.25000000000000000, 10.09999999999999964 ) ) ;
#291 = ADVANCED_BREP_SHAPE_REPRESENTATION ( 'sub\X2\652f64914ef6\X0\', ( #634, #103 ), #393 ) ;
#292 = ORIENTED_EDGE ( 'NONE', *, *, #142, .T. ) ;
#293 = LINE ( 'NONE', #128, #177 ) ;
#294 = ORIENTED_EDGE ( 'NONE', *, *, #4, .T. ) ;
#295 = CARTESIAN_POINT ( 'NONE',  ( 0.000000000000000000, 39.75000000000000000, 2.999999999999999112 ) ) ;
#296 = CARTESIAN_POINT ( 'NONE',  ( -10.00000000000000178, 39.75000000000000711, 7.500000000000000888 ) ) ;
#297 = EDGE_CURVE ( 'NONE', #168, #640, #91, .T. ) ;
#298 = ORIENTED_EDGE ( 'NONE', *, *, #378, .F. ) ;
#299 = DIRECTION ( 'NONE',  ( 1.000000000000000000, 0.000000000000000000, 0.000000000000000000 ) ) ;
#300 = LINE ( 'NONE', #195, #76 ) ;
#301 = DIRECTION ( 'NONE',  ( -1.000000000000000000, -3.469446951953614189E-16, 0.000000000000000000 ) ) ;
#302 = ORIENTED_EDGE ( 'NONE', *, *, #563, .T. ) ;
#303 = DIRECTION ( 'NONE',  ( -5.782411586589351722E-16, 1.000000000000000000, 0.000000000000000000 ) ) ;
#304 = CARTESIAN_POINT ( 'NONE',  ( -11.99999999999943689, -5.000000000000000000, 7.499999999997430500 ) ) ;
#305 = ORIENTED_EDGE ( 'NONE', *, *, #68, .F. ) ;
#306 = VERTEX_POINT ( 'NONE', #411 ) ;
#307 = FACE_BOUND ( 'NONE', #39, .T. ) ;
#308 = EDGE_LOOP ( 'NONE', ( #568, #567 ) ) ;
#309 = EDGE_CURVE ( 'NONE', #105, #544, #674, .T. ) ;
#310 = CARTESIAN_POINT ( 'NONE',  ( -9.999999999999987566, -3.469446951953609850E-15, 0.000000000000000000 ) ) ;
#311 = ORIENTED_EDGE ( 'NONE', *, *, #417, .F. ) ;
#312 = CIRCLE ( 'NONE', #133, 3.500000000000003109 ) ;
#313 = ORIENTED_EDGE ( 'NONE', *, *, #361, .T. ) ;
#314 = DIRECTION ( 'NONE',  ( 0.000000000000000000, 0.000000000000000000, 1.000000000000000000 ) ) ;
#315 = ORIENTED_EDGE ( 'NONE', *, *, #197, .F. ) ;
#316 = CARTESIAN_POINT ( 'NONE',  ( -9.005012562893377037, 32.65000000000000568, 7.500000000000000000 ) ) ;
#317 = ADVANCED_FACE ( 'NONE', ( #466 ), #286, .T. ) ;
#318 = AXIS2_PLACEMENT_3D ( 'NONE', #295, #501, #352 ) ;
#319 = CARTESIAN_POINT ( 'NONE',  ( -9.005012562893378814, 35.25000000000000000, 7.500000000000000000 ) ) ;
#320 = CIRCLE ( 'NONE', #517, 1.000000000000001332 ) ;
#321 = AXIS2_PLACEMENT_3D ( 'NONE', #475, #523, #201 ) ;
#322 = DIRECTION ( 'NONE',  ( -1.000000000000000000, -3.469446951953615175E-16, 0.000000000000000000 ) ) ;
#323 = DIRECTION ( 'NONE',  ( -0.000000000000000000, -0.000000000000000000, -1.000000000000000000 ) ) ;
#324 = DIRECTION ( 'NONE',  ( 0.000000000000000000, -1.000000000000000000, 0.000000000000000000 ) ) ;
#325 = CARTESIAN_POINT ( 'NONE',  ( -10.00000000000000000, 35.25000000000000000, 7.500000000000000000 ) ) ;
#326 = EDGE_CURVE ( 'NONE', #617, #467, #679, .T. ) ;
#327 = ORIENTED_EDGE ( 'NONE', *, *, #582, .T. ) ;
#328 = DIRECTION ( 'NONE',  ( 0.000000000000000000, -0.000000000000000000, -1.000000000000000000 ) ) ;
#329 = AXIS2_PLACEMENT_3D ( 'NONE', #38, #340, #74 ) ;
#330 = ORIENTED_EDGE ( 'NONE', *, *, #275, .F. ) ;
#331 = AXIS2_PLACEMENT_3D ( 'NONE', #534, #59, #268 ) ;
#332 = DIRECTION ( 'NONE',  ( 0.3390195746018525025, 0.9407793195201406000, 0.000000000000000000 ) ) ;
#333 = PLANE ( 'NONE',  #448 ) ;
#334 = EDGE_CURVE ( 'NONE', #248, #377, #357, .T. ) ;
#335 = DIRECTION ( 'NONE',  ( 1.000000000000000000, 0.000000000000000000, 0.000000000000000000 ) ) ;
#336 = FACE_OUTER_BOUND ( 'NONE', #160, .T. ) ;
#337 = APPLICATION_CONTEXT ( 'automotive_design' ) ;
#338 = EDGE_CURVE ( 'NONE', #668, #36, #535, .T. ) ;
#339 = CARTESIAN_POINT ( 'NONE',  ( -20.00000000000000355, 35.25000000000000000, 7.500000000000000000 ) ) ;
#340 = DIRECTION ( 'NONE',  ( -1.000000000000000000, -3.469446951953615175E-16, 0.000000000000000000 ) ) ;
#341 = CIRCLE ( 'NONE', #430, 4.500000000000003553 ) ;
#342 = VECTOR ( 'NONE', #45, 1000.000000000000000 ) ;
#343 = ORIENTED_EDGE ( 'NONE', *, *, #629, .T. ) ;
#344 = DIRECTION ( 'NONE',  ( -1.000000000000000000, 0.000000000000000000, 0.000000000000000000 ) ) ;
#345 = PLANE ( 'NONE',  #671 ) ;
#346 = VERTEX_POINT ( 'NONE', #383 ) ;
#347 = DIRECTION ( 'NONE',  ( 0.000000000000000000, 0.000000000000000000, -1.000000000000000000 ) ) ;
#348 = DIRECTION ( 'NONE',  ( 0.000000000000000000, 0.000000000000000000, -1.000000000000000000 ) ) ;
#349 = EDGE_CURVE ( 'NONE', #581, #522, #641, .T. ) ;
#350 = DIRECTION ( 'NONE',  ( -1.000000000000000000, -3.469446951953615175E-16, 0.000000000000000000 ) ) ;
#351 = ORIENTED_EDGE ( 'NONE', *, *, #661, .F. ) ;
#352 = DIRECTION ( 'NONE',  ( 0.000000000000000000, 0.000000000000000000, 1.000000000000000000 ) ) ;
#353 = DIRECTION ( 'NONE',  ( 5.097628891843051002E-16, -1.000000000000000000, 5.260067361018133052E-15 ) ) ;
#354 = COLOUR_RGB ( '',0.7921568627450980005, 0.8196078431372548767, 0.9333333333333333481 ) ;
#355 = ORIENTED_EDGE ( 'NONE', *, *, #469, .T. ) ;
#356 = AXIS2_PLACEMENT_3D ( 'NONE', #443, #353, #243 ) ;
#357 = CIRCLE ( 'NONE', #474, 2.599999999999998312 ) ;
#358 = FILL_AREA_STYLE_COLOUR ( '', #354 ) ;
#359 = DIRECTION ( 'NONE',  ( -1.000000000000000000, -3.469446951953615175E-16, 0.000000000000000000 ) ) ;
#360 = EDGE_LOOP ( 'NONE', ( #453, #655, #129, #463, #609 ) ) ;
#361 = EDGE_CURVE ( 'NONE', #36, #55, #69, .T. ) ;
#362 = ORIENTED_EDGE ( 'NONE', *, *, #164, .T. ) ;
#363 = CYLINDRICAL_SURFACE ( 'NONE', #229, 2.599999999999999201 ) ;
#364 = SURFACE_STYLE_FILL_AREA ( #614 ) ;
#365 = ORIENTED_EDGE ( 'NONE', *, *, #582, .F. ) ;
#366 = CARTESIAN_POINT ( 'NONE',  ( -8.000000000000000000, 35.25000000000000000, 7.500000000000000000 ) ) ;
#367 = ORIENTED_EDGE ( 'NONE', *, *, #297, .T. ) ;
#368 = DIRECTION ( 'NONE',  ( 1.000000000000000000, -0.000000000000000000, -0.000000000000000000 ) ) ;
#369 = DIRECTION ( 'NONE',  ( -1.000000000000000000, -3.469446951953614189E-16, 0.000000000000000000 ) ) ;
#370 = ORIENTED_EDGE ( 'NONE', *, *, #206, .T. ) ;
#371 = CARTESIAN_POINT ( 'NONE',  ( 0.000000000000000000, 42.75000000000000000, 12.00000000000000000 ) ) ;
#372 = EDGE_CURVE ( 'NONE', #377, #168, #220, .T. ) ;
#373 = DIRECTION ( 'NONE',  ( 0.000000000000000000, 0.000000000000000000, 1.000000000000000000 ) ) ;
#374 = CARTESIAN_POINT ( 'NONE',  ( 0.000000000000000000, -5.000000000000000000, 0.000000000000000000 ) ) ;
#375 = DIRECTION ( 'NONE',  ( -0.000000000000000000, -0.000000000000000000, -1.000000000000000000 ) ) ;
#376 = VECTOR ( 'NONE', #141, 1000.000000000000000 ) ;
#377 = VERTEX_POINT ( 'NONE', #379 ) ;
#378 = EDGE_CURVE ( 'NONE', #152, #514, #562, .T. ) ;
#379 = CARTESIAN_POINT ( 'NONE',  ( -9.005012562893378814, 35.25000000000000000, 10.09999999999999964 ) ) ;
#380 = ORIENTED_EDGE ( 'NONE', *, *, #485, .T. ) ;
#381 = DIRECTION ( 'NONE',  ( -1.000000000000000000, -3.469446951953614189E-16, 0.000000000000000000 ) ) ;
#382 = FACE_OUTER_BOUND ( 'NONE', #519, .T. ) ;
#383 = CARTESIAN_POINT ( 'NONE',  ( -8.000000000000001776, 39.75000000000000711, 7.500000000000000888 ) ) ;
#384 = AXIS2_PLACEMENT_3D ( 'NONE', #87, #247, #348 ) ;
#385 = ORIENTED_EDGE ( 'NONE', *, *, #124, .F. ) ;
#386 = EDGE_CURVE ( 'NONE', #410, #152, #13, .T. ) ;
#387 = CIRCLE ( 'NONE', #636, 2.599999999999998312 ) ;
#388 = DIRECTION ( 'NONE',  ( 5.097628891843051002E-16, -1.000000000000000000, 5.260067361018133052E-15 ) ) ;
#389 = DIRECTION ( 'NONE',  ( -5.097628891843063821E-16, 1.000000000000000000, -5.260067361018132263E-15 ) ) ;
#390 = DIRECTION ( 'NONE',  ( 0.9510565162951534202, -1.084202172485503054E-15, -0.3090169943749479509 ) ) ;
#391 = FACE_OUTER_BOUND ( 'NONE', #564, .T. ) ;
#392 = CARTESIAN_POINT ( 'NONE',  ( -8.000000000000001776, 38.75000000000000711, 7.500000000000000000 ) ) ;
#393 =( GEOMETRIC_REPRESENTATION_CONTEXT ( 3 ) GLOBAL_UNCERTAINTY_ASSIGNED_CONTEXT ( ( #533 ) ) GLOBAL_UNIT_ASSIGNED_CONTEXT ( ( #135, #147, #513 ) ) REPRESENTATION_CONTEXT ( 'NONE', 'WORKASPACE' ) );
#394 = VECTOR ( 'NONE', #375, 1000.000000000000000 ) ;
#395 = ORIENTED_EDGE ( 'NONE', *, *, #334, .T. ) ;
#396 = ADVANCED_FACE ( 'NONE', ( #60 ), #537, .F. ) ;
#397 = DIRECTION ( 'NONE',  ( 0.000000000000000000, 0.000000000000000000, 1.000000000000000000 ) ) ;
#398 = CARTESIAN_POINT ( 'NONE',  ( -17.70131456073558240, 6.378852093958768954, 15.00000000000000000 ) ) ;
#399 = ORIENTED_EDGE ( 'NONE', *, *, #477, .F. ) ;
#400 = ORIENTED_EDGE ( 'NONE', *, *, #281, .T. ) ;
#401 = CYLINDRICAL_SURFACE ( 'NONE', #272, 4.500000000000003553 ) ;
#402 = DIRECTION ( 'NONE',  ( 0.000000000000000000, 1.000000000000000000, -0.000000000000000000 ) ) ;
#403 = VERTEX_POINT ( 'NONE', #279 ) ;
#404 = DIRECTION ( 'NONE',  ( 0.000000000000000000, -0.000000000000000000, 1.000000000000000000 ) ) ;
#405 = LINE ( 'NONE', #126, #489 ) ;
#406 = STYLED_ITEM ( 'NONE', ( #459 ), #634 ) ;
#407 = EDGE_LOOP ( 'NONE', ( #82, #664, #385, #52 ) ) ;
#408 = AXIS2_PLACEMENT_3D ( 'NONE', #441, #560, #134 ) ;
#409 = AXIS2_PLACEMENT_3D ( 'NONE', #205, #623, #102 ) ;
#410 = VERTEX_POINT ( 'NONE', #113 ) ;
#411 = CARTESIAN_POINT ( 'NONE',  ( -7.999999999999998224, 31.75000000000000000, 7.500000000000000000 ) ) ;
#412 = ORIENTED_EDGE ( 'NONE', *, *, #378, .T. ) ;
#413 = LINE ( 'NONE', #676, #1 ) ;
#414 = CARTESIAN_POINT ( 'NONE',  ( -9.005012562893378814, 35.25000000000000000, 4.900000000000000355 ) ) ;
#415 = ORIENTED_EDGE ( 'NONE', *, *, #30, .T. ) ;
#416 = EDGE_LOOP ( 'NONE', ( #97, #294, #351, #50, #171 ) ) ;
#417 = EDGE_CURVE ( 'NONE', #467, #668, #216, .T. ) ;
#418 = CIRCLE ( 'NONE', #594, 2.999999999999999112 ) ;
#419 = CARTESIAN_POINT ( 'NONE',  ( -9.005012562893378814, 35.25000000000000000, 7.500000000000000000 ) ) ;
#420 = APPLICATION_PROTOCOL_DEFINITION ( 'draft international standard', 'automotive_design', 1998, #337 ) ;
#421 = CARTESIAN_POINT ( 'NONE',  ( -20.00000000000000355, 0.000000000000000000, 0.000000000000000000 ) ) ;
#422 = EDGE_LOOP ( 'NONE', ( #677, #525 ) ) ;
#423 = ORIENTED_EDGE ( 'NONE', *, *, #372, .T. ) ;
#424 = DIRECTION ( 'NONE',  ( -1.000000000000000000, 0.000000000000000000, 0.000000000000000000 ) ) ;
#425 = PRODUCT_DEFINITION_CONTEXT ( 'detailed design', #649, 'design' ) ;
#426 = ORIENTED_EDGE ( 'NONE', *, *, #349, .T. ) ;
#427 = EDGE_CURVE ( 'NONE', #522, #36, #15, .T. ) ;
#428 = AXIS2_PLACEMENT_3D ( 'NONE', #37, #369, #303 ) ;
#429 = DIRECTION ( 'NONE',  ( 3.469446951953614189E-16, -1.000000000000000000, 0.000000000000000000 ) ) ;
#430 = AXIS2_PLACEMENT_3D ( 'NONE', #468, #359, #54 ) ;
#431 = AXIS2_PLACEMENT_3D ( 'NONE', #163, #381, #429 ) ;
#432 = ORIENTED_EDGE ( 'NONE', *, *, #262, .F. ) ;
#433 = CARTESIAN_POINT ( 'NONE',  ( -10.00000000000000355, 42.75000000000000000, 15.00000000000000000 ) ) ;
#434 = ORIENTED_EDGE ( 'NONE', *, *, #461, .F. ) ;
#435 = CARTESIAN_POINT ( 'NONE',  ( -8.000000000000000000, 35.25000000000000000, 7.500000000000000000 ) ) ;
#436 = DIRECTION ( 'NONE',  ( 0.000000000000000000, -0.000000000000000000, -1.000000000000000000 ) ) ;
#437 = VECTOR ( 'NONE', #498, 1000.000000000000000 ) ;
#438 = CARTESIAN_POINT ( 'NONE',  ( -20.00000000000000355, 35.25000000000000000, 4.900000000000000355 ) ) ;
#439 = VECTOR ( 'NONE', #483, 1000.000000000000000 ) ;
#440 = DIRECTION ( 'NONE',  ( 3.854941057726235139E-16, -1.000000000000000000, 0.000000000000000000 ) ) ;
#441 = CARTESIAN_POINT ( 'NONE',  ( -9.005012562893378814, 35.25000000000000000, 7.500000000000000000 ) ) ;
#442 = DIRECTION ( 'NONE',  ( 1.000000000000000000, -0.000000000000000000, -0.000000000000000000 ) ) ;
#443 = CARTESIAN_POINT ( 'NONE',  ( -11.99999999999943512, -7.999999999997460698, 7.499999999997446487 ) ) ;
#444 = ADVANCED_FACE ( 'NONE', ( #122, #486 ), #18, .F. ) ;
#445 = ORIENTED_EDGE ( 'NONE', *, *, #186, .T. ) ;
#446 = FACE_OUTER_BOUND ( 'NONE', #515, .T. ) ;
#447 = DIRECTION ( 'NONE',  ( 3.854941057726235139E-16, -1.000000000000000000, 0.000000000000000000 ) ) ;
#448 = AXIS2_PLACEMENT_3D ( 'NONE', #221, #597, #173 ) ;
#449 = CIRCLE ( 'NONE', #518, 1.000000000000000888 ) ;
#450 = ORIENTED_EDGE ( 'NONE', *, *, #61, .F. ) ;
#451 = DIRECTION ( 'NONE',  ( -0.000000000000000000, -0.000000000000000000, -1.000000000000000000 ) ) ;
#452 = DIRECTION ( 'NONE',  ( 1.000000000000000000, 0.000000000000000000, -0.000000000000000000 ) ) ;
#453 = ORIENTED_EDGE ( 'NONE', *, *, #372, .F. ) ;
#454 = EDGE_LOOP ( 'NONE', ( #143, #587, #101, #434 ) ) ;
#455 = SURFACE_STYLE_USAGE ( .BOTH. , #565 ) ;
#456 = ADVANCED_FACE ( 'NONE', ( #540 ), #48, .T. ) ;
#457 = DIRECTION ( 'NONE',  ( -0.3390195746018525025, -0.9407793195201407110, 0.000000000000000000 ) ) ;
#458 = ORIENTED_EDGE ( 'NONE', *, *, #231, .F. ) ;
#459 = PRESENTATION_STYLE_ASSIGNMENT (( #455 ) ) ;
#460 = CARTESIAN_POINT ( 'NONE',  ( -17.70131456073558240, 6.378852093958768954, 0.000000000000000000 ) ) ;
#461 = EDGE_CURVE ( 'NONE', #80, #403, #312, .T. ) ;
#462 = AXIS2_PLACEMENT_3D ( 'NONE', #591, #350, #25 ) ;
#463 = ORIENTED_EDGE ( 'NONE', *, *, #40, .T. ) ;
#464 = AXIS2_PLACEMENT_3D ( 'NONE', #3, #573, #214 ) ;
#465 = ORIENTED_EDGE ( 'NONE', *, *, #289, .F. ) ;
#466 = FACE_OUTER_BOUND ( 'NONE', #416, .T. ) ;
#467 = VERTEX_POINT ( 'NONE', #421 ) ;
#468 = CARTESIAN_POINT ( 'NONE',  ( -8.000000000000000000, 35.25000000000000000, 7.500000000000000000 ) ) ;
#469 = EDGE_CURVE ( 'NONE', #403, #248, #449, .T. ) ;
#470 = ORIENTED_EDGE ( 'NONE', *, *, #124, .T. ) ;
#471 = PRODUCT_DEFINITION_FORMATION_WITH_SPECIFIED_SOURCE ( 'å¯', '', #75, .NOT_KNOWN. ) ;
#472 = CIRCLE ( 'NONE', #408, 2.599999999999998312 ) ;
#473 = ORIENTED_EDGE ( 'NONE', *, *, #84, .F. ) ;
#474 = AXIS2_PLACEMENT_3D ( 'NONE', #319, #628, #532 ) ;
#475 = CARTESIAN_POINT ( 'NONE',  ( -8.000000000000000000, 35.25000000000000000, 7.500000000000000000 ) ) ;
#476 = DIRECTION ( 'NONE',  ( 4.956352788505158337E-16, -1.000000000000000000, 0.000000000000000000 ) ) ;
#477 = EDGE_CURVE ( 'NONE', #306, #31, #219, .T. ) ;
#478 = LINE ( 'NONE', #114, #616 ) ;
#479 = DIRECTION ( 'NONE',  ( 1.000000000000000000, 3.469446951953614189E-16, -0.000000000000000000 ) ) ;
#480 = CARTESIAN_POINT ( 'NONE',  ( 0.000000000000000000, 39.75000000000000000, 0.000000000000000000 ) ) ;
#481 = DIRECTION ( 'NONE',  ( 1.000000000000000000, 0.000000000000000000, 0.000000000000000000 ) ) ;
#482 = VECTOR ( 'NONE', #92, 1000.000000000000000 ) ;
#483 = DIRECTION ( 'NONE',  ( 0.000000000000000000, -1.000000000000000000, 0.000000000000000000 ) ) ;
#484 = CARTESIAN_POINT ( 'NONE',  ( -9.005012562893380590, 38.85000000000000142, 7.500000000000000888 ) ) ;
#485 = EDGE_CURVE ( 'NONE', #581, #668, #5, .T. ) ;
#486 = FACE_OUTER_BOUND ( 'NONE', #595, .T. ) ;
#487 = CARTESIAN_POINT ( 'NONE',  ( -8.000000000000000000, 35.25000000000000000, 7.500000000000000000 ) ) ;
#488 = CARTESIAN_POINT ( 'NONE',  ( -10.00000000000000178, 39.75000000000000000, 15.00000000000000000 ) ) ;
#489 = VECTOR ( 'NONE', #79, 1000.000000000000000 ) ;
#490 = CARTESIAN_POINT ( 'NONE',  ( -10.00000000000000178, 38.75000000000000711, 7.500000000000000000 ) ) ;
#491 = VECTOR ( 'NONE', #481, 1000.000000000000000 ) ;
#492 = LINE ( 'NONE', #21, #574 ) ;
#493 = CARTESIAN_POINT ( 'NONE',  ( -10.00000000000000000, 35.25000000000000000, 7.500000000000000000 ) ) ;
#494 = ADVANCED_FACE ( 'NONE', ( #584 ), #127, .F. ) ;
#495 = EDGE_LOOP ( 'NONE', ( #524, #64, #227, #260 ) ) ;
#496 = ORIENTED_EDGE ( 'NONE', *, *, #275, .T. ) ;
#497 = CYLINDRICAL_SURFACE ( 'NONE', #121, 2.999999999999999112 ) ;
#498 = DIRECTION ( 'NONE',  ( 1.000000000000000000, -0.000000000000000000, 0.000000000000000000 ) ) ;
#499 = ADVANCED_FACE ( 'NONE', ( #183 ), #497, .T. ) ;
#500 = EDGE_LOOP ( 'NONE', ( #400, #395, #423, #367, #26 ) ) ;
#501 = DIRECTION ( 'NONE',  ( 1.000000000000000000, -0.000000000000000000, -0.000000000000000000 ) ) ;
#502 = FACE_OUTER_BOUND ( 'NONE', #67, .T. ) ;
#503 =( GEOMETRIC_REPRESENTATION_CONTEXT ( 3 ) GLOBAL_UNCERTAINTY_ASSIGNED_CONTEXT ( ( #288 ) ) GLOBAL_UNIT_ASSIGNED_CONTEXT ( ( #49, #256, #104 ) ) REPRESENTATION_CONTEXT ( 'NONE', 'WORKASPACE' ) );
#504 = CIRCLE ( 'NONE', #384, 2.599999999999999201 ) ;
#505 = ORIENTED_EDGE ( 'NONE', *, *, #186, .F. ) ;
#506 = EDGE_CURVE ( 'NONE', #116, #528, #418, .T. ) ;
#507 = CYLINDRICAL_SURFACE ( 'NONE', #119, 3.000000000000000000 ) ;
#508 = DIRECTION ( 'NONE',  ( 5.097628891843051002E-16, -1.000000000000000000, 5.260067361018133052E-15 ) ) ;
#509 = ORIENTED_EDGE ( 'NONE', *, *, #506, .T. ) ;
#510 = ORIENTED_EDGE ( 'NONE', *, *, #196, .T. ) ;
#511 = EDGE_CURVE ( 'NONE', #263, #571, #140, .T. ) ;
#512 = DIRECTION ( 'NONE',  ( 1.000000000000000000, -0.000000000000000000, -0.000000000000000000 ) ) ;
#513 =( NAMED_UNIT ( * ) SI_UNIT ( $, .STERADIAN. ) SOLID_ANGLE_UNIT ( ) );
#514 = VERTEX_POINT ( 'NONE', #545 ) ;
#515 = EDGE_LOOP ( 'NONE', ( #365, #235, #298, #251 ) ) ;
#516 = DIRECTION ( 'NONE',  ( 6.672013369141570147E-16, -1.000000000000000000, 0.000000000000000000 ) ) ;
#517 = AXIS2_PLACEMENT_3D ( 'NONE', #62, #508, #390 ) ;
#518 = AXIS2_PLACEMENT_3D ( 'NONE', #637, #328, #424 ) ;
#519 = EDGE_LOOP ( 'NONE', ( #343, #203 ) ) ;
#520 = CARTESIAN_POINT ( 'NONE',  ( 0.000000000000000000, 42.75000000000000000, 2.999999999999999112 ) ) ;
#521 = ADVANCED_FACE ( 'NONE', ( #391 ), #178, .F. ) ;
#522 = VERTEX_POINT ( 'NONE', #125 ) ;
#523 = DIRECTION ( 'NONE',  ( -1.000000000000000000, -3.469446951953615175E-16, 0.000000000000000000 ) ) ;
#524 = ORIENTED_EDGE ( 'NONE', *, *, #506, .F. ) ;
#525 = ORIENTED_EDGE ( 'NONE', *, *, #175, .F. ) ;
#526 = CARTESIAN_POINT ( 'NONE',  ( -20.00000000000000355, 35.25000000000000000, 7.500000000000000000 ) ) ;
#527 = APPLICATION_PROTOCOL_DEFINITION ( 'draft international standard', 'automotive_design', 1998, #649 ) ;
#528 = VERTEX_POINT ( 'NONE', #81 ) ;
#529 = CIRCLE ( 'NONE', #228, 1.000000000000000888 ) ;
#530 = EDGE_CURVE ( 'NONE', #528, #555, #132, .T. ) ;
#531 = CIRCLE ( 'NONE', #644, 3.500000000000003109 ) ;
#532 = DIRECTION ( 'NONE',  ( 6.672013369141570147E-16, -1.000000000000000000, 0.000000000000000000 ) ) ;
#533 = UNCERTAINTY_MEASURE_WITH_UNIT (LENGTH_MEASURE( 1.000000000000000082E-05 ), #135, 'distance_accuracy_value', 'NONE');
#534 = CARTESIAN_POINT ( 'NONE',  ( -8.000000000000000000, 35.25000000000000000, 7.500000000000000000 ) ) ;
#535 = LINE ( 'NONE', #374, #491 ) ;
#536 = DIRECTION ( 'NONE',  ( 1.000000000000000000, -0.000000000000000000, -0.000000000000000000 ) ) ;
#537 = PLANE ( 'NONE',  #276 ) ;
#538 = EDGE_LOOP ( 'NONE', ( #150, #509, #473, #213, #313, #327 ) ) ;
#539 = AXIS2_PLACEMENT_3D ( 'NONE', #191, #606, #299 ) ;
#540 = FACE_OUTER_BOUND ( 'NONE', #217, .T. ) ;
#541 = AXIS2_PLACEMENT_3D ( 'NONE', #58, #170, #593 ) ;
#542 = ORIENTED_EDGE ( 'NONE', *, *, #349, .F. ) ;
#543 = CARTESIAN_POINT ( 'NONE',  ( 0.000000000000000000, -5.000000000000000000, 15.00000000000000000 ) ) ;
#544 = VERTEX_POINT ( 'NONE', #73 ) ;
#545 = CARTESIAN_POINT ( 'NONE',  ( -10.00000000000000178, 39.75000000000000000, 0.000000000000000000 ) ) ;
#546 = CARTESIAN_POINT ( 'NONE',  ( 0.000000000000000000, 39.75000000000000000, 0.000000000000000000 ) ) ;
#547 = EDGE_CURVE ( 'NONE', #306, #403, #552, .T. ) ;
#548 = DIRECTION ( 'NONE',  ( -0.000000000000000000, 0.000000000000000000, 1.000000000000000000 ) ) ;
#549 = CARTESIAN_POINT ( 'NONE',  ( 0.000000000000000000, 42.75000000000000000, 12.00000000000000000 ) ) ;
#550 = AXIS2_PLACEMENT_3D ( 'NONE', #172, #479, #223 ) ;
#551 = ORIENTED_EDGE ( 'NONE', *, *, #30, .F. ) ;
#552 = LINE ( 'NONE', #282, #615 ) ;
#553 = ORIENTED_EDGE ( 'NONE', *, *, #547, .F. ) ;
#554 = CARTESIAN_POINT ( 'NONE',  ( 0.000000000000000000, 42.75000000000000000, 2.999999999999999112 ) ) ;
#555 = VERTEX_POINT ( 'NONE', #488 ) ;
#556 = CARTESIAN_POINT ( 'NONE',  ( 0.000000000000000000, 39.75000000000000000, 12.00000000000000000 ) ) ;
#557 = LINE ( 'NONE', #546, #437 ) ;
#558 = ORIENTED_EDGE ( 'NONE', *, *, #99, .T. ) ;
#559 = FACE_OUTER_BOUND ( 'NONE', #107, .T. ) ;
#560 = DIRECTION ( 'NONE',  ( -1.000000000000000000, -3.469446951953614189E-16, 0.000000000000000000 ) ) ;
#561 = VERTEX_POINT ( 'NONE', #287 ) ;
#562 = CIRCLE ( 'NONE', #541, 3.000000000000002665 ) ;
#563 = EDGE_CURVE ( 'NONE', #116, #209, #492, .T. ) ;
#564 = EDGE_LOOP ( 'NONE', ( #330, #207, #88, #270, #311, #432 ) ) ;
#565 = SURFACE_SIDE_STYLE ('',( #364 ) ) ;
#566 = DIRECTION ( 'NONE',  ( 4.956352788505158337E-16, -1.000000000000000000, 0.000000000000000000 ) ) ;
#567 = ORIENTED_EDGE ( 'NONE', *, *, #297, .F. ) ;
#568 = ORIENTED_EDGE ( 'NONE', *, *, #94, .F. ) ;
#569 = LINE ( 'NONE', #310, #12 ) ;
#570 = PRODUCT_CONTEXT ( 'NONE', #337, 'mechanical' ) ;
#571 = VERTEX_POINT ( 'NONE', #77 ) ;
#572 = ADVANCED_FACE ( 'NONE', ( #446 ), #507, .T. ) ;
#573 = DIRECTION ( 'NONE',  ( 1.000000000000000000, 0.000000000000000000, 0.000000000000000000 ) ) ;
#574 = VECTOR ( 'NONE', #451, 1000.000000000000000 ) ;
#575 = ORIENTED_EDGE ( 'NONE', *, *, #511, .T. ) ;
#576 = LINE ( 'NONE', #460, #78 ) ;
#577 = SHAPE_DEFINITION_REPRESENTATION ( #8, #291 ) ;
#578 = ORIENTED_EDGE ( 'NONE', *, *, #417, .T. ) ;
#579 = ADVANCED_FACE ( 'NONE', ( #33 ), #230, .T. ) ;
#580 = DIRECTION ( 'NONE',  ( -0.000000000000000000, -0.000000000000000000, -1.000000000000000000 ) ) ;
#581 = VERTEX_POINT ( 'NONE', #137 ) ;
#582 = EDGE_CURVE ( 'NONE', #55, #209, #109, .T. ) ;
#583 = VECTOR ( 'NONE', #63, 1000.000000000000000 ) ;
#584 = FACE_OUTER_BOUND ( 'NONE', #500, .T. ) ;
#585 = LINE ( 'NONE', #438, #120 ) ;
#586 = CARTESIAN_POINT ( 'NONE',  ( -20.00000000000000355, 0.000000000000000000, 15.00000000000000000 ) ) ;
#587 = ORIENTED_EDGE ( 'NONE', *, *, #289, .T. ) ;
#588 = DIRECTION ( 'NONE',  ( -1.000000000000000000, -3.469446951953615175E-16, 0.000000000000000000 ) ) ;
#589 = ADVANCED_FACE ( 'NONE', ( #241 ), #401, .F. ) ;
#590 = CARTESIAN_POINT ( 'NONE',  ( 6.123254115260540545E-16, -5.000000000000000000, 0.000000000000000000 ) ) ;
#591 = CARTESIAN_POINT ( 'NONE',  ( -10.00000000000000000, 35.25000000000000000, 7.500000000000000000 ) ) ;
#592 = AXIS2_PLACEMENT_3D ( 'NONE', #96, #301, #654 ) ;
#593 = DIRECTION ( 'NONE',  ( -5.782411586589351722E-16, 1.000000000000000000, 0.000000000000000000 ) ) ;
#594 = AXIS2_PLACEMENT_3D ( 'NONE', #556, #442, #643 ) ;
#595 = EDGE_LOOP ( 'NONE', ( #450, #204, #633, #412, #496, #239 ) ) ;
#596 = DIRECTION ( 'NONE',  ( 1.000000000000000000, 0.000000000000000000, 0.000000000000000000 ) ) ;
#597 = DIRECTION ( 'NONE',  ( -1.000000000000000000, 0.000000000000000000, 0.000000000000000000 ) ) ;
#598 = CARTESIAN_POINT ( 'NONE',  ( -8.000000000000000000, 35.25000000000000000, 7.500000000000000000 ) ) ;
#599 = PLANE ( 'NONE',  #329 ) ;
#600 = DIRECTION ( 'NONE',  ( 1.000000000000000000, -0.000000000000000000, -0.000000000000000000 ) ) ;
#601 = AXIS2_PLACEMENT_3D ( 'NONE', #658, #663, #189 ) ;
#602 = CARTESIAN_POINT ( 'NONE',  ( -10.00000000000000355, 42.75000000000000000, 2.999999999999999112 ) ) ;
#603 = AXIS2_PLACEMENT_3D ( 'NONE', #435, #631, #476 ) ;
#604 = CARTESIAN_POINT ( 'NONE',  ( -20.00000000000000000, -5.000000000000000000, 0.000000000000000000 ) ) ;
#605 = ORIENTED_EDGE ( 'NONE', *, *, #61, .T. ) ;
#606 = DIRECTION ( 'NONE',  ( -0.000000000000000000, 0.000000000000000000, 1.000000000000000000 ) ) ;
#607 = LINE ( 'NONE', #554, #642 ) ;
#608 = ORIENTED_EDGE ( 'NONE', *, *, #629, .F. ) ;
#609 = ORIENTED_EDGE ( 'NONE', *, *, #94, .T. ) ;
#610 = DIRECTION ( 'NONE',  ( -1.000000000000000000, -3.469446951953615175E-16, -0.000000000000000000 ) ) ;
#611 = CARTESIAN_POINT ( 'NONE',  ( -7.999999999999998224, 30.75000000000000000, 7.500000000000000000 ) ) ;
#612 = ADVANCED_FACE ( 'NONE', ( #559 ), #647, .F. ) ;
#613 = EDGE_LOOP ( 'NONE', ( #53, #660, #542, #380 ) ) ;
#614 = FILL_AREA_STYLE ('',( #358 ) ) ;
#615 = VECTOR ( 'NONE', #236, 1000.000000000000000 ) ;
#616 = VECTOR ( 'NONE', #6, 1000.000000000000000 ) ;
#617 = VERTEX_POINT ( 'NONE', #180 ) ;
#618 = DIRECTION ( 'NONE',  ( 4.956352788505158337E-16, -1.000000000000000000, 0.000000000000000000 ) ) ;
#619 = ORIENTED_EDGE ( 'NONE', *, *, #99, .F. ) ;
#620 = ADVANCED_FACE ( 'NONE', ( #307, #194 ), #665, .F. ) ;
#621 = DIRECTION ( 'NONE',  ( 0.000000000000000000, 1.000000000000000000, 0.000000000000000000 ) ) ;
#622 = VERTEX_POINT ( 'NONE', #259 ) ;
#623 = DIRECTION ( 'NONE',  ( -1.000000000000000000, -3.469446951953614189E-16, 0.000000000000000000 ) ) ;
#624 = EDGE_LOOP ( 'NONE', ( #139, #558, #44, #505 ) ) ;
#625 = CIRCLE ( 'NONE', #146, 1.000000000000000888 ) ;
#626 = EDGE_LOOP ( 'NONE', ( #70, #292, #458, #553 ) ) ;
#627 = CARTESIAN_POINT ( 'NONE',  ( -11.04894348370428681, -5.000000000000000000, 7.190983005622467061 ) ) ;
#628 = DIRECTION ( 'NONE',  ( -1.000000000000000000, -3.469446951953614189E-16, 0.000000000000000000 ) ) ;
#629 = EDGE_CURVE ( 'NONE', #2, #263, #167, .T. ) ;
#630 = PRODUCT_DEFINITION ( 'æ™', '', #471, #425 ) ;
#631 = DIRECTION ( 'NONE',  ( -1.000000000000000000, -3.469446951953615175E-16, 0.000000000000000000 ) ) ;
#632 = VERTEX_POINT ( 'NONE', #414 ) ;
#633 = ORIENTED_EDGE ( 'NONE', *, *, #386, .T. ) ;
#634 = MANIFOLD_SOLID_BREP ( 'Ô²½Ç2', #635 ) ;
#635 = CLOSED_SHELL ( 'NONE', ( #182, #317, #222, #589, #494, #396, #149, #620, #10, #612, #444, #579, #521, #499, #572, #255, #47, #71, #650, #456, #112, #17 ) ) ;
#636 = AXIS2_PLACEMENT_3D ( 'NONE', #419, #162, #516 ) ;
#637 = CARTESIAN_POINT ( 'NONE',  ( -9.005012562893377037, 31.65000000000000568, 7.500000000000000000 ) ) ;
#638 = EDGE_CURVE ( 'NONE', #555, #410, #46, .T. ) ;
#639 = DIRECTION ( 'NONE',  ( 0.9407793195201407110, -0.3390195746018525580, 0.000000000000000000 ) ) ;
#640 = VERTEX_POINT ( 'NONE', #165 ) ;
#641 = LINE ( 'NONE', #543, #242 ) ;
#642 = VECTOR ( 'NONE', #283, 1000.000000000000000 ) ;
#643 = DIRECTION ( 'NONE',  ( 0.000000000000000000, 0.000000000000000000, 1.000000000000000000 ) ) ;
#644 = AXIS2_PLACEMENT_3D ( 'NONE', #95, #208, #566 ) ;
#645 = FACE_OUTER_BOUND ( 'NONE', #678, .T. ) ;
#646 = EDGE_CURVE ( 'NONE', #622, #155, #130, .T. ) ;
#647 = PLANE ( 'NONE',  #65 ) ;
#648 = FACE_OUTER_BOUND ( 'NONE', #257, .T. ) ;
#649 = APPLICATION_CONTEXT ( 'automotive_design' ) ;
#650 = ADVANCED_FACE ( 'NONE', ( #202 ), #250, .T. ) ;
#651 = PRODUCT_RELATED_PRODUCT_CATEGORY ( 'part', '', ( #75 ) ) ;
#652 = CARTESIAN_POINT ( 'NONE',  ( -12.95105651629458876, -7.999999999997458922, 7.809016994372394826 ) ) ;
#653 = DIRECTION ( 'NONE',  ( -0.000000000000000000, 0.000000000000000000, -1.000000000000000000 ) ) ;
#654 = DIRECTION ( 'NONE',  ( 6.672013369141570147E-16, -1.000000000000000000, 0.000000000000000000 ) ) ;
#655 = ORIENTED_EDGE ( 'NONE', *, *, #661, .T. ) ;
#656 = CARTESIAN_POINT ( 'NONE',  ( 0.000000000000000000, 39.75000000000000000, 2.999999999999999112 ) ) ;
#657 = CIRCLE ( 'NONE', #240, 4.500000000000003553 ) ;
#658 = CARTESIAN_POINT ( 'NONE',  ( -11.99999999999943512, -7.999999999997460698, 7.499999999997446487 ) ) ;
#659 = VECTOR ( 'NONE', #580, 1000.000000000000000 ) ;
#660 = ORIENTED_EDGE ( 'NONE', *, *, #427, .F. ) ;
#661 = EDGE_CURVE ( 'NONE', #377, #86, #89, .T. ) ;
#662 = CARTESIAN_POINT ( 'NONE',  ( -10.00000000000000355, 39.75000000000000000, 15.00000000000000000 ) ) ;
#663 = DIRECTION ( 'NONE',  ( 5.097628891843051002E-16, -1.000000000000000000, 5.260067361018133052E-15 ) ) ;
#664 = ORIENTED_EDGE ( 'NONE', *, *, #326, .F. ) ;
#665 = PLANE ( 'NONE',  #20 ) ;
#666 = FACE_BOUND ( 'NONE', #198, .T. ) ;
#667 = ORIENTED_EDGE ( 'NONE', *, *, #485, .F. ) ;
#668 = VERTEX_POINT ( 'NONE', #604 ) ;
#669 = DIRECTION ( 'NONE',  ( -0.3390195746018525025, -0.9407793195201407110, 0.000000000000000000 ) ) ;
#670 = MECHANICAL_DESIGN_GEOMETRIC_PRESENTATION_REPRESENTATION (  '', ( #406 ), #503 ) ;
#671 = AXIS2_PLACEMENT_3D ( 'NONE', #181, #452, #653 ) ;
#672 = EDGE_LOOP ( 'NONE', ( #93, #199, #605, #470, #362, #426 ) ) ;
#673 = ORIENTED_EDGE ( 'NONE', *, *, #326, .T. ) ;
#674 = LINE ( 'NONE', #254, #342 ) ;
#675 = ORIENTED_EDGE ( 'NONE', *, *, #215, .T. ) ;
#676 = CARTESIAN_POINT ( 'NONE',  ( -11.04894348370427970, -7.999999999997462474, 7.190983005622498148 ) ) ;
#677 = ORIENTED_EDGE ( 'NONE', *, *, #646, .F. ) ;
#678 = EDGE_LOOP ( 'NONE', ( #619, #551, #445, #224 ) ) ;
#679 = LINE ( 'NONE', #586, #169 ) ;
ENDSEC;
END-ISO-10303-21;
