ISO-10303-21;
HEADER;
FILE_DESCRIPTION (( 'STEP AP214' ),
    '1' );
FILE_NAME ('subÇòÐÎÖ§³Å¼þ.STEP',
    '2026-08-29T22:11:52',
    ( '' ),
    ( '' ),
    'SwSTEP 2.0',
    'SolidWorks 2023',
    '' );
FILE_SCHEMA (( 'AUTOMOTIVE_DESIGN' ));
ENDSEC;

DATA;
#1 = CARTESIAN_POINT ( 'NONE',  ( 9.882677164768132627, 6.982709675645008218, 7.001013188010817068 ) ) ;
#2 = VECTOR ( 'NONE', #290, 1000.000000000000000 ) ;
#3 = DIRECTION ( 'NONE',  ( 0.000000000000000000, 0.000000000000000000, 1.000000000000000000 ) ) ;
#4 = CARTESIAN_POINT ( 'NONE',  ( 11.48438646791778339, 3.814491428977076826, 3.278017505874161541E-16 ) ) ;
#5 = CARTESIAN_POINT ( 'NONE',  ( 11.93939779206863960, 1.968645354623173915, 0.4810375758699603765 ) ) ;
#6 = EDGE_CURVE ( 'NONE', #355, #564, #366, .T. ) ;
#7 = FACE_OUTER_BOUND ( 'NONE', #657, .T. ) ;
#8 =( BOUNDED_SURFACE ( )  B_SPLINE_SURFACE ( 3, 2, ( 
 ( #432, #591, #646 ),
 ( #596, #99, #160 ),
 ( #321, #379, #102 ),
 ( #53, #329, #710 ),
 ( #481, #219, #713 ),
 ( #702, #428, #436 ),
 ( #642, #156, #162 ),
 ( #649, #519, #91 ),
 ( #426, #573, #480 ),
 ( #628, #468, #87 ),
 ( #696, #29, #569 ),
 ( #265, #211, #472 ),
 ( #581, #587, #251 ),
 ( #316, #686, #523 ),
 ( #312, #528, #38 ),
 ( #83, #309, #202 ),
 ( #197, #633, #515 ),
 ( #248, #413, #701 ),
 ( #464, #136, #261 ),
 ( #417, #363, #625 ),
 ( #141, #682, #577 ),
 ( #32, #255, #26 ),
 ( #42, #692, #78 ),
 ( #303, #371, #146 ),
 ( #367, #477, #207 ),
 ( #422, #637, #193 ),
 ( #150, #96, #320 ),
 ( #532, #641, #359 ),
 ( #155, #409, #218 ),
 ( #656, #707, #269 ),
 ( #170, #50, #590 ),
 ( #600, #278, #227 ),
 ( #281, #332, #435 ),
 ( #597, #166, #492 ),
 ( #98, #595, #645 ),
 ( #1, #225, #440 ),
 ( #101, #105, #496 ),
 ( #328, #330, #159 ) ),
 .UNSPECIFIED., .F., .F., .T. ) 
 B_SPLINE_SURFACE_WITH_KNOTS ( ( 4, 2, 2, 2, 2, 2, 2, 2, 2, 2, 2, 2, 2, 2, 2, 2, 2, 2, 4 ),
 ( 3, 3 ),
 ( 0.01572532316243351741, 0.01670815586008948805, 0.01769098855774545870, 0.01867382125540142934, 0.01965665395305739999, 0.02063948665071337063, 0.02162231934836934127, 0.02260515204602531192, 0.02358798474368127909, 0.02457081744133724627, 0.02506223379016523159, 0.02555365013899321691, 0.02653648283664918756, 0.02751931553430515820, 0.02850214823196112884, 0.02948498092961709949, 0.02997639727844508481, 0.03046781362727307013, 0.03145064632492904078 ),
 ( 0.000000000000000000, 1.000000000000000000 ),
 .UNSPECIFIED. ) 
 GEOMETRIC_REPRESENTATION_ITEM ( )  RATIONAL_B_SPLINE_SURFACE ( (
 ( 1.000000000000000000, 0.8080430417097808071, 1.000000000000000000),
 ( 1.000000000000000000, 0.8115850249897279545, 1.000000000000000000),
 ( 1.000000000000000000, 0.8140284745794200694, 1.000000000000000000),
 ( 1.000000000000000000, 0.8162367659647432605, 1.000000000000000000),
 ( 1.000000000000000000, 0.8160066299717481098, 1.000000000000000000),
 ( 1.000000000000000000, 0.8129641102161118127, 1.000000000000000000),
 ( 1.000000000000000000, 0.8100949097571746860, 1.000000000000000000),
 ( 1.000000000000000000, 0.8022243029689558602, 1.000000000000000000),
 ( 1.000000000000000000, 0.7972275240233510640, 1.000000000000000000),
 ( 1.000000000000000000, 0.7855574673293812538, 1.000000000000000000),
 ( 1.000000000000000000, 0.7789742917758629703, 1.000000000000000000),
 ( 1.000000000000000000, 0.7652717996886911900, 1.000000000000000000),
 ( 1.000000000000000000, 0.7580440830438945898, 1.000000000000000000),
 ( 1.000000000000000000, 0.7440268210910008229, 1.000000000000000000),
 ( 1.000000000000000000, 0.7373177327762828748, 1.000000000000000000),
 ( 1.000000000000000000, 0.7253070937811568752, 1.000000000000000000),
 ( 1.000000000000000000, 0.7199737495847872149, 1.000000000000000000),
 ( 1.000000000000000000, 0.7119393707553255402, 1.000000000000000000),
 ( 1.000000000000000000, 0.7091791270491039079, 1.000000000000000000),
 ( 1.000000000000000000, 0.7072712015088170601, 1.000000000000000000),
 ( 1.000000000000000000, 0.7070103391808588711, 1.000000000000000000),
 ( 1.000000000000000000, 0.7072681377300371608, 1.000000000000000000),
 ( 1.000000000000000000, 0.7077801975698689851, 1.000000000000000000),
 ( 1.000000000000000000, 0.7104086377023616228, 1.000000000000000000),
 ( 1.000000000000000000, 0.7136416209666408550, 1.000000000000000000),
 ( 1.000000000000000000, 0.7225636554129682976, 1.000000000000000000),
 ( 1.000000000000000000, 0.7281239774432367584, 1.000000000000000000),
 ( 1.000000000000000000, 0.7406174276402680556, 1.000000000000000000),
 ( 1.000000000000000000, 0.7476233116480730523, 1.000000000000000000),
 ( 1.000000000000000000, 0.7616876963737706507, 1.000000000000000000),
 ( 1.000000000000000000, 0.7687817953703059981, 1.000000000000000000),
 ( 1.000000000000000000, 0.7789500219131246794, 1.000000000000000000),
 ( 1.000000000000000000, 0.7822727927142286708, 1.000000000000000000),
 ( 1.000000000000000000, 0.7885408477188510235, 1.000000000000000000),
 ( 1.000000000000000000, 0.7915017030889317518, 1.000000000000000000),
 ( 1.000000000000000000, 0.7997675455415085288, 1.000000000000000000),
 ( 1.000000000000000000, 0.8044576321708283295, 1.000000000000000000),
 ( 1.000000000000000000, 0.8080610319394109231, 1.000000000000000000) ) ) 
 REPRESENTATION_ITEM ( '' )  SURFACE ( )  );
#9 = CARTESIAN_POINT ( 'NONE',  ( 10.33815809193082380, 6.289939909245244820, 1.512652547167174566 ) ) ;
#10 = DIRECTION ( 'NONE',  ( 0.000000000000000000, 0.000000000000000000, 1.000000000000000000 ) ) ;
#11 = AXIS2_PLACEMENT_3D ( 'NONE', #553, #10, #231 ) ;
#12 = CIRCLE ( 'NONE', #165, 2.000000000000000444 ) ;
#13 = CARTESIAN_POINT ( 'NONE',  ( 9.916171762220630015, 6.935208586632544581, 2.847212236169855970 ) ) ;
#14 = DIRECTION ( 'NONE',  ( -0.3012657465262075784, 0.9535402193772462009, 0.000000000000000000 ) ) ;
#15 = ORIENTED_EDGE ( 'NONE', *, *, #322, .T. ) ;
#16 = CARTESIAN_POINT ( 'NONE',  ( 14.50175325254655689, 4.067482853416297672, 3.056647201709214556 ) ) ;
#17 = DIRECTION ( 'NONE',  ( 0.000000000000000000, 0.000000000000000000, 1.000000000000000000 ) ) ;
#18 = FACE_OUTER_BOUND ( 'NONE', #450, .T. ) ;
#19 = ORIENTED_EDGE ( 'NONE', *, *, #80, .T. ) ;
#20 = CARTESIAN_POINT ( 'NONE',  ( 11.39183257959098405, 4.313071406509133787, 3.073301431630330427 ) ) ;
#21 = DIRECTION ( 'NONE',  ( 1.000000000000000000, 0.000000000000000000, -0.000000000000000000 ) ) ;
#22 = ORIENTED_EDGE ( 'NONE', *, *, #59, .F. ) ;
#23 = VECTOR ( 'NONE', #585, 1000.000000000000000 ) ;
#24 = CARTESIAN_POINT ( 'NONE',  ( 11.82275230748639494, 2.962693852334475242, 3.091628997731424633 ) ) ;
#25 = ORIENTED_EDGE ( 'NONE', *, *, #169, .T. ) ;
#26 = CARTESIAN_POINT ( 'NONE',  ( 14.36741451905686517, 4.643579291615517413, 6.998621487623275073 ) ) ;
#27 = CARTESIAN_POINT ( 'NONE',  ( 11.67645997091076993, 3.181987808329953538, 0.02771277893661413042 ) ) ;
#28 = ORIENTED_EDGE ( 'NONE', *, *, #410, .F. ) ;
#29 = CARTESIAN_POINT ( 'NONE',  ( 12.02191577650290277, 2.359725201129968308, 6.515214438776458117 ) ) ;
#30 = CARTESIAN_POINT ( 'NONE',  ( 14.43183080598793921, 3.097913300268737125, 3.559813298160357853 ) ) ;
#31 = CARTESIAN_POINT ( 'NONE',  ( 12.98525705760941662, 6.198600774234876987, 5.099416437619167297 ) ) ;
#32 = CARTESIAN_POINT ( 'NONE',  ( 11.47695605492841864, 3.834974559444014552, 9.996553719500095525 ) ) ;
#33 = B_SPLINE_CURVE_WITH_KNOTS ( 'NONE', 3,
 ( #429, #643, #331, #54, #491, #650, #100, #217, #547, #488, #327, #434, #538, #711, #220, #163, #57, #49, #272, #479, #699, #209, #424, #638 ),
 .UNSPECIFIED., .F., .F.,
 ( 4, 2, 2, 2, 2, 2, 2, 2, 2, 2, 2, 4 ),
 ( 0.0005611448894242588182, 0.001306842915118317829, 0.002052540940812377056, 0.002425389953659404067, 0.002798238966506431079, 0.003171087979353458090, 0.003543936992200485969, 0.004289635017894539125, 0.005035333043588593148, 0.005781031069282646304, 0.006153880082129674182, 0.006526729094976702061 ),
 .UNSPECIFIED. ) ;
#34 = CARTESIAN_POINT ( 'NONE',  ( 12.09364919145004080, 0.4080135438630809741, 2.072717133533484635 ) ) ;
#35 = CIRCLE ( 'NONE', #93, 3.000000000000000444 ) ;
#36 = CARTESIAN_POINT ( 'NONE',  ( 11.59170911011492677, 3.474803107403732216, 9.999999999999181099 ) ) ;
#37 = DIRECTION ( 'NONE',  ( 1.000000000000000000, 0.000000000000000000, 0.000000000000000000 ) ) ;
#38 = CARTESIAN_POINT ( 'NONE',  ( 14.50028388033127413, 3.498103321641591990, 6.717601487182138342 ) ) ;
#39 = CARTESIAN_POINT ( 'NONE',  ( 12.09807046303686207, -0.2160811685339994737, 3.619046396722398029 ) ) ;
#40 = EDGE_CURVE ( 'NONE', #192, #617, #280, .T. ) ;
#41 = CARTESIAN_POINT ( 'NONE',  ( 9.702258361426105537, 7.230263296494982228, 5.738307898064158863 ) ) ;
#42 = CARTESIAN_POINT ( 'NONE',  ( 11.43457778145076986, 3.959481501976287898, 9.985639197933956268 ) ) ;
#43 = CARTESIAN_POINT ( 'NONE',  ( 13.04243881640502245, 6.163510513305901384, 5.462805248964269111 ) ) ;
#44 = B_SPLINE_CURVE_WITH_KNOTS ( 'NONE', 3,
 ( #176, #81, #250, #679, #466, #631, #139, #191, #357, #404, #318, #407, #307, #575, #470, #513 ),
 .UNSPECIFIED., .F., .F.,
 ( 4, 2, 2, 2, 2, 2, 2, 4 ),
 ( 0.02154259689868690333, 0.02226578863998351573, 0.02298898038128012813, 0.02371217212257674400, 0.02443536386387335640, 0.02515855560516996881, 0.02588174734646658121, 0.02732813082905980948 ),
 .UNSPECIFIED. ) ;
#45 = CARTESIAN_POINT ( 'NONE',  ( 13.85166468574563936, 5.496916128772508792, 3.305229525948893077 ) ) ;
#46 = ORIENTED_EDGE ( 'NONE', *, *, #487, .F. ) ;
#47 = CARTESIAN_POINT ( 'NONE',  ( 10.17541114576826899, 6.549821434670521469, 1.935748314688221061 ) ) ;
#48 = CARTESIAN_POINT ( 'NONE',  ( -8.709824435446062552, 5.113605215863528564, 0.000000000000000000 ) ) ;
#49 = CARTESIAN_POINT ( 'NONE',  ( 14.35081203479895429, 2.797956971300828766, 6.145439720739166667 ) ) ;
#50 = CARTESIAN_POINT ( 'NONE',  ( 11.25087727116705771, 4.814311348591582274, 6.660748946328149955 ) ) ;
#51 = CARTESIAN_POINT ( 'NONE',  ( -8.709824435446062552, 5.113605215863530340, 10.00000000000000000 ) ) ;
#52 = CARTESIAN_POINT ( 'NONE',  ( 12.20183456631171914, 8.895236546397203625, 6.379363138485643958 ) ) ;
#53 = CARTESIAN_POINT ( 'NONE',  ( 12.09375000347932172, -0.3895469879100515453, 4.918658691957779716 ) ) ;
#54 = CARTESIAN_POINT ( 'NONE',  ( 13.52354081279050924, 5.818124220254572876, 6.372027071114859886 ) ) ;
#55 = DIRECTION ( 'NONE',  ( 0.1706973918833577797, -0.2341501910373825213, 0.9570977423656251704 ) ) ;
#56 = CARTESIAN_POINT ( 'NONE',  ( 9.681588445183413327, 7.257881946409472818, 4.753734423308003443 ) ) ;
#57 = CARTESIAN_POINT ( 'NONE',  ( 14.44499060157216164, 3.144455920609351640, 6.490232072210091019 ) ) ;
#58 = CARTESIAN_POINT ( 'NONE',  ( 11.70453431501278452, 3.243103728670925889, 3.019931769910374264 ) ) ;
#59 = EDGE_CURVE ( 'NONE', #362, #564, #333, .T. ) ;
#60 = CARTESIAN_POINT ( 'NONE',  ( -4.190838237552952705, -9.189498074795167781, 0.000000000000000000 ) ) ;
#61 = CARTESIAN_POINT ( 'NONE',  ( 9.851310781091200397, 7.026302158718703339, 3.151401029456180947 ) ) ;
#62 = UNCERTAINTY_MEASURE_WITH_UNIT (LENGTH_MEASURE( 1.000000000000000082E-05 ), #390, 'distance_accuracy_value', 'NONE');
#63 = DIRECTION ( 'NONE',  ( 0.9535402193772462009, 0.3012657465262075784, 6.272756061893228022E-16 ) ) ;
#64 = CARTESIAN_POINT ( 'NONE',  ( 13.13563338322657259, 6.103813541162800504, 4.260560411722889462 ) ) ;
#65 = CARTESIAN_POINT ( 'NONE',  ( 19.42181311386977427, 8.233661115804814301, 5.000000000000004441 ) ) ;
#66 = CARTESIAN_POINT ( 'NONE',  ( -4.190838237552952705, -9.189498074795167781, 10.00000000000000000 ) ) ;
#67 = COLOUR_RGB ( '',0.7921568627450980005, 0.8196078431372548767, 0.9333333333333333481 ) ;
#68 = CARTESIAN_POINT ( 'NONE',  ( 11.63355296163506480, 3.401442875384116604, 3.002148297574811942 ) ) ;
#69 = DIRECTION ( 'NONE',  ( 0.000000000000000000, 0.000000000000000000, 1.000000000000000000 ) ) ;
#70 = ORIENTED_EDGE ( 'NONE', *, *, #487, .T. ) ;
#71 = ADVANCED_FACE ( 'NONE', ( #315 ), #264, .F. ) ;
#72 = CARTESIAN_POINT ( 'NONE',  ( 13.63304620456137251, 5.718876165033858427, 3.515060918899176823 ) ) ;
#73 = DIRECTION ( 'NONE',  ( -0.9535402193772462009, -0.3012657465262076339, -6.272756061893228022E-16 ) ) ;
#74 = ORIENTED_EDGE ( 'NONE', *, *, #40, .T. ) ;
#75 = CARTESIAN_POINT ( 'NONE',  ( 12.98365999806870619, 6.199562327660796512, 5.000000000000000000 ) ) ;
#76 = CARTESIAN_POINT ( 'NONE',  ( 14.26222675124902750, 2.560146563108907980, 4.215554102494554201 ) ) ;
#77 = ORIENTED_EDGE ( 'NONE', *, *, #608, .F. ) ;
#78 = CARTESIAN_POINT ( 'NONE',  ( 14.34419008962332143, 4.705075759704598681, 6.994255679217710409 ) ) ;
#79 = CARTESIAN_POINT ( 'NONE',  ( -11.31360728694395412, 4.290954457554710721, 0.000000000000000000 ) ) ;
#80 = EDGE_CURVE ( 'NONE', #617, #186, #260, .T. ) ;
#81 = CARTESIAN_POINT ( 'NONE',  ( 11.46525673106595100, 3.875039213399832150, 10.00000000000114220 ) ) ;
#82 = ORIENTED_EDGE ( 'NONE', *, *, #618, .F. ) ;
#83 = CARTESIAN_POINT ( 'NONE',  ( 11.92170852650572854, 2.082749475894678959, 9.592504095490964389 ) ) ;
#84 = CARTESIAN_POINT ( 'NONE',  ( 12.06301056397342641, 2.201425495297858248, 3.659403618797128388 ) ) ;
#85 = CARTESIAN_POINT ( 'NONE',  ( 12.05619799358526834, 1.035219018824539150, 8.760716388334644833 ) ) ;
#86 = ORIENTED_EDGE ( 'NONE', *, *, #204, .T. ) ;
#87 = CARTESIAN_POINT ( 'NONE',  ( 14.33615997364510797, 2.764454751292019008, 6.088483301134411718 ) ) ;
#88 = CARTESIAN_POINT ( 'NONE',  ( 11.92115637139349005, 2.083946405958320813, 0.4094156590841411814 ) ) ;
#89 = CARTESIAN_POINT ( 'NONE',  ( 12.04496987996927260, 1.160120870264502058, 8.889795286424826415 ) ) ;
#90 = EDGE_LOOP ( 'NONE', ( #457, #644, #301, #546, #128 ) ) ;
#91 = CARTESIAN_POINT ( 'NONE',  ( 14.25818659289296875, 2.551309962874992898, 5.739858117007023530 ) ) ;
#92 = CARTESIAN_POINT ( 'NONE',  ( 12.08900518121004097, 0.5348209910814836210, 1.871161984642105036 ) ) ;
#93 = AXIS2_PLACEMENT_3D ( 'NONE', #394, #181, #185 ) ;
#94 = CARTESIAN_POINT ( 'NONE',  ( -11.31360728694395412, 4.290954457554710721, 10.00000000000000000 ) ) ;
#95 = EDGE_LOOP ( 'NONE', ( #408, #70, #705, #298, #311, #398 ) ) ;
#96 = CARTESIAN_POINT ( 'NONE',  ( 11.42527193093792981, 4.162258983772630039, 6.966805864126463632 ) ) ;
#97 = CARTESIAN_POINT ( 'NONE',  ( -6.794621089050845164, -10.01214883310398740, 10.00000000000000000 ) ) ;
#98 = CARTESIAN_POINT ( 'NONE',  ( 9.989008829237510767, 6.828878985511387611, 7.433979951971811495 ) ) ;
#99 = CARTESIAN_POINT ( 'NONE',  ( 12.14743827212484106, 1.817391251660735785, 4.415852428095465854 ) ) ;
#100 = CARTESIAN_POINT ( 'NONE',  ( 13.95910308203125183, 5.369762013886751006, 6.782442466459897012 ) ) ;
#101 = CARTESIAN_POINT ( 'NONE',  ( 9.823161183359072623, 7.065513322171662836, 6.697958333297838962 ) ) ;
#102 = CARTESIAN_POINT ( 'NONE',  ( 14.19814977687081026, 2.406938065117871339, 4.703289608789511078 ) ) ;
#103 = ADVANCED_FACE ( 'NONE', ( #158 ), #593, .F. ) ;
#104 = VECTOR ( 'NONE', #123, 1000.000000000000000 ) ;
#105 = CARTESIAN_POINT ( 'NONE',  ( 11.03575697261754485, 5.379360129633158571, 5.912960184610374981 ) ) ;
#106 = PRESENTATION_STYLE_ASSIGNMENT (( #381 ) ) ;
#107 = CARTESIAN_POINT ( 'NONE',  ( 13.77820212588365223, 5.575716792986818326, 3.370829338145987286 ) ) ;
#108 = PLANE ( 'NONE',  #427 ) ;
#109 = CARTESIAN_POINT ( 'NONE',  ( 12.98274007711617983, 6.200119682741706661, 5.033715582693252699 ) ) ;
#110 = CARTESIAN_POINT ( 'NONE',  ( 13.22641220494379510, 6.043596142483499634, 4.053105292790084135 ) ) ;
#111 = CARTESIAN_POINT ( 'NONE',  ( 9.986548735002580557, 6.834324924592988459, 2.556367156845460453 ) ) ;
#112 = CARTESIAN_POINT ( 'NONE',  ( 9.687210577947107382, 7.250393900211318687, 4.587014080418725825 ) ) ;
#113 = AXIS2_PLACEMENT_3D ( 'NONE', #691, #3, #37 ) ;
#114 = DIRECTION ( 'NONE',  ( -1.000000000000000000, 0.000000000000000000, 0.000000000000000000 ) ) ;
#115 = CIRCLE ( 'NONE', #675, 12.09999999999999964 ) ;
#116 = CARTESIAN_POINT ( 'NONE',  ( 13.39510230254964718, 5.919401735897761974, 3.804758245042044518 ) ) ;
#117 = DIRECTION ( 'NONE',  ( 1.000000000000000000, 0.000000000000000000, 0.000000000000000000 ) ) ;
#118 = PLANE ( 'NONE',  #540 ) ;
#119 = CARTESIAN_POINT ( 'NONE',  ( 11.19512286085619834, 4.976574800185384007, 3.485521154535902166 ) ) ;
#120 = FACE_OUTER_BOUND ( 'NONE', #402, .T. ) ;
#121 = CARTESIAN_POINT ( 'NONE',  ( 9.751479701935926059, 7.164208941257256491, 3.775862169742691510 ) ) ;
#122 = PRODUCT_RELATED_PRODUCT_CATEGORY ( 'part', '', ( #463 ) ) ;
#123 = DIRECTION ( 'NONE',  ( -0.9535402193772462009, -0.3012657465262076339, -6.272756061893228022E-16 ) ) ;
#124 = ORIENTED_EDGE ( 'NONE', *, *, #462, .T. ) ;
#125 = CARTESIAN_POINT ( 'NONE',  ( 10.43708079658097887, 6.125393541472734071, 1.287652297015116520 ) ) ;
#126 = DIRECTION ( 'NONE',  ( 1.000000000000000000, 0.000000000000000000, 0.000000000000000000 ) ) ;
#127 = DIRECTION ( 'NONE',  ( 1.000000000000000000, 0.000000000000000000, 0.000000000000000000 ) ) ;
#128 = ORIENTED_EDGE ( 'NONE', *, *, #59, .T. ) ;
#129 = CARTESIAN_POINT ( 'NONE',  ( 14.18872298417350208, 2.385401450151800606, 5.000000000000526690 ) ) ;
#130 = DIRECTION ( 'NONE',  ( 0.9535402193772462009, 0.3012657465262075784, 6.272756061893228022E-16 ) ) ;
#131 = ORIENTED_EDGE ( 'NONE', *, *, #6, .F. ) ;
#132 = ADVANCED_FACE ( 'NONE', ( #693 ), #411, .F. ) ;
#133 = CARTESIAN_POINT ( 'NONE',  ( 12.10059902233131091, -0.03759899136863931179, 2.999468675938465445 ) ) ;
#134 = CARTESIAN_POINT ( 'NONE',  ( 12.09657914337591933, -0.2995779881014474788, 3.962844625046914704 ) ) ;
#135 = ORIENTED_EDGE ( 'NONE', *, *, #143, .T. ) ;
#136 = CARTESIAN_POINT ( 'NONE',  ( 11.58907876965355932, 3.502256897989227458, 6.999672717732629224 ) ) ;
#137 = AXIS2_PLACEMENT_3D ( 'NONE', #508, #63, #616 ) ;
#138 = CARTESIAN_POINT ( 'NONE',  ( 11.79076294702282190, 2.728126278557427842, 0.1337892375639612441 ) ) ;
#139 = CARTESIAN_POINT ( 'NONE',  ( 10.86431313095837936, 5.330530061672494213, 9.469380998271429206 ) ) ;
#140 = ORIENTED_EDGE ( 'NONE', *, *, #6, .T. ) ;
#141 = CARTESIAN_POINT ( 'NONE',  ( 11.55816937549572465, 3.582774182905433147, 10.00205992698790602 ) ) ;
#142 = CARTESIAN_POINT ( 'NONE',  ( 11.93902221355479476, 2.637408327897283744, 3.258534410194934949 ) ) ;
#143 = EDGE_CURVE ( 'NONE', #560, #535, #401, .T. ) ;
#144 = CARTESIAN_POINT ( 'NONE',  ( -6.794621089050845164, -10.01214883310398740, 0.000000000000000000 ) ) ;
#145 = EDGE_LOOP ( 'NONE', ( #514, #430, #471, #135, #632 ) ) ;
#146 = CARTESIAN_POINT ( 'NONE',  ( 14.26752723908197318, 4.885849572780998074, 6.971604162335771626 ) ) ;
#147 = CARTESIAN_POINT ( 'NONE',  ( 12.09997160834226726, -0.08941631611566668025, 3.159630086245628799 ) ) ;
#148 = DIRECTION ( 'NONE',  ( 1.000000000000000000, 0.000000000000000000, 0.000000000000000000 ) ) ;
#149 = VERTEX_POINT ( 'NONE', #79 ) ;
#150 = CARTESIAN_POINT ( 'NONE',  ( 10.90277315158328264, 5.252889188579238144, 9.525065319920516416 ) ) ;
#151 = SURFACE_SIDE_STYLE ('',( #277 ) ) ;
#152 = VECTOR ( 'NONE', #353, 1000.000000000000114 ) ;
#153 = CARTESIAN_POINT ( 'NONE',  ( 14.51051372578449516, 3.627157788894776136, 3.216474841538995211 ) ) ;
#154 = CARTESIAN_POINT ( 'NONE',  ( 10.95527750532989586, 5.560186502806637954, 5.046271729964939112 ) ) ;
#155 = CARTESIAN_POINT ( 'NONE',  ( 10.58831141637752893, 5.859935559698435270, 9.018918452266140307 ) ) ;
#156 = CARTESIAN_POINT ( 'NONE',  ( 12.14258041762033002, 1.842535126957584923, 5.668198296953557147 ) ) ;
#157 = CARTESIAN_POINT ( 'NONE',  ( 14.34945499673557556, 4.697929307972064095, 3.002218202917215972 ) ) ;
#158 = FACE_OUTER_BOUND ( 'NONE', #206, .T. ) ;
#159 = CARTESIAN_POINT ( 'NONE',  ( 13.07055923246286255, 6.145624556677942607, 5.551745255394258116 ) ) ;
#160 = CARTESIAN_POINT ( 'NONE',  ( 14.21105812631960674, 2.436439837323702839, 4.572391998243476863 ) ) ;
#161 = EDGE_CURVE ( 'NONE', #612, #247, #673, .T. ) ;
#162 = CARTESIAN_POINT ( 'NONE',  ( 14.21870618437200307, 2.454357576821591724, 5.490715095599439266 ) ) ;
#163 = CARTESIAN_POINT ( 'NONE',  ( 14.48657954091221178, 3.348070339217488645, 6.637588506943548516 ) ) ;
#164 = VECTOR ( 'NONE', #421, 1000.000000000000114 ) ;
#165 = AXIS2_PLACEMENT_3D ( 'NONE', #676, #130, #354 ) ;
#166 = CARTESIAN_POINT ( 'NONE',  ( 11.13805410878430457, 5.127768979209060163, 6.333295899441238497 ) ) ;
#167 =( NAMED_UNIT ( * ) SI_UNIT ( $, .STERADIAN. ) SOLID_ANGLE_UNIT ( ) );
#168 = CARTESIAN_POINT ( 'NONE',  ( 13.04868206283730281, 6.159567315697810130, 4.507510558993014449 ) ) ;
#169 = EDGE_CURVE ( 'NONE', #149, #201, #262, .T. ) ;
#170 = CARTESIAN_POINT ( 'NONE',  ( 10.28880687663232685, 6.370146082350138350, 8.365596457538014619 ) ) ;
#171 = ORIENTED_EDGE ( 'NONE', *, *, #565, .F. ) ;
#172 = LINE ( 'NONE', #447, #104 ) ;
#173 = CARTESIAN_POINT ( 'NONE',  ( 14.51164522312101113, 3.684593798393398512, 3.192415030240065565 ) ) ;
#174 = LINE ( 'NONE', #65, #512 ) ;
#175 = STYLED_ITEM ( 'NONE', ( #106 ), #183 ) ;
#176 = CARTESIAN_POINT ( 'NONE',  ( 11.53783665446921347, 3.645315532952755344, 10.00000000000000000 ) ) ;
#177 = CARTESIAN_POINT ( 'NONE',  ( 14.10585836990573583, 5.168650425470545429, 3.114194330309775882 ) ) ;
#178 = CARTESIAN_POINT ( 'NONE',  ( -4.190838237552951817, -9.189498074795166005, 10.00000000000000000 ) ) ;
#179 = CARTESIAN_POINT ( 'NONE',  ( 13.19257393065670669, 6.066102791721140974, 4.138884894402329095 ) ) ;
#180 = EDGE_CURVE ( 'NONE', #182, #268, #459, .T. ) ;
#181 = DIRECTION ( 'NONE',  ( 0.005180477955680715292, 0.2900474287655589456, -0.9569982506330086958 ) ) ;
#182 = VERTEX_POINT ( 'NONE', #266 ) ;
#183 = MANIFOLD_SOLID_BREP ( 'Ô²½Ç1', #337 ) ;
#184 = CARTESIAN_POINT ( 'NONE',  ( 11.87432260665218564, 2.329409346561290839, 0.2922866399084306233 ) ) ;
#185 = DIRECTION ( 'NONE',  ( 0.000000000000000000, 0.9570110925408769065, 0.2900513208963493295 ) ) ;
#186 = VERTEX_POINT ( 'NONE', #51 ) ;
#187 = AXIS2_PLACEMENT_3D ( 'NONE', #484, #274, #533 ) ;
#188 = CARTESIAN_POINT ( 'NONE',  ( 11.48336289818776557, 3.862393078652571532, 3.000799654723036447 ) ) ;
#189 = ORIENTED_EDGE ( 'NONE', *, *, #462, .F. ) ;
#190 = DIRECTION ( 'NONE',  ( -0.000000000000000000, -0.000000000000000000, -1.000000000000000000 ) ) ;
#191 = CARTESIAN_POINT ( 'NONE',  ( 10.68732561101326795, 5.677052213084595067, 9.193192246941890744 ) ) ;
#192 = VERTEX_POINT ( 'NONE', #326 ) ;
#193 = CARTESIAN_POINT ( 'NONE',  ( 14.06957087394457773, 5.222414881560061950, 6.862321536794583565 ) ) ;
#194 = CARTESIAN_POINT ( 'NONE',  ( 12.09875317815317608, 0.2146669921665950442, 2.416180591854510062 ) ) ;
#195 = CARTESIAN_POINT ( 'NONE',  ( 12.00025097522087592, 1.557169312680300344, 9.239504288022809320 ) ) ;
#196 = ORIENTED_EDGE ( 'NONE', *, *, #670, .T. ) ;
#197 = CARTESIAN_POINT ( 'NONE',  ( 11.87649023536276616, 2.328777138981879435, 9.715708878964987250 ) ) ;
#198 = CIRCLE ( 'NONE', #137, 2.000000000000000444 ) ;
#199 = CARTESIAN_POINT ( 'NONE',  ( 11.86298093828320788, 2.857404207349963254, 3.134327553905674968 ) ) ;
#200 = CARTESIAN_POINT ( 'NONE',  ( 11.95972698024044334, 1.842750741351527610, 9.442444129811505604 ) ) ;
#201 = VERTEX_POINT ( 'NONE', #48 ) ;
#202 = CARTESIAN_POINT ( 'NONE',  ( 14.51531561854727137, 3.745500993042084836, 6.837001638398239045 ) ) ;
#203 = CARTESIAN_POINT ( 'NONE',  ( 14.32240759963390531, 2.724133492534425383, 3.966472236945620455 ) ) ;
#204 = EDGE_CURVE ( 'NONE', #362, #192, #289, .T. ) ;
#205 = DIRECTION ( 'NONE',  ( 0.000000000000000000, 0.000000000000000000, 1.000000000000000000 ) ) ;
#206 = EDGE_LOOP ( 'NONE', ( #46, #358, #672, #375, #352, #568 ) ) ;
#207 = CARTESIAN_POINT ( 'NONE',  ( 14.20677011165271431, 5.001943263682852248, 6.943662698990006099 ) ) ;
#208 = CARTESIAN_POINT ( 'NONE',  ( -13.79732975341123336, 3.506236112362240753, 0.000000000000000000 ) ) ;
#209 = CARTESIAN_POINT ( 'NONE',  ( 14.19503641130479110, 2.399585825143833340, 5.248491232086760050 ) ) ;
#210 = CARTESIAN_POINT ( 'NONE',  ( 13.00362631450371076, 6.187425868909561366, 5.295323159216594355 ) ) ;
#211 = CARTESIAN_POINT ( 'NONE',  ( 11.95740738152358240, 2.579534531466248115, 6.702606653966197925 ) ) ;
#212 = CARTESIAN_POINT ( 'NONE',  ( 12.99136473351923549, 6.194921881511171513, 5.188567756027987699 ) ) ;
#213 = CARTESIAN_POINT ( 'NONE',  ( 13.56184845402189332, 5.781727870024220728, 3.594329688007925849 ) ) ;
#214 = DIRECTION ( 'NONE',  ( 0.000000000000000000, 0.000000000000000000, 1.000000000000000000 ) ) ;
#215 = CARTESIAN_POINT ( 'NONE',  ( 12.09807046303686207, -0.2160811685339994737, 3.619046396722398029 ) ) ;
#216 =( LENGTH_UNIT ( ) NAMED_UNIT ( * ) SI_UNIT ( .MILLI., .METRE. ) );
#217 = CARTESIAN_POINT ( 'NONE',  ( 14.09442622568971260, 5.184468751765785477, 6.878218251258777727 ) ) ;
#218 = CARTESIAN_POINT ( 'NONE',  ( 13.75439579204543605, 5.600855540421695977, 6.607567381071933532 ) ) ;
#219 = CARTESIAN_POINT ( 'NONE',  ( 12.16154866753933561, 1.741627708892089066, 5.136557197143400089 ) ) ;
#220 = CARTESIAN_POINT ( 'NONE',  ( 14.52154757310078814, 3.788883906902139831, 6.863909256230467548 ) ) ;
#221 = CARTESIAN_POINT ( 'NONE',  ( 9.673513548292257624, 7.268667345346759845, 4.972397030296870746 ) ) ;
#222 = FACE_OUTER_BOUND ( 'NONE', #95, .T. ) ;
#223 = AXIS2_PLACEMENT_3D ( 'NONE', #559, #73, #563 ) ;
#224 = CARTESIAN_POINT ( 'NONE',  ( 14.50118447555218104, 3.514904136299813242, 3.274037431723885394 ) ) ;
#225 = CARTESIAN_POINT ( 'NONE',  ( 11.06755060011647274, 5.304898813857354511, 6.065472714056880044 ) ) ;
#226 = CARTESIAN_POINT ( 'NONE',  ( 0.000000000000000000, 0.000000000000000000, 0.000000000000000000 ) ) ;
#227 = CARTESIAN_POINT ( 'NONE',  ( 13.39621730029128877, 5.917209530035993481, 6.193099286273031190 ) ) ;
#228 = CARTESIAN_POINT ( 'NONE',  ( 10.06576429243391324, 6.716246702372238531, 2.279554680134040279 ) ) ;
#229 = DIRECTION ( 'NONE',  ( -0.3012657465262074119, 0.9535402193772463120, 0.000000000000000000 ) ) ;
#230 = CARTESIAN_POINT ( 'NONE',  ( 13.55171302968222236, 5.790917804263775004, 3.605061019138811496 ) ) ;
#231 = DIRECTION ( 'NONE',  ( 1.000000000000000000, 0.000000000000000000, 0.000000000000000000 ) ) ;
#232 = ADVANCED_FACE ( 'NONE', ( #222 ), #8, .F. ) ;
#233 = CARTESIAN_POINT ( 'NONE',  ( 13.79596055956801059, 5.557648024209619564, 3.353823051334940963 ) ) ;
#234 = DIRECTION ( 'NONE',  ( -0.000000000000000000, -0.000000000000000000, -1.000000000000000000 ) ) ;
#235 = ORIENTED_EDGE ( 'NONE', *, *, #372, .F. ) ;
#236 = CARTESIAN_POINT ( 'NONE',  ( 11.25377985199487973, 4.452710562654563553, 0.1043226538981570778 ) ) ;
#237 = APPLICATION_PROTOCOL_DEFINITION ( 'draft international standard', 'automotive_design', 1998, #681 ) ;
#238 = PLANE ( 'NONE',  #244 ) ;
#239 = ORIENTED_EDGE ( 'NONE', *, *, #169, .F. ) ;
#240 = CARTESIAN_POINT ( 'NONE',  ( 10.74736961885589714, 5.564122967135120668, 0.7049057374198146597 ) ) ;
#241 = CARTESIAN_POINT ( 'NONE',  ( 29.20873807436981906, 7.130891957031699313, 5.000000000000010658 ) ) ;
#242 = ORIENTED_EDGE ( 'NONE', *, *, #388, .F. ) ;
#243 = PRESENTATION_LAYER_ASSIGNMENT (  '', '', ( #175 ) ) ;
#244 = AXIS2_PLACEMENT_3D ( 'NONE', #453, #229, #662 ) ;
#245 = CARTESIAN_POINT ( 'NONE',  ( 14.35052038720510836, 2.806977319532588222, 3.857639274287456121 ) ) ;
#246 = LINE ( 'NONE', #530, #391 ) ;
#247 = VERTEX_POINT ( 'NONE', #215 ) ;
#248 = CARTESIAN_POINT ( 'NONE',  ( 11.76857015360483771, 2.824000675175757369, 9.896436936901217507 ) ) ;
#249 = CARTESIAN_POINT ( 'NONE',  ( 12.00818366765052048, 1.505750936123662731, 0.7936688485280153360 ) ) ;
#250 = CARTESIAN_POINT ( 'NONE',  ( 11.38712555155720629, 4.098492600374755490, 9.973111120944333052 ) ) ;
#251 = CARTESIAN_POINT ( 'NONE',  ( 14.44403911569567001, 3.151687439647908651, 6.484823338723918695 ) ) ;
#252 = CARTESIAN_POINT ( 'NONE',  ( 12.12334630469756291, 1.936689205514943168, 4.089672549670692270 ) ) ;
#253 = CARTESIAN_POINT ( 'NONE',  ( 12.08275812494168377, 0.6865202138412633825, 8.357336550123331875 ) ) ;
#254 = CARTESIAN_POINT ( 'NONE',  ( 10.96009555993239104, 5.549687964129147666, 4.773208104768208671 ) ) ;
#255 = CARTESIAN_POINT ( 'NONE',  ( 11.52318254505201622, 3.693206252141397083, 6.999990133869824049 ) ) ;
#256 = AXIS2_PLACEMENT_3D ( 'NONE', #344, #665, #400 ) ;
#257 = EDGE_CURVE ( 'NONE', #680, #612, #561, .T. ) ;
#258 = CARTESIAN_POINT ( 'NONE',  ( 12.03656817432018222, 2.305340946393690693, 3.540625791957942692 ) ) ;
#259 = CARTESIAN_POINT ( 'NONE',  ( 11.53783665446921347, 3.645315532952755344, 10.00000000000000000 ) ) ;
#260 = LINE ( 'NONE', #695, #164 ) ;
#261 = CARTESIAN_POINT ( 'NONE',  ( 14.47392179529628109, 4.261559529821768777, 6.982233029688599046 ) ) ;
#262 = LINE ( 'NONE', #208, #152 ) ;
#263 = CARTESIAN_POINT ( 'NONE',  ( 11.87958777073806083, 2.304476468008686663, 9.698198458284725376 ) ) ;
#264 = PLANE ( 'NONE',  #584 ) ;
#265 = CARTESIAN_POINT ( 'NONE',  ( 12.07550559025548154, 0.7888579285292696142, 8.483705685735989377 ) ) ;
#266 = CARTESIAN_POINT ( 'NONE',  ( 12.98365999806870619, 6.199562327660796512, 5.000000000000000000 ) ) ;
#267 = ADVANCED_FACE ( 'NONE', ( #544 ), #108, .F. ) ;
#268 = VERTEX_POINT ( 'NONE', #276 ) ;
#269 = CARTESIAN_POINT ( 'NONE',  ( 13.59116079130998145, 5.756807687402772267, 6.439241374086190461 ) ) ;
#270 = CARTESIAN_POINT ( 'NONE',  ( 13.07055923246286255, 6.145624556677940831, 5.551745255394257228 ) ) ;
#271 = B_SPLINE_CURVE_WITH_KNOTS ( 'NONE', 3,
 ( #684, #134, #620, #635, #365, #690, #571, #460, #420, #517, #253, #85, #89, #521, #195, #200, #475, #263, #415, #583, #579, #314, #36, #259 ),
 .UNSPECIFIED., .F., .F.,
 ( 4, 2, 2, 2, 2, 2, 2, 2, 2, 2, 2, 4 ),
 ( 0.01295397058341800356, 0.01402754887282661560, 0.01510112716223522764, 0.01617470545164384141, 0.01724828374105245171, 0.01832186203046106548, 0.01885865117516537237, 0.01939544031986967926, 0.01993222946457398614, 0.02046901860927829303, 0.02100580775398259645, 0.02154259689868690333 ),
 .UNSPECIFIED. ) ;
#272 = CARTESIAN_POINT ( 'NONE',  ( 14.29716273152699735, 2.650899887622228945, 5.943458384773919079 ) ) ;
#273 = CARTESIAN_POINT ( 'NONE',  ( 11.04869174031015255, 4.944903903376800081, 0.2885472657230356286 ) ) ;
#274 = DIRECTION ( 'NONE',  ( 0.000000000000000000, 0.000000000000000000, 1.000000000000000000 ) ) ;
#275 = CARTESIAN_POINT ( 'NONE',  ( 14.48116181103941003, 4.216859719553961661, 3.025619443662834751 ) ) ;
#276 = CARTESIAN_POINT ( 'NONE',  ( 13.07055923246286255, 6.145624556677940831, 5.551745255394257228 ) ) ;
#277 = SURFACE_STYLE_FILL_AREA ( #490 ) ;
#278 = CARTESIAN_POINT ( 'NONE',  ( 11.19451878726669136, 4.975981465759540256, 6.508857755598173256 ) ) ;
#279 = CARTESIAN_POINT ( 'NONE',  ( 10.95684794059132194, 5.556760419105409632, 4.864742593117100888 ) ) ;
#280 = CIRCLE ( 'NONE', #113, 12.09999999999999964 ) ;
#281 = CARTESIAN_POINT ( 'NONE',  ( 10.10919831312767059, 6.649778804813027300, 7.848808670183624159 ) ) ;
#282 = CARTESIAN_POINT ( 'NONE',  ( 10.97664125953165382, 5.513315745249365740, 4.505284171095731871 ) ) ;
#283 = APPLICATION_PROTOCOL_DEFINITION ( 'draft international standard', 'automotive_design', 1998, #714 ) ;
#284 = LINE ( 'NONE', #66, #527 ) ;
#285 = CARTESIAN_POINT ( 'NONE',  ( 12.99020030222157018, 6.195605862827647137, 4.834805632148341026 ) ) ;
#286 = EDGE_CURVE ( 'NONE', #680, #268, #302, .T. ) ;
#287 = DIRECTION ( 'NONE',  ( -1.000000000000000000, 0.000000000000000000, 0.000000000000000000 ) ) ;
#288 = CARTESIAN_POINT ( 'NONE',  ( 11.59806422016165328, 3.458984314680466632, -0.005004046084011208421 ) ) ;
#289 = CIRCLE ( 'NONE', #187, 12.09999999999999964 ) ;
#290 = DIRECTION ( 'NONE',  ( -0.000000000000000000, -0.000000000000000000, -1.000000000000000000 ) ) ;
#291 = CARTESIAN_POINT ( 'NONE',  ( 11.34860803503456061, 4.205693086371759648, 0.04387912545233630529 ) ) ;
#292 = ADVANCED_BREP_SHAPE_REPRESENTATION ( 'sub\X2\74035f62652f64914ef6\X0\', ( #183, #706 ), #304 ) ;
#293 = DIRECTION ( 'NONE',  ( 0.000000000000000000, 0.000000000000000000, 1.000000000000000000 ) ) ;
#294 = ORIENTED_EDGE ( 'NONE', *, *, #180, .T. ) ;
#295 = ADVANCED_FACE ( 'NONE', ( #712 ), #652, .T. ) ;
#296 = CARTESIAN_POINT ( 'NONE',  ( 13.01602757071996308, 6.179829027234016614, 4.638260882646700445 ) ) ;
#297 = DIRECTION ( 'NONE',  ( -0.9535402193772463120, -0.3012657465262069123, 0.000000000000000000 ) ) ;
#298 = ORIENTED_EDGE ( 'NONE', *, *, #670, .F. ) ;
#299 = CARTESIAN_POINT ( 'NONE',  ( 12.10647851683171083, 2.016547709865394999, 3.934680582265863258 ) ) ;
#300 = CARTESIAN_POINT ( 'NONE',  ( 14.31341343038593017, 2.689995099261926370, 3.999747212758407056 ) ) ;
#301 = ORIENTED_EDGE ( 'NONE', *, *, #592, .T. ) ;
#302 = CIRCLE ( 'NONE', #704, 2.999999999999999556 ) ;
#303 = CARTESIAN_POINT ( 'NONE',  ( 11.30236250573514134, 4.328377641462514802, 9.929010406060054805 ) ) ;
#304 =( GEOMETRIC_REPRESENTATION_CONTEXT ( 3 ) GLOBAL_UNCERTAINTY_ASSIGNED_CONTEXT ( ( #62 ) ) GLOBAL_UNIT_ASSIGNED_CONTEXT ( ( #390, #396, #502 ) ) REPRESENTATION_CONTEXT ( 'NONE', 'WORKASPACE' ) );
#305 = CARTESIAN_POINT ( 'NONE',  ( 11.53783665446468909, 3.645315532967079442, 0.000000000000000000 ) ) ;
#306 = PRODUCT_DEFINITION_CONTEXT ( 'detailed design', #714, 'design' ) ;
#307 = CARTESIAN_POINT ( 'NONE',  ( 10.13248595801004015, 6.614808140742622911, 7.926423082223706729 ) ) ;
#308 = ORIENTED_EDGE ( 'NONE', *, *, #608, .T. ) ;
#309 = CARTESIAN_POINT ( 'NONE',  ( 11.72331739103599269, 3.201976248559994520, 6.975661130037364543 ) ) ;
#310 = CARTESIAN_POINT ( 'NONE',  ( 11.97490553881772790, 2.522593033500685866, 3.340175672153105513 ) ) ;
#311 = ORIENTED_EDGE ( 'NONE', *, *, #286, .F. ) ;
#312 = CARTESIAN_POINT ( 'NONE',  ( 11.99344817665740948, 1.619314794637536803, 9.294003718459972418 ) ) ;
#313 = CARTESIAN_POINT ( 'NONE',  ( 12.00943797322743833, 1.490433218809874782, 0.8094339509147931988 ) ) ;
#314 = CARTESIAN_POINT ( 'NONE',  ( 11.64239675054464485, 3.300829043497377491, 9.984681500466185966 ) ) ;
#315 = FACE_OUTER_BOUND ( 'NONE', #522, .T. ) ;
#316 = CARTESIAN_POINT ( 'NONE',  ( 12.02066466781255016, 1.399078027160290283, 9.118090620542339764 ) ) ;
#317 = CARTESIAN_POINT ( 'NONE',  ( 14.18872298417379696, 2.385401450151841463, 4.905932792173747892 ) ) ;
#318 = CARTESIAN_POINT ( 'NONE',  ( 10.35199649596323646, 6.266272617905390696, 8.515604197491530414 ) ) ;
#319 = CARTESIAN_POINT ( 'NONE',  ( 11.01073969949294096, 5.436480017347354199, 5.745622520439672698 ) ) ;
#320 = CARTESIAN_POINT ( 'NONE',  ( 13.99487994511537714, 5.324219569440823641, 6.810026127907262250 ) ) ;
#321 = CARTESIAN_POINT ( 'NONE',  ( 12.09515214045987364, -0.3432647689099654342, 4.258224022051661173 ) ) ;
#322 = EDGE_CURVE ( 'NONE', #348, #454, #198, .T. ) ;
#323 = CARTESIAN_POINT ( 'NONE',  ( 14.39149471016231985, 4.581036023597933493, 2.996397896925683035 ) ) ;
#324 = VERTEX_POINT ( 'NONE', #178 ) ;
#325 = CARTESIAN_POINT ( 'NONE',  ( 11.53783665446468909, 3.645315532967079442, 0.000000000000000000 ) ) ;
#326 = CARTESIAN_POINT ( 'NONE',  ( 11.53783665446921347, 3.645315532952755344, 10.00000000000000000 ) ) ;
#327 = CARTESIAN_POINT ( 'NONE',  ( 14.32583611423055103, 4.756590905547023240, 6.991849673559201506 ) ) ;
#328 = CARTESIAN_POINT ( 'NONE',  ( 9.777629023335881797, 7.127971007377891688, 6.379363138485643958 ) ) ;
#329 = CARTESIAN_POINT ( 'NONE',  ( 12.16225478859696807, 1.737667169227186781, 4.954637138492571147 ) ) ;
#330 = CARTESIAN_POINT ( 'NONE',  ( 11.01073969949294096, 5.436480017347354199, 5.745622520439672698 ) ) ;
#331 = CARTESIAN_POINT ( 'NONE',  ( 13.25878812809503948, 6.023352159261087913, 5.997369329595546361 ) ) ;
#332 = CARTESIAN_POINT ( 'NONE',  ( 11.17538439168820652, 5.028598479399031262, 6.453059796532092385 ) ) ;
#333 = LINE ( 'NONE', #97, #23 ) ;
#334 = CARTESIAN_POINT ( 'NONE',  ( 14.24727158419173101, 4.925656358407495716, 3.037354397769596481 ) ) ;
#335 = CARTESIAN_POINT ( 'NONE',  ( 9.728047950379417941, 7.195982695058090073, 6.032437094280202139 ) ) ;
#336 = CARTESIAN_POINT ( 'NONE',  ( 10.95565938671535733, 5.141881515552745086, 0.4056754747677545070 ) ) ;
#337 = CLOSED_SHELL ( 'NONE', ( #232, #419, #295, #349, #340, #71, #132, #474, #537, #545, #267, #103 ) ) ;
#338 = CARTESIAN_POINT ( 'NONE',  ( -11.31360728694395412, 4.290954457554710721, 10.00000000000000000 ) ) ;
#339 = CARTESIAN_POINT ( 'NONE',  ( 11.08474131810258534, 5.263358994853500228, 3.860474213477020022 ) ) ;
#340 = ADVANCED_FACE ( 'NONE', ( #341 ), #118, .T. ) ;
#341 = FACE_OUTER_BOUND ( 'NONE', #506, .T. ) ;
#342 = CARTESIAN_POINT ( 'NONE',  ( 14.29570692311458480, 4.826218468316702648, 3.017551650047625600 ) ) ;
#343 = SHAPE_DEFINITION_REPRESENTATION ( #433, #292 ) ;
#344 = CARTESIAN_POINT ( 'NONE',  ( 20.02434460692218821, 6.326580677050322343, 5.000000000000004441 ) ) ;
#345 = CARTESIAN_POINT ( 'NONE',  ( 13.87845259553738231, 5.467303530019520075, 3.281962294770432553 ) ) ;
#346 = AXIS2_PLACEMENT_3D ( 'NONE', #551, #293, #127 ) ;
#347 = PLANE ( 'NONE',  #541 ) ;
#348 = VERTEX_POINT ( 'NONE', #241 ) ;
#349 = ADVANCED_FACE ( 'NONE', ( #609 ), #604, .T. ) ;
#350 = CARTESIAN_POINT ( 'NONE',  ( 14.51245685174727207, 3.875197152119583155, 3.116914655975822956 ) ) ;
#351 = CARTESIAN_POINT ( 'NONE',  ( 28.60620658131740512, 9.037972395786189495, 5.000000000000010658 ) ) ;
#352 = ORIENTED_EDGE ( 'NONE', *, *, #180, .F. ) ;
#353 = DIRECTION ( 'NONE',  ( 0.9535402193772462009, 0.3012657465262073564, 0.000000000000000000 ) ) ;
#354 = DIRECTION ( 'NONE',  ( -0.3012657465262073564, 0.9535402193772463120, 0.000000000000000000 ) ) ;
#355 = VERTEX_POINT ( 'NONE', #60 ) ;
#356 = CARTESIAN_POINT ( 'NONE',  ( 0.000000000000000000, 0.000000000000000000, 10.00000000000000000 ) ) ;
#357 = CARTESIAN_POINT ( 'NONE',  ( 10.59890521719674972, 5.839676790934054118, 9.035445281460336986 ) ) ;
#358 = ORIENTED_EDGE ( 'NONE', *, *, #161, .F. ) ;
#359 = CARTESIAN_POINT ( 'NONE',  ( 13.83770040725580408, 5.513125868135490215, 6.683112321888110330 ) ) ;
#360 = CARTESIAN_POINT ( 'NONE',  ( 12.13545015908457181, 1.876753666151404598, 4.253545996887774905 ) ) ;
#361 = B_SPLINE_CURVE_WITH_KNOTS ( 'NONE', 3,
 ( #567, #76, #300, #439, #703, #224, #153, #374, #534, #275, #485, #323, #157, #334, #599, #655, #382, #45, #107, #376, #213, #715, #110, #594, #168, #542, #384, #647 ),
 .UNSPECIFIED., .F., .F.,
 ( 4, 2, 2, 2, 2, 2, 2, 2, 2, 2, 2, 2, 2, 4 ),
 ( 0.007087669469513456326, 0.007833785496441189600, 0.008579901523368923741, 0.008952959536832791679, 0.009326017550296657882, 0.009699075563760524085, 0.01007213357722439202, 0.01044519159068825823, 0.01081824960415212443, 0.01119130761761599063, 0.01156436563107985857, 0.01231048165800759098, 0.01268353967147145545, 0.01305659768493531991 ),
 .UNSPECIFIED. ) ;
#362 = VERTEX_POINT ( 'NONE', #611 ) ;
#363 = CARTESIAN_POINT ( 'NONE',  ( 11.55334659041120204, 3.597792231528841977, 7.000020508867899061 ) ) ;
#364 = CARTESIAN_POINT ( 'NONE',  ( 14.24684448800895531, 2.522957961462573451, 4.322826382730187156 ) ) ;
#365 = CARTESIAN_POINT ( 'NONE',  ( 12.09413859228066812, -0.3791881515697348992, 5.381839671328359387 ) ) ;
#366 = LINE ( 'NONE', #526, #373 ) ;
#367 = CARTESIAN_POINT ( 'NONE',  ( 11.20696171768865668, 4.569263406817912987, 9.859156746358770818 ) ) ;
#368 = CARTESIAN_POINT ( 'NONE',  ( 12.09907437817280673, -0.1598734196777432948, 3.387610941156570465 ) ) ;
#369 = CARTESIAN_POINT ( 'NONE',  ( 11.53783665446468909, 3.645315532967079442, 0.000000000000000000 ) ) ;
#370 = ORIENTED_EDGE ( 'NONE', *, *, #555, .T. ) ;
#371 = CARTESIAN_POINT ( 'NONE',  ( 11.49025131771367469, 3.826078125184096290, 6.999197963638350117 ) ) ;
#372 = EDGE_CURVE ( 'NONE', #612, #149, #598, .T. ) ;
#373 = VECTOR ( 'NONE', #580, 1000.000000000000114 ) ;
#374 = CARTESIAN_POINT ( 'NONE',  ( 14.51459569309332309, 3.858238015664478215, 3.120372024661508537 ) ) ;
#375 = ORIENTED_EDGE ( 'NONE', *, *, #286, .T. ) ;
#376 = CARTESIAN_POINT ( 'NONE',  ( 13.63361574792396880, 5.717755745809025569, 3.515138483797979774 ) ) ;
#377 = CARTESIAN_POINT ( 'NONE',  ( 13.07055923246286255, 6.145624556677942607, 5.551745255394258116 ) ) ;
#378 = CARTESIAN_POINT ( 'NONE',  ( 9.906350992240737341, 6.948817388415122309, 2.883245245000477741 ) ) ;
#379 = CARTESIAN_POINT ( 'NONE',  ( 12.15526378134374852, 1.775299790996505589, 4.593399662884729118 ) ) ;
#380 = CARTESIAN_POINT ( 'NONE',  ( 9.681186319795868300, 7.258555073218315279, 4.612292978017334732 ) ) ;
#381 = SURFACE_STYLE_USAGE ( .BOTH. , #151 ) ;
#382 = CARTESIAN_POINT ( 'NONE',  ( 13.99375847015463137, 5.324940067506624963, 3.191298393138870093 ) ) ;
#383 = CARTESIAN_POINT ( 'NONE',  ( 10.64997134788517741, 5.750964596639735582, 0.8636463372199174593 ) ) ;
#384 = CARTESIAN_POINT ( 'NONE',  ( 12.98365999806870441, 6.199562327660795624, 4.873528833782522440 ) ) ;
#385 = CARTESIAN_POINT ( 'NONE',  ( 9.697168536467206224, 7.237078949524770266, 5.681606751459188587 ) ) ;
#386 = CARTESIAN_POINT ( 'NONE',  ( 9.732111055333081850, 7.190409225009078753, 6.060867229910227749 ) ) ;
#387 = CARTESIAN_POINT ( 'NONE',  ( 28.00367508826499119, 10.94505283454068412, 5.000000000000010658 ) ) ;
#388 = EDGE_CURVE ( 'NONE', #149, #617, #392, .T. ) ;
#389 = CARTESIAN_POINT ( 'NONE',  ( 13.04749829308130060, 6.160551637540986114, 4.510344867956660231 ) ) ;
#390 =( LENGTH_UNIT ( ) NAMED_UNIT ( * ) SI_UNIT ( .MILLI., .METRE. ) );
#391 = VECTOR ( 'NONE', #525, 1000.000000000000000 ) ;
#392 = LINE ( 'NONE', #338, #412 ) ;
#393 = CARTESIAN_POINT ( 'NONE',  ( 14.23694436031374799, 4.945912812544411175, 3.041729061268216849 ) ) ;
#394 = CARTESIAN_POINT ( 'NONE',  ( 15.09759206544253551, -0.2696550119811726987, 3.619046396752065409 ) ) ;
#395 = CARTESIAN_POINT ( 'NONE',  ( 10.15121218143688964, 6.587393114360046376, 2.011895613284965467 ) ) ;
#396 =( NAMED_UNIT ( * ) PLANE_ANGLE_UNIT ( ) SI_UNIT ( $, .RADIAN. ) );
#397 = CARTESIAN_POINT ( 'NONE',  ( 0.000000000000000000, 0.000000000000000000, 10.00000000000000000 ) ) ;
#398 = ORIENTED_EDGE ( 'NONE', *, *, #555, .F. ) ;
#399 = CARTESIAN_POINT ( 'NONE',  ( 11.73786547005772185, 2.949945821710296290, 0.07100580394748944035 ) ) ;
#400 = DIRECTION ( 'NONE',  ( 0.3012657465262074674, -0.9535402193772463120, 0.000000000000000000 ) ) ;
#401 = B_SPLINE_CURVE_WITH_KNOTS ( 'NONE', 3,
 ( #129, #317, #529, #566, #520, #622 ),
 .UNSPECIFIED., .F., .F.,
 ( 4, 2, 4 ),
 ( 0.006526729094976702061, 0.006807199282245079627, 0.007087669469513456326 ),
 .UNSPECIFIED. ) ;
#402 = EDGE_LOOP ( 'NONE', ( #82, #467, #294, #196, #28 ) ) ;
#403 = CARTESIAN_POINT ( 'NONE',  ( 11.79818284650783689, 2.697336205066251047, 0.1416180043352802675 ) ) ;
#404 = CARTESIAN_POINT ( 'NONE',  ( 10.43151047914084906, 6.133694314951555704, 8.696913421999111549 ) ) ;
#405 = ORIENTED_EDGE ( 'NONE', *, *, #372, .T. ) ;
#406 = CARTESIAN_POINT ( 'NONE',  ( 14.49324431003955915, 3.436867182912467733, 3.317467539716290492 ) ) ;
#407 = CARTESIAN_POINT ( 'NONE',  ( 10.20269673672607169, 6.506533890847353341, 8.131141590125068319 ) ) ;
#408 = ORIENTED_EDGE ( 'NONE', *, *, #592, .F. ) ;
#409 = CARTESIAN_POINT ( 'NONE',  ( 11.35091383139422128, 4.478364948585959127, 6.865054719075945222 ) ) ;
#410 = EDGE_CURVE ( 'NONE', #348, #560, #172, .T. ) ;
#411 = CYLINDRICAL_SURFACE ( 'NONE', #558, 10.09999999999999964 ) ;
#412 = VECTOR ( 'NONE', #671, 1000.000000000000000 ) ;
#413 = CARTESIAN_POINT ( 'NONE',  ( 11.61763819592137992, 3.437095706010894425, 6.999222920450635321 ) ) ;
#414 = CARTESIAN_POINT ( 'NONE',  ( 11.95830748823504308, 1.849951955116176494, 0.5545427223430040575 ) ) ;
#415 = CARTESIAN_POINT ( 'NONE',  ( 11.84707054636355394, 2.466803324665153507, 9.768704339866598474 ) ) ;
#416 = ORIENTED_EDGE ( 'NONE', *, *, #495, .T. ) ;
#417 = CARTESIAN_POINT ( 'NONE',  ( 11.59709904203546138, 3.454657625565809020, 9.996511962120663952 ) ) ;
#418 = CARTESIAN_POINT ( 'NONE',  ( 12.09916753575464554, 0.1815785217935394491, 2.492043695350471211 ) ) ;
#419 = ADVANCED_FACE ( 'NONE', ( #120 ), #444, .T. ) ;
#420 = CARTESIAN_POINT ( 'NONE',  ( 12.10036854563167097, 0.1431961285656893068, 7.442361832314676739 ) ) ;
#421 = DIRECTION ( 'NONE',  ( 0.9535402193772462009, 0.3012657465262073564, 0.000000000000000000 ) ) ;
#422 = CARTESIAN_POINT ( 'NONE',  ( 11.00592562362979265, 5.034258653441782805, 9.655803843102692241 ) ) ;
#423 = CARTESIAN_POINT ( 'NONE',  ( 14.22894996381051591, 2.479695651662401801, 4.447618558724058424 ) ) ;
#424 = CARTESIAN_POINT ( 'NONE',  ( 14.18872298417383071, 2.385401450151908964, 5.125050244809319366 ) ) ;
#425 = CARTESIAN_POINT ( 'NONE',  ( 10.95690740166509691, 5.556643535511676113, 5.136631739095761873 ) ) ;
#426 = CARTESIAN_POINT ( 'NONE',  ( 12.10072325793852421, 0.01900125971567235075, 7.148447006712439489 ) ) ;
#427 = AXIS2_PLACEMENT_3D ( 'NONE', #437, #709, #648 ) ;
#428 = CARTESIAN_POINT ( 'NONE',  ( 12.15184867735197471, 1.793436690744723450, 5.492164630040116791 ) ) ;
#429 = CARTESIAN_POINT ( 'NONE',  ( 13.07055923246286255, 6.145624556677940831, 5.551745255394257228 ) ) ;
#430 = ORIENTED_EDGE ( 'NONE', *, *, #322, .F. ) ;
#431 = CARTESIAN_POINT ( 'NONE',  ( 10.52210802882657781, 5.979040043118643233, 1.104892058627709783 ) ) ;
#432 = CARTESIAN_POINT ( 'NONE',  ( 12.09807046303686207, -0.2160811685339993904, 3.619046396722397141 ) ) ;
#433 = PRODUCT_DEFINITION_SHAPE ( 'NONE', 'NONE',  #630 ) ;
#434 = CARTESIAN_POINT ( 'NONE',  ( 14.41068564885863701, 4.520542192766380474, 7.003692641722150114 ) ) ;
#435 = CARTESIAN_POINT ( 'NONE',  ( 13.35894585118850308, 5.945745646052834843, 6.139523468144171048 ) ) ;
#436 = CARTESIAN_POINT ( 'NONE',  ( 14.20371410369035914, 2.419771107237175922, 5.359856116585618224 ) ) ;
#437 = CARTESIAN_POINT ( 'NONE',  ( -4.190838237552952705, -9.189498074795167781, 10.00000000000000000 ) ) ;
#438 =( NAMED_UNIT ( * ) PLANE_ANGLE_UNIT ( ) SI_UNIT ( $, .RADIAN. ) );
#439 = CARTESIAN_POINT ( 'NONE',  ( 14.41116486250453832, 3.006961156171309657, 3.629128533876073259 ) ) ;
#440 = CARTESIAN_POINT ( 'NONE',  ( 13.16326839955499750, 6.085837629294561069, 5.800405275206119704 ) ) ;
#441 = CARTESIAN_POINT ( 'NONE',  ( 13.03028034033543214, 6.171243896642024218, 5.424350096826096035 ) ) ;
#442 = CARTESIAN_POINT ( 'NONE',  ( 9.777629023335881797, 7.127971007377891688, 6.379363138485643958 ) ) ;
#443 = CARTESIAN_POINT ( 'NONE',  ( 11.26946759991790259, 4.757038684056647426, 3.296016051498865007 ) ) ;
#444 = CYLINDRICAL_SURFACE ( 'NONE', #256, 1.999999999999999556 ) ;
#445 = CARTESIAN_POINT ( 'NONE',  ( 10.64107200851764290, 5.763739073016547643, 0.8845576285701787222 ) ) ;
#446 = AXIS2_PLACEMENT_3D ( 'NONE', #500, #234, #114 ) ;
#447 = CARTESIAN_POINT ( 'NONE',  ( 20.62687609997460214, 4.419500238295829497, 5.000000000000004441 ) ) ;
#448 = CARTESIAN_POINT ( 'NONE',  ( 11.05752693570698142, 4.919887232249940290, 0.2854858250468197411 ) ) ;
#449 = CARTESIAN_POINT ( 'NONE',  ( -8.709824435446062552, 5.113605215863530340, 10.00000000000000000 ) ) ;
#450 = EDGE_LOOP ( 'NONE', ( #25, #518, #494, #242 ) ) ;
#451 = CARTESIAN_POINT ( 'NONE',  ( 11.52015105977246279, 3.710104881216919726, -0.01006141410482580545 ) ) ;
#452 = CARTESIAN_POINT ( 'NONE',  ( 0.000000000000000000, 0.000000000000000000, 0.000000000000000000 ) ) ;
#453 = CARTESIAN_POINT ( 'NONE',  ( -13.79732975341123336, 3.506236112362240753, 10.00000000000000000 ) ) ;
#454 = VERTEX_POINT ( 'NONE', #387 ) ;
#455 = CARTESIAN_POINT ( 'NONE',  ( 11.43519672749974170, 4.113458924134185679, 3.024091956582462437 ) ) ;
#456 = CARTESIAN_POINT ( 'NONE',  ( 0.000000000000000000, 0.000000000000000000, 10.00000000000000000 ) ) ;
#457 = ORIENTED_EDGE ( 'NONE', *, *, #698, .T. ) ;
#458 = CARTESIAN_POINT ( 'NONE',  ( 14.27032434042702214, 2.581462456834846986, 4.199787470171568948 ) ) ;
#459 = B_SPLINE_CURVE_WITH_KNOTS ( 'NONE', 3,
 ( #75, #536, #212, #588, #43, #270 ),
 .UNSPECIFIED., .F., .F.,
 ( 4, 2, 4 ),
 ( 0.000000000000000000, 0.0002805724447121294091, 0.0005611448894242588182 ),
 .UNSPECIFIED. ) ;
#460 = CARTESIAN_POINT ( 'NONE',  ( 12.10048153710501850, 0.002654276601407641253, 7.112561515722516603 ) ) ;
#461 = ORIENTED_EDGE ( 'NONE', *, *, #511, .T. ) ;
#462 = EDGE_CURVE ( 'NONE', #324, #186, #651, .T. ) ;
#463 = PRODUCT ( 'sub\X2\74035f62652f64914ef6\X0\', 'sub\X2\74035f62652f64914ef6\X0\', '', ( #615 ) ) ;
#464 = CARTESIAN_POINT ( 'NONE',  ( 11.70583116105478005, 3.074569698594779243, 9.955582575107740695 ) ) ;
#465 = CARTESIAN_POINT ( 'NONE',  ( 12.09574212828253081, 0.3618840704183147738, 2.144098185566568393 ) ) ;
#466 = CARTESIAN_POINT ( 'NONE',  ( 11.13167494529171364, 4.747973522575922978, 9.789279916230537282 ) ) ;
#467 = ORIENTED_EDGE ( 'NONE', *, *, #687, .T. ) ;
#468 = CARTESIAN_POINT ( 'NONE',  ( 12.05026463077108367, 2.252032010845232524, 6.401526014027419720 ) ) ;
#469 = CARTESIAN_POINT ( 'NONE',  ( 11.95520177894193559, 1.876470633213543682, 0.5322036542960079109 ) ) ;
#470 = CARTESIAN_POINT ( 'NONE',  ( 9.844555772470194199, 7.036165790424030675, 6.847659424632633218 ) ) ;
#471 = ORIENTED_EDGE ( 'NONE', *, *, #410, .T. ) ;
#472 = CARTESIAN_POINT ( 'NONE',  ( 14.41848197743102311, 3.044774992500724142, 6.393482274291621970 ) ) ;
#473 = CARTESIAN_POINT ( 'NONE',  ( 12.07316482449376771, 0.8177841307038232754, 1.485616320495345866 ) ) ;
#474 = ADVANCED_FACE ( 'NONE', ( #667 ), #556, .T. ) ;
#475 = CARTESIAN_POINT ( 'NONE',  ( 11.93597351255603556, 1.991922112391910193, 9.534645608613034895 ) ) ;
#476 = DIRECTION ( 'NONE',  ( 1.000000000000000000, 0.000000000000000000, -0.000000000000000000 ) ) ;
#477 = CARTESIAN_POINT ( 'NONE',  ( 11.47618242721754989, 3.899301255223708740, 6.997928592628716693 ) ) ;
#478 = CARTESIAN_POINT ( 'NONE',  ( 12.06931028910509518, 0.8849041863517189688, 1.399533245753380895 ) ) ;
#479 = CARTESIAN_POINT ( 'NONE',  ( 14.23623107901448215, 2.496500043680774272, 5.610156727593333059 ) ) ;
#480 = CARTESIAN_POINT ( 'NONE',  ( 14.28264540238832225, 2.613588983859227000, 5.859378802544554787 ) ) ;
#481 = CARTESIAN_POINT ( 'NONE',  ( 12.09392282671494456, -0.3847756120557316306, 5.246921294095581167 ) ) ;
#482 = ORIENTED_EDGE ( 'NONE', *, *, #698, .F. ) ;
#483 = CARTESIAN_POINT ( 'NONE',  ( 10.28551346065635386, 6.377451689991056938, 1.638800505909508543 ) ) ;
#484 = CARTESIAN_POINT ( 'NONE',  ( 0.000000000000000000, 0.000000000000000000, 10.00000000000000000 ) ) ;
#485 = CARTESIAN_POINT ( 'NONE',  ( 14.45737973892556383, 4.341164516698325926, 3.007813380395725211 ) ) ;
#486 = CARTESIAN_POINT ( 'NONE',  ( 11.24392388347114746, 4.473599406430385450, 0.1167125869929947352 ) ) ;
#487 = EDGE_CURVE ( 'NONE', #247, #535, #35, .T. ) ;
#488 = CARTESIAN_POINT ( 'NONE',  ( 14.27517623804014946, 4.868788847351727789, 6.974368206280168181 ) ) ;
#489 = DIRECTION ( 'NONE',  ( 0.000000000000000000, -0.9713538162795987141, -0.2376378833415660752 ) ) ;
#490 = FILL_AREA_STYLE ('',( #653 ) ) ;
#491 = CARTESIAN_POINT ( 'NONE',  ( 13.67027129897137172, 5.691196245927646835, 6.530582132700186726 ) ) ;
#492 = CARTESIAN_POINT ( 'NONE',  ( 13.28874923990393064, 5.997800376957844293, 6.029871675629681071 ) ) ;
#493 = MECHANICAL_DESIGN_GEOMETRIC_PRESENTATION_REPRESENTATION (  '', ( #175 ), #613 ) ;
#494 = ORIENTED_EDGE ( 'NONE', *, *, #80, .F. ) ;
#495 = EDGE_CURVE ( 'NONE', #324, #362, #284, .T. ) ;
#496 = CARTESIAN_POINT ( 'NONE',  ( 13.11085406274564669, 6.119995080559795575, 5.679190819300785620 ) ) ;
#497 = CARTESIAN_POINT ( 'NONE',  ( 14.51364140310860584, 3.811411394080965742, 3.140034662891994177 ) ) ;
#498 = CARTESIAN_POINT ( 'NONE',  ( 14.22894996381051946, 2.479695651662402689, 4.447618558724058424 ) ) ;
#499 = CARTESIAN_POINT ( 'NONE',  ( 9.716171829615030120, 7.211591151489567864, 4.095652206521005034 ) ) ;
#500 = CARTESIAN_POINT ( 'NONE',  ( 0.000000000000000000, 0.000000000000000000, 10.00000000000000000 ) ) ;
#501 = CARTESIAN_POINT ( 'NONE',  ( 11.55163844927723638, 3.599757454852641203, 2.999744680156180010 ) ) ;
#502 =( NAMED_UNIT ( * ) SI_UNIT ( $, .STERADIAN. ) SOLID_ANGLE_UNIT ( ) );
#503 = DIRECTION ( 'NONE',  ( 0.9535402193772463120, 0.3012657465262076339, 6.272756061893228022E-16 ) ) ;
#504 = CARTESIAN_POINT ( 'NONE',  ( 11.60282324548640176, 3.469785989594685649, 3.000799240427847181 ) ) ;
#505 = LINE ( 'NONE', #449, #2 ) ;
#506 = EDGE_LOOP ( 'NONE', ( #19, #189, #416, #86, #74 ) ) ;
#507 = CARTESIAN_POINT ( 'NONE',  ( 11.30426041555856109, 4.644007880418079992, 3.222838423393981522 ) ) ;
#508 = CARTESIAN_POINT ( 'NONE',  ( 28.60620658131740512, 9.037972395786189495, 5.000000000000010658 ) ) ;
#509 = ORIENTED_EDGE ( 'NONE', *, *, #565, .T. ) ;
#510 = CARTESIAN_POINT ( 'NONE',  ( 11.76296896822085181, 3.108233316502557297, 3.047956380495422390 ) ) ;
#511 = EDGE_CURVE ( 'NONE', #186, #201, #505, .T. ) ;
#512 = VECTOR ( 'NONE', #664, 1000.000000000000000 ) ;
#513 = CARTESIAN_POINT ( 'NONE',  ( 9.777629023335881797, 7.127971007377891688, 6.379363138485643958 ) ) ;
#514 = ORIENTED_EDGE ( 'NONE', *, *, #687, .F. ) ;
#515 = CARTESIAN_POINT ( 'NONE',  ( 14.51487861577079030, 3.875304854533405230, 6.886283551747525600 ) ) ;
#516 = CARTESIAN_POINT ( 'NONE',  ( 14.40511534048753539, 2.993240700723086789, 3.654710651321118942 ) ) ;
#517 = CARTESIAN_POINT ( 'NONE',  ( 12.09144669596526356, 0.4861490203417651035, 8.065815032637056348 ) ) ;
#518 = ORIENTED_EDGE ( 'NONE', *, *, #511, .F. ) ;
#519 = CARTESIAN_POINT ( 'NONE',  ( 12.11521178731993409, 1.975177655009357824, 5.989678792134079721 ) ) ;
#520 = CARTESIAN_POINT ( 'NONE',  ( 14.21644098870780937, 2.449453596291705004, 4.534853196699912381 ) ) ;
#521 = CARTESIAN_POINT ( 'NONE',  ( 12.01701267175592136, 1.420769611811849797, 9.128750288179686478 ) ) ;
#522 = EDGE_LOOP ( 'NONE', ( #308, #239, #235, #482, #131 ) ) ;
#523 = CARTESIAN_POINT ( 'NONE',  ( 14.48502670679907922, 3.379054189352486137, 6.647236247980229606 ) ) ;
#524 = CARTESIAN_POINT ( 'NONE',  ( 12.02999513473672266, 1.310598471672586474, 0.9639123640631906964 ) ) ;
#525 = DIRECTION ( 'NONE',  ( -0.000000000000000000, -0.000000000000000000, -1.000000000000000000 ) ) ;
#526 = CARTESIAN_POINT ( 'NONE',  ( -4.190838237552952705, -9.189498074795167781, 0.000000000000000000 ) ) ;
#527 = VECTOR ( 'NONE', #297, 1000.000000000000114 ) ;
#528 = CARTESIAN_POINT ( 'NONE',  ( 11.80223770783051584, 3.014250647190674925, 6.926464978774169445 ) ) ;
#529 = CARTESIAN_POINT ( 'NONE',  ( 14.19241262980218643, 2.393737048706443105, 4.810074806986134099 ) ) ;
#530 = CARTESIAN_POINT ( 'NONE',  ( -4.190838237552952705, -9.189498074795167781, 10.00000000000000000 ) ) ;
#531 = CARTESIAN_POINT ( 'NONE',  ( 10.98595365601187801, 5.493071957115561510, 5.579831516035536509 ) ) ;
#532 = CARTESIAN_POINT ( 'NONE',  ( 10.69444593221477646, 5.664991917497567364, 9.207780804567914146 ) ) ;
#533 = DIRECTION ( 'NONE',  ( 1.000000000000000000, 0.000000000000000000, 0.000000000000000000 ) ) ;
#534 = CARTESIAN_POINT ( 'NONE',  ( 14.50946141636237208, 3.976161988688011295, 3.081974278298754921 ) ) ;
#535 = VERTEX_POINT ( 'NONE', #498 ) ;
#536 = CARTESIAN_POINT ( 'NONE',  ( 12.98365999806870619, 6.199562327660795624, 5.095117442892481030 ) ) ;
#537 = ADVANCED_FACE ( 'NONE', ( #7 ), #347, .T. ) ;
#538 = CARTESIAN_POINT ( 'NONE',  ( 14.44414578984495812, 4.397623891612479241, 6.997562108972960715 ) ) ;
#539 = CARTESIAN_POINT ( 'NONE',  ( 9.734447189658306243, 7.186969334935236375, 3.908750891719075859 ) ) ;
#540 = AXIS2_PLACEMENT_3D ( 'NONE', #397, #69, #21 ) ;
#541 = AXIS2_PLACEMENT_3D ( 'NONE', #351, #503, #14 ) ;
#542 = CARTESIAN_POINT ( 'NONE',  ( 12.99759589033329910, 6.191200269385417343, 4.747978715821227880 ) ) ;
#543 = CARTESIAN_POINT ( 'NONE',  ( 10.91530443352268165, 5.229876922653041937, 0.4525764944745736540 ) ) ;
#544 = FACE_OUTER_BOUND ( 'NONE', #572, .T. ) ;
#545 = ADVANCED_FACE ( 'NONE', ( #18 ), #238, .F. ) ;
#546 = ORIENTED_EDGE ( 'NONE', *, *, #204, .F. ) ;
#547 = CARTESIAN_POINT ( 'NONE',  ( 14.15957448437520583, 5.082796942954487918, 6.917726550744834668 ) ) ;
#548 = CARTESIAN_POINT ( 'NONE',  ( 9.779710868463817874, 7.125946141268539868, 3.562827568849490145 ) ) ;
#549 = CARTESIAN_POINT ( 'NONE',  ( 14.39152464822273991, 4.582052779761417227, 2.995975434491380707 ) ) ;
#550 = UNCERTAINTY_MEASURE_WITH_UNIT (LENGTH_MEASURE( 1.000000000000000082E-05 ), #216, 'distance_accuracy_value', 'NONE');
#551 = CARTESIAN_POINT ( 'NONE',  ( 0.000000000000000000, 0.000000000000000000, 10.00000000000000000 ) ) ;
#552 = CARTESIAN_POINT ( 'NONE',  ( 10.99684113336840596, 5.468750610166665638, 4.333192146129884570 ) ) ;
#553 = CARTESIAN_POINT ( 'NONE',  ( 0.000000000000000000, 0.000000000000000000, 0.000000000000000000 ) ) ;
#554 = CARTESIAN_POINT ( 'NONE',  ( 11.53187241882903713, 3.659923311369855714, 2.999866000432243940 ) ) ;
#555 = EDGE_CURVE ( 'NONE', #192, #680, #44, .T. ) ;
#556 = CYLINDRICAL_SURFACE ( 'NONE', #223, 1.999999999999999556 ) ;
#557 = CARTESIAN_POINT ( 'NONE',  ( 13.32199172053191383, 5.974099237595249967, 3.911821872119230381 ) ) ;
#558 = AXIS2_PLACEMENT_3D ( 'NONE', #356, #190, #570 ) ;
#559 = CARTESIAN_POINT ( 'NONE',  ( 20.02434460692218821, 6.326580677050322343, 5.000000000000004441 ) ) ;
#560 = VERTEX_POINT ( 'NONE', #623 ) ;
#561 = B_SPLINE_CURVE_WITH_KNOTS ( 'NONE', 3,
 ( #442, #335, #385, #221, #380, #539, #548, #378, #111, #47, #483, #431, #383, #543, #273, #486, #659, #602, #4, #325 ),
 .UNSPECIFIED., .F., .F.,
 ( 4, 2, 2, 2, 2, 2, 2, 2, 2, 4 ),
 ( 0.02732813082905980948, 0.02839964925631177639, 0.02947116768356374331, 0.03054268611081571022, 0.03161420453806768061, 0.03268572296531964405, 0.03375724139257161444, 0.03482875981982357788, 0.03536451903344955960, 0.03590027824707554827 ),
 .UNSPECIFIED. ) ;
#562 = CARTESIAN_POINT ( 'NONE',  ( 11.89742585432677835, 2.208176218133327318, 0.3500866569601928102 ) ) ;
#563 = DIRECTION ( 'NONE',  ( 0.3012657465262074674, -0.9535402193772463120, 0.000000000000000000 ) ) ;
#564 = VERTEX_POINT ( 'NONE', #144 ) ;
#565 = EDGE_CURVE ( 'NONE', #324, #355, #246, .T. ) ;
#566 = CARTESIAN_POINT ( 'NONE',  ( 14.20633274110233479, 2.425895453532186608, 4.624644630882459140 ) ) ;
#567 = CARTESIAN_POINT ( 'NONE',  ( 14.22894996381051946, 2.479695651662402689, 4.447618558724058424 ) ) ;
#568 = ORIENTED_EDGE ( 'NONE', *, *, #654, .F. ) ;
#569 = CARTESIAN_POINT ( 'NONE',  ( 14.36474157514324368, 2.851936160645821339, 6.196063025052311879 ) ) ;
#570 = DIRECTION ( 'NONE',  ( -1.000000000000000000, 0.000000000000000000, 0.000000000000000000 ) ) ;
#571 = CARTESIAN_POINT ( 'NONE',  ( 12.09860163385090637, -0.2133049000464260492, 6.437747521326419253 ) ) ;
#572 = EDGE_LOOP ( 'NONE', ( #668, #509, #140, #22 ) ) ;
#573 = CARTESIAN_POINT ( 'NONE',  ( 12.09694109386286875, 2.059282248149152839, 6.137500935242318434 ) ) ;
#574 = CARTESIAN_POINT ( 'NONE',  ( 11.83904285663768974, 2.508757878476568060, 0.2111068167315391098 ) ) ;
#575 = CARTESIAN_POINT ( 'NONE',  ( 9.943118762832007462, 6.899001593030294366, 7.293489287458675641 ) ) ;
#576 = EDGE_LOOP ( 'NONE', ( #621, #370, #685, #405, #677 ) ) ;
#577 = CARTESIAN_POINT ( 'NONE',  ( 14.40899705588892843, 4.518017061901917764, 7.000823970971930876 ) ) ;
#578 = CARTESIAN_POINT ( 'NONE',  ( 12.08113082030335583, 0.6958561755475788368, 1.636776628454868376 ) ) ;
#579 = CARTESIAN_POINT ( 'NONE',  ( 11.73333397308270776, 2.961376090197159971, 9.925592286404389952 ) ) ;
#580 = DIRECTION ( 'NONE',  ( -0.9535402193772463120, -0.3012657465262069123, 0.000000000000000000 ) ) ;
#581 = CARTESIAN_POINT ( 'NONE',  ( 12.06185709208859791, 0.9825486614472439539, 8.712058346218029214 ) ) ;
#582 = CARTESIAN_POINT ( 'NONE',  ( 11.60993736685405686, 3.417108609671748010, 1.236879861228091676E-15 ) ) ;
#583 = CARTESIAN_POINT ( 'NONE',  ( 11.77405149182928845, 2.794621734841105543, 9.882047445973883626 ) ) ;
#584 = AXIS2_PLACEMENT_3D ( 'NONE', #226, #214, #476 ) ;
#585 = DIRECTION ( 'NONE',  ( -0.000000000000000000, -0.000000000000000000, -1.000000000000000000 ) ) ;
#586 = CIRCLE ( 'NONE', #640, 10.09999999999999964 ) ;
#587 = CARTESIAN_POINT ( 'NONE',  ( 11.92052239898271182, 2.693535530968844238, 6.777132123908400807 ) ) ;
#588 = CARTESIAN_POINT ( 'NONE',  ( 13.02075268178333012, 6.176897458391724882, 5.372412034233803979 ) ) ;
#589 = EDGE_LOOP ( 'NONE', ( #171, #124, #461, #77 ) ) ;
#590 = CARTESIAN_POINT ( 'NONE',  ( 13.51073179704125948, 5.825790046810162437, 6.346238582816988050 ) ) ;
#591 = CARTESIAN_POINT ( 'NONE',  ( 12.13545015908118074, 1.876753666168182955, 4.253545996841902266 ) ) ;
#592 = EDGE_CURVE ( 'NONE', #247, #192, #271, .T. ) ;
#593 =( BOUNDED_SURFACE ( )  B_SPLINE_SURFACE ( 3, 2, ( 
 ( #636, #319, #377 ),
 ( #386, #531, #441 ),
 ( #41, #700, #210 ),
 ( #601, #425, #31 ),
 ( #639, #154, #109 ),
 ( #56, #279, #603 ),
 ( #112, #254, #285 ),
 ( #499, #282, #296 ),
 ( #121, #552, #389 ),
 ( #61, #610, #64 ),
 ( #13, #339, #179 ),
 ( #228, #605, #557 ),
 ( #395, #119, #116 ),
 ( #9, #443, #230 ),
 ( #125, #507, #72 ),
 ( #445, #619, #233 ),
 ( #240, #20, #345 ),
 ( #336, #455, #674 ),
 ( #448, #663, #177 ),
 ( #236, #188, #393 ),
 ( #291, #607, #342 ),
 ( #451, #554, #549 ),
 ( #288, #501, #669 ),
 ( #399, #504, #666 ),
 ( #403, #68, #16 ),
 ( #184, #614, #350 ),
 ( #562, #58, #497 ),
 ( #5, #660, #173 ),
 ( #414, #510, #683 ),
 ( #249, #24, #406 ),
 ( #688, #199, #626 ),
 ( #478, #142, #30 ),
 ( #578, #310, #516 ),
 ( #465, #258, #245 ),
 ( #194, #84, #203 ),
 ( #133, #299, #458 ),
 ( #678, #252, #364 ),
 ( #629, #360, #423 ) ),
 .UNSPECIFIED., .F., .F., .T. ) 
 B_SPLINE_SURFACE_WITH_KNOTS ( ( 4, 2, 2, 2, 2, 2, 2, 2, 2, 2, 2, 2, 2, 2, 2, 2, 2, 2, 4 ),
 ( 3, 3 ),
 ( 0.000000000000000000, 0.0009828326976578257140, 0.001474249046486738463, 0.001965665395315651428, 0.002948498092973476925, 0.003931330790631302856, 0.004914163488289128787, 0.005896996185946953850, 0.006879828883604779781, 0.007862661581262605712, 0.008845494278920430775, 0.009828326976578257573, 0.01081115967423608264, 0.01130257602306499604, 0.01179399237189390770, 0.01277682506955173450, 0.01375965776720955956, 0.01474249046486738463, 0.01572532316252521142 ),
 ( 0.000000000000000000, 1.000000000000000000 ),
 .UNSPECIFIED. ) 
 GEOMETRIC_REPRESENTATION_ITEM ( )  RATIONAL_B_SPLINE_SURFACE ( (
 ( 1.000000000000000000, 0.8080610319394109231, 1.000000000000000000),
 ( 1.000000000000000000, 0.8116607082189934985, 1.000000000000000000),
 ( 1.000000000000000000, 0.8140394380397928398, 1.000000000000000000),
 ( 1.000000000000000000, 0.8156780170808999308, 1.000000000000000000),
 ( 1.000000000000000000, 0.8159024327053319148, 1.000000000000000000),
 ( 1.000000000000000000, 0.8156851084543326191, 1.000000000000000000),
 ( 1.000000000000000000, 0.8152371693803130981, 1.000000000000000000),
 ( 1.000000000000000000, 0.8129327846338612051, 1.000000000000000000),
 ( 1.000000000000000000, 0.8101235260469468180, 1.000000000000000000),
 ( 1.000000000000000000, 0.8022423645782756907, 1.000000000000000000),
 ( 1.000000000000000000, 0.7971435820424540575, 1.000000000000000000),
 ( 1.000000000000000000, 0.7855684823859473420, 1.000000000000000000),
 ( 1.000000000000000000, 0.7790331901378110269, 1.000000000000000000),
 ( 1.000000000000000000, 0.7651687908555903084, 1.000000000000000000),
 ( 1.000000000000000000, 0.7580316133498639086, 1.000000000000000000),
 ( 1.000000000000000000, 0.7441207112488477105, 1.000000000000000000),
 ( 1.000000000000000000, 0.7372762954069617125, 1.000000000000000000),
 ( 1.000000000000000000, 0.7252313795938699625, 1.000000000000000000),
 ( 1.000000000000000000, 0.7200257922222996765, 1.000000000000000000),
 ( 1.000000000000000000, 0.7119741960510412859, 1.000000000000000000),
 ( 1.000000000000000000, 0.7091541083815056101, 1.000000000000000000),
 ( 1.000000000000000000, 0.7066395182841005429, 1.000000000000000000),
 ( 1.000000000000000000, 0.7068812615756309148, 1.000000000000000000),
 ( 1.000000000000000000, 0.7104095009234024927, 1.000000000000000000),
 ( 1.000000000000000000, 0.7136750664920683551, 1.000000000000000000),
 ( 1.000000000000000000, 0.7202864156246483462, 1.000000000000000000),
 ( 1.000000000000000000, 0.7227785172799654489, 1.000000000000000000),
 ( 1.000000000000000000, 0.7282583742921792114, 1.000000000000000000),
 ( 1.000000000000000000, 0.7312592333171875625, 1.000000000000000000),
 ( 1.000000000000000000, 0.7406733102961506887, 1.000000000000000000),
 ( 1.000000000000000000, 0.7475385284004165687, 1.000000000000000000),
 ( 1.000000000000000000, 0.7616138028369894286, 1.000000000000000000),
 ( 1.000000000000000000, 0.7688467414705754122, 1.000000000000000000),
 ( 1.000000000000000000, 0.7823170641268696324, 1.000000000000000000),
 ( 1.000000000000000000, 0.7886346047739275500, 1.000000000000000000),
 ( 1.000000000000000000, 0.7997831767838609052, 1.000000000000000000),
 ( 1.000000000000000000, 0.8045222297784004883, 1.000000000000000000),
 ( 1.000000000000000000, 0.8080430417107740126, 1.000000000000000000) ) ) 
 REPRESENTATION_ITEM ( '' )  SURFACE ( )  );
#594 = CARTESIAN_POINT ( 'NONE',  ( 13.08578072397512670, 6.136319019504356653, 4.391237037248510333 ) ) ;
#595 = CARTESIAN_POINT ( 'NONE',  ( 11.11976075632241745, 5.174646705945410652, 6.269175535219785544 ) ) ;
#596 = CARTESIAN_POINT ( 'NONE',  ( 12.09671769429305321, -0.2918207236919770353, 3.930904079378744864 ) ) ;
#597 = CARTESIAN_POINT ( 'NONE',  ( 10.02731588565160514, 6.772620232704838372, 7.574679189251003031 ) ) ;
#598 = CIRCLE ( 'NONE', #11, 12.09999999999999964 ) ;
#599 = CARTESIAN_POINT ( 'NONE',  ( 14.18809208628027818, 5.033856090857361743, 3.066558525444687877 ) ) ;
#600 = CARTESIAN_POINT ( 'NONE',  ( 10.15298425024452200, 6.582855598299722999, 7.982748215434805061 ) ) ;
#601 = CARTESIAN_POINT ( 'NONE',  ( 9.681676035057126484, 7.257773785006448541, 5.248541094036580645 ) ) ;
#602 = CARTESIAN_POINT ( 'NONE',  ( 11.42757355420785004, 3.981365575062444595, 0.01464151898799197736 ) ) ;
#603 = CARTESIAN_POINT ( 'NONE',  ( 12.98517696859789261, 6.198643275886974280, 4.901493769320140359 ) ) ;
#604 = CYLINDRICAL_SURFACE ( 'NONE', #627, 12.09999999999999964 ) ;
#605 = CARTESIAN_POINT ( 'NONE',  ( 11.15667127455397356, 5.080281748003135256, 3.598883472308122666 ) ) ;
#606 = DIRECTION ( 'NONE',  ( -0.000000000000000000, -0.000000000000000000, -1.000000000000000000 ) ) ;
#607 = CARTESIAN_POINT ( 'NONE',  ( 11.49779660999665332, 3.790947611451916277, 3.000320686942799853 ) ) ;
#608 = EDGE_CURVE ( 'NONE', #355, #201, #586, .T. ) ;
#609 = FACE_OUTER_BOUND ( 'NONE', #576, .T. ) ;
#610 = CARTESIAN_POINT ( 'NONE',  ( 11.05072840524456446, 5.344295050150983606, 4.010832280370865810 ) ) ;
#611 = CARTESIAN_POINT ( 'NONE',  ( -6.794621089050845164, -10.01214883310398740, 10.00000000000000000 ) ) ;
#612 = VERTEX_POINT ( 'NONE', #369 ) ;
#613 =( GEOMETRIC_REPRESENTATION_CONTEXT ( 3 ) GLOBAL_UNCERTAINTY_ASSIGNED_CONTEXT ( ( #550 ) ) GLOBAL_UNIT_ASSIGNED_CONTEXT ( ( #216, #438, #167 ) ) REPRESENTATION_CONTEXT ( 'NONE', 'WORKASPACE' ) );
#614 = CARTESIAN_POINT ( 'NONE',  ( 11.68608637792802440, 3.284309099085235495, 3.014222882935851722 ) ) ;
#615 = PRODUCT_CONTEXT ( 'NONE', #681, 'mechanical' ) ;
#616 = DIRECTION ( 'NONE',  ( -0.3012657465262073564, 0.9535402193772463120, 0.000000000000000000 ) ) ;
#617 = VERTEX_POINT ( 'NONE', #94 ) ;
#618 = EDGE_CURVE ( 'NONE', #454, #348, #12, .T. ) ;
#619 = CARTESIAN_POINT ( 'NONE',  ( 11.36544403614737675, 4.422427464939936215, 3.111204044922928791 ) ) ;
#620 = CARTESIAN_POINT ( 'NONE',  ( 12.09489895820634686, -0.3518694346934199135, 4.316836785503655349 ) ) ;
#621 = ORIENTED_EDGE ( 'NONE', *, *, #40, .F. ) ;
#622 = CARTESIAN_POINT ( 'NONE',  ( 14.22894996381051946, 2.479695651662402689, 4.447618558724058424 ) ) ;
#623 = CARTESIAN_POINT ( 'NONE',  ( 14.18872298417350208, 2.385401450151800606, 5.000000000000526690 ) ) ;
#624 = ORIENTED_EDGE ( 'NONE', *, *, #618, .T. ) ;
#625 = CARTESIAN_POINT ( 'NONE',  ( 14.42737580049997526, 4.453731685946605623, 6.998604785025534625 ) ) ;
#626 = CARTESIAN_POINT ( 'NONE',  ( 14.47580828981260126, 3.319651039158933781, 3.391479555281238234 ) ) ;
#627 = AXIS2_PLACEMENT_3D ( 'NONE', #456, #606, #287 ) ;
#628 = CARTESIAN_POINT ( 'NONE',  ( 12.09735091770521898, 0.2862956286459685251, 7.721208252484974999 ) ) ;
#629 = CARTESIAN_POINT ( 'NONE',  ( 12.09807046303648193, -0.2160811685553107320, 3.619046396810146060 ) ) ;
#630 = PRODUCT_DEFINITION ( 'æ™', '', #689, #306 ) ;
#631 = CARTESIAN_POINT ( 'NONE',  ( 10.95358677028913341, 5.145520044122284808, 9.589502890523663226 ) ) ;
#632 = ORIENTED_EDGE ( 'NONE', *, *, #654, .T. ) ;
#633 = CARTESIAN_POINT ( 'NONE',  ( 11.68478860700162514, 3.287071502537787904, 6.987396886847404787 ) ) ;
#634 = CARTESIAN_POINT ( 'NONE',  ( 12.10002711631847205, 0.08155969981827326798, 2.710951763894147160 ) ) ;
#635 = CARTESIAN_POINT ( 'NONE',  ( 12.09368119808980779, -0.3914945558515505186, 5.027801645999871560 ) ) ;
#636 = CARTESIAN_POINT ( 'NONE',  ( 9.777629023335881797, 7.127971007377891688, 6.379363138485643958 ) ) ;
#637 = CARTESIAN_POINT ( 'NONE',  ( 11.44350253264034833, 4.068818760132119294, 6.981654142202232016 ) ) ;
#638 = CARTESIAN_POINT ( 'NONE',  ( 14.18872298417350208, 2.385401450151800606, 5.000000000000526690 ) ) ;
#639 = CARTESIAN_POINT ( 'NONE',  ( 9.678860061109908486, 7.261520025957173274, 5.084288956725478315 ) ) ;
#640 = AXIS2_PLACEMENT_3D ( 'NONE', #694, #205, #148 ) ;
#641 = CARTESIAN_POINT ( 'NONE',  ( 11.37905235646975655, 4.366823221982143011, 6.908659398713271393 ) ) ;
#642 = CARTESIAN_POINT ( 'NONE',  ( 12.09749341388775434, -0.2605398865347426929, 6.226787738811893291 ) ) ;
#643 = CARTESIAN_POINT ( 'NONE',  ( 13.14529693080505446, 6.098087734026645279, 5.788127653060238131 ) ) ;
#644 = ORIENTED_EDGE ( 'NONE', *, *, #161, .T. ) ;
#645 = CARTESIAN_POINT ( 'NONE',  ( 13.25564885893036582, 6.021466825299931713, 5.973591980787827715 ) ) ;
#646 = CARTESIAN_POINT ( 'NONE',  ( 14.22894996381554833, 2.479695651674569845, 4.447618558688959389 ) ) ;
#647 = CARTESIAN_POINT ( 'NONE',  ( 12.98365999806870619, 6.199562327660796512, 5.000000000000000000 ) ) ;
#648 = DIRECTION ( 'NONE',  ( 0.9535402193772463120, 0.3012657465262069123, 0.000000000000000000 ) ) ;
#649 = CARTESIAN_POINT ( 'NONE',  ( 12.09996006046315209, -0.09052329385158296160, 6.849645292704265032 ) ) ;
#650 = CARTESIAN_POINT ( 'NONE',  ( 13.88818481998796273, 5.454835813727334504, 6.725863373161996783 ) ) ;
#651 = CIRCLE ( 'NONE', #346, 10.09999999999999964 ) ;
#652 = CYLINDRICAL_SURFACE ( 'NONE', #446, 12.09999999999999964 ) ;
#653 = FILL_AREA_STYLE_COLOUR ( '', #67 ) ;
#654 = EDGE_CURVE ( 'NONE', #535, #182, #361, .T. ) ;
#655 = CARTESIAN_POINT ( 'NONE',  ( 14.06164936064590165, 5.232795476741463503, 3.143428879309046575 ) ) ;
#656 = CARTESIAN_POINT ( 'NONE',  ( 10.38585004919521282, 6.211706864432732900, 8.598103435629168345 ) ) ;
#657 = EDGE_LOOP ( 'NONE', ( #15, #624 ) ) ;
#658 = CARTESIAN_POINT ( 'NONE',  ( 0.000000000000000000, 0.000000000000000000, 0.000000000000000000 ) ) ;
#659 = CARTESIAN_POINT ( 'NONE',  ( 11.30748329178012490, 4.310629975448634355, 0.07281297278488174651 ) ) ;
#660 = CARTESIAN_POINT ( 'NONE',  ( 11.74295618534853425, 3.155118615675780003, 3.036780128270911039 ) ) ;
#661 = DIRECTION ( 'NONE',  ( 0.000000000000000000, 0.000000000000000000, 1.000000000000000000 ) ) ;
#662 = DIRECTION ( 'NONE',  ( -0.9535402193772462009, -0.3012657465262073564, 0.000000000000000000 ) ) ;
#663 = CARTESIAN_POINT ( 'NONE',  ( 11.45211115985480355, 4.023895558201448175, 3.012708103604837540 ) ) ;
#664 = DIRECTION ( 'NONE',  ( -0.9535402193772462009, -0.3012657465262076339, -6.272756061893228022E-16 ) ) ;
#665 = DIRECTION ( 'NONE',  ( -0.9535402193772462009, -0.3012657465262076339, -6.272756061893228022E-16 ) ) ;
#666 = CARTESIAN_POINT ( 'NONE',  ( 14.48491544606590864, 4.197771802605227975, 3.028402321191772550 ) ) ;
#667 = FACE_OUTER_BOUND ( 'NONE', #145, .T. ) ;
#668 = ORIENTED_EDGE ( 'NONE', *, *, #495, .F. ) ;
#669 = CARTESIAN_POINT ( 'NONE',  ( 14.42944533938555907, 4.456393094804225186, 2.997998381953619340 ) ) ;
#670 = EDGE_CURVE ( 'NONE', #268, #560, #33, .T. ) ;
#671 = DIRECTION ( 'NONE',  ( 0.000000000000000000, 0.000000000000000000, 1.000000000000000000 ) ) ;
#672 = ORIENTED_EDGE ( 'NONE', *, *, #257, .F. ) ;
#673 = B_SPLINE_CURVE_WITH_KNOTS ( 'NONE', 3,
 ( #305, #582, #27, #138, #574, #88, #469, #313, #524, #697, #473, #92, #34, #418, #634, #147, #368, #39 ),
 .UNSPECIFIED., .F., .F.,
 ( 4, 2, 2, 2, 2, 2, 2, 2, 4 ),
 ( 0.007172344966421850300, 0.007895048168546369566, 0.008617751370670887964, 0.009340454572795408097, 0.01006315777491992650, 0.01078586097704444663, 0.01150856417916896503, 0.01223126738129348343, 0.01295397058341800356 ),
 .UNSPECIFIED. ) ;
#674 = CARTESIAN_POINT ( 'NONE',  ( 14.03340714682729029, 5.272639183331280677, 3.162270190104595535 ) ) ;
#675 = AXIS2_PLACEMENT_3D ( 'NONE', #658, #661, #126 ) ;
#676 = CARTESIAN_POINT ( 'NONE',  ( 28.60620658131740512, 9.037972395786189495, 5.000000000000010658 ) ) ;
#677 = ORIENTED_EDGE ( 'NONE', *, *, #388, .T. ) ;
#678 = CARTESIAN_POINT ( 'NONE',  ( 12.09942403022940205, -0.1402969093999230921, 3.307004645371383500 ) ) ;
#679 = CARTESIAN_POINT ( 'NONE',  ( 11.22093036717186720, 4.533761310141263046, 9.868587748531453485 ) ) ;
#680 = VERTEX_POINT ( 'NONE', #708 ) ;
#681 = APPLICATION_CONTEXT ( 'automotive_design' ) ;
#682 = CARTESIAN_POINT ( 'NONE',  ( 11.54256594522708390, 3.629444789560028806, 7.000006031461396105 ) ) ;
#683 = CARTESIAN_POINT ( 'NONE',  ( 14.50842777038067410, 3.621346386703660603, 3.221817088784660221 ) ) ;
#684 = CARTESIAN_POINT ( 'NONE',  ( 12.09807046303686207, -0.2160811685339994737, 3.619046396722398029 ) ) ;
#685 = ORIENTED_EDGE ( 'NONE', *, *, #257, .T. ) ;
#686 = CARTESIAN_POINT ( 'NONE',  ( 11.84267812938257514, 2.911692336446947138, 6.889493119816238575 ) ) ;
#687 = EDGE_CURVE ( 'NONE', #454, #182, #174, .T. ) ;
#688 = CARTESIAN_POINT ( 'NONE',  ( 12.03278357835286272, 1.289738589886561870, 0.9786988878506068801 ) ) ;
#689 = PRODUCT_DEFINITION_FORMATION_WITH_SPECIFIED_SOURCE ( 'å¯', '', #463, .NOT_KNOWN. ) ;
#690 = CARTESIAN_POINT ( 'NONE',  ( 12.09659599015402520, -0.2904090125545752965, 6.087030830017502225 ) ) ;
#691 = CARTESIAN_POINT ( 'NONE',  ( 0.000000000000000000, 0.000000000000000000, 10.00000000000000000 ) ) ;
#692 = CARTESIAN_POINT ( 'NONE',  ( 11.51454316298160485, 3.725361813969415348, 6.999987155193369226 ) ) ;
#693 = FACE_OUTER_BOUND ( 'NONE', #589, .T. ) ;
#694 = CARTESIAN_POINT ( 'NONE',  ( 0.000000000000000000, 0.000000000000000000, 0.000000000000000000 ) ) ;
#695 = CARTESIAN_POINT ( 'NONE',  ( -13.79732975341123336, 3.506236112362240753, 10.00000000000000000 ) ) ;
#696 = CARTESIAN_POINT ( 'NONE',  ( 12.09316535750516586, 0.4421354178663305934, 7.990157562623844356 ) ) ;
#697 = CARTESIAN_POINT ( 'NONE',  ( 12.06185318570618215, 0.9747558782635684649, 1.301196362236057391 ) ) ;
#698 = EDGE_CURVE ( 'NONE', #564, #612, #115, .T. ) ;
#699 = CARTESIAN_POINT ( 'NONE',  ( 14.21888802696515164, 2.455310325920818659, 5.492308672949577364 ) ) ;
#700 = CARTESIAN_POINT ( 'NONE',  ( 10.96871278708194453, 5.530790802529577554, 5.404697207283952309 ) ) ;
#701 = CARTESIAN_POINT ( 'NONE',  ( 14.49405597208585128, 4.132948744925882600, 6.958574774598960566 ) ) ;
#702 = CARTESIAN_POINT ( 'NONE',  ( 12.09578683787012565, -0.3208775202121111891, 5.899640291422232785 ) ) ;
#703 = CARTESIAN_POINT ( 'NONE',  ( 14.45902195415251157, 3.198429935150738146, 3.467772034607543574 ) ) ;
#704 = AXIS2_PLACEMENT_3D ( 'NONE', #52, #55, #489 ) ;
#705 = ORIENTED_EDGE ( 'NONE', *, *, #143, .F. ) ;
#706 = AXIS2_PLACEMENT_3D ( 'NONE', #452, #17, #117 ) ;
#707 = CARTESIAN_POINT ( 'NONE',  ( 11.28675437594746356, 4.701933696656569239, 6.740682249247745617 ) ) ;
#708 = CARTESIAN_POINT ( 'NONE',  ( 9.777629023335881797, 7.127971007377891688, 6.379363138485643958 ) ) ;
#709 = DIRECTION ( 'NONE',  ( 0.3012657465262069678, -0.9535402193772464230, 0.000000000000000000 ) ) ;
#710 = CARTESIAN_POINT ( 'NONE',  ( 14.18654018626070190, 2.380388352910997263, 4.967463476814264922 ) ) ;
#711 = CARTESIAN_POINT ( 'NONE',  ( 14.51406472527497016, 4.034575870315848078, 6.945517206522508147 ) ) ;
#712 = FACE_OUTER_BOUND ( 'NONE', #90, .T. ) ;
#713 = CARTESIAN_POINT ( 'NONE',  ( 14.18777041572707098, 2.383131525334369005, 5.098768517621507179 ) ) ;
#714 = APPLICATION_CONTEXT ( 'automotive_design' ) ;
#715 = CARTESIAN_POINT ( 'NONE',  ( 13.35294033892653154, 5.955430156230990590, 3.854922670481715219 ) ) ;
ENDSEC;
END-ISO-10303-21;
