ISO-10303-21;
HEADER;
FILE_DESCRIPTION (( 'STEP AP214' ),
    '1' );
FILE_NAME ('sub¶æ»úµ××ù.STEP',
    '2026-08-29T22:11:53',
    ( '' ),
    ( '' ),
    'SwSTEP 2.0',
    'SolidWorks 2023',
    '' );
FILE_SCHEMA (( 'AUTOMOTIVE_DESIGN' ));
ENDSEC;

DATA;
#1 = TOROIDAL_SURFACE ( 'NONE', #742, 2.050000000000000711, 1.000000000000000000 ) ;
#2 = VECTOR ( 'NONE', #786, 1000.000000000000000 ) ;
#3 = AXIS2_PLACEMENT_3D ( 'NONE', #612, #514, #924 ) ;
#4 = ORIENTED_EDGE ( 'NONE', *, *, #626, .T. ) ;
#5 = FACE_OUTER_BOUND ( 'NONE', #764, .T. ) ;
#6 = ADVANCED_FACE ( 'NONE', ( #557 ), #1025, .F. ) ;
#7 = FACE_OUTER_BOUND ( 'NONE', #537, .T. ) ;
#8 = DIRECTION ( 'NONE',  ( 1.000000000000000000, 0.000000000000000000, 0.000000000000000000 ) ) ;
#9 = ADVANCED_FACE ( 'NONE', ( #860 ), #660, .T. ) ;
#10 = ORIENTED_EDGE ( 'NONE', *, *, #710, .T. ) ;
#11 = LINE ( 'NONE', #327, #59 ) ;
#12 = ORIENTED_EDGE ( 'NONE', *, *, #934, .T. ) ;
#13 = FACE_OUTER_BOUND ( 'NONE', #495, .T. ) ;
#14 = DIRECTION ( 'NONE',  ( -1.000000000000000000, 0.000000000000000000, 0.000000000000000000 ) ) ;
#15 = EDGE_CURVE ( 'NONE', #490, #76, #950, .T. ) ;
#16 = CARTESIAN_POINT ( 'NONE',  ( 2.636779683484746784E-12, -6.175615574477433256E-13, 1.900000000000061418 ) ) ;
#17 = AXIS2_PLACEMENT_3D ( 'NONE', #665, #1183, #1191 ) ;
#18 = ORIENTED_EDGE ( 'NONE', *, *, #281, .F. ) ;
#19 = PLANE ( 'NONE',  #589 ) ;
#20 = ORIENTED_EDGE ( 'NONE', *, *, #430, .F. ) ;
#21 = CARTESIAN_POINT ( 'NONE',  ( 2.069494673095137942E-15, -19.00000000000000355, 5.000000000000000000 ) ) ;
#22 = DIRECTION ( 'NONE',  ( -0.000000000000000000, -0.000000000000000000, -1.000000000000000000 ) ) ;
#23 = EDGE_CURVE ( 'NONE', #357, #1261, #131, .T. ) ;
#24 = AXIS2_PLACEMENT_3D ( 'NONE', #1080, #153, #162 ) ;
#25 = ORIENTED_EDGE ( 'NONE', *, *, #189, .T. ) ;
#26 = CIRCLE ( 'NONE', #443, 1.050000000000000488 ) ;
#27 = CARTESIAN_POINT ( 'NONE',  ( -7.999999999999998224, -6.000000000000003553, 5.000000000000000000 ) ) ;
#28 = AXIS2_PLACEMENT_3D ( 'NONE', #1068, #1052, #565 ) ;
#29 = ORIENTED_EDGE ( 'NONE', *, *, #391, .F. ) ;
#30 = DIRECTION ( 'NONE',  ( 0.000000000000000000, -0.000000000000000000, 1.000000000000000000 ) ) ;
#31 = CARTESIAN_POINT ( 'NONE',  ( 15.92647058823530237, -19.00000000000000355, 0.000000000000000000 ) ) ;
#32 = ORIENTED_EDGE ( 'NONE', *, *, #1222, .T. ) ;
#33 = EDGE_CURVE ( 'NONE', #797, #654, #650, .T. ) ;
#34 = CARTESIAN_POINT ( 'NONE',  ( 0.000000000000000000, 34.00000000000000000, 5.000000000000000000 ) ) ;
#35 = ORIENTED_EDGE ( 'NONE', *, *, #693, .T. ) ;
#36 = CARTESIAN_POINT ( 'NONE',  ( 8.000000000000000000, 6.000000000000001776, 7.000000000000000000 ) ) ;
#37 = DIRECTION ( 'NONE',  ( 1.224646799147353207E-16, 1.000000000000000000, 0.000000000000000000 ) ) ;
#38 = FACE_OUTER_BOUND ( 'NONE', #648, .T. ) ;
#39 = VECTOR ( 'NONE', #1032, 1000.000000000000000 ) ;
#40 = ADVANCED_FACE ( 'NONE', ( #145 ), #961, .T. ) ;
#41 = ORIENTED_EDGE ( 'NONE', *, *, #918, .T. ) ;
#42 = CARTESIAN_POINT ( 'NONE',  ( 0.000000000000000000, 0.000000000000000000, 7.000000000000000000 ) ) ;
#43 = FACE_OUTER_BOUND ( 'NONE', #1275, .T. ) ;
#44 = LINE ( 'NONE', #867, #340 ) ;
#45 = ORIENTED_EDGE ( 'NONE', *, *, #788, .F. ) ;
#46 = ORIENTED_EDGE ( 'NONE', *, *, #905, .T. ) ;
#47 = LINE ( 'NONE', #447, #205 ) ;
#48 = EDGE_CURVE ( 'NONE', #798, #253, #26, .T. ) ;
#49 = DIRECTION ( 'NONE',  ( -0.3090169943749470072, 0.9510565162951537532, 3.097720492815728645E-16 ) ) ;
#50 = DIRECTION ( 'NONE',  ( -0.000000000000000000, 0.000000000000000000, 1.000000000000000000 ) ) ;
#51 = VERTEX_POINT ( 'NONE', #463 ) ;
#52 = VERTEX_POINT ( 'NONE', #176 ) ;
#53 = DIRECTION ( 'NONE',  ( -1.000000000000000000, 0.000000000000000000, 0.000000000000000000 ) ) ;
#54 = UNCERTAINTY_MEASURE_WITH_UNIT (LENGTH_MEASURE( 1.000000000000000082E-05 ), #64, 'distance_accuracy_value', 'NONE');
#55 = ORIENTED_EDGE ( 'NONE', *, *, #1244, .F. ) ;
#56 = ORIENTED_EDGE ( 'NONE', *, *, #299, .F. ) ;
#57 = ORIENTED_EDGE ( 'NONE', *, *, #918, .F. ) ;
#58 = DIRECTION ( 'NONE',  ( 4.591682424051300546E-16, -6.580674305559801251E-17, 1.000000000000000000 ) ) ;
#59 = VECTOR ( 'NONE', #936, 1000.000000000000000 ) ;
#60 = DIRECTION ( 'NONE',  ( -0.000000000000000000, 0.000000000000000000, 1.000000000000000000 ) ) ;
#61 = CIRCLE ( 'NONE', #292, 1.050000000000000488 ) ;
#62 = EDGE_CURVE ( 'NONE', #346, #1051, #90, .T. ) ;
#63 = ORIENTED_EDGE ( 'NONE', *, *, #23, .F. ) ;
#64 =( LENGTH_UNIT ( ) NAMED_UNIT ( * ) SI_UNIT ( .MILLI., .METRE. ) );
#65 = VERTEX_POINT ( 'NONE', #278 ) ;
#66 = CIRCLE ( 'NONE', #202, 1.050000000000000488 ) ;
#67 = DIRECTION ( 'NONE',  ( -1.000000000000000000, 0.000000000000000000, 0.000000000000000000 ) ) ;
#68 = CARTESIAN_POINT ( 'NONE',  ( 15.92647058823530593, 34.00000000000000000, 0.000000000000000000 ) ) ;
#69 = FACE_OUTER_BOUND ( 'NONE', #845, .T. ) ;
#70 = CIRCLE ( 'NONE', #747, 1.500000000000003109 ) ;
#71 = ORIENTED_EDGE ( 'NONE', *, *, #1012, .T. ) ;
#72 = ORIENTED_EDGE ( 'NONE', *, *, #494, .T. ) ;
#73 = EDGE_CURVE ( 'NONE', #1017, #490, #485, .T. ) ;
#74 = DIRECTION ( 'NONE',  ( 1.224646799147353207E-16, 1.000000000000000000, 0.000000000000000000 ) ) ;
#75 = DIRECTION ( 'NONE',  ( 0.000000000000000000, -1.000000000000000000, -0.000000000000000000 ) ) ;
#76 = VERTEX_POINT ( 'NONE', #68 ) ;
#77 = DIRECTION ( 'NONE',  ( -1.000000000000000000, -1.826024711554534160E-16, 0.000000000000000000 ) ) ;
#78 = EDGE_CURVE ( 'NONE', #588, #253, #684, .T. ) ;
#79 = PLANE ( 'NONE',  #915 ) ;
#80 = AXIS2_PLACEMENT_3D ( 'NONE', #1069, #1296, #752 ) ;
#81 = CARTESIAN_POINT ( 'NONE',  ( -9.050000000000000711, 6.000000000000001776, 7.000000000000000000 ) ) ;
#82 = AXIS2_PLACEMENT_3D ( 'NONE', #1061, #613, #659 ) ;
#83 = ORIENTED_EDGE ( 'NONE', *, *, #493, .T. ) ;
#84 =( NAMED_UNIT ( * ) SI_UNIT ( $, .STERADIAN. ) SOLID_ANGLE_UNIT ( ) );
#85 = ORIENTED_EDGE ( 'NONE', *, *, #210, .F. ) ;
#86 = DIRECTION ( 'NONE',  ( -5.774397152264310090E-17, 0.3162277660168378857, 0.9486832980505138790 ) ) ;
#87 = ADVANCED_FACE ( 'NONE', ( #989 ), #264, .F. ) ;
#88 = DIRECTION ( 'NONE',  ( 0.000000000000000000, -1.000000000000000000, 0.000000000000000000 ) ) ;
#89 = CIRCLE ( 'NONE', #442, 1.500000000000002442 ) ;
#90 = CIRCLE ( 'NONE', #300, 1.049999999999998934 ) ;
#91 = AXIS2_PLACEMENT_3D ( 'NONE', #948, #728, #644 ) ;
#92 = VERTEX_POINT ( 'NONE', #160 ) ;
#93 = CARTESIAN_POINT ( 'NONE',  ( 2.636779683484746784E-12, -6.175615574477433256E-13, 5.000000000000060396 ) ) ;
#94 = ORIENTED_EDGE ( 'NONE', *, *, #273, .F. ) ;
#95 = FACE_BOUND ( 'NONE', #1326, .T. ) ;
#96 = ORIENTED_EDGE ( 'NONE', *, *, #381, .F. ) ;
#97 = DIRECTION ( 'NONE',  ( 1.224646799147353207E-16, 1.000000000000000000, 0.000000000000000000 ) ) ;
#98 = VERTEX_POINT ( 'NONE', #1085 ) ;
#99 = CARTESIAN_POINT ( 'NONE',  ( 9.050000000000000711, -6.000000000000000000, 7.000000000000000000 ) ) ;
#100 = CARTESIAN_POINT ( 'NONE',  ( -0.4635254915597702419, 27.92658477444213716, 5.000000000001440625 ) ) ;
#101 = CIRCLE ( 'NONE', #1157, 1.050000000000000488 ) ;
#102 = ORIENTED_EDGE ( 'NONE', *, *, #855, .F. ) ;
#103 = CARTESIAN_POINT ( 'NONE',  ( 14.25000000000000355, -19.00000000000000355, 20.00000000000000000 ) ) ;
#104 = CARTESIAN_POINT ( 'NONE',  ( -9.049999999999998934, -6.000000000000003553, 6.000000000000000000 ) ) ;
#105 = CARTESIAN_POINT ( 'NONE',  ( -0.8497967345284542784, 29.11540541981107921, 5.000000000001441514 ) ) ;
#106 = TOROIDAL_SURFACE ( 'NONE', #510, 2.050000000000000711, 1.000000000000000000 ) ;
#107 = ORIENTED_EDGE ( 'NONE', *, *, #1198, .T. ) ;
#108 = DIRECTION ( 'NONE',  ( 1.000000000000000000, 0.000000000000000000, 0.000000000000000000 ) ) ;
#109 = DIRECTION ( 'NONE',  ( -0.3090169943749468406, 0.9510565162951537532, 3.154042683594190683E-16 ) ) ;
#110 = CARTESIAN_POINT ( 'NONE',  ( 10.92647058823530060, 18.99999999999999645, 10.00000000000000000 ) ) ;
#111 = CARTESIAN_POINT ( 'NONE',  ( 0.4635254915650690033, 25.07341522555667268, 0.000000000000000000 ) ) ;
#112 = CARTESIAN_POINT ( 'NONE',  ( 0.000000000000000000, 0.000000000000000000, 7.000000000000000000 ) ) ;
#113 = ORIENTED_EDGE ( 'NONE', *, *, #1016, .F. ) ;
#114 = DIRECTION ( 'NONE',  ( 1.000000000000000000, 0.000000000000000000, 0.000000000000000000 ) ) ;
#115 = DIRECTION ( 'NONE',  ( -0.3090169943749466186, 0.9510565162951538642, 1.445602896647336205E-16 ) ) ;
#116 = CIRCLE ( 'NONE', #1268, 1.050000000000000488 ) ;
#117 = EDGE_LOOP ( 'NONE', ( #361, #554, #1067, #216 ) ) ;
#118 = AXIS2_PLACEMENT_3D ( 'NONE', #1162, #211, #1243 ) ;
#119 = CARTESIAN_POINT ( 'NONE',  ( -10.05000000000000071, 6.000000000000001776, 5.000000000000000000 ) ) ;
#120 = ORIENTED_EDGE ( 'NONE', *, *, #1293, .T. ) ;
#121 = CARTESIAN_POINT ( 'NONE',  ( -9.050000000000000711, 6.000000000000001776, 6.000000000000000000 ) ) ;
#122 = DIRECTION ( 'NONE',  ( 0.000000000000000000, 0.000000000000000000, -1.000000000000000000 ) ) ;
#123 = DIRECTION ( 'NONE',  ( 1.826024711554534160E-16, -1.000000000000000000, 0.000000000000000000 ) ) ;
#124 = DIRECTION ( 'NONE',  ( -0.000000000000000000, 0.000000000000000000, 1.000000000000000000 ) ) ;
#125 = VECTOR ( 'NONE', #88, 1000.000000000000000 ) ;
#126 = VERTEX_POINT ( 'NONE', #168 ) ;
#127 = FACE_OUTER_BOUND ( 'NONE', #757, .T. ) ;
#128 = EDGE_LOOP ( 'NONE', ( #839, #1324, #465, #438 ) ) ;
#129 = DIRECTION ( 'NONE',  ( -0.3090169943749466186, 0.9510565162951538642, 1.445602896647336205E-16 ) ) ;
#130 = DIRECTION ( 'NONE',  ( 1.000000000000000000, 0.000000000000000000, 0.000000000000000000 ) ) ;
#131 = LINE ( 'NONE', #243, #1005 ) ;
#132 = DIRECTION ( 'NONE',  ( -0.000000000000000000, 0.000000000000000000, 1.000000000000000000 ) ) ;
#133 = EDGE_CURVE ( 'NONE', #253, #798, #468, .T. ) ;
#134 = VERTEX_POINT ( 'NONE', #478 ) ;
#135 = CARTESIAN_POINT ( 'NONE',  ( 15.92647058823530593, 19.00000000000000355, 10.00000000000000000 ) ) ;
#136 = ORIENTED_EDGE ( 'NONE', *, *, #48, .F. ) ;
#137 = CARTESIAN_POINT ( 'NONE',  ( 15.92647058823530593, 19.00000000000000355, 5.000000000000000000 ) ) ;
#138 = ORIENTED_EDGE ( 'NONE', *, *, #1259, .T. ) ;
#139 = EDGE_CURVE ( 'NONE', #191, #268, #881, .T. ) ;
#140 = CIRCLE ( 'NONE', #1038, 2.050000000000000711 ) ;
#141 = VERTEX_POINT ( 'NONE', #581 ) ;
#142 = CARTESIAN_POINT ( 'NONE',  ( 15.92647058823530593, 34.00000000000000000, 5.000000000000000000 ) ) ;
#143 = EDGE_CURVE ( 'NONE', #985, #878, #640, .T. ) ;
#144 = CARTESIAN_POINT ( 'NONE',  ( 2.636779683484746784E-12, -6.175615574477433256E-13, 5.000000000000060396 ) ) ;
#145 = FACE_OUTER_BOUND ( 'NONE', #801, .T. ) ;
#146 = CARTESIAN_POINT ( 'NONE',  ( 2.069494673095137942E-15, -19.00000000000000355, 5.000000000000000000 ) ) ;
#147 = EDGE_LOOP ( 'NONE', ( #1074, #365, #579, #293, #947, #704 ) ) ;
#148 = AXIS2_PLACEMENT_3D ( 'NONE', #671, #861, #244 ) ;
#149 = ORIENTED_EDGE ( 'NONE', *, *, #934, .F. ) ;
#150 = DIRECTION ( 'NONE',  ( 0.000000000000000000, -0.000000000000000000, -1.000000000000000000 ) ) ;
#151 = CARTESIAN_POINT ( 'NONE',  ( 0.8652475842524863792, -2.662958245627045528, 1.900000000000060751 ) ) ;
#152 = EDGE_CURVE ( 'NONE', #1235, #458, #204, .T. ) ;
#153 = DIRECTION ( 'NONE',  ( 0.000000000000000000, -0.000000000000000000, -1.000000000000000000 ) ) ;
#154 = CARTESIAN_POINT ( 'NONE',  ( -0.000000000000000000, 17.00000000000000000, 5.000000000000000000 ) ) ;
#155 = FACE_OUTER_BOUND ( 'NONE', #813, .T. ) ;
#156 = DIRECTION ( 'NONE',  ( -0.000000000000000000, 0.000000000000000000, 1.000000000000000000 ) ) ;
#157 = VERTEX_POINT ( 'NONE', #690 ) ;
#158 = CARTESIAN_POINT ( 'NONE',  ( -15.92647058823529527, -19.00000000000000355, 0.000000000000000000 ) ) ;
#159 = CIRCLE ( 'NONE', #177, 1.000000000000000000 ) ;
#160 = CARTESIAN_POINT ( 'NONE',  ( 0.4635254915650691698, 25.07341522555666913, 1.900000000001442091 ) ) ;
#161 = AXIS2_PLACEMENT_3D ( 'NONE', #1197, #58, #49 ) ;
#162 = DIRECTION ( 'NONE',  ( 1.000000000000000000, 0.000000000000000000, 0.000000000000000000 ) ) ;
#163 = ORIENTED_EDGE ( 'NONE', *, *, #1318, .F. ) ;
#164 = VERTEX_POINT ( 'NONE', #981 ) ;
#165 = VECTOR ( 'NONE', #492, 1000.000000000000000 ) ;
#166 = CARTESIAN_POINT ( 'NONE',  ( -15.92647058823529882, -2.908212886196413518E-15, 20.00000000000000000 ) ) ;
#167 = AXIS2_PLACEMENT_3D ( 'NONE', #675, #373, #779 ) ;
#168 = CARTESIAN_POINT ( 'NONE',  ( 0.8497967345337543721, 23.88459458018772708, 5.000000000001439737 ) ) ;
#169 = AXIS2_PLACEMENT_3D ( 'NONE', #36, #960, #335 ) ;
#170 = CARTESIAN_POINT ( 'NONE',  ( 0.4635254915650567353, -1.426584774443347081, 5.000000000000060396 ) ) ;
#171 = VERTEX_POINT ( 'NONE', #383 ) ;
#172 = CARTESIAN_POINT ( 'NONE',  ( 9.050000000000000711, -6.000000000000000000, 7.000000000000000000 ) ) ;
#173 = EDGE_CURVE ( 'NONE', #370, #415, #592, .T. ) ;
#174 = ORIENTED_EDGE ( 'NONE', *, *, #493, .F. ) ;
#175 =( NAMED_UNIT ( * ) PLANE_ANGLE_UNIT ( ) SI_UNIT ( $, .RADIAN. ) );
#176 = CARTESIAN_POINT ( 'NONE',  ( 14.25000000000000000, 17.00000000000000000, 20.00000000000000000 ) ) ;
#177 = AXIS2_PLACEMENT_3D ( 'NONE', #794, #97, #1111 ) ;
#178 = CARTESIAN_POINT ( 'NONE',  ( 8.000000000000001776, -6.000000000000000000, 7.000000000000000000 ) ) ;
#179 = VECTOR ( 'NONE', #317, 1000.000000000000000 ) ;
#180 = VERTEX_POINT ( 'NONE', #172 ) ;
#181 = LINE ( 'NONE', #1234, #523 ) ;
#182 = FACE_OUTER_BOUND ( 'NONE', #213, .T. ) ;
#183 = EDGE_CURVE ( 'NONE', #711, #1023, #1001, .T. ) ;
#184 = CIRCLE ( 'NONE', #24, 1.050000000000000488 ) ;
#185 = ORIENTED_EDGE ( 'NONE', *, *, #306, .F. ) ;
#186 = DIRECTION ( 'NONE',  ( 1.000000000000000000, 0.000000000000000000, 0.000000000000000000 ) ) ;
#187 = DIRECTION ( 'NONE',  ( 1.000000000000000000, 0.000000000000000000, 0.000000000000000000 ) ) ;
#188 = DIRECTION ( 'NONE',  ( 4.591682424051301533E-16, -6.580674305559775367E-17, 1.000000000000000000 ) ) ;
#189 = EDGE_CURVE ( 'NONE', #134, #654, #1317, .T. ) ;
#190 = ADVANCED_FACE ( 'NONE', ( #892 ), #79, .T. ) ;
#191 = VERTEX_POINT ( 'NONE', #1313 ) ;
#192 = DIRECTION ( 'NONE',  ( 1.000000000000000000, 0.000000000000000000, 0.000000000000000000 ) ) ;
#193 = ORIENTED_EDGE ( 'NONE', *, *, #1138, .T. ) ;
#194 = CARTESIAN_POINT ( 'NONE',  ( 2.650657471292561240E-12, 26.49999999999940314, 5.000000000001440625 ) ) ;
#195 = CARTESIAN_POINT ( 'NONE',  ( 0.000000000000000000, 0.000000000000000000, 20.00000000000000000 ) ) ;
#196 = AXIS2_PLACEMENT_3D ( 'NONE', #916, #527, #812 ) ;
#197 = ORIENTED_EDGE ( 'NONE', *, *, #553, .T. ) ;
#198 = DIRECTION ( 'NONE',  ( -0.000000000000000000, -0.000000000000000000, -1.000000000000000000 ) ) ;
#199 = ORIENTED_EDGE ( 'NONE', *, *, #573, .F. ) ;
#200 = DIRECTION ( 'NONE',  ( 4.591682424051301533E-16, -6.580674305559775367E-17, 1.000000000000000000 ) ) ;
#201 = FACE_OUTER_BOUND ( 'NONE', #1000, .T. ) ;
#202 = AXIS2_PLACEMENT_3D ( 'NONE', #212, #746, #1063 ) ;
#203 = DIRECTION ( 'NONE',  ( -0.000000000000000000, -0.000000000000000000, -1.000000000000000000 ) ) ;
#204 = CIRCLE ( 'NONE', #962, 2.750000000000003553 ) ;
#205 = VECTOR ( 'NONE', #1060, 1000.000000000000000 ) ;
#206 = ADVANCED_FACE ( 'NONE', ( #155 ), #491, .T. ) ;
#207 = CARTESIAN_POINT ( 'NONE',  ( -1.426584774440083025, 26.03647450843698152, 1.900000000001442313 ) ) ;
#208 = ORIENTED_EDGE ( 'NONE', *, *, #905, .F. ) ;
#209 = LINE ( 'NONE', #620, #1027 ) ;
#210 = EDGE_CURVE ( 'NONE', #370, #1150, #1028, .T. ) ;
#211 = DIRECTION ( 'NONE',  ( 0.000000000000000000, -0.000000000000000000, -1.000000000000000000 ) ) ;
#212 = CARTESIAN_POINT ( 'NONE',  ( -8.000000000000000000, 6.000000000000001776, 6.000000000000000000 ) ) ;
#213 = EDGE_LOOP ( 'NONE', ( #871, #954, #811, #594 ) ) ;
#214 = DIRECTION ( 'NONE',  ( -0.000000000000000000, -0.000000000000000000, -1.000000000000000000 ) ) ;
#215 = ADVANCED_FACE ( 'NONE', ( #7 ), #304, .F. ) ;
#216 = ORIENTED_EDGE ( 'NONE', *, *, #423, .T. ) ;
#217 = DIRECTION ( 'NONE',  ( -0.000000000000000000, 0.000000000000000000, 1.000000000000000000 ) ) ;
#218 = DIRECTION ( 'NONE',  ( -0.000000000000000000, 0.000000000000000000, 1.000000000000000000 ) ) ;
#219 = CARTESIAN_POINT ( 'NONE',  ( -15.92647058823529882, -2.908212886196413518E-15, 5.000000000000000000 ) ) ;
#220 = CARTESIAN_POINT ( 'NONE',  ( -15.92647058823530593, 34.00000000000000000, 5.000000000000000000 ) ) ;
#221 = EDGE_LOOP ( 'NONE', ( #1034, #596, #971, #10 ) ) ;
#222 = AXIS2_PLACEMENT_3D ( 'NONE', #708, #37, #336 ) ;
#223 = DIRECTION ( 'NONE',  ( -0.000000000000000000, 0.000000000000000000, 1.000000000000000000 ) ) ;
#224 = VERTEX_POINT ( 'NONE', #502 ) ;
#225 = CARTESIAN_POINT ( 'NONE',  ( 2.636779683484746784E-12, -6.175615574477433256E-13, 1.900000000000061418 ) ) ;
#226 = CARTESIAN_POINT ( 'NONE',  ( 15.92647058823530237, -19.00000000000000355, 20.00000000000000000 ) ) ;
#227 = ORIENTED_EDGE ( 'NONE', *, *, #1180, .T. ) ;
#228 = ADVANCED_FACE ( 'NONE', ( #1327 ), #707, .F. ) ;
#229 = DIRECTION ( 'NONE',  ( 1.000000000000000000, 0.000000000000000000, 0.000000000000000000 ) ) ;
#230 = VECTOR ( 'NONE', #982, 1000.000000000000000 ) ;
#231 = VECTOR ( 'NONE', #1055, 1000.000000000000000 ) ;
#232 = VECTOR ( 'NONE', #1182, 1000.000000000000000 ) ;
#233 = EDGE_LOOP ( 'NONE', ( #507, #1105 ) ) ;
#234 = FACE_OUTER_BOUND ( 'NONE', #1181, .T. ) ;
#235 = DIRECTION ( 'NONE',  ( -1.000000000000000000, -2.312964634635741971E-16, 0.000000000000000000 ) ) ;
#236 = EDGE_LOOP ( 'NONE', ( #511, #578, #1173, #1031, #85, #574 ) ) ;
#237 = DIRECTION ( 'NONE',  ( 0.000000000000000000, -0.000000000000000000, -1.000000000000000000 ) ) ;
#238 = EDGE_CURVE ( 'NONE', #711, #256, #597, .T. ) ;
#239 = ADVANCED_FACE ( 'NONE', ( #1035 ), #799, .F. ) ;
#240 = ORIENTED_EDGE ( 'NONE', *, *, #718, .F. ) ;
#241 = DIRECTION ( 'NONE',  ( -0.000000000000000000, 0.000000000000000000, 1.000000000000000000 ) ) ;
#242 = CARTESIAN_POINT ( 'NONE',  ( 14.25000000000000000, 0.000000000000000000, 5.000000000000000000 ) ) ;
#243 = CARTESIAN_POINT ( 'NONE',  ( 10.92647058823530060, 18.99999999999999645, 10.00000000000000000 ) ) ;
#244 = DIRECTION ( 'NONE',  ( 0.000000000000000000, 0.000000000000000000, 1.000000000000000000 ) ) ;
#245 = AXIS2_PLACEMENT_3D ( 'NONE', #407, #315, #538 ) ;
#246 = ORIENTED_EDGE ( 'NONE', *, *, #879, .F. ) ;
#247 = AXIS2_PLACEMENT_3D ( 'NONE', #434, #621, #310 ) ;
#248 = ORIENTED_EDGE ( 'NONE', *, *, #618, .F. ) ;
#249 = DIRECTION ( 'NONE',  ( -1.000000000000000000, 0.000000000000000000, -0.000000000000000000 ) ) ;
#250 = FACE_OUTER_BOUND ( 'NONE', #117, .T. ) ;
#251 = ORIENTED_EDGE ( 'NONE', *, *, #969, .T. ) ;
#252 = DIRECTION ( 'NONE',  ( -1.000000000000000000, 0.000000000000000000, 0.000000000000000000 ) ) ;
#253 = VERTEX_POINT ( 'NONE', #104 ) ;
#254 = TOROIDAL_SURFACE ( 'NONE', #1121, 2.050000000000000711, 1.000000000000000000 ) ;
#255 = EDGE_CURVE ( 'NONE', #1289, #959, #508, .T. ) ;
#256 = VERTEX_POINT ( 'NONE', #1236 ) ;
#257 = CARTESIAN_POINT ( 'NONE',  ( 6.950000000000002842, -6.000000000000000000, 6.000000000000000000 ) ) ;
#258 = VECTOR ( 'NONE', #858, 1000.000000000000000 ) ;
#259 = DIRECTION ( 'NONE',  ( -0.000000000000000000, 0.000000000000000000, 1.000000000000000000 ) ) ;
#260 = CARTESIAN_POINT ( 'NONE',  ( -0.8652475842472143741, 2.662958245625811848, 5.000000000000060396 ) ) ;
#261 = ORIENTED_EDGE ( 'NONE', *, *, #73, .T. ) ;
#262 = ORIENTED_EDGE ( 'NONE', *, *, #1331, .F. ) ;
#263 = FILL_AREA_STYLE ('',( #470 ) ) ;
#264 = PLANE ( 'NONE',  #875 ) ;
#265 = ADVANCED_FACE ( 'NONE', ( #699 ), #409, .F. ) ;
#266 = FACE_OUTER_BOUND ( 'NONE', #725, .T. ) ;
#267 = ORIENTED_EDGE ( 'NONE', *, *, #591, .F. ) ;
#268 = VERTEX_POINT ( 'NONE', #814 ) ;
#269 = CARTESIAN_POINT ( 'NONE',  ( -15.92647058823530593, 34.00000000000000000, 5.000000000000000000 ) ) ;
#270 = AXIS2_PLACEMENT_3D ( 'NONE', #999, #595, #1106 ) ;
#271 = DIRECTION ( 'NONE',  ( -1.000000000000000000, -1.826024711554534160E-16, 0.000000000000000000 ) ) ;
#272 = PLANE ( 'NONE',  #983 ) ;
#273 = EDGE_CURVE ( 'NONE', #1062, #289, #563, .T. ) ;
#274 = ORIENTED_EDGE ( 'NONE', *, *, #553, .F. ) ;
#275 = ORIENTED_EDGE ( 'NONE', *, *, #372, .F. ) ;
#276 = VECTOR ( 'NONE', #413, 1000.000000000000000 ) ;
#277 = LINE ( 'NONE', #683, #333 ) ;
#278 = CARTESIAN_POINT ( 'NONE',  ( -6.949999999999997513, -6.000000000000003553, 7.000000000000000000 ) ) ;
#279 = VECTOR ( 'NONE', #203, 1000.000000000000000 ) ;
#280 = DIRECTION ( 'NONE',  ( -0.000000000000000000, 0.000000000000000000, 1.000000000000000000 ) ) ;
#281 = EDGE_CURVE ( 'NONE', #370, #76, #1242, .T. ) ;
#282 = ADVANCED_FACE ( 'NONE', ( #95, #1135, #182 ), #1334, .F. ) ;
#283 = VERTEX_POINT ( 'NONE', #394 ) ;
#284 = CARTESIAN_POINT ( 'NONE',  ( -15.92647058823530593, 34.00000000000000000, 5.000000000000000000 ) ) ;
#285 = DIRECTION ( 'NONE',  ( -0.000000000000000000, -0.000000000000000000, -1.000000000000000000 ) ) ;
#286 = CARTESIAN_POINT ( 'NONE',  ( -6.949999999999997513, -6.000000000000003553, 6.000000000000000000 ) ) ;
#287 = ORIENTED_EDGE ( 'NONE', *, *, #513, .F. ) ;
#288 = ADVANCED_FACE ( 'NONE', ( #13 ), #1054, .F. ) ;
#289 = VERTEX_POINT ( 'NONE', #498 ) ;
#290 = CARTESIAN_POINT ( 'NONE',  ( -10.92647058823530060, 18.99999999999999645, 5.000000000000000000 ) ) ;
#291 = MECHANICAL_DESIGN_GEOMETRIC_PRESENTATION_REPRESENTATION (  '', ( #1328 ), #311 ) ;
#292 = AXIS2_PLACEMENT_3D ( 'NONE', #635, #1053, #130 ) ;
#293 = ORIENTED_EDGE ( 'NONE', *, *, #765, .F. ) ;
#294 = CARTESIAN_POINT ( 'NONE',  ( 2.648361630080534805E-12, 26.49999999999940314, 0.000000000000000000 ) ) ;
#295 = EDGE_CURVE ( 'NONE', #52, #1166, #209, .T. ) ;
#296 = CARTESIAN_POINT ( 'NONE',  ( 2.648361630080534805E-12, 26.49999999999940314, 0.000000000000000000 ) ) ;
#297 = LINE ( 'NONE', #796, #398 ) ;
#298 = AXIS2_PLACEMENT_3D ( 'NONE', #178, #1125, #703 ) ;
#299 = EDGE_CURVE ( 'NONE', #500, #51, #809, .T. ) ;
#300 = AXIS2_PLACEMENT_3D ( 'NONE', #1211, #572, #1217 ) ;
#301 = AXIS2_PLACEMENT_3D ( 'NONE', #902, #721, #1144 ) ;
#302 = EDGE_LOOP ( 'NONE', ( #526, #274 ) ) ;
#303 = ORIENTED_EDGE ( 'NONE', *, *, #23, .T. ) ;
#304 = CYLINDRICAL_SURFACE ( 'NONE', #853, 2.750000000000003553 ) ;
#305 = DIRECTION ( 'NONE',  ( -1.000000000000000000, -1.089207722681651192E-16, 0.000000000000000000 ) ) ;
#306 = EDGE_CURVE ( 'NONE', #1305, #878, #320, .T. ) ;
#307 = ORIENTED_EDGE ( 'NONE', *, *, #351, .F. ) ;
#308 = DIRECTION ( 'NONE',  ( 1.000000000000000000, 0.000000000000000000, 0.000000000000000000 ) ) ;
#309 = CARTESIAN_POINT ( 'NONE',  ( 15.92647058823530593, 34.00000000000000000, 5.000000000000000000 ) ) ;
#310 = DIRECTION ( 'NONE',  ( 0.000000000000000000, 0.000000000000000000, -1.000000000000000000 ) ) ;
#311 =( GEOMETRIC_REPRESENTATION_CONTEXT ( 3 ) GLOBAL_UNCERTAINTY_ASSIGNED_CONTEXT ( ( #359 ) ) GLOBAL_UNIT_ASSIGNED_CONTEXT ( ( #496, #175, #84 ) ) REPRESENTATION_CONTEXT ( 'NONE', 'WORKASPACE' ) );
#312 = LINE ( 'NONE', #1258, #279 ) ;
#313 = COLOUR_RGB ( '',0.7921568627450980005, 0.8196078431372548767, 0.9333333333333333481 ) ;
#314 = EDGE_CURVE ( 'NONE', #180, #346, #601, .T. ) ;
#315 = DIRECTION ( 'NONE',  ( 0.000000000000000000, -0.000000000000000000, -1.000000000000000000 ) ) ;
#316 = ORIENTED_EDGE ( 'NONE', *, *, #925, .T. ) ;
#317 = DIRECTION ( 'NONE',  ( -2.194270917860437341E-16, 0.9486832980505138790, -0.3162277660168378302 ) ) ;
#318 = CYLINDRICAL_SURFACE ( 'NONE', #420, 1.050000000000000488 ) ;
#319 = EDGE_CURVE ( 'NONE', #92, #283, #70, .T. ) ;
#320 = CIRCLE ( 'NONE', #1254, 2.050000000000000711 ) ;
#321 = CARTESIAN_POINT ( 'NONE',  ( 8.000000000000000000, 6.000000000000001776, 6.000000000000000000 ) ) ;
#322 = ORIENTED_EDGE ( 'NONE', *, *, #709, .F. ) ;
#323 = PLANE ( 'NONE',  #1299 ) ;
#324 = LINE ( 'NONE', #110, #653 ) ;
#325 = DIRECTION ( 'NONE',  ( 0.000000000000000000, 1.000000000000000000, -0.000000000000000000 ) ) ;
#326 = ORIENTED_EDGE ( 'NONE', *, *, #351, .T. ) ;
#327 = CARTESIAN_POINT ( 'NONE',  ( -14.25000000000000000, 17.00000000000000000, 20.00000000000000000 ) ) ;
#328 = EDGE_CURVE ( 'NONE', #157, #337, #942, .T. ) ;
#329 = ORIENTED_EDGE ( 'NONE', *, *, #381, .T. ) ;
#330 = DIRECTION ( 'NONE',  ( 1.000000000000000000, 0.000000000000000000, 0.000000000000000000 ) ) ;
#331 = CARTESIAN_POINT ( 'NONE',  ( -5.949999999999999289, 6.000000000000001776, 5.000000000000000000 ) ) ;
#332 = FACE_BOUND ( 'NONE', #1241, .T. ) ;
#333 = VECTOR ( 'NONE', #77, 1000.000000000000000 ) ;
#334 = ORIENTED_EDGE ( 'NONE', *, *, #1222, .F. ) ;
#335 = DIRECTION ( 'NONE',  ( -1.000000000000000000, 0.000000000000000000, 0.000000000000000000 ) ) ;
#336 = DIRECTION ( 'NONE',  ( -1.000000000000000000, 0.000000000000000000, 0.000000000000000000 ) ) ;
#337 = VERTEX_POINT ( 'NONE', #433 ) ;
#338 = DIRECTION ( 'NONE',  ( 4.591682424051300546E-16, -6.580674305559801251E-17, 1.000000000000000000 ) ) ;
#339 = EDGE_CURVE ( 'NONE', #1127, #1195, #547, .T. ) ;
#340 = VECTOR ( 'NONE', #480, 1000.000000000000000 ) ;
#341 = DIRECTION ( 'NONE',  ( -1.000000000000000000, 0.000000000000000000, 0.000000000000000000 ) ) ;
#342 = ORIENTED_EDGE ( 'NONE', *, *, #833, .F. ) ;
#343 = DIRECTION ( 'NONE',  ( 1.000000000000000000, 0.000000000000000000, 0.000000000000000000 ) ) ;
#344 = DIRECTION ( 'NONE',  ( 1.000000000000000000, 0.000000000000000000, 0.000000000000000000 ) ) ;
#345 = ORIENTED_EDGE ( 'NONE', *, *, #618, .T. ) ;
#346 = VERTEX_POINT ( 'NONE', #967 ) ;
#347 = CARTESIAN_POINT ( 'NONE',  ( 0.000000000000000000, 0.000000000000000000, 5.000000000000000000 ) ) ;
#348 = CARTESIAN_POINT ( 'NONE',  ( -6.949999999999997513, -6.000000000000003553, 7.000000000000000000 ) ) ;
#349 = ORIENTED_EDGE ( 'NONE', *, *, #319, .F. ) ;
#350 = CARTESIAN_POINT ( 'NONE',  ( -7.999999999999998224, -6.000000000000003553, 7.000000000000000000 ) ) ;
#351 = EDGE_CURVE ( 'NONE', #1129, #797, #831, .T. ) ;
#352 = EDGE_LOOP ( 'NONE', ( #694, #682, #965, #1307 ) ) ;
#353 = CIRCLE ( 'NONE', #412, 1.500000000000002442 ) ;
#354 = DIRECTION ( 'NONE',  ( 1.000000000000000000, 0.000000000000000000, 0.000000000000000000 ) ) ;
#355 = VECTOR ( 'NONE', #305, 1000.000000000000000 ) ;
#356 = EDGE_CURVE ( 'NONE', #1062, #363, #1174, .T. ) ;
#357 = VERTEX_POINT ( 'NONE', #1043 ) ;
#358 = LINE ( 'NONE', #154, #932 ) ;
#359 = UNCERTAINTY_MEASURE_WITH_UNIT (LENGTH_MEASURE( 1.000000000000000082E-05 ), #496, 'distance_accuracy_value', 'NONE');
#360 = ADVANCED_BREP_SHAPE_REPRESENTATION ( 'sub\X2\8235673a5e955ea7\X0\', ( #1103, #1306 ), #952 ) ;
#361 = ORIENTED_EDGE ( 'NONE', *, *, #314, .F. ) ;
#362 = DIRECTION ( 'NONE',  ( -0.000000000000000000, -0.000000000000000000, -1.000000000000000000 ) ) ;
#363 = VERTEX_POINT ( 'NONE', #1167 ) ;
#364 = VECTOR ( 'NONE', #362, 1000.000000000000000 ) ;
#365 = ORIENTED_EDGE ( 'NONE', *, *, #1141, .T. ) ;
#366 = DIRECTION ( 'NONE',  ( 1.224646799147353207E-16, 1.000000000000000000, 0.000000000000000000 ) ) ;
#367 = AXIS2_PLACEMENT_3D ( 'NONE', #225, #634, #649 ) ;
#368 = CARTESIAN_POINT ( 'NONE',  ( -5.949999999999999289, 6.000000000000001776, 6.000000000000000000 ) ) ;
#369 = CYLINDRICAL_SURFACE ( 'NONE', #1192, 2.799999999999998490 ) ;
#370 = VERTEX_POINT ( 'NONE', #142 ) ;
#371 = CARTESIAN_POINT ( 'NONE',  ( 2.634483842272721156E-12, -6.172325237324652949E-13, 0.000000000000000000 ) ) ;
#372 = EDGE_CURVE ( 'NONE', #417, #1176, #1006, .T. ) ;
#373 = DIRECTION ( 'NONE',  ( -0.000000000000000000, 0.000000000000000000, 1.000000000000000000 ) ) ;
#374 = CARTESIAN_POINT ( 'NONE',  ( 2.636779683484746784E-12, -6.175615574477433256E-13, 5.000000000000060396 ) ) ;
#375 = ORIENTED_EDGE ( 'NONE', *, *, #479, .F. ) ;
#376 = CARTESIAN_POINT ( 'NONE',  ( 2.636779683484746784E-12, -6.175615574477433256E-13, 1.900000000000061418 ) ) ;
#377 = CIRCLE ( 'NONE', #80, 2.799999999999998490 ) ;
#378 = CARTESIAN_POINT ( 'NONE',  ( 15.92647058823530237, 34.00000000000000000, 5.000000000000000000 ) ) ;
#379 = EDGE_CURVE ( 'NONE', #289, #1062, #536, .T. ) ;
#380 = DIRECTION ( 'NONE',  ( -1.089207722681651192E-16, 1.000000000000000000, 0.000000000000000000 ) ) ;
#381 = EDGE_CURVE ( 'NONE', #992, #1127, #422, .T. ) ;
#382 = ORIENTED_EDGE ( 'NONE', *, *, #626, .F. ) ;
#383 = CARTESIAN_POINT ( 'NONE',  ( -6.949999999999999289, 6.000000000000001776, 7.000000000000000000 ) ) ;
#384 = AXIS2_PLACEMENT_3D ( 'NONE', #1256, #555, #625 ) ;
#385 = DIRECTION ( 'NONE',  ( 4.591682424051301533E-16, -6.580674305559775367E-17, 1.000000000000000000 ) ) ;
#386 = ORIENTED_EDGE ( 'NONE', *, *, #379, .T. ) ;
#387 = CYLINDRICAL_SURFACE ( 'NONE', #890, 1.499999999999998890 ) ;
#388 = ORIENTED_EDGE ( 'NONE', *, *, #1131, .T. ) ;
#389 = DIRECTION ( 'NONE',  ( 0.000000000000000000, -1.000000000000000000, 0.000000000000000000 ) ) ;
#390 = DIRECTION ( 'NONE',  ( -0.000000000000000000, 0.000000000000000000, 1.000000000000000000 ) ) ;
#391 = EDGE_CURVE ( 'NONE', #134, #157, #807, .T. ) ;
#392 = ORIENTED_EDGE ( 'NONE', *, *, #566, .F. ) ;
#393 = CARTESIAN_POINT ( 'NONE',  ( 15.92647058823530237, 0.000000000000000000, 20.00000000000000000 ) ) ;
#394 = CARTESIAN_POINT ( 'NONE',  ( -0.4635254915597702419, 27.92658477444213716, 1.900000000001442313 ) ) ;
#395 = PLANE ( 'NONE',  #678 ) ;
#396 = CIRCLE ( 'NONE', #118, 2.050000000000000711 ) ;
#397 = ORIENTED_EDGE ( 'NONE', *, *, #1126, .F. ) ;
#398 = VECTOR ( 'NONE', #400, 1000.000000000000000 ) ;
#399 = DIRECTION ( 'NONE',  ( -0.3090169943749466186, 0.9510565162951538642, 0.000000000000000000 ) ) ;
#400 = DIRECTION ( 'NONE',  ( -1.826024711554534160E-16, 1.000000000000000000, 0.000000000000000000 ) ) ;
#401 = ORIENTED_EDGE ( 'NONE', *, *, #15, .T. ) ;
#402 = CARTESIAN_POINT ( 'NONE',  ( -7.999999999999998224, -6.000000000000003553, 7.000000000000000000 ) ) ;
#403 = DIRECTION ( 'NONE',  ( -0.3090169943749470072, 0.9510565162951537532, 3.097720492815728645E-16 ) ) ;
#404 = ADVANCED_FACE ( 'NONE', ( #234 ), #323, .T. ) ;
#405 = DIRECTION ( 'NONE',  ( 0.000000000000000000, -1.000000000000000000, 0.000000000000000000 ) ) ;
#406 = ORIENTED_EDGE ( 'NONE', *, *, #372, .T. ) ;
#407 = CARTESIAN_POINT ( 'NONE',  ( 8.000000000000000000, 6.000000000000001776, 5.000000000000000000 ) ) ;
#408 = ORIENTED_EDGE ( 'NONE', *, *, #356, .T. ) ;
#409 = CYLINDRICAL_SURFACE ( 'NONE', #876, 2.799999999999998490 ) ;
#410 = LINE ( 'NONE', #722, #738 ) ;
#411 = ADVANCED_FACE ( 'NONE', ( #758 ), #439, .T. ) ;
#412 = AXIS2_PLACEMENT_3D ( 'NONE', #376, #785, #908 ) ;
#413 = DIRECTION ( 'NONE',  ( -0.000000000000000000, -0.000000000000000000, -1.000000000000000000 ) ) ;
#414 = AXIS2_PLACEMENT_3D ( 'NONE', #1277, #968, #1090 ) ;
#415 = VERTEX_POINT ( 'NONE', #135 ) ;
#416 = FACE_OUTER_BOUND ( 'NONE', #743, .T. ) ;
#417 = VERTEX_POINT ( 'NONE', #740 ) ;
#418 = CARTESIAN_POINT ( 'NONE',  ( 8.000000000000001776, -6.000000000000000000, 5.000000000000000000 ) ) ;
#419 = DIRECTION ( 'NONE',  ( -0.000000000000000000, -0.000000000000000000, -1.000000000000000000 ) ) ;
#420 = AXIS2_PLACEMENT_3D ( 'NONE', #639, #22, #935 ) ;
#421 = LINE ( 'NONE', #730, #276 ) ;
#422 = CIRCLE ( 'NONE', #28, 1.499999999999997780 ) ;
#423 = EDGE_CURVE ( 'NONE', #1051, #346, #1142, .T. ) ;
#424 = ORIENTED_EDGE ( 'NONE', *, *, #143, .F. ) ;
#425 = PLANE ( 'NONE',  #673 ) ;
#426 = VERTEX_POINT ( 'NONE', #121 ) ;
#427 = DIRECTION ( 'NONE',  ( 1.000000000000000000, 0.000000000000000000, 0.000000000000000000 ) ) ;
#428 = DIRECTION ( 'NONE',  ( 4.591682424051301533E-16, -6.580674305559775367E-17, 1.000000000000000000 ) ) ;
#429 = CARTESIAN_POINT ( 'NONE',  ( 14.25000000000000000, 0.000000000000000000, 20.00000000000000000 ) ) ;
#430 = EDGE_CURVE ( 'NONE', #1235, #126, #47, .T. ) ;
#431 = CARTESIAN_POINT ( 'NONE',  ( 8.000000000000001776, -6.000000000000000000, 5.000000000000000000 ) ) ;
#432 = ORIENTED_EDGE ( 'NONE', *, *, #824, .T. ) ;
#433 = CARTESIAN_POINT ( 'NONE',  ( 5.949999999999999289, 6.000000000000001776, 5.000000000000000000 ) ) ;
#434 = CARTESIAN_POINT ( 'NONE',  ( -5.949999999999997513, -6.000000000000003553, 6.000000000000000000 ) ) ;
#435 = ORIENTED_EDGE ( 'NONE', *, *, #1109, .F. ) ;
#436 = CARTESIAN_POINT ( 'NONE',  ( 10.92647058823530060, 0.000000000000000000, 0.000000000000000000 ) ) ;
#437 = CIRCLE ( 'NONE', #736, 1.000000000000000888 ) ;
#438 = ORIENTED_EDGE ( 'NONE', *, *, #1244, .T. ) ;
#439 = CYLINDRICAL_SURFACE ( 'NONE', #169, 1.050000000000000488 ) ;
#440 = CARTESIAN_POINT ( 'NONE',  ( 2.069494673095137942E-15, -19.00000000000000355, 20.00000000000000000 ) ) ;
#441 = LINE ( 'NONE', #137, #913 ) ;
#442 = AXIS2_PLACEMENT_3D ( 'NONE', #16, #338, #1056 ) ;
#443 = AXIS2_PLACEMENT_3D ( 'NONE', #795, #1199, #974 ) ;
#444 = EDGE_LOOP ( 'NONE', ( #397, #446, #1132, #163 ) ) ;
#445 = CIRCLE ( 'NONE', #615, 1.500000000000003109 ) ;
#446 = ORIENTED_EDGE ( 'NONE', *, *, #189, .F. ) ;
#447 = CARTESIAN_POINT ( 'NONE',  ( 0.8497967345337554823, 23.88459458018772708, 5.000000000001439737 ) ) ;
#448 = DIRECTION ( 'NONE',  ( 4.591682424051300546E-16, -6.580674305559801251E-17, 1.000000000000000000 ) ) ;
#449 = ORIENTED_EDGE ( 'NONE', *, *, #855, .T. ) ;
#450 = ADVANCED_FACE ( 'NONE', ( #1284, #529 ), #1276, .F. ) ;
#451 = CARTESIAN_POINT ( 'NONE',  ( -14.25000000000000000, 0.000000000000000000, 20.00000000000000000 ) ) ;
#452 = ORIENTED_EDGE ( 'NONE', *, *, #1075, .T. ) ;
#453 = DIRECTION ( 'NONE',  ( 0.000000000000000000, -1.000000000000000000, 0.000000000000000000 ) ) ;
#454 = ORIENTED_EDGE ( 'NONE', *, *, #1172, .T. ) ;
#455 = LINE ( 'NONE', #440, #590 ) ;
#456 = CARTESIAN_POINT ( 'NONE',  ( -5.949999999999997513, -6.000000000000003553, 5.000000000000000000 ) ) ;
#457 = ADVANCED_FACE ( 'NONE', ( #751 ), #1102, .F. ) ;
#458 = VERTEX_POINT ( 'NONE', #657 ) ;
#459 = VECTOR ( 'NONE', #512, 1000.000000000000000 ) ;
#460 = CIRCLE ( 'NONE', #414, 2.750000000000003553 ) ;
#461 = ORIENTED_EDGE ( 'NONE', *, *, #1263, .T. ) ;
#462 = DIRECTION ( 'NONE',  ( -0.000000000000000000, -0.000000000000000000, -1.000000000000000000 ) ) ;
#463 = CARTESIAN_POINT ( 'NONE',  ( -0.4635254915597716296, 27.92658477444213716, 0.000000000000000000 ) ) ;
#464 = DIRECTION ( 'NONE',  ( 4.591682424051300546E-16, -6.580674305559801251E-17, 1.000000000000000000 ) ) ;
#465 = ORIENTED_EDGE ( 'NONE', *, *, #238, .T. ) ;
#466 = ADVANCED_FACE ( 'NONE', ( #38 ), #106, .F. ) ;
#467 = APPLICATION_PROTOCOL_DEFINITION ( 'draft international standard', 'automotive_design', 1998, #525 ) ;
#468 = CIRCLE ( 'NONE', #791, 1.050000000000000488 ) ;
#469 = EDGE_LOOP ( 'NONE', ( #1265, #1007 ) ) ;
#470 = FILL_AREA_STYLE_COLOUR ( '', #313 ) ;
#471 = AXIS2_PLACEMENT_3D ( 'NONE', #540, #849, #427 ) ;
#472 = DIRECTION ( 'NONE',  ( 0.000000000000000000, 0.000000000000000000, -1.000000000000000000 ) ) ;
#473 = FACE_OUTER_BOUND ( 'NONE', #528, .T. ) ;
#474 = VERTEX_POINT ( 'NONE', #1137 ) ;
#475 = ADVANCED_FACE ( 'NONE', ( #854 ), #642, .F. ) ;
#476 = ORIENTED_EDGE ( 'NONE', *, *, #1012, .F. ) ;
#477 = FACE_OUTER_BOUND ( 'NONE', #1196, .T. ) ;
#478 = CARTESIAN_POINT ( 'NONE',  ( 9.050000000000000711, 6.000000000000001776, 6.000000000000000000 ) ) ;
#479 = EDGE_CURVE ( 'NONE', #164, #914, #312, .T. ) ;
#480 = DIRECTION ( 'NONE',  ( 0.000000000000000000, 1.000000000000000000, 0.000000000000000000 ) ) ;
#481 = ORIENTED_EDGE ( 'NONE', *, *, #1101, .T. ) ;
#482 = CIRCLE ( 'NONE', #1093, 2.049999999999998046 ) ;
#483 = FACE_OUTER_BOUND ( 'NONE', #487, .T. ) ;
#484 = AXIS2_PLACEMENT_3D ( 'NONE', #515, #921, #8 ) ;
#485 = LINE ( 'NONE', #1309, #984 ) ;
#486 = EDGE_CURVE ( 'NONE', #283, #92, #445, .T. ) ;
#487 = EDGE_LOOP ( 'NONE', ( #227, #251 ) ) ;
#488 = DIRECTION ( 'NONE',  ( -2.194270917860437341E-16, 0.9486832980505138790, -0.3162277660168378302 ) ) ;
#489 = VECTOR ( 'NONE', #606, 1000.000000000000000 ) ;
#490 = VERTEX_POINT ( 'NONE', #31 ) ;
#491 = PLANE ( 'NONE',  #680 ) ;
#492 = DIRECTION ( 'NONE',  ( -0.000000000000000000, -0.000000000000000000, -1.000000000000000000 ) ) ;
#493 = EDGE_CURVE ( 'NONE', #588, #65, #792, .T. ) ;
#494 = EDGE_CURVE ( 'NONE', #848, #1017, #1030, .T. ) ;
#495 = EDGE_LOOP ( 'NONE', ( #1087, #583, #240, #424 ) ) ;
#496 =( LENGTH_UNIT ( ) NAMED_UNIT ( * ) SI_UNIT ( .MILLI., .METRE. ) );
#497 = ORIENTED_EDGE ( 'NONE', *, *, #558, .T. ) ;
#498 = CARTESIAN_POINT ( 'NONE',  ( -0.8652475842472143741, 2.662958245625811848, 1.900000000000062084 ) ) ;
#499 = DIRECTION ( 'NONE',  ( 1.000000000000000000, 0.000000000000000000, 0.000000000000000000 ) ) ;
#500 = VERTEX_POINT ( 'NONE', #111 ) ;
#501 = DIRECTION ( 'NONE',  ( -0.3090169943749468406, 0.9510565162951537532, 3.154042683594190683E-16 ) ) ;
#502 = CARTESIAN_POINT ( 'NONE',  ( -14.25000000000000000, 17.00000000000000000, 5.000000000000000000 ) ) ;
#503 = AXIS2_PLACEMENT_3D ( 'NONE', #402, #214, #928 ) ;
#504 = ORIENTED_EDGE ( 'NONE', *, *, #152, .F. ) ;
#505 = CYLINDRICAL_SURFACE ( 'NONE', #1184, 1.500000000000003109 ) ;
#506 = AXIS2_PLACEMENT_3D ( 'NONE', #195, #280, #912 ) ;
#507 = ORIENTED_EDGE ( 'NONE', *, *, #1149, .T. ) ;
#508 = LINE ( 'NONE', #920, #830 ) ;
#509 = CARTESIAN_POINT ( 'NONE',  ( -10.92647058823529704, -2.770723966738188210E-15, 0.000000000000000000 ) ) ;
#510 = AXIS2_PLACEMENT_3D ( 'NONE', #622, #124, #1171 ) ;
#511 = ORIENTED_EDGE ( 'NONE', *, *, #686, .T. ) ;
#512 = DIRECTION ( 'NONE',  ( 1.000000000000000000, 0.000000000000000000, 0.000000000000000000 ) ) ;
#513 = EDGE_CURVE ( 'NONE', #1289, #52, #1153, .T. ) ;
#514 = DIRECTION ( 'NONE',  ( -0.000000000000000000, 0.000000000000000000, 1.000000000000000000 ) ) ;
#515 = CARTESIAN_POINT ( 'NONE',  ( 8.000000000000000000, 6.000000000000001776, 6.000000000000000000 ) ) ;
#516 = ADVANCED_FACE ( 'NONE', ( #543 ), #951, .F. ) ;
#517 = DIRECTION ( 'NONE',  ( 0.000000000000000000, 0.000000000000000000, -1.000000000000000000 ) ) ;
#518 = ORIENTED_EDGE ( 'NONE', *, *, #573, .T. ) ;
#519 = DIRECTION ( 'NONE',  ( 0.3090169943749468962, -0.9510565162951537532, -2.044767219796474972E-16 ) ) ;
#520 = ORIENTED_EDGE ( 'NONE', *, *, #1263, .F. ) ;
#521 = CARTESIAN_POINT ( 'NONE',  ( -8.000000000000000000, 6.000000000000001776, 5.000000000000000000 ) ) ;
#522 = DIRECTION ( 'NONE',  ( 2.312964634635741971E-16, -1.000000000000000000, 0.000000000000000000 ) ) ;
#523 = VECTOR ( 'NONE', #696, 1000.000000000000000 ) ;
#524 = AXIS2_PLACEMENT_3D ( 'NONE', #509, #235, #522 ) ;
#525 = APPLICATION_CONTEXT ( 'automotive_design' ) ;
#526 = ORIENTED_EDGE ( 'NONE', *, *, #1189, .F. ) ;
#527 = DIRECTION ( 'NONE',  ( 4.591682424051301533E-16, -6.580674305559775367E-17, 1.000000000000000000 ) ) ;
#528 = EDGE_LOOP ( 'NONE', ( #476, #804, #733, #664 ) ) ;
#529 = FACE_OUTER_BOUND ( 'NONE', #128, .T. ) ;
#530 = PLANE ( 'NONE',  #997 ) ;
#531 = CARTESIAN_POINT ( 'NONE',  ( 15.92647058823530237, 0.000000000000000000, 0.000000000000000000 ) ) ;
#532 = VECTOR ( 'NONE', #629, 1000.000000000000000 ) ;
#533 = CARTESIAN_POINT ( 'NONE',  ( 2.650657471292561240E-12, 26.49999999999940314, 1.900000000001442313 ) ) ;
#534 = ADVANCED_FACE ( 'NONE', ( #1266, #332, #549, #847, #737, #1251 ), #1164, .T. ) ;
#535 = VECTOR ( 'NONE', #1071, 1000.000000000000000 ) ;
#536 = CIRCLE ( 'NONE', #367, 2.799999999999998490 ) ;
#537 = EDGE_LOOP ( 'NONE', ( #20, #570, #1019, #193 ) ) ;
#538 = DIRECTION ( 'NONE',  ( 1.000000000000000000, 0.000000000000000000, 0.000000000000000000 ) ) ;
#539 = ORIENTED_EDGE ( 'NONE', *, *, #1271, .T. ) ;
#540 = CARTESIAN_POINT ( 'NONE',  ( 8.000000000000000000, 6.000000000000001776, 7.000000000000000000 ) ) ;
#541 = PLANE ( 'NONE',  #869 ) ;
#542 = CARTESIAN_POINT ( 'NONE',  ( 6.949999999999999289, 6.000000000000001776, 7.000000000000000000 ) ) ;
#543 = FACE_OUTER_BOUND ( 'NONE', #1233, .T. ) ;
#544 = ADVANCED_FACE ( 'NONE', ( #926 ), #318, .T. ) ;
#545 = PRODUCT_CONTEXT ( 'NONE', #1022, 'mechanical' ) ;
#546 = ORIENTED_EDGE ( 'NONE', *, *, #339, .T. ) ;
#547 = LINE ( 'NONE', #837, #232 ) ;
#548 = PLANE ( 'NONE',  #1186 ) ;
#549 = FACE_BOUND ( 'NONE', #1248, .T. ) ;
#550 = CIRCLE ( 'NONE', #196, 2.750000000000003553 ) ;
#551 = ORIENTED_EDGE ( 'NONE', *, *, #356, .F. ) ;
#552 = APPLICATION_PROTOCOL_DEFINITION ( 'draft international standard', 'automotive_design', 1998, #1022 ) ;
#553 = EDGE_CURVE ( 'NONE', #1155, #1195, #89, .T. ) ;
#554 = ORIENTED_EDGE ( 'NONE', *, *, #1149, .F. ) ;
#555 = DIRECTION ( 'NONE',  ( 0.000000000000000000, -1.000000000000000000, 0.000000000000000000 ) ) ;
#556 = CYLINDRICAL_SURFACE ( 'NONE', #652, 1.049999999999998934 ) ;
#557 = FACE_OUTER_BOUND ( 'NONE', #731, .T. ) ;
#558 = EDGE_CURVE ( 'NONE', #426, #985, #66, .T. ) ;
#559 = CARTESIAN_POINT ( 'NONE',  ( 0.000000000000000000, 34.00000000000000000, 0.000000000000000000 ) ) ;
#560 = AXIS2_PLACEMENT_3D ( 'NONE', #350, #1073, #1086 ) ;
#561 = VECTOR ( 'NONE', #1204, 1000.000000000000000 ) ;
#562 = ORIENTED_EDGE ( 'NONE', *, *, #255, .T. ) ;
#563 = CIRCLE ( 'NONE', #1081, 2.799999999999998490 ) ;
#564 = ORIENTED_EDGE ( 'NONE', *, *, #1002, .T. ) ;
#565 = DIRECTION ( 'NONE',  ( 1.000000000000000000, 0.000000000000000000, 0.000000000000000000 ) ) ;
#566 = EDGE_CURVE ( 'NONE', #171, #985, #421, .T. ) ;
#567 = DIRECTION ( 'NONE',  ( -0.000000000000000000, 0.000000000000000000, 1.000000000000000000 ) ) ;
#568 = CARTESIAN_POINT ( 'NONE',  ( 6.949999999999999289, 6.000000000000001776, 6.000000000000000000 ) ) ;
#569 = EDGE_LOOP ( 'NONE', ( #316, #793 ) ) ;
#570 = ORIENTED_EDGE ( 'NONE', *, *, #1002, .F. ) ;
#571 = DIRECTION ( 'NONE',  ( 1.000000000000000000, 0.000000000000000000, 0.000000000000000000 ) ) ;
#572 = DIRECTION ( 'NONE',  ( -0.000000000000000000, 0.000000000000000000, 1.000000000000000000 ) ) ;
#573 = EDGE_CURVE ( 'NONE', #1333, #415, #441, .T. ) ;
#574 = ORIENTED_EDGE ( 'NONE', *, *, #281, .T. ) ;
#575 = DIRECTION ( 'NONE',  ( 0.000000000000000000, 0.000000000000000000, 1.000000000000000000 ) ) ;
#576 = CARTESIAN_POINT ( 'NONE',  ( 2.650657471292561240E-12, 26.49999999999940314, 1.900000000001442313 ) ) ;
#577 = EDGE_CURVE ( 'NONE', #1023, #1282, #1037, .T. ) ;
#578 = ORIENTED_EDGE ( 'NONE', *, *, #577, .F. ) ;
#579 = ORIENTED_EDGE ( 'NONE', *, *, #577, .T. ) ;
#580 = DIRECTION ( 'NONE',  ( -0.000000000000000000, 0.000000000000000000, 1.000000000000000000 ) ) ;
#581 = CARTESIAN_POINT ( 'NONE',  ( -10.05000000000000071, -6.000000000000003553, 5.000000000000000000 ) ) ;
#582 = LINE ( 'NONE', #1286, #230 ) ;
#583 = ORIENTED_EDGE ( 'NONE', *, *, #1104, .T. ) ;
#584 = EDGE_CURVE ( 'NONE', #1261, #1150, #44, .T. ) ;
#585 = LINE ( 'NONE', #166, #1291 ) ;
#586 = DIRECTION ( 'NONE',  ( 0.000000000000000000, -0.9486832980505138790, 0.3162277660168378857 ) ) ;
#587 = LINE ( 'NONE', #787, #165 ) ;
#588 = VERTEX_POINT ( 'NONE', #781 ) ;
#589 = AXIS2_PLACEMENT_3D ( 'NONE', #207, #842, #519 ) ;
#590 = VECTOR ( 'NONE', #980, 1000.000000000000000 ) ;
#591 = EDGE_CURVE ( 'NONE', #289, #1094, #1177, .T. ) ;
#592 = LINE ( 'NONE', #378, #2 ) ;
#593 = LINE ( 'NONE', #105, #1050 ) ;
#594 = ORIENTED_EDGE ( 'NONE', *, *, #15, .F. ) ;
#595 = DIRECTION ( 'NONE',  ( 0.000000000000000000, -0.000000000000000000, -1.000000000000000000 ) ) ;
#596 = ORIENTED_EDGE ( 'NONE', *, *, #1079, .T. ) ;
#597 = LINE ( 'NONE', #290, #489 ) ;
#598 = AXIS2_PLACEMENT_3D ( 'NONE', #944, #237, #616 ) ;
#599 = ORIENTED_EDGE ( 'NONE', *, *, #133, .F. ) ;
#600 = DIRECTION ( 'NONE',  ( -0.000000000000000000, 0.000000000000000000, 1.000000000000000000 ) ) ;
#601 = LINE ( 'NONE', #99, #663 ) ;
#602 = FACE_OUTER_BOUND ( 'NONE', #906, .T. ) ;
#603 = ORIENTED_EDGE ( 'NONE', *, *, #1138, .F. ) ;
#604 = DIRECTION ( 'NONE',  ( -0.000000000000000000, 0.000000000000000000, 1.000000000000000000 ) ) ;
#605 = ORIENTED_EDGE ( 'NONE', *, *, #1293, .F. ) ;
#606 = DIRECTION ( 'NONE',  ( 2.312964634635741971E-16, -1.000000000000000000, -0.000000000000000000 ) ) ;
#607 = LINE ( 'NONE', #1011, #125 ) ;
#608 = ADVANCED_FACE ( 'NONE', ( #473 ), #1304, .T. ) ;
#609 = ORIENTED_EDGE ( 'NONE', *, *, #584, .F. ) ;
#610 = DIRECTION ( 'NONE',  ( -4.591682424051300546E-16, 6.580674305559781530E-17, -1.000000000000000000 ) ) ;
#611 = VECTOR ( 'NONE', #464, 1000.000000000000000 ) ;
#612 = CARTESIAN_POINT ( 'NONE',  ( 0.000000000000000000, 0.000000000000000000, 0.000000000000000000 ) ) ;
#613 = DIRECTION ( 'NONE',  ( -0.000000000000000000, -0.000000000000000000, -1.000000000000000000 ) ) ;
#614 = AXIS2_PLACEMENT_3D ( 'NONE', #1185, #1107, #666 ) ;
#615 = AXIS2_PLACEMENT_3D ( 'NONE', #533, #957, #115 ) ;
#616 = DIRECTION ( 'NONE',  ( 1.000000000000000000, 0.000000000000000000, 0.000000000000000000 ) ) ;
#617 = CARTESIAN_POINT ( 'NONE',  ( -2.069494673095137153E-15, 18.99999999999999645, 5.000000000000000000 ) ) ;
#618 = EDGE_CURVE ( 'NONE', #985, #426, #937, .T. ) ;
#619 = ORIENTED_EDGE ( 'NONE', *, *, #1331, .T. ) ;
#620 = CARTESIAN_POINT ( 'NONE',  ( 14.25000000000000000, 17.00000000000000000, 20.00000000000000000 ) ) ;
#621 = DIRECTION ( 'NONE',  ( 0.000000000000000000, -1.000000000000000000, 0.000000000000000000 ) ) ;
#622 = CARTESIAN_POINT ( 'NONE',  ( -7.999999999999998224, -6.000000000000003553, 6.000000000000000000 ) ) ;
#623 = FACE_OUTER_BOUND ( 'NONE', #1179, .T. ) ;
#624 = VERTEX_POINT ( 'NONE', #874 ) ;
#625 = DIRECTION ( 'NONE',  ( 0.000000000000000000, 0.000000000000000000, -1.000000000000000000 ) ) ;
#626 = EDGE_CURVE ( 'NONE', #797, #1129, #184, .T. ) ;
#627 = DIRECTION ( 'NONE',  ( 1.000000000000000000, 0.000000000000000000, 0.000000000000000000 ) ) ;
#628 = ORIENTED_EDGE ( 'NONE', *, *, #1172, .F. ) ;
#629 = DIRECTION ( 'NONE',  ( 0.000000000000000000, 0.000000000000000000, -1.000000000000000000 ) ) ;
#630 = AXIS2_PLACEMENT_3D ( 'NONE', #371, #567, #571 ) ;
#631 = ADVANCED_FACE ( 'NONE', ( #69 ), #272, .T. ) ;
#632 = CARTESIAN_POINT ( 'NONE',  ( 15.92647058823530237, -19.00000000000000355, 5.000000000000000000 ) ) ;
#633 = ORIENTED_EDGE ( 'NONE', *, *, #78, .F. ) ;
#634 = DIRECTION ( 'NONE',  ( 4.591682424051300546E-16, -6.580674305559801251E-17, 1.000000000000000000 ) ) ;
#635 = CARTESIAN_POINT ( 'NONE',  ( -8.000000000000000000, 6.000000000000001776, 7.000000000000000000 ) ) ;
#636 = AXIS2_PLACEMENT_3D ( 'NONE', #899, #1021, #499 ) ;
#637 = VERTEX_POINT ( 'NONE', #456 ) ;
#638 = AXIS2_PLACEMENT_3D ( 'NONE', #368, #389, #1112 ) ;
#639 = CARTESIAN_POINT ( 'NONE',  ( -8.000000000000000000, 6.000000000000001776, 7.000000000000000000 ) ) ;
#640 = CIRCLE ( 'NONE', #638, 1.000000000000000000 ) ;
#641 = ADVANCED_FACE ( 'NONE', ( #970 ), #1281, .F. ) ;
#642 = TOROIDAL_SURFACE ( 'NONE', #856, 2.049999999999998490, 1.000000000000000000 ) ;
#643 = ORIENTED_EDGE ( 'NONE', *, *, #1178, .F. ) ;
#644 = DIRECTION ( 'NONE',  ( 1.000000000000000000, 0.000000000000000000, 0.000000000000000000 ) ) ;
#645 = CYLINDRICAL_SURFACE ( 'NONE', #82, 1.049999999999998934 ) ;
#646 = EDGE_LOOP ( 'NONE', ( #972, #1163, #345, #322 ) ) ;
#647 = CARTESIAN_POINT ( 'NONE',  ( 0.000000000000000000, 0.000000000000000000, 5.000000000000000000 ) ) ;
#648 = EDGE_LOOP ( 'NONE', ( #987, #136, #12, #1312 ) ) ;
#649 = DIRECTION ( 'NONE',  ( -0.3090169943749470072, 0.9510565162951537532, 2.323290369611796484E-16 ) ) ;
#650 = LINE ( 'NONE', #542, #535 ) ;
#651 = LINE ( 'NONE', #146, #894 ) ;
#652 = AXIS2_PLACEMENT_3D ( 'NONE', #859, #462, #67 ) ;
#653 = VECTOR ( 'NONE', #716, 1000.000000000000000 ) ;
#654 = VERTEX_POINT ( 'NONE', #568 ) ;
#655 = EDGE_CURVE ( 'NONE', #914, #98, #651, .T. ) ;
#656 = ORIENTED_EDGE ( 'NONE', *, *, #788, .T. ) ;
#657 = CARTESIAN_POINT ( 'NONE',  ( -0.8497967345284542784, 29.11540541981107921, 1.900000000001442757 ) ) ;
#658 = PRODUCT_RELATED_PRODUCT_CATEGORY ( 'part', '', ( #1110 ) ) ;
#659 = DIRECTION ( 'NONE',  ( -1.000000000000000000, 0.000000000000000000, 0.000000000000000000 ) ) ;
#660 = PLANE ( 'NONE',  #1100 ) ;
#661 = LINE ( 'NONE', #170, #1232 ) ;
#662 = AXIS2_PLACEMENT_3D ( 'NONE', #21, #1020, #1249 ) ;
#663 = VECTOR ( 'NONE', #844, 1000.000000000000000 ) ;
#664 = ORIENTED_EDGE ( 'NONE', *, *, #133, .T. ) ;
#665 = CARTESIAN_POINT ( 'NONE',  ( 2.650657471292561240E-12, 26.49999999999940314, 5.000000000001440625 ) ) ;
#666 = DIRECTION ( 'NONE',  ( -1.000000000000000000, 0.000000000000000000, 0.000000000000000000 ) ) ;
#667 = EDGE_LOOP ( 'NONE', ( #261, #1048, #713, #706, #1190, #375, #698, #72 ) ) ;
#668 = CARTESIAN_POINT ( 'NONE',  ( 0.4635254915650544039, -1.426584774443345527, 0.000000000000000000 ) ) ;
#669 = CARTESIAN_POINT ( 'NONE',  ( -7.999999999999998224, -6.000000000000003553, 6.000000000000000000 ) ) ;
#670 = EDGE_CURVE ( 'NONE', #474, #1051, #990, .T. ) ;
#671 = CARTESIAN_POINT ( 'NONE',  ( 15.92647058823530237, 0.000000000000000000, 5.000000000000000000 ) ) ;
#672 = ORIENTED_EDGE ( 'NONE', *, *, #718, .T. ) ;
#673 = AXIS2_PLACEMENT_3D ( 'NONE', #1247, #610, #1040 ) ;
#674 = EDGE_LOOP ( 'NONE', ( #922, #930, #275, #57 ) ) ;
#675 = CARTESIAN_POINT ( 'NONE',  ( 8.000000000000000000, 6.000000000000001776, 6.000000000000000000 ) ) ;
#676 = DIRECTION ( 'NONE',  ( -0.000000000000000000, 0.000000000000000000, 1.000000000000000000 ) ) ;
#677 = ADVANCED_FACE ( 'NONE', ( #761 ), #369, .F. ) ;
#678 = AXIS2_PLACEMENT_3D ( 'NONE', #995, #1322, #810 ) ;
#679 = ORIENTED_EDGE ( 'NONE', *, *, #139, .F. ) ;
#680 = AXIS2_PLACEMENT_3D ( 'NONE', #898, #259, #773 ) ;
#681 = AXIS2_PLACEMENT_3D ( 'NONE', #734, #1159, #1077 ) ;
#682 = ORIENTED_EDGE ( 'NONE', *, *, #295, .F. ) ;
#683 = CARTESIAN_POINT ( 'NONE',  ( -10.92647058823530060, 18.99999999999999645, 10.00000000000000000 ) ) ;
#684 = LINE ( 'NONE', #1303, #1214 ) ;
#685 = CARTESIAN_POINT ( 'NONE',  ( -0.8497967345284542784, 29.11540541981107921, 5.000000000001441514 ) ) ;
#686 = EDGE_CURVE ( 'NONE', #76, #1282, #1200, .T. ) ;
#687 = EDGE_LOOP ( 'NONE', ( #208, #303, #55, #461, #107, #679, #1208, #518 ) ) ;
#688 = CARTESIAN_POINT ( 'NONE',  ( 0.4635254915650559027, -1.426584774443350190, 1.900000000000061195 ) ) ;
#689 = ADVANCED_FACE ( 'NONE', ( #266 ), #254, .F. ) ;
#690 = CARTESIAN_POINT ( 'NONE',  ( 10.05000000000000071, 6.000000000000001776, 5.000000000000000000 ) ) ;
#691 = FACE_OUTER_BOUND ( 'NONE', #1082, .T. ) ;
#692 = VECTOR ( 'NONE', #453, 1000.000000000000000 ) ;
#693 = EDGE_CURVE ( 'NONE', #992, #1155, #661, .T. ) ;
#694 = ORIENTED_EDGE ( 'NONE', *, *, #1057, .T. ) ;
#695 = CIRCLE ( 'NONE', #889, 2.750000000000003553 ) ;
#696 = DIRECTION ( 'NONE',  ( 0.000000000000000000, -0.9486832980505138790, 0.3162277660168378302 ) ) ;
#697 = CIRCLE ( 'NONE', #1044, 1.000000000000000000 ) ;
#698 = ORIENTED_EDGE ( 'NONE', *, *, #1033, .F. ) ;
#699 = FACE_OUTER_BOUND ( 'NONE', #750, .T. ) ;
#700 = ORIENTED_EDGE ( 'NONE', *, *, #925, .F. ) ;
#701 = DIRECTION ( 'NONE',  ( -0.000000000000000000, 0.000000000000000000, 1.000000000000000000 ) ) ;
#702 = DIRECTION ( 'NONE',  ( -0.000000000000000000, 0.000000000000000000, 1.000000000000000000 ) ) ;
#703 = DIRECTION ( 'NONE',  ( 1.000000000000000000, 0.000000000000000000, 0.000000000000000000 ) ) ;
#704 = ORIENTED_EDGE ( 'NONE', *, *, #1131, .F. ) ;
#705 = DIRECTION ( 'NONE',  ( 1.000000000000000000, 0.000000000000000000, 0.000000000000000000 ) ) ;
#706 = ORIENTED_EDGE ( 'NONE', *, *, #879, .T. ) ;
#707 = CYLINDRICAL_SURFACE ( 'NONE', #1252, 1.500000000000003109 ) ;
#708 = CARTESIAN_POINT ( 'NONE',  ( 5.950000000000003730, -6.000000000000000000, 6.000000000000000000 ) ) ;
#709 = EDGE_CURVE ( 'NONE', #719, #426, #582, .T. ) ;
#710 = EDGE_CURVE ( 'NONE', #224, #914, #607, .T. ) ;
#711 = VERTEX_POINT ( 'NONE', #1113 ) ;
#712 = FACE_BOUND ( 'NONE', #782, .T. ) ;
#713 = ORIENTED_EDGE ( 'NONE', *, *, #255, .F. ) ;
#714 = DIRECTION ( 'NONE',  ( 0.000000000000000000, 0.000000000000000000, -1.000000000000000000 ) ) ;
#715 = CIRCLE ( 'NONE', #270, 1.050000000000000488 ) ;
#716 = DIRECTION ( 'NONE',  ( 1.000000000000000000, 0.000000000000000000, 0.000000000000000000 ) ) ;
#717 = DIRECTION ( 'NONE',  ( 1.000000000000000000, 0.000000000000000000, 0.000000000000000000 ) ) ;
#718 = EDGE_CURVE ( 'NONE', #878, #1305, #1004, .T. ) ;
#719 = VERTEX_POINT ( 'NONE', #81 ) ;
#720 = CARTESIAN_POINT ( 'NONE',  ( 2.650657471292561240E-12, 26.49999999999940314, 5.000000000001440625 ) ) ;
#721 = DIRECTION ( 'NONE',  ( -0.000000000000000000, 0.000000000000000000, 1.000000000000000000 ) ) ;
#722 = CARTESIAN_POINT ( 'NONE',  ( 14.25000000000000355, -19.00000000000000355, 20.00000000000000000 ) ) ;
#723 = VECTOR ( 'NONE', #931, 1000.000000000000000 ) ;
#724 = DIRECTION ( 'NONE',  ( 1.000000000000000000, -0.000000000000000000, 0.000000000000000000 ) ) ;
#725 = EDGE_LOOP ( 'NONE', ( #910, #248, #927, #185 ) ) ;
#726 = LINE ( 'NONE', #1156, #459 ) ;
#727 = ORIENTED_EDGE ( 'NONE', *, *, #314, .T. ) ;
#728 = DIRECTION ( 'NONE',  ( 0.000000000000000000, -0.000000000000000000, -1.000000000000000000 ) ) ;
#729 = FACE_OUTER_BOUND ( 'NONE', #233, .T. ) ;
#730 = CARTESIAN_POINT ( 'NONE',  ( -6.949999999999999289, 6.000000000000001776, 7.000000000000000000 ) ) ;
#731 = EDGE_LOOP ( 'NONE', ( #342, #1013, #41, #334 ) ) ;
#732 = DIRECTION ( 'NONE',  ( 0.000000000000000000, -0.000000000000000000, -1.000000000000000000 ) ) ;
#733 = ORIENTED_EDGE ( 'NONE', *, *, #78, .T. ) ;
#734 = CARTESIAN_POINT ( 'NONE',  ( -7.999999999999998224, -6.000000000000003553, 6.000000000000000000 ) ) ;
#735 = CARTESIAN_POINT ( 'NONE',  ( -14.25000000000000000, -19.00000000000000355, 5.000000000000000000 ) ) ;
#736 = AXIS2_PLACEMENT_3D ( 'NONE', #772, #74, #1320 ) ;
#737 = FACE_BOUND ( 'NONE', #569, .T. ) ;
#738 = VECTOR ( 'NONE', #419, 1000.000000000000000 ) ;
#739 = ORIENTED_EDGE ( 'NONE', *, *, #1016, .T. ) ;
#740 = CARTESIAN_POINT ( 'NONE',  ( 10.05000000000000071, -6.000000000000000000, 5.000000000000000000 ) ) ;
#741 = CYLINDRICAL_SURFACE ( 'NONE', #976, 1.050000000000000488 ) ;
#742 = AXIS2_PLACEMENT_3D ( 'NONE', #1225, #390, #800 ) ;
#743 = EDGE_LOOP ( 'NONE', ( #102, #643, #784, #1288 ) ) ;
#744 = EDGE_CURVE ( 'NONE', #180, #474, #768, .T. ) ;
#745 = VECTOR ( 'NONE', #271, 1000.000000000000000 ) ;
#746 = DIRECTION ( 'NONE',  ( -0.000000000000000000, 0.000000000000000000, 1.000000000000000000 ) ) ;
#747 = AXIS2_PLACEMENT_3D ( 'NONE', #828, #955, #129 ) ;
#748 = ORIENTED_EDGE ( 'NONE', *, *, #1271, .F. ) ;
#749 = CARTESIAN_POINT ( 'NONE',  ( 15.92647058823530593, 19.00000000000000000, 20.00000000000000000 ) ) ;
#750 = EDGE_LOOP ( 'NONE', ( #94, #408, #452, #267 ) ) ;
#751 = FACE_OUTER_BOUND ( 'NONE', #884, .T. ) ;
#752 = DIRECTION ( 'NONE',  ( -0.3090169943749470072, 0.9510565162951537532, 3.097720492815728645E-16 ) ) ;
#753 = DIRECTION ( 'NONE',  ( -0.000000000000000000, 0.000000000000000000, -1.000000000000000000 ) ) ;
#754 = ADVANCED_FACE ( 'NONE', ( #903 ), #1314, .T. ) ;
#755 = ORIENTED_EDGE ( 'NONE', *, *, #210, .T. ) ;
#756 = EDGE_CURVE ( 'NONE', #458, #767, #593, .T. ) ;
#757 = EDGE_LOOP ( 'NONE', ( #83, #71, #1147, #633 ) ) ;
#758 = FACE_OUTER_BOUND ( 'NONE', #1319, .T. ) ;
#759 = LINE ( 'NONE', #242, #1245 ) ;
#760 = DIRECTION ( 'NONE',  ( 1.000000000000000000, 0.000000000000000000, 0.000000000000000000 ) ) ;
#761 = FACE_OUTER_BOUND ( 'NONE', #865, .T. ) ;
#762 = AXIS2_PLACEMENT_3D ( 'NONE', #144, #448, #1290 ) ;
#763 = TOROIDAL_SURFACE ( 'NONE', #484, 2.050000000000000711, 1.000000000000000000 ) ;
#764 = EDGE_LOOP ( 'NONE', ( #564, #836 ) ) ;
#765 = EDGE_CURVE ( 'NONE', #1017, #1282, #297, .T. ) ;
#766 = LINE ( 'NONE', #348, #1226 ) ;
#767 = VERTEX_POINT ( 'NONE', #685 ) ;
#768 = CIRCLE ( 'NONE', #298, 1.049999999999998934 ) ;
#769 = EDGE_LOOP ( 'NONE', ( #392, #870, #1202, #497 ) ) ;
#770 = VECTOR ( 'NONE', #1146, 1000.000000000000000 ) ;
#771 = ORIENTED_EDGE ( 'NONE', *, *, #319, .T. ) ;
#772 = CARTESIAN_POINT ( 'NONE',  ( -10.05000000000000071, 6.000000000000001776, 6.000000000000000000 ) ) ;
#773 = DIRECTION ( 'NONE',  ( 1.000000000000000000, 0.000000000000000000, 0.000000000000000000 ) ) ;
#774 = PRODUCT_DEFINITION ( 'æ™', '', #1154, #821 ) ;
#775 = DIRECTION ( 'NONE',  ( 4.591682424051300546E-16, -6.580674305559801251E-17, 1.000000000000000000 ) ) ;
#776 = ORIENTED_EDGE ( 'NONE', *, *, #710, .F. ) ;
#777 = ORIENTED_EDGE ( 'NONE', *, *, #1033, .T. ) ;
#778 = FACE_OUTER_BOUND ( 'NONE', #1143, .T. ) ;
#779 = DIRECTION ( 'NONE',  ( 1.000000000000000000, 0.000000000000000000, 0.000000000000000000 ) ) ;
#780 = ADVANCED_FACE ( 'NONE', ( #1003 ), #1, .F. ) ;
#781 = CARTESIAN_POINT ( 'NONE',  ( -9.049999999999998934, -6.000000000000003553, 7.000000000000000000 ) ) ;
#782 = EDGE_LOOP ( 'NONE', ( #979, #349 ) ) ;
#783 = VECTOR ( 'NONE', #1253, 1000.000000000000000 ) ;
#784 = ORIENTED_EDGE ( 'NONE', *, *, #790, .T. ) ;
#785 = DIRECTION ( 'NONE',  ( 4.591682424051300546E-16, -6.580674305559801251E-17, 1.000000000000000000 ) ) ;
#786 = DIRECTION ( 'NONE',  ( 0.000000000000000000, -0.9486832980505138790, 0.3162277660168378302 ) ) ;
#787 = CARTESIAN_POINT ( 'NONE',  ( 9.050000000000000711, 6.000000000000001776, 7.000000000000000000 ) ) ;
#788 = EDGE_CURVE ( 'NONE', #1129, #134, #587, .T. ) ;
#789 = AXIS2_PLACEMENT_3D ( 'NONE', #436, #724, #517 ) ;
#790 = EDGE_CURVE ( 'NONE', #51, #283, #1212, .T. ) ;
#791 = AXIS2_PLACEMENT_3D ( 'NONE', #669, #60, #1097 ) ;
#792 = CIRCLE ( 'NONE', #598, 1.050000000000000488 ) ;
#793 = ORIENTED_EDGE ( 'NONE', *, *, #1316, .T. ) ;
#794 = CARTESIAN_POINT ( 'NONE',  ( 5.949999999999999289, 6.000000000000001776, 6.000000000000000000 ) ) ;
#795 = CARTESIAN_POINT ( 'NONE',  ( -7.999999999999998224, -6.000000000000003553, 6.000000000000000000 ) ) ;
#796 = CARTESIAN_POINT ( 'NONE',  ( -15.92647058823529882, -2.908212886196413518E-15, 0.000000000000000000 ) ) ;
#797 = VERTEX_POINT ( 'NONE', #1218 ) ;
#798 = VERTEX_POINT ( 'NONE', #286 ) ;
#799 = PLANE ( 'NONE',  #662 ) ;
#800 = DIRECTION ( 'NONE',  ( 1.000000000000000000, 0.000000000000000000, 0.000000000000000000 ) ) ;
#801 = EDGE_LOOP ( 'NONE', ( #4, #656, #25, #1229 ) ) ;
#802 = DIRECTION ( 'NONE',  ( 0.000000000000000000, 1.000000000000000000, 0.000000000000000000 ) ) ;
#803 = CARTESIAN_POINT ( 'NONE',  ( 2.636779683484746784E-12, -6.175615574477433256E-13, 5.000000000000060396 ) ) ;
#804 = ORIENTED_EDGE ( 'NONE', *, *, #1118, .T. ) ;
#805 = PRESENTATION_STYLE_ASSIGNMENT (( #1203 ) ) ;
#806 = ADVANCED_FACE ( 'NONE', ( #602 ), #888, .T. ) ;
#807 = CIRCLE ( 'NONE', #384, 1.000000000000000000 ) ;
#808 = DIRECTION ( 'NONE',  ( 1.000000000000000000, 1.089207722681651315E-16, 0.000000000000000000 ) ) ;
#809 = CIRCLE ( 'NONE', #1278, 1.500000000000001332 ) ;
#810 = DIRECTION ( 'NONE',  ( 0.000000000000000000, -0.9486832980505138790, 0.3162277660168378857 ) ) ;
#811 = ORIENTED_EDGE ( 'NONE', *, *, #686, .F. ) ;
#812 = DIRECTION ( 'NONE',  ( -0.3090169943749468406, 0.9510565162951537532, 3.154042683594190683E-16 ) ) ;
#813 = EDGE_LOOP ( 'NONE', ( #174, #1116 ) ) ;
#814 = CARTESIAN_POINT ( 'NONE',  ( -15.92647058823530237, 18.99999999999999645, 10.00000000000000000 ) ) ;
#815 = CARTESIAN_POINT ( 'NONE',  ( 0.000000000000000000, 17.00000000000000000, 20.00000000000000000 ) ) ;
#816 = VECTOR ( 'NONE', #341, 1000.000000000000000 ) ;
#817 = LINE ( 'NONE', #835, #783 ) ;
#818 = CIRCLE ( 'NONE', #868, 1.000000000000000888 ) ;
#819 = DIRECTION ( 'NONE',  ( 4.591682424051301533E-16, -6.580674305559775367E-17, 1.000000000000000000 ) ) ;
#820 = LINE ( 'NONE', #1250, #179 ) ;
#821 = PRODUCT_DEFINITION_CONTEXT ( 'detailed design', #525, 'design' ) ;
#822 = CARTESIAN_POINT ( 'NONE',  ( 8.000000000000001776, -6.000000000000000000, 6.000000000000000000 ) ) ;
#823 = ADVANCED_FACE ( 'NONE', ( #691 ), #395, .T. ) ;
#824 = EDGE_CURVE ( 'NONE', #1333, #191, #1231, .T. ) ;
#825 = LINE ( 'NONE', #632, #1133 ) ;
#826 = VECTOR ( 'NONE', #252, 1000.000000000000000 ) ;
#827 = ORIENTED_EDGE ( 'NONE', *, *, #513, .T. ) ;
#828 = CARTESIAN_POINT ( 'NONE',  ( 2.650657471292561240E-12, 26.49999999999940314, 1.900000000001442313 ) ) ;
#829 = FACE_OUTER_BOUND ( 'NONE', #646, .T. ) ;
#830 = VECTOR ( 'NONE', #808, 1000.000000000000000 ) ;
#831 = CIRCLE ( 'NONE', #471, 1.050000000000000488 ) ;
#832 = DIRECTION ( 'NONE',  ( -0.000000000000000000, -0.000000000000000000, -1.000000000000000000 ) ) ;
#833 = EDGE_CURVE ( 'NONE', #1051, #1176, #1072, .T. ) ;
#834 = EDGE_LOOP ( 'NONE', ( #56, #449, #771, #883 ) ) ;
#835 = CARTESIAN_POINT ( 'NONE',  ( -10.92647058823530060, 18.99999999999999645, 10.00000000000000000 ) ) ;
#836 = ORIENTED_EDGE ( 'NONE', *, *, #152, .T. ) ;
#837 = CARTESIAN_POINT ( 'NONE',  ( -0.4635254915597833425, 1.426584774442112069, 5.000000000000060396 ) ) ;
#838 = LINE ( 'NONE', #1029, #1246 ) ;
#839 = ORIENTED_EDGE ( 'NONE', *, *, #584, .T. ) ;
#840 = CARTESIAN_POINT ( 'NONE',  ( -15.92647058823529527, -19.00000000000000355, 5.000000000000000000 ) ) ;
#841 = ORIENTED_EDGE ( 'NONE', *, *, #1318, .T. ) ;
#842 = DIRECTION ( 'NONE',  ( -4.591682424051301533E-16, 6.580674305559779064E-17, -1.000000000000000000 ) ) ;
#843 = ORIENTED_EDGE ( 'NONE', *, *, #756, .F. ) ;
#844 = DIRECTION ( 'NONE',  ( -0.000000000000000000, -0.000000000000000000, -1.000000000000000000 ) ) ;
#845 = EDGE_LOOP ( 'NONE', ( #776, #977, #619, #1076 ) ) ;
#846 = PRESENTATION_LAYER_ASSIGNMENT (  '', '', ( #1328 ) ) ;
#847 = FACE_BOUND ( 'NONE', #1209, .T. ) ;
#848 = VERTEX_POINT ( 'NONE', #1045 ) ;
#849 = DIRECTION ( 'NONE',  ( 0.000000000000000000, -0.000000000000000000, -1.000000000000000000 ) ) ;
#850 = ADVANCED_FACE ( 'NONE', ( #1264 ), #763, .F. ) ;
#851 = CYLINDRICAL_SURFACE ( 'NONE', #17, 2.750000000000003553 ) ;
#852 = ORIENTED_EDGE ( 'NONE', *, *, #1126, .T. ) ;
#853 = AXIS2_PLACEMENT_3D ( 'NONE', #1130, #200, #109 ) ;
#854 = FACE_OUTER_BOUND ( 'NONE', #674, .T. ) ;
#855 = EDGE_CURVE ( 'NONE', #500, #92, #838, .T. ) ;
#856 = AXIS2_PLACEMENT_3D ( 'NONE', #822, #132, #717 ) ;
#857 = ORIENTED_EDGE ( 'NONE', *, *, #1189, .T. ) ;
#858 = DIRECTION ( 'NONE',  ( 4.591682424051300546E-16, -6.580674305559801251E-17, 1.000000000000000000 ) ) ;
#859 = CARTESIAN_POINT ( 'NONE',  ( 8.000000000000001776, -6.000000000000000000, 7.000000000000000000 ) ) ;
#860 = FACE_OUTER_BOUND ( 'NONE', #147, .T. ) ;
#861 = DIRECTION ( 'NONE',  ( -1.000000000000000000, 0.000000000000000000, 0.000000000000000000 ) ) ;
#862 = ADVANCED_FACE ( 'NONE', ( #829 ), #741, .T. ) ;
#863 = ORIENTED_EDGE ( 'NONE', *, *, #33, .T. ) ;
#864 = LINE ( 'NONE', #978, #692 ) ;
#865 = EDGE_LOOP ( 'NONE', ( #551, #1139, #1330, #1188 ) ) ;
#866 = FACE_OUTER_BOUND ( 'NONE', #938, .T. ) ;
#867 = CARTESIAN_POINT ( 'NONE',  ( 10.92647058823530060, 18.99999999999999645, 5.000000000000000000 ) ) ;
#868 = AXIS2_PLACEMENT_3D ( 'NONE', #1078, #366, #1175 ) ;
#869 = AXIS2_PLACEMENT_3D ( 'NONE', #1152, #218, #627 ) ;
#870 = ORIENTED_EDGE ( 'NONE', *, *, #1180, .F. ) ;
#871 = ORIENTED_EDGE ( 'NONE', *, *, #73, .F. ) ;
#872 = CARTESIAN_POINT ( 'NONE',  ( -0.8652475842472143741, 2.662958245625811848, 5.000000000000060396 ) ) ;
#873 = CARTESIAN_POINT ( 'NONE',  ( 0.000000000000000000, 34.00000000000000000, 5.000000000000000000 ) ) ;
#874 = CARTESIAN_POINT ( 'NONE',  ( -14.25000000000000000, 17.00000000000000000, 20.00000000000000000 ) ) ;
#875 = AXIS2_PLACEMENT_3D ( 'NONE', #873, #75, #472 ) ;
#876 = AXIS2_PLACEMENT_3D ( 'NONE', #803, #1010, #403 ) ;
#877 =( NAMED_UNIT ( * ) PLANE_ANGLE_UNIT ( ) SI_UNIT ( $, .RADIAN. ) );
#878 = VERTEX_POINT ( 'NONE', #331 ) ;
#879 = EDGE_CURVE ( 'NONE', #1289, #98, #410, .T. ) ;
#880 = SURFACE_STYLE_FILL_AREA ( #263 ) ;
#881 = LINE ( 'NONE', #1091, #561 ) ;
#882 = DIRECTION ( 'NONE',  ( -0.3090169943749470072, 0.9510565162951537532, 3.097720492815728645E-16 ) ) ;
#883 = ORIENTED_EDGE ( 'NONE', *, *, #790, .F. ) ;
#884 = EDGE_LOOP ( 'NONE', ( #599, #481, #700, #149 ) ) ;
#885 = CARTESIAN_POINT ( 'NONE',  ( 8.000000000000001776, -6.000000000000000000, 7.000000000000000000 ) ) ;
#886 = ADVANCED_FACE ( 'NONE', ( #949 ), #1257, .F. ) ;
#887 = DIRECTION ( 'NONE',  ( -0.3090169943749468406, 0.9510565162951537532, 2.365532012695642766E-16 ) ) ;
#888 = PLANE ( 'NONE',  #506 ) ;
#889 = AXIS2_PLACEMENT_3D ( 'NONE', #1117, #1216, #501 ) ;
#890 = AXIS2_PLACEMENT_3D ( 'NONE', #93, #993, #1210 ) ;
#891 = ORIENTED_EDGE ( 'NONE', *, *, #328, .T. ) ;
#892 = FACE_OUTER_BOUND ( 'NONE', #1042, .T. ) ;
#893 = EDGE_CURVE ( 'NONE', #1279, #711, #820, .T. ) ;
#894 = VECTOR ( 'NONE', #1187, 1000.000000000000000 ) ;
#895 = VECTOR ( 'NONE', #714, 1000.000000000000000 ) ;
#896 = ORIENTED_EDGE ( 'NONE', *, *, #893, .T. ) ;
#897 = DIRECTION ( 'NONE',  ( 1.000000000000000000, 0.000000000000000000, 0.000000000000000000 ) ) ;
#898 = CARTESIAN_POINT ( 'NONE',  ( 0.000000000000000000, 0.000000000000000000, 7.000000000000000000 ) ) ;
#899 = CARTESIAN_POINT ( 'NONE',  ( -8.000000000000000000, 6.000000000000001776, 5.000000000000000000 ) ) ;
#900 = ORIENTED_EDGE ( 'NONE', *, *, #893, .F. ) ;
#901 = DIRECTION ( 'NONE',  ( 1.826024711554534160E-16, -1.000000000000000000, 0.000000000000000000 ) ) ;
#902 = CARTESIAN_POINT ( 'NONE',  ( -8.000000000000000000, 6.000000000000001776, 6.000000000000000000 ) ) ;
#903 = FACE_OUTER_BOUND ( 'NONE', #687, .T. ) ;
#904 = PRODUCT_DEFINITION_SHAPE ( 'NONE', 'NONE',  #774 ) ;
#905 = EDGE_CURVE ( 'NONE', #357, #415, #324, .T. ) ;
#906 = EDGE_LOOP ( 'NONE', ( #287, #562, #454, #432, #388, #777, #262, #1255 ) ) ;
#907 = VECTOR ( 'NONE', #802, 1000.000000000000000 ) ;
#908 = DIRECTION ( 'NONE',  ( -0.3090169943749469517, 0.9510565162951537532, 1.445602896647336944E-16 ) ) ;
#909 = ADVANCED_FACE ( 'NONE', ( #729 ), #541, .T. ) ;
#910 = ORIENTED_EDGE ( 'NONE', *, *, #1104, .F. ) ;
#911 = DIRECTION ( 'NONE',  ( 4.591682424051300546E-16, -6.580674305559801251E-17, 1.000000000000000000 ) ) ;
#912 = DIRECTION ( 'NONE',  ( 1.000000000000000000, 0.000000000000000000, 0.000000000000000000 ) ) ;
#913 = VECTOR ( 'NONE', #832, 1000.000000000000000 ) ;
#914 = VERTEX_POINT ( 'NONE', #735 ) ;
#915 = AXIS2_PLACEMENT_3D ( 'NONE', #994, #86, #586 ) ;
#916 = CARTESIAN_POINT ( 'NONE',  ( 2.650657471292561240E-12, 26.49999999999940314, 5.000000000001440625 ) ) ;
#917 = AXIS2_PLACEMENT_3D ( 'NONE', #1151, #217, #330 ) ;
#918 = EDGE_CURVE ( 'NONE', #346, #417, #697, .T. ) ;
#919 = EDGE_LOOP ( 'NONE', ( #1269, #966 ) ) ;
#920 = CARTESIAN_POINT ( 'NONE',  ( 2.069494673095137942E-15, -19.00000000000000355, 20.00000000000000000 ) ) ;
#921 = DIRECTION ( 'NONE',  ( -0.000000000000000000, 0.000000000000000000, 1.000000000000000000 ) ) ;
#922 = ORIENTED_EDGE ( 'NONE', *, *, #423, .F. ) ;
#923 = CARTESIAN_POINT ( 'NONE',  ( -15.92647058823530593, 34.00000000000000000, 0.000000000000000000 ) ) ;
#924 = DIRECTION ( 'NONE',  ( 1.000000000000000000, 0.000000000000000000, 0.000000000000000000 ) ) ;
#925 = EDGE_CURVE ( 'NONE', #637, #141, #396, .T. ) ;
#926 = FACE_OUTER_BOUND ( 'NONE', #769, .T. ) ;
#927 = ORIENTED_EDGE ( 'NONE', *, *, #143, .T. ) ;
#928 = DIRECTION ( 'NONE',  ( -1.000000000000000000, 0.000000000000000000, 0.000000000000000000 ) ) ;
#929 = CIRCLE ( 'NONE', #1041, 1.049999999999998934 ) ;
#930 = ORIENTED_EDGE ( 'NONE', *, *, #833, .T. ) ;
#931 = DIRECTION ( 'NONE',  ( -1.000000000000000000, 0.000000000000000000, 0.000000000000000000 ) ) ;
#932 = VECTOR ( 'NONE', #344, 1000.000000000000000 ) ;
#933 = CARTESIAN_POINT ( 'NONE',  ( -8.000000000000000000, 6.000000000000001776, 7.000000000000000000 ) ) ;
#934 = EDGE_CURVE ( 'NONE', #798, #637, #1115, .T. ) ;
#935 = DIRECTION ( 'NONE',  ( -1.000000000000000000, 0.000000000000000000, 0.000000000000000000 ) ) ;
#936 = DIRECTION ( 'NONE',  ( -0.000000000000000000, -0.000000000000000000, -1.000000000000000000 ) ) ;
#937 = CIRCLE ( 'NONE', #1315, 1.050000000000000488 ) ;
#938 = EDGE_LOOP ( 'NONE', ( #96, #35, #197, #1158 ) ) ;
#939 = DIRECTION ( 'NONE',  ( 0.000000000000000000, 0.000000000000000000, -1.000000000000000000 ) ) ;
#940 = DIRECTION ( 'NONE',  ( -0.000000000000000000, -0.000000000000000000, -1.000000000000000000 ) ) ;
#941 = AXIS2_PLACEMENT_3D ( 'NONE', #1170, #50, #760 ) ;
#942 = CIRCLE ( 'NONE', #91, 2.049999999999999822 ) ;
#943 = DIRECTION ( 'NONE',  ( 0.000000000000000000, 0.000000000000000000, -1.000000000000000000 ) ) ;
#944 = CARTESIAN_POINT ( 'NONE',  ( -7.999999999999998224, -6.000000000000003553, 7.000000000000000000 ) ) ;
#945 = ORIENTED_EDGE ( 'NONE', *, *, #183, .T. ) ;
#946 = LINE ( 'NONE', #34, #816 ) ;
#947 = ORIENTED_EDGE ( 'NONE', *, *, #494, .F. ) ;
#948 = CARTESIAN_POINT ( 'NONE',  ( 8.000000000000000000, 6.000000000000001776, 5.000000000000000000 ) ) ;
#949 = FACE_OUTER_BOUND ( 'NONE', #998, .T. ) ;
#950 = LINE ( 'NONE', #531, #231 ) ;
#951 = PLANE ( 'NONE',  #789 ) ;
#952 =( GEOMETRIC_REPRESENTATION_CONTEXT ( 3 ) GLOBAL_UNCERTAINTY_ASSIGNED_CONTEXT ( ( #54 ) ) GLOBAL_UNIT_ASSIGNED_CONTEXT ( ( #64, #877, #1066 ) ) REPRESENTATION_CONTEXT ( 'NONE', 'WORKASPACE' ) );
#953 = ADVANCED_FACE ( 'NONE', ( #1036 ), #530, .F. ) ;
#954 = ORIENTED_EDGE ( 'NONE', *, *, #765, .T. ) ;
#955 = DIRECTION ( 'NONE',  ( 4.591682424051301533E-16, -6.580674305559775367E-17, 1.000000000000000000 ) ) ;
#956 = CARTESIAN_POINT ( 'NONE',  ( 14.25000000000000000, 0.000000000000000000, 20.00000000000000000 ) ) ;
#957 = DIRECTION ( 'NONE',  ( 4.591682424051301533E-16, -6.580674305559775367E-17, 1.000000000000000000 ) ) ;
#958 = ORIENTED_EDGE ( 'NONE', *, *, #1198, .F. ) ;
#959 = VERTEX_POINT ( 'NONE', #226 ) ;
#960 = DIRECTION ( 'NONE',  ( -0.000000000000000000, -0.000000000000000000, -1.000000000000000000 ) ) ;
#961 = CYLINDRICAL_SURFACE ( 'NONE', #614, 1.050000000000000488 ) ;
#962 = AXIS2_PLACEMENT_3D ( 'NONE', #576, #1297, #887 ) ;
#963 = DIRECTION ( 'NONE',  ( 4.591682424051300546E-16, -6.580674305559801251E-17, 1.000000000000000000 ) ) ;
#964 = AXIS2_PLACEMENT_3D ( 'NONE', #418, #150, #1270 ) ;
#965 = ORIENTED_EDGE ( 'NONE', *, *, #1280, .F. ) ;
#966 = ORIENTED_EDGE ( 'NONE', *, *, #299, .T. ) ;
#967 = CARTESIAN_POINT ( 'NONE',  ( 9.050000000000000711, -6.000000000000000000, 6.000000000000000000 ) ) ;
#968 = DIRECTION ( 'NONE',  ( 4.591682424051301533E-16, -6.580674305559775367E-17, 1.000000000000000000 ) ) ;
#969 = EDGE_CURVE ( 'NONE', #171, #719, #61, .T. ) ;
#970 = FACE_OUTER_BOUND ( 'NONE', #1009, .T. ) ;
#971 = ORIENTED_EDGE ( 'NONE', *, *, #1057, .F. ) ;
#972 = ORIENTED_EDGE ( 'NONE', *, *, #969, .F. ) ;
#973 = CYLINDRICAL_SURFACE ( 'NONE', #762, 1.499999999999998890 ) ;
#974 = DIRECTION ( 'NONE',  ( 1.000000000000000000, 0.000000000000000000, 0.000000000000000000 ) ) ;
#975 = DIRECTION ( 'NONE',  ( 1.000000000000000000, 0.000000000000000000, 0.000000000000000000 ) ) ;
#976 = AXIS2_PLACEMENT_3D ( 'NONE', #933, #940, #14 ) ;
#977 = ORIENTED_EDGE ( 'NONE', *, *, #1310, .F. ) ;
#978 = CARTESIAN_POINT ( 'NONE',  ( -14.25000000000000000, 0.000000000000000000, 20.00000000000000000 ) ) ;
#979 = ORIENTED_EDGE ( 'NONE', *, *, #486, .F. ) ;
#980 = DIRECTION ( 'NONE',  ( 1.000000000000000000, 1.089207722681651315E-16, 0.000000000000000000 ) ) ;
#981 = CARTESIAN_POINT ( 'NONE',  ( -14.25000000000000000, -19.00000000000000355, 20.00000000000000000 ) ) ;
#982 = DIRECTION ( 'NONE',  ( -0.000000000000000000, -0.000000000000000000, -1.000000000000000000 ) ) ;
#983 = AXIS2_PLACEMENT_3D ( 'NONE', #451, #1092, #753 ) ;
#984 = VECTOR ( 'NONE', #1321, 1000.000000000000000 ) ;
#985 = VERTEX_POINT ( 'NONE', #1168 ) ;
#986 = ADVANCED_FACE ( 'NONE', ( #201 ), #645, .T. ) ;
#987 = ORIENTED_EDGE ( 'NONE', *, *, #1101, .F. ) ;
#988 = CARTESIAN_POINT ( 'NONE',  ( 10.92647058823530060, 34.00000000000000000, 5.000000000000000000 ) ) ;
#989 = FACE_OUTER_BOUND ( 'NONE', #236, .T. ) ;
#990 = LINE ( 'NONE', #1298, #364 ) ;
#991 = EDGE_CURVE ( 'NONE', #1094, #363, #1329, .T. ) ;
#992 = VERTEX_POINT ( 'NONE', #668 ) ;
#993 = DIRECTION ( 'NONE',  ( 4.591682424051300546E-16, -6.580674305559801251E-17, 1.000000000000000000 ) ) ;
#994 = CARTESIAN_POINT ( 'NONE',  ( -10.92647058823530415, 34.00000000000000000, 5.000000000000000000 ) ) ;
#995 = CARTESIAN_POINT ( 'NONE',  ( 10.92647058823530060, 34.00000000000000000, 5.000000000000000000 ) ) ;
#996 = VECTOR ( 'NONE', #488, 1000.000000000000000 ) ;
#997 = AXIS2_PLACEMENT_3D ( 'NONE', #815, #1136, #30 ) ;
#998 = EDGE_LOOP ( 'NONE', ( #1272, #900, #520 ) ) ;
#999 = CARTESIAN_POINT ( 'NONE',  ( -7.999999999999998224, -6.000000000000003553, 7.000000000000000000 ) ) ;
#1000 = EDGE_LOOP ( 'NONE', ( #1108, #727, #1089, #1227 ) ) ;
#1001 = LINE ( 'NONE', #1193, #745 ) ;
#1002 = EDGE_CURVE ( 'NONE', #458, #1235, #460, .T. ) ;
#1003 = FACE_OUTER_BOUND ( 'NONE', #1119, .T. ) ;
#1004 = CIRCLE ( 'NONE', #636, 2.050000000000000711 ) ;
#1005 = VECTOR ( 'NONE', #943, 1000.000000000000000 ) ;
#1006 = CIRCLE ( 'NONE', #964, 2.049999999999998046 ) ;
#1007 = ORIENTED_EDGE ( 'NONE', *, *, #1075, .F. ) ;
#1008 = LINE ( 'NONE', #284, #996 ) ;
#1009 = EDGE_LOOP ( 'NONE', ( #18, #1220, #199, #628, #138, #401 ) ) ;
#1010 = DIRECTION ( 'NONE',  ( 4.591682424051300546E-16, -6.580674305559801251E-17, 1.000000000000000000 ) ) ;
#1011 = CARTESIAN_POINT ( 'NONE',  ( -14.25000000000000000, 0.000000000000000000, 5.000000000000000000 ) ) ;
#1012 = EDGE_CURVE ( 'NONE', #65, #798, #766, .T. ) ;
#1013 = ORIENTED_EDGE ( 'NONE', *, *, #62, .F. ) ;
#1014 = DIRECTION ( 'NONE',  ( 1.000000000000000000, 0.000000000000000000, 0.000000000000000000 ) ) ;
#1015 = CARTESIAN_POINT ( 'NONE',  ( 2.636779683484746784E-12, -6.175615574477433256E-13, 1.900000000000061418 ) ) ;
#1016 = EDGE_CURVE ( 'NONE', #1127, #992, #1160, .T. ) ;
#1017 = VERTEX_POINT ( 'NONE', #158 ) ;
#1018 = LINE ( 'NONE', #617, #39 ) ;
#1019 = ORIENTED_EDGE ( 'NONE', *, *, #756, .T. ) ;
#1020 = DIRECTION ( 'NONE',  ( -1.089207722681651315E-16, 1.000000000000000000, 0.000000000000000000 ) ) ;
#1021 = DIRECTION ( 'NONE',  ( 0.000000000000000000, -0.000000000000000000, -1.000000000000000000 ) ) ;
#1022 = APPLICATION_CONTEXT ( 'automotive_design' ) ;
#1023 = VERTEX_POINT ( 'NONE', #269 ) ;
#1024 = ADVANCED_FACE ( 'NONE', ( #778 ), #548, .T. ) ;
#1025 = TOROIDAL_SURFACE ( 'NONE', #941, 2.049999999999998490, 1.000000000000000000 ) ;
#1026 = PLANE ( 'NONE',  #1114 ) ;
#1027 = VECTOR ( 'NONE', #1230, 1000.000000000000000 ) ;
#1028 = LINE ( 'NONE', #1224, #723 ) ;
#1029 = CARTESIAN_POINT ( 'NONE',  ( 0.4635254915650714458, 25.07341522555666913, 5.000000000001440625 ) ) ;
#1030 = LINE ( 'NONE', #840, #770 ) ;
#1031 = ORIENTED_EDGE ( 'NONE', *, *, #1323, .F. ) ;
#1032 = DIRECTION ( 'NONE',  ( 1.000000000000000000, 1.089207722681651192E-16, 0.000000000000000000 ) ) ;
#1033 = EDGE_CURVE ( 'NONE', #848, #164, #455, .T. ) ;
#1034 = ORIENTED_EDGE ( 'NONE', *, *, #655, .T. ) ;
#1035 = FACE_OUTER_BOUND ( 'NONE', #667, .T. ) ;
#1036 = FACE_OUTER_BOUND ( 'NONE', #352, .T. ) ;
#1037 = LINE ( 'NONE', #220, #532 ) ;
#1038 = AXIS2_PLACEMENT_3D ( 'NONE', #27, #732, #108 ) ;
#1039 = ORIENTED_EDGE ( 'NONE', *, *, #430, .T. ) ;
#1040 = DIRECTION ( 'NONE',  ( 0.3090169943749469517, -0.9510565162951537532, -2.044767219796474972E-16 ) ) ;
#1041 = AXIS2_PLACEMENT_3D ( 'NONE', #885, #580, #897 ) ;
#1042 = EDGE_LOOP ( 'NONE', ( #1095, #958, #896, #945 ) ) ;
#1043 = CARTESIAN_POINT ( 'NONE',  ( 10.92647058823530060, 18.99999999999999645, 10.00000000000000000 ) ) ;
#1044 = AXIS2_PLACEMENT_3D ( 'NONE', #1145, #405, #122 ) ;
#1045 = CARTESIAN_POINT ( 'NONE',  ( -15.92647058823529527, -19.00000000000000355, 20.00000000000000000 ) ) ;
#1046 = DIRECTION ( 'NONE',  ( -1.000000000000000000, -1.826024711554534160E-16, 0.000000000000000000 ) ) ;
#1047 = ADVANCED_FACE ( 'NONE', ( #43 ), #851, .F. ) ;
#1048 = ORIENTED_EDGE ( 'NONE', *, *, #1259, .F. ) ;
#1049 = CARTESIAN_POINT ( 'NONE',  ( 10.92647058823530060, 18.99999999999999645, 5.000000000000000000 ) ) ;
#1050 = VECTOR ( 'NONE', #385, 1000.000000000000000 ) ;
#1051 = VERTEX_POINT ( 'NONE', #257 ) ;
#1052 = DIRECTION ( 'NONE',  ( -0.000000000000000000, 0.000000000000000000, 1.000000000000000000 ) ) ;
#1053 = DIRECTION ( 'NONE',  ( -0.000000000000000000, 0.000000000000000000, 1.000000000000000000 ) ) ;
#1054 = TOROIDAL_SURFACE ( 'NONE', #301, 2.050000000000000711, 1.000000000000000000 ) ;
#1055 = DIRECTION ( 'NONE',  ( 0.000000000000000000, 1.000000000000000000, -0.000000000000000000 ) ) ;
#1056 = DIRECTION ( 'NONE',  ( -0.3090169943749469517, 0.9510565162951537532, 1.445602896647336944E-16 ) ) ;
#1057 = EDGE_CURVE ( 'NONE', #224, #1166, #358, .T. ) ;
#1058 = CARTESIAN_POINT ( 'NONE',  ( 0.000000000000000000, 0.000000000000000000, 0.000000000000000000 ) ) ;
#1059 = ORIENTED_EDGE ( 'NONE', *, *, #295, .T. ) ;
#1060 = DIRECTION ( 'NONE',  ( 4.591682424051301533E-16, -6.580674305559775367E-17, 1.000000000000000000 ) ) ;
#1061 = CARTESIAN_POINT ( 'NONE',  ( 8.000000000000001776, -6.000000000000000000, 7.000000000000000000 ) ) ;
#1062 = VERTEX_POINT ( 'NONE', #151 ) ;
#1063 = DIRECTION ( 'NONE',  ( 1.000000000000000000, 0.000000000000000000, 0.000000000000000000 ) ) ;
#1064 = CIRCLE ( 'NONE', #245, 2.049999999999999822 ) ;
#1065 = ADVANCED_FACE ( 'NONE', ( #866 ), #973, .F. ) ;
#1066 =( NAMED_UNIT ( * ) SI_UNIT ( $, .STERADIAN. ) SOLID_ANGLE_UNIT ( ) );
#1067 = ORIENTED_EDGE ( 'NONE', *, *, #670, .T. ) ;
#1068 = CARTESIAN_POINT ( 'NONE',  ( 2.634483842272721156E-12, -6.172325237324652949E-13, 0.000000000000000000 ) ) ;
#1069 = CARTESIAN_POINT ( 'NONE',  ( 2.636779683484746784E-12, -6.175615574477433256E-13, 5.000000000000060396 ) ) ;
#1070 = AXIS2_PLACEMENT_3D ( 'NONE', #294, #701, #186 ) ;
#1071 = DIRECTION ( 'NONE',  ( -0.000000000000000000, -0.000000000000000000, -1.000000000000000000 ) ) ;
#1072 = CIRCLE ( 'NONE', #222, 1.000000000000000000 ) ;
#1073 = DIRECTION ( 'NONE',  ( -0.000000000000000000, -0.000000000000000000, -1.000000000000000000 ) ) ;
#1074 = ORIENTED_EDGE ( 'NONE', *, *, #139, .T. ) ;
#1075 = EDGE_CURVE ( 'NONE', #363, #1094, #377, .T. ) ;
#1076 = ORIENTED_EDGE ( 'NONE', *, *, #479, .T. ) ;
#1077 = DIRECTION ( 'NONE',  ( 1.000000000000000000, 0.000000000000000000, 0.000000000000000000 ) ) ;
#1078 = CARTESIAN_POINT ( 'NONE',  ( -10.05000000000000071, -6.000000000000003553, 6.000000000000000000 ) ) ;
#1079 = EDGE_CURVE ( 'NONE', #98, #1166, #759, .T. ) ;
#1080 = CARTESIAN_POINT ( 'NONE',  ( 8.000000000000000000, 6.000000000000001776, 7.000000000000000000 ) ) ;
#1081 = AXIS2_PLACEMENT_3D ( 'NONE', #1015, #911, #1120 ) ;
#1082 = EDGE_LOOP ( 'NONE', ( #1239, #755, #1223, #46 ) ) ;
#1083 = ADVANCED_FACE ( 'NONE', ( #250 ), #556, .T. ) ;
#1084 = DIRECTION ( 'NONE',  ( 0.000000000000000000, 1.000000000000000000, -0.000000000000000000 ) ) ;
#1085 = CARTESIAN_POINT ( 'NONE',  ( 14.25000000000000355, -19.00000000000000355, 5.000000000000000000 ) ) ;
#1086 = DIRECTION ( 'NONE',  ( -1.000000000000000000, 0.000000000000000000, 0.000000000000000000 ) ) ;
#1087 = ORIENTED_EDGE ( 'NONE', *, *, #558, .F. ) ;
#1088 = SHAPE_DEFINITION_REPRESENTATION ( #904, #360 ) ;
#1089 = ORIENTED_EDGE ( 'NONE', *, *, #62, .T. ) ;
#1090 = DIRECTION ( 'NONE',  ( -0.3090169943749468406, 0.9510565162951537532, 2.365532012695642766E-16 ) ) ;
#1091 = CARTESIAN_POINT ( 'NONE',  ( -15.92647058823530237, 18.99999999999999645, 5.000000000000000000 ) ) ;
#1092 = DIRECTION ( 'NONE',  ( 1.000000000000000000, 0.000000000000000000, -0.000000000000000000 ) ) ;
#1093 = AXIS2_PLACEMENT_3D ( 'NONE', #431, #1140, #308 ) ;
#1094 = VERTEX_POINT ( 'NONE', #872 ) ;
#1095 = ORIENTED_EDGE ( 'NONE', *, *, #1141, .F. ) ;
#1096 = CARTESIAN_POINT ( 'NONE',  ( -0.4635254915597849523, 1.426584774442111625, 0.000000000000000000 ) ) ;
#1097 = DIRECTION ( 'NONE',  ( 1.000000000000000000, 0.000000000000000000, 0.000000000000000000 ) ) ;
#1098 = DIRECTION ( 'NONE',  ( 1.000000000000000000, 0.000000000000000000, 0.000000000000000000 ) ) ;
#1099 = VECTOR ( 'NONE', #188, 1000.000000000000000 ) ;
#1100 = AXIS2_PLACEMENT_3D ( 'NONE', #219, #1046, #123 ) ;
#1101 = EDGE_CURVE ( 'NONE', #253, #141, #818, .T. ) ;
#1102 = TOROIDAL_SURFACE ( 'NONE', #681, 2.050000000000000711, 1.000000000000000000 ) ;
#1103 = MANIFOLD_SOLID_BREP ( 'Ô²½Ç1', #1274 ) ;
#1104 = EDGE_CURVE ( 'NONE', #426, #1305, #437, .T. ) ;
#1105 = ORIENTED_EDGE ( 'NONE', *, *, #744, .T. ) ;
#1106 = DIRECTION ( 'NONE',  ( 1.000000000000000000, 0.000000000000000000, 0.000000000000000000 ) ) ;
#1107 = DIRECTION ( 'NONE',  ( -0.000000000000000000, -0.000000000000000000, -1.000000000000000000 ) ) ;
#1108 = ORIENTED_EDGE ( 'NONE', *, *, #744, .F. ) ;
#1109 = EDGE_CURVE ( 'NONE', #1150, #357, #181, .T. ) ;
#1110 = PRODUCT ( 'sub\X2\8235673a5e955ea7\X0\', 'sub\X2\8235673a5e955ea7\X0\', '', ( #545 ) ) ;
#1111 = DIRECTION ( 'NONE',  ( -1.000000000000000000, 0.000000000000000000, 0.000000000000000000 ) ) ;
#1112 = DIRECTION ( 'NONE',  ( 0.000000000000000000, 0.000000000000000000, -1.000000000000000000 ) ) ;
#1113 = CARTESIAN_POINT ( 'NONE',  ( -10.92647058823530415, 34.00000000000000000, 5.000000000000000000 ) ) ;
#1114 = AXIS2_PLACEMENT_3D ( 'NONE', #112, #223, #705 ) ;
#1115 = CIRCLE ( 'NONE', #247, 1.000000000000000000 ) ;
#1116 = ORIENTED_EDGE ( 'NONE', *, *, #1118, .F. ) ;
#1117 = CARTESIAN_POINT ( 'NONE',  ( 2.650657471292561240E-12, 26.49999999999940314, 5.000000000001440625 ) ) ;
#1118 = EDGE_CURVE ( 'NONE', #65, #588, #715, .T. ) ;
#1119 = EDGE_LOOP ( 'NONE', ( #748, #852, #1283, #29 ) ) ;
#1120 = DIRECTION ( 'NONE',  ( -0.3090169943749470072, 0.9510565162951537532, 2.323290369611796484E-16 ) ) ;
#1121 = AXIS2_PLACEMENT_3D ( 'NONE', #1206, #676, #1098 ) ;
#1122 = EDGE_LOOP ( 'NONE', ( #603, #605 ) ) ;
#1123 = CARTESIAN_POINT ( 'NONE',  ( 9.050000000000000711, 6.000000000000001776, 7.000000000000000000 ) ) ;
#1124 = DIRECTION ( 'NONE',  ( 0.000000000000000000, -0.000000000000000000, -1.000000000000000000 ) ) ;
#1125 = DIRECTION ( 'NONE',  ( -0.000000000000000000, 0.000000000000000000, 1.000000000000000000 ) ) ;
#1126 = EDGE_CURVE ( 'NONE', #654, #337, #159, .T. ) ;
#1127 = VERTEX_POINT ( 'NONE', #1096 ) ;
#1128 = DIRECTION ( 'NONE',  ( 4.591682424051301533E-16, -6.580674305559775367E-17, 1.000000000000000000 ) ) ;
#1129 = VERTEX_POINT ( 'NONE', #1123 ) ;
#1130 = CARTESIAN_POINT ( 'NONE',  ( 2.650657471292561240E-12, 26.49999999999940314, 5.000000000001440625 ) ) ;
#1131 = EDGE_CURVE ( 'NONE', #191, #848, #585, .T. ) ;
#1132 = ORIENTED_EDGE ( 'NONE', *, *, #391, .T. ) ;
#1133 = VECTOR ( 'NONE', #198, 1000.000000000000000 ) ;
#1134 = CARTESIAN_POINT ( 'NONE',  ( 0.8497967345337543721, 23.88459458018772708, 1.900000000001441647 ) ) ;
#1135 = FACE_BOUND ( 'NONE', #919, .T. ) ;
#1136 = DIRECTION ( 'NONE',  ( 0.000000000000000000, 1.000000000000000000, 0.000000000000000000 ) ) ;
#1137 = CARTESIAN_POINT ( 'NONE',  ( 6.950000000000002842, -6.000000000000000000, 7.000000000000000000 ) ) ;
#1138 = EDGE_CURVE ( 'NONE', #767, #126, #695, .T. ) ;
#1139 = ORIENTED_EDGE ( 'NONE', *, *, #379, .F. ) ;
#1140 = DIRECTION ( 'NONE',  ( 0.000000000000000000, -0.000000000000000000, -1.000000000000000000 ) ) ;
#1141 = EDGE_CURVE ( 'NONE', #268, #1023, #1008, .T. ) ;
#1142 = CIRCLE ( 'NONE', #917, 1.049999999999998934 ) ;
#1143 = EDGE_LOOP ( 'NONE', ( #1215, #246, #827, #1059 ) ) ;
#1144 = DIRECTION ( 'NONE',  ( 1.000000000000000000, 0.000000000000000000, 0.000000000000000000 ) ) ;
#1145 = CARTESIAN_POINT ( 'NONE',  ( 10.05000000000000071, -6.000000000000000000, 6.000000000000000000 ) ) ;
#1146 = DIRECTION ( 'NONE',  ( -0.000000000000000000, -0.000000000000000000, -1.000000000000000000 ) ) ;
#1147 = ORIENTED_EDGE ( 'NONE', *, *, #48, .T. ) ;
#1148 = CYLINDRICAL_SURFACE ( 'NONE', #503, 1.050000000000000488 ) ;
#1149 = EDGE_CURVE ( 'NONE', #474, #180, #929, .T. ) ;
#1150 = VERTEX_POINT ( 'NONE', #988 ) ;
#1151 = CARTESIAN_POINT ( 'NONE',  ( 8.000000000000001776, -6.000000000000000000, 6.000000000000000000 ) ) ;
#1152 = CARTESIAN_POINT ( 'NONE',  ( 0.000000000000000000, 0.000000000000000000, 7.000000000000000000 ) ) ;
#1153 = LINE ( 'NONE', #429, #1169 ) ;
#1154 = PRODUCT_DEFINITION_FORMATION_WITH_SPECIFIED_SOURCE ( 'å¯', '', #1110, .NOT_KNOWN. ) ;
#1155 = VERTEX_POINT ( 'NONE', #688 ) ;
#1156 = CARTESIAN_POINT ( 'NONE',  ( 0.000000000000000000, 17.00000000000000000, 20.00000000000000000 ) ) ;
#1157 = AXIS2_PLACEMENT_3D ( 'NONE', #1308, #600, #1014 ) ;
#1158 = ORIENTED_EDGE ( 'NONE', *, *, #339, .F. ) ;
#1159 = DIRECTION ( 'NONE',  ( -0.000000000000000000, 0.000000000000000000, 1.000000000000000000 ) ) ;
#1160 = CIRCLE ( 'NONE', #630, 1.499999999999997780 ) ;
#1161 = ADVANCED_FACE ( 'NONE', ( #477 ), #387, .F. ) ;
#1162 = CARTESIAN_POINT ( 'NONE',  ( -7.999999999999998224, -6.000000000000003553, 5.000000000000000000 ) ) ;
#1163 = ORIENTED_EDGE ( 'NONE', *, *, #566, .T. ) ;
#1164 = PLANE ( 'NONE',  #1213 ) ;
#1165 = AXIS2_PLACEMENT_3D ( 'NONE', #1311, #380, #1335 ) ;
#1166 = VERTEX_POINT ( 'NONE', #1221 ) ;
#1167 = CARTESIAN_POINT ( 'NONE',  ( 0.8652475842524863792, -2.662958245627045528, 5.000000000000059508 ) ) ;
#1168 = CARTESIAN_POINT ( 'NONE',  ( -6.949999999999999289, 6.000000000000001776, 6.000000000000000000 ) ) ;
#1169 = VECTOR ( 'NONE', #325, 1000.000000000000000 ) ;
#1170 = CARTESIAN_POINT ( 'NONE',  ( 8.000000000000001776, -6.000000000000000000, 6.000000000000000000 ) ) ;
#1171 = DIRECTION ( 'NONE',  ( 1.000000000000000000, 0.000000000000000000, 0.000000000000000000 ) ) ;
#1172 = EDGE_CURVE ( 'NONE', #959, #1333, #1325, .T. ) ;
#1173 = ORIENTED_EDGE ( 'NONE', *, *, #183, .F. ) ;
#1174 = LINE ( 'NONE', #1262, #258 ) ;
#1175 = DIRECTION ( 'NONE',  ( -1.000000000000000000, 0.000000000000000000, 0.000000000000000000 ) ) ;
#1176 = VERTEX_POINT ( 'NONE', #1228 ) ;
#1177 = LINE ( 'NONE', #260, #611 ) ;
#1178 = EDGE_CURVE ( 'NONE', #51, #500, #1207, .T. ) ;
#1179 = EDGE_LOOP ( 'NONE', ( #386, #1301 ) ) ;
#1180 = EDGE_CURVE ( 'NONE', #719, #171, #101, .T. ) ;
#1181 = EDGE_LOOP ( 'NONE', ( #382, #307 ) ) ;
#1182 = DIRECTION ( 'NONE',  ( 4.591682424051300546E-16, -6.580674305559801251E-17, 1.000000000000000000 ) ) ;
#1183 = DIRECTION ( 'NONE',  ( 4.591682424051301533E-16, -6.580674305559775367E-17, 1.000000000000000000 ) ) ;
#1184 = AXIS2_PLACEMENT_3D ( 'NONE', #720, #1128, #1267 ) ;
#1185 = CARTESIAN_POINT ( 'NONE',  ( 8.000000000000000000, 6.000000000000001776, 7.000000000000000000 ) ) ;
#1186 = AXIS2_PLACEMENT_3D ( 'NONE', #956, #53, #575 ) ;
#1187 = DIRECTION ( 'NONE',  ( 1.000000000000000000, 1.089207722681651315E-16, 0.000000000000000000 ) ) ;
#1188 = ORIENTED_EDGE ( 'NONE', *, *, #991, .T. ) ;
#1189 = EDGE_CURVE ( 'NONE', #1195, #1155, #353, .T. ) ;
#1190 = ORIENTED_EDGE ( 'NONE', *, *, #655, .F. ) ;
#1191 = DIRECTION ( 'NONE',  ( -0.3090169943749468406, 0.9510565162951537532, 3.154042683594190683E-16 ) ) ;
#1192 = AXIS2_PLACEMENT_3D ( 'NONE', #374, #775, #882 ) ;
#1193 = CARTESIAN_POINT ( 'NONE',  ( -10.92647058823530415, 34.00000000000000000, 5.000000000000000000 ) ) ;
#1194 = AXIS2_PLACEMENT_3D ( 'NONE', #347, #939, #249 ) ;
#1195 = VERTEX_POINT ( 'NONE', #1332 ) ;
#1196 = EDGE_LOOP ( 'NONE', ( #1295, #113, #546, #857 ) ) ;
#1197 = CARTESIAN_POINT ( 'NONE',  ( 2.636779683484746784E-12, -6.175615574477433256E-13, 5.000000000000060396 ) ) ;
#1198 = EDGE_CURVE ( 'NONE', #1279, #268, #277, .T. ) ;
#1199 = DIRECTION ( 'NONE',  ( -0.000000000000000000, 0.000000000000000000, 1.000000000000000000 ) ) ;
#1200 = LINE ( 'NONE', #559, #826 ) ;
#1201 = ORIENTED_EDGE ( 'NONE', *, *, #306, .T. ) ;
#1202 = ORIENTED_EDGE ( 'NONE', *, *, #709, .T. ) ;
#1203 = SURFACE_STYLE_USAGE ( .BOTH. , #1302 ) ;
#1204 = DIRECTION ( 'NONE',  ( -0.000000000000000000, -0.000000000000000000, -1.000000000000000000 ) ) ;
#1205 = ADVANCED_FACE ( 'NONE', ( #483 ), #1026, .T. ) ;
#1206 = CARTESIAN_POINT ( 'NONE',  ( -8.000000000000000000, 6.000000000000001776, 6.000000000000000000 ) ) ;
#1207 = CIRCLE ( 'NONE', #1070, 1.500000000000001332 ) ;
#1208 = ORIENTED_EDGE ( 'NONE', *, *, #824, .F. ) ;
#1209 = EDGE_LOOP ( 'NONE', ( #672, #1201 ) ) ;
#1210 = DIRECTION ( 'NONE',  ( -0.3090169943749469517, 0.9510565162951537532, 0.000000000000000000 ) ) ;
#1211 = CARTESIAN_POINT ( 'NONE',  ( 8.000000000000001776, -6.000000000000000000, 6.000000000000000000 ) ) ;
#1212 = LINE ( 'NONE', #100, #1099 ) ;
#1213 = AXIS2_PLACEMENT_3D ( 'NONE', #647, #1273, #229 ) ;
#1214 = VECTOR ( 'NONE', #285, 1000.000000000000000 ) ;
#1215 = ORIENTED_EDGE ( 'NONE', *, *, #1079, .F. ) ;
#1216 = DIRECTION ( 'NONE',  ( 4.591682424051301533E-16, -6.580674305559775367E-17, 1.000000000000000000 ) ) ;
#1217 = DIRECTION ( 'NONE',  ( 1.000000000000000000, 0.000000000000000000, 0.000000000000000000 ) ) ;
#1218 = CARTESIAN_POINT ( 'NONE',  ( 6.949999999999999289, 6.000000000000001776, 7.000000000000000000 ) ) ;
#1219 = ADVANCED_FACE ( 'NONE', ( #416 ), #505, .F. ) ;
#1220 = ORIENTED_EDGE ( 'NONE', *, *, #173, .T. ) ;
#1221 = CARTESIAN_POINT ( 'NONE',  ( 14.25000000000000000, 17.00000000000000000, 5.000000000000000000 ) ) ;
#1222 = EDGE_CURVE ( 'NONE', #1176, #417, #482, .T. ) ;
#1223 = ORIENTED_EDGE ( 'NONE', *, *, #1109, .T. ) ;
#1224 = CARTESIAN_POINT ( 'NONE',  ( 0.000000000000000000, 34.00000000000000000, 5.000000000000000000 ) ) ;
#1225 = CARTESIAN_POINT ( 'NONE',  ( 8.000000000000000000, 6.000000000000001776, 6.000000000000000000 ) ) ;
#1226 = VECTOR ( 'NONE', #1285, 1000.000000000000000 ) ;
#1227 = ORIENTED_EDGE ( 'NONE', *, *, #670, .F. ) ;
#1228 = CARTESIAN_POINT ( 'NONE',  ( 5.950000000000003730, -6.000000000000000000, 5.000000000000000000 ) ) ;
#1229 = ORIENTED_EDGE ( 'NONE', *, *, #33, .F. ) ;
#1230 = DIRECTION ( 'NONE',  ( -0.000000000000000000, -0.000000000000000000, -1.000000000000000000 ) ) ;
#1231 = LINE ( 'NONE', #1238, #355 ) ;
#1232 = VECTOR ( 'NONE', #963, 1000.000000000000000 ) ;
#1233 = EDGE_LOOP ( 'NONE', ( #63, #435, #609 ) ) ;
#1234 = CARTESIAN_POINT ( 'NONE',  ( 10.92647058823530060, 34.00000000000000000, 5.000000000000000000 ) ) ;
#1235 = VERTEX_POINT ( 'NONE', #1134 ) ;
#1236 = CARTESIAN_POINT ( 'NONE',  ( -10.92647058823530060, 18.99999999999999645, 5.000000000000000000 ) ) ;
#1237 = ADVANCED_FACE ( 'NONE', ( #712, #5 ), #19, .F. ) ;
#1238 = CARTESIAN_POINT ( 'NONE',  ( -2.069494673095137153E-15, 18.99999999999999645, 20.00000000000000000 ) ) ;
#1239 = ORIENTED_EDGE ( 'NONE', *, *, #173, .F. ) ;
#1240 = FACE_BOUND ( 'NONE', #302, .T. ) ;
#1241 = EDGE_LOOP ( 'NONE', ( #406, #32 ) ) ;
#1242 = LINE ( 'NONE', #309, #895 ) ;
#1243 = DIRECTION ( 'NONE',  ( 1.000000000000000000, 0.000000000000000000, 0.000000000000000000 ) ) ;
#1244 = EDGE_CURVE ( 'NONE', #256, #1261, #1018, .T. ) ;
#1245 = VECTOR ( 'NONE', #1084, 1000.000000000000000 ) ;
#1246 = VECTOR ( 'NONE', #428, 1000.000000000000000 ) ;
#1247 = CARTESIAN_POINT ( 'NONE',  ( -1.426584774440089909, -0.4635254915630257488, 1.900000000000061418 ) ) ;
#1248 = EDGE_LOOP ( 'NONE', ( #891, #841 ) ) ;
#1249 = DIRECTION ( 'NONE',  ( -1.000000000000000000, -1.089207722681651315E-16, 0.000000000000000000 ) ) ;
#1250 = CARTESIAN_POINT ( 'NONE',  ( -10.92647058823530415, 34.00000000000000000, 5.000000000000000000 ) ) ;
#1251 = FACE_OUTER_BOUND ( 'NONE', #221, .T. ) ;
#1252 = AXIS2_PLACEMENT_3D ( 'NONE', #194, #819, #399 ) ;
#1253 = DIRECTION ( 'NONE',  ( -0.000000000000000000, -0.000000000000000000, 1.000000000000000000 ) ) ;
#1254 = AXIS2_PLACEMENT_3D ( 'NONE', #521, #1124, #187 ) ;
#1255 = ORIENTED_EDGE ( 'NONE', *, *, #1280, .T. ) ;
#1256 = CARTESIAN_POINT ( 'NONE',  ( 10.05000000000000071, 6.000000000000001776, 6.000000000000000000 ) ) ;
#1257 = PLANE ( 'NONE',  #524 ) ;
#1258 = CARTESIAN_POINT ( 'NONE',  ( -14.25000000000000000, -19.00000000000000355, 20.00000000000000000 ) ) ;
#1259 = EDGE_CURVE ( 'NONE', #959, #490, #825, .T. ) ;
#1260 = CARTESIAN_POINT ( 'NONE',  ( -10.92647058823530060, 18.99999999999999645, 10.00000000000000000 ) ) ;
#1261 = VERTEX_POINT ( 'NONE', #1049 ) ;
#1262 = CARTESIAN_POINT ( 'NONE',  ( 0.8652475842524876004, -2.662958245627046860, 5.000000000000059508 ) ) ;
#1263 = EDGE_CURVE ( 'NONE', #256, #1279, #817, .T. ) ;
#1264 = FACE_OUTER_BOUND ( 'NONE', #444, .T. ) ;
#1265 = ORIENTED_EDGE ( 'NONE', *, *, #991, .F. ) ;
#1266 = FACE_BOUND ( 'NONE', #469, .T. ) ;
#1267 = DIRECTION ( 'NONE',  ( -0.3090169943749466186, 0.9510565162951538642, 0.000000000000000000 ) ) ;
#1268 = AXIS2_PLACEMENT_3D ( 'NONE', #321, #604, #192 ) ;
#1269 = ORIENTED_EDGE ( 'NONE', *, *, #1178, .T. ) ;
#1270 = DIRECTION ( 'NONE',  ( 1.000000000000000000, 0.000000000000000000, 0.000000000000000000 ) ) ;
#1271 = EDGE_CURVE ( 'NONE', #654, #134, #116, .T. ) ;
#1272 = ORIENTED_EDGE ( 'NONE', *, *, #238, .F. ) ;
#1273 = DIRECTION ( 'NONE',  ( -0.000000000000000000, 0.000000000000000000, 1.000000000000000000 ) ) ;
#1274 = CLOSED_SHELL ( 'NONE', ( #265, #1065, #1047, #228, #457, #288, #780, #475, #986, #1287, #40, #862, #450, #534, #239, #641, #754, #9, #282, #1024, #631, #953, #806, #544, #1205, #411, #404, #608, #206, #1083, #909, #87, #190, #886, #823, #516, #6, #850, #689, #466, #1219, #1237, #215, #1161, #1300, #677 ) ) ;
#1275 = EDGE_LOOP ( 'NONE', ( #504, #1039, #120, #843 ) ) ;
#1276 = PLANE ( 'NONE',  #1194 ) ;
#1277 = CARTESIAN_POINT ( 'NONE',  ( 2.650657471292561240E-12, 26.49999999999940314, 1.900000000001442313 ) ) ;
#1278 = AXIS2_PLACEMENT_3D ( 'NONE', #296, #702, #114 ) ;
#1279 = VERTEX_POINT ( 'NONE', #1260 ) ;
#1280 = EDGE_CURVE ( 'NONE', #624, #52, #726, .T. ) ;
#1281 = PLANE ( 'NONE',  #148 ) ;
#1282 = VERTEX_POINT ( 'NONE', #923 ) ;
#1283 = ORIENTED_EDGE ( 'NONE', *, *, #328, .F. ) ;
#1284 = FACE_BOUND ( 'NONE', #1122, .T. ) ;
#1285 = DIRECTION ( 'NONE',  ( -0.000000000000000000, -0.000000000000000000, -1.000000000000000000 ) ) ;
#1286 = CARTESIAN_POINT ( 'NONE',  ( -9.050000000000000711, 6.000000000000001776, 7.000000000000000000 ) ) ;
#1287 = ADVANCED_FACE ( 'NONE', ( #127 ), #1148, .T. ) ;
#1288 = ORIENTED_EDGE ( 'NONE', *, *, #486, .T. ) ;
#1289 = VERTEX_POINT ( 'NONE', #103 ) ;
#1290 = DIRECTION ( 'NONE',  ( -0.3090169943749469517, 0.9510565162951537532, 0.000000000000000000 ) ) ;
#1291 = VECTOR ( 'NONE', #901, 1000.000000000000000 ) ;
#1292 = CARTESIAN_POINT ( 'NONE',  ( -8.000000000000000000, 6.000000000000001776, 6.000000000000000000 ) ) ;
#1293 = EDGE_CURVE ( 'NONE', #126, #767, #550, .T. ) ;
#1294 = DIRECTION ( 'NONE',  ( 0.000000000000000000, 0.000000000000000000, 1.000000000000000000 ) ) ;
#1295 = ORIENTED_EDGE ( 'NONE', *, *, #693, .F. ) ;
#1296 = DIRECTION ( 'NONE',  ( 4.591682424051300546E-16, -6.580674305559801251E-17, 1.000000000000000000 ) ) ;
#1297 = DIRECTION ( 'NONE',  ( 4.591682424051301533E-16, -6.580674305559775367E-17, 1.000000000000000000 ) ) ;
#1298 = CARTESIAN_POINT ( 'NONE',  ( 6.950000000000002842, -6.000000000000000000, 7.000000000000000000 ) ) ;
#1299 = AXIS2_PLACEMENT_3D ( 'NONE', #42, #241, #343 ) ;
#1300 = ADVANCED_FACE ( 'NONE', ( #1240, #623 ), #425, .F. ) ;
#1301 = ORIENTED_EDGE ( 'NONE', *, *, #273, .T. ) ;
#1302 = SURFACE_SIDE_STYLE ('',( #880 ) ) ;
#1303 = CARTESIAN_POINT ( 'NONE',  ( -9.049999999999998934, -6.000000000000003553, 7.000000000000000000 ) ) ;
#1304 = CYLINDRICAL_SURFACE ( 'NONE', #560, 1.050000000000000488 ) ;
#1305 = VERTEX_POINT ( 'NONE', #119 ) ;
#1306 = AXIS2_PLACEMENT_3D ( 'NONE', #1058, #1294, #354 ) ;
#1307 = ORIENTED_EDGE ( 'NONE', *, *, #1310, .T. ) ;
#1308 = CARTESIAN_POINT ( 'NONE',  ( -8.000000000000000000, 6.000000000000001776, 7.000000000000000000 ) ) ;
#1309 = CARTESIAN_POINT ( 'NONE',  ( 2.069494673095137942E-15, -19.00000000000000355, 0.000000000000000000 ) ) ;
#1310 = EDGE_CURVE ( 'NONE', #624, #224, #11, .T. ) ;
#1311 = CARTESIAN_POINT ( 'NONE',  ( -2.069494673095137153E-15, 18.99999999999999645, 5.000000000000000000 ) ) ;
#1312 = ORIENTED_EDGE ( 'NONE', *, *, #1316, .F. ) ;
#1313 = CARTESIAN_POINT ( 'NONE',  ( -15.92647058823530237, 18.99999999999999645, 20.00000000000000000 ) ) ;
#1314 = PLANE ( 'NONE',  #1165 ) ;
#1315 = AXIS2_PLACEMENT_3D ( 'NONE', #1292, #156, #975 ) ;
#1316 = EDGE_CURVE ( 'NONE', #141, #637, #140, .T. ) ;
#1317 = CIRCLE ( 'NONE', #167, 1.050000000000000488 ) ;
#1318 = EDGE_CURVE ( 'NONE', #337, #157, #1064, .T. ) ;
#1319 = EDGE_LOOP ( 'NONE', ( #45, #326, #863, #539 ) ) ;
#1320 = DIRECTION ( 'NONE',  ( -1.000000000000000000, 0.000000000000000000, 0.000000000000000000 ) ) ;
#1321 = DIRECTION ( 'NONE',  ( 1.000000000000000000, 1.089207722681651315E-16, 0.000000000000000000 ) ) ;
#1322 = DIRECTION ( 'NONE',  ( -0.000000000000000000, 0.3162277660168378857, 0.9486832980505138790 ) ) ;
#1323 = EDGE_CURVE ( 'NONE', #1150, #711, #946, .T. ) ;
#1324 = ORIENTED_EDGE ( 'NONE', *, *, #1323, .T. ) ;
#1325 = LINE ( 'NONE', #393, #907 ) ;
#1326 = EDGE_LOOP ( 'NONE', ( #739, #329 ) ) ;
#1327 = FACE_OUTER_BOUND ( 'NONE', #834, .T. ) ;
#1328 = STYLED_ITEM ( 'NONE', ( #805 ), #1103 ) ;
#1329 = CIRCLE ( 'NONE', #161, 2.799999999999998490 ) ;
#1330 = ORIENTED_EDGE ( 'NONE', *, *, #591, .T. ) ;
#1331 = EDGE_CURVE ( 'NONE', #624, #164, #864, .T. ) ;
#1332 = CARTESIAN_POINT ( 'NONE',  ( -0.4635254915597843972, 1.426584774442115400, 1.900000000000061640 ) ) ;
#1333 = VERTEX_POINT ( 'NONE', #749 ) ;
#1334 = PLANE ( 'NONE',  #3 ) ;
#1335 = DIRECTION ( 'NONE',  ( -1.000000000000000000, -1.089207722681651192E-16, 0.000000000000000000 ) ) ;
ENDSEC;
END-ISO-10303-21;
