ISO-10303-21;
HEADER;
FILE_DESCRIPTION (( 'STEP AP214' ),
    '1' );
FILE_NAME ('sub¶æ»úµ××ù.STEP',
    '2026-08-29T22:11:53',
    ( '' ),
    ( '' ),
    'SwSTEP 2.0',
    'SolidWorks 2023',
    '' );
FILE_SCHEMA (( 'AUTOMOTIVE_DESIGN' ));
ENDSEC;

DATA;
#1 = DIRECTION ( 'NONE',  ( -0.000000000000000000, 0.000000000000000000, 1.000000000000000000 ) ) ;
#2 = VERTEX_POINT ( 'NONE', #1001 ) ;
#3 = DIRECTION ( 'NONE',  ( 0.9510565162951536422, 0.3090169943749474513, -1.239088197126292050E-15 ) ) ;
#4 = CIRCLE ( 'NONE', #565, 2.050000000000000711 ) ;
#5 = CIRCLE ( 'NONE', #911, 1.500000000000001332 ) ;
#6 = EDGE_CURVE ( 'NONE', #214, #1292, #838, .T. ) ;
#7 = ORIENTED_EDGE ( 'NONE', *, *, #567, .F. ) ;
#8 = DIRECTION ( 'NONE',  ( 1.000000000000000000, 0.000000000000000000, 0.000000000000000000 ) ) ;
#9 = CARTESIAN_POINT ( 'NONE',  ( 10.92647058823530060, 18.99999999999999645, 10.00000000000000000 ) ) ;
#10 = ORIENTED_EDGE ( 'NONE', *, *, #760, .F. ) ;
#11 = CARTESIAN_POINT ( 'NONE',  ( -3.469446951953614189E-15, 1.387778780781445676E-14, 4.999999999998679279 ) ) ;
#12 = FACE_OUTER_BOUND ( 'NONE', #1046, .T. ) ;
#13 = DIRECTION ( 'NONE',  ( 1.000000000000000000, 0.000000000000000000, 0.000000000000000000 ) ) ;
#14 = ORIENTED_EDGE ( 'NONE', *, *, #771, .F. ) ;
#15 = EDGE_CURVE ( 'NONE', #708, #922, #367, .T. ) ;
#16 = PLANE ( 'NONE',  #282 ) ;
#17 = FACE_OUTER_BOUND ( 'NONE', #622, .T. ) ;
#18 = VECTOR ( 'NONE', #412, 1000.000000000000000 ) ;
#19 = DIRECTION ( 'NONE',  ( -0.000000000000000000, 0.000000000000000000, 1.000000000000000000 ) ) ;
#20 = DIRECTION ( 'NONE',  ( 0.9510565162951535312, 0.3090169943749472847, -1.261617073437676470E-15 ) ) ;
#21 = ORIENTED_EDGE ( 'NONE', *, *, #135, .F. ) ;
#22 = DIRECTION ( 'NONE',  ( 1.000000000000000000, 0.000000000000000000, 0.000000000000000000 ) ) ;
#23 = CYLINDRICAL_SURFACE ( 'NONE', #1144, 1.500000000000001998 ) ;
#24 = ADVANCED_FACE ( 'NONE', ( #1180 ), #16, .T. ) ;
#25 = STYLED_ITEM ( 'NONE', ( #1047 ), #44 ) ;
#26 = EDGE_CURVE ( 'NONE', #481, #1005, #958, .T. ) ;
#27 = VECTOR ( 'NONE', #642, 1000.000000000000000 ) ;
#28 = VECTOR ( 'NONE', #897, 1000.000000000000000 ) ;
#29 = FACE_OUTER_BOUND ( 'NONE', #777, .T. ) ;
#30 = DIRECTION ( 'NONE',  ( -0.000000000000000000, -0.000000000000000000, -1.000000000000000000 ) ) ;
#31 = ORIENTED_EDGE ( 'NONE', *, *, #234, .T. ) ;
#32 = CARTESIAN_POINT ( 'NONE',  ( 15.92647058823530237, 0.000000000000000000, 0.000000000000000000 ) ) ;
#33 = EDGE_CURVE ( 'NONE', #183, #488, #659, .T. ) ;
#34 =( NAMED_UNIT ( * ) SI_UNIT ( $, .STERADIAN. ) SOLID_ANGLE_UNIT ( ) );
#35 = VERTEX_POINT ( 'NONE', #940 ) ;
#36 = DIRECTION ( 'NONE',  ( 1.406398393993556297E-15, -3.937411383316627789E-16, 1.000000000000000000 ) ) ;
#37 = ORIENTED_EDGE ( 'NONE', *, *, #246, .F. ) ;
#38 = CIRCLE ( 'NONE', #941, 2.049999999999999822 ) ;
#39 = EDGE_CURVE ( 'NONE', #786, #379, #347, .T. ) ;
#40 = CARTESIAN_POINT ( 'NONE',  ( -2.090977977778216606E-14, 26.50000000000000000, 0.000000000000000000 ) ) ;
#41 = FACE_OUTER_BOUND ( 'NONE', #1091, .T. ) ;
#42 = ORIENTED_EDGE ( 'NONE', *, *, #1333, .T. ) ;
#43 = CARTESIAN_POINT ( 'NONE',  ( 15.92647058823530593, 19.00000000000000355, 10.00000000000000000 ) ) ;
#44 = MANIFOLD_SOLID_BREP ( 'Ô²½Ç1', #90 ) ;
#45 = AXIS2_PLACEMENT_3D ( 'NONE', #75, #384, #892 ) ;
#46 = EDGE_CURVE ( 'NONE', #663, #1024, #121, .T. ) ;
#47 = CARTESIAN_POINT ( 'NONE',  ( -6.949999999999999289, 6.000000000000001776, 6.000000000000000000 ) ) ;
#48 = EDGE_LOOP ( 'NONE', ( #1153, #649 ) ) ;
#49 = FACE_OUTER_BOUND ( 'NONE', #579, .T. ) ;
#50 = DIRECTION ( 'NONE',  ( 1.406398393993557086E-15, -3.937411383316592783E-16, 1.000000000000000000 ) ) ;
#51 = CARTESIAN_POINT ( 'NONE',  ( 2.615405419811661414, 27.34979673453110038, 4.999999999999945821 ) ) ;
#52 = CARTESIAN_POINT ( 'NONE',  ( -14.25000000000000000, 17.00000000000000000, 5.000000000000000000 ) ) ;
#53 = CARTESIAN_POINT ( 'NONE',  ( 6.949999999999999289, 6.000000000000001776, 6.000000000000000000 ) ) ;
#54 = DIRECTION ( 'NONE',  ( 1.000000000000000000, 0.000000000000000000, 0.000000000000000000 ) ) ;
#55 = ORIENTED_EDGE ( 'NONE', *, *, #15, .F. ) ;
#56 = DIRECTION ( 'NONE',  ( -0.000000000000000000, 0.000000000000000000, 1.000000000000000000 ) ) ;
#57 = CIRCLE ( 'NONE', #144, 1.050000000000000488 ) ;
#58 = VERTEX_POINT ( 'NONE', #541 ) ;
#59 = VECTOR ( 'NONE', #314, 1000.000000000000000 ) ;
#60 = CYLINDRICAL_SURFACE ( 'NONE', #45, 1.050000000000000488 ) ;
#61 = LINE ( 'NONE', #392, #1161 ) ;
#62 = ADVANCED_FACE ( 'NONE', ( #635 ), #1066, .F. ) ;
#63 = ORIENTED_EDGE ( 'NONE', *, *, #33, .F. ) ;
#64 = AXIS2_PLACEMENT_3D ( 'NONE', #1189, #975, #364 ) ;
#65 = LINE ( 'NONE', #374, #1296 ) ;
#66 = ORIENTED_EDGE ( 'NONE', *, *, #386, .F. ) ;
#67 = CARTESIAN_POINT ( 'NONE',  ( -10.05000000000000071, 6.000000000000001776, 5.000000000000000000 ) ) ;
#68 = CARTESIAN_POINT ( 'NONE',  ( 0.000000000000000000, 34.00000000000000000, 5.000000000000000000 ) ) ;
#69 = CIRCLE ( 'NONE', #94, 2.049999999999998046 ) ;
#70 = ORIENTED_EDGE ( 'NONE', *, *, #974, .F. ) ;
#71 = ORIENTED_EDGE ( 'NONE', *, *, #386, .T. ) ;
#72 = EDGE_CURVE ( 'NONE', #1003, #1121, #741, .T. ) ;
#73 = DIRECTION ( 'NONE',  ( -0.000000000000000000, -0.000000000000000000, -1.000000000000000000 ) ) ;
#74 = ORIENTED_EDGE ( 'NONE', *, *, #72, .F. ) ;
#75 = CARTESIAN_POINT ( 'NONE',  ( -7.999999999999998224, -6.000000000000003553, 7.000000000000000000 ) ) ;
#76 = LINE ( 'NONE', #694, #211 ) ;
#77 = ORIENTED_EDGE ( 'NONE', *, *, #1033, .F. ) ;
#78 = ADVANCED_FACE ( 'NONE', ( #534 ), #259, .F. ) ;
#79 = ORIENTED_EDGE ( 'NONE', *, *, #655, .F. ) ;
#80 = VECTOR ( 'NONE', #357, 1000.000000000000000 ) ;
#81 = CARTESIAN_POINT ( 'NONE',  ( 15.92647058823530237, 0.000000000000000000, 5.000000000000000000 ) ) ;
#82 = DIRECTION ( 'NONE',  ( 0.000000000000000000, 0.000000000000000000, -1.000000000000000000 ) ) ;
#83 = VECTOR ( 'NONE', #170, 1000.000000000000000 ) ;
#84 = EDGE_CURVE ( 'NONE', #786, #682, #237, .T. ) ;
#85 = EDGE_LOOP ( 'NONE', ( #21, #1088, #77, #309 ) ) ;
#86 = DIRECTION ( 'NONE',  ( 0.000000000000000000, -0.000000000000000000, -1.000000000000000000 ) ) ;
#87 = ORIENTED_EDGE ( 'NONE', *, *, #1182, .F. ) ;
#88 = EDGE_CURVE ( 'NONE', #1027, #987, #243, .T. ) ;
#89 = DIRECTION ( 'NONE',  ( 1.000000000000000000, 0.000000000000000000, 0.000000000000000000 ) ) ;
#90 = CLOSED_SHELL ( 'NONE', ( #559, #62, #1315, #1041, #1263, #1089, #1131, #961, #358, #219, #931, #287, #920, #778, #637, #375, #1113, #852, #184, #460, #1004, #845, #24, #669, #1264, #1202, #1277, #430, #628, #1298, #218, #1109, #1074, #482, #383, #807, #78, #361, #523, #492, #322, #202, #1068, #527, #271, #1177 ) ) ;
#91 = DIRECTION ( 'NONE',  ( -0.000000000000000000, -0.000000000000000000, -1.000000000000000000 ) ) ;
#92 = AXIS2_PLACEMENT_3D ( 'NONE', #726, #506, #916 ) ;
#93 = FACE_BOUND ( 'NONE', #596, .T. ) ;
#94 = AXIS2_PLACEMENT_3D ( 'NONE', #956, #137, #553 ) ;
#95 = LINE ( 'NONE', #483, #284 ) ;
#96 = ORIENTED_EDGE ( 'NONE', *, *, #1138, .T. ) ;
#97 = CYLINDRICAL_SURFACE ( 'NONE', #738, 1.050000000000000488 ) ;
#98 = CARTESIAN_POINT ( 'NONE',  ( 14.25000000000000000, 0.000000000000000000, 20.00000000000000000 ) ) ;
#99 = ORIENTED_EDGE ( 'NONE', *, *, #605, .T. ) ;
#100 = DIRECTION ( 'NONE',  ( 1.000000000000000000, 0.000000000000000000, 0.000000000000000000 ) ) ;
#101 = CARTESIAN_POINT ( 'NONE',  ( 10.05000000000000071, 6.000000000000001776, 5.000000000000000000 ) ) ;
#102 = ORIENTED_EDGE ( 'NONE', *, *, #769, .F. ) ;
#103 = CARTESIAN_POINT ( 'NONE',  ( -3.469446951953614189E-15, 1.387778780781445676E-14, 4.999999999998679279 ) ) ;
#104 = CARTESIAN_POINT ( 'NONE',  ( -3.469446951953614189E-15, 1.387778780781445676E-14, 4.999999999998679279 ) ) ;
#105 = VERTEX_POINT ( 'NONE', #965 ) ;
#106 = DIRECTION ( 'NONE',  ( 0.9510565162951536422, 0.3090169943749474513, -1.239088197126292050E-15 ) ) ;
#107 = CIRCLE ( 'NONE', #341, 2.050000000000000711 ) ;
#108 = ORIENTED_EDGE ( 'NONE', *, *, #641, .F. ) ;
#109 = FACE_OUTER_BOUND ( 'NONE', #912, .T. ) ;
#110 = LINE ( 'NONE', #1029, #463 ) ;
#111 = ORIENTED_EDGE ( 'NONE', *, *, #789, .T. ) ;
#112 = DIRECTION ( 'NONE',  ( 1.000000000000000000, -0.000000000000000000, 0.000000000000000000 ) ) ;
#113 = VECTOR ( 'NONE', #1192, 1000.000000000000000 ) ;
#114 = LINE ( 'NONE', #337, #954 ) ;
#115 = ORIENTED_EDGE ( 'NONE', *, *, #421, .T. ) ;
#116 = DIRECTION ( 'NONE',  ( 1.406398393993557086E-15, -3.937411383316592783E-16, 1.000000000000000000 ) ) ;
#117 = LINE ( 'NONE', #546, #764 ) ;
#118 = UNCERTAINTY_MEASURE_WITH_UNIT (LENGTH_MEASURE( 1.000000000000000082E-05 ), #1164, 'distance_accuracy_value', 'NONE');
#119 = LINE ( 'NONE', #739, #602 ) ;
#120 = ORIENTED_EDGE ( 'NONE', *, *, #453, .F. ) ;
#121 = LINE ( 'NONE', #227, #150 ) ;
#122 = CARTESIAN_POINT ( 'NONE',  ( 8.000000000000000000, 6.000000000000001776, 7.000000000000000000 ) ) ;
#123 = EDGE_CURVE ( 'NONE', #214, #351, #445, .T. ) ;
#124 = VECTOR ( 'NONE', #1321, 1000.000000000000000 ) ;
#125 = AXIS2_PLACEMENT_3D ( 'NONE', #627, #418, #1250 ) ;
#126 = DIRECTION ( 'NONE',  ( -0.000000000000000000, 0.000000000000000000, 1.000000000000000000 ) ) ;
#127 = CARTESIAN_POINT ( 'NONE',  ( 15.92647058823530593, 34.00000000000000000, 5.000000000000000000 ) ) ;
#128 = EDGE_LOOP ( 'NONE', ( #462, #1325, #716, #1328 ) ) ;
#129 = CARTESIAN_POINT ( 'NONE',  ( -10.05000000000000071, -6.000000000000003553, 6.000000000000000000 ) ) ;
#130 = CARTESIAN_POINT ( 'NONE',  ( 0.000000000000000000, 0.000000000000000000, 5.000000000000000000 ) ) ;
#131 = VECTOR ( 'NONE', #352, 1000.000000000000000 ) ;
#132 = DIRECTION ( 'NONE',  ( 1.000000000000000000, 0.000000000000000000, 0.000000000000000000 ) ) ;
#133 = ORIENTED_EDGE ( 'NONE', *, *, #1162, .T. ) ;
#134 = FACE_OUTER_BOUND ( 'NONE', #178, .T. ) ;
#135 = EDGE_CURVE ( 'NONE', #1077, #945, #1105, .T. ) ;
#136 = VERTEX_POINT ( 'NONE', #477 ) ;
#137 = DIRECTION ( 'NONE',  ( 0.000000000000000000, -0.000000000000000000, -1.000000000000000000 ) ) ;
#138 = CARTESIAN_POINT ( 'NONE',  ( 8.000000000000001776, -6.000000000000000000, 7.000000000000000000 ) ) ;
#139 = ORIENTED_EDGE ( 'NONE', *, *, #1241, .T. ) ;
#140 = CARTESIAN_POINT ( 'NONE',  ( 10.92647058823530060, 18.99999999999999645, 10.00000000000000000 ) ) ;
#141 = DIRECTION ( 'NONE',  ( -0.000000000000000000, -0.000000000000000000, -1.000000000000000000 ) ) ;
#142 = EDGE_LOOP ( 'NONE', ( #1290, #175, #882, #582 ) ) ;
#143 = EDGE_CURVE ( 'NONE', #708, #772, #1017, .T. ) ;
#144 = AXIS2_PLACEMENT_3D ( 'NONE', #1272, #948, #753 ) ;
#145 = EDGE_CURVE ( 'NONE', #480, #804, #1237, .T. ) ;
#146 = DIRECTION ( 'NONE',  ( -1.000000000000000000, -1.089207722681651315E-16, 0.000000000000000000 ) ) ;
#147 = ORIENTED_EDGE ( 'NONE', *, *, #1191, .T. ) ;
#148 = DIRECTION ( 'NONE',  ( 0.000000000000000000, -0.000000000000000000, -1.000000000000000000 ) ) ;
#149 = LINE ( 'NONE', #971, #166 ) ;
#150 = VECTOR ( 'NONE', #327, 1000.000000000000000 ) ;
#151 = AXIS2_PLACEMENT_3D ( 'NONE', #342, #835, #648 ) ;
#152 = CARTESIAN_POINT ( 'NONE',  ( -1.734723475976807094E-14, 26.49999999999999645, 1.899999999999950395 ) ) ;
#153 = AXIS2_PLACEMENT_3D ( 'NONE', #657, #1070, #1050 ) ;
#154 = EDGE_CURVE ( 'NONE', #844, #555, #562, .T. ) ;
#155 = ORIENTED_EDGE ( 'NONE', *, *, #88, .F. ) ;
#156 = CARTESIAN_POINT ( 'NONE',  ( -0.4635254915624393846, 27.92658477444275178, 1.899999999999950395 ) ) ;
#157 = DIRECTION ( 'NONE',  ( 1.000000000000000000, 0.000000000000000000, 0.000000000000000000 ) ) ;
#158 = VERTEX_POINT ( 'NONE', #457 ) ;
#159 = LINE ( 'NONE', #972, #475 ) ;
#160 = EDGE_LOOP ( 'NONE', ( #464, #393 ) ) ;
#161 = LINE ( 'NONE', #467, #517 ) ;
#162 = FACE_OUTER_BOUND ( 'NONE', #679, .T. ) ;
#163 = LINE ( 'NONE', #1288, #465 ) ;
#164 = VERTEX_POINT ( 'NONE', #67 ) ;
#165 = ORIENTED_EDGE ( 'NONE', *, *, #1069, .F. ) ;
#166 = VECTOR ( 'NONE', #50, 1000.000000000000000 ) ;
#167 = EDGE_LOOP ( 'NONE', ( #1210, #1100 ) ) ;
#168 = CIRCLE ( 'NONE', #667, 1.050000000000000488 ) ;
#169 = FACE_BOUND ( 'NONE', #376, .T. ) ;
#170 = DIRECTION ( 'NONE',  ( 1.406398393993556297E-15, -3.937411383316627789E-16, 1.000000000000000000 ) ) ;
#171 = VERTEX_POINT ( 'NONE', #900 ) ;
#172 = ORIENTED_EDGE ( 'NONE', *, *, #609, .F. ) ;
#173 = VECTOR ( 'NONE', #1286, 1000.000000000000000 ) ;
#174 = DIRECTION ( 'NONE',  ( 1.000000000000000000, 0.000000000000000000, 0.000000000000000000 ) ) ;
#175 = ORIENTED_EDGE ( 'NONE', *, *, #1323, .T. ) ;
#176 = PLANE ( 'NONE',  #629 ) ;
#177 = DIRECTION ( 'NONE',  ( 1.000000000000000000, 0.000000000000000000, 0.000000000000000000 ) ) ;
#178 = EDGE_LOOP ( 'NONE', ( #548, #766, #671, #115 ) ) ;
#179 = LINE ( 'NONE', #323, #1252 ) ;
#180 = CYLINDRICAL_SURFACE ( 'NONE', #305, 1.500000000000001998 ) ;
#181 = CARTESIAN_POINT ( 'NONE',  ( 15.92647058823530593, 34.00000000000000000, 0.000000000000000000 ) ) ;
#182 = FACE_BOUND ( 'NONE', #1134, .T. ) ;
#183 = VERTEX_POINT ( 'NONE', #1196 ) ;
#184 = ADVANCED_FACE ( 'NONE', ( #169, #356, #1212 ), #583, .F. ) ;
#185 = ORIENTED_EDGE ( 'NONE', *, *, #154, .F. ) ;
#186 = VECTOR ( 'NONE', #1327, 1000.000000000000000 ) ;
#187 = DIRECTION ( 'NONE',  ( 1.406398393993556297E-15, -3.937411383316628282E-16, 1.000000000000000000 ) ) ;
#188 = DIRECTION ( 'NONE',  ( -1.000000000000000000, 0.000000000000000000, 0.000000000000000000 ) ) ;
#189 = AXIS2_PLACEMENT_3D ( 'NONE', #130, #1262, #542 ) ;
#190 = LINE ( 'NONE', #914, #59 ) ;
#191 = ORIENTED_EDGE ( 'NONE', *, *, #906, .T. ) ;
#192 = EDGE_CURVE ( 'NONE', #1058, #1005, #161, .T. ) ;
#193 = CARTESIAN_POINT ( 'NONE',  ( -8.000000000000000000, 6.000000000000001776, 7.000000000000000000 ) ) ;
#194 = VECTOR ( 'NONE', #982, 1000.000000000000000 ) ;
#195 = DIRECTION ( 'NONE',  ( 1.000000000000000000, 0.000000000000000000, 0.000000000000000000 ) ) ;
#196 = DIRECTION ( 'NONE',  ( 0.000000000000000000, -0.000000000000000000, 1.000000000000000000 ) ) ;
#197 = CARTESIAN_POINT ( 'NONE',  ( -8.000000000000000000, 6.000000000000001776, 5.000000000000000000 ) ) ;
#198 = EDGE_LOOP ( 'NONE', ( #973, #139 ) ) ;
#199 = DIRECTION ( 'NONE',  ( 0.9510565162951534202, 0.3090169943749476178, -1.156482317317869950E-15 ) ) ;
#200 = DIRECTION ( 'NONE',  ( 1.000000000000000000, 0.000000000000000000, 0.000000000000000000 ) ) ;
#201 = VERTEX_POINT ( 'NONE', #1092 ) ;
#202 = ADVANCED_FACE ( 'NONE', ( #693, #49 ), #176, .F. ) ;
#203 = CARTESIAN_POINT ( 'NONE',  ( -2.090977977778216606E-14, 26.50000000000000000, 0.000000000000000000 ) ) ;
#204 = DIRECTION ( 'NONE',  ( 1.000000000000000000, 0.000000000000000000, 0.000000000000000000 ) ) ;
#205 = ORIENTED_EDGE ( 'NONE', *, *, #1317, .F. ) ;
#206 = APPLICATION_CONTEXT ( 'automotive_design' ) ;
#207 = FACE_BOUND ( 'NONE', #160, .T. ) ;
#208 = LINE ( 'NONE', #632, #1076 ) ;
#209 = ORIENTED_EDGE ( 'NONE', *, *, #1323, .F. ) ;
#210 = DIRECTION ( 'NONE',  ( 0.000000000000000000, 0.000000000000000000, -1.000000000000000000 ) ) ;
#211 = VECTOR ( 'NONE', #1308, 1000.000000000000000 ) ;
#212 = CARTESIAN_POINT ( 'NONE',  ( -8.000000000000000000, 6.000000000000001776, 7.000000000000000000 ) ) ;
#213 = CARTESIAN_POINT ( 'NONE',  ( 6.949999999999999289, 6.000000000000001776, 7.000000000000000000 ) ) ;
#214 = VERTEX_POINT ( 'NONE', #52 ) ;
#215 = LINE ( 'NONE', #636, #604 ) ;
#216 = AXIS2_PLACEMENT_3D ( 'NONE', #720, #512, #408 ) ;
#217 = AXIS2_PLACEMENT_3D ( 'NONE', #967, #474, #588 ) ;
#218 = ADVANCED_FACE ( 'NONE', ( #590 ), #571, .T. ) ;
#219 = ADVANCED_FACE ( 'NONE', ( #781 ), #60, .T. ) ;
#220 = DIRECTION ( 'NONE',  ( 1.000000000000000000, 0.000000000000000000, 0.000000000000000000 ) ) ;
#221 = ORIENTED_EDGE ( 'NONE', *, *, #1049, .T. ) ;
#222 =( LENGTH_UNIT ( ) NAMED_UNIT ( * ) SI_UNIT ( .MILLI., .METRE. ) );
#223 = CARTESIAN_POINT ( 'NONE',  ( -1.040834085586084257E-14, 1.387778780781445676E-14, 1.899999999998680522 ) ) ;
#224 = EDGE_CURVE ( 'NONE', #719, #639, #809, .T. ) ;
#225 = PLANE ( 'NONE',  #151 ) ;
#226 = ORIENTED_EDGE ( 'NONE', *, *, #1226, .F. ) ;
#227 = CARTESIAN_POINT ( 'NONE',  ( -2.069494673095137153E-15, 18.99999999999999645, 20.00000000000000000 ) ) ;
#228 = CARTESIAN_POINT ( 'NONE',  ( 15.92647058823530237, -19.00000000000000355, 0.000000000000000000 ) ) ;
#229 = AXIS2_PLACEMENT_3D ( 'NONE', #311, #1136, #200 ) ;
#230 = AXIS2_PLACEMENT_3D ( 'NONE', #1067, #862, #340 ) ;
#231 = DIRECTION ( 'NONE',  ( -0.000000000000000000, 0.000000000000000000, 1.000000000000000000 ) ) ;
#232 = CARTESIAN_POINT ( 'NONE',  ( -15.92647058823530237, 18.99999999999999645, 10.00000000000000000 ) ) ;
#233 = ORIENTED_EDGE ( 'NONE', *, *, #143, .T. ) ;
#234 = EDGE_CURVE ( 'NONE', #728, #708, #371, .T. ) ;
#235 = CARTESIAN_POINT ( 'NONE',  ( 0.000000000000000000, 34.00000000000000000, 5.000000000000000000 ) ) ;
#236 = FACE_OUTER_BOUND ( 'NONE', #1111, .T. ) ;
#237 = CIRCLE ( 'NONE', #1062, 1.050000000000000488 ) ;
#238 = CIRCLE ( 'NONE', #1042, 1.500000000000001998 ) ;
#239 = VECTOR ( 'NONE', #254, 1000.000000000000000 ) ;
#240 = CARTESIAN_POINT ( 'NONE',  ( 1.426584774442721359, 0.4635254915624367755, 0.000000000000000000 ) ) ;
#241 = CARTESIAN_POINT ( 'NONE',  ( -1.387778780781445676E-14, 26.49999999999999645, 4.999999999999948486 ) ) ;
#242 = VERTEX_POINT ( 'NONE', #805 ) ;
#243 = LINE ( 'NONE', #140, #909 ) ;
#244 = DIRECTION ( 'NONE',  ( -0.000000000000000000, 0.000000000000000000, -1.000000000000000000 ) ) ;
#245 = EDGE_CURVE ( 'NONE', #1077, #1103, #1293, .T. ) ;
#246 = EDGE_CURVE ( 'NONE', #981, #242, #1204, .T. ) ;
#247 = CARTESIAN_POINT ( 'NONE',  ( 15.92647058823530237, 34.00000000000000000, 5.000000000000000000 ) ) ;
#248 = DIRECTION ( 'NONE',  ( 1.406398393993557086E-15, -3.937411383316592783E-16, 1.000000000000000000 ) ) ;
#249 = ORIENTED_EDGE ( 'NONE', *, *, #695, .T. ) ;
#250 = CARTESIAN_POINT ( 'NONE',  ( 5.949999999999999289, 6.000000000000001776, 6.000000000000000000 ) ) ;
#251 = CARTESIAN_POINT ( 'NONE',  ( -5.949999999999997513, -6.000000000000003553, 5.000000000000000000 ) ) ;
#252 = ORIENTED_EDGE ( 'NONE', *, *, #88, .T. ) ;
#253 = VECTOR ( 'NONE', #621, 1000.000000000000000 ) ;
#254 = DIRECTION ( 'NONE',  ( -0.000000000000000000, -0.000000000000000000, -1.000000000000000000 ) ) ;
#255 = ORIENTED_EDGE ( 'NONE', *, *, #321, .T. ) ;
#256 = CARTESIAN_POINT ( 'NONE',  ( 10.05000000000000071, -6.000000000000000000, 6.000000000000000000 ) ) ;
#257 = DIRECTION ( 'NONE',  ( 1.000000000000000000, 0.000000000000000000, 0.000000000000000000 ) ) ;
#258 = EDGE_LOOP ( 'NONE', ( #1084, #292, #456, #939 ) ) ;
#259 = TOROIDAL_SURFACE ( 'NONE', #540, 2.049999999999998490, 1.000000000000000000 ) ;
#260 = EDGE_CURVE ( 'NONE', #1187, #164, #4, .T. ) ;
#261 = CARTESIAN_POINT ( 'NONE',  ( -8.000000000000000000, 6.000000000000001776, 6.000000000000000000 ) ) ;
#262 = TOROIDAL_SURFACE ( 'NONE', #656, 2.050000000000000711, 1.000000000000000000 ) ;
#263 = ORIENTED_EDGE ( 'NONE', *, *, #863, .T. ) ;
#264 = EDGE_CURVE ( 'NONE', #910, #379, #1316, .T. ) ;
#265 = DIRECTION ( 'NONE',  ( -2.194270917860437341E-16, 0.9486832980505138790, -0.3162277660168378302 ) ) ;
#266 = CARTESIAN_POINT ( 'NONE',  ( 2.615405419811657861, 27.34979673453110038, 1.899999999999947065 ) ) ;
#267 = DIRECTION ( 'NONE',  ( 0.000000000000000000, -1.000000000000000000, 0.000000000000000000 ) ) ;
#268 = EDGE_LOOP ( 'NONE', ( #899, #99, #1081, #1200 ) ) ;
#269 = CARTESIAN_POINT ( 'NONE',  ( -6.949999999999997513, -6.000000000000003553, 7.000000000000000000 ) ) ;
#270 = ORIENTED_EDGE ( 'NONE', *, *, #729, .F. ) ;
#271 = ADVANCED_FACE ( 'NONE', ( #207, #1335 ), #1326, .F. ) ;
#272 = DIRECTION ( 'NONE',  ( -1.826024711554534160E-16, 1.000000000000000000, 0.000000000000000000 ) ) ;
#273 = DIRECTION ( 'NONE',  ( 1.000000000000000000, 0.000000000000000000, 0.000000000000000000 ) ) ;
#274 = ORIENTED_EDGE ( 'NONE', *, *, #329, .T. ) ;
#275 = ORIENTED_EDGE ( 'NONE', *, *, #434, .T. ) ;
#276 = CARTESIAN_POINT ( 'NONE',  ( -6.949999999999999289, 6.000000000000001776, 7.000000000000000000 ) ) ;
#277 = ORIENTED_EDGE ( 'NONE', *, *, #567, .T. ) ;
#278 = DIRECTION ( 'NONE',  ( -1.000000000000000000, 0.000000000000000000, 0.000000000000000000 ) ) ;
#279 = EDGE_CURVE ( 'NONE', #481, #1027, #1135, .T. ) ;
#280 = ORIENTED_EDGE ( 'NONE', *, *, #501, .F. ) ;
#281 = ORIENTED_EDGE ( 'NONE', *, *, #1049, .F. ) ;
#282 = AXIS2_PLACEMENT_3D ( 'NONE', #1052, #1060, #1278 ) ;
#283 = DIRECTION ( 'NONE',  ( 1.000000000000000000, 0.000000000000000000, 0.000000000000000000 ) ) ;
#284 = VECTOR ( 'NONE', #73, 1000.000000000000000 ) ;
#285 = CARTESIAN_POINT ( 'NONE',  ( -8.000000000000000000, 6.000000000000001776, 6.000000000000000000 ) ) ;
#286 = DIRECTION ( 'NONE',  ( 1.000000000000000000, 1.089207722681651315E-16, 0.000000000000000000 ) ) ;
#287 = ADVANCED_FACE ( 'NONE', ( #923 ), #97, .T. ) ;
#288 = ORIENTED_EDGE ( 'NONE', *, *, #26, .T. ) ;
#289 = ORIENTED_EDGE ( 'NONE', *, *, #712, .T. ) ;
#290 = CARTESIAN_POINT ( 'NONE',  ( -0.4635254915624255068, 1.426584774442726911, 1.899999999998680522 ) ) ;
#291 = EDGE_CURVE ( 'NONE', #668, #158, #654, .T. ) ;
#292 = ORIENTED_EDGE ( 'NONE', *, *, #545, .T. ) ;
#293 = VECTOR ( 'NONE', #36, 1000.000000000000000 ) ;
#294 = DIRECTION ( 'NONE',  ( -1.000000000000000000, 0.000000000000000000, 0.000000000000000000 ) ) ;
#295 = CARTESIAN_POINT ( 'NONE',  ( 8.000000000000000000, 6.000000000000001776, 5.000000000000000000 ) ) ;
#296 = VECTOR ( 'NONE', #1245, 1000.000000000000000 ) ;
#297 = DIRECTION ( 'NONE',  ( 1.000000000000000000, 0.000000000000000000, 0.000000000000000000 ) ) ;
#298 = DIRECTION ( 'NONE',  ( 1.406398393993556297E-15, -3.937411383316628282E-16, 1.000000000000000000 ) ) ;
#299 = EDGE_CURVE ( 'NONE', #639, #719, #1218, .T. ) ;
#300 = ORIENTED_EDGE ( 'NONE', *, *, #291, .F. ) ;
#301 = DIRECTION ( 'NONE',  ( -1.000000000000000000, 0.000000000000000000, 0.000000000000000000 ) ) ;
#302 = COLOUR_RGB ( '',0.7921568627450980005, 0.8196078431372548767, 0.9333333333333333481 ) ;
#303 = FACE_OUTER_BOUND ( 'NONE', #614, .T. ) ;
#304 = EDGE_LOOP ( 'NONE', ( #996, #802, #263, #1183, #42, #1097, #10, #964 ) ) ;
#305 = AXIS2_PLACEMENT_3D ( 'NONE', #402, #618, #199 ) ;
#306 = CARTESIAN_POINT ( 'NONE',  ( 14.25000000000000355, -19.00000000000000355, 20.00000000000000000 ) ) ;
#307 = AXIS2_PLACEMENT_3D ( 'NONE', #362, #872, #1185 ) ;
#308 = ORIENTED_EDGE ( 'NONE', *, *, #1138, .F. ) ;
#309 = ORIENTED_EDGE ( 'NONE', *, *, #336, .F. ) ;
#310 = FACE_OUTER_BOUND ( 'NONE', #1318, .T. ) ;
#311 = CARTESIAN_POINT ( 'NONE',  ( -7.999999999999998224, -6.000000000000003553, 6.000000000000000000 ) ) ;
#312 = ORIENTED_EDGE ( 'NONE', *, *, #299, .F. ) ;
#313 = EDGE_CURVE ( 'NONE', #532, #758, #238, .T. ) ;
#314 = DIRECTION ( 'NONE',  ( 0.000000000000000000, 1.000000000000000000, 0.000000000000000000 ) ) ;
#315 = DIRECTION ( 'NONE',  ( 1.000000000000000000, 0.000000000000000000, 0.000000000000000000 ) ) ;
#316 = CARTESIAN_POINT ( 'NONE',  ( 0.000000000000000000, 17.00000000000000000, 20.00000000000000000 ) ) ;
#317 = ORIENTED_EDGE ( 'NONE', *, *, #485, .T. ) ;
#318 = CIRCLE ( 'NONE', #775, 2.799999999999997158 ) ;
#319 = LINE ( 'NONE', #1142, #296 ) ;
#320 = AXIS2_PLACEMENT_3D ( 'NONE', #446, #869, #244 ) ;
#321 = EDGE_CURVE ( 'NONE', #1101, #171, #631, .T. ) ;
#322 = ADVANCED_FACE ( 'NONE', ( #913 ), #180, .F. ) ;
#323 = CARTESIAN_POINT ( 'NONE',  ( -10.92647058823530060, 18.99999999999999645, 10.00000000000000000 ) ) ;
#324 = DIRECTION ( 'NONE',  ( -1.000000000000000000, 0.000000000000000000, 0.000000000000000000 ) ) ;
#325 = ORIENTED_EDGE ( 'NONE', *, *, #876, .T. ) ;
#326 = AXIS2_PLACEMENT_3D ( 'NONE', #762, #947, #528 ) ;
#327 = DIRECTION ( 'NONE',  ( -1.000000000000000000, -1.089207722681651192E-16, 0.000000000000000000 ) ) ;
#328 = PLANE ( 'NONE',  #189 ) ;
#329 = EDGE_CURVE ( 'NONE', #719, #164, #993, .T. ) ;
#330 = TOROIDAL_SURFACE ( 'NONE', #812, 2.050000000000000711, 1.000000000000000000 ) ;
#331 = LINE ( 'NONE', #943, #1107 ) ;
#332 = CARTESIAN_POINT ( 'NONE',  ( 14.25000000000000000, 17.00000000000000000, 5.000000000000000000 ) ) ;
#333 = ORIENTED_EDGE ( 'NONE', *, *, #1289, .F. ) ;
#334 = DIRECTION ( 'NONE',  ( -1.000000000000000000, 0.000000000000000000, 0.000000000000000000 ) ) ;
#335 = DIRECTION ( 'NONE',  ( 1.406398393993556297E-15, -3.937411383316628282E-16, 1.000000000000000000 ) ) ;
#336 = EDGE_CURVE ( 'NONE', #945, #855, #698, .T. ) ;
#337 = CARTESIAN_POINT ( 'NONE',  ( 2.069494673095137942E-15, -19.00000000000000355, 0.000000000000000000 ) ) ;
#338 = EDGE_LOOP ( 'NONE', ( #426, #1234, #1304, #74 ) ) ;
#339 = DIRECTION ( 'NONE',  ( -0.000000000000000000, 0.000000000000000000, 1.000000000000000000 ) ) ;
#340 = DIRECTION ( 'NONE',  ( 1.000000000000000000, 0.000000000000000000, 0.000000000000000000 ) ) ;
#341 = AXIS2_PLACEMENT_3D ( 'NONE', #513, #1130, #1247 ) ;
#342 = CARTESIAN_POINT ( 'NONE',  ( 10.92647058823530060, 34.00000000000000000, 5.000000000000000000 ) ) ;
#343 = DIRECTION ( 'NONE',  ( 1.000000000000000000, 0.000000000000000000, 0.000000000000000000 ) ) ;
#344 = ORIENTED_EDGE ( 'NONE', *, *, #1120, .F. ) ;
#345 = CARTESIAN_POINT ( 'NONE',  ( -2.069494673095137153E-15, 18.99999999999999645, 5.000000000000000000 ) ) ;
#346 = DIRECTION ( 'NONE',  ( 0.9510565162951534202, 0.3090169943749476178, -1.156482317317869950E-15 ) ) ;
#347 = CIRCLE ( 'NONE', #1313, 1.000000000000000888 ) ;
#348 = CIRCLE ( 'NONE', #867, 1.050000000000000488 ) ;
#349 = DIRECTION ( 'NONE',  ( -0.000000000000000000, -0.000000000000000000, -1.000000000000000000 ) ) ;
#350 = PRODUCT_CONTEXT ( 'NONE', #206, 'mechanical' ) ;
#351 = VERTEX_POINT ( 'NONE', #1129 ) ;
#352 = DIRECTION ( 'NONE',  ( 1.000000000000000000, 1.089207722681651192E-16, 0.000000000000000000 ) ) ;
#353 = LINE ( 'NONE', #748, #1232 ) ;
#354 = DIRECTION ( 'NONE',  ( 1.406398393993556297E-15, -3.937411383316628282E-16, 1.000000000000000000 ) ) ;
#355 = ORIENTED_EDGE ( 'NONE', *, *, #609, .T. ) ;
#356 = FACE_BOUND ( 'NONE', #606, .T. ) ;
#357 = DIRECTION ( 'NONE',  ( 1.000000000000000000, 1.089207722681651315E-16, 0.000000000000000000 ) ) ;
#358 = ADVANCED_FACE ( 'NONE', ( #310 ), #831, .T. ) ;
#359 = ORIENTED_EDGE ( 'NONE', *, *, #135, .T. ) ;
#360 = CIRCLE ( 'NONE', #125, 1.050000000000000488 ) ;
#361 = ADVANCED_FACE ( 'NONE', ( #109 ), #951, .F. ) ;
#362 = CARTESIAN_POINT ( 'NONE',  ( -3.469446951953614189E-15, 1.387778780781445676E-14, 4.999999999998679279 ) ) ;
#363 = ORIENTED_EDGE ( 'NONE', *, *, #1156, .T. ) ;
#364 = DIRECTION ( 'NONE',  ( 1.000000000000000000, 0.000000000000000000, 0.000000000000000000 ) ) ;
#365 = LINE ( 'NONE', #673, #422 ) ;
#366 = ORIENTED_EDGE ( 'NONE', *, *, #26, .F. ) ;
#367 = CIRCLE ( 'NONE', #564, 1.049999999999998934 ) ;
#368 = CYLINDRICAL_SURFACE ( 'NONE', #887, 1.500000000000001332 ) ;
#369 = CIRCLE ( 'NONE', #1174, 1.049999999999998934 ) ;
#370 = ORIENTED_EDGE ( 'NONE', *, *, #336, .T. ) ;
#371 = LINE ( 'NONE', #1301, #759 ) ;
#372 = DIRECTION ( 'NONE',  ( -0.000000000000000000, 0.000000000000000000, 1.000000000000000000 ) ) ;
#373 = ORIENTED_EDGE ( 'NONE', *, *, #1120, .T. ) ;
#374 = CARTESIAN_POINT ( 'NONE',  ( 6.950000000000002842, -6.000000000000000000, 7.000000000000000000 ) ) ;
#375 = ADVANCED_FACE ( 'NONE', ( #415 ), #390, .F. ) ;
#376 = EDGE_LOOP ( 'NONE', ( #448, #586 ) ) ;
#377 = DIRECTION ( 'NONE',  ( -0.000000000000000000, -0.000000000000000000, -1.000000000000000000 ) ) ;
#378 = EDGE_LOOP ( 'NONE', ( #977, #1280, #1193, #133 ) ) ;
#379 = VERTEX_POINT ( 'NONE', #907 ) ;
#380 = CARTESIAN_POINT ( 'NONE',  ( 9.050000000000000711, -6.000000000000000000, 6.000000000000000000 ) ) ;
#381 = CIRCLE ( 'NONE', #881, 1.500000000000001332 ) ;
#382 = ORIENTED_EDGE ( 'NONE', *, *, #705, .F. ) ;
#383 = ADVANCED_FACE ( 'NONE', ( #815 ), #225, .T. ) ;
#384 = DIRECTION ( 'NONE',  ( -0.000000000000000000, -0.000000000000000000, -1.000000000000000000 ) ) ;
#385 = CARTESIAN_POINT ( 'NONE',  ( -10.92647058823530415, 34.00000000000000000, 5.000000000000000000 ) ) ;
#386 = EDGE_CURVE ( 'NONE', #922, #708, #1195, .T. ) ;
#387 = ORIENTED_EDGE ( 'NONE', *, *, #1226, .T. ) ;
#388 = ORIENTED_EDGE ( 'NONE', *, *, #1082, .F. ) ;
#389 = AXIS2_PLACEMENT_3D ( 'NONE', #581, #988, #146 ) ;
#390 = PLANE ( 'NONE',  #969 ) ;
#391 = DIRECTION ( 'NONE',  ( 1.406398393993557086E-15, -3.937411383316592783E-16, 1.000000000000000000 ) ) ;
#392 = CARTESIAN_POINT ( 'NONE',  ( -14.25000000000000000, 0.000000000000000000, 20.00000000000000000 ) ) ;
#393 = ORIENTED_EDGE ( 'NONE', *, *, #1150, .F. ) ;
#394 = ORIENTED_EDGE ( 'NONE', *, *, #946, .F. ) ;
#395 = CARTESIAN_POINT ( 'NONE',  ( -10.05000000000000071, 6.000000000000001776, 6.000000000000000000 ) ) ;
#396 = LINE ( 'NONE', #213, #1309 ) ;
#397 = PLANE ( 'NONE',  #580 ) ;
#398 = EDGE_CURVE ( 'NONE', #978, #593, #348, .T. ) ;
#399 = PRODUCT_DEFINITION_FORMATION_WITH_SPECIFIED_SOURCE ( 'å¯', '', #808, .NOT_KNOWN. ) ;
#400 = EDGE_LOOP ( 'NONE', ( #1115, #55, #233, #280 ) ) ;
#401 = CIRCLE ( 'NONE', #921, 1.000000000000000000 ) ;
#402 = CARTESIAN_POINT ( 'NONE',  ( -1.387778780781445676E-14, 26.49999999999999645, 4.999999999999948486 ) ) ;
#403 = DIRECTION ( 'NONE',  ( 0.000000000000000000, 1.000000000000000000, -0.000000000000000000 ) ) ;
#404 = ORIENTED_EDGE ( 'NONE', *, *, #1282, .F. ) ;
#405 = AXIS2_PLACEMENT_3D ( 'NONE', #11, #116, #106 ) ;
#406 = DIRECTION ( 'NONE',  ( -0.000000000000000000, 0.000000000000000000, 1.000000000000000000 ) ) ;
#407 = ORIENTED_EDGE ( 'NONE', *, *, #453, .T. ) ;
#408 = DIRECTION ( 'NONE',  ( 0.000000000000000000, 0.000000000000000000, -1.000000000000000000 ) ) ;
#409 = LINE ( 'NONE', #9, #841 ) ;
#410 = ORIENTED_EDGE ( 'NONE', *, *, #870, .T. ) ;
#411 = DIRECTION ( 'NONE',  ( -0.000000000000000000, 0.000000000000000000, 1.000000000000000000 ) ) ;
#412 = DIRECTION ( 'NONE',  ( -0.000000000000000000, -0.000000000000000000, -1.000000000000000000 ) ) ;
#413 = ORIENTED_EDGE ( 'NONE', *, *, #883, .T. ) ;
#414 = EDGE_CURVE ( 'NONE', #1005, #58, #1260, .T. ) ;
#415 = FACE_OUTER_BOUND ( 'NONE', #692, .T. ) ;
#416 = PLANE ( 'NONE',  #1186 ) ;
#417 = ORIENTED_EDGE ( 'NONE', *, *, #6, .F. ) ;
#418 = DIRECTION ( 'NONE',  ( -0.000000000000000000, 0.000000000000000000, 1.000000000000000000 ) ) ;
#419 = CIRCLE ( 'NONE', #1208, 2.049999999999998046 ) ;
#420 = ORIENTED_EDGE ( 'NONE', *, *, #192, .T. ) ;
#421 = EDGE_CURVE ( 'NONE', #1334, #351, #331, .T. ) ;
#422 = VECTOR ( 'NONE', #1117, 1000.000000000000000 ) ;
#423 = DIRECTION ( 'NONE',  ( 1.000000000000000000, 0.000000000000000000, 0.000000000000000000 ) ) ;
#424 = AXIS2_PLACEMENT_3D ( 'NONE', #821, #926, #196 ) ;
#425 = CARTESIAN_POINT ( 'NONE',  ( -1.426584774442735126, -0.4635254915624076322, 4.999999999998681055 ) ) ;
#426 = ORIENTED_EDGE ( 'NONE', *, *, #503, .F. ) ;
#427 = VECTOR ( 'NONE', #334, 1000.000000000000000 ) ;
#428 = DIRECTION ( 'NONE',  ( 1.406398393993556297E-15, -3.937411383316628282E-16, 1.000000000000000000 ) ) ;
#429 = AXIS2_PLACEMENT_3D ( 'NONE', #1291, #1201, #670 ) ;
#430 = ADVANCED_FACE ( 'NONE', ( #1253 ), #1056, .T. ) ;
#431 = CARTESIAN_POINT ( 'NONE',  ( -15.92647058823530593, 34.00000000000000000, 5.000000000000000000 ) ) ;
#432 = CYLINDRICAL_SURFACE ( 'NONE', #1095, 2.750000000000003109 ) ;
#433 = FACE_BOUND ( 'NONE', #788, .T. ) ;
#434 = EDGE_CURVE ( 'NONE', #35, #894, #5, .T. ) ;
#435 = DIRECTION ( 'NONE',  ( 0.000000000000000000, 0.000000000000000000, 1.000000000000000000 ) ) ;
#436 = DIRECTION ( 'NONE',  ( 1.000000000000000000, 0.000000000000000000, 0.000000000000000000 ) ) ;
#437 = ORIENTED_EDGE ( 'NONE', *, *, #84, .F. ) ;
#438 = DIRECTION ( 'NONE',  ( -0.000000000000000000, 0.000000000000000000, 1.000000000000000000 ) ) ;
#439 = CARTESIAN_POINT ( 'NONE',  ( 8.000000000000000000, 6.000000000000001776, 5.000000000000000000 ) ) ;
#440 = AXIS2_PLACEMENT_3D ( 'NONE', #854, #531, #436 ) ;
#441 = EDGE_LOOP ( 'NONE', ( #355, #373, #658, #382 ) ) ;
#442 = CARTESIAN_POINT ( 'NONE',  ( 8.000000000000000000, 6.000000000000001776, 7.000000000000000000 ) ) ;
#443 = CARTESIAN_POINT ( 'NONE',  ( -9.049999999999998934, -6.000000000000003553, 7.000000000000000000 ) ) ;
#444 = EDGE_LOOP ( 'NONE', ( #344, #878, #1236, #797 ) ) ;
#445 = LINE ( 'NONE', #868, #173 ) ;
#446 = CARTESIAN_POINT ( 'NONE',  ( -14.25000000000000000, 0.000000000000000000, 20.00000000000000000 ) ) ;
#447 = PRESENTATION_LAYER_ASSIGNMENT (  '', '', ( #25 ) ) ;
#448 = ORIENTED_EDGE ( 'NONE', *, *, #145, .T. ) ;
#449 = VECTOR ( 'NONE', #1312, 1000.000000000000000 ) ;
#450 = VECTOR ( 'NONE', #737, 1000.000000000000000 ) ;
#451 = CARTESIAN_POINT ( 'NONE',  ( -3.469446951953614189E-15, 1.387778780781445676E-14, 4.999999999998679279 ) ) ;
#452 = ORIENTED_EDGE ( 'NONE', *, *, #936, .F. ) ;
#453 = EDGE_CURVE ( 'NONE', #593, #639, #756, .T. ) ;
#454 = CARTESIAN_POINT ( 'NONE',  ( -10.92647058823530060, 18.99999999999999645, 10.00000000000000000 ) ) ;
#455 = CARTESIAN_POINT ( 'NONE',  ( 14.25000000000000355, -19.00000000000000355, 5.000000000000000000 ) ) ;
#456 = ORIENTED_EDGE ( 'NONE', *, *, #974, .T. ) ;
#457 = CARTESIAN_POINT ( 'NONE',  ( -2.662958245626430909, -0.8652475842498367209, 4.999999999998682831 ) ) ;
#458 = APPLICATION_CONTEXT ( 'automotive_design' ) ;
#459 = CARTESIAN_POINT ( 'NONE',  ( 8.000000000000000000, 6.000000000000001776, 6.000000000000000000 ) ) ;
#460 = ADVANCED_FACE ( 'NONE', ( #29 ), #1163, .T. ) ;
#461 = CARTESIAN_POINT ( 'NONE',  ( 2.615405419811661414, 27.34979673453110038, 4.999999999999945821 ) ) ;
#462 = ORIENTED_EDGE ( 'NONE', *, *, #605, .F. ) ;
#463 = VECTOR ( 'NONE', #816, 1000.000000000000000 ) ;
#464 = ORIENTED_EDGE ( 'NONE', *, *, #594, .F. ) ;
#465 = VECTOR ( 'NONE', #286, 1000.000000000000000 ) ;
#466 = CARTESIAN_POINT ( 'NONE',  ( -1.426584774442748893, 26.03647450843757483, 1.899999999999952172 ) ) ;
#467 = CARTESIAN_POINT ( 'NONE',  ( -10.92647058823530415, 34.00000000000000000, 5.000000000000000000 ) ) ;
#468 = DIRECTION ( 'NONE',  ( 1.406398393993557086E-15, -3.937411383316592783E-16, 1.000000000000000000 ) ) ;
#469 = CARTESIAN_POINT ( 'NONE',  ( 15.92647058823530237, -19.00000000000000355, 5.000000000000000000 ) ) ;
#470 =( GEOMETRIC_REPRESENTATION_CONTEXT ( 3 ) GLOBAL_UNCERTAINTY_ASSIGNED_CONTEXT ( ( #537 ) ) GLOBAL_UNIT_ASSIGNED_CONTEXT ( ( #222, #644, #752 ) ) REPRESENTATION_CONTEXT ( 'NONE', 'WORKASPACE' ) );
#471 = EDGE_CURVE ( 'NONE', #1311, #58, #1269, .T. ) ;
#472 = ORIENTED_EDGE ( 'NONE', *, *, #224, .F. ) ;
#473 = AXIS2_PLACEMENT_3D ( 'NONE', #250, #799, #278 ) ;
#474 = DIRECTION ( 'NONE',  ( 1.224646799147353207E-16, 1.000000000000000000, 0.000000000000000000 ) ) ;
#475 = VECTOR ( 'NONE', #980, 1000.000000000000000 ) ;
#476 = VERTEX_POINT ( 'NONE', #937 ) ;
#477 = CARTESIAN_POINT ( 'NONE',  ( 6.950000000000002842, -6.000000000000000000, 7.000000000000000000 ) ) ;
#478 = DIRECTION ( 'NONE',  ( 0.000000000000000000, 0.000000000000000000, -1.000000000000000000 ) ) ;
#479 = CARTESIAN_POINT ( 'NONE',  ( 1.426584774442714698, 26.96352549156241807, 1.899999999999948619 ) ) ;
#480 = VERTEX_POINT ( 'NONE', #240 ) ;
#481 = VERTEX_POINT ( 'NONE', #853 ) ;
#482 = ADVANCED_FACE ( 'NONE', ( #1265 ), #1171, .F. ) ;
#483 = CARTESIAN_POINT ( 'NONE',  ( 14.25000000000000000, 17.00000000000000000, 20.00000000000000000 ) ) ;
#484 = ORIENTED_EDGE ( 'NONE', *, *, #72, .T. ) ;
#485 = EDGE_CURVE ( 'NONE', #58, #242, #117, .T. ) ;
#486 = CARTESIAN_POINT ( 'NONE',  ( 14.25000000000000355, -19.00000000000000355, 20.00000000000000000 ) ) ;
#487 = DIRECTION ( 'NONE',  ( 0.000000000000000000, -1.000000000000000000, -0.000000000000000000 ) ) ;
#488 = VERTEX_POINT ( 'NONE', #1152 ) ;
#489 = VECTOR ( 'NONE', #403, 1000.000000000000000 ) ;
#490 = AXIS2_PLACEMENT_3D ( 'NONE', #857, #335, #640 ) ;
#491 = ORIENTED_EDGE ( 'NONE', *, *, #485, .F. ) ;
#492 = ADVANCED_FACE ( 'NONE', ( #12 ), #330, .F. ) ;
#493 = DIRECTION ( 'NONE',  ( 0.000000000000000000, 0.000000000000000000, 1.000000000000000000 ) ) ;
#494 = CARTESIAN_POINT ( 'NONE',  ( 14.25000000000000000, 0.000000000000000000, 5.000000000000000000 ) ) ;
#495 = DIRECTION ( 'NONE',  ( 0.000000000000000000, -0.000000000000000000, -1.000000000000000000 ) ) ;
#496 = EDGE_LOOP ( 'NONE', ( #120, #620, #191, #1012 ) ) ;
#497 = ORIENTED_EDGE ( 'NONE', *, *, #731, .F. ) ;
#498 = AXIS2_PLACEMENT_3D ( 'NONE', #395, #597, #301 ) ;
#499 = CARTESIAN_POINT ( 'NONE',  ( -1.734723475976807094E-14, 26.49999999999999645, 1.899999999999950395 ) ) ;
#500 = FACE_OUTER_BOUND ( 'NONE', #725, .T. ) ;
#501 = EDGE_CURVE ( 'NONE', #201, #772, #69, .T. ) ;
#502 = DIRECTION ( 'NONE',  ( 1.826024711554534160E-16, -1.000000000000000000, 0.000000000000000000 ) ) ;
#503 = EDGE_CURVE ( 'NONE', #981, #1003, #114, .T. ) ;
#504 = LINE ( 'NONE', #823, #28 ) ;
#505 = EDGE_LOOP ( 'NONE', ( #810, #1119, #317, #37, #333, #611 ) ) ;
#506 = DIRECTION ( 'NONE',  ( 1.406398393993556297E-15, -3.937411383316628282E-16, 1.000000000000000000 ) ) ;
#507 = CARTESIAN_POINT ( 'NONE',  ( 8.000000000000000000, 6.000000000000001776, 7.000000000000000000 ) ) ;
#508 = EDGE_LOOP ( 'NONE', ( #1203, #1051, #270 ) ) ;
#509 = DIRECTION ( 'NONE',  ( 1.406398393993557086E-15, -3.937411383316592783E-16, 1.000000000000000000 ) ) ;
#510 = CARTESIAN_POINT ( 'NONE',  ( 2.662958245626423803, 0.8652475842498659198, 4.999999999998675726 ) ) ;
#511 = VERTEX_POINT ( 'NONE', #524 ) ;
#512 = DIRECTION ( 'NONE',  ( 0.000000000000000000, -1.000000000000000000, 0.000000000000000000 ) ) ;
#513 = CARTESIAN_POINT ( 'NONE',  ( -7.999999999999998224, -6.000000000000003553, 5.000000000000000000 ) ) ;
#514 = ORIENTED_EDGE ( 'NONE', *, *, #1069, .T. ) ;
#515 = FACE_OUTER_BOUND ( 'NONE', #378, .T. ) ;
#516 = VERTEX_POINT ( 'NONE', #1246 ) ;
#517 = VECTOR ( 'NONE', #265, 1000.000000000000000 ) ;
#518 = CARTESIAN_POINT ( 'NONE',  ( 2.662958245626416698, 0.8652475842498659198, 1.899999999998676969 ) ) ;
#519 = EDGE_LOOP ( 'NONE', ( #684, #1137, #989, #601 ) ) ;
#520 = AXIS2_PLACEMENT_3D ( 'NONE', #152, #354, #779 ) ;
#521 = CARTESIAN_POINT ( 'NONE',  ( -0.000000000000000000, 17.00000000000000000, 5.000000000000000000 ) ) ;
#522 = PLANE ( 'NONE',  #776 ) ;
#523 = ADVANCED_FACE ( 'NONE', ( #1145 ), #262, .F. ) ;
#524 = CARTESIAN_POINT ( 'NONE',  ( 15.92647058823530237, -19.00000000000000355, 20.00000000000000000 ) ) ;
#525 = CYLINDRICAL_SURFACE ( 'NONE', #1034, 1.049999999999998934 ) ;
#526 = ORIENTED_EDGE ( 'NONE', *, *, #313, .T. ) ;
#527 = ADVANCED_FACE ( 'NONE', ( #1044 ), #368, .F. ) ;
#528 = DIRECTION ( 'NONE',  ( 0.9510565162951535312, 0.3090169943749475068, -1.156482317317870344E-15 ) ) ;
#529 = CARTESIAN_POINT ( 'NONE',  ( 1.426584774442711812, 26.96352549156241807, 0.000000000000000000 ) ) ;
#530 = DIRECTION ( 'NONE',  ( -1.000000000000000000, 0.000000000000000000, 0.000000000000000000 ) ) ;
#531 = DIRECTION ( 'NONE',  ( -0.000000000000000000, 0.000000000000000000, 1.000000000000000000 ) ) ;
#532 = VERTEX_POINT ( 'NONE', #466 ) ;
#533 = AXIS2_PLACEMENT_3D ( 'NONE', #285, #1007, #177 ) ;
#534 = FACE_OUTER_BOUND ( 'NONE', #400, .T. ) ;
#535 = CIRCLE ( 'NONE', #1331, 2.799999999999997158 ) ;
#536 = DIRECTION ( 'NONE',  ( -0.000000000000000000, -0.000000000000000000, -1.000000000000000000 ) ) ;
#537 = UNCERTAINTY_MEASURE_WITH_UNIT (LENGTH_MEASURE( 1.000000000000000082E-05 ), #222, 'distance_accuracy_value', 'NONE');
#538 = DIRECTION ( 'NONE',  ( 1.406398393993556297E-15, -3.937411383316628282E-16, 1.000000000000000000 ) ) ;
#539 = EDGE_LOOP ( 'NONE', ( #824, #221, #795, #573 ) ) ;
#540 = AXIS2_PLACEMENT_3D ( 'NONE', #856, #339, #1166 ) ;
#541 = CARTESIAN_POINT ( 'NONE',  ( -15.92647058823530593, 34.00000000000000000, 5.000000000000000000 ) ) ;
#542 = DIRECTION ( 'NONE',  ( -1.000000000000000000, 0.000000000000000000, -0.000000000000000000 ) ) ;
#543 = EDGE_CURVE ( 'NONE', #171, #1101, #1259, .T. ) ;
#544 = VECTOR ( 'NONE', #349, 1000.000000000000000 ) ;
#545 = EDGE_CURVE ( 'NONE', #105, #945, #796, .T. ) ;
#546 = CARTESIAN_POINT ( 'NONE',  ( -15.92647058823530593, 34.00000000000000000, 5.000000000000000000 ) ) ;
#547 = DIRECTION ( 'NONE',  ( 0.000000000000000000, 0.000000000000000000, 1.000000000000000000 ) ) ;
#548 = ORIENTED_EDGE ( 'NONE', *, *, #123, .F. ) ;
#549 = CARTESIAN_POINT ( 'NONE',  ( -7.999999999999998224, -6.000000000000003553, 6.000000000000000000 ) ) ;
#550 = DIRECTION ( 'NONE',  ( 0.9510565162951536422, 0.3090169943749474513, -1.239088197126292050E-15 ) ) ;
#551 = ORIENTED_EDGE ( 'NONE', *, *, #260, .T. ) ;
#552 = EDGE_CURVE ( 'NONE', #922, #201, #566, .T. ) ;
#553 = DIRECTION ( 'NONE',  ( 1.000000000000000000, 0.000000000000000000, 0.000000000000000000 ) ) ;
#554 = CARTESIAN_POINT ( 'NONE',  ( -14.25000000000000000, -19.00000000000000355, 20.00000000000000000 ) ) ;
#555 = VERTEX_POINT ( 'NONE', #455 ) ;
#556 = DIRECTION ( 'NONE',  ( 1.000000000000000000, 0.000000000000000000, 0.000000000000000000 ) ) ;
#557 = FACE_OUTER_BOUND ( 'NONE', #258, .T. ) ;
#558 = AXIS2_PLACEMENT_3D ( 'NONE', #459, #1086, #257 ) ;
#559 = ADVANCED_FACE ( 'NONE', ( #890 ), #787, .F. ) ;
#560 = DIRECTION ( 'NONE',  ( 1.406398393993557086E-15, -3.937411383316592783E-16, 1.000000000000000000 ) ) ;
#561 = ORIENTED_EDGE ( 'NONE', *, *, #260, .F. ) ;
#562 = LINE ( 'NONE', #486, #194 ) ;
#563 = DIRECTION ( 'NONE',  ( 1.000000000000000000, 1.089207722681651315E-16, 0.000000000000000000 ) ) ;
#564 = AXIS2_PLACEMENT_3D ( 'NONE', #1031, #411, #1148 ) ;
#565 = AXIS2_PLACEMENT_3D ( 'NONE', #1079, #148, #686 ) ;
#566 = CIRCLE ( 'NONE', #217, 1.000000000000000000 ) ;
#567 = EDGE_CURVE ( 'NONE', #663, #987, #568, .T. ) ;
#568 = LINE ( 'NONE', #1178, #239 ) ;
#569 = PRODUCT_DEFINITION_CONTEXT ( 'detailed design', #458, 'design' ) ;
#570 = ORIENTED_EDGE ( 'NONE', *, *, #906, .F. ) ;
#571 = PLANE ( 'NONE',  #64 ) ;
#572 = CARTESIAN_POINT ( 'NONE',  ( -1.040834085586084257E-14, 1.387778780781445676E-14, 1.899999999998680522 ) ) ;
#573 = ORIENTED_EDGE ( 'NONE', *, *, #1191, .F. ) ;
#574 = ORIENTED_EDGE ( 'NONE', *, *, #789, .F. ) ;
#575 = DIRECTION ( 'NONE',  ( 1.000000000000000000, 0.000000000000000000, 0.000000000000000000 ) ) ;
#576 = LINE ( 'NONE', #1213, #1231 ) ;
#577 = EDGE_CURVE ( 'NONE', #1310, #987, #1279, .T. ) ;
#578 = EDGE_LOOP ( 'NONE', ( #770, #289 ) ) ;
#579 = EDGE_LOOP ( 'NONE', ( #255, #740 ) ) ;
#580 = AXIS2_PLACEMENT_3D ( 'NONE', #1238, #1026, #502 ) ;
#581 = CARTESIAN_POINT ( 'NONE',  ( 2.069494673095137942E-15, -19.00000000000000355, 5.000000000000000000 ) ) ;
#582 = ORIENTED_EDGE ( 'NONE', *, *, #1127, .F. ) ;
#583 = PLANE ( 'NONE',  #650 ) ;
#584 = CARTESIAN_POINT ( 'NONE',  ( -1.387778780781445676E-14, 26.49999999999999645, 4.999999999999948486 ) ) ;
#585 = EDGE_CURVE ( 'NONE', #758, #532, #1065, .T. ) ;
#586 = ORIENTED_EDGE ( 'NONE', *, *, #1059, .T. ) ;
#587 = ORIENTED_EDGE ( 'NONE', *, *, #1282, .T. ) ;
#588 = DIRECTION ( 'NONE',  ( -1.000000000000000000, 0.000000000000000000, 0.000000000000000000 ) ) ;
#589 = ORIENTED_EDGE ( 'NONE', *, *, #827, .F. ) ;
#590 = FACE_OUTER_BOUND ( 'NONE', #578, .T. ) ;
#591 = CYLINDRICAL_SURFACE ( 'NONE', #623, 2.750000000000003109 ) ;
#592 = CARTESIAN_POINT ( 'NONE',  ( -5.949999999999997513, -6.000000000000003553, 6.000000000000000000 ) ) ;
#593 = VERTEX_POINT ( 'NONE', #276 ) ;
#594 = EDGE_CURVE ( 'NONE', #1179, #677, #1019, .T. ) ;
#595 = CARTESIAN_POINT ( 'NONE',  ( -6.949999999999997513, -6.000000000000003553, 6.000000000000000000 ) ) ;
#596 = EDGE_LOOP ( 'NONE', ( #1303, #960 ) ) ;
#597 = DIRECTION ( 'NONE',  ( 1.224646799147353207E-16, 1.000000000000000000, 0.000000000000000000 ) ) ;
#598 = FACE_OUTER_BOUND ( 'NONE', #85, .T. ) ;
#599 = ORIENTED_EDGE ( 'NONE', *, *, #798, .T. ) ;
#600 = FACE_BOUND ( 'NONE', #198, .T. ) ;
#601 = ORIENTED_EDGE ( 'NONE', *, *, #585, .T. ) ;
#602 = VECTOR ( 'NONE', #30, 1000.000000000000000 ) ;
#603 = CARTESIAN_POINT ( 'NONE',  ( -1.426584774442742232, -0.4635254915624065220, 1.899999999998682298 ) ) ;
#604 = VECTOR ( 'NONE', #1048, 1000.000000000000000 ) ;
#605 = EDGE_CURVE ( 'NONE', #171, #516, #159, .T. ) ;
#606 = EDGE_LOOP ( 'NONE', ( #599, #275 ) ) ;
#607 = DIRECTION ( 'NONE',  ( -1.000000000000000000, 0.000000000000000000, 0.000000000000000000 ) ) ;
#608 = CYLINDRICAL_SURFACE ( 'NONE', #1268, 2.799999999999997158 ) ;
#609 = EDGE_CURVE ( 'NONE', #1319, #617, #1087, .T. ) ;
#610 = PRODUCT_DEFINITION_SHAPE ( 'NONE', 'NONE',  #1168 ) ;
#611 = ORIENTED_EDGE ( 'NONE', *, *, #1333, .F. ) ;
#612 = AXIS2_PLACEMENT_3D ( 'NONE', #197, #86, #204 ) ;
#613 = LINE ( 'NONE', #1235, #186 ) ;
#614 = EDGE_LOOP ( 'NONE', ( #437, #1064, #860, #1173 ) ) ;
#615 = CARTESIAN_POINT ( 'NONE',  ( 0.000000000000000000, 0.000000000000000000, 5.000000000000000000 ) ) ;
#616 = DIRECTION ( 'NONE',  ( 1.000000000000000000, 0.000000000000000000, 0.000000000000000000 ) ) ;
#617 = VERTEX_POINT ( 'NONE', #269 ) ;
#618 = DIRECTION ( 'NONE',  ( 1.406398393993556297E-15, -3.937411383316628282E-16, 1.000000000000000000 ) ) ;
#619 = PLANE ( 'NONE',  #1009 ) ;
#620 = ORIENTED_EDGE ( 'NONE', *, *, #398, .F. ) ;
#621 = DIRECTION ( 'NONE',  ( 0.000000000000000000, 1.000000000000000000, 0.000000000000000000 ) ) ;
#622 = EDGE_LOOP ( 'NONE', ( #1011, #587, #417, #828 ) ) ;
#623 = AXIS2_PLACEMENT_3D ( 'NONE', #584, #1295, #1197 ) ;
#624 = CARTESIAN_POINT ( 'NONE',  ( 10.92647058823530060, 34.00000000000000000, 5.000000000000000000 ) ) ;
#625 = DIRECTION ( 'NONE',  ( -0.000000000000000000, 0.000000000000000000, 1.000000000000000000 ) ) ;
#626 = VERTEX_POINT ( 'NONE', #51 ) ;
#627 = CARTESIAN_POINT ( 'NONE',  ( -7.999999999999998224, -6.000000000000003553, 6.000000000000000000 ) ) ;
#628 = ADVANCED_FACE ( 'NONE', ( #1083 ), #683, .T. ) ;
#629 = AXIS2_PLACEMENT_3D ( 'NONE', #156, #1104, #874 ) ;
#630 = CARTESIAN_POINT ( 'NONE',  ( 14.25000000000000000, 0.000000000000000000, 20.00000000000000000 ) ) ;
#631 = CIRCLE ( 'NONE', #92, 2.750000000000003109 ) ;
#632 = CARTESIAN_POINT ( 'NONE',  ( 2.662958245626423803, 0.8652475842498659198, 4.999999999998675726 ) ) ;
#633 = ORIENTED_EDGE ( 'NONE', *, *, #712, .F. ) ;
#634 = VECTOR ( 'NONE', #950, 1000.000000000000000 ) ;
#635 = FACE_OUTER_BOUND ( 'NONE', #142, .T. ) ;
#636 = CARTESIAN_POINT ( 'NONE',  ( -9.050000000000000711, 6.000000000000001776, 7.000000000000000000 ) ) ;
#637 = ADVANCED_FACE ( 'NONE', ( #1096 ), #661, .F. ) ;
#638 = CARTESIAN_POINT ( 'NONE',  ( -7.999999999999998224, -6.000000000000003553, 6.000000000000000000 ) ) ;
#639 = VERTEX_POINT ( 'NONE', #47 ) ;
#640 = DIRECTION ( 'NONE',  ( 0.9510565162951535312, 0.3090169943749472847, -1.261617073437676470E-15 ) ) ;
#641 = EDGE_CURVE ( 'NONE', #136, #922, #65, .T. ) ;
#642 = DIRECTION ( 'NONE',  ( -1.000000000000000000, -1.826024711554534160E-16, 0.000000000000000000 ) ) ;
#643 = EDGE_LOOP ( 'NONE', ( #281, #840, #147, #918 ) ) ;
#644 =( NAMED_UNIT ( * ) PLANE_ANGLE_UNIT ( ) SI_UNIT ( $, .RADIAN. ) );
#645 = CARTESIAN_POINT ( 'NONE',  ( 10.92647058823530060, 18.99999999999999645, 10.00000000000000000 ) ) ;
#646 = TOROIDAL_SURFACE ( 'NONE', #230, 2.049999999999998490, 1.000000000000000000 ) ;
#647 = PRODUCT_RELATED_PRODUCT_CATEGORY ( 'part', '', ( #808 ) ) ;
#648 = DIRECTION ( 'NONE',  ( 0.000000000000000000, -0.9486832980505138790, 0.3162277660168378857 ) ) ;
#649 = ORIENTED_EDGE ( 'NONE', *, *, #313, .F. ) ;
#650 = AXIS2_PLACEMENT_3D ( 'NONE', #790, #879, #999 ) ;
#651 = VECTOR ( 'NONE', #272, 1000.000000000000000 ) ;
#652 = FILL_AREA_STYLE_COLOUR ( '', #302 ) ;
#653 = CARTESIAN_POINT ( 'NONE',  ( 6.950000000000002842, -6.000000000000000000, 6.000000000000000000 ) ) ;
#654 = CIRCLE ( 'NONE', #674, 2.799999999999997158 ) ;
#655 = EDGE_CURVE ( 'NONE', #105, #1248, #1239, .T. ) ;
#656 = AXIS2_PLACEMENT_3D ( 'NONE', #261, #56, #877 ) ;
#657 = CARTESIAN_POINT ( 'NONE',  ( -10.92647058823529704, -2.770723966738188210E-15, 0.000000000000000000 ) ) ;
#658 = ORIENTED_EDGE ( 'NONE', *, *, #898, .T. ) ;
#659 = LINE ( 'NONE', #345, #131 ) ;
#660 = CARTESIAN_POINT ( 'NONE',  ( -10.92647058823530415, 34.00000000000000000, 5.000000000000000000 ) ) ;
#661 = PLANE ( 'NONE',  #389 ) ;
#662 = SHAPE_DEFINITION_REPRESENTATION ( #610, #755 ) ;
#663 = VERTEX_POINT ( 'NONE', #1221 ) ;
#664 = DIRECTION ( 'NONE',  ( 0.000000000000000000, 0.000000000000000000, -1.000000000000000000 ) ) ;
#665 = CARTESIAN_POINT ( 'NONE',  ( -15.92647058823529527, -19.00000000000000355, 0.000000000000000000 ) ) ;
#666 = TOROIDAL_SURFACE ( 'NONE', #558, 2.050000000000000711, 1.000000000000000000 ) ;
#667 = AXIS2_PLACEMENT_3D ( 'NONE', #1008, #495, #54 ) ;
#668 = VERTEX_POINT ( 'NONE', #510 ) ;
#669 = ADVANCED_FACE ( 'NONE', ( #813 ), #724, .T. ) ;
#670 = DIRECTION ( 'NONE',  ( 1.000000000000000000, 0.000000000000000000, 0.000000000000000000 ) ) ;
#671 = ORIENTED_EDGE ( 'NONE', *, *, #760, .T. ) ;
#672 = DIRECTION ( 'NONE',  ( -0.000000000000000000, 0.000000000000000000, 1.000000000000000000 ) ) ;
#673 = CARTESIAN_POINT ( 'NONE',  ( 1.426584774442728021, 0.4635254915624355543, 4.999999999998677502 ) ) ;
#674 = AXIS2_PLACEMENT_3D ( 'NONE', #103, #1036, #1028 ) ;
#675 = VERTEX_POINT ( 'NONE', #905 ) ;
#676 = AXIS2_PLACEMENT_3D ( 'NONE', #630, #530, #435 ) ;
#677 = VERTEX_POINT ( 'NONE', #603 ) ;
#678 = CARTESIAN_POINT ( 'NONE',  ( -1.040834085586084257E-14, 1.387778780781445676E-14, 1.899999999998680522 ) ) ;
#679 = EDGE_LOOP ( 'NONE', ( #155, #387, #63, #848, #690, #968, #1206, #277 ) ) ;
#680 = DIRECTION ( 'NONE',  ( 1.000000000000000000, 0.000000000000000000, 0.000000000000000000 ) ) ;
#681 = FACE_OUTER_BOUND ( 'NONE', #925, .T. ) ;
#682 = VERTEX_POINT ( 'NONE', #595 ) ;
#683 = PLANE ( 'NONE',  #849 ) ;
#684 = ORIENTED_EDGE ( 'NONE', *, *, #1025, .F. ) ;
#685 = EDGE_CURVE ( 'NONE', #164, #1187, #829, .T. ) ;
#686 = DIRECTION ( 'NONE',  ( 1.000000000000000000, 0.000000000000000000, 0.000000000000000000 ) ) ;
#687 = EDGE_CURVE ( 'NONE', #617, #1319, #1151, .T. ) ;
#688 = DIRECTION ( 'NONE',  ( 0.000000000000000000, 0.000000000000000000, -1.000000000000000000 ) ) ;
#689 = AXIS2_PLACEMENT_3D ( 'NONE', #68, #487, #478 ) ;
#690 = ORIENTED_EDGE ( 'NONE', *, *, #946, .T. ) ;
#691 = DIRECTION ( 'NONE',  ( -0.000000000000000000, -0.000000000000000000, -1.000000000000000000 ) ) ;
#692 = EDGE_LOOP ( 'NONE', ( #1038, #826, #7, #792, #1257, #484 ) ) ;
#693 = FACE_BOUND ( 'NONE', #48, .T. ) ;
#694 = CARTESIAN_POINT ( 'NONE',  ( 0.000000000000000000, 34.00000000000000000, 5.000000000000000000 ) ) ;
#695 = EDGE_CURVE ( 'NONE', #476, #1292, #95, .T. ) ;
#696 = VECTOR ( 'NONE', #100, 1000.000000000000000 ) ;
#697 = ORIENTED_EDGE ( 'NONE', *, *, #1306, .F. ) ;
#698 = CIRCLE ( 'NONE', #216, 1.000000000000000000 ) ;
#699 = AXIS2_PLACEMENT_3D ( 'NONE', #864, #1209, #1273 ) ;
#700 = CARTESIAN_POINT ( 'NONE',  ( -9.050000000000000711, 6.000000000000001776, 6.000000000000000000 ) ) ;
#701 = ORIENTED_EDGE ( 'NONE', *, *, #1289, .T. ) ;
#702 = DIRECTION ( 'NONE',  ( -0.9510565162951536422, -0.3090169943749475623, 1.215891653985587413E-15 ) ) ;
#703 = PLANE ( 'NONE',  #902 ) ;
#704 = LINE ( 'NONE', #469, #842 ) ;
#705 = EDGE_CURVE ( 'NONE', #1319, #786, #504, .T. ) ;
#706 = EDGE_LOOP ( 'NONE', ( #226, #1285, #574 ) ) ;
#707 = EDGE_CURVE ( 'NONE', #516, #626, #1043, .T. ) ;
#708 = VERTEX_POINT ( 'NONE', #380 ) ;
#709 = DIRECTION ( 'NONE',  ( -1.406398393993552945E-15, 3.937411383316605602E-16, -1.000000000000000000 ) ) ;
#710 = CYLINDRICAL_SURFACE ( 'NONE', #1054, 1.050000000000000488 ) ;
#711 = DIRECTION ( 'NONE',  ( -0.000000000000000000, 0.000000000000000000, 1.000000000000000000 ) ) ;
#712 = EDGE_CURVE ( 'NONE', #728, #136, #369, .T. ) ;
#713 = TOROIDAL_SURFACE ( 'NONE', #533, 2.050000000000000711, 1.000000000000000000 ) ;
#714 = CARTESIAN_POINT ( 'NONE',  ( -7.999999999999998224, -6.000000000000003553, 7.000000000000000000 ) ) ;
#715 = CIRCLE ( 'NONE', #405, 2.799999999999997158 ) ;
#716 = ORIENTED_EDGE ( 'NONE', *, *, #736, .T. ) ;
#717 = DIRECTION ( 'NONE',  ( -0.000000000000000000, 0.000000000000000000, 1.000000000000000000 ) ) ;
#718 = LINE ( 'NONE', #917, #124 ) ;
#719 = VERTEX_POINT ( 'NONE', #700 ) ;
#720 = CARTESIAN_POINT ( 'NONE',  ( 10.05000000000000071, 6.000000000000001776, 6.000000000000000000 ) ) ;
#721 = FACE_OUTER_BOUND ( 'NONE', #167, .T. ) ;
#722 = ORIENTED_EDGE ( 'NONE', *, *, #329, .F. ) ;
#723 = CARTESIAN_POINT ( 'NONE',  ( -15.92647058823530237, 18.99999999999999645, 5.000000000000000000 ) ) ;
#724 = CYLINDRICAL_SURFACE ( 'NONE', #930, 1.050000000000000488 ) ;
#725 = EDGE_LOOP ( 'NONE', ( #957, #814, #363, #359 ) ) ;
#726 = CARTESIAN_POINT ( 'NONE',  ( -1.734723475976807094E-14, 26.49999999999999645, 1.899999999999950395 ) ) ;
#727 = FACE_OUTER_BOUND ( 'NONE', #837, .T. ) ;
#728 = VERTEX_POINT ( 'NONE', #1114 ) ;
#729 = EDGE_CURVE ( 'NONE', #183, #1058, #179, .T. ) ;
#730 = CARTESIAN_POINT ( 'NONE',  ( -2.662958245626437570, -0.8652475842498388303, 1.899999999998684075 ) ) ;
#731 = EDGE_CURVE ( 'NONE', #1248, #105, #168, .T. ) ;
#732 = CIRCLE ( 'NONE', #822, 2.049999999999999822 ) ;
#733 = CARTESIAN_POINT ( 'NONE',  ( -6.949999999999999289, 6.000000000000001776, 7.000000000000000000 ) ) ;
#734 = DIRECTION ( 'NONE',  ( 1.000000000000000000, 0.000000000000000000, 0.000000000000000000 ) ) ;
#735 = LINE ( 'NONE', #1230, #1188 ) ;
#736 = EDGE_CURVE ( 'NONE', #1101, #626, #793, .T. ) ;
#737 = DIRECTION ( 'NONE',  ( -2.194270917860437341E-16, 0.9486832980505138790, -0.3162277660168378302 ) ) ;
#738 = AXIS2_PLACEMENT_3D ( 'NONE', #193, #1228, #294 ) ;
#739 = CARTESIAN_POINT ( 'NONE',  ( -15.92647058823529527, -19.00000000000000355, 5.000000000000000000 ) ) ;
#740 = ORIENTED_EDGE ( 'NONE', *, *, #543, .T. ) ;
#741 = LINE ( 'NONE', #32, #783 ) ;
#742 = DIRECTION ( 'NONE',  ( 0.000000000000000000, -0.000000000000000000, -1.000000000000000000 ) ) ;
#743 = EDGE_CURVE ( 'NONE', #682, #910, #1125, .T. ) ;
#744 = CARTESIAN_POINT ( 'NONE',  ( 8.000000000000001776, -6.000000000000000000, 6.000000000000000000 ) ) ;
#745 = DIRECTION ( 'NONE',  ( -0.000000000000000000, -0.000000000000000000, -1.000000000000000000 ) ) ;
#746 = ORIENTED_EDGE ( 'NONE', *, *, #1317, .T. ) ;
#747 = SURFACE_STYLE_FILL_AREA ( #1072 ) ;
#748 = CARTESIAN_POINT ( 'NONE',  ( -10.92647058823530060, 18.99999999999999645, 10.00000000000000000 ) ) ;
#749 =( GEOMETRIC_REPRESENTATION_CONTEXT ( 3 ) GLOBAL_UNCERTAINTY_ASSIGNED_CONTEXT ( ( #118 ) ) GLOBAL_UNIT_ASSIGNED_CONTEXT ( ( #1164, #1172, #34 ) ) REPRESENTATION_CONTEXT ( 'NONE', 'WORKASPACE' ) );
#750 = CARTESIAN_POINT ( 'NONE',  ( -7.999999999999998224, -6.000000000000003553, 7.000000000000000000 ) ) ;
#751 = VECTOR ( 'NONE', #563, 1000.000000000000000 ) ;
#752 =( NAMED_UNIT ( * ) SI_UNIT ( $, .STERADIAN. ) SOLID_ANGLE_UNIT ( ) );
#753 = DIRECTION ( 'NONE',  ( 1.000000000000000000, 0.000000000000000000, 0.000000000000000000 ) ) ;
#754 = AXIS2_PLACEMENT_3D ( 'NONE', #592, #1198, #688 ) ;
#755 = ADVANCED_BREP_SHAPE_REPRESENTATION ( 'sub\X2\8235673a5e955ea7\X0\', ( #44, #820 ), #749 ) ;
#756 = LINE ( 'NONE', #733, #634 ) ;
#757 = CARTESIAN_POINT ( 'NONE',  ( -15.92647058823529882, -2.908212886196413518E-15, 20.00000000000000000 ) ) ;
#758 = VERTEX_POINT ( 'NONE', #479 ) ;
#759 = VECTOR ( 'NONE', #377, 1000.000000000000000 ) ;
#760 = EDGE_CURVE ( 'NONE', #675, #1334, #61, .T. ) ;
#761 = AXIS2_PLACEMENT_3D ( 'NONE', #1122, #717, #89 ) ;
#762 = CARTESIAN_POINT ( 'NONE',  ( -3.469446951953614189E-15, 1.387778780781445676E-14, 4.999999999998679279 ) ) ;
#763 = DIRECTION ( 'NONE',  ( 1.406398393993557086E-15, -3.937411383316592783E-16, 1.000000000000000000 ) ) ;
#764 = VECTOR ( 'NONE', #1063, 1000.000000000000000 ) ;
#765 = DIRECTION ( 'NONE',  ( 0.9510565162951535312, 0.3090169943749475068, -1.156482317317870344E-15 ) ) ;
#766 = ORIENTED_EDGE ( 'NONE', *, *, #1162, .F. ) ;
#767 = DIRECTION ( 'NONE',  ( 1.224646799147353207E-16, 1.000000000000000000, 0.000000000000000000 ) ) ;
#768 = LINE ( 'NONE', #1181, #293 ) ;
#769 = EDGE_CURVE ( 'NONE', #351, #555, #163, .T. ) ;
#770 = ORIENTED_EDGE ( 'NONE', *, *, #1143, .T. ) ;
#771 = EDGE_CURVE ( 'NONE', #511, #1003, #704, .T. ) ;
#772 = VERTEX_POINT ( 'NONE', #1220 ) ;
#773 = DIRECTION ( 'NONE',  ( -0.000000000000000000, 0.000000000000000000, 1.000000000000000000 ) ) ;
#774 = CARTESIAN_POINT ( 'NONE',  ( -5.949999999999999289, 6.000000000000001776, 6.000000000000000000 ) ) ;
#775 = AXIS2_PLACEMENT_3D ( 'NONE', #223, #763, #550 ) ;
#776 = AXIS2_PLACEMENT_3D ( 'NONE', #615, #711, #297 ) ;
#777 = EDGE_LOOP ( 'NONE', ( #404, #185, #1244, #249 ) ) ;
#778 = ADVANCED_FACE ( 'NONE', ( #1118, #182, #600, #1016, #93, #17 ), #522, .T. ) ;
#779 = DIRECTION ( 'NONE',  ( 0.9510565162951534202, 0.3090169943749476178, -1.156482317317869950E-15 ) ) ;
#780 = ORIENTED_EDGE ( 'NONE', *, *, #1143, .F. ) ;
#781 = FACE_OUTER_BOUND ( 'NONE', #441, .T. ) ;
#782 = CARTESIAN_POINT ( 'NONE',  ( 2.069494673095137942E-15, -19.00000000000000355, 20.00000000000000000 ) ) ;
#783 = VECTOR ( 'NONE', #1154, 1000.000000000000000 ) ;
#784 = ORIENTED_EDGE ( 'NONE', *, *, #1224, .T. ) ;
#785 = AXIS2_PLACEMENT_3D ( 'NONE', #1233, #298, #1305 ) ;
#786 = VERTEX_POINT ( 'NONE', #1039 ) ;
#787 = CYLINDRICAL_SURFACE ( 'NONE', #307, 2.799999999999997158 ) ;
#788 = EDGE_LOOP ( 'NONE', ( #452, #929 ) ) ;
#789 = EDGE_CURVE ( 'NONE', #488, #481, #1032, .T. ) ;
#790 = CARTESIAN_POINT ( 'NONE',  ( 0.000000000000000000, 0.000000000000000000, 0.000000000000000000 ) ) ;
#791 = CARTESIAN_POINT ( 'NONE',  ( 5.949999999999999289, 6.000000000000001776, 5.000000000000000000 ) ) ;
#792 = ORIENTED_EDGE ( 'NONE', *, *, #863, .F. ) ;
#793 = LINE ( 'NONE', #461, #83 ) ;
#794 = ORIENTED_EDGE ( 'NONE', *, *, #145, .F. ) ;
#795 = ORIENTED_EDGE ( 'NONE', *, *, #827, .T. ) ;
#796 = LINE ( 'NONE', #1283, #544 ) ;
#797 = ORIENTED_EDGE ( 'NONE', *, *, #84, .T. ) ;
#798 = EDGE_CURVE ( 'NONE', #894, #35, #1078, .T. ) ;
#799 = DIRECTION ( 'NONE',  ( 1.224646799147353207E-16, 1.000000000000000000, 0.000000000000000000 ) ) ;
#800 = ORIENTED_EDGE ( 'NONE', *, *, #245, .F. ) ;
#801 = AXIS2_PLACEMENT_3D ( 'NONE', #1256, #983, #273 ) ;
#802 = ORIENTED_EDGE ( 'NONE', *, *, #1082, .T. ) ;
#803 = CARTESIAN_POINT ( 'NONE',  ( 8.000000000000001776, -6.000000000000000000, 7.000000000000000000 ) ) ;
#804 = VERTEX_POINT ( 'NONE', #1132 ) ;
#805 = CARTESIAN_POINT ( 'NONE',  ( -15.92647058823530593, 34.00000000000000000, 0.000000000000000000 ) ) ;
#806 = DIRECTION ( 'NONE',  ( -1.089207722681651192E-16, 1.000000000000000000, 0.000000000000000000 ) ) ;
#807 = ADVANCED_FACE ( 'NONE', ( #1149 ), #1123, .F. ) ;
#808 = PRODUCT ( 'sub\X2\8235673a5e955ea7\X0\', 'sub\X2\8235673a5e955ea7\X0\', '', ( #350 ) ) ;
#809 = CIRCLE ( 'NONE', #1170, 1.050000000000000488 ) ;
#810 = ORIENTED_EDGE ( 'NONE', *, *, #889, .T. ) ;
#811 = AXIS2_PLACEMENT_3D ( 'NONE', #1098, #1022, #1320 ) ;
#812 = AXIS2_PLACEMENT_3D ( 'NONE', #638, #231, #132 ) ;
#813 = FACE_OUTER_BOUND ( 'NONE', #496, .T. ) ;
#814 = ORIENTED_EDGE ( 'NONE', *, *, #655, .T. ) ;
#815 = FACE_OUTER_BOUND ( 'NONE', #904, .T. ) ;
#816 = DIRECTION ( 'NONE',  ( -0.000000000000000000, -0.000000000000000000, -1.000000000000000000 ) ) ;
#817 = ORIENTED_EDGE ( 'NONE', *, *, #33, .T. ) ;
#818 = CARTESIAN_POINT ( 'NONE',  ( 8.000000000000001776, -6.000000000000000000, 7.000000000000000000 ) ) ;
#819 = FACE_OUTER_BOUND ( 'NONE', #643, .T. ) ;
#820 = AXIS2_PLACEMENT_3D ( 'NONE', #963, #547, #343 ) ;
#821 = CARTESIAN_POINT ( 'NONE',  ( 0.000000000000000000, 17.00000000000000000, 20.00000000000000000 ) ) ;
#822 = AXIS2_PLACEMENT_3D ( 'NONE', #295, #1223, #195 ) ;
#823 = CARTESIAN_POINT ( 'NONE',  ( -9.049999999999998934, -6.000000000000003553, 7.000000000000000000 ) ) ;
#824 = ORIENTED_EDGE ( 'NONE', *, *, #870, .F. ) ;
#825 = DIRECTION ( 'NONE',  ( 1.406398393993557086E-15, -3.937411383316592783E-16, 1.000000000000000000 ) ) ;
#826 = ORIENTED_EDGE ( 'NONE', *, *, #577, .T. ) ;
#827 = EDGE_CURVE ( 'NONE', #158, #668, #715, .T. ) ;
#828 = ORIENTED_EDGE ( 'NONE', *, *, #123, .T. ) ;
#829 = CIRCLE ( 'NONE', #612, 2.050000000000000711 ) ;
#830 = AXIS2_PLACEMENT_3D ( 'NONE', #678, #884, #1090 ) ;
#831 = CYLINDRICAL_SURFACE ( 'NONE', #847, 1.049999999999998934 ) ;
#832 = DIRECTION ( 'NONE',  ( 1.000000000000000000, 0.000000000000000000, 0.000000000000000000 ) ) ;
#833 = ORIENTED_EDGE ( 'NONE', *, *, #743, .T. ) ;
#834 = CARTESIAN_POINT ( 'NONE',  ( 10.92647058823530060, 0.000000000000000000, 0.000000000000000000 ) ) ;
#835 = DIRECTION ( 'NONE',  ( -0.000000000000000000, 0.3162277660168378857, 0.9486832980505138790 ) ) ;
#836 = LINE ( 'NONE', #98, #489 ) ;
#837 = EDGE_LOOP ( 'NONE', ( #497, #79 ) ) ;
#838 = LINE ( 'NONE', #521, #696 ) ;
#839 = CARTESIAN_POINT ( 'NONE',  ( -1.040834085586084257E-14, 1.387778780781445676E-14, 1.899999999998680522 ) ) ;
#840 = ORIENTED_EDGE ( 'NONE', *, *, #1013, .F. ) ;
#841 = VECTOR ( 'NONE', #1229, 1000.000000000000000 ) ;
#842 = VECTOR ( 'NONE', #1002, 1000.000000000000000 ) ;
#843 = DIRECTION ( 'NONE',  ( -0.000000000000000000, 0.000000000000000000, 1.000000000000000000 ) ) ;
#844 = VERTEX_POINT ( 'NONE', #306 ) ;
#845 = ADVANCED_FACE ( 'NONE', ( #515 ), #1322, .F. ) ;
#846 = DIRECTION ( 'NONE',  ( 1.000000000000000000, 0.000000000000000000, 0.000000000000000000 ) ) ;
#847 = AXIS2_PLACEMENT_3D ( 'NONE', #818, #1242, #1006 ) ;
#848 = ORIENTED_EDGE ( 'NONE', *, *, #729, .T. ) ;
#849 = AXIS2_PLACEMENT_3D ( 'NONE', #1299, #1075, #997 ) ;
#850 = SURFACE_STYLE_USAGE ( .BOTH. , #1255 ) ;
#851 = CARTESIAN_POINT ( 'NONE',  ( -1.387778780781445676E-14, 26.49999999999999645, 4.999999999999948486 ) ) ;
#852 = ADVANCED_FACE ( 'NONE', ( #935 ), #397, .T. ) ;
#853 = CARTESIAN_POINT ( 'NONE',  ( 10.92647058823530060, 34.00000000000000000, 5.000000000000000000 ) ) ;
#854 = CARTESIAN_POINT ( 'NONE',  ( -8.000000000000000000, 6.000000000000001776, 7.000000000000000000 ) ) ;
#855 = VERTEX_POINT ( 'NONE', #101 ) ;
#856 = CARTESIAN_POINT ( 'NONE',  ( 8.000000000000001776, -6.000000000000000000, 6.000000000000000000 ) ) ;
#857 = CARTESIAN_POINT ( 'NONE',  ( -1.387778780781445676E-14, 26.49999999999999645, 4.999999999999948486 ) ) ;
#858 = DIRECTION ( 'NONE',  ( -0.000000000000000000, -0.000000000000000000, -1.000000000000000000 ) ) ;
#859 = LINE ( 'NONE', #757, #1184 ) ;
#860 = ORIENTED_EDGE ( 'NONE', *, *, #264, .F. ) ;
#861 = CIRCLE ( 'NONE', #440, 1.050000000000000488 ) ;
#862 = DIRECTION ( 'NONE',  ( -0.000000000000000000, 0.000000000000000000, 1.000000000000000000 ) ) ;
#863 = EDGE_CURVE ( 'NONE', #511, #663, #190, .T. ) ;
#864 = CARTESIAN_POINT ( 'NONE',  ( -1.734723475976807094E-14, 26.49999999999999645, 1.899999999999950395 ) ) ;
#865 = DIRECTION ( 'NONE',  ( 0.000000000000000000, -0.000000000000000000, -1.000000000000000000 ) ) ;
#866 = ORIENTED_EDGE ( 'NONE', *, *, #552, .T. ) ;
#867 = AXIS2_PLACEMENT_3D ( 'NONE', #212, #126, #846 ) ;
#868 = CARTESIAN_POINT ( 'NONE',  ( -14.25000000000000000, 0.000000000000000000, 5.000000000000000000 ) ) ;
#869 = DIRECTION ( 'NONE',  ( 1.000000000000000000, 0.000000000000000000, -0.000000000000000000 ) ) ;
#870 = EDGE_CURVE ( 'NONE', #896, #1199, #535, .T. ) ;
#871 = AXIS2_PLACEMENT_3D ( 'NONE', #442, #1102, #174 ) ;
#872 = DIRECTION ( 'NONE',  ( 1.406398393993557086E-15, -3.937411383316592783E-16, 1.000000000000000000 ) ) ;
#873 = EDGE_LOOP ( 'NONE', ( #888, #410 ) ) ;
#874 = DIRECTION ( 'NONE',  ( -0.9510565162951535312, -0.3090169943749475623, 1.215891653985589582E-15 ) ) ;
#875 = CARTESIAN_POINT ( 'NONE',  ( 8.000000000000001776, -6.000000000000000000, 7.000000000000000000 ) ) ;
#876 = EDGE_CURVE ( 'NONE', #1121, #242, #319, .T. ) ;
#877 = DIRECTION ( 'NONE',  ( 1.000000000000000000, 0.000000000000000000, 0.000000000000000000 ) ) ;
#878 = ORIENTED_EDGE ( 'NONE', *, *, #687, .T. ) ;
#879 = DIRECTION ( 'NONE',  ( -0.000000000000000000, 0.000000000000000000, 1.000000000000000000 ) ) ;
#880 = FACE_OUTER_BOUND ( 'NONE', #128, .T. ) ;
#881 = AXIS2_PLACEMENT_3D ( 'NONE', #572, #468, #976 ) ;
#882 = ORIENTED_EDGE ( 'NONE', *, *, #1150, .T. ) ;
#883 = EDGE_CURVE ( 'NONE', #1005, #183, #735, .T. ) ;
#884 = DIRECTION ( 'NONE',  ( 1.406398393993557086E-15, -3.937411383316592783E-16, 1.000000000000000000 ) ) ;
#885 = ORIENTED_EDGE ( 'NONE', *, *, #421, .F. ) ;
#886 = DIRECTION ( 'NONE',  ( -0.000000000000000000, 0.000000000000000000, 1.000000000000000000 ) ) ;
#887 = AXIS2_PLACEMENT_3D ( 'NONE', #451, #560, #765 ) ;
#888 = ORIENTED_EDGE ( 'NONE', *, *, #1013, .T. ) ;
#889 = EDGE_CURVE ( 'NONE', #1024, #1311, #1329, .T. ) ;
#890 = FACE_OUTER_BOUND ( 'NONE', #539, .T. ) ;
#891 = EDGE_LOOP ( 'NONE', ( #209, #794, #979, #986 ) ) ;
#892 = DIRECTION ( 'NONE',  ( -1.000000000000000000, 0.000000000000000000, 0.000000000000000000 ) ) ;
#893 = CARTESIAN_POINT ( 'NONE',  ( -2.069494673095137153E-15, 18.99999999999999645, 5.000000000000000000 ) ) ;
#894 = VERTEX_POINT ( 'NONE', #529 ) ;
#895 = ORIENTED_EDGE ( 'NONE', *, *, #1025, .T. ) ;
#896 = VERTEX_POINT ( 'NONE', #730 ) ;
#897 = DIRECTION ( 'NONE',  ( -0.000000000000000000, -0.000000000000000000, -1.000000000000000000 ) ) ;
#898 = EDGE_CURVE ( 'NONE', #682, #786, #360, .T. ) ;
#899 = ORIENTED_EDGE ( 'NONE', *, *, #543, .F. ) ;
#900 = CARTESIAN_POINT ( 'NONE',  ( -2.615405419811691612, 25.65020326546888896, 1.899999999999953504 ) ) ;
#901 = LINE ( 'NONE', #782, #80 ) ;
#902 = AXIS2_PLACEMENT_3D ( 'NONE', #893, #806, #1302 ) ;
#903 = CIRCLE ( 'NONE', #801, 1.500000000000001332 ) ;
#904 = EDGE_LOOP ( 'NONE', ( #1222, #514, #934, #252 ) ) ;
#905 = CARTESIAN_POINT ( 'NONE',  ( -14.25000000000000000, 17.00000000000000000, 20.00000000000000000 ) ) ;
#906 = EDGE_CURVE ( 'NONE', #978, #719, #215, .T. ) ;
#907 = CARTESIAN_POINT ( 'NONE',  ( -10.05000000000000071, -6.000000000000003553, 5.000000000000000000 ) ) ;
#908 = DIRECTION ( 'NONE',  ( 0.000000000000000000, 1.000000000000000000, -0.000000000000000000 ) ) ;
#909 = VECTOR ( 'NONE', #556, 1000.000000000000000 ) ;
#910 = VERTEX_POINT ( 'NONE', #251 ) ;
#911 = AXIS2_PLACEMENT_3D ( 'NONE', #40, #19, #315 ) ;
#912 = EDGE_LOOP ( 'NONE', ( #800, #70, #370, #1240 ) ) ;
#913 = FACE_OUTER_BOUND ( 'NONE', #519, .T. ) ;
#914 = CARTESIAN_POINT ( 'NONE',  ( 15.92647058823530237, 0.000000000000000000, 20.00000000000000000 ) ) ;
#915 = ORIENTED_EDGE ( 'NONE', *, *, #898, .F. ) ;
#916 = DIRECTION ( 'NONE',  ( 0.9510565162951535312, 0.3090169943749472847, -1.182766006347821728E-15 ) ) ;
#917 = CARTESIAN_POINT ( 'NONE',  ( 1.426584774442718029, 26.96352549156241807, 4.999999999999947597 ) ) ;
#918 = ORIENTED_EDGE ( 'NONE', *, *, #291, .T. ) ;
#919 = DIRECTION ( 'NONE',  ( 2.312964634635741971E-16, -1.000000000000000000, -0.000000000000000000 ) ) ;
#920 = ADVANCED_FACE ( 'NONE', ( #433, #236 ), #328, .F. ) ;
#921 = AXIS2_PLACEMENT_3D ( 'NONE', #774, #1190, #82 ) ;
#922 = VERTEX_POINT ( 'NONE', #653 ) ;
#923 = FACE_OUTER_BOUND ( 'NONE', #1219, .T. ) ;
#924 = CARTESIAN_POINT ( 'NONE',  ( 0.000000000000000000, 0.000000000000000000, 7.000000000000000000 ) ) ;
#925 = EDGE_LOOP ( 'NONE', ( #994, #394, #420, #1276 ) ) ;
#926 = DIRECTION ( 'NONE',  ( 0.000000000000000000, 1.000000000000000000, 0.000000000000000000 ) ) ;
#927 = AXIS2_PLACEMENT_3D ( 'NONE', #970, #672, #680 ) ;
#928 = AXIS2_PLACEMENT_3D ( 'NONE', #744, #843, #220 ) ;
#929 = ORIENTED_EDGE ( 'NONE', *, *, #707, .F. ) ;
#930 = AXIS2_PLACEMENT_3D ( 'NONE', #1225, #1133, #1020 ) ;
#931 = ADVANCED_FACE ( 'NONE', ( #557 ), #966, .T. ) ;
#932 = CARTESIAN_POINT ( 'NONE',  ( 8.000000000000000000, 6.000000000000001776, 6.000000000000000000 ) ) ;
#933 = DIRECTION ( 'NONE',  ( -0.000000000000000000, -0.000000000000000000, -1.000000000000000000 ) ) ;
#934 = ORIENTED_EDGE ( 'NONE', *, *, #279, .T. ) ;
#935 = FACE_OUTER_BOUND ( 'NONE', #505, .T. ) ;
#936 = EDGE_CURVE ( 'NONE', #626, #516, #942, .T. ) ;
#937 = CARTESIAN_POINT ( 'NONE',  ( 14.25000000000000000, 17.00000000000000000, 20.00000000000000000 ) ) ;
#938 = CARTESIAN_POINT ( 'NONE',  ( 8.000000000000001776, -6.000000000000000000, 5.000000000000000000 ) ) ;
#939 = ORIENTED_EDGE ( 'NONE', *, *, #1156, .F. ) ;
#940 = CARTESIAN_POINT ( 'NONE',  ( -1.426584774442751113, 26.03647450843757483, 0.000000000000000000 ) ) ;
#941 = AXIS2_PLACEMENT_3D ( 'NONE', #439, #742, #1155 ) ;
#942 = CIRCLE ( 'NONE', #490, 2.750000000000003109 ) ;
#943 = CARTESIAN_POINT ( 'NONE',  ( -14.25000000000000000, -19.00000000000000355, 20.00000000000000000 ) ) ;
#944 = FACE_OUTER_BOUND ( 'NONE', #268, .T. ) ;
#945 = VERTEX_POINT ( 'NONE', #1061 ) ;
#946 = EDGE_CURVE ( 'NONE', #1058, #1311, #353, .T. ) ;
#947 = DIRECTION ( 'NONE',  ( 1.406398393993557086E-15, -3.937411383316592783E-16, 1.000000000000000000 ) ) ;
#948 = DIRECTION ( 'NONE',  ( -0.000000000000000000, 0.000000000000000000, 1.000000000000000000 ) ) ;
#949 = MECHANICAL_DESIGN_GEOMETRIC_PRESENTATION_REPRESENTATION (  '', ( #25 ), #470 ) ;
#950 = DIRECTION ( 'NONE',  ( -0.000000000000000000, -0.000000000000000000, -1.000000000000000000 ) ) ;
#951 = TOROIDAL_SURFACE ( 'NONE', #1018, 2.050000000000000711, 1.000000000000000000 ) ;
#952 = LINE ( 'NONE', #425, #1324 ) ;
#953 = ORIENTED_EDGE ( 'NONE', *, *, #154, .T. ) ;
#954 = VECTOR ( 'NONE', #962, 1000.000000000000000 ) ;
#955 = PLANE ( 'NONE',  #320 ) ;
#956 = CARTESIAN_POINT ( 'NONE',  ( 8.000000000000001776, -6.000000000000000000, 5.000000000000000000 ) ) ;
#957 = ORIENTED_EDGE ( 'NONE', *, *, #545, .F. ) ;
#958 = LINE ( 'NONE', #235, #427 ) ;
#959 = CARTESIAN_POINT ( 'NONE',  ( -15.92647058823530237, 18.99999999999999645, 20.00000000000000000 ) ) ;
#960 = ORIENTED_EDGE ( 'NONE', *, *, #1182, .T. ) ;
#961 = ADVANCED_FACE ( 'NONE', ( #1267 ), #646, .F. ) ;
#962 = DIRECTION ( 'NONE',  ( 1.000000000000000000, 1.089207722681651315E-16, 0.000000000000000000 ) ) ;
#963 = CARTESIAN_POINT ( 'NONE',  ( 0.000000000000000000, 0.000000000000000000, 0.000000000000000000 ) ) ;
#964 = ORIENTED_EDGE ( 'NONE', *, *, #1270, .T. ) ;
#965 = CARTESIAN_POINT ( 'NONE',  ( 9.050000000000000711, 6.000000000000001776, 7.000000000000000000 ) ) ;
#966 = CYLINDRICAL_SURFACE ( 'NONE', #1055, 1.050000000000000488 ) ;
#967 = CARTESIAN_POINT ( 'NONE',  ( 5.950000000000003730, -6.000000000000000000, 6.000000000000000000 ) ) ;
#968 = ORIENTED_EDGE ( 'NONE', *, *, #889, .F. ) ;
#969 = AXIS2_PLACEMENT_3D ( 'NONE', #81, #607, #493 ) ;
#970 = CARTESIAN_POINT ( 'NONE',  ( 8.000000000000000000, 6.000000000000001776, 6.000000000000000000 ) ) ;
#971 = CARTESIAN_POINT ( 'NONE',  ( -2.662958245626430465, -0.8652475842498378311, 4.999999999998682831 ) ) ;
#972 = CARTESIAN_POINT ( 'NONE',  ( -2.615405419811689391, 25.65020326546888896, 4.999999999999952038 ) ) ;
#973 = ORIENTED_EDGE ( 'NONE', *, *, #1033, .T. ) ;
#974 = EDGE_CURVE ( 'NONE', #945, #1077, #57, .T. ) ;
#975 = DIRECTION ( 'NONE',  ( -0.000000000000000000, 0.000000000000000000, 1.000000000000000000 ) ) ;
#976 = DIRECTION ( 'NONE',  ( 0.9510565162951535312, 0.3090169943749475068, -1.156482317317870344E-15 ) ) ;
#977 = ORIENTED_EDGE ( 'NONE', *, *, #6, .T. ) ;
#978 = VERTEX_POINT ( 'NONE', #1176 ) ;
#979 = ORIENTED_EDGE ( 'NONE', *, *, #1127, .T. ) ;
#980 = DIRECTION ( 'NONE',  ( 1.406398393993556297E-15, -3.937411383316627789E-16, 1.000000000000000000 ) ) ;
#981 = VERTEX_POINT ( 'NONE', #665 ) ;
#982 = DIRECTION ( 'NONE',  ( -0.000000000000000000, -0.000000000000000000, -1.000000000000000000 ) ) ;
#983 = DIRECTION ( 'NONE',  ( -0.000000000000000000, 0.000000000000000000, 1.000000000000000000 ) ) ;
#984 = CIRCLE ( 'NONE', #1284, 1.049999999999998934 ) ;
#985 = AXIS2_PLACEMENT_3D ( 'NONE', #834, #112, #210 ) ;
#986 = ORIENTED_EDGE ( 'NONE', *, *, #594, .T. ) ;
#987 = VERTEX_POINT ( 'NONE', #43 ) ;
#988 = DIRECTION ( 'NONE',  ( -1.089207722681651315E-16, 1.000000000000000000, 0.000000000000000000 ) ) ;
#989 = ORIENTED_EDGE ( 'NONE', *, *, #1211, .T. ) ;
#990 = CARTESIAN_POINT ( 'NONE',  ( -15.92647058823529882, -2.908212886196413518E-15, 0.000000000000000000 ) ) ;
#991 = AXIS2_PLACEMENT_3D ( 'NONE', #1281, #773, #575 ) ;
#992 = PLANE ( 'NONE',  #689 ) ;
#993 = CIRCLE ( 'NONE', #498, 1.000000000000000888 ) ;
#994 = ORIENTED_EDGE ( 'NONE', *, *, #471, .F. ) ;
#995 = EDGE_CURVE ( 'NONE', #2, #1334, #1167, .T. ) ;
#996 = ORIENTED_EDGE ( 'NONE', *, *, #1249, .F. ) ;
#997 = DIRECTION ( 'NONE',  ( 1.000000000000000000, 0.000000000000000000, 0.000000000000000000 ) ) ;
#998 = ORIENTED_EDGE ( 'NONE', *, *, #15, .T. ) ;
#999 = DIRECTION ( 'NONE',  ( 1.000000000000000000, 0.000000000000000000, 0.000000000000000000 ) ) ;
#1000 = FACE_OUTER_BOUND ( 'NONE', #1205, .T. ) ;
#1001 = CARTESIAN_POINT ( 'NONE',  ( -15.92647058823529527, -19.00000000000000355, 20.00000000000000000 ) ) ;
#1002 = DIRECTION ( 'NONE',  ( -0.000000000000000000, -0.000000000000000000, -1.000000000000000000 ) ) ;
#1003 = VERTEX_POINT ( 'NONE', #228 ) ;
#1004 = ADVANCED_FACE ( 'NONE', ( #134 ), #955, .T. ) ;
#1005 = VERTEX_POINT ( 'NONE', #660 ) ;
#1006 = DIRECTION ( 'NONE',  ( -1.000000000000000000, 0.000000000000000000, 0.000000000000000000 ) ) ;
#1007 = DIRECTION ( 'NONE',  ( -0.000000000000000000, 0.000000000000000000, 1.000000000000000000 ) ) ;
#1008 = CARTESIAN_POINT ( 'NONE',  ( 8.000000000000000000, 6.000000000000001776, 7.000000000000000000 ) ) ;
#1009 = AXIS2_PLACEMENT_3D ( 'NONE', #924, #1, #832 ) ;
#1010 = AXIS2_PLACEMENT_3D ( 'NONE', #203, #406, #423 ) ;
#1011 = ORIENTED_EDGE ( 'NONE', *, *, #769, .T. ) ;
#1012 = ORIENTED_EDGE ( 'NONE', *, *, #224, .T. ) ;
#1013 = EDGE_CURVE ( 'NONE', #1199, #896, #318, .T. ) ;
#1014 = DIRECTION ( 'NONE',  ( -0.000000000000000000, 0.000000000000000000, 1.000000000000000000 ) ) ;
#1015 = CARTESIAN_POINT ( 'NONE',  ( -5.949999999999999289, 6.000000000000001776, 5.000000000000000000 ) ) ;
#1016 = FACE_BOUND ( 'NONE', #1128, .T. ) ;
#1017 = CIRCLE ( 'NONE', #1194, 1.000000000000000000 ) ;
#1018 = AXIS2_PLACEMENT_3D ( 'NONE', #932, #1014, #8 ) ;
#1019 = CIRCLE ( 'NONE', #830, 1.500000000000001332 ) ;
#1020 = DIRECTION ( 'NONE',  ( -1.000000000000000000, 0.000000000000000000, 0.000000000000000000 ) ) ;
#1021 = ORIENTED_EDGE ( 'NONE', *, *, #143, .F. ) ;
#1022 = DIRECTION ( 'NONE',  ( 0.000000000000000000, -0.000000000000000000, -1.000000000000000000 ) ) ;
#1023 = CARTESIAN_POINT ( 'NONE',  ( 6.949999999999999289, 6.000000000000001776, 7.000000000000000000 ) ) ;
#1024 = VERTEX_POINT ( 'NONE', #959 ) ;
#1025 = EDGE_CURVE ( 'NONE', #35, #532, #768, .T. ) ;
#1026 = DIRECTION ( 'NONE',  ( -1.000000000000000000, -1.826024711554534160E-16, 0.000000000000000000 ) ) ;
#1027 = VERTEX_POINT ( 'NONE', #645 ) ;
#1028 = DIRECTION ( 'NONE',  ( 0.9510565162951536422, 0.3090169943749474513, -1.239088197126292050E-15 ) ) ;
#1029 = CARTESIAN_POINT ( 'NONE',  ( -14.25000000000000000, 17.00000000000000000, 20.00000000000000000 ) ) ;
#1030 = EDGE_LOOP ( 'NONE', ( #300, #589 ) ) ;
#1031 = CARTESIAN_POINT ( 'NONE',  ( 8.000000000000001776, -6.000000000000000000, 6.000000000000000000 ) ) ;
#1032 = LINE ( 'NONE', #1139, #253 ) ;
#1033 = EDGE_CURVE ( 'NONE', #855, #1103, #38, .T. ) ;
#1034 = AXIS2_PLACEMENT_3D ( 'NONE', #138, #745, #1057 ) ;
#1035 = ORIENTED_EDGE ( 'NONE', *, *, #234, .F. ) ;
#1036 = DIRECTION ( 'NONE',  ( 1.406398393993557086E-15, -3.937411383316592783E-16, 1.000000000000000000 ) ) ;
#1037 = CARTESIAN_POINT ( 'NONE',  ( 1.426584774442721137, 0.4635254915624355543, 1.899999999998678746 ) ) ;
#1038 = ORIENTED_EDGE ( 'NONE', *, *, #1224, .F. ) ;
#1039 = CARTESIAN_POINT ( 'NONE',  ( -9.049999999999998934, -6.000000000000003553, 6.000000000000000000 ) ) ;
#1040 = ORIENTED_EDGE ( 'NONE', *, *, #39, .F. ) ;
#1041 = ADVANCED_FACE ( 'NONE', ( #1080 ), #23, .F. ) ;
#1042 = AXIS2_PLACEMENT_3D ( 'NONE', #499, #187, #1116 ) ;
#1043 = CIRCLE ( 'NONE', #785, 2.750000000000003109 ) ;
#1044 = FACE_OUTER_BOUND ( 'NONE', #891, .T. ) ;
#1045 = LINE ( 'NONE', #316, #1160 ) ;
#1046 = EDGE_LOOP ( 'NONE', ( #1040, #915, #833, #87 ) ) ;
#1047 = PRESENTATION_STYLE_ASSIGNMENT (( #850 ) ) ;
#1048 = DIRECTION ( 'NONE',  ( -0.000000000000000000, -0.000000000000000000, -1.000000000000000000 ) ) ;
#1049 = EDGE_CURVE ( 'NONE', #896, #158, #149, .T. ) ;
#1050 = DIRECTION ( 'NONE',  ( 2.312964634635741971E-16, -1.000000000000000000, 0.000000000000000000 ) ) ;
#1051 = ORIENTED_EDGE ( 'NONE', *, *, #192, .F. ) ;
#1052 = CARTESIAN_POINT ( 'NONE',  ( 0.000000000000000000, 0.000000000000000000, 20.00000000000000000 ) ) ;
#1053 = DIRECTION ( 'NONE',  ( -1.000000000000000000, -1.826024711554534160E-16, 0.000000000000000000 ) ) ;
#1054 = AXIS2_PLACEMENT_3D ( 'NONE', #507, #933, #188 ) ;
#1055 = AXIS2_PLACEMENT_3D ( 'NONE', #122, #141, #1073 ) ;
#1056 = CYLINDRICAL_SURFACE ( 'NONE', #1274, 1.050000000000000488 ) ;
#1057 = DIRECTION ( 'NONE',  ( -1.000000000000000000, 0.000000000000000000, 0.000000000000000000 ) ) ;
#1058 = VERTEX_POINT ( 'NONE', #454 ) ;
#1059 = EDGE_CURVE ( 'NONE', #804, #480, #903, .T. ) ;
#1060 = DIRECTION ( 'NONE',  ( -0.000000000000000000, 0.000000000000000000, 1.000000000000000000 ) ) ;
#1061 = CARTESIAN_POINT ( 'NONE',  ( 9.050000000000000711, 6.000000000000001776, 6.000000000000000000 ) ) ;
#1062 = AXIS2_PLACEMENT_3D ( 'NONE', #549, #438, #22 ) ;
#1063 = DIRECTION ( 'NONE',  ( 0.000000000000000000, 0.000000000000000000, -1.000000000000000000 ) ) ;
#1064 = ORIENTED_EDGE ( 'NONE', *, *, #39, .T. ) ;
#1065 = CIRCLE ( 'NONE', #520, 1.500000000000001998 ) ;
#1066 = CYLINDRICAL_SURFACE ( 'NONE', #326, 1.500000000000001332 ) ;
#1067 = CARTESIAN_POINT ( 'NONE',  ( 8.000000000000001776, -6.000000000000000000, 6.000000000000000000 ) ) ;
#1068 = ADVANCED_FACE ( 'NONE', ( #880 ), #591, .F. ) ;
#1069 = EDGE_CURVE ( 'NONE', #1310, #481, #76, .T. ) ;
#1070 = DIRECTION ( 'NONE',  ( -1.000000000000000000, -2.312964634635741971E-16, 0.000000000000000000 ) ) ;
#1071 = ORIENTED_EDGE ( 'NONE', *, *, #685, .T. ) ;
#1072 = FILL_AREA_STYLE ('',( #652 ) ) ;
#1073 = DIRECTION ( 'NONE',  ( -1.000000000000000000, 0.000000000000000000, 0.000000000000000000 ) ) ;
#1074 = ADVANCED_FACE ( 'NONE', ( #681 ), #1217, .T. ) ;
#1075 = DIRECTION ( 'NONE',  ( -0.000000000000000000, 0.000000000000000000, 1.000000000000000000 ) ) ;
#1076 = VECTOR ( 'NONE', #825, 1000.000000000000000 ) ;
#1077 = VERTEX_POINT ( 'NONE', #53 ) ;
#1078 = CIRCLE ( 'NONE', #1010, 1.500000000000001332 ) ;
#1079 = CARTESIAN_POINT ( 'NONE',  ( -8.000000000000000000, 6.000000000000001776, 5.000000000000000000 ) ) ;
#1080 = FACE_OUTER_BOUND ( 'NONE', #1261, .T. ) ;
#1081 = ORIENTED_EDGE ( 'NONE', *, *, #707, .T. ) ;
#1082 = EDGE_CURVE ( 'NONE', #844, #511, #901, .T. ) ;
#1083 = FACE_OUTER_BOUND ( 'NONE', #1165, .T. ) ;
#1084 = ORIENTED_EDGE ( 'NONE', *, *, #731, .T. ) ;
#1085 = DIRECTION ( 'NONE',  ( 0.000000000000000000, -1.000000000000000000, 0.000000000000000000 ) ) ;
#1086 = DIRECTION ( 'NONE',  ( -0.000000000000000000, 0.000000000000000000, 1.000000000000000000 ) ) ;
#1087 = CIRCLE ( 'NONE', #429, 1.050000000000000488 ) ;
#1088 = ORIENTED_EDGE ( 'NONE', *, *, #245, .T. ) ;
#1089 = ADVANCED_FACE ( 'NONE', ( #1000 ), #713, .F. ) ;
#1090 = DIRECTION ( 'NONE',  ( 0.9510565162951535312, 0.3090169943749475068, -1.156482317317870344E-15 ) ) ;
#1091 = EDGE_LOOP ( 'NONE', ( #1035, #780, #1140, #71 ) ) ;
#1092 = CARTESIAN_POINT ( 'NONE',  ( 5.950000000000003730, -6.000000000000000000, 5.000000000000000000 ) ) ;
#1093 = DIRECTION ( 'NONE',  ( -5.774397152264310090E-17, 0.3162277660168378857, 0.9486832980505138790 ) ) ;
#1094 = ORIENTED_EDGE ( 'NONE', *, *, #687, .F. ) ;
#1095 = AXIS2_PLACEMENT_3D ( 'NONE', #241, #538, #20 ) ;
#1096 = FACE_OUTER_BOUND ( 'NONE', #1108, .T. ) ;
#1097 = ORIENTED_EDGE ( 'NONE', *, *, #995, .T. ) ;
#1098 = CARTESIAN_POINT ( 'NONE',  ( -7.999999999999998224, -6.000000000000003553, 5.000000000000000000 ) ) ;
#1099 = DIRECTION ( 'NONE',  ( 0.000000000000000000, -0.9486832980505138790, 0.3162277660168378857 ) ) ;
#1100 = ORIENTED_EDGE ( 'NONE', *, *, #1306, .T. ) ;
#1101 = VERTEX_POINT ( 'NONE', #266 ) ;
#1102 = DIRECTION ( 'NONE',  ( 0.000000000000000000, -0.000000000000000000, -1.000000000000000000 ) ) ;
#1103 = VERTEX_POINT ( 'NONE', #791 ) ;
#1104 = DIRECTION ( 'NONE',  ( -1.406398393993556297E-15, 3.937411383316628282E-16, -1.000000000000000000 ) ) ;
#1105 = CIRCLE ( 'NONE', #927, 1.050000000000000488 ) ;
#1106 = DIRECTION ( 'NONE',  ( -0.000000000000000000, -0.000000000000000000, -1.000000000000000000 ) ) ;
#1107 = VECTOR ( 'NONE', #858, 1000.000000000000000 ) ;
#1108 = EDGE_LOOP ( 'NONE', ( #1147, #14, #388, #953, #102, #885, #1297, #701 ) ) ;
#1109 = ADVANCED_FACE ( 'NONE', ( #1287 ), #992, .F. ) ;
#1110 = AXIS2_PLACEMENT_3D ( 'NONE', #714, #1126, #616 ) ;
#1111 = EDGE_LOOP ( 'NONE', ( #111, #288, #413, #817 ) ) ;
#1112 = ORIENTED_EDGE ( 'NONE', *, *, #434, .F. ) ;
#1113 = ADVANCED_FACE ( 'NONE', ( #162 ), #703, .T. ) ;
#1114 = CARTESIAN_POINT ( 'NONE',  ( 9.050000000000000711, -6.000000000000000000, 7.000000000000000000 ) ) ;
#1115 = ORIENTED_EDGE ( 'NONE', *, *, #552, .F. ) ;
#1116 = DIRECTION ( 'NONE',  ( 0.9510565162951534202, 0.3090169943749476178, -1.156482317317869950E-15 ) ) ;
#1117 = DIRECTION ( 'NONE',  ( 1.406398393993557086E-15, -3.937411383316592783E-16, 1.000000000000000000 ) ) ;
#1118 = FACE_BOUND ( 'NONE', #1030, .T. ) ;
#1119 = ORIENTED_EDGE ( 'NONE', *, *, #471, .T. ) ;
#1120 = EDGE_CURVE ( 'NONE', #617, #682, #576, .T. ) ;
#1121 = VERTEX_POINT ( 'NONE', #181 ) ;
#1122 = CARTESIAN_POINT ( 'NONE',  ( -8.000000000000000000, 6.000000000000001776, 6.000000000000000000 ) ) ;
#1123 = PLANE ( 'NONE',  #985 ) ;
#1124 = AXIS2_PLACEMENT_3D ( 'NONE', #385, #1093, #1099 ) ;
#1125 = CIRCLE ( 'NONE', #754, 1.000000000000000000 ) ;
#1126 = DIRECTION ( 'NONE',  ( 0.000000000000000000, -0.000000000000000000, -1.000000000000000000 ) ) ;
#1127 = EDGE_CURVE ( 'NONE', #480, #1179, #365, .T. ) ;
#1128 = EDGE_LOOP ( 'NONE', ( #551, #1071 ) ) ;
#1129 = CARTESIAN_POINT ( 'NONE',  ( -14.25000000000000000, -19.00000000000000355, 5.000000000000000000 ) ) ;
#1130 = DIRECTION ( 'NONE',  ( 0.000000000000000000, -0.000000000000000000, -1.000000000000000000 ) ) ;
#1131 = ADVANCED_FACE ( 'NONE', ( #598 ), #666, .F. ) ;
#1132 = CARTESIAN_POINT ( 'NONE',  ( -1.426584774442741566, -0.4635254915624063554, 0.000000000000000000 ) ) ;
#1133 = DIRECTION ( 'NONE',  ( -0.000000000000000000, -0.000000000000000000, -1.000000000000000000 ) ) ;
#1134 = EDGE_LOOP ( 'NONE', ( #746, #1300 ) ) ;
#1135 = LINE ( 'NONE', #624, #449 ) ;
#1136 = DIRECTION ( 'NONE',  ( -0.000000000000000000, 0.000000000000000000, 1.000000000000000000 ) ) ;
#1137 = ORIENTED_EDGE ( 'NONE', *, *, #798, .F. ) ;
#1138 = EDGE_CURVE ( 'NONE', #639, #1187, #401, .T. ) ;
#1139 = CARTESIAN_POINT ( 'NONE',  ( 10.92647058823530060, 18.99999999999999645, 5.000000000000000000 ) ) ;
#1140 = ORIENTED_EDGE ( 'NONE', *, *, #641, .T. ) ;
#1141 = CARTESIAN_POINT ( 'NONE',  ( 0.000000000000000000, 0.000000000000000000, 7.000000000000000000 ) ) ;
#1142 = CARTESIAN_POINT ( 'NONE',  ( 0.000000000000000000, 34.00000000000000000, 0.000000000000000000 ) ) ;
#1143 = EDGE_CURVE ( 'NONE', #136, #728, #984, .T. ) ;
#1144 = AXIS2_PLACEMENT_3D ( 'NONE', #851, #428, #346 ) ;
#1145 = FACE_OUTER_BOUND ( 'NONE', #1207, .T. ) ;
#1146 = LINE ( 'NONE', #494, #1330 ) ;
#1147 = ORIENTED_EDGE ( 'NONE', *, *, #503, .T. ) ;
#1148 = DIRECTION ( 'NONE',  ( 1.000000000000000000, 0.000000000000000000, 0.000000000000000000 ) ) ;
#1149 = FACE_OUTER_BOUND ( 'NONE', #706, .T. ) ;
#1150 = EDGE_CURVE ( 'NONE', #677, #1179, #381, .T. ) ;
#1151 = CIRCLE ( 'NONE', #1110, 1.050000000000000488 ) ;
#1152 = CARTESIAN_POINT ( 'NONE',  ( 10.92647058823530060, 18.99999999999999645, 5.000000000000000000 ) ) ;
#1153 = ORIENTED_EDGE ( 'NONE', *, *, #585, .F. ) ;
#1154 = DIRECTION ( 'NONE',  ( 0.000000000000000000, 1.000000000000000000, -0.000000000000000000 ) ) ;
#1155 = DIRECTION ( 'NONE',  ( 1.000000000000000000, 0.000000000000000000, 0.000000000000000000 ) ) ;
#1156 = EDGE_CURVE ( 'NONE', #1248, #1077, #396, .T. ) ;
#1157 = CARTESIAN_POINT ( 'NONE',  ( -10.92647058823530415, 34.00000000000000000, 5.000000000000000000 ) ) ;
#1158 = EDGE_LOOP ( 'NONE', ( #325, #491, #1215, #366, #165, #784 ) ) ;
#1159 = CARTESIAN_POINT ( 'NONE',  ( 2.069494673095137942E-15, -19.00000000000000355, 20.00000000000000000 ) ) ;
#1160 = VECTOR ( 'NONE', #1243, 1000.000000000000000 ) ;
#1161 = VECTOR ( 'NONE', #267, 1000.000000000000000 ) ;
#1162 = EDGE_CURVE ( 'NONE', #675, #214, #110, .T. ) ;
#1163 = PLANE ( 'NONE',  #676 ) ;
#1164 =( LENGTH_UNIT ( ) NAMED_UNIT ( * ) SI_UNIT ( .MILLI., .METRE. ) );
#1165 = EDGE_LOOP ( 'NONE', ( #172, #1094 ) ) ;
#1166 = DIRECTION ( 'NONE',  ( 1.000000000000000000, 0.000000000000000000, 0.000000000000000000 ) ) ;
#1167 = LINE ( 'NONE', #1159, #751 ) ;
#1168 = PRODUCT_DEFINITION ( 'æ™', '', #399, #569 ) ;
#1169 = DIRECTION ( 'NONE',  ( -0.000000000000000000, -0.000000000000000000, 1.000000000000000000 ) ) ;
#1170 = AXIS2_PLACEMENT_3D ( 'NONE', #1307, #886, #1294 ) ;
#1171 = PLANE ( 'NONE',  #153 ) ;
#1172 =( NAMED_UNIT ( * ) PLANE_ANGLE_UNIT ( ) SI_UNIT ( $, .RADIAN. ) );
#1173 = ORIENTED_EDGE ( 'NONE', *, *, #743, .F. ) ;
#1174 = AXIS2_PLACEMENT_3D ( 'NONE', #803, #1216, #283 ) ;
#1175 = DIRECTION ( 'NONE',  ( -1.000000000000000000, 0.000000000000000000, 0.000000000000000000 ) ) ;
#1176 = CARTESIAN_POINT ( 'NONE',  ( -9.050000000000000711, 6.000000000000001776, 7.000000000000000000 ) ) ;
#1177 = ADVANCED_FACE ( 'NONE', ( #819 ), #608, .F. ) ;
#1178 = CARTESIAN_POINT ( 'NONE',  ( 15.92647058823530593, 19.00000000000000355, 5.000000000000000000 ) ) ;
#1179 = VERTEX_POINT ( 'NONE', #1037 ) ;
#1180 = FACE_OUTER_BOUND ( 'NONE', #304, .T. ) ;
#1181 = CARTESIAN_POINT ( 'NONE',  ( -1.426584774442745784, 26.03647450843757483, 4.999999999999950262 ) ) ;
#1182 = EDGE_CURVE ( 'NONE', #379, #910, #107, .T. ) ;
#1183 = ORIENTED_EDGE ( 'NONE', *, *, #46, .T. ) ;
#1184 = VECTOR ( 'NONE', #1266, 1000.000000000000000 ) ;
#1185 = DIRECTION ( 'NONE',  ( 0.9510565162951536422, 0.3090169943749474513, -1.239088197126292050E-15 ) ) ;
#1186 = AXIS2_PLACEMENT_3D ( 'NONE', #1141, #625, #734 ) ;
#1187 = VERTEX_POINT ( 'NONE', #1015 ) ;
#1188 = VECTOR ( 'NONE', #919, 1000.000000000000000 ) ;
#1189 = CARTESIAN_POINT ( 'NONE',  ( 0.000000000000000000, 0.000000000000000000, 7.000000000000000000 ) ) ;
#1190 = DIRECTION ( 'NONE',  ( 0.000000000000000000, -1.000000000000000000, 0.000000000000000000 ) ) ;
#1191 = EDGE_CURVE ( 'NONE', #1199, #668, #208, .T. ) ;
#1192 = DIRECTION ( 'NONE',  ( 0.000000000000000000, -0.9486832980505138790, 0.3162277660168378302 ) ) ;
#1193 = ORIENTED_EDGE ( 'NONE', *, *, #1270, .F. ) ;
#1194 = AXIS2_PLACEMENT_3D ( 'NONE', #256, #1085, #664 ) ;
#1195 = CIRCLE ( 'NONE', #928, 1.049999999999998934 ) ;
#1196 = CARTESIAN_POINT ( 'NONE',  ( -10.92647058823530060, 18.99999999999999645, 5.000000000000000000 ) ) ;
#1197 = DIRECTION ( 'NONE',  ( 0.9510565162951535312, 0.3090169943749472847, -1.261617073437676470E-15 ) ) ;
#1198 = DIRECTION ( 'NONE',  ( 0.000000000000000000, -1.000000000000000000, 0.000000000000000000 ) ) ;
#1199 = VERTEX_POINT ( 'NONE', #518 ) ;
#1200 = ORIENTED_EDGE ( 'NONE', *, *, #736, .F. ) ;
#1201 = DIRECTION ( 'NONE',  ( 0.000000000000000000, -0.000000000000000000, -1.000000000000000000 ) ) ;
#1202 = ADVANCED_FACE ( 'NONE', ( #500 ), #710, .T. ) ;
#1203 = ORIENTED_EDGE ( 'NONE', *, *, #883, .F. ) ;
#1204 = LINE ( 'NONE', #990, #651 ) ;
#1205 = EDGE_LOOP ( 'NONE', ( #472, #274, #561, #308 ) ) ;
#1206 = ORIENTED_EDGE ( 'NONE', *, *, #46, .F. ) ;
#1207 = EDGE_LOOP ( 'NONE', ( #722, #312, #96, #1227 ) ) ;
#1208 = AXIS2_PLACEMENT_3D ( 'NONE', #938, #865, #13 ) ;
#1209 = DIRECTION ( 'NONE',  ( 1.406398393993556297E-15, -3.937411383316628282E-16, 1.000000000000000000 ) ) ;
#1210 = ORIENTED_EDGE ( 'NONE', *, *, #398, .T. ) ;
#1211 = EDGE_CURVE ( 'NONE', #894, #758, #718, .T. ) ;
#1212 = FACE_OUTER_BOUND ( 'NONE', #338, .T. ) ;
#1213 = CARTESIAN_POINT ( 'NONE',  ( -6.949999999999997513, -6.000000000000003553, 7.000000000000000000 ) ) ;
#1214 = ORIENTED_EDGE ( 'NONE', *, *, #299, .T. ) ;
#1215 = ORIENTED_EDGE ( 'NONE', *, *, #414, .F. ) ;
#1216 = DIRECTION ( 'NONE',  ( -0.000000000000000000, 0.000000000000000000, 1.000000000000000000 ) ) ;
#1217 = PLANE ( 'NONE',  #1124 ) ;
#1218 = CIRCLE ( 'NONE', #761, 1.050000000000000488 ) ;
#1219 = EDGE_LOOP ( 'NONE', ( #697, #407, #1214, #570 ) ) ;
#1220 = CARTESIAN_POINT ( 'NONE',  ( 10.05000000000000071, -6.000000000000000000, 5.000000000000000000 ) ) ;
#1221 = CARTESIAN_POINT ( 'NONE',  ( 15.92647058823530593, 19.00000000000000000, 20.00000000000000000 ) ) ;
#1222 = ORIENTED_EDGE ( 'NONE', *, *, #577, .F. ) ;
#1223 = DIRECTION ( 'NONE',  ( 0.000000000000000000, -0.000000000000000000, -1.000000000000000000 ) ) ;
#1224 = EDGE_CURVE ( 'NONE', #1310, #1121, #613, .T. ) ;
#1225 = CARTESIAN_POINT ( 'NONE',  ( -8.000000000000000000, 6.000000000000001776, 7.000000000000000000 ) ) ;
#1226 = EDGE_CURVE ( 'NONE', #1027, #488, #409, .T. ) ;
#1227 = ORIENTED_EDGE ( 'NONE', *, *, #685, .F. ) ;
#1228 = DIRECTION ( 'NONE',  ( -0.000000000000000000, -0.000000000000000000, -1.000000000000000000 ) ) ;
#1229 = DIRECTION ( 'NONE',  ( 0.000000000000000000, 0.000000000000000000, -1.000000000000000000 ) ) ;
#1230 = CARTESIAN_POINT ( 'NONE',  ( -10.92647058823530060, 18.99999999999999645, 5.000000000000000000 ) ) ;
#1231 = VECTOR ( 'NONE', #1106, 1000.000000000000000 ) ;
#1232 = VECTOR ( 'NONE', #1053, 1000.000000000000000 ) ;
#1233 = CARTESIAN_POINT ( 'NONE',  ( -1.387778780781445676E-14, 26.49999999999999645, 4.999999999999948486 ) ) ;
#1234 = ORIENTED_EDGE ( 'NONE', *, *, #246, .T. ) ;
#1235 = CARTESIAN_POINT ( 'NONE',  ( 15.92647058823530593, 34.00000000000000000, 5.000000000000000000 ) ) ;
#1236 = ORIENTED_EDGE ( 'NONE', *, *, #705, .T. ) ;
#1237 = CIRCLE ( 'NONE', #991, 1.500000000000001332 ) ;
#1238 = CARTESIAN_POINT ( 'NONE',  ( -15.92647058823529882, -2.908212886196413518E-15, 5.000000000000000000 ) ) ;
#1239 = CIRCLE ( 'NONE', #871, 1.050000000000000488 ) ;
#1240 = ORIENTED_EDGE ( 'NONE', *, *, #1241, .F. ) ;
#1241 = EDGE_CURVE ( 'NONE', #1103, #855, #732, .T. ) ;
#1242 = DIRECTION ( 'NONE',  ( -0.000000000000000000, -0.000000000000000000, -1.000000000000000000 ) ) ;
#1243 = DIRECTION ( 'NONE',  ( 1.000000000000000000, 0.000000000000000000, 0.000000000000000000 ) ) ;
#1244 = ORIENTED_EDGE ( 'NONE', *, *, #1249, .T. ) ;
#1245 = DIRECTION ( 'NONE',  ( -1.000000000000000000, 0.000000000000000000, 0.000000000000000000 ) ) ;
#1246 = CARTESIAN_POINT ( 'NONE',  ( -2.615405419811688947, 25.65020326546888896, 4.999999999999952038 ) ) ;
#1247 = DIRECTION ( 'NONE',  ( 1.000000000000000000, 0.000000000000000000, 0.000000000000000000 ) ) ;
#1248 = VERTEX_POINT ( 'NONE', #1023 ) ;
#1249 = EDGE_CURVE ( 'NONE', #844, #476, #836, .T. ) ;
#1250 = DIRECTION ( 'NONE',  ( 1.000000000000000000, 0.000000000000000000, 0.000000000000000000 ) ) ;
#1251 = TOROIDAL_SURFACE ( 'NONE', #229, 2.050000000000000711, 1.000000000000000000 ) ;
#1252 = VECTOR ( 'NONE', #1169, 1000.000000000000000 ) ;
#1253 = FACE_OUTER_BOUND ( 'NONE', #444, .T. ) ;
#1254 = APPLICATION_PROTOCOL_DEFINITION ( 'draft international standard', 'automotive_design', 1998, #458 ) ;
#1255 = SURFACE_SIDE_STYLE ('',( #747 ) ) ;
#1256 = CARTESIAN_POINT ( 'NONE',  ( -1.050143892191954225E-14, 1.584649349947223334E-14, 0.000000000000000000 ) ) ;
#1257 = ORIENTED_EDGE ( 'NONE', *, *, #771, .T. ) ;
#1258 = AXIS2_PLACEMENT_3D ( 'NONE', #290, #709, #702 ) ;
#1259 = CIRCLE ( 'NONE', #699, 2.750000000000003109 ) ;
#1260 = LINE ( 'NONE', #1157, #27 ) ;
#1261 = EDGE_LOOP ( 'NONE', ( #1112, #895, #526, #1332 ) ) ;
#1262 = DIRECTION ( 'NONE',  ( 0.000000000000000000, 0.000000000000000000, -1.000000000000000000 ) ) ;
#1263 = ADVANCED_FACE ( 'NONE', ( #303 ), #1251, .F. ) ;
#1264 = ADVANCED_FACE ( 'NONE', ( #721 ), #619, .T. ) ;
#1265 = FACE_OUTER_BOUND ( 'NONE', #508, .T. ) ;
#1266 = DIRECTION ( 'NONE',  ( 1.826024711554534160E-16, -1.000000000000000000, 0.000000000000000000 ) ) ;
#1267 = FACE_OUTER_BOUND ( 'NONE', #1271, .T. ) ;
#1268 = AXIS2_PLACEMENT_3D ( 'NONE', #104, #391, #1314 ) ;
#1269 = LINE ( 'NONE', #431, #450 ) ;
#1270 = EDGE_CURVE ( 'NONE', #675, #476, #1045, .T. ) ;
#1271 = EDGE_LOOP ( 'NONE', ( #66, #866, #205, #1021 ) ) ;
#1272 = CARTESIAN_POINT ( 'NONE',  ( 8.000000000000000000, 6.000000000000001776, 6.000000000000000000 ) ) ;
#1273 = DIRECTION ( 'NONE',  ( 0.9510565162951535312, 0.3090169943749472847, -1.182766006347821728E-15 ) ) ;
#1274 = AXIS2_PLACEMENT_3D ( 'NONE', #750, #536, #324 ) ;
#1275 = APPLICATION_PROTOCOL_DEFINITION ( 'draft international standard', 'automotive_design', 1998, #206 ) ;
#1276 = ORIENTED_EDGE ( 'NONE', *, *, #414, .T. ) ;
#1277 = ADVANCED_FACE ( 'NONE', ( #727 ), #416, .T. ) ;
#1278 = DIRECTION ( 'NONE',  ( 1.000000000000000000, 0.000000000000000000, 0.000000000000000000 ) ) ;
#1279 = LINE ( 'NONE', #247, #113 ) ;
#1280 = ORIENTED_EDGE ( 'NONE', *, *, #695, .F. ) ;
#1281 = CARTESIAN_POINT ( 'NONE',  ( -1.050143892191954225E-14, 1.584649349947223334E-14, 0.000000000000000000 ) ) ;
#1282 = EDGE_CURVE ( 'NONE', #555, #1292, #1146, .T. ) ;
#1283 = CARTESIAN_POINT ( 'NONE',  ( 9.050000000000000711, 6.000000000000001776, 7.000000000000000000 ) ) ;
#1284 = AXIS2_PLACEMENT_3D ( 'NONE', #875, #372, #157 ) ;
#1285 = ORIENTED_EDGE ( 'NONE', *, *, #279, .F. ) ;
#1286 = DIRECTION ( 'NONE',  ( 0.000000000000000000, -1.000000000000000000, 0.000000000000000000 ) ) ;
#1287 = FACE_OUTER_BOUND ( 'NONE', #1158, .T. ) ;
#1288 = CARTESIAN_POINT ( 'NONE',  ( 2.069494673095137942E-15, -19.00000000000000355, 5.000000000000000000 ) ) ;
#1289 = EDGE_CURVE ( 'NONE', #2, #981, #119, .T. ) ;
#1290 = ORIENTED_EDGE ( 'NONE', *, *, #1059, .F. ) ;
#1291 = CARTESIAN_POINT ( 'NONE',  ( -7.999999999999998224, -6.000000000000003553, 7.000000000000000000 ) ) ;
#1292 = VERTEX_POINT ( 'NONE', #332 ) ;
#1293 = CIRCLE ( 'NONE', #473, 1.000000000000000000 ) ;
#1294 = DIRECTION ( 'NONE',  ( 1.000000000000000000, 0.000000000000000000, 0.000000000000000000 ) ) ;
#1295 = DIRECTION ( 'NONE',  ( 1.406398393993556297E-15, -3.937411383316628282E-16, 1.000000000000000000 ) ) ;
#1296 = VECTOR ( 'NONE', #691, 1000.000000000000000 ) ;
#1297 = ORIENTED_EDGE ( 'NONE', *, *, #995, .F. ) ;
#1298 = ADVANCED_FACE ( 'NONE', ( #41 ), #525, .T. ) ;
#1299 = CARTESIAN_POINT ( 'NONE',  ( 0.000000000000000000, 0.000000000000000000, 7.000000000000000000 ) ) ;
#1300 = ORIENTED_EDGE ( 'NONE', *, *, #501, .T. ) ;
#1301 = CARTESIAN_POINT ( 'NONE',  ( 9.050000000000000711, -6.000000000000000000, 7.000000000000000000 ) ) ;
#1302 = DIRECTION ( 'NONE',  ( -1.000000000000000000, -1.089207722681651192E-16, 0.000000000000000000 ) ) ;
#1303 = ORIENTED_EDGE ( 'NONE', *, *, #264, .T. ) ;
#1304 = ORIENTED_EDGE ( 'NONE', *, *, #876, .F. ) ;
#1305 = DIRECTION ( 'NONE',  ( 0.9510565162951535312, 0.3090169943749472847, -1.261617073437676470E-15 ) ) ;
#1306 = EDGE_CURVE ( 'NONE', #593, #978, #861, .T. ) ;
#1307 = CARTESIAN_POINT ( 'NONE',  ( -8.000000000000000000, 6.000000000000001776, 6.000000000000000000 ) ) ;
#1308 = DIRECTION ( 'NONE',  ( -1.000000000000000000, 0.000000000000000000, 0.000000000000000000 ) ) ;
#1309 = VECTOR ( 'NONE', #91, 1000.000000000000000 ) ;
#1310 = VERTEX_POINT ( 'NONE', #127 ) ;
#1311 = VERTEX_POINT ( 'NONE', #232 ) ;
#1312 = DIRECTION ( 'NONE',  ( 0.000000000000000000, -0.9486832980505138790, 0.3162277660168378302 ) ) ;
#1313 = AXIS2_PLACEMENT_3D ( 'NONE', #129, #767, #1175 ) ;
#1314 = DIRECTION ( 'NONE',  ( 0.9510565162951536422, 0.3090169943749474513, -1.239088197126292050E-15 ) ) ;
#1315 = ADVANCED_FACE ( 'NONE', ( #944 ), #432, .F. ) ;
#1316 = CIRCLE ( 'NONE', #811, 2.050000000000000711 ) ;
#1317 = EDGE_CURVE ( 'NONE', #772, #201, #419, .T. ) ;
#1318 = EDGE_LOOP ( 'NONE', ( #633, #31, #998, #108 ) ) ;
#1319 = VERTEX_POINT ( 'NONE', #443 ) ;
#1320 = DIRECTION ( 'NONE',  ( 1.000000000000000000, 0.000000000000000000, 0.000000000000000000 ) ) ;
#1321 = DIRECTION ( 'NONE',  ( 1.406398393993556297E-15, -3.937411383316627789E-16, 1.000000000000000000 ) ) ;
#1322 = PLANE ( 'NONE',  #424 ) ;
#1323 = EDGE_CURVE ( 'NONE', #804, #677, #952, .T. ) ;
#1324 = VECTOR ( 'NONE', #248, 1000.000000000000000 ) ;
#1325 = ORIENTED_EDGE ( 'NONE', *, *, #321, .F. ) ;
#1326 = PLANE ( 'NONE',  #1258 ) ;
#1327 = DIRECTION ( 'NONE',  ( 0.000000000000000000, 0.000000000000000000, -1.000000000000000000 ) ) ;
#1328 = ORIENTED_EDGE ( 'NONE', *, *, #936, .T. ) ;
#1329 = LINE ( 'NONE', #723, #18 ) ;
#1330 = VECTOR ( 'NONE', #908, 1000.000000000000000 ) ;
#1331 = AXIS2_PLACEMENT_3D ( 'NONE', #839, #509, #3 ) ;
#1332 = ORIENTED_EDGE ( 'NONE', *, *, #1211, .F. ) ;
#1333 = EDGE_CURVE ( 'NONE', #1024, #2, #859, .T. ) ;
#1334 = VERTEX_POINT ( 'NONE', #554 ) ;
#1335 = FACE_OUTER_BOUND ( 'NONE', #873, .T. ) ;
ENDSEC;
END-ISO-10303-21;
