ISO-10303-21;
HEADER;
FILE_DESCRIPTION (( 'STEP AP214' ),
    '1' );
FILE_NAME ('v6_2×°ÅäÌå1.STEP',
    '2026-08-29T22:12:02',
    ( '' ),
    ( '' ),
    'SwSTEP 2.0',
    'SolidWorks 2023',
    '' );
FILE_SCHEMA (( 'AUTOMOTIVE_DESIGN' ));
ENDSEC;

DATA;
#1 = ROLE_ASSOCIATION ( #32, #33 ) ;
#2 =( NAMED_UNIT ( * ) SI_UNIT ( $, .STERADIAN. ) SOLID_ANGLE_UNIT ( ) );
#3 = AXIS2_PLACEMENT_3D ( 'NONE', #315, #495, #82 ) ;
#4 = DOCUMENT_FILE ( 'sub\X2\74035f627d2756fa4ef6\X0\.STEP' , '', '', #388, '' ,$ ) ;
#5 = PRODUCT_DEFINITION ( 'æ™', '', #410, #438 ) ;
#6 = DOCUMENT_FILE ( 'sub\X2\74035f62652f64914ef6\X0\.STEP' , '', '', #191, '' ,$ ) ;
#7 = SHAPE_DEFINITION_REPRESENTATION ( #215, #179 ) ;
#8 = APPLICATION_PROTOCOL_DEFINITION ( 'draft international standard', 'automotive_design', 1998, #164 ) ;
#9 = DOCUMENT_TYPE ( 'geometry' ) ;
#10 = PROPERTY_DEFINITION ('document property','', #152 ) ;
#11 = EXTERNAL_SOURCE (IDENTIFIER('') ) ;
#12 = PRODUCT_DEFINITION_SHAPE ( 'NONE', 'NONE',  #189 ) ;
#13 = ROLE_ASSOCIATION ( #204, #99 ) ;
#14 = CONTEXT_DEPENDENT_SHAPE_REPRESENTATION ( #44, #220 ) ;
#15 = APPLICATION_PROTOCOL_DEFINITION ( 'draft international standard', 'automotive_design', 1998, #293 ) ;
#16 = DOCUMENT_FILE ( 'sub\X2\74035f627d2756fa4ef6\X0\.STEP' , '', '', #305, '' ,$ ) ;
#17 =( NAMED_UNIT ( * ) SI_UNIT ( $, .STERADIAN. ) SOLID_ANGLE_UNIT ( ) );
#18 = DOCUMENT_TYPE ( 'geometry' ) ;
#19 = PRODUCT_RELATED_PRODUCT_CATEGORY ( 'part', '', ( #101 ) ) ;
#20 = PROPERTY_DEFINITION ('document property','', #4 ) ;
#21 = DIRECTION ( 'NONE',  ( 0.000000000000000000, 0.000000000000000000, 1.000000000000000000 ) ) ;
#22 =( REPRESENTATION_RELATIONSHIP ('NONE','NONE', #274, #211 ) REPRESENTATION_RELATIONSHIP_WITH_TRANSFORMATION ( #227 )SHAPE_REPRESENTATION_RELATIONSHIP( ) );
#23 = CARTESIAN_POINT ( 'NONE',  ( 0.000000000000000000, 0.000000000000000000, 0.000000000000000000 ) ) ;
#24 = CARTESIAN_POINT ( 'NONE',  ( 13.00338921339500686, -87.64383874095472038, 56.51646538751035109 ) ) ;
#25 =( GEOMETRIC_REPRESENTATION_CONTEXT ( 3 ) GLOBAL_UNCERTAINTY_ASSIGNED_CONTEXT ( ( #296 ) ) GLOBAL_UNIT_ASSIGNED_CONTEXT ( ( #300, #295, #2 ) ) REPRESENTATION_CONTEXT ( 'NONE', 'WORKASPACE' ) );
#26 =( NAMED_UNIT ( * ) SI_UNIT ( $, .STERADIAN. ) SOLID_ANGLE_UNIT ( ) );
#27 = PRODUCT_DEFINITION_CONTEXT ( 'detailed design', #217, 'design' ) ;
#28 = DIRECTION ( 'NONE',  ( 0.000000000000000000, 0.000000000000000000, 1.000000000000000000 ) ) ;
#29 = PRODUCT ( 'sub\X2\74035f62652f64914ef6\X0\', 'sub\X2\74035f62652f64914ef6\X0\', '', ( #59 ) ) ;
#30 =( LENGTH_UNIT ( ) NAMED_UNIT ( * ) SI_UNIT ( .MILLI., .METRE. ) );
#31 = DIRECTION ( 'NONE',  ( 0.000000000000000000, 0.000000000000000000, 1.000000000000000000 ) ) ;
#32 = OBJECT_ROLE ('mandatory',$ ) ;
#33 = APPLIED_DOCUMENT_REFERENCE ( #81,'',( #130) ) ;
#34 = CARTESIAN_POINT ( 'NONE',  ( -78.05406779044714938, -94.15307083378910136, -41.48182986128423977 ) ) ;
#35 = PROPERTY_DEFINITION_REPRESENTATION ( #346, #60 ) ;
#36 = PROPERTY_DEFINITION_REPRESENTATION ( #230, #368 ) ;
#37 = CARTESIAN_POINT ( 'NONE',  ( 0.000000000000000000, 0.000000000000000000, 0.000000000000000000 ) ) ;
#38 = APPLIED_EXTERNAL_IDENTIFICATION_ASSIGNMENT ( 'sub\X2\74035f627d2756fa4ef6\X0\.STEP' , #115, #127,( #16) ) ;
#39 = ITEM_DEFINED_TRANSFORMATION ( 'NONE', 'NONE', #334,  #454 ) ;
#40 = DIRECTION ( 'NONE',  ( 1.000000000000000000, 0.000000000000000000, 0.000000000000000000 ) ) ;
#41 = APPLICATION_CONTEXT ( 'automotive_design' ) ;
#42 = PROPERTY_DEFINITION ('document property','', #377 ) ;
#43 = APPLIED_EXTERNAL_IDENTIFICATION_ASSIGNMENT ( '\X2\65cb8f6c7aef76d6\X0\.STEP' , #503, #292,( #426) ) ;
#44 =( REPRESENTATION_RELATIONSHIP ('NONE','NONE', #274, #202 ) REPRESENTATION_RELATIONSHIP_WITH_TRANSFORMATION ( #278 )SHAPE_REPRESENTATION_RELATIONSHIP( ) );
#45 = APPLIED_DOCUMENT_REFERENCE ( #6,'',( #516) ) ;
#46 = DIRECTION ( 'NONE',  ( -0.9510565162951536422, -5.263279524148877352E-15, 0.3090169943749478398 ) ) ;
#47 = PROPERTY_DEFINITION ('external definition','', #152 ) ;
#48 = PRODUCT_CONTEXT ( 'NONE', #108, 'mechanical' ) ;
#49 = PRODUCT_DEFINITION_SHAPE ( 'NONE', 'NONE',  #568 ) ;
#50 = ITEM_DEFINED_TRANSFORMATION ( 'NONE', 'NONE', #199,  #366 ) ;
#51 = AXIS2_PLACEMENT_3D ( 'NONE', #63, #383, #435 ) ;
#52 = SHAPE_DEFINITION_REPRESENTATION ( #444, #360 ) ;
#53 =( REPRESENTATION_RELATIONSHIP ('NONE','NONE', #274, #368 ) REPRESENTATION_RELATIONSHIP_WITH_TRANSFORMATION ( #358 )SHAPE_REPRESENTATION_RELATIONSHIP( ) );
#54 = PRODUCT ( 'sub\X2\5f8559047406815590e8\X0\2', 'sub\X2\5f8559047406815590e8\X0\2', '', ( #57 ) ) ;
#55 = CONTEXT_DEPENDENT_SHAPE_REPRESENTATION ( #519, #546 ) ;
#56 = APPLICATION_PROTOCOL_DEFINITION ( 'draft international standard', 'automotive_design', 1998, #108 ) ;
#57 = PRODUCT_CONTEXT ( 'NONE', #290, 'mechanical' ) ;
#58 = DOCUMENT_FILE ( 'sub\X2\4e0a5c42677f\X0\.STEP' , '', '', #18, '' ,$ ) ;
#59 = PRODUCT_CONTEXT ( 'NONE', #257, 'mechanical' ) ;
#60 = SHAPE_REPRESENTATION ( 'XC-430_idle', ( #51 ), #395 ) ;
#61 = AXIS2_PLACEMENT_3D ( 'NONE', #566, #226, #181 ) ;
#62 = OBJECT_ROLE ('mandatory',$ ) ;
#63 = CARTESIAN_POINT ( 'NONE',  ( 0.000000000000000000, 0.000000000000000000, 0.000000000000000000 ) ) ;
#64 = PRODUCT_DEFINITION_SHAPE ( 'NONE', 'NONE',  #218 ) ;
#65 = DIRECTION ( 'NONE',  ( -0.3090169943749463410, -1.339817193382323232E-15, -0.9510565162951538642 ) ) ;
#66 = SHAPE_REPRESENTATION ( 'sub\X2\8235673a5e955ea7\X0\', ( #366 ), #445 ) ;
#67 = AXIS2_PLACEMENT_3D ( 'NONE', #263, #137, #224 ) ;
#68 = AXIS2_PLACEMENT_3D ( 'NONE', #37, #537, #40 ) ;
#69 = PRODUCT_DEFINITION_FORMATION_WITH_SPECIFIED_SOURCE ( 'å¯', '', #29, .NOT_KNOWN. ) ;
#70 = AXIS2_PLACEMENT_3D ( 'NONE', #514, #343, #298 ) ;
#71 = PROPERTY_DEFINITION ('document property','', #529 ) ;
#72 = CARTESIAN_POINT ( 'NONE',  ( -64.76633703232729999, -33.04387152065409339, -0.5863996605913340820 ) ) ;
#73 =( NAMED_UNIT ( * ) SI_UNIT ( $, .STERADIAN. ) SOLID_ANGLE_UNIT ( ) );
#74 =( REPRESENTATION_RELATIONSHIP ('NONE','NONE', #274, #154 ) REPRESENTATION_RELATIONSHIP_WITH_TRANSFORMATION ( #491 )SHAPE_REPRESENTATION_RELATIONSHIP( ) );
#75 =( NAMED_UNIT ( * ) SI_UNIT ( $, .STERADIAN. ) SOLID_ANGLE_UNIT ( ) );
#76 = DIRECTION ( 'NONE',  ( 1.195380686561148026E-15, -1.000000000000000000, 1.020364436666319832E-15 ) ) ;
#77 = PRODUCT_DEFINITION_SHAPE ( 'NONE', 'NONE',  #571 ) ;
#78 = APPLICATION_CONTEXT ( 'automotive_design' ) ;
#79 = DIRECTION ( 'NONE',  ( 6.012796101503315775E-15, -1.000000000000000000, -5.567532529962517182E-16 ) ) ;
#80 = SHAPE_REPRESENTATION ( '\X2\73af5f6265cb8f6c\X0\2', ( #454 ), #25 ) ;
#81 = DOCUMENT_FILE ( 'sub\X2\652f64914ef6\X0\.STEP' , '', '', #406, '' ,$ ) ;
#82 = DIRECTION ( 'NONE',  ( 0.3090169943749473402, 1.339817193382324020E-15, 0.9510565162951535312 ) ) ;
#83 = OBJECT_ROLE ('mandatory',$ ) ;
#84 = DIRECTION ( 'NONE',  ( 8.090710799494414641E-16, -1.000000000000000000, 1.215891653985589582E-15 ) ) ;
#85 = ROLE_ASSOCIATION ( #83, #414 ) ;
#86 = APPLICATION_PROTOCOL_DEFINITION ( 'draft international standard', 'automotive_design', 1998, #282 ) ;
#87 = AXIS2_PLACEMENT_3D ( 'NONE', #261, #446, #90 ) ;
#88 = APPLIED_DOCUMENT_REFERENCE ( #177,'',( #5) ) ;
#89 =( GEOMETRIC_REPRESENTATION_CONTEXT ( 3 ) GLOBAL_UNCERTAINTY_ASSIGNED_CONTEXT ( ( #93 ) ) GLOBAL_UNIT_ASSIGNED_CONTEXT ( ( #340, #440, #384 ) ) REPRESENTATION_CONTEXT ( 'NONE', 'WORKASPACE' ) );
#90 = DIRECTION ( 'NONE',  ( -0.3090169943749476733, -9.693355286214637002E-16, -0.9510565162951534202 ) ) ;
#91 = PRODUCT_DEFINITION_CONTEXT ( 'detailed design', #246, 'design' ) ;
#92 = PRODUCT_DEFINITION_SHAPE ( 'NONE', 'NONE',  #577 ) ;
#93 = UNCERTAINTY_MEASURE_WITH_UNIT (LENGTH_MEASURE( 1.000000000000000082E-05 ), #340, 'distance_accuracy_value', 'NONE');
#94 = PROPERTY_DEFINITION ('document property','', #177 ) ;
#95 = DOCUMENT_FILE ( '\X2\73af5f6265cb8f6c\X0\.STEP' , '', '', #302, '' ,$ ) ;
#96 = APPLIED_DOCUMENT_REFERENCE ( #16,'',( #500) ) ;
#97 = IDENTIFICATION_ROLE ( 'external document id and location', $) ;
#98 = PRODUCT_RELATED_PRODUCT_CATEGORY ( 'part', '', ( #238 ) ) ;
#99 = APPLIED_DOCUMENT_REFERENCE ( #95,'',( #310) ) ;
#100 = SHAPE_DEFINITION_REPRESENTATION ( #12, #202 ) ;
#101 = PRODUCT ( 'sub\X2\652f64914ef6\X0\', 'sub\X2\652f64914ef6\X0\', '', ( #472 ) ) ;
#102 = CONTEXT_DEPENDENT_SHAPE_REPRESENTATION ( #492, #493 ) ;
#103 = AXIS2_PLACEMENT_3D ( 'NONE', #72, #389, #301 ) ;
#104 = PRODUCT_CONTEXT ( 'NONE', #380, 'mechanical' ) ;
#105 = PROPERTY_DEFINITION_REPRESENTATION ( #540, #216 ) ;
#106 = PRODUCT_RELATED_PRODUCT_CATEGORY ( 'part', '', ( #374 ) ) ;
#107 = UNCERTAINTY_MEASURE_WITH_UNIT (LENGTH_MEASURE( 1.000000000000000082E-05 ), #482, 'distance_accuracy_value', 'NONE');
#108 = APPLICATION_CONTEXT ( 'automotive_design' ) ;
#109 = DOCUMENT_FILE ( 'sub\X2\8235673a5e955ea7\X0\.STEP' , '', '', #243, '' ,$ ) ;
#110 = IDENTIFICATION_ROLE ( 'external document id and location', $) ;
#111 = ITEM_DEFINED_TRANSFORMATION ( 'NONE', 'NONE', #103,  #70 ) ;
#112 = PRODUCT_DEFINITION_CONTEXT ( 'detailed design', #543, 'design' ) ;
#113 = UNCERTAINTY_MEASURE_WITH_UNIT (LENGTH_MEASURE( 1.000000000000000082E-05 ), #450, 'distance_accuracy_value', 'NONE');
#114 = PRODUCT ( 'sub\X2\4e0a5c42677f\X0\', 'sub\X2\4e0a5c42677f\X0\', '', ( #48 ) ) ;
#115 = IDENTIFICATION_ROLE ( 'external document id and location', $) ;
#116 = DIRECTION ( 'NONE',  ( 1.000000000000000000, 0.000000000000000000, 0.000000000000000000 ) ) ;
#117 =( REPRESENTATION_RELATIONSHIP ('NONE','NONE', #274, #80 ) REPRESENTATION_RELATIONSHIP_WITH_TRANSFORMATION ( #39 )SHAPE_REPRESENTATION_RELATIONSHIP( ) );
#118 = PRODUCT_RELATED_PRODUCT_CATEGORY ( 'part', '', ( #325 ) ) ;
#119 = PRODUCT ( '\X2\73af5f6265cb8f6c\X0\', '\X2\73af5f6265cb8f6c\X0\', '', ( #143 ) ) ;
#120 =( LENGTH_UNIT ( ) NAMED_UNIT ( * ) SI_UNIT ( .MILLI., .METRE. ) );
#121 = APPLICATION_CONTEXT ( 'automotive_design' ) ;
#122 = DIRECTION ( 'NONE',  ( 0.000000000000000000, 0.000000000000000000, 1.000000000000000000 ) ) ;
#123 = AXIS2_PLACEMENT_3D ( 'NONE', #168, #429, #288 ) ;
#124 = APPLIED_EXTERNAL_IDENTIFICATION_ASSIGNMENT ( 'XC-430_idle.STEP' , #448, #385,( #362) ) ;
#125 = AXIS2_PLACEMENT_3D ( 'NONE', #206, #122, #178 ) ;
#126 = PRODUCT ( 'XC-430_idle_1', 'XC-430_idle_1', '', ( #324 ) ) ;
#127 = EXTERNAL_SOURCE (IDENTIFIER('') ) ;
#128 = PRODUCT_DEFINITION_FORMATION_WITH_SPECIFIED_SOURCE ( 'å¯', '', #119, .NOT_KNOWN. ) ;
#129 =( LENGTH_UNIT ( ) NAMED_UNIT ( * ) SI_UNIT ( .MILLI., .METRE. ) );
#130 = PRODUCT_DEFINITION ( 'æ™', '', #161, #27 ) ;
#131 =( NAMED_UNIT ( * ) SI_UNIT ( $, .STERADIAN. ) SOLID_ANGLE_UNIT ( ) );
#132 = SHAPE_REPRESENTATION ( 'sub\X2\652f64914ef6\X0\', ( #125 ), #533 ) ;
#133 = ITEM_DEFINED_TRANSFORMATION ( 'NONE', 'NONE', #299,  #123 ) ;
#134 = DIRECTION ( 'NONE',  ( 1.000000000000000000, 0.000000000000000000, 0.000000000000000000 ) ) ;
#135 = PRODUCT_CONTEXT ( 'NONE', #78, 'mechanical' ) ;
#136 = ROLE_ASSOCIATION ( #531, #489 ) ;
#137 = DIRECTION ( 'NONE',  ( -0.9510565162951536422, -5.370818458700676920E-15, 0.3090169943749476733 ) ) ;
#138 = PRODUCT_CONTEXT ( 'NONE', #282, 'mechanical' ) ;
#139 = PROPERTY_DEFINITION_REPRESENTATION ( #396, #211 ) ;
#140 = DIRECTION ( 'NONE',  ( -5.419702570635527271E-15, 0.9999999999999998890, 3.522009466971436283E-16 ) ) ;
#141 =( NAMED_UNIT ( * ) PLANE_ANGLE_UNIT ( ) SI_UNIT ( $, .RADIAN. ) );
#142 = PROPERTY_DEFINITION_REPRESENTATION ( #386, #60 ) ;
#143 = PRODUCT_CONTEXT ( 'NONE', #403, 'mechanical' ) ;
#144 = OBJECT_ROLE ('mandatory',$ ) ;
#145 =( GEOMETRIC_REPRESENTATION_CONTEXT ( 3 ) GLOBAL_UNCERTAINTY_ASSIGNED_CONTEXT ( ( #107 ) ) GLOBAL_UNIT_ASSIGNED_CONTEXT ( ( #482, #523, #131 ) ) REPRESENTATION_CONTEXT ( 'NONE', 'WORKASPACE' ) );
#146 = DIRECTION ( 'NONE',  ( 0.9510565162951534202, 5.263279524148878141E-15, -0.3090169943749478398 ) ) ;
#147 = PRODUCT_DEFINITION ( 'æ™', '', #335, #404 ) ;
#148 = APPLICATION_CONTEXT ( 'automotive_design' ) ;
#149 = UNCERTAINTY_MEASURE_WITH_UNIT (LENGTH_MEASURE( 1.000000000000000082E-05 ), #30, 'distance_accuracy_value', 'NONE');
#150 = PRODUCT ( 'sub\X2\570667f15e9576d8\X0\', 'sub\X2\570667f15e9576d8\X0\', '', ( #279 ) ) ;
#151 = PRODUCT_RELATED_PRODUCT_CATEGORY ( 'part', '', ( #452 ) ) ;
#152 = DOCUMENT_FILE ( 'XC-430_idle_1.STEP' , '', '', #182, '' ,$ ) ;
#153 = DOCUMENT_FILE ( 'sub\X2\570667f15e9576d8\X0\.STEP' , '', '', #432, '' ,$ ) ;
#154 = SHAPE_REPRESENTATION ( 'sub\X2\74035f627d2756fa4ef6\X0\', ( #241 ), #89 ) ;
#155 = EXTERNAL_SOURCE (IDENTIFIER('') ) ;
#156 = PROPERTY_DEFINITION_REPRESENTATION ( #10, #202 ) ;
#157 = SHAPE_DEFINITION_REPRESENTATION ( #417, #368 ) ;
#158 = PROPERTY_DEFINITION_REPRESENTATION ( #237, #179 ) ;
#159 = PRODUCT_DEFINITION_FORMATION_WITH_SPECIFIED_SOURCE ( 'å¯', '', #150, .NOT_KNOWN. ) ;
#160 = APPLICATION_CONTEXT ( 'automotive_design' ) ;
#161 = PRODUCT_DEFINITION_FORMATION_WITH_SPECIFIED_SOURCE ( 'å¯', '', #101, .NOT_KNOWN. ) ;
#162 = APPLICATION_PROTOCOL_DEFINITION ( 'draft international standard', 'automotive_design', 1998, #148 ) ;
#163 = PROPERTY_DEFINITION_REPRESENTATION ( #175, #154 ) ;
#164 = APPLICATION_CONTEXT ( 'automotive_design' ) ;
#165 = APPLIED_EXTERNAL_IDENTIFICATION_ASSIGNMENT ( 'sub\X2\652f64914ef6\X0\.STEP' , #373, #11,( #81) ) ;
#166 = APPLICATION_CONTEXT ( 'automotive_design' ) ;
#167 = DIRECTION ( 'NONE',  ( -0.9510565162951540863, 1.375718332503941250E-16, 0.3090169943749464521 ) ) ;
#168 = CARTESIAN_POINT ( 'NONE',  ( 0.000000000000000000, 0.000000000000000000, 0.000000000000000000 ) ) ;
#169 = PROPERTY_DEFINITION ('external definition','', #529 ) ;
#170 = DIRECTION ( 'NONE',  ( 1.000000000000000000, 0.000000000000000000, 0.000000000000000000 ) ) ;
#171 = APPLICATION_PROTOCOL_DEFINITION ( 'draft international standard', 'automotive_design', 1998, #78 ) ;
#172 = AXIS2_PLACEMENT_3D ( 'NONE', #475, #443, #434 ) ;
#173 = APPLIED_EXTERNAL_IDENTIFICATION_ASSIGNMENT ( 'sub\X2\570667f15e9576d8\X0\.STEP' , #180, #390,( #153) ) ;
#174 = EXTERNAL_SOURCE (IDENTIFIER('') ) ;
#175 = PROPERTY_DEFINITION ('document property','', #16 ) ;
#176 = PRODUCT_DEFINITION_FORMATION_WITH_SPECIFIED_SOURCE ( 'å¯', '', #277, .NOT_KNOWN. ) ;
#177 = DOCUMENT_FILE ( 'sub\X2\5f8559047406815590e8\X0\2.STEP' , '', '', #266, '' ,$ ) ;
#178 = DIRECTION ( 'NONE',  ( 1.000000000000000000, 0.000000000000000000, 0.000000000000000000 ) ) ;
#179 = SHAPE_REPRESENTATION ( '\X2\65cb8f6c7aef76d6\X0\', ( #229 ), #145 ) ;
#180 = IDENTIFICATION_ROLE ( 'external document id and location', $) ;
#181 = DIRECTION ( 'NONE',  ( -0.9510565162951537532, -4.591682424051301533E-16, 0.3090169943749469517 ) ) ;
#182 = DOCUMENT_TYPE ( 'geometry' ) ;
#183 = PROPERTY_DEFINITION_REPRESENTATION ( #169, #80 ) ;
#184 = CARTESIAN_POINT ( 'NONE',  ( -64.76633703232349148, -101.6530708337907498, -0.5863996605928416539 ) ) ;
#185 = ITEM_DEFINED_TRANSFORMATION ( 'NONE', 'NONE', #439,  #51 ) ;
#186 = APPLICATION_PROTOCOL_DEFINITION ( 'draft international standard', 'automotive_design', 1998, #403 ) ;
#187 = PROPERTY_DEFINITION ('document property','', #81 ) ;
#188 = PROPERTY_DEFINITION_REPRESENTATION ( #447, #179 ) ;
#189 = PRODUCT_DEFINITION ( 'æ™', '', #510, #307 ) ;
#190 = SHAPE_DEFINITION_REPRESENTATION ( #522, #66 ) ;
#191 = DOCUMENT_TYPE ( 'geometry' ) ;
#192 = ROLE_ASSOCIATION ( #564, #557 ) ;
#193 = UNCERTAINTY_MEASURE_WITH_UNIT (LENGTH_MEASURE( 1.000000000000000082E-05 ), #291, 'distance_accuracy_value', 'NONE');
#194 = PRODUCT_DEFINITION_SHAPE ( 'NONE', 'NONE',  #387 ) ;
#195 = PROPERTY_DEFINITION_REPRESENTATION ( #348, #360 ) ;
#196 = PROPERTY_DEFINITION_REPRESENTATION ( #273, #316 ) ;
#197 = APPLICATION_PROTOCOL_DEFINITION ( 'draft international standard', 'automotive_design', 1998, #467 ) ;
#198 = UNCERTAINTY_MEASURE_WITH_UNIT (LENGTH_MEASURE( 1.000000000000000082E-05 ), #129, 'distance_accuracy_value', 'NONE');
#199 = AXIS2_PLACEMENT_3D ( 'NONE', #409, #84, #265 ) ;
#200 = APPLICATION_PROTOCOL_DEFINITION ( 'draft international standard', 'automotive_design', 1998, #313 ) ;
#201 = DIRECTION ( 'NONE',  ( 1.000000000000000000, 0.000000000000000000, 0.000000000000000000 ) ) ;
#202 = SHAPE_REPRESENTATION ( 'XC-430_idle_1', ( #250 ), #463 ) ;
#203 =( NAMED_UNIT ( * ) SI_UNIT ( $, .STERADIAN. ) SOLID_ANGLE_UNIT ( ) );
#204 = OBJECT_ROLE ('mandatory',$ ) ;
#205 = CONTEXT_DEPENDENT_SHAPE_REPRESENTATION ( #363, #49 ) ;
#206 = CARTESIAN_POINT ( 'NONE',  ( 0.000000000000000000, 0.000000000000000000, 0.000000000000000000 ) ) ;
#207 = APPLIED_EXTERNAL_IDENTIFICATION_ASSIGNMENT ( '\X2\73af5f6265cb8f6c\X0\2.STEP' , #428, #415,( #529) ) ;
#208 = PROPERTY_DEFINITION ('external definition','', #4 ) ;
#209 =( REPRESENTATION_RELATIONSHIP ('NONE','NONE', #274, #60 ) REPRESENTATION_RELATIONSHIP_WITH_TRANSFORMATION ( #185 )SHAPE_REPRESENTATION_RELATIONSHIP( ) );
#210 = PRODUCT_RELATED_PRODUCT_CATEGORY ( 'part', '', ( #54 ) ) ;
#211 = SHAPE_REPRESENTATION ( 'sub\X2\74035f62652f64914ef6\X0\', ( #474 ), #544 ) ;
#212 =( NAMED_UNIT ( * ) PLANE_ANGLE_UNIT ( ) SI_UNIT ( $, .RADIAN. ) );
#213 =( REPRESENTATION_RELATIONSHIP ('NONE','NONE', #274, #66 ) REPRESENTATION_RELATIONSHIP_WITH_TRANSFORMATION ( #50 )SHAPE_REPRESENTATION_RELATIONSHIP( ) );
#214 = PRODUCT_DEFINITION_CONTEXT ( 'detailed design', #313, 'design' ) ;
#215 = PRODUCT_DEFINITION_SHAPE ( 'NONE', 'NONE',  #517 ) ;
#216 = SHAPE_REPRESENTATION ( '\X2\73af5f6265cb8f6c\X0\', ( #269 ), #391 ) ;
#217 = APPLICATION_CONTEXT ( 'automotive_design' ) ;
#218 = PRODUCT_DEFINITION ( 'æ™', '', #379, #515 ) ;
#219 = DIRECTION ( 'NONE',  ( 0.000000000000000000, 0.000000000000000000, 1.000000000000000000 ) ) ;
#220 = PRODUCT_DEFINITION_SHAPE ( 'NONE', 'NONE',  #576 ) ;
#221 = PROPERTY_DEFINITION ('external definition','', #6 ) ;
#222 = PROPERTY_DEFINITION_REPRESENTATION ( #331, #132 ) ;
#223 = IDENTIFICATION_ROLE ( 'external document id and location', $) ;
#224 = DIRECTION ( 'NONE',  ( 0.3090169943749476733, 7.375576133316364283E-16, 0.9510565162951536422 ) ) ;
#225 = ROLE_ASSOCIATION ( #144, #494 ) ;
#226 = DIRECTION ( 'NONE',  ( 4.163595470665465289E-16, -1.000000000000000000, -2.044767219796474972E-16 ) ) ;
#227 = ITEM_DEFINED_TRANSFORMATION ( 'NONE', 'NONE', #556,  #474 ) ;
#228 = CARTESIAN_POINT ( 'NONE',  ( -64.76633703232246830, -89.15307083379377673, -0.5863996605930699157 ) ) ;
#229 = AXIS2_PLACEMENT_3D ( 'NONE', #361, #518, #116 ) ;
#230 = PROPERTY_DEFINITION ('external definition','', #177 ) ;
#231 = CARTESIAN_POINT ( 'NONE',  ( 0.000000000000000000, 0.000000000000000000, 0.000000000000000000 ) ) ;
#232 = APPLICATION_PROTOCOL_DEFINITION ( 'draft international standard', 'automotive_design', 1998, #121 ) ;
#233 = APPLIED_EXTERNAL_IDENTIFICATION_ASSIGNMENT ( 'sub\X2\4e0a5c42677f\X0\.STEP' , #304, #512,( #58) ) ;
#234 = EXTERNAL_SOURCE (IDENTIFIER('') ) ;
#235 = PRODUCT_CONTEXT ( 'NONE', #511, 'mechanical' ) ;
#236 = UNCERTAINTY_MEASURE_WITH_UNIT (LENGTH_MEASURE( 1.000000000000000082E-05 ), #341, 'distance_accuracy_value', 'NONE');
#237 = PROPERTY_DEFINITION ('document property','', #426 ) ;
#238 = PRODUCT ( 'sub\X2\74035f627d2756fa4ef6\X0\', 'sub\X2\74035f627d2756fa4ef6\X0\', '', ( #504 ) ) ;
#239 = PROPERTY_DEFINITION_REPRESENTATION ( #401, #66 ) ;
#240 = APPLICATION_PROTOCOL_DEFINITION ( 'draft international standard', 'automotive_design', 1998, #257 ) ;
#241 = AXIS2_PLACEMENT_3D ( 'NONE', #562, #473, #201 ) ;
#242 = SHAPE_DEFINITION_REPRESENTATION ( #552, #154 ) ;
#243 = DOCUMENT_TYPE ( 'geometry' ) ;
#244 = ROLE_ASSOCIATION ( #382, #548 ) ;
#245 = SHAPE_DEFINITION_REPRESENTATION ( #194, #60 ) ;
#246 = APPLICATION_CONTEXT ( 'automotive_design' ) ;
#247 = CONTEXT_DEPENDENT_SHAPE_REPRESENTATION ( #501, #558 ) ;
#248 = PROPERTY_DEFINITION_REPRESENTATION ( #47, #202 ) ;
#249 = OBJECT_ROLE ('mandatory',$ ) ;
#250 = AXIS2_PLACEMENT_3D ( 'NONE', #254, #318, #538 ) ;
#251 = APPLICATION_PROTOCOL_DEFINITION ( 'draft international standard', 'automotive_design', 1998, #352 ) ;
#252 = APPLICATION_PROTOCOL_DEFINITION ( 'draft international standard', 'automotive_design', 1998, #166 ) ;
#253 = IDENTIFICATION_ROLE ( 'external document id and location', $) ;
#254 = CARTESIAN_POINT ( 'NONE',  ( 0.000000000000000000, 0.000000000000000000, 0.000000000000000000 ) ) ;
#255 = PRODUCT_DEFINITION_FORMATION_WITH_SPECIFIED_SOURCE ( 'å¯', '', #325, .NOT_KNOWN. ) ;
#256 = PRODUCT_DEFINITION_SHAPE ( 'NONE', 'NONE',  #572 ) ;
#257 = APPLICATION_CONTEXT ( 'automotive_design' ) ;
#258 = PRODUCT_DEFINITION_SHAPE ( 'NONE', 'NONE',  #310 ) ;
#259 = OBJECT_ROLE ('mandatory',$ ) ;
#260 =( NAMED_UNIT ( * ) SI_UNIT ( $, .STERADIAN. ) SOLID_ANGLE_UNIT ( ) );
#261 = CARTESIAN_POINT ( 'NONE',  ( -123.7713151130187725, -87.64383874095686622, 77.80136057387672111 ) ) ;
#262 = PROPERTY_DEFINITION_REPRESENTATION ( #71, #80 ) ;
#263 = CARTESIAN_POINT ( 'NONE',  ( -112.4896553336275531, -272.9056616375980298, 39.36634360304427105 ) ) ;
#264 = OBJECT_ROLE ('mandatory',$ ) ;
#265 = DIRECTION ( 'NONE',  ( -0.3090169943749475623, -1.406398393993556297E-15, -0.9510565162951535312 ) ) ;
#266 = DOCUMENT_TYPE ( 'geometry' ) ;
#267 = DIRECTION ( 'NONE',  ( -5.300926402239488342E-15, 1.000000000000000000, 8.408416043907287812E-16 ) ) ;
#268 = PRODUCT_RELATED_PRODUCT_CATEGORY ( 'part', '', ( #114 ) ) ;
#269 = AXIS2_PLACEMENT_3D ( 'NONE', #490, #219, #351 ) ;
#270 =( GEOMETRIC_REPRESENTATION_CONTEXT ( 3 ) GLOBAL_UNCERTAINTY_ASSIGNED_CONTEXT ( ( #113 ) ) GLOBAL_UNIT_ASSIGNED_CONTEXT ( ( #450, #398, #542 ) ) REPRESENTATION_CONTEXT ( 'NONE', 'WORKASPACE' ) );
#271 =( NAMED_UNIT ( * ) PLANE_ANGLE_UNIT ( ) SI_UNIT ( $, .RADIAN. ) );
#272 = ROLE_ASSOCIATION ( #530, #88 ) ;
#273 = PROPERTY_DEFINITION ('document property','', #58 ) ;
#274 = SHAPE_REPRESENTATION ( 'v6_2\X2\88c5914d4f53\X0\1', ( #68, #355, #103, #439, #408, #3, #334, #67, #556, #299, #87, #199, #376, #61, #393 ), #270 ) ;
#275 = APPLIED_EXTERNAL_IDENTIFICATION_ASSIGNMENT ( 'sub\X2\8235673a5e955ea7\X0\.STEP' , #223, #234,( #109) ) ;
#276 = APPLICATION_PROTOCOL_DEFINITION ( 'draft international standard', 'automotive_design', 1998, #511 ) ;
#277 = PRODUCT ( '\X2\65cb8f6c7aef76d6\X0\', '\X2\65cb8f6c7aef76d6\X0\', '', ( #138 ) ) ;
#278 = ITEM_DEFINED_TRANSFORMATION ( 'NONE', 'NONE', #87,  #250 ) ;
#279 = PRODUCT_CONTEXT ( 'NONE', #551, 'mechanical' ) ;
#280 = PROPERTY_DEFINITION_REPRESENTATION ( #42, #66 ) ;
#281 = SHAPE_DEFINITION_REPRESENTATION ( #507, #211 ) ;
#282 = APPLICATION_CONTEXT ( 'automotive_design' ) ;
#283 = ITEM_DEFINED_TRANSFORMATION ( 'NONE', 'NONE', #393,  #229 ) ;
#284 = APPLICATION_PROTOCOL_DEFINITION ( 'draft international standard', 'automotive_design', 1998, #217 ) ;
#285 = APPLIED_EXTERNAL_IDENTIFICATION_ASSIGNMENT ( 'sub\X2\5f8559047406815590e8\X0\2.STEP' , #483, #453,( #177) ) ;
#286 = PROPERTY_DEFINITION_REPRESENTATION ( #466, #316 ) ;
#287 = APPLICATION_PROTOCOL_DEFINITION ( 'draft international standard', 'automotive_design', 1998, #551 ) ;
#288 = DIRECTION ( 'NONE',  ( 1.000000000000000000, 0.000000000000000000, 0.000000000000000000 ) ) ;
#289 = APPLIED_DOCUMENT_REFERENCE ( #109,'',( #371) ) ;
#290 = APPLICATION_CONTEXT ( 'automotive_design' ) ;
#291 =( LENGTH_UNIT ( ) NAMED_UNIT ( * ) SI_UNIT ( .MILLI., .METRE. ) );
#292 = EXTERNAL_SOURCE (IDENTIFIER('') ) ;
#293 = APPLICATION_CONTEXT ( 'automotive_design' ) ;
#294 = APPLIED_EXTERNAL_IDENTIFICATION_ASSIGNMENT ( 'XC-430_idle_1.STEP' , #437, #155,( #152) ) ;
#295 =( NAMED_UNIT ( * ) PLANE_ANGLE_UNIT ( ) SI_UNIT ( $, .RADIAN. ) );
#296 = UNCERTAINTY_MEASURE_WITH_UNIT (LENGTH_MEASURE( 1.000000000000000082E-05 ), #300, 'distance_accuracy_value', 'NONE');
#297 = EXTERNAL_SOURCE (IDENTIFIER('') ) ;
#298 = DIRECTION ( 'NONE',  ( 1.000000000000000000, 0.000000000000000000, 0.000000000000000000 ) ) ;
#299 = AXIS2_PLACEMENT_3D ( 'NONE', #184, #267, #353 ) ;
#300 =( LENGTH_UNIT ( ) NAMED_UNIT ( * ) SI_UNIT ( .MILLI., .METRE. ) );
#301 = DIRECTION ( 'NONE',  ( 0.9948556974345825754, 0.000000000000000000, 0.1013022274283767732 ) ) ;
#302 = DOCUMENT_TYPE ( 'geometry' ) ;
#303 = CARTESIAN_POINT ( 'NONE',  ( -64.76633703232388939, -86.65307083379047981, -0.5863996605926677930 ) ) ;
#304 = IDENTIFICATION_ROLE ( 'external document id and location', $) ;
#305 = DOCUMENT_TYPE ( 'geometry' ) ;
#306 = PRODUCT_DEFINITION_SHAPE ( 'NONE', 'NONE',  #574 ) ;
#307 = PRODUCT_DEFINITION_CONTEXT ( 'detailed design', #160, 'design' ) ;
#308 = PRODUCT_DEFINITION ( 'æ™', '', #159, #394 ) ;
#309 =( REPRESENTATION_RELATIONSHIP ('NONE','NONE', #274, #316 ) REPRESENTATION_RELATIONSHIP_WITH_TRANSFORMATION ( #133 )SHAPE_REPRESENTATION_RELATIONSHIP( ) );
#310 = PRODUCT_DEFINITION ( 'æ™', '', #128, #470 ) ;
#311 = PROPERTY_DEFINITION_REPRESENTATION ( #187, #132 ) ;
#312 = DIRECTION ( 'NONE',  ( 5.419702570635529637E-15, -0.9999999999999998890, -3.522009466971477698E-16 ) ) ;
#313 = APPLICATION_CONTEXT ( 'automotive_design' ) ;
#314 = CONTEXT_DEPENDENT_SHAPE_REPRESENTATION ( #117, #256 ) ;
#315 = CARTESIAN_POINT ( 'NONE',  ( -64.76633703232390360, -101.6530708337904798, -0.5863996605926617978 ) ) ;
#316 = SHAPE_REPRESENTATION ( 'sub\X2\4e0a5c42677f\X0\', ( #123 ), #509 ) ;
#317 = DIRECTION ( 'NONE',  ( 0.9168027893815693385, -0.2659620490103055679, -0.2978872838313409432 ) ) ;
#318 = DIRECTION ( 'NONE',  ( 0.000000000000000000, 0.000000000000000000, 1.000000000000000000 ) ) ;
#319 = ITEM_DEFINED_TRANSFORMATION ( 'NONE', 'NONE', #408,  #125 ) ;
#320 = APPLICATION_PROTOCOL_DEFINITION ( 'draft international standard', 'automotive_design', 1998, #422 ) ;
#321 =( GEOMETRIC_REPRESENTATION_CONTEXT ( 3 ) GLOBAL_UNCERTAINTY_ASSIGNED_CONTEXT ( ( #423 ) ) GLOBAL_UNIT_ASSIGNED_CONTEXT ( ( #487, #525, #73 ) ) REPRESENTATION_CONTEXT ( 'NONE', 'WORKASPACE' ) );
#322 =( REPRESENTATION_RELATIONSHIP ('NONE','NONE', #274, #216 ) REPRESENTATION_RELATIONSHIP_WITH_TRANSFORMATION ( #328 )SHAPE_REPRESENTATION_RELATIONSHIP( ) );
#323 = CONTEXT_DEPENDENT_SHAPE_REPRESENTATION ( #213, #92 ) ;
#324 = PRODUCT_CONTEXT ( 'NONE', #327, 'mechanical' ) ;
#325 = PRODUCT ( '\X2\73af5f6265cb8f6c\X0\2', '\X2\73af5f6265cb8f6c\X0\2', '', ( #104 ) ) ;
#326 = APPLIED_EXTERNAL_IDENTIFICATION_ASSIGNMENT ( 'sub\X2\8235673a5e955ea7\X0\.STEP' , #110, #342,( #377) ) ;
#327 = APPLICATION_CONTEXT ( 'automotive_design' ) ;
#328 = ITEM_DEFINED_TRANSFORMATION ( 'NONE', 'NONE', #376,  #269 ) ;
#329 = ROLE_ASSOCIATION ( #485, #420 ) ;
#330 = PRODUCT_RELATED_PRODUCT_CATEGORY ( 'part', '', ( #150 ) ) ;
#331 = PROPERTY_DEFINITION ('external definition','', #81 ) ;
#332 = APPLICATION_PROTOCOL_DEFINITION ( 'draft international standard', 'automotive_design', 1998, #160 ) ;
#333 = DOCUMENT_TYPE ( 'geometry' ) ;
#334 = AXIS2_PLACEMENT_3D ( 'NONE', #413, #312, #146 ) ;
#335 = PRODUCT_DEFINITION_FORMATION_WITH_SPECIFIED_SOURCE ( 'å¯', '', #114, .NOT_KNOWN. ) ;
#336 = APPLICATION_PROTOCOL_DEFINITION ( 'draft international standard', 'automotive_design', 1998, #543 ) ;
#337 = DIRECTION ( 'NONE',  ( 1.000000000000000000, 0.000000000000000000, 0.000000000000000000 ) ) ;
#338 = ROLE_ASSOCIATION ( #62, #550 ) ;
#339 = SHAPE_DEFINITION_REPRESENTATION ( #460, #316 ) ;
#340 =( LENGTH_UNIT ( ) NAMED_UNIT ( * ) SI_UNIT ( .MILLI., .METRE. ) );
#341 =( LENGTH_UNIT ( ) NAMED_UNIT ( * ) SI_UNIT ( .MILLI., .METRE. ) );
#342 = EXTERNAL_SOURCE (IDENTIFIER('') ) ;
#343 = DIRECTION ( 'NONE',  ( 0.000000000000000000, 0.000000000000000000, 1.000000000000000000 ) ) ;
#344 = APPLICATION_CONTEXT ( 'automotive_design' ) ;
#345 = CARTESIAN_POINT ( 'NONE',  ( -82.71485570766088813, -58.90307083378944242, -31.55575027311093805 ) ) ;
#346 = PROPERTY_DEFINITION ('document property','', #362 ) ;
#347 =( NAMED_UNIT ( * ) PLANE_ANGLE_UNIT ( ) SI_UNIT ( $, .RADIAN. ) );
#348 = PROPERTY_DEFINITION ('external definition','', #153 ) ;
#349 = DOCUMENT_TYPE ( 'geometry' ) ;
#350 = ROLE_ASSOCIATION ( #399, #45 ) ;
#351 = DIRECTION ( 'NONE',  ( 1.000000000000000000, 0.000000000000000000, 0.000000000000000000 ) ) ;
#352 = APPLICATION_CONTEXT ( 'automotive_design' ) ;
#353 = DIRECTION ( 'NONE',  ( 0.3090169943749475623, 8.383884571949769552E-16, 0.9510565162951536422 ) ) ;
#354 = PROPERTY_DEFINITION_REPRESENTATION ( #208, #154 ) ;
#355 = AXIS2_PLACEMENT_3D ( 'NONE', #303, #76, #65 ) ;
#356 = SHAPE_DEFINITION_REPRESENTATION ( #64, #274 ) ;
#357 = IDENTIFICATION_ROLE ( 'external document id and location', $) ;
#358 = ITEM_DEFINED_TRANSFORMATION ( 'NONE', 'NONE', #67,  #172 ) ;
#359 =( NAMED_UNIT ( * ) PLANE_ANGLE_UNIT ( ) SI_UNIT ( $, .RADIAN. ) );
#360 = SHAPE_REPRESENTATION ( 'sub\X2\570667f15e9576d8\X0\', ( #70 ), #499 ) ;
#361 = CARTESIAN_POINT ( 'NONE',  ( 0.000000000000000000, 0.000000000000000000, 0.000000000000000000 ) ) ;
#362 = DOCUMENT_FILE ( 'XC-430_idle.STEP' , '', '', #506, '' ,$ ) ;
#363 =( REPRESENTATION_RELATIONSHIP ('NONE','NONE', #274, #360 ) REPRESENTATION_RELATIONSHIP_WITH_TRANSFORMATION ( #111 )SHAPE_REPRESENTATION_RELATIONSHIP( ) );
#364 = PROPERTY_DEFINITION_REPRESENTATION ( #416, #66 ) ;
#365 = APPLICATION_PROTOCOL_DEFINITION ( 'draft international standard', 'automotive_design', 1998, #327 ) ;
#366 = AXIS2_PLACEMENT_3D ( 'NONE', #231, #21, #170 ) ;
#367 = UNCERTAINTY_MEASURE_WITH_UNIT (LENGTH_MEASURE( 1.000000000000000082E-05 ), #478, 'distance_accuracy_value', 'NONE');
#368 = SHAPE_REPRESENTATION ( 'sub\X2\5f8559047406815590e8\X0\2', ( #172 ), #321 ) ;
#369 = SHAPE_DEFINITION_REPRESENTATION ( #441, #80 ) ;
#370 = EXTERNAL_SOURCE (IDENTIFIER('') ) ;
#371 = PRODUCT_DEFINITION ( 'æ™', '', #528, #457 ) ;
#372 = PROPERTY_DEFINITION_REPRESENTATION ( #477, #360 ) ;
#373 = IDENTIFICATION_ROLE ( 'external document id and location', $) ;
#374 = PRODUCT ( 'sub\X2\8235673a5e955ea7\X0\', 'sub\X2\8235673a5e955ea7\X0\', '', ( #235 ) ) ;
#375 = APPLIED_DOCUMENT_REFERENCE ( #426,'',( #517) ) ;
#376 = AXIS2_PLACEMENT_3D ( 'NONE', #456, #140, #46 ) ;
#377 = DOCUMENT_FILE ( 'sub\X2\8235673a5e955ea7\X0\.STEP' , '', '', #9, '' ,$ ) ;
#378 = ROLE_ASSOCIATION ( #249, #96 ) ;
#379 = PRODUCT_DEFINITION_FORMATION_WITH_SPECIFIED_SOURCE ( 'å¯', '', #452, .NOT_KNOWN. ) ;
#380 = APPLICATION_CONTEXT ( 'automotive_design' ) ;
#381 = APPLIED_EXTERNAL_IDENTIFICATION_ASSIGNMENT ( 'sub\X2\74035f627d2756fa4ef6\X0\.STEP' , #357, #370,( #4) ) ;
#382 = OBJECT_ROLE ('mandatory',$ ) ;
#383 = DIRECTION ( 'NONE',  ( 0.000000000000000000, 0.000000000000000000, 1.000000000000000000 ) ) ;
#384 =( NAMED_UNIT ( * ) SI_UNIT ( $, .STERADIAN. ) SOLID_ANGLE_UNIT ( ) );
#385 = EXTERNAL_SOURCE (IDENTIFIER('') ) ;
#386 = PROPERTY_DEFINITION ('external definition','', #362 ) ;
#387 = PRODUCT_DEFINITION ( 'æ™', '', #480, #524 ) ;
#388 = DOCUMENT_TYPE ( 'geometry' ) ;
#389 = DIRECTION ( 'NONE',  ( 0.1013022274283767732, 0.000000000000000000, -0.9948556974345825754 ) ) ;
#390 = EXTERNAL_SOURCE (IDENTIFIER('') ) ;
#391 =( GEOMETRIC_REPRESENTATION_CONTEXT ( 3 ) GLOBAL_UNCERTAINTY_ASSIGNED_CONTEXT ( ( #464 ) ) GLOBAL_UNIT_ASSIGNED_CONTEXT ( ( #120, #347, #479 ) ) REPRESENTATION_CONTEXT ( 'NONE', 'WORKASPACE' ) );
#392 =( NAMED_UNIT ( * ) SI_UNIT ( $, .STERADIAN. ) SOLID_ANGLE_UNIT ( ) );
#393 = AXIS2_PLACEMENT_3D ( 'NONE', #34, #402, #317 ) ;
#394 = PRODUCT_DEFINITION_CONTEXT ( 'detailed design', #467, 'design' ) ;
#395 =( GEOMETRIC_REPRESENTATION_CONTEXT ( 3 ) GLOBAL_UNCERTAINTY_ASSIGNED_CONTEXT ( ( #367 ) ) GLOBAL_UNIT_ASSIGNED_CONTEXT ( ( #478, #555, #75 ) ) REPRESENTATION_CONTEXT ( 'NONE', 'WORKASPACE' ) );
#396 = PROPERTY_DEFINITION ('document property','', #6 ) ;
#397 = CONTEXT_DEPENDENT_SHAPE_REPRESENTATION ( #74, #77 ) ;
#398 =( NAMED_UNIT ( * ) PLANE_ANGLE_UNIT ( ) SI_UNIT ( $, .RADIAN. ) );
#399 = OBJECT_ROLE ('mandatory',$ ) ;
#400 = CONTEXT_DEPENDENT_SHAPE_REPRESENTATION ( #53, #481 ) ;
#401 = PROPERTY_DEFINITION ('external definition','', #109 ) ;
#402 = DIRECTION ( 'NONE',  ( -0.3090169943749476733, -1.708627232530683951E-16, -0.9510565162951534202 ) ) ;
#403 = APPLICATION_CONTEXT ( 'automotive_design' ) ;
#404 = PRODUCT_DEFINITION_CONTEXT ( 'detailed design', #293, 'design' ) ;
#405 = PRODUCT_RELATED_PRODUCT_CATEGORY ( 'part', '', ( #488 ) ) ;
#406 = DOCUMENT_TYPE ( 'geometry' ) ;
#407 = PROPERTY_DEFINITION_REPRESENTATION ( #221, #211 ) ;
#408 = AXIS2_PLACEMENT_3D ( 'NONE', #345, #521, #534 ) ;
#409 = CARTESIAN_POINT ( 'NONE',  ( -117.9303962932250158, -53.90307083379191511, 16.68765032496754586 ) ) ;
#410 = PRODUCT_DEFINITION_FORMATION_WITH_SPECIFIED_SOURCE ( 'å¯', '', #54, .NOT_KNOWN. ) ;
#411 =( NAMED_UNIT ( * ) PLANE_ANGLE_UNIT ( ) SI_UNIT ( $, .RADIAN. ) );
#412 = PROPERTY_DEFINITION_REPRESENTATION ( #94, #368 ) ;
#413 = CARTESIAN_POINT ( 'NONE',  ( -62.38869574158574949, -89.15307083379371988, -1.358942146530109252 ) ) ;
#414 = APPLIED_DOCUMENT_REFERENCE ( #4,'',( #500) ) ;
#415 = EXTERNAL_SOURCE (IDENTIFIER('') ) ;
#416 = PROPERTY_DEFINITION ('external definition','', #377 ) ;
#417 = PRODUCT_DEFINITION_SHAPE ( 'NONE', 'NONE',  #5 ) ;
#418 = PROPERTY_DEFINITION_REPRESENTATION ( #486, #66 ) ;
#419 = PRODUCT_RELATED_PRODUCT_CATEGORY ( 'part', '', ( #29 ) ) ;
#420 = APPLIED_DOCUMENT_REFERENCE ( #153,'',( #308) ) ;
#421 = PRODUCT_RELATED_PRODUCT_CATEGORY ( 'part', '', ( #277 ) ) ;
#422 = APPLICATION_CONTEXT ( 'automotive_design' ) ;
#423 = UNCERTAINTY_MEASURE_WITH_UNIT (LENGTH_MEASURE( 1.000000000000000082E-05 ), #487, 'distance_accuracy_value', 'NONE');
#424 = PRODUCT_CONTEXT ( 'NONE', #465, 'mechanical' ) ;
#425 = PROPERTY_DEFINITION ('external definition','', #16 ) ;
#426 = DOCUMENT_FILE ( '\X2\65cb8f6c7aef76d6\X0\.STEP' , '', '', #349, '' ,$ ) ;
#427 = UNCERTAINTY_MEASURE_WITH_UNIT (LENGTH_MEASURE( 1.000000000000000082E-05 ), #496, 'distance_accuracy_value', 'NONE');
#428 = IDENTIFICATION_ROLE ( 'external document id and location', $) ;
#429 = DIRECTION ( 'NONE',  ( 0.000000000000000000, 0.000000000000000000, 1.000000000000000000 ) ) ;
#430 = PRODUCT_DEFINITION_FORMATION_WITH_SPECIFIED_SOURCE ( 'å¯', '', #238, .NOT_KNOWN. ) ;
#431 = ITEM_DEFINED_TRANSFORMATION ( 'NONE', 'NONE', #355,  #241 ) ;
#432 = DOCUMENT_TYPE ( 'geometry' ) ;
#433 =( NAMED_UNIT ( * ) SI_UNIT ( $, .STERADIAN. ) SOLID_ANGLE_UNIT ( ) );
#434 = DIRECTION ( 'NONE',  ( 1.000000000000000000, 0.000000000000000000, 0.000000000000000000 ) ) ;
#435 = DIRECTION ( 'NONE',  ( 1.000000000000000000, 0.000000000000000000, 0.000000000000000000 ) ) ;
#436 = PRODUCT_DEFINITION_SHAPE ( 'NONE', 'NONE',  #569 ) ;
#437 = IDENTIFICATION_ROLE ( 'external document id and location', $) ;
#438 = PRODUCT_DEFINITION_CONTEXT ( 'detailed design', #352, 'design' ) ;
#439 = AXIS2_PLACEMENT_3D ( 'NONE', #24, #468, #167 ) ;
#440 =( NAMED_UNIT ( * ) PLANE_ANGLE_UNIT ( ) SI_UNIT ( $, .RADIAN. ) );
#441 = PRODUCT_DEFINITION_SHAPE ( 'NONE', 'NONE',  #541 ) ;
#442 = APPLIED_EXTERNAL_IDENTIFICATION_ASSIGNMENT ( 'sub\X2\74035f62652f64914ef6\X0\.STEP' , #253, #297,( #6) ) ;
#443 = DIRECTION ( 'NONE',  ( 0.000000000000000000, 0.000000000000000000, 1.000000000000000000 ) ) ;
#444 = PRODUCT_DEFINITION_SHAPE ( 'NONE', 'NONE',  #308 ) ;
#445 =( GEOMETRIC_REPRESENTATION_CONTEXT ( 3 ) GLOBAL_UNCERTAINTY_ASSIGNED_CONTEXT ( ( #198 ) ) GLOBAL_UNIT_ASSIGNED_CONTEXT ( ( #129, #565, #260 ) ) REPRESENTATION_CONTEXT ( 'NONE', 'WORKASPACE' ) );
#446 = DIRECTION ( 'NONE',  ( -0.9510565162951534202, -5.263279524148871041E-15, 0.3090169943749476733 ) ) ;
#447 = PROPERTY_DEFINITION ('external definition','', #426 ) ;
#448 = IDENTIFICATION_ROLE ( 'external document id and location', $) ;
#449 = APPLIED_EXTERNAL_IDENTIFICATION_ASSIGNMENT ( '\X2\73af5f6265cb8f6c\X0\.STEP' , #97, #174,( #95) ) ;
#450 =( LENGTH_UNIT ( ) NAMED_UNIT ( * ) SI_UNIT ( .MILLI., .METRE. ) );
#451 = PRODUCT_DEFINITION_SHAPE ( 'NONE', 'NONE',  #575 ) ;
#452 = PRODUCT ( 'v6_2\X2\88c5914d4f53\X0\1', 'v6_2\X2\88c5914d4f53\X0\1', '', ( #135 ) ) ;
#453 = EXTERNAL_SOURCE (IDENTIFIER('') ) ;
#454 = AXIS2_PLACEMENT_3D ( 'NONE', #23, #28, #134 ) ;
#455 =( LENGTH_UNIT ( ) NAMED_UNIT ( * ) SI_UNIT ( .MILLI., .METRE. ) );
#456 = CARTESIAN_POINT ( 'NONE',  ( -69.52161961380116395, -99.15307083379079245, 0.9586853112826042578 ) ) ;
#457 = PRODUCT_DEFINITION_CONTEXT ( 'detailed design', #164, 'design' ) ;
#458 = ITEM_DEFINED_TRANSFORMATION ( 'NONE', 'NONE', #61,  #366 ) ;
#459 = SHAPE_DEFINITION_REPRESENTATION ( #527, #132 ) ;
#460 = PRODUCT_DEFINITION_SHAPE ( 'NONE', 'NONE',  #147 ) ;
#461 = PROPERTY_DEFINITION_REPRESENTATION ( #502, #216 ) ;
#462 = APPLICATION_PROTOCOL_DEFINITION ( 'draft international standard', 'automotive_design', 1998, #380 ) ;
#463 =( GEOMETRIC_REPRESENTATION_CONTEXT ( 3 ) GLOBAL_UNCERTAINTY_ASSIGNED_CONTEXT ( ( #427 ) ) GLOBAL_UNIT_ASSIGNED_CONTEXT ( ( #496, #271, #203 ) ) REPRESENTATION_CONTEXT ( 'NONE', 'WORKASPACE' ) );
#464 = UNCERTAINTY_MEASURE_WITH_UNIT (LENGTH_MEASURE( 1.000000000000000082E-05 ), #120, 'distance_accuracy_value', 'NONE');
#465 = APPLICATION_CONTEXT ( 'automotive_design' ) ;
#466 = PROPERTY_DEFINITION ('external definition','', #58 ) ;
#467 = APPLICATION_CONTEXT ( 'automotive_design' ) ;
#468 = DIRECTION ( 'NONE',  ( 0.3090169943749464521, 1.339817193382323823E-15, 0.9510565162951540863 ) ) ;
#469 = CONTEXT_DEPENDENT_SHAPE_REPRESENTATION ( #309, #451 ) ;
#470 = PRODUCT_DEFINITION_CONTEXT ( 'detailed design', #422, 'design' ) ;
#471 = ROLE_ASSOCIATION ( #259, #289 ) ;
#472 = PRODUCT_CONTEXT ( 'NONE', #41, 'mechanical' ) ;
#473 = DIRECTION ( 'NONE',  ( 0.000000000000000000, 0.000000000000000000, 1.000000000000000000 ) ) ;
#474 = AXIS2_PLACEMENT_3D ( 'NONE', #526, #31, #337 ) ;
#475 = CARTESIAN_POINT ( 'NONE',  ( 0.000000000000000000, 0.000000000000000000, 0.000000000000000000 ) ) ;
#476 = PRODUCT_RELATED_PRODUCT_CATEGORY ( 'part', '', ( #119 ) ) ;
#477 = PROPERTY_DEFINITION ('document property','', #153 ) ;
#478 =( LENGTH_UNIT ( ) NAMED_UNIT ( * ) SI_UNIT ( .MILLI., .METRE. ) );
#479 =( NAMED_UNIT ( * ) SI_UNIT ( $, .STERADIAN. ) SOLID_ANGLE_UNIT ( ) );
#480 = PRODUCT_DEFINITION_FORMATION_WITH_SPECIFIED_SOURCE ( 'å¯', '', #488, .NOT_KNOWN. ) ;
#481 = PRODUCT_DEFINITION_SHAPE ( 'NONE', 'NONE',  #573 ) ;
#482 =( LENGTH_UNIT ( ) NAMED_UNIT ( * ) SI_UNIT ( .MILLI., .METRE. ) );
#483 = IDENTIFICATION_ROLE ( 'external document id and location', $) ;
#484 = UNCERTAINTY_MEASURE_WITH_UNIT (LENGTH_MEASURE( 1.000000000000000082E-05 ), #455, 'distance_accuracy_value', 'NONE');
#485 = OBJECT_ROLE ('mandatory',$ ) ;
#486 = PROPERTY_DEFINITION ('document property','', #109 ) ;
#487 =( LENGTH_UNIT ( ) NAMED_UNIT ( * ) SI_UNIT ( .MILLI., .METRE. ) );
#488 = PRODUCT ( 'XC-430_idle', 'XC-430_idle', '', ( #424 ) ) ;
#489 = APPLIED_DOCUMENT_REFERENCE ( #362,'',( #387) ) ;
#490 = CARTESIAN_POINT ( 'NONE',  ( 0.000000000000000000, 0.000000000000000000, 0.000000000000000000 ) ) ;
#491 = ITEM_DEFINED_TRANSFORMATION ( 'NONE', 'NONE', #3,  #241 ) ;
#492 =( REPRESENTATION_RELATIONSHIP ('NONE','NONE', #274, #66 ) REPRESENTATION_RELATIONSHIP_WITH_TRANSFORMATION ( #458 )SHAPE_REPRESENTATION_RELATIONSHIP( ) );
#493 = PRODUCT_DEFINITION_SHAPE ( 'NONE', 'NONE',  #579 ) ;
#494 = APPLIED_DOCUMENT_REFERENCE ( #529,'',( #541) ) ;
#495 = DIRECTION ( 'NONE',  ( -1.151578224737075414E-15, 0.9999999999999998890, -1.034596719256450957E-15 ) ) ;
#496 =( LENGTH_UNIT ( ) NAMED_UNIT ( * ) SI_UNIT ( .MILLI., .METRE. ) );
#497 = PROPERTY_DEFINITION_REPRESENTATION ( #20, #154 ) ;
#498 = SHAPE_DEFINITION_REPRESENTATION ( #258, #216 ) ;
#499 =( GEOMETRIC_REPRESENTATION_CONTEXT ( 3 ) GLOBAL_UNCERTAINTY_ASSIGNED_CONTEXT ( ( #236 ) ) GLOBAL_UNIT_ASSIGNED_CONTEXT ( ( #341, #212, #26 ) ) REPRESENTATION_CONTEXT ( 'NONE', 'WORKASPACE' ) );
#500 = PRODUCT_DEFINITION ( 'æ™', '', #430, #112 ) ;
#501 =( REPRESENTATION_RELATIONSHIP ('NONE','NONE', #274, #154 ) REPRESENTATION_RELATIONSHIP_WITH_TRANSFORMATION ( #431 )SHAPE_REPRESENTATION_RELATIONSHIP( ) );
#502 = PROPERTY_DEFINITION ('document property','', #95 ) ;
#503 = IDENTIFICATION_ROLE ( 'external document id and location', $) ;
#504 = PRODUCT_CONTEXT ( 'NONE', #148, 'mechanical' ) ;
#505 = CONTEXT_DEPENDENT_SHAPE_REPRESENTATION ( #322, #535 ) ;
#506 = DOCUMENT_TYPE ( 'geometry' ) ;
#507 = PRODUCT_DEFINITION_SHAPE ( 'NONE', 'NONE',  #516 ) ;
#508 = APPLICATION_PROTOCOL_DEFINITION ( 'draft international standard', 'automotive_design', 1998, #246 ) ;
#509 =( GEOMETRIC_REPRESENTATION_CONTEXT ( 3 ) GLOBAL_UNCERTAINTY_ASSIGNED_CONTEXT ( ( #484 ) ) GLOBAL_UNIT_ASSIGNED_CONTEXT ( ( #455, #411, #17 ) ) REPRESENTATION_CONTEXT ( 'NONE', 'WORKASPACE' ) );
#510 = PRODUCT_DEFINITION_FORMATION_WITH_SPECIFIED_SOURCE ( 'å¯', '', #126, .NOT_KNOWN. ) ;
#511 = APPLICATION_CONTEXT ( 'automotive_design' ) ;
#512 = EXTERNAL_SOURCE (IDENTIFIER('') ) ;
#513 = APPLICATION_PROTOCOL_DEFINITION ( 'draft international standard', 'automotive_design', 1998, #41 ) ;
#514 = CARTESIAN_POINT ( 'NONE',  ( 0.000000000000000000, 0.000000000000000000, 0.000000000000000000 ) ) ;
#515 = PRODUCT_DEFINITION_CONTEXT ( 'detailed design', #166, 'design' ) ;
#516 = PRODUCT_DEFINITION ( 'æ™', '', #69, #91 ) ;
#517 = PRODUCT_DEFINITION ( 'æ™', '', #176, #520 ) ;
#518 = DIRECTION ( 'NONE',  ( 0.000000000000000000, 0.000000000000000000, 1.000000000000000000 ) ) ;
#519 =( REPRESENTATION_RELATIONSHIP ('NONE','NONE', #274, #179 ) REPRESENTATION_RELATIONSHIP_WITH_TRANSFORMATION ( #283 )SHAPE_REPRESENTATION_RELATIONSHIP( ) );
#520 = PRODUCT_DEFINITION_CONTEXT ( 'detailed design', #121, 'design' ) ;
#521 = DIRECTION ( 'NONE',  ( 0.9510565162951536422, 5.260067361018133052E-15, -0.3090169943749477843 ) ) ;
#522 = PRODUCT_DEFINITION_SHAPE ( 'NONE', 'NONE',  #371 ) ;
#523 =( NAMED_UNIT ( * ) PLANE_ANGLE_UNIT ( ) SI_UNIT ( $, .RADIAN. ) );
#524 = PRODUCT_DEFINITION_CONTEXT ( 'detailed design', #344, 'design' ) ;
#525 =( NAMED_UNIT ( * ) PLANE_ANGLE_UNIT ( ) SI_UNIT ( $, .RADIAN. ) );
#526 = CARTESIAN_POINT ( 'NONE',  ( 0.000000000000000000, 0.000000000000000000, 0.000000000000000000 ) ) ;
#527 = PRODUCT_DEFINITION_SHAPE ( 'NONE', 'NONE',  #130 ) ;
#528 = PRODUCT_DEFINITION_FORMATION_WITH_SPECIFIED_SOURCE ( 'å¯', '', #374, .NOT_KNOWN. ) ;
#529 = DOCUMENT_FILE ( '\X2\73af5f6265cb8f6c\X0\2.STEP' , '', '', #333, '' ,$ ) ;
#530 = OBJECT_ROLE ('mandatory',$ ) ;
#531 = OBJECT_ROLE ('mandatory',$ ) ;
#532 = CONTEXT_DEPENDENT_SHAPE_REPRESENTATION ( #560, #547 ) ;
#533 =( GEOMETRIC_REPRESENTATION_CONTEXT ( 3 ) GLOBAL_UNCERTAINTY_ASSIGNED_CONTEXT ( ( #149 ) ) GLOBAL_UNIT_ASSIGNED_CONTEXT ( ( #30, #359, #392 ) ) REPRESENTATION_CONTEXT ( 'NONE', 'WORKASPACE' ) );
#534 = DIRECTION ( 'NONE',  ( 0.3090169943749477843, 5.097628891843051002E-16, 0.9510565162951536422 ) ) ;
#535 = PRODUCT_DEFINITION_SHAPE ( 'NONE', 'NONE',  #578 ) ;
#536 = CONTEXT_DEPENDENT_SHAPE_REPRESENTATION ( #22, #306 ) ;
#537 = DIRECTION ( 'NONE',  ( 0.000000000000000000, 0.000000000000000000, 1.000000000000000000 ) ) ;
#538 = DIRECTION ( 'NONE',  ( 1.000000000000000000, 0.000000000000000000, 0.000000000000000000 ) ) ;
#539 = CONTEXT_DEPENDENT_SHAPE_REPRESENTATION ( #209, #436 ) ;
#540 = PROPERTY_DEFINITION ('external definition','', #95 ) ;
#541 = PRODUCT_DEFINITION ( 'æ™', '', #255, #214 ) ;
#542 =( NAMED_UNIT ( * ) SI_UNIT ( $, .STERADIAN. ) SOLID_ANGLE_UNIT ( ) );
#543 = APPLICATION_CONTEXT ( 'automotive_design' ) ;
#544 =( GEOMETRIC_REPRESENTATION_CONTEXT ( 3 ) GLOBAL_UNCERTAINTY_ASSIGNED_CONTEXT ( ( #193 ) ) GLOBAL_UNIT_ASSIGNED_CONTEXT ( ( #291, #141, #433 ) ) REPRESENTATION_CONTEXT ( 'NONE', 'WORKASPACE' ) );
#545 = DIRECTION ( 'NONE',  ( 0.8137744036885867782, 5.216633909735830808E-15, -0.5811808839778589419 ) ) ;
#546 = PRODUCT_DEFINITION_SHAPE ( 'NONE', 'NONE',  #580 ) ;
#547 = PRODUCT_DEFINITION_SHAPE ( 'NONE', 'NONE',  #570 ) ;
#548 = APPLIED_DOCUMENT_REFERENCE ( #58,'',( #147) ) ;
#549 = APPLICATION_PROTOCOL_DEFINITION ( 'draft international standard', 'automotive_design', 1998, #465 ) ;
#550 = APPLIED_DOCUMENT_REFERENCE ( #152,'',( #189) ) ;
#551 = APPLICATION_CONTEXT ( 'automotive_design' ) ;
#552 = PRODUCT_DEFINITION_SHAPE ( 'NONE', 'NONE',  #500 ) ;
#553 = ROLE_ASSOCIATION ( #264, #375 ) ;
#554 = APPLICATION_PROTOCOL_DEFINITION ( 'draft international standard', 'automotive_design', 1998, #344 ) ;
#555 =( NAMED_UNIT ( * ) PLANE_ANGLE_UNIT ( ) SI_UNIT ( $, .RADIAN. ) );
#556 = AXIS2_PLACEMENT_3D ( 'NONE', #228, #79, #545 ) ;
#557 = APPLIED_DOCUMENT_REFERENCE ( #377,'',( #371) ) ;
#558 = PRODUCT_DEFINITION_SHAPE ( 'NONE', 'NONE',  #567 ) ;
#559 = PROPERTY_DEFINITION_REPRESENTATION ( #425, #154 ) ;
#560 =( REPRESENTATION_RELATIONSHIP ('NONE','NONE', #274, #132 ) REPRESENTATION_RELATIONSHIP_WITH_TRANSFORMATION ( #319 )SHAPE_REPRESENTATION_RELATIONSHIP( ) );
#561 = APPLICATION_PROTOCOL_DEFINITION ( 'draft international standard', 'automotive_design', 1998, #290 ) ;
#562 = CARTESIAN_POINT ( 'NONE',  ( 0.000000000000000000, 0.000000000000000000, 0.000000000000000000 ) ) ;
#563 = PRODUCT_RELATED_PRODUCT_CATEGORY ( 'part', '', ( #126 ) ) ;
#564 = OBJECT_ROLE ('mandatory',$ ) ;
#565 =( NAMED_UNIT ( * ) PLANE_ANGLE_UNIT ( ) SI_UNIT ( $, .RADIAN. ) );
#566 = CARTESIAN_POINT ( 'NONE',  ( -48.11032103551431049, -53.90307083379040165, 50.67554656771607569 ) ) ;
#567 = NEXT_ASSEMBLY_USAGE_OCCURRENCE ( 'NAUO26', ' ', ' ', #218, #500, $ ) ;
#568 = NEXT_ASSEMBLY_USAGE_OCCURRENCE ( 'NAUO27', ' ', ' ', #218, #308, $ ) ;
#569 = NEXT_ASSEMBLY_USAGE_OCCURRENCE ( 'NAUO28', ' ', ' ', #218, #387, $ ) ;
#570 = NEXT_ASSEMBLY_USAGE_OCCURRENCE ( 'NAUO29', ' ', ' ', #218, #130, $ ) ;
#571 = NEXT_ASSEMBLY_USAGE_OCCURRENCE ( 'NAUO30', ' ', ' ', #218, #500, $ ) ;
#572 = NEXT_ASSEMBLY_USAGE_OCCURRENCE ( 'NAUO31', ' ', ' ', #218, #541, $ ) ;
#573 = NEXT_ASSEMBLY_USAGE_OCCURRENCE ( 'NAUO32', ' ', ' ', #218, #5, $ ) ;
#574 = NEXT_ASSEMBLY_USAGE_OCCURRENCE ( 'NAUO33', ' ', ' ', #218, #516, $ ) ;
#575 = NEXT_ASSEMBLY_USAGE_OCCURRENCE ( 'NAUO34', ' ', ' ', #218, #147, $ ) ;
#576 = NEXT_ASSEMBLY_USAGE_OCCURRENCE ( 'NAUO35', ' ', ' ', #218, #189, $ ) ;
#577 = NEXT_ASSEMBLY_USAGE_OCCURRENCE ( 'NAUO36', ' ', ' ', #218, #371, $ ) ;
#578 = NEXT_ASSEMBLY_USAGE_OCCURRENCE ( 'NAUO37', ' ', ' ', #218, #310, $ ) ;
#579 = NEXT_ASSEMBLY_USAGE_OCCURRENCE ( 'NAUO38', ' ', ' ', #218, #371, $ ) ;
#580 = NEXT_ASSEMBLY_USAGE_OCCURRENCE ( 'NAUO39', ' ', ' ', #218, #517, $ ) ;
ENDSEC;
END-ISO-10303-21;
