ISO-10303-21;
HEADER;
FILE_DESCRIPTION (( 'STEP AP214' ),
    '1' );
FILE_NAME ('XC-430_idle.STEP',
    '2026-08-29T22:11:47',
    ( '' ),
    ( '' ),
    'SwSTEP 2.0',
    'SolidWorks 2023',
    '' );
FILE_SCHEMA (( 'AUTOMOTIVE_DESIGN' ));
ENDSEC;

DATA;
#1 = DIRECTION ( 'NONE',  ( 1.000000000000000000, 0.000000000000000000, 0.000000000000000000 ) ) ;
#2 = PROPERTY_DEFINITION_REPRESENTATION ( #266, #224 ) ;
#3 = APPLICATION_CONTEXT ( 'automotive_design' ) ;
#4 = PRODUCT_DEFINITION_CONTEXT ( 'detailed design', #174, 'design' ) ;
#5 = DIRECTION ( 'NONE',  ( 0.000000000000000000, 0.000000000000000000, 1.000000000000000000 ) ) ;
#6 = PRODUCT ( 'DC11_B01_CASE_F_DUMMY', 'DC11_B01_CASE_F_DUMMY', '', ( #52 ) ) ;
#7 = OBJECT_ROLE ('mandatory',$ ) ;
#8 =( NAMED_UNIT ( * ) SI_UNIT ( $, .STERADIAN. ) SOLID_ANGLE_UNIT ( ) );
#9 = PRODUCT ( 'DC14_A01_INSERT_1', 'DC14_A01_INSERT_1', '', ( #271 ) ) ;
#10 =( NAMED_UNIT ( * ) PLANE_ANGLE_UNIT ( ) SI_UNIT ( $, .RADIAN. ) );
#11 = PRODUCT ( 'XC-430_idle', 'XC-430_idle', '', ( #68 ) ) ;
#12 = CARTESIAN_POINT ( 'NONE',  ( 56.31764918911825646, 6.509232092835645744, -24.44021896093562773 ) ) ;
#13 =( REPRESENTATION_RELATIONSHIP ('NONE','NONE', #42, #14 ) REPRESENTATION_RELATIONSHIP_WITH_TRANSFORMATION ( #58 )SHAPE_REPRESENTATION_RELATIONSHIP( ) );
#14 = SHAPE_REPRESENTATION ( 'DC11_B01_CASE_F_DUMMY', ( #135 ), #140 ) ;
#15 = UNCERTAINTY_MEASURE_WITH_UNIT (LENGTH_MEASURE( 1.000000000000000082E-05 ), #65, 'distance_accuracy_value', 'NONE');
#16 = PROPERTY_DEFINITION ('document property','', #247 ) ;
#17 = APPLICATION_PROTOCOL_DEFINITION ( 'draft international standard', 'automotive_design', 1998, #117 ) ;
#18 = PRODUCT_RELATED_PRODUCT_CATEGORY ( 'part', '', ( #6 ) ) ;
#19 = DIRECTION ( 'NONE',  ( 0.000000000000000000, 0.000000000000000000, 1.000000000000000000 ) ) ;
#20 = APPLIED_EXTERNAL_IDENTIFICATION_ASSIGNMENT ( 'DC11_B01_CASE_B_DUMMY2.STEP' , #23, #85,( #143) ) ;
#21 = APPLICATION_CONTEXT ( 'automotive_design' ) ;
#22 = APPLICATION_PROTOCOL_DEFINITION ( 'draft international standard', 'automotive_design', 1998, #3 ) ;
#23 = IDENTIFICATION_ROLE ( 'external document id and location', $) ;
#24 = CONTEXT_DEPENDENT_SHAPE_REPRESENTATION ( #248, #207 ) ;
#25 = IDENTIFICATION_ROLE ( 'external document id and location', $) ;
#26 = PRODUCT_DEFINITION_CONTEXT ( 'detailed design', #230, 'design' ) ;
#27 = DIRECTION ( 'NONE',  ( 0.2422483785525043898, 0.9702142665868619398, 0.000000000000000000 ) ) ;
#28 = APPLICATION_CONTEXT ( 'automotive_design' ) ;
#29 = PRODUCT_DEFINITION_SHAPE ( 'NONE', 'NONE',  #180 ) ;
#30 = APPLICATION_PROTOCOL_DEFINITION ( 'draft international standard', 'automotive_design', 1998, #21 ) ;
#31 = APPLICATION_CONTEXT ( 'automotive_design' ) ;
#32 =( GEOMETRIC_REPRESENTATION_CONTEXT ( 3 ) GLOBAL_UNCERTAINTY_ASSIGNED_CONTEXT ( ( #73 ) ) GLOBAL_UNIT_ASSIGNED_CONTEXT ( ( #218, #150, #199 ) ) REPRESENTATION_CONTEXT ( 'NONE', 'WORKASPACE' ) );
#33 = APPLIED_EXTERNAL_IDENTIFICATION_ASSIGNMENT ( 'DC11_B01_CASE_M_DUMMY.STEP' , #197, #46,( #247) ) ;
#34 = PRODUCT_CONTEXT ( 'NONE', #147, 'mechanical' ) ;
#35 = PRODUCT_RELATED_PRODUCT_CATEGORY ( 'part', '', ( #273 ) ) ;
#36 = UNCERTAINTY_MEASURE_WITH_UNIT (LENGTH_MEASURE( 1.000000000000000082E-05 ), #196, 'distance_accuracy_value', 'NONE');
#37 = CONTEXT_DEPENDENT_SHAPE_REPRESENTATION ( #114, #222 ) ;
#38 =( NAMED_UNIT ( * ) SI_UNIT ( $, .STERADIAN. ) SOLID_ANGLE_UNIT ( ) );
#39 = APPLIED_EXTERNAL_IDENTIFICATION_ASSIGNMENT ( 'M_DC11_A01_IDLER_ASM.STEP' , #74, #227,( #191) ) ;
#40 = OBJECT_ROLE ('mandatory',$ ) ;
#41 = PROPERTY_DEFINITION_REPRESENTATION ( #270, #82 ) ;
#42 = SHAPE_REPRESENTATION ( 'XC-430_idle', ( #257, #47, #184, #133, #203, #64, #132 ), #96 ) ;
#43 =( NAMED_UNIT ( * ) PLANE_ANGLE_UNIT ( ) SI_UNIT ( $, .RADIAN. ) );
#44 = PROPERTY_DEFINITION_REPRESENTATION ( #129, #14 ) ;
#45 =( NAMED_UNIT ( * ) PLANE_ANGLE_UNIT ( ) SI_UNIT ( $, .RADIAN. ) );
#46 = EXTERNAL_SOURCE (IDENTIFIER('') ) ;
#47 = AXIS2_PLACEMENT_3D ( 'NONE', #221, #177, #263 ) ;
#48 = OBJECT_ROLE ('mandatory',$ ) ;
#49 = PRODUCT_DEFINITION_FORMATION_WITH_SPECIFIED_SOURCE ( 'å¯', '', #134, .NOT_KNOWN. ) ;
#50 =( LENGTH_UNIT ( ) NAMED_UNIT ( * ) SI_UNIT ( .MILLI., .METRE. ) );
#51 = PRODUCT_DEFINITION_SHAPE ( 'NONE', 'NONE',  #89 ) ;
#52 = PRODUCT_CONTEXT ( 'NONE', #158, 'mechanical' ) ;
#53 = PRODUCT ( 'M_DC11_A01_HORN_ASM', 'M_DC11_A01_HORN_ASM', '', ( #139 ) ) ;
#54 = PROPERTY_DEFINITION_REPRESENTATION ( #16, #246 ) ;
#55 = APPLIED_DOCUMENT_REFERENCE ( #247,'',( #89) ) ;
#56 = PROPERTY_DEFINITION ('external definition','', #120 ) ;
#57 = SHAPE_REPRESENTATION ( 'M_DC11_A01_IDLER_ASM', ( #125 ), #32 ) ;
#58 = ITEM_DEFINED_TRANSFORMATION ( 'NONE', 'NONE', #133,  #135 ) ;
#59 = APPLICATION_CONTEXT ( 'automotive_design' ) ;
#60 = APPLIED_EXTERNAL_IDENTIFICATION_ASSIGNMENT ( 'DC14_A01_INSERT_1.STEP' , #214, #223,( #120) ) ;
#61 = APPLIED_DOCUMENT_REFERENCE ( #191,'',( #250) ) ;
#62 = OBJECT_ROLE ('mandatory',$ ) ;
#63 = APPLIED_DOCUMENT_REFERENCE ( #165,'',( #154) ) ;
#64 = AXIS2_PLACEMENT_3D ( 'NONE', #239, #27, #201 ) ;
#65 =( LENGTH_UNIT ( ) NAMED_UNIT ( * ) SI_UNIT ( .MILLI., .METRE. ) );
#66 = DIRECTION ( 'NONE',  ( 1.000000000000000000, 0.000000000000000000, 0.000000000000000000 ) ) ;
#67 = DIRECTION ( 'NONE',  ( 1.000000000000000000, 0.000000000000000000, 0.000000000000000000 ) ) ;
#68 = PRODUCT_CONTEXT ( 'NONE', #21, 'mechanical' ) ;
#69 = PROPERTY_DEFINITION ('external definition','', #191 ) ;
#70 = DIRECTION ( 'NONE',  ( 1.000000000000000444, -1.479114197289397135E-31, 0.000000000000000000 ) ) ;
#71 = DOCUMENT_TYPE ( 'geometry' ) ;
#72 = SHAPE_DEFINITION_REPRESENTATION ( #151, #57 ) ;
#73 = UNCERTAINTY_MEASURE_WITH_UNIT (LENGTH_MEASURE( 1.000000000000000082E-05 ), #218, 'distance_accuracy_value', 'NONE');
#74 = IDENTIFICATION_ROLE ( 'external document id and location', $) ;
#75 = APPLICATION_PROTOCOL_DEFINITION ( 'draft international standard', 'automotive_design', 1998, #182 ) ;
#76 = APPLICATION_PROTOCOL_DEFINITION ( 'draft international standard', 'automotive_design', 1998, #31 ) ;
#77 = CONTEXT_DEPENDENT_SHAPE_REPRESENTATION ( #13, #152 ) ;
#78 = APPLIED_EXTERNAL_IDENTIFICATION_ASSIGNMENT ( 'DC11_B01_CASE_F_DUMMY.STEP' , #25, #255,( #165) ) ;
#79 = PRODUCT_DEFINITION ( 'æ™', '', #185, #172 ) ;
#80 = DOCUMENT_TYPE ( 'geometry' ) ;
#81 = PRODUCT_DEFINITION ( 'æ™', '', #204, #26 ) ;
#82 = SHAPE_REPRESENTATION ( 'DC11_B01_CASE_B_DUMMY2', ( #111 ), #168 ) ;
#83 = APPLIED_DOCUMENT_REFERENCE ( #143,'',( #79) ) ;
#84 =( NAMED_UNIT ( * ) PLANE_ANGLE_UNIT ( ) SI_UNIT ( $, .RADIAN. ) );
#85 = EXTERNAL_SOURCE (IDENTIFIER('') ) ;
#86 =( NAMED_UNIT ( * ) SI_UNIT ( $, .STERADIAN. ) SOLID_ANGLE_UNIT ( ) );
#87 = DIRECTION ( 'NONE',  ( 0.000000000000000000, 0.000000000000000000, 1.000000000000000000 ) ) ;
#88 = PROPERTY_DEFINITION ('external definition','', #247 ) ;
#89 = PRODUCT_DEFINITION ( 'æ™', '', #49, #109 ) ;
#90 = PRODUCT_DEFINITION_SHAPE ( 'NONE', 'NONE',  #279 ) ;
#91 = DIRECTION ( 'NONE',  ( 0.000000000000000000, 5.916456789157588541E-31, 1.000000000000000444 ) ) ;
#92 = PRODUCT_RELATED_PRODUCT_CATEGORY ( 'part', '', ( #9 ) ) ;
#93 = CARTESIAN_POINT ( 'NONE',  ( 0.000000000000000000, 0.000000000000000000, 0.000000000000000000 ) ) ;
#94 = UNCERTAINTY_MEASURE_WITH_UNIT (LENGTH_MEASURE( 1.000000000000000082E-05 ), #108, 'distance_accuracy_value', 'NONE');
#95 =( GEOMETRIC_REPRESENTATION_CONTEXT ( 3 ) GLOBAL_UNCERTAINTY_ASSIGNED_CONTEXT ( ( #118 ) ) GLOBAL_UNIT_ASSIGNED_CONTEXT ( ( #190, #84, #170 ) ) REPRESENTATION_CONTEXT ( 'NONE', 'WORKASPACE' ) );
#96 =( GEOMETRIC_REPRESENTATION_CONTEXT ( 3 ) GLOBAL_UNCERTAINTY_ASSIGNED_CONTEXT ( ( #94 ) ) GLOBAL_UNIT_ASSIGNED_CONTEXT ( ( #108, #162, #123 ) ) REPRESENTATION_CONTEXT ( 'NONE', 'WORKASPACE' ) );
#97 = APPLIED_DOCUMENT_REFERENCE ( #120,'',( #254) ) ;
#98 =( LENGTH_UNIT ( ) NAMED_UNIT ( * ) SI_UNIT ( .MILLI., .METRE. ) );
#99 = APPLICATION_PROTOCOL_DEFINITION ( 'draft international standard', 'automotive_design', 1998, #260 ) ;
#100 = APPLICATION_PROTOCOL_DEFINITION ( 'draft international standard', 'automotive_design', 1998, #267 ) ;
#101 = ROLE_ASSOCIATION ( #144, #231 ) ;
#102 = CONTEXT_DEPENDENT_SHAPE_REPRESENTATION ( #234, #198 ) ;
#103 = CARTESIAN_POINT ( 'NONE',  ( 0.000000000000000000, 0.000000000000000000, 0.000000000000000000 ) ) ;
#104 = DIRECTION ( 'NONE',  ( 1.000000000000000000, 0.000000000000000000, 0.000000000000000000 ) ) ;
#105 = PROPERTY_DEFINITION_REPRESENTATION ( #69, #57 ) ;
#106 = DIRECTION ( 'NONE',  ( 0.000000000000000000, 0.000000000000000000, 1.000000000000000000 ) ) ;
#107 = PRODUCT_DEFINITION_SHAPE ( 'NONE', 'NONE',  #79 ) ;
#108 =( LENGTH_UNIT ( ) NAMED_UNIT ( * ) SI_UNIT ( .MILLI., .METRE. ) );
#109 = PRODUCT_DEFINITION_CONTEXT ( 'detailed design', #182, 'design' ) ;
#110 = CARTESIAN_POINT ( 'NONE',  ( 56.31764918911825646, 6.509232092835645744, -24.44021896093563484 ) ) ;
#111 = AXIS2_PLACEMENT_3D ( 'NONE', #192, #87, #265 ) ;
#112 = APPLICATION_PROTOCOL_DEFINITION ( 'draft international standard', 'automotive_design', 1998, #174 ) ;
#113 = SHAPE_REPRESENTATION ( 'DC14_A01_INSERT_1', ( #193 ), #95 ) ;
#114 =( REPRESENTATION_RELATIONSHIP ('NONE','NONE', #42, #113 ) REPRESENTATION_RELATIONSHIP_WITH_TRANSFORMATION ( #137 )SHAPE_REPRESENTATION_RELATIONSHIP( ) );
#115 = DIRECTION ( 'NONE',  ( 0.9846505551349394869, -0.1745373434897404263, 5.551115123125782702E-17 ) ) ;
#116 = PROPERTY_DEFINITION ('external definition','', #165 ) ;
#117 = APPLICATION_CONTEXT ( 'automotive_design' ) ;
#118 = UNCERTAINTY_MEASURE_WITH_UNIT (LENGTH_MEASURE( 1.000000000000000082E-05 ), #190, 'distance_accuracy_value', 'NONE');
#119 = EXTERNAL_SOURCE (IDENTIFIER('') ) ;
#120 = DOCUMENT_FILE ( 'DC14_A01_INSERT_1.STEP' , '', '', #219, '' ,$ ) ;
#121 = DIRECTION ( 'NONE',  ( 0.000000000000000000, 0.000000000000000000, 1.000000000000000000 ) ) ;
#122 = SHAPE_DEFINITION_REPRESENTATION ( #176, #224 ) ;
#123 =( NAMED_UNIT ( * ) SI_UNIT ( $, .STERADIAN. ) SOLID_ANGLE_UNIT ( ) );
#124 = ITEM_DEFINED_TRANSFORMATION ( 'NONE', 'NONE', #132,  #111 ) ;
#125 = AXIS2_PLACEMENT_3D ( 'NONE', #256, #106, #104 ) ;
#126 = APPLIED_EXTERNAL_IDENTIFICATION_ASSIGNMENT ( 'M_DC11_A01_HORN_ASM.STEP' , #188, #119,( #136) ) ;
#127 = PRODUCT_RELATED_PRODUCT_CATEGORY ( 'part', '', ( #11 ) ) ;
#128 =( NAMED_UNIT ( * ) SI_UNIT ( $, .STERADIAN. ) SOLID_ANGLE_UNIT ( ) );
#129 = PROPERTY_DEFINITION ('document property','', #165 ) ;
#130 = DIRECTION ( 'NONE',  ( 0.000000000000000000, 5.916456789157588541E-31, 1.000000000000000444 ) ) ;
#131 = PRODUCT_DEFINITION_SHAPE ( 'NONE', 'NONE',  #254 ) ;
#132 = AXIS2_PLACEMENT_3D ( 'NONE', #12, #91, #179 ) ;
#133 = AXIS2_PLACEMENT_3D ( 'NONE', #110, #130, #70 ) ;
#134 = PRODUCT ( 'DC11_B01_CASE_M_DUMMY', 'DC11_B01_CASE_M_DUMMY', '', ( #34 ) ) ;
#135 = AXIS2_PLACEMENT_3D ( 'NONE', #169, #251, #259 ) ;
#136 = DOCUMENT_FILE ( 'M_DC11_A01_HORN_ASM.STEP' , '', '', #71, '' ,$ ) ;
#137 = ITEM_DEFINED_TRANSFORMATION ( 'NONE', 'NONE', #184,  #193 ) ;
#138 = PRODUCT_CONTEXT ( 'NONE', #166, 'mechanical' ) ;
#139 = PRODUCT_CONTEXT ( 'NONE', #117, 'mechanical' ) ;
#140 =( GEOMETRIC_REPRESENTATION_CONTEXT ( 3 ) GLOBAL_UNCERTAINTY_ASSIGNED_CONTEXT ( ( #15 ) ) GLOBAL_UNIT_ASSIGNED_CONTEXT ( ( #65, #45, #38 ) ) REPRESENTATION_CONTEXT ( 'NONE', 'WORKASPACE' ) );
#141 = DIRECTION ( 'NONE',  ( 1.000000000000000000, 0.000000000000000000, 0.000000000000000000 ) ) ;
#142 = DOCUMENT_TYPE ( 'geometry' ) ;
#143 = DOCUMENT_FILE ( 'DC11_B01_CASE_B_DUMMY2.STEP' , '', '', #142, '' ,$ ) ;
#144 = OBJECT_ROLE ('mandatory',$ ) ;
#145 = ROLE_ASSOCIATION ( #40, #61 ) ;
#146 = ITEM_DEFINED_TRANSFORMATION ( 'NONE', 'NONE', #203,  #125 ) ;
#147 = APPLICATION_CONTEXT ( 'automotive_design' ) ;
#148 = PRODUCT_RELATED_PRODUCT_CATEGORY ( 'part', '', ( #157 ) ) ;
#149 = PRODUCT_DEFINITION_CONTEXT ( 'detailed design', #267, 'design' ) ;
#150 =( NAMED_UNIT ( * ) PLANE_ANGLE_UNIT ( ) SI_UNIT ( $, .RADIAN. ) );
#151 = PRODUCT_DEFINITION_SHAPE ( 'NONE', 'NONE',  #250 ) ;
#152 = PRODUCT_DEFINITION_SHAPE ( 'NONE', 'NONE',  #277 ) ;
#153 =( GEOMETRIC_REPRESENTATION_CONTEXT ( 3 ) GLOBAL_UNCERTAINTY_ASSIGNED_CONTEXT ( ( #195 ) ) GLOBAL_UNIT_ASSIGNED_CONTEXT ( ( #50, #10, #128 ) ) REPRESENTATION_CONTEXT ( 'NONE', 'WORKASPACE' ) );
#154 = PRODUCT_DEFINITION ( 'æ™', '', #189, #240 ) ;
#155 = PRODUCT_DEFINITION_FORMATION_WITH_SPECIFIED_SOURCE ( 'å¯', '', #157, .NOT_KNOWN. ) ;
#156 = CARTESIAN_POINT ( 'NONE',  ( 56.31764918911826356, 6.509232092835659955, -43.34021896093563697 ) ) ;
#157 = PRODUCT ( 'M_DC11_A01_IDLER_ASM', 'M_DC11_A01_IDLER_ASM', '', ( #205 ) ) ;
#158 = APPLICATION_CONTEXT ( 'automotive_design' ) ;
#159 = CONTEXT_DEPENDENT_SHAPE_REPRESENTATION ( #171, #261 ) ;
#160 = ITEM_DEFINED_TRANSFORMATION ( 'NONE', 'NONE', #47,  #268 ) ;
#161 = PROPERTY_DEFINITION_REPRESENTATION ( #56, #113 ) ;
#162 =( NAMED_UNIT ( * ) PLANE_ANGLE_UNIT ( ) SI_UNIT ( $, .RADIAN. ) );
#163 = AXIS2_PLACEMENT_3D ( 'NONE', #215, #5, #67 ) ;
#164 = ROLE_ASSOCIATION ( #62, #97 ) ;
#165 = DOCUMENT_FILE ( 'DC11_B01_CASE_F_DUMMY.STEP' , '', '', #272, '' ,$ ) ;
#166 = APPLICATION_CONTEXT ( 'automotive_design' ) ;
#167 = PROPERTY_DEFINITION_REPRESENTATION ( #241, #224 ) ;
#168 =( GEOMETRIC_REPRESENTATION_CONTEXT ( 3 ) GLOBAL_UNCERTAINTY_ASSIGNED_CONTEXT ( ( #36 ) ) GLOBAL_UNIT_ASSIGNED_CONTEXT ( ( #196, #175, #8 ) ) REPRESENTATION_CONTEXT ( 'NONE', 'WORKASPACE' ) );
#169 = CARTESIAN_POINT ( 'NONE',  ( 0.000000000000000000, 0.000000000000000000, 0.000000000000000000 ) ) ;
#170 =( NAMED_UNIT ( * ) SI_UNIT ( $, .STERADIAN. ) SOLID_ANGLE_UNIT ( ) );
#171 =( REPRESENTATION_RELATIONSHIP ('NONE','NONE', #42, #246 ) REPRESENTATION_RELATIONSHIP_WITH_TRANSFORMATION ( #160 )SHAPE_REPRESENTATION_RELATIONSHIP( ) );
#172 = PRODUCT_DEFINITION_CONTEXT ( 'detailed design', #260, 'design' ) ;
#173 = PRODUCT_DEFINITION_SHAPE ( 'NONE', 'NONE',  #154 ) ;
#174 = APPLICATION_CONTEXT ( 'automotive_design' ) ;
#175 =( NAMED_UNIT ( * ) PLANE_ANGLE_UNIT ( ) SI_UNIT ( $, .RADIAN. ) );
#176 = PRODUCT_DEFINITION_SHAPE ( 'NONE', 'NONE',  #81 ) ;
#177 = DIRECTION ( 'NONE',  ( 0.000000000000000000, 5.916456789157588541E-31, 1.000000000000000444 ) ) ;
#178 = PRODUCT_DEFINITION_FORMATION_WITH_SPECIFIED_SOURCE ( 'å¯', '', #9, .NOT_KNOWN. ) ;
#179 = DIRECTION ( 'NONE',  ( 1.000000000000000444, -1.479114197289397135E-31, 0.000000000000000000 ) ) ;
#180 = PRODUCT_DEFINITION ( 'æ™', '', #237, #4 ) ;
#181 = APPLICATION_PROTOCOL_DEFINITION ( 'draft international standard', 'automotive_design', 1998, #158 ) ;
#182 = APPLICATION_CONTEXT ( 'automotive_design' ) ;
#183 = APPLICATION_PROTOCOL_DEFINITION ( 'draft international standard', 'automotive_design', 1998, #59 ) ;
#184 = AXIS2_PLACEMENT_3D ( 'NONE', #242, #262, #269 ) ;
#185 = PRODUCT_DEFINITION_FORMATION_WITH_SPECIFIED_SOURCE ( 'å¯', '', #273, .NOT_KNOWN. ) ;
#186 = SHAPE_DEFINITION_REPRESENTATION ( #173, #14 ) ;
#187 = SHAPE_DEFINITION_REPRESENTATION ( #51, #246 ) ;
#188 = IDENTIFICATION_ROLE ( 'external document id and location', $) ;
#189 = PRODUCT_DEFINITION_FORMATION_WITH_SPECIFIED_SOURCE ( 'å¯', '', #6, .NOT_KNOWN. ) ;
#190 =( LENGTH_UNIT ( ) NAMED_UNIT ( * ) SI_UNIT ( .MILLI., .METRE. ) );
#191 = DOCUMENT_FILE ( 'M_DC11_A01_IDLER_ASM.STEP' , '', '', #80, '' ,$ ) ;
#192 = CARTESIAN_POINT ( 'NONE',  ( 0.000000000000000000, 0.000000000000000000, 0.000000000000000000 ) ) ;
#193 = AXIS2_PLACEMENT_3D ( 'NONE', #233, #121, #66 ) ;
#194 = ITEM_DEFINED_TRANSFORMATION ( 'NONE', 'NONE', #64,  #163 ) ;
#195 = UNCERTAINTY_MEASURE_WITH_UNIT (LENGTH_MEASURE( 1.000000000000000082E-05 ), #50, 'distance_accuracy_value', 'NONE');
#196 =( LENGTH_UNIT ( ) NAMED_UNIT ( * ) SI_UNIT ( .MILLI., .METRE. ) );
#197 = IDENTIFICATION_ROLE ( 'external document id and location', $) ;
#198 = PRODUCT_DEFINITION_SHAPE ( 'NONE', 'NONE',  #278 ) ;
#199 =( NAMED_UNIT ( * ) SI_UNIT ( $, .STERADIAN. ) SOLID_ANGLE_UNIT ( ) );
#200 = PROPERTY_DEFINITION ('document property','', #143 ) ;
#201 = DIRECTION ( 'NONE',  ( -0.9702142665868621618, 0.2422483785525043343, 0.000000000000000000 ) ) ;
#202 = DOCUMENT_TYPE ( 'geometry' ) ;
#203 = AXIS2_PLACEMENT_3D ( 'NONE', #156, #225, #115 ) ;
#204 = PRODUCT_DEFINITION_FORMATION_WITH_SPECIFIED_SOURCE ( 'å¯', '', #53, .NOT_KNOWN. ) ;
#205 = PRODUCT_CONTEXT ( 'NONE', #3, 'mechanical' ) ;
#206 = PRODUCT_RELATED_PRODUCT_CATEGORY ( 'part', '', ( #134 ) ) ;
#207 = PRODUCT_DEFINITION_SHAPE ( 'NONE', 'NONE',  #280 ) ;
#208 = SHAPE_DEFINITION_REPRESENTATION ( #29, #42 ) ;
#209 = APPLICATION_PROTOCOL_DEFINITION ( 'draft international standard', 'automotive_design', 1998, #166 ) ;
#210 = PRODUCT_RELATED_PRODUCT_CATEGORY ( 'part', '', ( #53 ) ) ;
#211 = PROPERTY_DEFINITION_REPRESENTATION ( #88, #246 ) ;
#212 = SHAPE_DEFINITION_REPRESENTATION ( #107, #82 ) ;
#213 = PROPERTY_DEFINITION_REPRESENTATION ( #200, #82 ) ;
#214 = IDENTIFICATION_ROLE ( 'external document id and location', $) ;
#215 = CARTESIAN_POINT ( 'NONE',  ( 0.000000000000000000, 0.000000000000000000, 0.000000000000000000 ) ) ;
#216 = APPLICATION_PROTOCOL_DEFINITION ( 'draft international standard', 'automotive_design', 1998, #28 ) ;
#217 = UNCERTAINTY_MEASURE_WITH_UNIT (LENGTH_MEASURE( 1.000000000000000082E-05 ), #98, 'distance_accuracy_value', 'NONE');
#218 =( LENGTH_UNIT ( ) NAMED_UNIT ( * ) SI_UNIT ( .MILLI., .METRE. ) );
#219 = DOCUMENT_TYPE ( 'geometry' ) ;
#220 = PROPERTY_DEFINITION ('document property','', #191 ) ;
#221 = CARTESIAN_POINT ( 'NONE',  ( 56.31764918911825646, 6.509232092835659955, -24.44021896093562773 ) ) ;
#222 = PRODUCT_DEFINITION_SHAPE ( 'NONE', 'NONE',  #276 ) ;
#223 = EXTERNAL_SOURCE (IDENTIFIER('') ) ;
#224 = SHAPE_REPRESENTATION ( 'M_DC11_A01_HORN_ASM', ( #163 ), #153 ) ;
#225 = DIRECTION ( 'NONE',  ( 0.1745373434897404263, 0.9846505551349393759, 1.387778780781445676E-17 ) ) ;
#226 = APPLICATION_PROTOCOL_DEFINITION ( 'draft international standard', 'automotive_design', 1998, #147 ) ;
#227 = EXTERNAL_SOURCE (IDENTIFIER('') ) ;
#228 = SHAPE_DEFINITION_REPRESENTATION ( #131, #113 ) ;
#229 = APPLICATION_PROTOCOL_DEFINITION ( 'draft international standard', 'automotive_design', 1998, #230 ) ;
#230 = APPLICATION_CONTEXT ( 'automotive_design' ) ;
#231 = APPLIED_DOCUMENT_REFERENCE ( #136,'',( #81) ) ;
#232 = PROPERTY_DEFINITION_REPRESENTATION ( #116, #14 ) ;
#233 = CARTESIAN_POINT ( 'NONE',  ( 0.000000000000000000, 0.000000000000000000, 0.000000000000000000 ) ) ;
#234 =( REPRESENTATION_RELATIONSHIP ('NONE','NONE', #42, #57 ) REPRESENTATION_RELATIONSHIP_WITH_TRANSFORMATION ( #146 )SHAPE_REPRESENTATION_RELATIONSHIP( ) );
#235 = PROPERTY_DEFINITION_REPRESENTATION ( #220, #57 ) ;
#236 = DIRECTION ( 'NONE',  ( 0.000000000000000000, 0.000000000000000000, 1.000000000000000000 ) ) ;
#237 = PRODUCT_DEFINITION_FORMATION_WITH_SPECIFIED_SOURCE ( 'å¯', '', #11, .NOT_KNOWN. ) ;
#238 =( REPRESENTATION_RELATIONSHIP ('NONE','NONE', #42, #224 ) REPRESENTATION_RELATIONSHIP_WITH_TRANSFORMATION ( #194 )SHAPE_REPRESENTATION_RELATIONSHIP( ) );
#239 = CARTESIAN_POINT ( 'NONE',  ( 56.31764918911767381, 6.509232092835811834, -8.940218960935615300 ) ) ;
#240 = PRODUCT_DEFINITION_CONTEXT ( 'detailed design', #59, 'design' ) ;
#241 = PROPERTY_DEFINITION ('document property','', #136 ) ;
#242 = CARTESIAN_POINT ( 'NONE',  ( 56.31764918911826356, 6.509232092835645744, -39.14021896093562702 ) ) ;
#243 = PROPERTY_DEFINITION ('document property','', #120 ) ;
#244 = PRODUCT_DEFINITION_CONTEXT ( 'detailed design', #28, 'design' ) ;
#245 = ROLE_ASSOCIATION ( #48, #55 ) ;
#246 = SHAPE_REPRESENTATION ( 'DC11_B01_CASE_M_DUMMY', ( #268 ), #252 ) ;
#247 = DOCUMENT_FILE ( 'DC11_B01_CASE_M_DUMMY.STEP' , '', '', #202, '' ,$ ) ;
#248 =( REPRESENTATION_RELATIONSHIP ('NONE','NONE', #42, #82 ) REPRESENTATION_RELATIONSHIP_WITH_TRANSFORMATION ( #124 )SHAPE_REPRESENTATION_RELATIONSHIP( ) );
#249 = PROPERTY_DEFINITION_REPRESENTATION ( #243, #113 ) ;
#250 = PRODUCT_DEFINITION ( 'æ™', '', #155, #149 ) ;
#251 = DIRECTION ( 'NONE',  ( 0.000000000000000000, 0.000000000000000000, 1.000000000000000000 ) ) ;
#252 =( GEOMETRIC_REPRESENTATION_CONTEXT ( 3 ) GLOBAL_UNCERTAINTY_ASSIGNED_CONTEXT ( ( #217 ) ) GLOBAL_UNIT_ASSIGNED_CONTEXT ( ( #98, #43, #86 ) ) REPRESENTATION_CONTEXT ( 'NONE', 'WORKASPACE' ) );
#253 = ROLE_ASSOCIATION ( #7, #63 ) ;
#254 = PRODUCT_DEFINITION ( 'æ™', '', #178, #244 ) ;
#255 = EXTERNAL_SOURCE (IDENTIFIER('') ) ;
#256 = CARTESIAN_POINT ( 'NONE',  ( 0.000000000000000000, 0.000000000000000000, 0.000000000000000000 ) ) ;
#257 = AXIS2_PLACEMENT_3D ( 'NONE', #93, #19, #141 ) ;
#258 = ROLE_ASSOCIATION ( #264, #83 ) ;
#259 = DIRECTION ( 'NONE',  ( 1.000000000000000000, 0.000000000000000000, 0.000000000000000000 ) ) ;
#260 = APPLICATION_CONTEXT ( 'automotive_design' ) ;
#261 = PRODUCT_DEFINITION_SHAPE ( 'NONE', 'NONE',  #275 ) ;
#262 = DIRECTION ( 'NONE',  ( -1.479114197289397135E-31, 1.000000000000000000, 5.916456789157588541E-31 ) ) ;
#263 = DIRECTION ( 'NONE',  ( 1.000000000000000444, -1.479114197289397135E-31, 0.000000000000000000 ) ) ;
#264 = OBJECT_ROLE ('mandatory',$ ) ;
#265 = DIRECTION ( 'NONE',  ( 1.000000000000000000, 0.000000000000000000, 0.000000000000000000 ) ) ;
#266 = PROPERTY_DEFINITION ('external definition','', #136 ) ;
#267 = APPLICATION_CONTEXT ( 'automotive_design' ) ;
#268 = AXIS2_PLACEMENT_3D ( 'NONE', #103, #236, #1 ) ;
#269 = DIRECTION ( 'NONE',  ( -1.000000000000000444, 1.479114197289397135E-31, 0.000000000000000000 ) ) ;
#270 = PROPERTY_DEFINITION ('external definition','', #143 ) ;
#271 = PRODUCT_CONTEXT ( 'NONE', #31, 'mechanical' ) ;
#272 = DOCUMENT_TYPE ( 'geometry' ) ;
#273 = PRODUCT ( 'DC11_B01_CASE_B_DUMMY2', 'DC11_B01_CASE_B_DUMMY2', '', ( #138 ) ) ;
#274 = CONTEXT_DEPENDENT_SHAPE_REPRESENTATION ( #238, #90 ) ;
#275 = NEXT_ASSEMBLY_USAGE_OCCURRENCE ( 'NAUO14', ' ', ' ', #180, #89, $ ) ;
#276 = NEXT_ASSEMBLY_USAGE_OCCURRENCE ( 'NAUO15', ' ', ' ', #180, #254, $ ) ;
#277 = NEXT_ASSEMBLY_USAGE_OCCURRENCE ( 'NAUO16', ' ', ' ', #180, #154, $ ) ;
#278 = NEXT_ASSEMBLY_USAGE_OCCURRENCE ( 'NAUO17', ' ', ' ', #180, #250, $ ) ;
#279 = NEXT_ASSEMBLY_USAGE_OCCURRENCE ( 'NAUO18', ' ', ' ', #180, #81, $ ) ;
#280 = NEXT_ASSEMBLY_USAGE_OCCURRENCE ( 'NAUO19', ' ', ' ', #180, #79, $ ) ;
ENDSEC;
END-ISO-10303-21;
