ISO-10303-21;
HEADER;
FILE_DESCRIPTION (( 'STEP AP214' ),
    '1' );
FILE_NAME ('XC-430_idle.STEP',
    '2026-08-29T22:11:53',
    ( '' ),
    ( '' ),
    'SwSTEP 2.0',
    'SolidWorks 2023',
    '' );
FILE_SCHEMA (( 'AUTOMOTIVE_DESIGN' ));
ENDSEC;

DATA;
#1 = PRODUCT_DEFINITION_FORMATION_WITH_SPECIFIED_SOURCE ( 'å¯', '', #133, .NOT_KNOWN. ) ;
#2 = PROPERTY_DEFINITION_REPRESENTATION ( #154, #272 ) ;
#3 = PRODUCT_DEFINITION_CONTEXT ( 'detailed design', #200, 'design' ) ;
#4 = PRODUCT_DEFINITION ( 'æ™', '', #254, #166 ) ;
#5 = DIRECTION ( 'NONE',  ( 0.000000000000000000, 0.000000000000000000, 1.000000000000000000 ) ) ;
#6 = PROPERTY_DEFINITION ('external definition','', #143 ) ;
#7 =( GEOMETRIC_REPRESENTATION_CONTEXT ( 3 ) GLOBAL_UNCERTAINTY_ASSIGNED_CONTEXT ( ( #36 ) ) GLOBAL_UNIT_ASSIGNED_CONTEXT ( ( #197, #245, #76 ) ) REPRESENTATION_CONTEXT ( 'NONE', 'WORKASPACE' ) );
#8 = PRODUCT_DEFINITION_CONTEXT ( 'detailed design', #256, 'design' ) ;
#9 = ITEM_DEFINED_TRANSFORMATION ( 'NONE', 'NONE', #232,  #129 ) ;
#10 = PRODUCT_DEFINITION_SHAPE ( 'NONE', 'NONE',  #273 ) ;
#11 = DIRECTION ( 'NONE',  ( 1.000000000000000000, 0.000000000000000000, 0.000000000000000000 ) ) ;
#12 = OBJECT_ROLE ('mandatory',$ ) ;
#13 = DIRECTION ( 'NONE',  ( 1.000000000000000000, 0.000000000000000000, 0.000000000000000000 ) ) ;
#14 = UNCERTAINTY_MEASURE_WITH_UNIT (LENGTH_MEASURE( 1.000000000000000082E-05 ), #67, 'distance_accuracy_value', 'NONE');
#15 = DIRECTION ( 'NONE',  ( 0.9999999999999997780, 7.888609052210118054E-31, 0.000000000000000000 ) ) ;
#16 = PROPERTY_DEFINITION ('external definition','', #42 ) ;
#17 =( NAMED_UNIT ( * ) SI_UNIT ( $, .STERADIAN. ) SOLID_ANGLE_UNIT ( ) );
#18 = OBJECT_ROLE ('mandatory',$ ) ;
#19 = PRODUCT_RELATED_PRODUCT_CATEGORY ( 'part', '', ( #133 ) ) ;
#20 = ROLE_ASSOCIATION ( #227, #61 ) ;
#21 = DOCUMENT_FILE ( 'DC14_A01_INSERT_1.STEP' , '', '', #55, '' ,$ ) ;
#22 = CARTESIAN_POINT ( 'NONE',  ( 56.31764918911765250, 6.509232092835798511, -8.940218960935608195 ) ) ;
#23 = SHAPE_DEFINITION_REPRESENTATION ( #92, #260 ) ;
#24 = DIRECTION ( 'NONE',  ( 0.9846505551349394869, -0.1745373434897404541, -5.551115123125782702E-17 ) ) ;
#25 = APPLICATION_PROTOCOL_DEFINITION ( 'draft international standard', 'automotive_design', 1998, #48 ) ;
#26 = CONTEXT_DEPENDENT_SHAPE_REPRESENTATION ( #116, #195 ) ;
#27 = EXTERNAL_SOURCE (IDENTIFIER('') ) ;
#28 = UNCERTAINTY_MEASURE_WITH_UNIT (LENGTH_MEASURE( 1.000000000000000082E-05 ), #38, 'distance_accuracy_value', 'NONE');
#29 = DIRECTION ( 'NONE',  ( 0.000000000000000000, 0.000000000000000000, 1.000000000000000000 ) ) ;
#30 = EXTERNAL_SOURCE (IDENTIFIER('') ) ;
#31 = PRODUCT_DEFINITION ( 'æ™', '', #105, #3 ) ;
#32 = PRODUCT_DEFINITION_SHAPE ( 'NONE', 'NONE',  #279 ) ;
#33 = DIRECTION ( 'NONE',  ( 1.000000000000000000, 0.000000000000000000, 0.000000000000000000 ) ) ;
#34 = PRODUCT_DEFINITION_SHAPE ( 'NONE', 'NONE',  #275 ) ;
#35 = PRODUCT_DEFINITION ( 'æ™', '', #131, #190 ) ;
#36 = UNCERTAINTY_MEASURE_WITH_UNIT (LENGTH_MEASURE( 1.000000000000000082E-05 ), #197, 'distance_accuracy_value', 'NONE');
#37 = CARTESIAN_POINT ( 'NONE',  ( 56.31764918911824935, 6.509232092835631533, -43.34021896093562276 ) ) ;
#38 =( LENGTH_UNIT ( ) NAMED_UNIT ( * ) SI_UNIT ( .MILLI., .METRE. ) );
#39 =( GEOMETRIC_REPRESENTATION_CONTEXT ( 3 ) GLOBAL_UNCERTAINTY_ASSIGNED_CONTEXT ( ( #73 ) ) GLOBAL_UNIT_ASSIGNED_CONTEXT ( ( #217, #151, #268 ) ) REPRESENTATION_CONTEXT ( 'NONE', 'WORKASPACE' ) );
#40 = SHAPE_REPRESENTATION ( 'DC14_A01_INSERT_1', ( #207 ), #169 ) ;
#41 = DOCUMENT_TYPE ( 'geometry' ) ;
#42 = DOCUMENT_FILE ( 'DC11_B01_CASE_M_DUMMY_1.STEP' , '', '', #212, '' ,$ ) ;
#43 = APPLIED_DOCUMENT_REFERENCE ( #21,'',( #221) ) ;
#44 = AXIS2_PLACEMENT_3D ( 'NONE', #22, #118, #228 ) ;
#45 =( LENGTH_UNIT ( ) NAMED_UNIT ( * ) SI_UNIT ( .MILLI., .METRE. ) );
#46 =( REPRESENTATION_RELATIONSHIP ('NONE','NONE', #159, #260 ) REPRESENTATION_RELATIONSHIP_WITH_TRANSFORMATION ( #9 )SHAPE_REPRESENTATION_RELATIONSHIP( ) );
#47 = DOCUMENT_FILE ( 'DC11_B01_CASE_B_DUMMY2.STEP' , '', '', #41, '' ,$ ) ;
#48 = APPLICATION_CONTEXT ( 'automotive_design' ) ;
#49 = PROPERTY_DEFINITION ('external definition','', #90 ) ;
#50 = CARTESIAN_POINT ( 'NONE',  ( 0.000000000000000000, 0.000000000000000000, 0.000000000000000000 ) ) ;
#51 = PRODUCT_DEFINITION_SHAPE ( 'NONE', 'NONE',  #4 ) ;
#52 = PRODUCT_RELATED_PRODUCT_CATEGORY ( 'part', '', ( #167 ) ) ;
#53 =( GEOMETRIC_REPRESENTATION_CONTEXT ( 3 ) GLOBAL_UNCERTAINTY_ASSIGNED_CONTEXT ( ( #246 ) ) GLOBAL_UNIT_ASSIGNED_CONTEXT ( ( #59, #252, #17 ) ) REPRESENTATION_CONTEXT ( 'NONE', 'WORKASPACE' ) );
#54 = APPLIED_EXTERNAL_IDENTIFICATION_ASSIGNMENT ( 'M_DC11_A01_IDLER_ASM.STEP' , #202, #84,( #143) ) ;
#55 = DOCUMENT_TYPE ( 'geometry' ) ;
#56 = AXIS2_PLACEMENT_3D ( 'NONE', #165, #262, #155 ) ;
#57 = CARTESIAN_POINT ( 'NONE',  ( 56.31764918911824225, 6.509232092835631533, -24.44021896093562418 ) ) ;
#58 = PROPERTY_DEFINITION ('external definition','', #127 ) ;
#59 =( LENGTH_UNIT ( ) NAMED_UNIT ( * ) SI_UNIT ( .MILLI., .METRE. ) );
#60 = OBJECT_ROLE ('mandatory',$ ) ;
#61 = APPLIED_DOCUMENT_REFERENCE ( #42,'',( #273) ) ;
#62 = APPLICATION_CONTEXT ( 'automotive_design' ) ;
#63 = APPLICATION_PROTOCOL_DEFINITION ( 'draft international standard', 'automotive_design', 1998, #200 ) ;
#64 =( GEOMETRIC_REPRESENTATION_CONTEXT ( 3 ) GLOBAL_UNCERTAINTY_ASSIGNED_CONTEXT ( ( #28 ) ) GLOBAL_UNIT_ASSIGNED_CONTEXT ( ( #38, #223, #115 ) ) REPRESENTATION_CONTEXT ( 'NONE', 'WORKASPACE' ) );
#65 = PRODUCT_CONTEXT ( 'NONE', #62, 'mechanical' ) ;
#66 = PROPERTY_DEFINITION_REPRESENTATION ( #49, #240 ) ;
#67 =( LENGTH_UNIT ( ) NAMED_UNIT ( * ) SI_UNIT ( .MILLI., .METRE. ) );
#68 = PRODUCT_DEFINITION_SHAPE ( 'NONE', 'NONE',  #276 ) ;
#69 = ROLE_ASSOCIATION ( #182, #148 ) ;
#70 = PROPERTY_DEFINITION ('document property','', #143 ) ;
#71 = APPLICATION_CONTEXT ( 'automotive_design' ) ;
#72 = APPLICATION_CONTEXT ( 'automotive_design' ) ;
#73 = UNCERTAINTY_MEASURE_WITH_UNIT (LENGTH_MEASURE( 1.000000000000000082E-05 ), #217, 'distance_accuracy_value', 'NONE');
#74 = PRODUCT_DEFINITION_SHAPE ( 'NONE', 'NONE',  #206 ) ;
#75 = AXIS2_PLACEMENT_3D ( 'NONE', #235, #184, #259 ) ;
#76 =( NAMED_UNIT ( * ) SI_UNIT ( $, .STERADIAN. ) SOLID_ANGLE_UNIT ( ) );
#77 = DIRECTION ( 'NONE',  ( 1.000000000000000000, 0.000000000000000000, 0.000000000000000000 ) ) ;
#78 = APPLICATION_PROTOCOL_DEFINITION ( 'draft international standard', 'automotive_design', 1998, #138 ) ;
#79 = CONTEXT_DEPENDENT_SHAPE_REPRESENTATION ( #163, #34 ) ;
#80 = SHAPE_DEFINITION_REPRESENTATION ( #216, #240 ) ;
#81 = APPLICATION_PROTOCOL_DEFINITION ( 'draft international standard', 'automotive_design', 1998, #88 ) ;
#82 = PRODUCT_CONTEXT ( 'NONE', #138, 'mechanical' ) ;
#83 = AXIS2_PLACEMENT_3D ( 'NONE', #239, #269, #13 ) ;
#84 = EXTERNAL_SOURCE (IDENTIFIER('') ) ;
#85 = CONTEXT_DEPENDENT_SHAPE_REPRESENTATION ( #46, #267 ) ;
#86 = ROLE_ASSOCIATION ( #60, #237 ) ;
#87 = PRODUCT_DEFINITION_SHAPE ( 'NONE', 'NONE',  #221 ) ;
#88 = APPLICATION_CONTEXT ( 'automotive_design' ) ;
#89 = PRODUCT_RELATED_PRODUCT_CATEGORY ( 'part', '', ( #199 ) ) ;
#90 = DOCUMENT_FILE ( 'DC11_B01_CASE_F_DUMMY.STEP' , '', '', #170, '' ,$ ) ;
#91 = DIRECTION ( 'NONE',  ( 0.000000000000000000, 0.000000000000000000, 1.000000000000000000 ) ) ;
#92 = PRODUCT_DEFINITION_SHAPE ( 'NONE', 'NONE',  #35 ) ;
#93 = CARTESIAN_POINT ( 'NONE',  ( 56.31764918911824225, 6.509232092835631533, -39.14021896093561281 ) ) ;
#94 = UNCERTAINTY_MEASURE_WITH_UNIT (LENGTH_MEASURE( 1.000000000000000082E-05 ), #45, 'distance_accuracy_value', 'NONE');
#95 = PRODUCT ( 'XC-430_idle', 'XC-430_idle', '', ( #110 ) ) ;
#96 = AXIS2_PLACEMENT_3D ( 'NONE', #50, #91, #171 ) ;
#97 = PRODUCT_RELATED_PRODUCT_CATEGORY ( 'part', '', ( #95 ) ) ;
#98 = APPLICATION_CONTEXT ( 'automotive_design' ) ;
#99 = EXTERNAL_SOURCE (IDENTIFIER('') ) ;
#100 =( NAMED_UNIT ( * ) SI_UNIT ( $, .STERADIAN. ) SOLID_ANGLE_UNIT ( ) );
#101 = PROPERTY_DEFINITION_REPRESENTATION ( #241, #240 ) ;
#102 = PROPERTY_DEFINITION_REPRESENTATION ( #70, #260 ) ;
#103 = PROPERTY_DEFINITION ('document property','', #42 ) ;
#104 = PRODUCT_DEFINITION_CONTEXT ( 'detailed design', #125, 'design' ) ;
#105 = PRODUCT_DEFINITION_FORMATION_WITH_SPECIFIED_SOURCE ( 'å¯', '', #147, .NOT_KNOWN. ) ;
#106 = APPLICATION_PROTOCOL_DEFINITION ( 'draft international standard', 'automotive_design', 1998, #72 ) ;
#107 = APPLIED_DOCUMENT_REFERENCE ( #127,'',( #4) ) ;
#108 = CARTESIAN_POINT ( 'NONE',  ( 0.000000000000000000, 0.000000000000000000, 0.000000000000000000 ) ) ;
#109 = EXTERNAL_SOURCE (IDENTIFIER('') ) ;
#110 = PRODUCT_CONTEXT ( 'NONE', #153, 'mechanical' ) ;
#111 = UNCERTAINTY_MEASURE_WITH_UNIT (LENGTH_MEASURE( 1.000000000000000082E-05 ), #188, 'distance_accuracy_value', 'NONE');
#112 = IDENTIFICATION_ROLE ( 'external document id and location', $) ;
#113 = PRODUCT_DEFINITION_SHAPE ( 'NONE', 'NONE',  #277 ) ;
#114 = DIRECTION ( 'NONE',  ( 0.1745373434897404263, 0.9846505551349395979, 0.000000000000000000 ) ) ;
#115 =( NAMED_UNIT ( * ) SI_UNIT ( $, .STERADIAN. ) SOLID_ANGLE_UNIT ( ) );
#116 =( REPRESENTATION_RELATIONSHIP ('NONE','NONE', #159, #272 ) REPRESENTATION_RELATIONSHIP_WITH_TRANSFORMATION ( #261 )SHAPE_REPRESENTATION_RELATIONSHIP( ) );
#117 = PRODUCT_CONTEXT ( 'NONE', #88, 'mechanical' ) ;
#118 = DIRECTION ( 'NONE',  ( 0.2422483785525044175, 0.9702142665868620508, -1.387778780781445676E-17 ) ) ;
#119 = SHAPE_DEFINITION_REPRESENTATION ( #176, #272 ) ;
#120 = OBJECT_ROLE ('mandatory',$ ) ;
#121 = CONTEXT_DEPENDENT_SHAPE_REPRESENTATION ( #264, #32 ) ;
#122 = APPLICATION_PROTOCOL_DEFINITION ( 'draft international standard', 'automotive_design', 1998, #125 ) ;
#123 = ROLE_ASSOCIATION ( #18, #43 ) ;
#124 = PRODUCT ( 'M_DC11_A01_IDLER_ASM', 'M_DC11_A01_IDLER_ASM', '', ( #65 ) ) ;
#125 = APPLICATION_CONTEXT ( 'automotive_design' ) ;
#126 =( NAMED_UNIT ( * ) SI_UNIT ( $, .STERADIAN. ) SOLID_ANGLE_UNIT ( ) );
#127 = DOCUMENT_FILE ( 'M_DC11_A01_HORN_ASM.STEP' , '', '', #189, '' ,$ ) ;
#128 =( NAMED_UNIT ( * ) PLANE_ANGLE_UNIT ( ) SI_UNIT ( $, .RADIAN. ) );
#129 = AXIS2_PLACEMENT_3D ( 'NONE', #238, #5, #77 ) ;
#130 = PRODUCT_DEFINITION_FORMATION_WITH_SPECIFIED_SOURCE ( 'å¯', '', #222, .NOT_KNOWN. ) ;
#131 = PRODUCT_DEFINITION_FORMATION_WITH_SPECIFIED_SOURCE ( 'å¯', '', #124, .NOT_KNOWN. ) ;
#132 = SHAPE_REPRESENTATION ( 'M_DC11_A01_HORN_ASM', ( #56 ), #64 ) ;
#133 = PRODUCT ( 'DC11_B01_CASE_F_DUMMY', 'DC11_B01_CASE_F_DUMMY', '', ( #152 ) ) ;
#134 = DIRECTION ( 'NONE',  ( 0.000000000000000000, -3.007532201155107508E-30, 0.9999999999999997780 ) ) ;
#135 = PROPERTY_DEFINITION_REPRESENTATION ( #16, #177 ) ;
#136 = ITEM_DEFINED_TRANSFORMATION ( 'NONE', 'NONE', #180,  #185 ) ;
#137 = PRODUCT_CONTEXT ( 'NONE', #71, 'mechanical' ) ;
#138 = APPLICATION_CONTEXT ( 'automotive_design' ) ;
#139 = CARTESIAN_POINT ( 'NONE',  ( 56.31764918911824225, 6.509232092835631533, -24.44021896093562418 ) ) ;
#140 = PROPERTY_DEFINITION_REPRESENTATION ( #191, #132 ) ;
#141 =( NAMED_UNIT ( * ) SI_UNIT ( $, .STERADIAN. ) SOLID_ANGLE_UNIT ( ) );
#142 = PRODUCT_RELATED_PRODUCT_CATEGORY ( 'part', '', ( #124 ) ) ;
#143 = DOCUMENT_FILE ( 'M_DC11_A01_IDLER_ASM.STEP' , '', '', #214, '' ,$ ) ;
#144 = APPLIED_EXTERNAL_IDENTIFICATION_ASSIGNMENT ( 'DC11_B01_CASE_M_DUMMY_1.STEP' , #251, #156,( #42) ) ;
#145 = PROPERTY_DEFINITION_REPRESENTATION ( #6, #260 ) ;
#146 = PRODUCT_DEFINITION_CONTEXT ( 'detailed design', #72, 'design' ) ;
#147 = PRODUCT ( 'DC11_B01_CASE_B_DUMMY2', 'DC11_B01_CASE_B_DUMMY2', '', ( #211 ) ) ;
#148 = APPLIED_DOCUMENT_REFERENCE ( #47,'',( #31) ) ;
#149 = ITEM_DEFINED_TRANSFORMATION ( 'NONE', 'NONE', #44,  #56 ) ;
#150 = PROPERTY_DEFINITION ('external definition','', #21 ) ;
#151 =( NAMED_UNIT ( * ) PLANE_ANGLE_UNIT ( ) SI_UNIT ( $, .RADIAN. ) );
#152 = PRODUCT_CONTEXT ( 'NONE', #234, 'mechanical' ) ;
#153 = APPLICATION_CONTEXT ( 'automotive_design' ) ;
#154 = PROPERTY_DEFINITION ('document property','', #47 ) ;
#155 = DIRECTION ( 'NONE',  ( 1.000000000000000000, 0.000000000000000000, 0.000000000000000000 ) ) ;
#156 = EXTERNAL_SOURCE (IDENTIFIER('') ) ;
#157 = AXIS2_PLACEMENT_3D ( 'NONE', #57, #134, #224 ) ;
#158 = DIRECTION ( 'NONE',  ( -0.9999999999999997780, -7.888609052210118054E-31, 0.000000000000000000 ) ) ;
#159 = SHAPE_REPRESENTATION ( 'XC-430_idle', ( #75, #180, #247, #157, #232, #44, #192 ), #225 ) ;
#160 = SHAPE_DEFINITION_REPRESENTATION ( #51, #132 ) ;
#161 = PROPERTY_DEFINITION_REPRESENTATION ( #103, #177 ) ;
#162 = APPLICATION_PROTOCOL_DEFINITION ( 'draft international standard', 'automotive_design', 1998, #98 ) ;
#163 =( REPRESENTATION_RELATIONSHIP ('NONE','NONE', #159, #177 ) REPRESENTATION_RELATIONSHIP_WITH_TRANSFORMATION ( #136 )SHAPE_REPRESENTATION_RELATIONSHIP( ) );
#164 = ROLE_ASSOCIATION ( #12, #107 ) ;
#165 = CARTESIAN_POINT ( 'NONE',  ( 0.000000000000000000, 0.000000000000000000, 0.000000000000000000 ) ) ;
#166 = PRODUCT_DEFINITION_CONTEXT ( 'detailed design', #98, 'design' ) ;
#167 = PRODUCT ( 'DC14_A01_INSERT_1', 'DC14_A01_INSERT_1', '', ( #137 ) ) ;
#168 =( NAMED_UNIT ( * ) PLANE_ANGLE_UNIT ( ) SI_UNIT ( $, .RADIAN. ) );
#169 =( GEOMETRIC_REPRESENTATION_CONTEXT ( 3 ) GLOBAL_UNCERTAINTY_ASSIGNED_CONTEXT ( ( #14 ) ) GLOBAL_UNIT_ASSIGNED_CONTEXT ( ( #67, #128, #141 ) ) REPRESENTATION_CONTEXT ( 'NONE', 'WORKASPACE' ) );
#170 = DOCUMENT_TYPE ( 'geometry' ) ;
#171 = DIRECTION ( 'NONE',  ( 1.000000000000000000, 0.000000000000000000, 0.000000000000000000 ) ) ;
#172 = CARTESIAN_POINT ( 'NONE',  ( 0.000000000000000000, 0.000000000000000000, 0.000000000000000000 ) ) ;
#173 = PRODUCT_DEFINITION_FORMATION_WITH_SPECIFIED_SOURCE ( 'å¯', '', #95, .NOT_KNOWN. ) ;
#174 = APPLICATION_PROTOCOL_DEFINITION ( 'draft international standard', 'automotive_design', 1998, #153 ) ;
#175 = DIRECTION ( 'NONE',  ( 7.888609052210118054E-31, 1.000000000000000000, -3.007532201155107508E-30 ) ) ;
#176 = PRODUCT_DEFINITION_SHAPE ( 'NONE', 'NONE',  #31 ) ;
#177 = SHAPE_REPRESENTATION ( 'DC11_B01_CASE_M_DUMMY_1', ( #185 ), #253 ) ;
#178 = APPLICATION_PROTOCOL_DEFINITION ( 'draft international standard', 'automotive_design', 1998, #234 ) ;
#179 = IDENTIFICATION_ROLE ( 'external document id and location', $) ;
#180 = AXIS2_PLACEMENT_3D ( 'NONE', #271, #201, #15 ) ;
#181 = APPLICATION_PROTOCOL_DEFINITION ( 'draft international standard', 'automotive_design', 1998, #71 ) ;
#182 = OBJECT_ROLE ('mandatory',$ ) ;
#183 = DIRECTION ( 'NONE',  ( 0.9999999999999997780, 7.888609052210118054E-31, 0.000000000000000000 ) ) ;
#184 = DIRECTION ( 'NONE',  ( 0.000000000000000000, 0.000000000000000000, 1.000000000000000000 ) ) ;
#185 = AXIS2_PLACEMENT_3D ( 'NONE', #172, #220, #33 ) ;
#186 = ROLE_ASSOCIATION ( #120, #187 ) ;
#187 = APPLIED_DOCUMENT_REFERENCE ( #143,'',( #35) ) ;
#188 =( LENGTH_UNIT ( ) NAMED_UNIT ( * ) SI_UNIT ( .MILLI., .METRE. ) );
#189 = DOCUMENT_TYPE ( 'geometry' ) ;
#190 = PRODUCT_DEFINITION_CONTEXT ( 'detailed design', #48, 'design' ) ;
#191 = PROPERTY_DEFINITION ('document property','', #127 ) ;
#192 = AXIS2_PLACEMENT_3D ( 'NONE', #139, #210, #183 ) ;
#193 = PRODUCT_DEFINITION_FORMATION_WITH_SPECIFIED_SOURCE ( 'å¯', '', #167, .NOT_KNOWN. ) ;
#194 = PROPERTY_DEFINITION_REPRESENTATION ( #150, #40 ) ;
#195 = PRODUCT_DEFINITION_SHAPE ( 'NONE', 'NONE',  #280 ) ;
#196 = APPLICATION_CONTEXT ( 'automotive_design' ) ;
#197 =( LENGTH_UNIT ( ) NAMED_UNIT ( * ) SI_UNIT ( .MILLI., .METRE. ) );
#198 = APPLICATION_PROTOCOL_DEFINITION ( 'draft international standard', 'automotive_design', 1998, #218 ) ;
#199 = PRODUCT ( 'M_DC11_A01_HORN_ASM', 'M_DC11_A01_HORN_ASM', '', ( #82 ) ) ;
#200 = APPLICATION_CONTEXT ( 'automotive_design' ) ;
#201 = DIRECTION ( 'NONE',  ( 0.000000000000000000, -3.007532201155107508E-30, 0.9999999999999997780 ) ) ;
#202 = IDENTIFICATION_ROLE ( 'external document id and location', $) ;
#203 = APPLIED_EXTERNAL_IDENTIFICATION_ASSIGNMENT ( 'DC14_A01_INSERT_1.STEP' , #244, #109,( #21) ) ;
#204 = SHAPE_DEFINITION_REPRESENTATION ( #10, #177 ) ;
#205 = CONTEXT_DEPENDENT_SHAPE_REPRESENTATION ( #274, #68 ) ;
#206 = PRODUCT_DEFINITION ( 'æ™', '', #173, #215 ) ;
#207 = AXIS2_PLACEMENT_3D ( 'NONE', #108, #29, #11 ) ;
#208 = APPLIED_EXTERNAL_IDENTIFICATION_ASSIGNMENT ( 'M_DC11_A01_HORN_ASM.STEP' , #179, #99,( #127) ) ;
#209 =( NAMED_UNIT ( * ) PLANE_ANGLE_UNIT ( ) SI_UNIT ( $, .RADIAN. ) );
#210 = DIRECTION ( 'NONE',  ( 0.000000000000000000, -3.007532201155107508E-30, 0.9999999999999997780 ) ) ;
#211 = PRODUCT_CONTEXT ( 'NONE', #196, 'mechanical' ) ;
#212 = DOCUMENT_TYPE ( 'geometry' ) ;
#213 = ITEM_DEFINED_TRANSFORMATION ( 'NONE', 'NONE', #157,  #96 ) ;
#214 = DOCUMENT_TYPE ( 'geometry' ) ;
#215 = PRODUCT_DEFINITION_CONTEXT ( 'detailed design', #218, 'design' ) ;
#216 = PRODUCT_DEFINITION_SHAPE ( 'NONE', 'NONE',  #250 ) ;
#217 =( LENGTH_UNIT ( ) NAMED_UNIT ( * ) SI_UNIT ( .MILLI., .METRE. ) );
#218 = APPLICATION_CONTEXT ( 'automotive_design' ) ;
#219 = PROPERTY_DEFINITION_REPRESENTATION ( #270, #272 ) ;
#220 = DIRECTION ( 'NONE',  ( 0.000000000000000000, 0.000000000000000000, 1.000000000000000000 ) ) ;
#221 = PRODUCT_DEFINITION ( 'æ™', '', #193, #104 ) ;
#222 = PRODUCT ( 'DC11_B01_CASE_M_DUMMY_1', 'DC11_B01_CASE_M_DUMMY_1', '', ( #117 ) ) ;
#223 =( NAMED_UNIT ( * ) PLANE_ANGLE_UNIT ( ) SI_UNIT ( $, .RADIAN. ) );
#224 = DIRECTION ( 'NONE',  ( 0.9999999999999997780, 7.888609052210118054E-31, 0.000000000000000000 ) ) ;
#225 =( GEOMETRIC_REPRESENTATION_CONTEXT ( 3 ) GLOBAL_UNCERTAINTY_ASSIGNED_CONTEXT ( ( #94 ) ) GLOBAL_UNIT_ASSIGNED_CONTEXT ( ( #45, #209, #100 ) ) REPRESENTATION_CONTEXT ( 'NONE', 'WORKASPACE' ) );
#226 = APPLIED_EXTERNAL_IDENTIFICATION_ASSIGNMENT ( 'DC11_B01_CASE_F_DUMMY.STEP' , #249, #30,( #90) ) ;
#227 = OBJECT_ROLE ('mandatory',$ ) ;
#228 = DIRECTION ( 'NONE',  ( -0.9702142665868619398, 0.2422483785525044453, 0.000000000000000000 ) ) ;
#229 = APPLICATION_PROTOCOL_DEFINITION ( 'draft international standard', 'automotive_design', 1998, #196 ) ;
#230 = PRODUCT_RELATED_PRODUCT_CATEGORY ( 'part', '', ( #147 ) ) ;
#231 = ITEM_DEFINED_TRANSFORMATION ( 'NONE', 'NONE', #247,  #207 ) ;
#232 = AXIS2_PLACEMENT_3D ( 'NONE', #37, #114, #24 ) ;
#233 = SHAPE_DEFINITION_REPRESENTATION ( #87, #40 ) ;
#234 = APPLICATION_CONTEXT ( 'automotive_design' ) ;
#235 = CARTESIAN_POINT ( 'NONE',  ( 0.000000000000000000, 0.000000000000000000, 0.000000000000000000 ) ) ;
#236 = PROPERTY_DEFINITION_REPRESENTATION ( #263, #40 ) ;
#237 = APPLIED_DOCUMENT_REFERENCE ( #90,'',( #250) ) ;
#238 = CARTESIAN_POINT ( 'NONE',  ( 0.000000000000000000, 0.000000000000000000, 0.000000000000000000 ) ) ;
#239 = CARTESIAN_POINT ( 'NONE',  ( 0.000000000000000000, 0.000000000000000000, 0.000000000000000000 ) ) ;
#240 = SHAPE_REPRESENTATION ( 'DC11_B01_CASE_F_DUMMY', ( #96 ), #39 ) ;
#241 = PROPERTY_DEFINITION ('document property','', #90 ) ;
#242 = CONTEXT_DEPENDENT_SHAPE_REPRESENTATION ( #266, #113 ) ;
#243 = PRODUCT_RELATED_PRODUCT_CATEGORY ( 'part', '', ( #222 ) ) ;
#244 = IDENTIFICATION_ROLE ( 'external document id and location', $) ;
#245 =( NAMED_UNIT ( * ) PLANE_ANGLE_UNIT ( ) SI_UNIT ( $, .RADIAN. ) );
#246 = UNCERTAINTY_MEASURE_WITH_UNIT (LENGTH_MEASURE( 1.000000000000000082E-05 ), #59, 'distance_accuracy_value', 'NONE');
#247 = AXIS2_PLACEMENT_3D ( 'NONE', #93, #175, #158 ) ;
#248 = APPLIED_EXTERNAL_IDENTIFICATION_ASSIGNMENT ( 'DC11_B01_CASE_B_DUMMY2.STEP' , #112, #27,( #47) ) ;
#249 = IDENTIFICATION_ROLE ( 'external document id and location', $) ;
#250 = PRODUCT_DEFINITION ( 'æ™', '', #1, #146 ) ;
#251 = IDENTIFICATION_ROLE ( 'external document id and location', $) ;
#252 =( NAMED_UNIT ( * ) PLANE_ANGLE_UNIT ( ) SI_UNIT ( $, .RADIAN. ) );
#253 =( GEOMETRIC_REPRESENTATION_CONTEXT ( 3 ) GLOBAL_UNCERTAINTY_ASSIGNED_CONTEXT ( ( #111 ) ) GLOBAL_UNIT_ASSIGNED_CONTEXT ( ( #188, #168, #126 ) ) REPRESENTATION_CONTEXT ( 'NONE', 'WORKASPACE' ) );
#254 = PRODUCT_DEFINITION_FORMATION_WITH_SPECIFIED_SOURCE ( 'å¯', '', #199, .NOT_KNOWN. ) ;
#255 = APPLICATION_PROTOCOL_DEFINITION ( 'draft international standard', 'automotive_design', 1998, #62 ) ;
#256 = APPLICATION_CONTEXT ( 'automotive_design' ) ;
#257 = SHAPE_DEFINITION_REPRESENTATION ( #74, #159 ) ;
#258 = APPLICATION_PROTOCOL_DEFINITION ( 'draft international standard', 'automotive_design', 1998, #256 ) ;
#259 = DIRECTION ( 'NONE',  ( 1.000000000000000000, 0.000000000000000000, 0.000000000000000000 ) ) ;
#260 = SHAPE_REPRESENTATION ( 'M_DC11_A01_IDLER_ASM', ( #129 ), #53 ) ;
#261 = ITEM_DEFINED_TRANSFORMATION ( 'NONE', 'NONE', #192,  #83 ) ;
#262 = DIRECTION ( 'NONE',  ( 0.000000000000000000, 0.000000000000000000, 1.000000000000000000 ) ) ;
#263 = PROPERTY_DEFINITION ('document property','', #21 ) ;
#264 =( REPRESENTATION_RELATIONSHIP ('NONE','NONE', #159, #132 ) REPRESENTATION_RELATIONSHIP_WITH_TRANSFORMATION ( #149 )SHAPE_REPRESENTATION_RELATIONSHIP( ) );
#265 = PROPERTY_DEFINITION_REPRESENTATION ( #58, #132 ) ;
#266 =( REPRESENTATION_RELATIONSHIP ('NONE','NONE', #159, #240 ) REPRESENTATION_RELATIONSHIP_WITH_TRANSFORMATION ( #213 )SHAPE_REPRESENTATION_RELATIONSHIP( ) );
#267 = PRODUCT_DEFINITION_SHAPE ( 'NONE', 'NONE',  #278 ) ;
#268 =( NAMED_UNIT ( * ) SI_UNIT ( $, .STERADIAN. ) SOLID_ANGLE_UNIT ( ) );
#269 = DIRECTION ( 'NONE',  ( 0.000000000000000000, 0.000000000000000000, 1.000000000000000000 ) ) ;
#270 = PROPERTY_DEFINITION ('external definition','', #47 ) ;
#271 = CARTESIAN_POINT ( 'NONE',  ( 56.31764918911824225, 6.509232092835645744, -24.44021896093562418 ) ) ;
#272 = SHAPE_REPRESENTATION ( 'DC11_B01_CASE_B_DUMMY2', ( #83 ), #7 ) ;
#273 = PRODUCT_DEFINITION ( 'æ™', '', #130, #8 ) ;
#274 =( REPRESENTATION_RELATIONSHIP ('NONE','NONE', #159, #40 ) REPRESENTATION_RELATIONSHIP_WITH_TRANSFORMATION ( #231 )SHAPE_REPRESENTATION_RELATIONSHIP( ) );
#275 = NEXT_ASSEMBLY_USAGE_OCCURRENCE ( 'NAUO20', ' ', ' ', #206, #273, $ ) ;
#276 = NEXT_ASSEMBLY_USAGE_OCCURRENCE ( 'NAUO21', ' ', ' ', #206, #221, $ ) ;
#277 = NEXT_ASSEMBLY_USAGE_OCCURRENCE ( 'NAUO22', ' ', ' ', #206, #250, $ ) ;
#278 = NEXT_ASSEMBLY_USAGE_OCCURRENCE ( 'NAUO23', ' ', ' ', #206, #35, $ ) ;
#279 = NEXT_ASSEMBLY_USAGE_OCCURRENCE ( 'NAUO24', ' ', ' ', #206, #4, $ ) ;
#280 = NEXT_ASSEMBLY_USAGE_OCCURRENCE ( 'NAUO25', ' ', ' ', #206, #31, $ ) ;
ENDSEC;
END-ISO-10303-21;
