ISO-10303-21;
HEADER;
FILE_DESCRIPTION (( 'STEP AP214' ),
    '1' );
FILE_NAME ('Ðý×ª¶Ë¸Ç.STEP',
    '2026-08-29T22:11:53',
    ( '' ),
    ( '' ),
    'SwSTEP 2.0',
    'SolidWorks 2023',
    '' );
FILE_SCHEMA (( 'AUTOMOTIVE_DESIGN' ));
ENDSEC;

DATA;
#1 = DIRECTION ( 'NONE',  ( -1.000000000000000000, 0.000000000000000000, 0.000000000000000000 ) ) ;
#2 = ORIENTED_EDGE ( 'NONE', *, *, #76, .T. ) ;
#3 = PLANE ( 'NONE',  #53 ) ;
#4 = PRODUCT_DEFINITION_CONTEXT ( 'detailed design', #191, 'design' ) ;
#5 = COLOUR_RGB ( '',0.7921568627450980005, 0.8196078431372548767, 0.9333333333333333481 ) ;
#6 = EDGE_CURVE ( 'NONE', #287, #20, #215, .T. ) ;
#7 = FACE_OUTER_BOUND ( 'NONE', #345, .T. ) ;
#8 = PLANE ( 'NONE',  #263 ) ;
#9 = EDGE_LOOP ( 'NONE', ( #86, #225 ) ) ;
#10 = EDGE_CURVE ( 'NONE', #63, #280, #135, .T. ) ;
#11 = DIRECTION ( 'NONE',  ( -0.9639835001109924306, 0.2659620490103055124, 0.000000000000000000 ) ) ;
#12 = ORIENTED_EDGE ( 'NONE', *, *, #324, .F. ) ;
#13 = AXIS2_PLACEMENT_3D ( 'NONE', #29, #109, #222 ) ;
#14 = DIRECTION ( 'NONE',  ( 0.000000000000000000, 0.000000000000000000, 1.000000000000000000 ) ) ;
#15 =( NAMED_UNIT ( * ) SI_UNIT ( $, .STERADIAN. ) SOLID_ANGLE_UNIT ( ) );
#16 = ORIENTED_EDGE ( 'NONE', *, *, #153, .T. ) ;
#17 = VERTEX_POINT ( 'NONE', #205 ) ;
#18 = UNCERTAINTY_MEASURE_WITH_UNIT (LENGTH_MEASURE( 1.000000000000000082E-05 ), #188, 'distance_accuracy_value', 'NONE');
#19 = ORIENTED_EDGE ( 'NONE', *, *, #317, .F. ) ;
#20 = VERTEX_POINT ( 'NONE', #321 ) ;
#21 = PRODUCT_RELATED_PRODUCT_CATEGORY ( 'part', '', ( #270 ) ) ;
#22 = CARTESIAN_POINT ( 'NONE',  ( 0.000000000000000000, 0.000000000000000000, 2.000000000000000000 ) ) ;
#23 = CARTESIAN_POINT ( 'NONE',  ( -3.257949465762522878E-13, 1.610045430311401813E-12, 2.000000000000000000 ) ) ;
#24 = CARTESIAN_POINT ( 'NONE',  ( 0.000000000000000000, 0.000000000000000000, 2.000000000000000000 ) ) ;
#25 = FACE_OUTER_BOUND ( 'NONE', #114, .T. ) ;
#26 = AXIS2_PLACEMENT_3D ( 'NONE', #79, #272, #332 ) ;
#27 = CARTESIAN_POINT ( 'NONE',  ( 0.000000000000000000, 0.000000000000000000, 4.000000000000000000 ) ) ;
#28 = CARTESIAN_POINT ( 'NONE',  ( 0.000000000000000000, 0.000000000000000000, 2.000000000000000000 ) ) ;
#29 = CARTESIAN_POINT ( 'NONE',  ( 0.000000000000000000, 0.000000000000000000, 0.000000000000000000 ) ) ;
#30 = ORIENTED_EDGE ( 'NONE', *, *, #310, .F. ) ;
#31 = CARTESIAN_POINT ( 'NONE',  ( 3.500000000000000000, 4.286263797015736595E-16, 2.000000000000000000 ) ) ;
#32 = CIRCLE ( 'NONE', #251, 1.864999999999991998 ) ;
#33 = CARTESIAN_POINT ( 'NONE',  ( -4.500000000000000000, 0.000000000000000000, 2.000000000000000000 ) ) ;
#34 = ORIENTED_EDGE ( 'NONE', *, *, #110, .F. ) ;
#35 = CARTESIAN_POINT ( 'NONE',  ( 7.500000000000000000, 9.184850993605147944E-16, 4.000000000000000000 ) ) ;
#36 = EDGE_LOOP ( 'NONE', ( #286, #134 ) ) ;
#37 = EDGE_CURVE ( 'NONE', #148, #20, #69, .T. ) ;
#38 = PRODUCT_CONTEXT ( 'NONE', #200, 'mechanical' ) ;
#39 = AXIS2_PLACEMENT_3D ( 'NONE', #22, #213, #130 ) ;
#40 = CARTESIAN_POINT ( 'NONE',  ( -7.500000000000000000, 0.000000000000000000, 4.000000000000000000 ) ) ;
#41 = DIRECTION ( 'NONE',  ( 1.000000000000000000, 0.000000000000000000, 0.000000000000000000 ) ) ;
#42 = VERTEX_POINT ( 'NONE', #179 ) ;
#43 = ADVANCED_FACE ( 'NONE', ( #295 ), #46, .T. ) ;
#44 = ORIENTED_EDGE ( 'NONE', *, *, #149, .F. ) ;
#45 = AXIS2_PLACEMENT_3D ( 'NONE', #97, #208, #327 ) ;
#46 = CYLINDRICAL_SURFACE ( 'NONE', #183, 7.500000000000000000 ) ;
#47 = CARTESIAN_POINT ( 'NONE',  ( 0.000000000000000000, 0.000000000000000000, 0.000000000000000000 ) ) ;
#48 = DIRECTION ( 'NONE',  ( 0.000000000000000000, 0.000000000000000000, 1.000000000000000000 ) ) ;
#49 = FILL_AREA_STYLE ('',( #359 ) ) ;
#50 = ADVANCED_FACE ( 'NONE', ( #241 ), #352, .T. ) ;
#51 = DIRECTION ( 'NONE',  ( 0.000000000000000000, 0.000000000000000000, 1.000000000000000000 ) ) ;
#52 = VECTOR ( 'NONE', #193, 1000.000000000000000 ) ;
#53 = AXIS2_PLACEMENT_3D ( 'NONE', #57, #167, #282 ) ;
#54 = CYLINDRICAL_SURFACE ( 'NONE', #113, 4.500000000000000000 ) ;
#55 = EDGE_LOOP ( 'NONE', ( #198, #199, #145, #308 ) ) ;
#56 = ORIENTED_EDGE ( 'NONE', *, *, #37, .F. ) ;
#57 = CARTESIAN_POINT ( 'NONE',  ( 0.000000000000000000, 0.000000000000000000, 4.000000000000000000 ) ) ;
#58 = VERTEX_POINT ( 'NONE', #231 ) ;
#59 = AXIS2_PLACEMENT_3D ( 'NONE', #343, #256, #11 ) ;
#60 = CARTESIAN_POINT ( 'NONE',  ( 4.500000000000000000, 5.510910596163088569E-16, 2.000000000000000000 ) ) ;
#61 = ORIENTED_EDGE ( 'NONE', *, *, #153, .F. ) ;
#62 = EDGE_CURVE ( 'NONE', #312, #176, #65, .T. ) ;
#63 = VERTEX_POINT ( 'NONE', #64 ) ;
#64 = CARTESIAN_POINT ( 'NONE',  ( 4.500000000000000000, 5.510910596163088569E-16, 0.000000000000000000 ) ) ;
#65 = CIRCLE ( 'NONE', #99, 7.500000000000000000 ) ;
#66 = CARTESIAN_POINT ( 'NONE',  ( 0.000000000000000000, 0.000000000000000000, 0.000000000000000000 ) ) ;
#67 = EDGE_LOOP ( 'NONE', ( #221, #230 ) ) ;
#68 = DIRECTION ( 'NONE',  ( 0.000000000000000000, 0.000000000000000000, 1.000000000000000000 ) ) ;
#69 = LINE ( 'NONE', #292, #140 ) ;
#70 = SHAPE_DEFINITION_REPRESENTATION ( #329, #108 ) ;
#71 = DIRECTION ( 'NONE',  ( -0.000000000000000000, -0.000000000000000000, -1.000000000000000000 ) ) ;
#72 = ADVANCED_FACE ( 'NONE', ( #290 ), #143, .F. ) ;
#73 = ORIENTED_EDGE ( 'NONE', *, *, #324, .T. ) ;
#74 = SURFACE_STYLE_USAGE ( .BOTH. , #271 ) ;
#75 = DIRECTION ( 'NONE',  ( -1.665334536937735304E-16, -1.110223024625156787E-16, 1.000000000000000000 ) ) ;
#76 = EDGE_CURVE ( 'NONE', #20, #287, #293, .T. ) ;
#77 = CYLINDRICAL_SURFACE ( 'NONE', #26, 1.864999999999992220 ) ;
#78 = CARTESIAN_POINT ( 'NONE',  ( -7.500000000000000000, 0.000000000000000000, 4.000000000000000000 ) ) ;
#79 = CARTESIAN_POINT ( 'NONE',  ( -3.261280134836397337E-13, 1.609823385706476984E-12, 3.999999999999573230 ) ) ;
#80 = EDGE_CURVE ( 'NONE', #203, #223, #196, .T. ) ;
#81 = CIRCLE ( 'NONE', #227, 1.864999999999991775 ) ;
#82 = FACE_BOUND ( 'NONE', #163, .T. ) ;
#83 = DIRECTION ( 'NONE',  ( 0.000000000000000000, 0.000000000000000000, 1.000000000000000000 ) ) ;
#84 = ORIENTED_EDGE ( 'NONE', *, *, #298, .F. ) ;
#85 = CARTESIAN_POINT ( 'NONE',  ( 7.500000000000000000, 9.184850993605147944E-16, 4.000000000000000000 ) ) ;
#86 = ORIENTED_EDGE ( 'NONE', *, *, #171, .T. ) ;
#87 = DIRECTION ( 'NONE',  ( 1.000000000000000000, 0.000000000000000000, 0.000000000000000000 ) ) ;
#88 = EDGE_CURVE ( 'NONE', #42, #189, #357, .T. ) ;
#89 = VERTEX_POINT ( 'NONE', #354 ) ;
#90 = DIRECTION ( 'NONE',  ( 1.000000000000000000, 0.000000000000000000, 0.000000000000000000 ) ) ;
#91 = ORIENTED_EDGE ( 'NONE', *, *, #62, .T. ) ;
#92 = CARTESIAN_POINT ( 'NONE',  ( 0.000000000000000000, 0.000000000000000000, 2.000000000000000000 ) ) ;
#93 = ORIENTED_EDGE ( 'NONE', *, *, #110, .T. ) ;
#94 = CLOSED_SHELL ( 'NONE', ( #234, #43, #72, #126, #289, #269, #274, #240, #50, #303, #98, #190 ) ) ;
#95 = ORIENTED_EDGE ( 'NONE', *, *, #358, .T. ) ;
#96 = DIRECTION ( 'NONE',  ( 1.000000000000000000, 0.000000000000000000, 0.000000000000000000 ) ) ;
#97 = CARTESIAN_POINT ( 'NONE',  ( 0.000000000000000000, 0.000000000000000000, 4.000000000000000000 ) ) ;
#98 = ADVANCED_FACE ( 'NONE', ( #246, #100 ), #268, .F. ) ;
#99 = AXIS2_PLACEMENT_3D ( 'NONE', #92, #201, #318 ) ;
#100 = FACE_OUTER_BOUND ( 'NONE', #219, .T. ) ;
#101 = DIRECTION ( 'NONE',  ( 0.000000000000000000, 0.000000000000000000, 1.000000000000000000 ) ) ;
#102 = DIRECTION ( 'NONE',  ( 1.000000000000000000, 0.000000000000000000, 0.000000000000000000 ) ) ;
#103 = AXIS2_PLACEMENT_3D ( 'NONE', #66, #68, #90 ) ;
#104 = DIRECTION ( 'NONE',  ( -1.665334536937735304E-16, -1.110223024625156787E-16, 1.000000000000000000 ) ) ;
#105 = DIRECTION ( 'NONE',  ( 1.000000000000000000, 0.000000000000000000, 0.000000000000000000 ) ) ;
#106 = LINE ( 'NONE', #31, #273 ) ;
#107 = AXIS2_PLACEMENT_3D ( 'NONE', #181, #152, #244 ) ;
#108 = ADVANCED_BREP_SHAPE_REPRESENTATION ( '\X2\65cb8f6c7aef76d6\X0\', ( #217, #247 ), #178 ) ;
#109 = DIRECTION ( 'NONE',  ( 0.000000000000000000, 0.000000000000000000, 1.000000000000000000 ) ) ;
#110 = EDGE_CURVE ( 'NONE', #189, #89, #258, .T. ) ;
#111 = FACE_OUTER_BOUND ( 'NONE', #36, .T. ) ;
#112 = CARTESIAN_POINT ( 'NONE',  ( 3.500000000000000000, 4.286263797015736595E-16, 0.000000000000000000 ) ) ;
#113 = AXIS2_PLACEMENT_3D ( 'NONE', #28, #162, #279 ) ;
#114 = EDGE_LOOP ( 'NONE', ( #84, #316, #253, #93 ) ) ;
#115 = CIRCLE ( 'NONE', #159, 3.500000000000000000 ) ;
#116 = CARTESIAN_POINT ( 'NONE',  ( 0.000000000000000000, 0.000000000000000000, 0.000000000000000000 ) ) ;
#117 = DIRECTION ( 'NONE',  ( -1.000000000000000000, 0.000000000000000000, 0.000000000000000000 ) ) ;
#118 = EDGE_LOOP ( 'NONE', ( #170, #73, #91, #335 ) ) ;
#119 = AXIS2_PLACEMENT_3D ( 'NONE', #233, #242, #333 ) ;
#120 = LINE ( 'NONE', #40, #326 ) ;
#121 = ORIENTED_EDGE ( 'NONE', *, *, #171, .F. ) ;
#122 = EDGE_CURVE ( 'NONE', #223, #203, #353, .T. ) ;
#123 = CARTESIAN_POINT ( 'NONE',  ( 0.000000000000000000, 0.000000000000000000, 0.000000000000000000 ) ) ;
#124 = DIRECTION ( 'NONE',  ( -1.665334536937735304E-16, -1.110223024625156787E-16, 1.000000000000000000 ) ) ;
#125 = DIRECTION ( 'NONE',  ( 1.000000000000000000, 0.000000000000000000, 0.000000000000000000 ) ) ;
#126 = ADVANCED_FACE ( 'NONE', ( #212 ), #127, .T. ) ;
#127 = CYLINDRICAL_SURFACE ( 'NONE', #107, 4.500000000000000000 ) ;
#128 = DIRECTION ( 'NONE',  ( -0.000000000000000000, -0.000000000000000000, -1.000000000000000000 ) ) ;
#129 = AXIS2_PLACEMENT_3D ( 'NONE', #156, #330, #218 ) ;
#130 = DIRECTION ( 'NONE',  ( 1.000000000000000000, 0.000000000000000000, 0.000000000000000000 ) ) ;
#131 = CARTESIAN_POINT ( 'NONE',  ( 4.500000000000000000, 5.510910596163088569E-16, 2.000000000000000000 ) ) ;
#132 = EDGE_LOOP ( 'NONE', ( #141, #262, #168, #192 ) ) ;
#133 = FACE_OUTER_BOUND ( 'NONE', #67, .T. ) ;
#134 = ORIENTED_EDGE ( 'NONE', *, *, #10, .F. ) ;
#135 = CIRCLE ( 'NONE', #348, 4.500000000000000000 ) ;
#136 = ORIENTED_EDGE ( 'NONE', *, *, #88, .F. ) ;
#137 = CARTESIAN_POINT ( 'NONE',  ( 0.000000000000000000, 0.000000000000000000, 2.000000000000000000 ) ) ;
#138 = DIRECTION ( 'NONE',  ( -0.000000000000000000, -0.000000000000000000, -1.000000000000000000 ) ) ;
#139 = PRODUCT_DEFINITION ( 'æ™', '', #342, #4 ) ;
#140 = VECTOR ( 'NONE', #71, 1000.000000000000000 ) ;
#141 = ORIENTED_EDGE ( 'NONE', *, *, #334, .F. ) ;
#142 = DIRECTION ( 'NONE',  ( 0.000000000000000000, 0.000000000000000000, 1.000000000000000000 ) ) ;
#143 = CYLINDRICAL_SURFACE ( 'NONE', #119, 3.500000000000000000 ) ;
#144 = DIRECTION ( 'NONE',  ( 0.000000000000000000, 0.000000000000000000, 1.000000000000000000 ) ) ;
#145 = ORIENTED_EDGE ( 'NONE', *, *, #37, .T. ) ;
#146 = APPLICATION_PROTOCOL_DEFINITION ( 'draft international standard', 'automotive_design', 1998, #191 ) ;
#147 = CIRCLE ( 'NONE', #226, 3.500000000000000000 ) ;
#148 = VERTEX_POINT ( 'NONE', #297 ) ;
#149 = EDGE_CURVE ( 'NONE', #176, #312, #313, .T. ) ;
#150 = DIRECTION ( 'NONE',  ( -0.000000000000000000, -0.000000000000000000, -1.000000000000000000 ) ) ;
#151 = CARTESIAN_POINT ( 'NONE',  ( 0.000000000000000000, 0.000000000000000000, 4.000000000000000000 ) ) ;
#152 = DIRECTION ( 'NONE',  ( -0.000000000000000000, -0.000000000000000000, -1.000000000000000000 ) ) ;
#153 = EDGE_CURVE ( 'NONE', #89, #189, #32, .T. ) ;
#154 = CARTESIAN_POINT ( 'NONE',  ( -3.261280134836397337E-13, 1.609823385706476984E-12, 3.999999999999573230 ) ) ;
#155 = VECTOR ( 'NONE', #128, 1000.000000000000000 ) ;
#156 = CARTESIAN_POINT ( 'NONE',  ( 0.000000000000000000, 0.000000000000000000, 4.000000000000000000 ) ) ;
#157 = SURFACE_STYLE_FILL_AREA ( #49 ) ;
#158 = DIRECTION ( 'NONE',  ( 0.000000000000000000, 0.000000000000000000, 1.000000000000000000 ) ) ;
#159 = AXIS2_PLACEMENT_3D ( 'NONE', #235, #142, #177 ) ;
#160 = AXIS2_PLACEMENT_3D ( 'NONE', #27, #299, #125 ) ;
#161 = FACE_OUTER_BOUND ( 'NONE', #55, .T. ) ;
#162 = DIRECTION ( 'NONE',  ( -0.000000000000000000, -0.000000000000000000, -1.000000000000000000 ) ) ;
#163 = EDGE_LOOP ( 'NONE', ( #2, #277 ) ) ;
#164 = EDGE_CURVE ( 'NONE', #42, #58, #180, .T. ) ;
#165 = ORIENTED_EDGE ( 'NONE', *, *, #149, .T. ) ;
#166 =( GEOMETRIC_REPRESENTATION_CONTEXT ( 3 ) GLOBAL_UNCERTAINTY_ASSIGNED_CONTEXT ( ( #18 ) ) GLOBAL_UNIT_ASSIGNED_CONTEXT ( ( #188, #229, #275 ) ) REPRESENTATION_CONTEXT ( 'NONE', 'WORKASPACE' ) );
#167 = DIRECTION ( 'NONE',  ( 0.000000000000000000, 0.000000000000000000, 1.000000000000000000 ) ) ;
#168 = ORIENTED_EDGE ( 'NONE', *, *, #10, .T. ) ;
#169 = DIRECTION ( 'NONE',  ( -0.000000000000000000, -0.000000000000000000, -1.000000000000000000 ) ) ;
#170 = ORIENTED_EDGE ( 'NONE', *, *, #122, .F. ) ;
#171 = EDGE_CURVE ( 'NONE', #306, #283, #187, .T. ) ;
#172 = ORIENTED_EDGE ( 'NONE', *, *, #76, .F. ) ;
#173 = AXIS2_PLACEMENT_3D ( 'NONE', #355, #104, #216 ) ;
#174 =( LENGTH_UNIT ( ) NAMED_UNIT ( * ) SI_UNIT ( .MILLI., .METRE. ) );
#175 = EDGE_LOOP ( 'NONE', ( #351, #291, #16, #136 ) ) ;
#176 = VERTEX_POINT ( 'NONE', #214 ) ;
#177 = DIRECTION ( 'NONE',  ( 1.000000000000000000, 0.000000000000000000, 0.000000000000000000 ) ) ;
#178 =( GEOMETRIC_REPRESENTATION_CONTEXT ( 3 ) GLOBAL_UNCERTAINTY_ASSIGNED_CONTEXT ( ( #278 ) ) GLOBAL_UNIT_ASSIGNED_CONTEXT ( ( #174, #232, #15 ) ) REPRESENTATION_CONTEXT ( 'NONE', 'WORKASPACE' ) );
#179 = CARTESIAN_POINT ( 'NONE',  ( -1.797829227707318678, 0.4960192214058273819, 2.000000000000000000 ) ) ;
#180 = CIRCLE ( 'NONE', #195, 1.864999999999991775 ) ;
#181 = CARTESIAN_POINT ( 'NONE',  ( 0.000000000000000000, 0.000000000000000000, 2.000000000000000000 ) ) ;
#182 = DIRECTION ( 'NONE',  ( 1.000000000000000000, 0.000000000000000000, -0.000000000000000000 ) ) ;
#183 = AXIS2_PLACEMENT_3D ( 'NONE', #151, #265, #117 ) ;
#184 = DIRECTION ( 'NONE',  ( 0.000000000000000000, 0.000000000000000000, 1.000000000000000000 ) ) ;
#185 = CARTESIAN_POINT ( 'NONE',  ( -4.500000000000000000, 0.000000000000000000, 2.000000000000000000 ) ) ;
#186 = DIRECTION ( 'NONE',  ( -0.000000000000000000, -0.000000000000000000, -1.000000000000000000 ) ) ;
#187 = CIRCLE ( 'NONE', #39, 4.500000000000000000 ) ;
#188 =( LENGTH_UNIT ( ) NAMED_UNIT ( * ) SI_UNIT ( .MILLI., .METRE. ) );
#189 = VERTEX_POINT ( 'NONE', #331 ) ;
#190 = ADVANCED_FACE ( 'NONE', ( #25 ), #77, .F. ) ;
#191 = APPLICATION_CONTEXT ( 'automotive_design' ) ;
#192 = ORIENTED_EDGE ( 'NONE', *, *, #204, .F. ) ;
#193 = DIRECTION ( 'NONE',  ( -1.665334536937735304E-16, -1.110223024625156787E-16, 1.000000000000000000 ) ) ;
#194 = ORIENTED_EDGE ( 'NONE', *, *, #344, .F. ) ;
#195 = AXIS2_PLACEMENT_3D ( 'NONE', #23, #101, #102 ) ;
#196 = CIRCLE ( 'NONE', #129, 7.500000000000000000 ) ;
#197 = CARTESIAN_POINT ( 'NONE',  ( 7.500000000000000000, 9.184850993605147944E-16, 2.000000000000000000 ) ) ;
#198 = ORIENTED_EDGE ( 'NONE', *, *, #284, .F. ) ;
#199 = ORIENTED_EDGE ( 'NONE', *, *, #310, .T. ) ;
#200 = APPLICATION_CONTEXT ( 'automotive_design' ) ;
#201 = DIRECTION ( 'NONE',  ( 0.000000000000000000, 0.000000000000000000, 1.000000000000000000 ) ) ;
#202 = VECTOR ( 'NONE', #75, 1000.000000000000000 ) ;
#203 = VERTEX_POINT ( 'NONE', #78 ) ;
#204 = EDGE_CURVE ( 'NONE', #306, #280, #266, .T. ) ;
#205 = CARTESIAN_POINT ( 'NONE',  ( 3.500000000000000000, 4.286263797015736595E-16, 2.000000000000000000 ) ) ;
#206 = CARTESIAN_POINT ( 'NONE',  ( 0.000000000000000000, 0.000000000000000000, 0.000000000000000000 ) ) ;
#207 = EDGE_LOOP ( 'NONE', ( #19, #121, #260, #264 ) ) ;
#208 = DIRECTION ( 'NONE',  ( -0.000000000000000000, -0.000000000000000000, -1.000000000000000000 ) ) ;
#209 = AXIS2_PLACEMENT_3D ( 'NONE', #47, #48, #105 ) ;
#210 = EDGE_CURVE ( 'NONE', #58, #42, #81, .T. ) ;
#211 = CIRCLE ( 'NONE', #103, 4.500000000000000000 ) ;
#212 = FACE_OUTER_BOUND ( 'NONE', #132, .T. ) ;
#213 = DIRECTION ( 'NONE',  ( 0.000000000000000000, 0.000000000000000000, 1.000000000000000000 ) ) ;
#214 = CARTESIAN_POINT ( 'NONE',  ( -7.500000000000000000, 0.000000000000000000, 2.000000000000000000 ) ) ;
#215 = CIRCLE ( 'NONE', #288, 3.500000000000000000 ) ;
#216 = DIRECTION ( 'NONE',  ( -0.9639835001109924306, 0.2659620490103055124, 0.000000000000000000 ) ) ;
#217 = MANIFOLD_SOLID_BREP ( 'Í¹Ì¨-À­Éì2', #94 ) ;
#218 = DIRECTION ( 'NONE',  ( 1.000000000000000000, 0.000000000000000000, 0.000000000000000000 ) ) ;
#219 = EDGE_LOOP ( 'NONE', ( #44, #257 ) ) ;
#220 = LINE ( 'NONE', #276, #52 ) ;
#221 = ORIENTED_EDGE ( 'NONE', *, *, #80, .T. ) ;
#222 = DIRECTION ( 'NONE',  ( 1.000000000000000000, 0.000000000000000000, -0.000000000000000000 ) ) ;
#223 = VERTEX_POINT ( 'NONE', #85 ) ;
#224 = DIRECTION ( 'NONE',  ( 0.000000000000000000, 0.000000000000000000, 1.000000000000000000 ) ) ;
#225 = ORIENTED_EDGE ( 'NONE', *, *, #334, .T. ) ;
#226 = AXIS2_PLACEMENT_3D ( 'NONE', #137, #224, #87 ) ;
#227 = AXIS2_PLACEMENT_3D ( 'NONE', #248, #184, #328 ) ;
#228 = CIRCLE ( 'NONE', #245, 4.500000000000000000 ) ;
#229 =( NAMED_UNIT ( * ) PLANE_ANGLE_UNIT ( ) SI_UNIT ( $, .RADIAN. ) );
#230 = ORIENTED_EDGE ( 'NONE', *, *, #122, .T. ) ;
#231 = CARTESIAN_POINT ( 'NONE',  ( 1.797829227706667199, -0.4960192214026078461, 2.000000000000000000 ) ) ;
#232 =( NAMED_UNIT ( * ) PLANE_ANGLE_UNIT ( ) SI_UNIT ( $, .RADIAN. ) );
#233 = CARTESIAN_POINT ( 'NONE',  ( 0.000000000000000000, 0.000000000000000000, 2.000000000000000000 ) ) ;
#234 = ADVANCED_FACE ( 'NONE', ( #301 ), #307, .F. ) ;
#235 = CARTESIAN_POINT ( 'NONE',  ( 0.000000000000000000, 0.000000000000000000, 2.000000000000000000 ) ) ;
#236 = PRESENTATION_LAYER_ASSIGNMENT (  '', '', ( #300 ) ) ;
#237 = ORIENTED_EDGE ( 'NONE', *, *, #210, .T. ) ;
#238 = EDGE_LOOP ( 'NONE', ( #34, #61 ) ) ;
#239 = APPLICATION_PROTOCOL_DEFINITION ( 'draft international standard', 'automotive_design', 1998, #200 ) ;
#240 = ADVANCED_FACE ( 'NONE', ( #249, #7 ), #8, .F. ) ;
#241 = FACE_OUTER_BOUND ( 'NONE', #255, .T. ) ;
#242 = DIRECTION ( 'NONE',  ( -0.000000000000000000, -0.000000000000000000, -1.000000000000000000 ) ) ;
#243 = CARTESIAN_POINT ( 'NONE',  ( 0.000000000000000000, 0.000000000000000000, 2.000000000000000000 ) ) ;
#244 = DIRECTION ( 'NONE',  ( -1.000000000000000000, 0.000000000000000000, 0.000000000000000000 ) ) ;
#245 = AXIS2_PLACEMENT_3D ( 'NONE', #259, #144, #261 ) ;
#246 = FACE_BOUND ( 'NONE', #9, .T. ) ;
#247 = AXIS2_PLACEMENT_3D ( 'NONE', #206, #346, #322 ) ;
#248 = CARTESIAN_POINT ( 'NONE',  ( -3.257949465762522878E-13, 1.610045430311401813E-12, 2.000000000000000000 ) ) ;
#249 = FACE_BOUND ( 'NONE', #347, .T. ) ;
#250 = CARTESIAN_POINT ( 'NONE',  ( 0.000000000000000000, 0.000000000000000000, 2.000000000000000000 ) ) ;
#251 = AXIS2_PLACEMENT_3D ( 'NONE', #154, #124, #267 ) ;
#252 = DIRECTION ( 'NONE',  ( -0.000000000000000000, -0.000000000000000000, -1.000000000000000000 ) ) ;
#253 = ORIENTED_EDGE ( 'NONE', *, *, #88, .T. ) ;
#254 = CYLINDRICAL_SURFACE ( 'NONE', #325, 3.500000000000000000 ) ;
#255 = EDGE_LOOP ( 'NONE', ( #12, #323, #95, #165 ) ) ;
#256 = DIRECTION ( 'NONE',  ( -1.665334536937735304E-16, -1.110223024625156787E-16, 1.000000000000000000 ) ) ;
#257 = ORIENTED_EDGE ( 'NONE', *, *, #62, .F. ) ;
#258 = CIRCLE ( 'NONE', #173, 1.864999999999991998 ) ;
#259 = CARTESIAN_POINT ( 'NONE',  ( 0.000000000000000000, 0.000000000000000000, 2.000000000000000000 ) ) ;
#260 = ORIENTED_EDGE ( 'NONE', *, *, #204, .T. ) ;
#261 = DIRECTION ( 'NONE',  ( 1.000000000000000000, 0.000000000000000000, 0.000000000000000000 ) ) ;
#262 = ORIENTED_EDGE ( 'NONE', *, *, #317, .T. ) ;
#263 = AXIS2_PLACEMENT_3D ( 'NONE', #336, #83, #305 ) ;
#264 = ORIENTED_EDGE ( 'NONE', *, *, #350, .T. ) ;
#265 = DIRECTION ( 'NONE',  ( -0.000000000000000000, -0.000000000000000000, -1.000000000000000000 ) ) ;
#266 = LINE ( 'NONE', #185, #155 ) ;
#267 = DIRECTION ( 'NONE',  ( -0.9639835001109924306, 0.2659620490103055124, 0.000000000000000000 ) ) ;
#268 = PLANE ( 'NONE',  #341 ) ;
#269 = ADVANCED_FACE ( 'NONE', ( #304 ), #54, .T. ) ;
#270 = PRODUCT ( '\X2\65cb8f6c7aef76d6\X0\', '\X2\65cb8f6c7aef76d6\X0\', '', ( #38 ) ) ;
#271 = SURFACE_SIDE_STYLE ('',( #157 ) ) ;
#272 = DIRECTION ( 'NONE',  ( -1.665334536937735304E-16, -1.110223024625156787E-16, 1.000000000000000000 ) ) ;
#273 = VECTOR ( 'NONE', #252, 1000.000000000000000 ) ;
#274 = ADVANCED_FACE ( 'NONE', ( #161 ), #254, .F. ) ;
#275 =( NAMED_UNIT ( * ) SI_UNIT ( $, .STERADIAN. ) SOLID_ANGLE_UNIT ( ) );
#276 = CARTESIAN_POINT ( 'NONE',  ( 1.797829227706667199, -0.4960192214026080681, 3.999999999999573230 ) ) ;
#277 = ORIENTED_EDGE ( 'NONE', *, *, #6, .T. ) ;
#278 = UNCERTAINTY_MEASURE_WITH_UNIT (LENGTH_MEASURE( 1.000000000000000082E-05 ), #174, 'distance_accuracy_value', 'NONE');
#279 = DIRECTION ( 'NONE',  ( -1.000000000000000000, 0.000000000000000000, 0.000000000000000000 ) ) ;
#280 = VERTEX_POINT ( 'NONE', #338 ) ;
#281 = MECHANICAL_DESIGN_GEOMETRIC_PRESENTATION_REPRESENTATION (  '', ( #300 ), #166 ) ;
#282 = DIRECTION ( 'NONE',  ( 1.000000000000000000, 0.000000000000000000, -0.000000000000000000 ) ) ;
#283 = VERTEX_POINT ( 'NONE', #131 ) ;
#284 = EDGE_CURVE ( 'NONE', #17, #287, #106, .T. ) ;
#285 = LINE ( 'NONE', #35, #311 ) ;
#286 = ORIENTED_EDGE ( 'NONE', *, *, #350, .F. ) ;
#287 = VERTEX_POINT ( 'NONE', #112 ) ;
#288 = AXIS2_PLACEMENT_3D ( 'NONE', #123, #14, #96 ) ;
#289 = ADVANCED_FACE ( 'NONE', ( #111, #82 ), #339, .F. ) ;
#290 = FACE_OUTER_BOUND ( 'NONE', #315, .T. ) ;
#291 = ORIENTED_EDGE ( 'NONE', *, *, #298, .T. ) ;
#292 = CARTESIAN_POINT ( 'NONE',  ( -3.500000000000000000, 0.000000000000000000, 2.000000000000000000 ) ) ;
#293 = CIRCLE ( 'NONE', #209, 3.500000000000000000 ) ;
#294 = VECTOR ( 'NONE', #169, 1000.000000000000000 ) ;
#295 = FACE_OUTER_BOUND ( 'NONE', #118, .T. ) ;
#296 = PRESENTATION_STYLE_ASSIGNMENT (( #74 ) ) ;
#297 = CARTESIAN_POINT ( 'NONE',  ( -3.500000000000000000, 0.000000000000000000, 2.000000000000000000 ) ) ;
#298 = EDGE_CURVE ( 'NONE', #58, #89, #220, .T. ) ;
#299 = DIRECTION ( 'NONE',  ( 0.000000000000000000, 0.000000000000000000, 1.000000000000000000 ) ) ;
#300 = STYLED_ITEM ( 'NONE', ( #296 ), #217 ) ;
#301 = FACE_OUTER_BOUND ( 'NONE', #175, .T. ) ;
#302 = CARTESIAN_POINT ( 'NONE',  ( -1.797829227707319566, 0.4960192214058274929, 3.999999999999573230 ) ) ;
#303 = ADVANCED_FACE ( 'NONE', ( #309, #133 ), #3, .T. ) ;
#304 = FACE_OUTER_BOUND ( 'NONE', #207, .T. ) ;
#305 = DIRECTION ( 'NONE',  ( 1.000000000000000000, 0.000000000000000000, -0.000000000000000000 ) ) ;
#306 = VERTEX_POINT ( 'NONE', #33 ) ;
#307 = CYLINDRICAL_SURFACE ( 'NONE', #59, 1.864999999999992220 ) ;
#308 = ORIENTED_EDGE ( 'NONE', *, *, #6, .F. ) ;
#309 = FACE_BOUND ( 'NONE', #238, .T. ) ;
#310 = EDGE_CURVE ( 'NONE', #17, #148, #147, .T. ) ;
#311 = VECTOR ( 'NONE', #138, 1000.000000000000000 ) ;
#312 = VERTEX_POINT ( 'NONE', #197 ) ;
#313 = CIRCLE ( 'NONE', #319, 7.500000000000000000 ) ;
#314 = LINE ( 'NONE', #60, #294 ) ;
#315 = EDGE_LOOP ( 'NONE', ( #337, #320, #172, #56 ) ) ;
#316 = ORIENTED_EDGE ( 'NONE', *, *, #164, .F. ) ;
#317 = EDGE_CURVE ( 'NONE', #283, #63, #314, .T. ) ;
#318 = DIRECTION ( 'NONE',  ( 1.000000000000000000, 0.000000000000000000, 0.000000000000000000 ) ) ;
#319 = AXIS2_PLACEMENT_3D ( 'NONE', #243, #158, #356 ) ;
#320 = ORIENTED_EDGE ( 'NONE', *, *, #284, .T. ) ;
#321 = CARTESIAN_POINT ( 'NONE',  ( -3.500000000000000000, 0.000000000000000000, 0.000000000000000000 ) ) ;
#322 = DIRECTION ( 'NONE',  ( 1.000000000000000000, 0.000000000000000000, 0.000000000000000000 ) ) ;
#323 = ORIENTED_EDGE ( 'NONE', *, *, #80, .F. ) ;
#324 = EDGE_CURVE ( 'NONE', #223, #312, #285, .T. ) ;
#325 = AXIS2_PLACEMENT_3D ( 'NONE', #250, #186, #1 ) ;
#326 = VECTOR ( 'NONE', #150, 1000.000000000000000 ) ;
#327 = DIRECTION ( 'NONE',  ( -1.000000000000000000, 0.000000000000000000, 0.000000000000000000 ) ) ;
#328 = DIRECTION ( 'NONE',  ( 1.000000000000000000, 0.000000000000000000, 0.000000000000000000 ) ) ;
#329 = PRODUCT_DEFINITION_SHAPE ( 'NONE', 'NONE',  #139 ) ;
#330 = DIRECTION ( 'NONE',  ( 0.000000000000000000, 0.000000000000000000, 1.000000000000000000 ) ) ;
#331 = CARTESIAN_POINT ( 'NONE',  ( -1.797829227707319344, 0.4960192214058274929, 3.999999999999573230 ) ) ;
#332 = DIRECTION ( 'NONE',  ( -0.9639835001109924306, 0.2659620490103055124, 0.000000000000000000 ) ) ;
#333 = DIRECTION ( 'NONE',  ( -1.000000000000000000, 0.000000000000000000, 0.000000000000000000 ) ) ;
#334 = EDGE_CURVE ( 'NONE', #283, #306, #228, .T. ) ;
#335 = ORIENTED_EDGE ( 'NONE', *, *, #358, .F. ) ;
#336 = CARTESIAN_POINT ( 'NONE',  ( 0.000000000000000000, 0.000000000000000000, 2.000000000000000000 ) ) ;
#337 = ORIENTED_EDGE ( 'NONE', *, *, #344, .T. ) ;
#338 = CARTESIAN_POINT ( 'NONE',  ( -4.500000000000000000, 0.000000000000000000, 0.000000000000000000 ) ) ;
#339 = PLANE ( 'NONE',  #13 ) ;
#340 = ORIENTED_EDGE ( 'NONE', *, *, #164, .T. ) ;
#341 = AXIS2_PLACEMENT_3D ( 'NONE', #24, #51, #182 ) ;
#342 = PRODUCT_DEFINITION_FORMATION_WITH_SPECIFIED_SOURCE ( 'å¯', '', #270, .NOT_KNOWN. ) ;
#343 = CARTESIAN_POINT ( 'NONE',  ( -3.261280134836397337E-13, 1.609823385706476984E-12, 3.999999999999573230 ) ) ;
#344 = EDGE_CURVE ( 'NONE', #148, #17, #115, .T. ) ;
#345 = EDGE_LOOP ( 'NONE', ( #194, #30 ) ) ;
#346 = DIRECTION ( 'NONE',  ( 0.000000000000000000, 0.000000000000000000, 1.000000000000000000 ) ) ;
#347 = EDGE_LOOP ( 'NONE', ( #340, #237 ) ) ;
#348 = AXIS2_PLACEMENT_3D ( 'NONE', #116, #349, #41 ) ;
#349 = DIRECTION ( 'NONE',  ( 0.000000000000000000, 0.000000000000000000, 1.000000000000000000 ) ) ;
#350 = EDGE_CURVE ( 'NONE', #280, #63, #211, .T. ) ;
#351 = ORIENTED_EDGE ( 'NONE', *, *, #210, .F. ) ;
#352 = CYLINDRICAL_SURFACE ( 'NONE', #45, 7.500000000000000000 ) ;
#353 = CIRCLE ( 'NONE', #160, 7.500000000000000000 ) ;
#354 = CARTESIAN_POINT ( 'NONE',  ( 1.797829227706666533, -0.4960192214026077351, 3.999999999999573230 ) ) ;
#355 = CARTESIAN_POINT ( 'NONE',  ( -3.261280134836397337E-13, 1.609823385706476984E-12, 3.999999999999573230 ) ) ;
#356 = DIRECTION ( 'NONE',  ( 1.000000000000000000, 0.000000000000000000, 0.000000000000000000 ) ) ;
#357 = LINE ( 'NONE', #302, #202 ) ;
#358 = EDGE_CURVE ( 'NONE', #203, #176, #120, .T. ) ;
#359 = FILL_AREA_STYLE_COLOUR ( '', #5 ) ;
ENDSEC;
END-ISO-10303-21;
